<svg width="105" height="106" viewBox="0 0 105 106" fill="none" xmlns="http://www.w3.org/2000/svg">
<g filter="url(#filter0_d_2019_134)">
<rect x="27.8419" y="28.42" width="49.3333" height="49.3333" rx="7.87377" stroke="url(#paint0_linear_2019_134)" stroke-width="1.12121"/>
<path d="M64.6552 65.2334V56.3361C64.6552 51.9633 63.7139 48.6231 58.6124 48.6231C56.1527 48.6231 54.5129 49.9592 53.8449 51.2346H53.7841V49.0178H48.9559V65.2334H53.9967V57.1863C53.9967 55.0607 54.3915 53.0262 57.003 53.0262C59.5841 53.0262 59.6145 55.4251 59.6145 57.3078V65.203H64.6552V65.2334ZM40.7571 49.0178H45.7978V65.2334H40.7571V49.0178ZM43.2775 40.9404C41.668 40.9404 40.3623 42.2462 40.3623 43.8556C40.3623 45.465 41.668 46.8011 43.2775 46.8011C44.8869 46.8011 46.1926 45.465 46.1926 43.8556C46.1926 42.2462 44.8869 40.9404 43.2775 40.9404Z" fill="#F0F0F0"/>
</g>
<defs>
<filter id="filter0_d_2019_134" x="0.016161" y="0.594286" width="104.984" height="104.984" filterUnits="userSpaceOnUse" color-interpolation-filters="sRGB">
<feFlood flood-opacity="0" result="BackgroundImageFix"/>
<feColorMatrix in="SourceAlpha" type="matrix" values="0 0 0 0 0 0 0 0 0 0 0 0 0 0 0 0 0 0 127 0" result="hardAlpha"/>
<feOffset/>
<feGaussianBlur stdDeviation="13.6325"/>
<feColorMatrix type="matrix" values="0 0 0 0 0.704167 0 0 0 0 1 0 0 0 0 0.98225 0 0 0 1 0"/>
<feBlend mode="normal" in2="BackgroundImageFix" result="effect1_dropShadow_2019_134"/>
<feBlend mode="normal" in="SourceGraphic" in2="effect1_dropShadow_2019_134" result="shape"/>
</filter>
<linearGradient id="paint0_linear_2019_134" x1="17.8414" y1="27.8594" x2="88.2915" y2="74.1751" gradientUnits="userSpaceOnUse">
<stop stop-color="#12FFF1"/>
<stop offset="1" stop-color="#EDFFFE" stop-opacity="0.4"/>
</linearGradient>
</defs>
</svg>
