<svg xmlns="http://www.w3.org/2000/svg" width="308" height="304" viewBox="0 0 308 304" fill="none">
  <defs>
    <filter id="blur" x="-40" y="-39.199" width="388" height="383" filterUnits="userSpaceOnUse" color-interpolation-filters="sRGB">
      <feFlood flood-opacity="0" result="BackgroundImageFix"/>
      <feGaussianBlur in="BackgroundImageFix" stdDeviation="20"/>
      <feComposite in2="SourceAlpha" operator="in" result="effect1_backgroundBlur"/>
      <feBlend in="SourceGraphic" in2="effect1_backgroundBlur" result="shape"/>
    </filter>
    <linearGradient id="stroke-gradient" x1="-226.967" y1="285.765" x2="-124.937" y2="56.443" gradientUnits="userSpaceOnUse">
      <stop stop-color="#fff" stop-opacity=".19"/>
      <stop offset="1" stop-color="#EDFFFE" stop-opacity=".15"/>
    </linearGradient>
  </defs>
  <g filter="url(#blur)">
    <path fill-rule="evenodd" clip-rule="evenodd" d="M8.67 303.801c-4.789 0-8.67-3.876-8.67-8.657V9.458C0 4.677 3.881.8 8.67.8h226.175c1.992 0 3.922.684 5.467 1.938l20.417 16.565a8.65 8.65 0 0 1 3.202 6.719v9.406c0 4.782 3.882 8.657 8.67 8.657h26.73c4.788 0 8.669 3.876 8.669 8.657v242.401c0 4.781-3.881 8.657-8.669 8.657z" fill="rgba(0, 0, 0, 0.10)"/>
    <path d="M.5 295.144c0 4.504 3.657 8.157 8.17 8.157h290.66c4.512 0 8.169-3.653 8.169-8.157v-242.4c0-4.505-3.657-8.158-8.169-8.158H272.6c-5.064 0-9.17-4.099-9.17-9.157v-9.406a8.15 8.15 0 0 0-3.017-6.33L239.997 3.126a8.18 8.18 0 0 0-5.152-1.826H8.669C4.157 1.3.5 4.954.5 9.458z" stroke="url(#stroke-gradient)" stroke-width="1"/>
  </g>
</svg>