<svg xmlns="http://www.w3.org/2000/svg" width="309" height="112" viewBox="0 0 309 112" fill="none">
  <g filter="url(#filter0_b_630_5581)">
    <path fill-rule="evenodd" clip-rule="evenodd" d="M9.16933 111.618C4.38139 111.618 0.5 107.742 0.5 102.961V8.86014C0.5 4.07894 4.38139 0.202988 9.16933 0.202988H237.745C239.736 0.202988 241.666 0.887428 243.212 2.14123L263.628 18.7064C265.654 20.3503 266.831 22.8184 266.831 25.4253V34.8316C266.831 39.6128 270.712 43.4886 275.5 43.4886H299.831C304.619 43.4886 308.5 47.3646 308.5 52.1458L308.5 102.961C308.5 107.742 304.619 111.618 299.831 111.618C196.031 111.618 113 111.618 9.16933 111.618Z" fill="black" fill-opacity="0.1"/>
    <path d="M1 102.961C1 107.465 4.65687 111.118 9.16933 111.118H9.77748H10.3851H10.9923H11.5991H12.2053H12.8111H13.4165H14.0213H14.6257H15.2297H15.8332H16.4362H17.0388H17.6409H18.2426H18.8438H19.4446H20.0449H20.6448H21.2443H21.8433H22.4418H23.04H23.6377H24.235H24.8318H25.4282H26.0242H26.6198H27.2149H27.8097H28.404H28.9979H29.5914H30.1844H30.7771H31.3693H31.9612H32.5526H33.1436H33.7342H34.3245H34.9143H35.5037H36.0928H36.6814H37.2697H37.8575H38.445H39.0321H39.6188H40.2051H40.7911H41.3767H41.9619H42.5467H43.1311H43.7152H44.2989H44.8823H45.4653H46.0479H46.6301H47.212H47.7936H48.3748H48.9556H49.5361H50.1162H50.696H51.2754H51.8545H52.4333H53.0117H53.5898H54.1675H54.7449H55.322H55.8987H56.4751H57.0512H57.627H58.2024H58.7775H59.3523H59.9268H60.5009H61.0748H61.6483H62.2215H62.7944H63.367H63.9393H64.5113H65.083H65.6544H66.2255H66.7963H67.3668H67.937H68.5069H69.0766H69.6459H70.215H70.7838H71.3522H71.9205H72.4884H73.0561H73.6235H74.1906H74.7574H75.324H75.8904H76.4564H77.0222H77.5877H78.153H78.718H79.2828H79.8473H80.4115H80.9756H81.5393H82.1028H82.6661H83.2291H83.7919H84.3545H84.9168H85.4789H86.0407H86.6023H87.1637H87.7249H88.2858H88.8465H89.407H89.9673H90.5273H91.0872H91.6468H92.2062H92.7654H93.3244H93.8832H94.4418H95.0001H95.5583H96.1163H96.6741H97.2317H97.789H98.3462H98.9033H99.4601H100.017H100.573H101.129H101.686H102.241H102.797H103.353H103.908H104.463H105.018H105.573H106.128H106.682H107.237H107.791H108.345H108.899H109.453H110.006H110.56H111.113H111.666H112.219H112.772H113.325H113.878H114.43H114.982H115.534H116.086H116.638H117.19H117.742H118.293H118.845H119.396H119.947H120.498H121.049H121.6H122.151H122.701H123.252H123.802H124.353H124.903H125.453H126.003H126.553H127.102H127.652H128.202H128.751H129.301H129.85H130.399H130.948H131.498H132.047H132.596H133.144H133.693H134.242H134.791H135.339H135.888H136.436H136.984H137.533H138.081H138.629H139.178H139.726H140.274H140.822H141.37H141.918H142.465H143.013H143.561H144.109H144.657H145.204H145.752H146.3H146.847H147.395H147.942H148.49H149.037H149.585H150.132H150.68H151.227H151.775H152.322H152.869H153.417H153.964H154.512H155.059H155.606H156.154H156.701H157.249H157.796H158.344H158.891H159.438H159.986H160.533H161.081H161.629H162.176H162.724H163.271H163.819H164.367H164.914H165.462H166.01H166.558H167.106H167.653H168.201H168.749H169.297H169.846H170.394H170.942H171.49H172.038H172.587H173.135H173.684H174.232H174.781H175.33H175.878H176.427H176.976H177.525H178.074H178.623H179.173H179.722H180.271H180.821H181.37H181.92H182.47H183.02H183.57H184.12H184.67H185.22H185.77H186.321H186.871H187.422H187.973H188.524H189.075H189.626H190.177H190.728H191.28H191.831H192.383H192.935H193.487H194.039H194.591H195.144H195.696H196.249H196.802H197.355H197.908H198.461H199.015H199.568H200.122H200.676H201.23H201.784H202.338H202.893H203.447H204.002H204.557H205.112H205.668H206.223H206.779H207.335H207.891H208.447H209.003H209.56H210.116H210.673H211.23H211.788H212.345H212.903H213.461H214.019H214.577H215.136H215.695H216.253H216.813H217.372H217.931H218.491H219.051H219.611H220.172H220.732H221.293H221.854H222.416H222.977H223.539H224.101H224.663H225.226H225.788H226.351H226.914H227.478H228.041H228.605H229.17H229.734H230.299H230.864H231.429H231.994H232.56H233.126H233.692H234.258H234.825H235.392H235.96H236.527H237.095H237.663H238.231H238.8H239.369H239.938H240.508H241.078H241.648H242.218H242.789H243.36H243.931H244.503H245.075H245.647H246.219H246.792H247.365H247.939H248.512H249.086H249.661H250.235H250.81H251.386H251.961H252.537H253.113H253.69H254.267H254.844H255.422H256H256.578H257.157H257.736H258.315H258.895H259.475H260.055H260.636H261.217H261.798H262.38H262.962H263.544H264.127H264.711H265.294H265.878H266.462H267.047H267.632H268.218H268.803H269.39H269.976H270.563H271.15H271.738H272.326H272.915H273.504H274.093H274.683H275.273H275.863H276.454H277.045H277.637H278.229H278.822H279.414H280.008H280.601H281.196H281.79H282.385H282.981H283.576H284.173H284.769H285.366H285.964H286.562H287.16H287.759H288.358H288.958H289.558H290.159H290.76H291.362H291.964H292.566H293.169H293.772H294.376H294.98H295.585H296.19H296.796H297.402H298.008H298.615H299.223H299.831C304.343 111.118 308 107.465 308 102.961L308 52.1458C308 47.6414 304.343 43.9886 299.831 43.9886H275.5C270.437 43.9886 266.331 39.8896 266.331 34.8316V25.4253C266.331 22.9692 265.222 20.6437 263.313 19.0947L242.897 2.5295C241.44 1.34802 239.621 0.702988 237.745 0.702988H9.16933C4.65687 0.702988 1 4.35574 1 8.86014V102.961Z" stroke="url(#paint0_linear_630_5581)"/>
  </g>
  <defs>
    <filter id="filter0_b_630_5581" x="-39.5" y="-39.7969" width="388" height="191.415" filterUnits="userSpaceOnUse" color-interpolation-filters="sRGB">
      <feFlood flood-opacity="0" result="BackgroundImageFix"/>
      <feGaussianBlur in="BackgroundImageFix" stdDeviation="20"/>
      <feComposite in2="SourceAlpha" operator="in" result="effect1_backgroundBlur_630_5581"/>
      <feBlend mode="normal" in="SourceGraphic" in2="effect1_backgroundBlur_630_5581" result="shape"/>
    </filter>
    <linearGradient id="paint0_linear_630_5581" x1="-226.467" y1="285.167" x2="-124.437" y2="55.8456" gradientUnits="userSpaceOnUse">
      <stop stop-color="white" stop-opacity="0.19"/>
      <stop offset="1" stop-color="#EDFFFE" stop-opacity="0.15"/>
    </linearGradient>
  </defs>
</svg>