<svg width="80" height="81" viewBox="0 0 80 81" fill="none" xmlns="http://www.w3.org/2000/svg">
<path d="M53.3333 70.7998H64.6667C66.5335 70.7998 67.4669 70.7998 68.18 70.4365C68.8072 70.1169 69.3171 69.607 69.6367 68.9798C70 68.2667 70 67.3333 70 65.4665V16.1331C70 14.2663 70 13.3329 69.6367 12.6198C69.3171 11.9926 68.8072 11.4827 68.18 11.1631C67.4669 10.7998 66.5335 10.7998 64.6667 10.7998H45.3333C43.4665 10.7998 42.5331 10.7998 41.82 11.1631C41.1928 11.4827 40.6829 11.9926 40.3633 12.6198C40 13.3329 40 14.2663 40 16.1331V20.7998M33.3333 60.7998V70.7998M23.3333 70.7998H43.3333M20.6667 60.7998H46C49.7337 60.7998 51.6005 60.7998 53.0266 60.0732C54.281 59.434 55.3009 58.4142 55.94 57.1597C56.6667 55.7337 56.6667 53.8668 56.6667 50.1331V31.4665C56.6667 27.7328 56.6667 25.8659 55.94 24.4399C55.3009 23.1855 54.281 22.1656 53.0266 21.5264C51.6005 20.7998 49.7337 20.7998 46 20.7998H20.6667C16.933 20.7998 15.0661 20.7998 13.6401 21.5264C12.3856 22.1656 11.3658 23.1855 10.7266 24.4399C10 25.8659 10 27.7328 10 31.4665V50.1331C10 53.8668 10 55.7337 10.7266 57.1597C11.3658 58.4142 12.3856 59.434 13.6401 60.0732C15.0661 60.7998 16.933 60.7998 20.6667 60.7998Z" stroke="#F0F0F0" stroke-width="2" stroke-linecap="round"/>
<path d="M10 31.4665C10 27.7328 10 25.8659 10.7266 24.4399C11.3658 23.1855 12.3856 22.1656 13.6401 21.5264C15.0661 20.7998 16.933 20.7998 20.6667 20.7998H46C49.7337 20.7998 51.6005 20.7998 53.0266 21.5264C54.281 22.1656 55.3009 23.1855 55.94 24.4399C56.6667 25.8659 56.6667 27.7328 56.6667 31.4665V50.1331C56.6667 53.8668 56.6667 55.7337 55.94 57.1597C55.3009 58.4142 54.281 59.434 53.0266 60.0732C51.6005 60.7998 49.7337 60.7998 46 60.7998H20.6667C16.933 60.7998 15.0661 60.7998 13.6401 60.0732C12.3856 59.434 11.3658 58.4142 10.7266 57.1597C10 55.7337 10 53.8668 10 50.1331V31.4665Z" fill="#F0F0F0"/>
</svg>
