<svg width="42" height="79" viewBox="0 0 42 79" fill="none" xmlns="http://www.w3.org/2000/svg">
<path d="M20.996 17.0498C8.83088 17.0498 0 25.2512 0 36.5498C0 37.4118 0.340554 38.2384 0.946744 38.8479C1.55293 39.4574 2.3751 39.7998 3.23239 39.7998C4.08967 39.7998 4.91184 39.4574 5.51803 38.8479C6.12422 38.2384 6.46477 37.4118 6.46477 36.5498C6.41679 34.2446 6.99127 31.9694 8.12708 29.9664C9.2629 27.9634 10.9176 26.3075 12.915 25.1748V75.5498C12.915 76.4118 13.2555 77.2384 13.8617 77.8479C14.4679 78.4574 15.2901 78.7998 16.1474 78.7998C17.0047 78.7998 17.8268 78.4574 18.433 77.8479C19.0392 77.2384 19.3798 76.4118 19.3798 75.5498V51.1748H22.6122V75.5498C22.6122 76.4118 22.9527 77.2384 23.5589 77.8479C24.1651 78.4574 24.9873 78.7998 25.8445 78.7998C26.7018 78.7998 27.524 78.4574 28.1302 77.8479C28.7364 77.2384 29.0769 76.4118 29.0769 75.5498V25.1732C31.0762 26.3048 32.7328 27.9605 33.8701 29.9639C35.0074 31.9674 35.5829 34.2435 35.5352 36.5498C35.5352 37.4118 35.8758 38.2384 36.482 38.8479C37.0882 39.4574 37.9103 39.7998 38.7676 39.7998C39.6249 39.7998 40.4471 39.4574 41.0533 38.8479C41.6594 38.2384 42 37.4118 42 36.5498C42 25.2512 33.1659 17.0498 20.996 17.0498Z" fill="#F0F0F0"/>
<path d="M20.996 13.7998C24.5664 13.7998 27.4608 10.8897 27.4608 7.2998C27.4608 3.70995 24.5664 0.799805 20.996 0.799805C17.4256 0.799805 14.5312 3.70995 14.5312 7.2998C14.5312 10.8897 17.4256 13.7998 20.996 13.7998Z" fill="#F0F0F0"/>
</svg>
