<svg width="80" height="81" viewBox="0 0 80 81" fill="none" xmlns="http://www.w3.org/2000/svg">
<path d="M37.673 72.8494C38.411 73.2799 38.78 73.4952 39.3007 73.6069C39.7049 73.6935 40.2945 73.6935 40.6986 73.6069C41.2194 73.4952 41.5883 73.2799 42.3263 72.8494C48.8198 69.0611 66.6663 57.1613 66.6663 40.7998V22.7998C66.6663 20.94 66.6663 20.0101 66.3084 19.3014C65.991 18.6731 65.4954 18.1715 64.8708 17.8468C64.1664 17.4804 63.2206 17.4693 61.329 17.4469C51.4237 17.3298 45.7117 16.5118 39.9997 10.7998C34.2877 16.5118 28.5756 17.3298 18.6703 17.4469C16.7788 17.4693 15.833 17.4804 15.1285 17.8468C14.504 18.1715 14.0083 18.6731 13.691 19.3014C13.333 20.0101 13.333 20.94 13.333 22.7998V40.7998C13.333 57.1613 31.1795 69.0611 37.673 72.8494Z" fill="#F0F0F0"/>
</svg>
