<svg width="659" height="162" viewBox="0 0 659 162" fill="none" xmlns="http://www.w3.org/2000/svg">
<path d="M3.49622 11.4425L3.49629 11.4425V11.434C3.49629 5.82596 7.93468 1.2998 13.3853 1.2998H14.0706H14.7625H15.4608H16.1656H16.8768H17.5944H18.3184H19.0488H19.7855H20.5285H21.2778H22.0333H22.7951H23.563H24.3372H25.1175H25.9039H26.6964H27.495H28.2996H29.1103H29.927H30.7496H31.5782H32.4127H33.2531H34.0994H34.9515H35.8095H36.6732H37.5427H38.4179H39.2989H40.1856H41.0779H41.9759H42.8794H43.7886H44.7033H45.6236H46.5494H47.4807H48.4174H49.3596H50.3072H51.2602H52.2185H53.1822H54.1511H55.1254H56.1049H57.0897H58.0796H59.0748H60.0751H61.0805H62.091H63.1067H64.1273H65.153H66.1837H67.2194H68.26H69.3056H70.356H71.4114H72.4715H73.5366H74.6064H75.6809H76.7603H77.8443H78.9331H80.0265H81.1245H82.2272H83.3345H84.4463H85.5627H86.6836H87.809H88.9389H90.0732H91.2119H92.355H93.5025H94.6544H95.8105H96.9709H98.1356H99.3045H100.478H101.655H102.836H104.022H105.212H106.406H107.603H108.805H110.011H111.221H112.435H113.653H114.874H116.1H117.329H118.563H119.8H121.041H122.285H123.533H124.785H126.041H127.3H128.563H129.83H131.1H132.374H133.651H134.932H136.216H137.503H138.795H140.089H141.387H142.688H143.992H145.3H146.611H147.925H149.243H150.564H151.887H153.214H154.544H155.878H157.214H158.553H159.895H161.241H162.589H163.94H165.294H166.651H168.011H169.374H170.739H172.107H173.478H174.852H176.229H177.608H178.99H180.374H181.761H183.151H184.543H185.937H187.335H188.734H190.136H191.541H192.948H194.357H195.769H197.183H198.599H200.017H201.438H202.861H204.286H205.714H207.143H208.575H210.009H211.444H212.882H214.322H215.764H217.208H218.654H220.101H221.551H223.002H224.455H225.91H227.367H228.826H230.286H231.748H233.212H234.678H236.145H237.613H239.083H240.555H242.029H243.503H244.98H246.457H247.937H249.417H250.899H252.382H253.867H255.353H256.84H258.329H259.818H261.309H262.801H264.295H265.789H267.284H268.781H270.279H271.777H273.277H274.777H276.279H277.781H279.284H280.789H282.294H283.8H285.306H286.814H288.322H289.831H291.34H292.85H294.361H295.873H297.385H298.897H300.41H301.924H303.438H304.953H306.468H307.983H309.499H311.015H312.532H314.048H315.566H317.083H318.6H320.118H321.636H323.154H324.673H326.191H327.709H329.228H330.746H332.265H333.783H335.302H336.82H338.338H339.856H341.374H342.892H344.41H345.927H347.444H348.961H350.477H351.994H353.509H355.025H356.54H358.055H359.569H361.082H362.595H364.108H365.62H367.132H368.642H370.153H371.662H373.171H374.679H376.186H377.693H379.199H380.704H382.208H383.711H385.214H386.715H388.216H389.715H391.214H392.712H394.208H395.704H397.198H398.691H400.183H401.674H403.164H404.652H406.14H407.625H409.11H410.593H412.075H413.556H415.035H416.513H417.989H419.464H420.937H422.409H423.879H425.348H426.815H428.28H429.744H431.206H432.667H434.125H435.582H437.037H438.49H439.942H441.391H442.839H444.285H445.729H447.17H448.61H450.048H451.484H452.918H454.349H455.779H457.206H458.631H460.054H461.475H462.894H464.31H465.724H467.136H468.545H469.952H471.356H472.758H474.158H475.555H476.95H478.342H479.732H481.119H482.503H483.885H485.264H486.64H488.014H489.385H490.753H492.119H493.482H494.841H496.198H497.552H498.904H500.252H501.597H502.939H504.279H505.615H506.948H508.278H509.605H510.929H512.25H513.567H514.881H516.192H517.5H518.805H520.106H521.404H522.698H523.989H525.277H526.561H527.842H529.119H530.392H531.663H532.929H534.192H535.451H536.707H537.959H539.207H540.452H541.693H542.93H544.163H545.393H546.618H547.84H549.058H550.271H551.481H552.687H553.889H555.087H556.281H557.471H558.656H559.838H561.015H562.188H563.357H564.522H565.682H566.838H567.99H569.138H570.281H571.419H572.554H573.684H574.809H575.93H577.046H578.158H579.265H580.368H581.466H582.56H583.648H584.732H585.812H586.886H587.956H589.021H590.081H591.137H592.187H593.233H594.273H595.309H596.34H597.365H598.386H599.402H600.412H601.418H602.418H603.413H604.403H605.388H606.367H607.341H608.31H609.274H610.232H611.185H612.133H613.075H614.012H614.943H615.869H616.789H617.704H618.613H619.517H620.415H621.307H622.194H623.075H623.95H624.819H625.683H626.541H627.393H628.24H629.08H629.914H630.743H631.566H632.382H633.193H633.998H634.796H635.589H636.375H637.155H637.93H638.698H639.459H640.215H640.964H641.707H642.444H643.174H643.898H644.616H645.327H646.032H646.73H647.422H648.107C653.558 1.2998 657.996 5.82596 657.996 11.434V98.195C657.996 103.829 653.926 108.329 648.5 108.329H616.468C610.443 108.329 605.579 113.325 605.579 119.463V131.018C605.579 134.074 604.233 136.964 601.921 138.887L577.455 159.235C575.692 160.701 573.491 161.5 571.223 161.5H11.0032C5.554 161.5 1.11648 156.976 1.11426 151.37C1.11426 151.369 1.11426 151.367 1.11426 151.366L3.49622 11.4425Z" fill="url(#paint0_linear_610_667)" stroke="#242424"/>
<defs>
<linearGradient id="paint0_linear_610_667" x1="50.8154" y1="390.046" x2="158.065" y2="131.109" gradientUnits="userSpaceOnUse">
<stop stop-opacity="0.51"/>
<stop offset="1" stop-opacity="0"/>
</linearGradient>
</defs>
</svg>
