<svg width="333" height="156" viewBox="0 0 333 156" fill="none" xmlns="http://www.w3.org/2000/svg">
<path d="M1.11425 11.1151C1.11425 5.50712 5.55264 0.980957 11.0032 0.980957H166.502H322C327.451 0.980957 331.889 5.50712 331.889 11.1151L331.889 91.934C331.889 97.5679 327.819 102.068 322.393 102.068H290.36C284.336 102.068 279.471 107.064 279.471 113.202V124.757C279.471 127.813 278.126 130.703 275.814 132.626L251.348 152.974C249.585 154.44 247.384 155.239 245.116 155.239H11.0032C5.55264 155.239 1.11426 150.713 1.11426 145.105L1.11425 11.1151Z" fill="url(#paint0_linear_630_5003)" stroke="#242424"/>
<defs>
<linearGradient id="paint0_linear_630_5003" x1="50.8154" y1="389.727" x2="158.065" y2="130.79" gradientUnits="userSpaceOnUse">
<stop stop-opacity="0.51"/>
<stop offset="1" stop-opacity="0"/>
</linearGradient>
</defs>
</svg>
