<svg width="48" height="64" viewBox="0 0 48 64" fill="none" xmlns="http://www.w3.org/2000/svg">
<path d="M2.87793 2.87646H44.7949V60.0364L23.8364 53.2021L2.87793 60.0364V2.87646Z" fill="#1B6C97"/>
<path fill-rule="evenodd" clip-rule="evenodd" d="M0 0H47.6699V64L23.835 56.2277L0 64V0ZM23.835 53.2021L44.7935 60.0365V2.87649H2.87649V60.0365L23.835 53.2021Z" fill="url(#paint0_linear_242_426)"/>
<path d="M31.7779 15.3991L24.4519 13.533C24.4519 13.533 20.6851 14.3417 18.0576 14.5736C25.0311 16.5771 32.6067 15.8666 31.7779 15.3991Z" fill="white"/>
<path d="M39.4953 15.8985C38.2899 15.6179 37.0805 15.3538 35.8675 15.1064C25.3958 20.0352 14.3792 14.0583 14.3792 14.0583L10.4219 14.5351L25.1691 21.1779L39.4953 15.8985ZM18.9044 32.13C18.1423 28.8225 16.4122 26.6391 14.6384 25.2108C13.736 24.4916 12.7455 23.8906 11.6908 23.4225L12.3291 28.6593L12.8321 32.7867L15.6101 35.4283L19.1235 38.7729C19.1521 38.5428 19.1769 38.3184 19.1997 38.0976C19.4322 35.7863 19.295 33.8125 18.9044 32.13Z" fill="white"/>
<path d="M24.6133 23.1697L8.9668 15.8794L9.78609 20.8453C12.2668 21.374 22.9767 24.6333 21.0771 41.2191L24.3352 44.2761L24.6133 23.1697Z" fill="white"/>
<path d="M27.7239 34.8661L27.7716 34.6564C29.9055 24.2201 35.2233 22.3205 36.8809 21.981L37.0143 21.9198L38.0508 17.4307L24.3534 23.0532L24.1934 44.284L26.9809 41.0081C27.0712 39.3501 27.2493 37.698 27.5143 36.0588C27.5715 35.6563 27.6382 35.2575 27.7239 34.8661Z" fill="white"/>
<path d="M28.5186 39.4451L32.7922 34.251L33.44 33.4589L33.6496 32.472C34.2212 29.7952 34.9509 26.7511 35.5225 24.0743C33.1218 25.6029 29.6351 29.8064 28.5186 39.4451Z" fill="white"/>
<defs>
<linearGradient id="paint0_linear_242_426" x1="23.835" y1="2.87649" x2="23.835" y2="60.0365" gradientUnits="userSpaceOnUse">
<stop stop-color="#E7D8AC"/>
<stop offset="1" stop-color="#908067"/>
</linearGradient>
</defs>
</svg>
