<svg width="49" height="64" viewBox="0 0 49 64" fill="none" xmlns="http://www.w3.org/2000/svg">
<path d="M3.54102 2.87256H45.4644V60.0413L24.5027 53.2059L3.54102 60.0413V2.87256Z" fill="#56C2B4"/>
<path fill-rule="evenodd" clip-rule="evenodd" d="M0.669922 0H48.3389V64L24.5044 56.2278L0.669922 64V0ZM24.5044 53.2061L45.4661 60.0415V2.8728H3.54272V60.0415L24.5044 53.2061Z" fill="url(#paint0_linear_242_436)"/>
<path d="M32.4509 15.3982L25.1238 13.5317C25.1238 13.5317 21.3564 14.3407 18.7285 14.5726C25.7031 16.5763 33.2798 15.8657 32.4509 15.3982Z" fill="white"/>
<path d="M40.1687 15.8971C38.9631 15.6164 37.7536 15.3523 36.5404 15.1049C26.0671 20.0345 15.0488 14.0566 15.0488 14.0566L11.0908 14.5335L25.8403 21.1773L40.1687 15.8971ZM19.5746 32.1311C18.8124 28.8231 17.0821 26.6394 15.308 25.2108C14.4055 24.4915 13.4148 23.8904 12.36 23.4222L12.9983 28.6598L13.5014 32.7879L16.2798 35.4298L19.7938 38.7749C19.8224 38.5449 19.8471 38.3204 19.87 38.0996C20.1025 35.7879 19.9653 33.8138 19.5746 32.1311Z" fill="white"/>
<path d="M25.2847 23.1698L9.63574 15.8784L10.4552 20.8451C12.9363 21.3738 23.6478 24.6336 21.7479 41.222L25.0065 44.2795L25.2847 23.1698Z" fill="white"/>
<path d="M28.3944 34.8678L28.442 34.6581C30.5763 24.2201 35.8949 22.3203 37.5528 21.9808L37.6862 21.9195L38.7228 17.4297L25.0234 23.0531L24.8633 44.2872L27.6512 41.0107C27.7415 39.3524 27.9196 37.7001 28.1848 36.0607C28.2419 35.6581 28.3086 35.2592 28.3944 34.8678Z" fill="white"/>
<path d="M29.1904 39.447L33.4647 34.2521L34.1126 33.4599L34.3223 32.4728C34.8939 29.7956 35.6238 26.7511 36.1955 24.0739C33.7944 25.6026 30.3071 29.8068 29.1904 39.447Z" fill="white"/>
<defs>
<linearGradient id="paint0_linear_242_436" x1="24.5044" y1="2.8728" x2="24.5044" y2="60.0415" gradientUnits="userSpaceOnUse">
<stop stop-color="#E7D8AC"/>
<stop offset="1" stop-color="#908067"/>
</linearGradient>
</defs>
</svg>
