<svg width="47" height="64" viewBox="0 0 47 64" fill="none" xmlns="http://www.w3.org/2000/svg">
<path d="M43.6141 10.4122V5.12595C43.6141 3.90971 42.6273 2.92286 41.411 2.92286H5.47202C4.88822 2.92095 4.32753 3.15082 3.9131 3.56201C3.49867 3.97319 3.26439 4.53205 3.26172 5.11585V43.8365C3.26166 46.1809 3.92421 48.4777 5.17298 50.4618C6.42175 52.446 8.20589 54.0369 10.3197 55.051L22.2411 60.7816C23.0606 61.1769 24.0157 61.1769 24.8352 60.7816L36.5965 55.0842C38.6995 54.066 40.4731 52.476 41.7142 50.4964C42.9553 48.5169 43.6138 46.2278 43.6141 43.8913V35.7152V10.4555V10.4122Z" fill="url(#paint0_linear_242_456)"/>
<path fill-rule="evenodd" clip-rule="evenodd" d="M0.338867 5.10868L0.338898 5.10199C0.345117 3.7438 0.890168 2.4436 1.85433 1.48699C2.81715 0.53172 4.11928 -0.0029307 5.47542 1.2084e-05H41.4105C44.2408 1.2084e-05 46.536 2.29525 46.536 5.12547V43.8913C46.5356 46.7767 45.7224 49.6036 44.1897 52.0483C42.6571 54.4928 40.4669 56.4563 37.8701 57.7137C37.87 57.7138 37.8698 57.7139 37.8696 57.714L26.1088 63.4112L26.1045 63.4133C24.4839 64.195 22.5955 64.1956 20.9746 63.415C20.9744 63.4149 20.9743 63.4149 20.9741 63.4148C20.9731 63.4143 20.972 63.4138 20.971 63.4133L9.05513 57.6854C6.4447 56.433 4.24137 54.4684 2.69919 52.018C1.15703 49.5676 0.338809 46.7313 0.338867 43.836C0.338867 43.836 0.338867 43.836 0.338867 43.836V5.10868ZM3.26124 43.836C3.26118 46.1804 3.92374 48.4772 5.17251 50.4614C6.42128 52.4456 8.20541 54.0364 10.3192 55.0505L22.2407 60.7811C23.0602 61.1765 24.0153 61.1765 24.8347 60.7811L36.5961 55.0837C38.699 54.0655 40.4726 52.4755 41.7137 50.496C42.9548 48.5164 43.6133 46.2273 43.6136 43.8908V5.12547C43.6136 3.90923 42.6268 2.92239 41.4105 2.92239H5.47154C4.88774 2.92047 4.32705 3.15035 3.91263 3.56153C3.4982 3.97271 3.26392 4.53158 3.26124 5.11537V43.836Z" fill="url(#paint1_linear_242_456)"/>
<path d="M23.0533 31.9002L21.0652 34.2548C20.1764 33.1727 18.8635 32.4975 17.6675 32.4975C15.5221 32.4975 13.9019 34.1971 13.9019 36.4175C13.9019 38.6826 15.5221 40.3937 17.6675 40.3937C18.8001 40.3937 20.1202 39.7776 21.0652 38.811L23.0807 40.9362C21.6336 42.4222 19.494 43.409 17.5016 43.409C13.4272 43.409 10.3975 40.4153 10.3975 36.4579C10.3975 32.5567 13.5052 29.6235 17.6184 29.6235C19.6571 29.647 21.6066 30.4636 23.0533 31.9002ZM36.3569 36.3814V41.6518C34.9084 42.6747 32.6289 43.409 30.7374 43.409C26.6256 43.409 23.5179 40.4341 23.5179 36.4968C23.5179 32.5581 26.7035 29.6235 30.9697 29.6235C32.978 29.6235 35.1017 30.3954 36.4911 31.6318L34.5607 33.9763C33.5747 33.0664 32.2921 32.545 30.9509 32.509C28.7291 32.509 27.031 34.2461 27.031 36.5055C27.031 38.8023 28.7493 40.5409 30.9942 40.5409C31.8309 40.4996 32.6484 40.2756 33.3892 39.8844V36.3814H36.3555H36.3569Z" fill="white"/>
<path d="M10.6249 29.6349C12.4543 27.9036 14.9358 26.9499 17.6078 26.9499C20.0056 26.9649 22.3262 27.7998 24.1839 29.316C26.0118 27.7867 28.4025 26.9499 30.9792 26.9499C32.9063 26.961 34.7999 27.4556 36.4862 28.3884L38.5638 16.5938C37.4296 17.4587 36.1291 18.0802 34.7437 18.4194C33.3584 18.7586 31.9179 18.8082 30.5124 18.5651C29.107 18.322 27.7668 17.7915 26.5759 17.0067C25.3849 16.2218 24.3687 15.1997 23.5909 14.0041L23.4423 13.7776L23.3572 13.9132C22.5907 15.1192 21.5833 16.1537 20.3981 16.9519C19.2128 17.7501 17.8755 18.2947 16.4698 18.5516C15.0641 18.8084 13.6206 18.772 12.2297 18.4445C10.8388 18.1171 9.53056 17.5057 8.38715 16.6487L8.31934 16.5982L10.3969 29.8715C10.4662 29.7907 10.5441 29.7142 10.6249 29.6349Z" fill="#779DB9"/>
<defs>
<linearGradient id="paint0_linear_242_456" x1="2021.2" y1="5818.04" x2="2021.2" y2="1.99241" gradientUnits="userSpaceOnUse">
<stop stop-color="#2B2B2B"/>
<stop offset="1" stop-color="#4F4F51"/>
</linearGradient>
<linearGradient id="paint1_linear_242_456" x1="23.4374" y1="2.92237" x2="23.4374" y2="61.0776" gradientUnits="userSpaceOnUse">
<stop stop-color="#E7D8AC"/>
<stop offset="1" stop-color="#908067"/>
</linearGradient>
</defs>
</svg>
