<svg width="46" height="64" viewBox="0 0 46 64" fill="none" xmlns="http://www.w3.org/2000/svg">
<path fill-rule="evenodd" clip-rule="evenodd" d="M5.23453 2.92285H11.3103H11.364H16.3059L16.306 2.92301V2.92285H29.3209V2.94027L29.3383 2.92285H34.3875H35.1689H40.517C41.4985 2.92285 42.2925 3.71687 42.2925 4.6984V44.531C42.2928 46.7803 41.6595 48.9842 40.465 50.8902C39.2706 52.7961 37.5634 54.327 35.539 55.3074L24.2177 60.7923C23.8282 60.9804 23.4013 61.0781 22.9688 61.0781C22.5363 61.0781 22.1093 60.9804 21.7199 60.7923L10.2535 55.2913C8.21903 54.3155 6.50171 52.7846 5.29955 50.8751C4.0974 48.9656 3.45935 46.7552 3.45898 44.4988V4.6984C3.45898 4.2275 3.64605 3.77588 3.97903 3.4429C4.31201 3.10992 4.76363 2.92285 5.23453 2.92285Z" fill="url(#paint0_linear_242_447)"/>
<path fill-rule="evenodd" clip-rule="evenodd" d="M16.3055 2.92237H5.23406C4.76315 2.92237 4.31153 3.10944 3.97855 3.44242C3.64557 3.7754 3.45851 4.22702 3.45851 4.69792V44.4983C3.45888 46.7548 4.09692 48.9651 5.29907 50.8746C6.50123 52.7841 8.21855 54.315 10.2531 55.2908L21.7194 60.7918C22.1089 60.9799 22.5358 61.0776 22.9683 61.0776C23.4008 61.0776 23.8277 60.9799 24.2172 60.7918L35.5385 55.3069C37.5629 54.3265 39.2701 52.7956 40.4646 50.8897C41.659 48.9837 42.2924 46.7799 42.292 44.5306V4.69792C42.292 3.71639 41.498 2.92237 40.5165 2.92237H29.3378L29.3204 2.93979V2.92237H16.3055ZM5.23406 0C3.98809 0 2.79315 0.494958 1.91212 1.37599C1.03109 2.25702 0.536133 3.45196 0.536133 4.69792V44.4988C0.536593 47.306 1.33038 50.056 2.82599 52.4316C4.3216 54.8072 6.45813 56.7118 8.98927 57.9258L20.4483 63.4233C20.4501 63.4241 20.4518 63.4249 20.4535 63.4258C21.238 63.8037 22.0975 64 22.9683 64C23.841 64 24.7024 63.8028 25.4883 63.4233L36.8123 57.9371C36.8124 57.937 36.8126 57.937 36.8127 57.9369C39.331 56.7172 41.4549 54.8126 42.9408 52.4416C44.4268 50.0705 45.2147 47.3288 45.2144 44.5306C45.2144 44.5304 45.2144 44.5303 45.2144 44.5302V4.69792C45.2144 2.10241 43.112 0 40.5165 0H5.23406Z" fill="url(#paint1_linear_242_447)"/>
<path d="M16.3047 2.92285H29.3195V10.4323H16.3047V2.92285Z" fill="#4D4D4F"/>
<path d="M29.3375 2.92285L22.8213 9.43759L16.3051 2.92285H11.3096V14.5547H35.1681V2.92285H29.3375Z" fill="#779DB9"/>
<path d="M34.3875 2.92285L22.8758 14.4332L11.364 2.92285H5.23453C4.76363 2.92285 4.31201 3.10992 3.97903 3.4429C3.64605 3.77588 3.45898 4.2275 3.45898 4.6984V44.4988C3.45935 46.7552 4.0974 48.9656 5.29955 50.8751C6.50171 52.7846 8.21903 54.3155 10.2535 55.2913L21.7199 60.7923C22.1093 60.9804 22.5363 61.0781 22.9688 61.0781C23.4013 61.0781 23.8282 60.9804 24.2177 60.7923L35.539 55.3074C37.5634 54.327 39.2706 52.7961 40.465 50.8902C41.6595 48.9842 42.2929 46.7803 42.2925 44.531V4.6984C42.2925 3.71687 41.4985 2.92285 40.517 2.92285H34.3875Z" fill="url(#paint2_linear_242_447)"/>
<path d="M22.875 32.6069H24.3401V34.0721H22.875V32.6069Z" fill="url(#paint3_linear_242_447)"/>
<path d="M31.9919 41.7233L22.8753 37.9202L13.7588 41.7233L17.5604 32.6068L13.7588 23.4888L22.8753 27.2918L31.9919 23.4888L28.1903 32.6068L31.9919 41.7233Z" fill="white"/>
<path d="M35.7699 32.6077L26.6343 36.3654L22.8766 45.4995L19.119 36.3654L9.9834 32.6077L19.119 28.8501L22.8766 19.7145L26.6343 28.8501L35.7699 32.6077Z" fill="white"/>
<path d="M22.8745 14.8621L25.1454 17.133L22.8745 19.4039L20.6035 17.133L22.8745 14.8621Z" fill="#779DB9"/>
<defs>
<linearGradient id="paint0_linear_242_447" x1="1945.45" y1="5818.04" x2="1945.45" y2="1.99241" gradientUnits="userSpaceOnUse">
<stop stop-color="#2B2B2B"/>
<stop offset="1" stop-color="#4F4F51"/>
</linearGradient>
<linearGradient id="paint1_linear_242_447" x1="22.8753" y1="2.92237" x2="22.8753" y2="61.0776" gradientUnits="userSpaceOnUse">
<stop stop-color="#E7D8AC"/>
<stop offset="1" stop-color="#908067"/>
</linearGradient>
<linearGradient id="paint2_linear_242_447" x1="1945.45" y1="5818.04" x2="1945.45" y2="1.99241" gradientUnits="userSpaceOnUse">
<stop stop-color="#2B2B2B"/>
<stop offset="1" stop-color="#4F4F51"/>
</linearGradient>
<linearGradient id="paint3_linear_242_447" x1="22.875" y1="161.538" x2="22.875" y2="-97.7891" gradientUnits="userSpaceOnUse">
<stop stop-color="#A60086"/>
<stop offset="0.16" stop-color="#930086"/>
<stop offset="0.73" stop-color="#520088"/>
<stop offset="1" stop-color="#390088"/>
</linearGradient>
</defs>
</svg>
