<svg width="1920" height="1601" viewBox="0 0 1920 1601" fill="none" xmlns="http://www.w3.org/2000/svg">
<g clip-path="url(#clip0_358_6512)">
<rect x="-118.952" y="0.800781" width="119.048" height="119.048" stroke="white" stroke-opacity="0.06" stroke-width="2.38095"/>
<rect x="0.0957031" y="0.800781" width="119.048" height="119.048" stroke="white" stroke-opacity="0.06" stroke-width="2.38095"/>
<rect x="119.143" y="0.800781" width="119.048" height="119.048" stroke="white" stroke-opacity="0.06" stroke-width="2.38095"/>
<rect x="238.19" y="0.800781" width="119.048" height="119.048" stroke="white" stroke-opacity="0.06" stroke-width="2.38095"/>
<rect x="357.238" y="0.800781" width="119.048" height="119.048" stroke="white" stroke-opacity="0.06" stroke-width="2.38095"/>
<rect x="476.286" y="0.800781" width="119.048" height="119.048" stroke="white" stroke-opacity="0.06" stroke-width="2.38095"/>
<rect x="595.333" y="0.800781" width="119.048" height="119.048" stroke="white" stroke-opacity="0.06" stroke-width="2.38095"/>
<rect x="714.381" y="0.800781" width="119.048" height="119.048" stroke="white" stroke-opacity="0.06" stroke-width="2.38095"/>
<rect x="833.429" y="0.800781" width="119.048" height="119.048" stroke="white" stroke-opacity="0.06" stroke-width="2.38095"/>
<rect x="952.477" y="0.800781" width="119.048" height="119.048" stroke="white" stroke-opacity="0.06" stroke-width="2.38095"/>
<rect x="1071.52" y="0.800781" width="119.048" height="119.048" stroke="white" stroke-opacity="0.06" stroke-width="2.38095"/>
<rect x="1190.57" y="0.800781" width="119.048" height="119.048" stroke="white" stroke-opacity="0.06" stroke-width="2.38095"/>
<rect x="1309.62" y="0.800781" width="119.048" height="119.048" stroke="white" stroke-opacity="0.06" stroke-width="2.38095"/>
<rect x="1428.67" y="0.800781" width="119.048" height="119.048" stroke="white" stroke-opacity="0.06" stroke-width="2.38095"/>
<rect x="1547.71" y="0.800781" width="119.048" height="119.048" stroke="white" stroke-opacity="0.06" stroke-width="2.38095"/>
<rect x="1666.76" y="0.800781" width="119.048" height="119.048" stroke="white" stroke-opacity="0.06" stroke-width="2.38095"/>
<rect x="1785.81" y="0.800781" width="119.048" height="119.048" stroke="white" stroke-opacity="0.06" stroke-width="2.38095"/>
<rect x="1904.86" y="0.800781" width="119.048" height="119.048" stroke="white" stroke-opacity="0.06" stroke-width="2.38095"/>
<rect x="-118.952" y="119.848" width="119.048" height="119.048" stroke="white" stroke-opacity="0.06" stroke-width="2.38095"/>
<rect x="0.0957031" y="119.848" width="119.048" height="119.048" fill="white" fill-opacity="0.05" stroke="white" stroke-opacity="0.06" stroke-width="2.38095"/>
<rect x="119.143" y="119.848" width="119.048" height="119.048" stroke="white" stroke-opacity="0.06" stroke-width="2.38095"/>
<rect x="238.19" y="119.848" width="119.048" height="119.048" stroke="white" stroke-opacity="0.06" stroke-width="2.38095"/>
<rect x="357.238" y="119.848" width="119.048" height="119.048" stroke="white" stroke-opacity="0.06" stroke-width="2.38095"/>
<rect x="476.286" y="119.848" width="119.048" height="119.048" stroke="white" stroke-opacity="0.06" stroke-width="2.38095"/>
<rect x="595.333" y="119.848" width="119.048" height="119.048" stroke="white" stroke-opacity="0.06" stroke-width="2.38095"/>
<rect x="714.381" y="119.848" width="119.048" height="119.048" stroke="white" stroke-opacity="0.06" stroke-width="2.38095"/>
<rect x="833.429" y="119.848" width="119.048" height="119.048" fill="white" fill-opacity="0.05" stroke="white" stroke-opacity="0.06" stroke-width="2.38095"/>
<rect x="952.477" y="119.848" width="119.048" height="119.048" stroke="white" stroke-opacity="0.06" stroke-width="2.38095"/>
<rect x="1071.52" y="119.848" width="119.048" height="119.048" stroke="white" stroke-opacity="0.06" stroke-width="2.38095"/>
<rect x="1190.57" y="119.848" width="119.048" height="119.048" stroke="white" stroke-opacity="0.06" stroke-width="2.38095"/>
<rect x="1309.62" y="119.848" width="119.048" height="119.048" stroke="white" stroke-opacity="0.06" stroke-width="2.38095"/>
<rect x="1428.67" y="119.848" width="119.048" height="119.048" stroke="white" stroke-opacity="0.06" stroke-width="2.38095"/>
<rect x="1547.71" y="119.848" width="119.048" height="119.048" stroke="white" stroke-opacity="0.06" stroke-width="2.38095"/>
<rect x="1666.76" y="119.848" width="119.048" height="119.048" stroke="white" stroke-opacity="0.06" stroke-width="2.38095"/>
<rect x="1785.81" y="119.848" width="119.048" height="119.048" stroke="white" stroke-opacity="0.06" stroke-width="2.38095"/>
<rect x="1904.86" y="119.848" width="119.048" height="119.048" stroke="white" stroke-opacity="0.06" stroke-width="2.38095"/>
<rect x="-118.952" y="238.896" width="119.048" height="119.048" stroke="white" stroke-opacity="0.06" stroke-width="2.38095"/>
<rect x="0.0957031" y="238.896" width="119.048" height="119.048" stroke="white" stroke-opacity="0.06" stroke-width="2.38095"/>
<rect x="119.143" y="238.896" width="119.048" height="119.048" stroke="white" stroke-opacity="0.06" stroke-width="2.38095"/>
<rect x="238.19" y="238.896" width="119.048" height="119.048" stroke="white" stroke-opacity="0.06" stroke-width="2.38095"/>
<rect x="357.238" y="238.896" width="119.048" height="119.048" stroke="white" stroke-opacity="0.06" stroke-width="2.38095"/>
<rect x="476.286" y="238.896" width="119.048" height="119.048" stroke="white" stroke-opacity="0.06" stroke-width="2.38095"/>
<rect x="595.333" y="238.896" width="119.048" height="119.048" stroke="white" stroke-opacity="0.06" stroke-width="2.38095"/>
<rect x="714.381" y="238.896" width="119.048" height="119.048" stroke="white" stroke-opacity="0.06" stroke-width="2.38095"/>
<rect x="833.429" y="238.896" width="119.048" height="119.048" stroke="white" stroke-opacity="0.06" stroke-width="2.38095"/>
<rect x="952.477" y="238.896" width="119.048" height="119.048" stroke="white" stroke-opacity="0.06" stroke-width="2.38095"/>
<rect x="1071.52" y="238.896" width="119.048" height="119.048" stroke="white" stroke-opacity="0.06" stroke-width="2.38095"/>
<rect x="1190.57" y="238.896" width="119.048" height="119.048" stroke="white" stroke-opacity="0.06" stroke-width="2.38095"/>
<rect x="1309.62" y="238.896" width="119.048" height="119.048" stroke="white" stroke-opacity="0.06" stroke-width="2.38095"/>
<rect x="1428.67" y="238.896" width="119.048" height="119.048" stroke="white" stroke-opacity="0.06" stroke-width="2.38095"/>
<rect x="1547.71" y="238.896" width="119.048" height="119.048" stroke="white" stroke-opacity="0.06" stroke-width="2.38095"/>
<rect x="1666.76" y="238.896" width="119.048" height="119.048" fill="white" fill-opacity="0.05" stroke="white" stroke-opacity="0.06" stroke-width="2.38095"/>
<rect x="1785.81" y="238.896" width="119.048" height="119.048" stroke="white" stroke-opacity="0.06" stroke-width="2.38095"/>
<rect x="1904.86" y="238.896" width="119.048" height="119.048" stroke="white" stroke-opacity="0.06" stroke-width="2.38095"/>
<rect x="-118.952" y="357.943" width="119.048" height="119.048" stroke="white" stroke-opacity="0.06" stroke-width="2.38095"/>
<rect x="0.0957031" y="357.943" width="119.048" height="119.048" stroke="white" stroke-opacity="0.06" stroke-width="2.38095"/>
<rect x="119.143" y="357.943" width="119.048" height="119.048" stroke="white" stroke-opacity="0.06" stroke-width="2.38095"/>
<rect x="238.19" y="357.943" width="119.048" height="119.048" stroke="white" stroke-opacity="0.06" stroke-width="2.38095"/>
<rect x="357.238" y="357.943" width="119.048" height="119.048" stroke="white" stroke-opacity="0.06" stroke-width="2.38095"/>
<rect x="476.286" y="357.943" width="119.048" height="119.048" stroke="white" stroke-opacity="0.06" stroke-width="2.38095"/>
<rect x="595.333" y="357.943" width="119.048" height="119.048" stroke="white" stroke-opacity="0.06" stroke-width="2.38095"/>
<rect x="714.381" y="357.943" width="119.048" height="119.048" stroke="white" stroke-opacity="0.06" stroke-width="2.38095"/>
<rect x="833.429" y="357.943" width="119.048" height="119.048" stroke="white" stroke-opacity="0.06" stroke-width="2.38095"/>
<rect x="952.477" y="357.943" width="119.048" height="119.048" stroke="white" stroke-opacity="0.06" stroke-width="2.38095"/>
<rect x="1071.52" y="357.943" width="119.048" height="119.048" stroke="white" stroke-opacity="0.06" stroke-width="2.38095"/>
<rect x="1190.57" y="357.943" width="119.048" height="119.048" stroke="white" stroke-opacity="0.06" stroke-width="2.38095"/>
<rect x="1309.62" y="357.943" width="119.048" height="119.048" stroke="white" stroke-opacity="0.06" stroke-width="2.38095"/>
<rect x="1428.67" y="357.943" width="119.048" height="119.048" stroke="white" stroke-opacity="0.06" stroke-width="2.38095"/>
<rect x="1547.71" y="357.943" width="119.048" height="119.048" stroke="white" stroke-opacity="0.06" stroke-width="2.38095"/>
<rect x="1666.76" y="357.943" width="119.048" height="119.048" stroke="white" stroke-opacity="0.06" stroke-width="2.38095"/>
<rect x="1785.81" y="357.943" width="119.048" height="119.048" stroke="white" stroke-opacity="0.06" stroke-width="2.38095"/>
<rect x="1904.86" y="357.943" width="119.048" height="119.048" stroke="white" stroke-opacity="0.06" stroke-width="2.38095"/>
<rect x="-118.952" y="476.992" width="119.048" height="119.048" stroke="white" stroke-opacity="0.06" stroke-width="2.38095"/>
<rect x="0.0957031" y="476.992" width="119.048" height="119.048" stroke="white" stroke-opacity="0.06" stroke-width="2.38095"/>
<rect x="119.143" y="476.992" width="119.048" height="119.048" fill="white" fill-opacity="0.05" stroke="white" stroke-opacity="0.06" stroke-width="2.38095"/>
<rect x="238.19" y="476.992" width="119.048" height="119.048" stroke="white" stroke-opacity="0.06" stroke-width="2.38095"/>
<rect x="357.238" y="476.992" width="119.048" height="119.048" stroke="white" stroke-opacity="0.06" stroke-width="2.38095"/>
<rect x="476.286" y="476.992" width="119.048" height="119.048" stroke="white" stroke-opacity="0.06" stroke-width="2.38095"/>
<rect x="595.333" y="476.992" width="119.048" height="119.048" stroke="white" stroke-opacity="0.06" stroke-width="2.38095"/>
<rect x="714.381" y="476.992" width="119.048" height="119.048" stroke="white" stroke-opacity="0.06" stroke-width="2.38095"/>
<rect x="833.429" y="476.992" width="119.048" height="119.048" stroke="white" stroke-opacity="0.06" stroke-width="2.38095"/>
<rect x="952.477" y="476.992" width="119.048" height="119.048" stroke="white" stroke-opacity="0.06" stroke-width="2.38095"/>
<rect x="1071.52" y="476.992" width="119.048" height="119.048" stroke="white" stroke-opacity="0.06" stroke-width="2.38095"/>
<rect x="1190.57" y="476.992" width="119.048" height="119.048" fill="white" fill-opacity="0.05" stroke="white" stroke-opacity="0.06" stroke-width="2.38095"/>
<rect x="1309.62" y="476.992" width="119.048" height="119.048" stroke="white" stroke-opacity="0.06" stroke-width="2.38095"/>
<rect x="1428.67" y="476.992" width="119.048" height="119.048" stroke="white" stroke-opacity="0.06" stroke-width="2.38095"/>
<rect x="1547.71" y="476.992" width="119.048" height="119.048" stroke="white" stroke-opacity="0.06" stroke-width="2.38095"/>
<rect x="1666.76" y="476.992" width="119.048" height="119.048" stroke="white" stroke-opacity="0.06" stroke-width="2.38095"/>
<rect x="1785.81" y="476.992" width="119.048" height="119.048" stroke="white" stroke-opacity="0.06" stroke-width="2.38095"/>
<rect x="1904.86" y="476.992" width="119.048" height="119.048" stroke="white" stroke-opacity="0.06" stroke-width="2.38095"/>
<rect x="-118.952" y="596.039" width="119.048" height="119.048" stroke="white" stroke-opacity="0.06" stroke-width="2.38095"/>
<rect x="0.0957031" y="596.039" width="119.048" height="119.048" stroke="white" stroke-opacity="0.06" stroke-width="2.38095"/>
<rect x="119.143" y="596.039" width="119.048" height="119.048" stroke="white" stroke-opacity="0.06" stroke-width="2.38095"/>
<rect x="238.19" y="596.039" width="119.048" height="119.048" stroke="white" stroke-opacity="0.06" stroke-width="2.38095"/>
<rect x="357.238" y="596.039" width="119.048" height="119.048" stroke="white" stroke-opacity="0.06" stroke-width="2.38095"/>
<rect x="476.286" y="596.039" width="119.048" height="119.048" stroke="white" stroke-opacity="0.06" stroke-width="2.38095"/>
<rect x="595.333" y="596.039" width="119.048" height="119.048" stroke="white" stroke-opacity="0.06" stroke-width="2.38095"/>
<rect x="714.381" y="596.039" width="119.048" height="119.048" stroke="white" stroke-opacity="0.06" stroke-width="2.38095"/>
<rect x="833.429" y="596.039" width="119.048" height="119.048" stroke="white" stroke-opacity="0.06" stroke-width="2.38095"/>
<rect x="952.477" y="596.039" width="119.048" height="119.048" stroke="white" stroke-opacity="0.06" stroke-width="2.38095"/>
<rect x="1071.52" y="596.039" width="119.048" height="119.048" stroke="white" stroke-opacity="0.06" stroke-width="2.38095"/>
<rect x="1190.57" y="596.039" width="119.048" height="119.048" stroke="white" stroke-opacity="0.06" stroke-width="2.38095"/>
<rect x="1309.62" y="596.039" width="119.048" height="119.048" stroke="white" stroke-opacity="0.06" stroke-width="2.38095"/>
<rect x="1428.67" y="596.039" width="119.048" height="119.048" stroke="white" stroke-opacity="0.06" stroke-width="2.38095"/>
<rect x="1547.71" y="596.039" width="119.048" height="119.048" stroke="white" stroke-opacity="0.06" stroke-width="2.38095"/>
<rect x="1666.76" y="596.039" width="119.048" height="119.048" stroke="white" stroke-opacity="0.06" stroke-width="2.38095"/>
<rect x="1785.81" y="596.039" width="119.048" height="119.048" stroke="white" stroke-opacity="0.06" stroke-width="2.38095"/>
<rect x="1904.86" y="596.039" width="119.048" height="119.048" fill="white" fill-opacity="0.05" stroke="white" stroke-opacity="0.06" stroke-width="2.38095"/>
<rect x="-118.952" y="715.086" width="119.048" height="119.048" stroke="white" stroke-opacity="0.06" stroke-width="2.38095"/>
<rect x="0.0957031" y="715.086" width="119.048" height="119.048" stroke="white" stroke-opacity="0.06" stroke-width="2.38095"/>
<rect x="119.143" y="715.086" width="119.048" height="119.048" stroke="white" stroke-opacity="0.06" stroke-width="2.38095"/>
<rect x="238.19" y="715.086" width="119.048" height="119.048" stroke="white" stroke-opacity="0.06" stroke-width="2.38095"/>
<rect x="357.238" y="715.086" width="119.048" height="119.048" stroke="white" stroke-opacity="0.06" stroke-width="2.38095"/>
<rect x="476.286" y="715.086" width="119.048" height="119.048" stroke="white" stroke-opacity="0.06" stroke-width="2.38095"/>
<rect x="595.333" y="715.086" width="119.048" height="119.048" stroke="white" stroke-opacity="0.06" stroke-width="2.38095"/>
<rect x="714.381" y="715.086" width="119.048" height="119.048" stroke="white" stroke-opacity="0.06" stroke-width="2.38095"/>
<rect x="833.429" y="715.086" width="119.048" height="119.048" stroke="white" stroke-opacity="0.06" stroke-width="2.38095"/>
<rect x="952.477" y="715.086" width="119.048" height="119.048" stroke="white" stroke-opacity="0.06" stroke-width="2.38095"/>
<rect x="1071.52" y="715.086" width="119.048" height="119.048" stroke="white" stroke-opacity="0.06" stroke-width="2.38095"/>
<rect x="1190.57" y="715.086" width="119.048" height="119.048" stroke="white" stroke-opacity="0.06" stroke-width="2.38095"/>
<rect x="1309.62" y="715.086" width="119.048" height="119.048" stroke="white" stroke-opacity="0.06" stroke-width="2.38095"/>
<rect x="1428.67" y="715.086" width="119.048" height="119.048" stroke="white" stroke-opacity="0.06" stroke-width="2.38095"/>
<rect x="1547.71" y="715.086" width="119.048" height="119.048" stroke="white" stroke-opacity="0.06" stroke-width="2.38095"/>
<rect x="1666.76" y="715.086" width="119.048" height="119.048" stroke="white" stroke-opacity="0.06" stroke-width="2.38095"/>
<rect x="1785.81" y="715.086" width="119.048" height="119.048" stroke="white" stroke-opacity="0.06" stroke-width="2.38095"/>
<rect x="1904.86" y="715.086" width="119.048" height="119.048" stroke="white" stroke-opacity="0.06" stroke-width="2.38095"/>
<rect x="-118.952" y="834.133" width="119.048" height="119.048" stroke="white" stroke-opacity="0.06" stroke-width="2.38095"/>
<rect x="0.0957031" y="834.133" width="119.048" height="119.048" stroke="white" stroke-opacity="0.06" stroke-width="2.38095"/>
<rect x="119.143" y="834.133" width="119.048" height="119.048" stroke="white" stroke-opacity="0.06" stroke-width="2.38095"/>
<rect x="238.19" y="834.133" width="119.048" height="119.048" stroke="white" stroke-opacity="0.06" stroke-width="2.38095"/>
<rect x="357.238" y="834.133" width="119.048" height="119.048" stroke="white" stroke-opacity="0.06" stroke-width="2.38095"/>
<rect x="476.286" y="834.133" width="119.048" height="119.048" stroke="white" stroke-opacity="0.06" stroke-width="2.38095"/>
<rect x="595.333" y="834.133" width="119.048" height="119.048" stroke="white" stroke-opacity="0.06" stroke-width="2.38095"/>
<rect x="714.381" y="834.133" width="119.048" height="119.048" fill="white" fill-opacity="0.05" stroke="white" stroke-opacity="0.06" stroke-width="2.38095"/>
<rect x="833.429" y="834.133" width="119.048" height="119.048" stroke="white" stroke-opacity="0.06" stroke-width="2.38095"/>
<rect x="952.477" y="834.133" width="119.048" height="119.048" stroke="white" stroke-opacity="0.06" stroke-width="2.38095"/>
<rect x="1071.52" y="834.133" width="119.048" height="119.048" stroke="white" stroke-opacity="0.06" stroke-width="2.38095"/>
<rect x="1190.57" y="834.133" width="119.048" height="119.048" stroke="white" stroke-opacity="0.06" stroke-width="2.38095"/>
<rect x="1309.62" y="834.133" width="119.048" height="119.048" stroke="white" stroke-opacity="0.06" stroke-width="2.38095"/>
<rect x="1428.67" y="834.133" width="119.048" height="119.048" stroke="white" stroke-opacity="0.06" stroke-width="2.38095"/>
<rect x="1547.71" y="834.133" width="119.048" height="119.048" stroke="white" stroke-opacity="0.06" stroke-width="2.38095"/>
<rect x="1666.76" y="834.133" width="119.048" height="119.048" stroke="white" stroke-opacity="0.06" stroke-width="2.38095"/>
<rect x="1785.81" y="834.133" width="119.048" height="119.048" stroke="white" stroke-opacity="0.06" stroke-width="2.38095"/>
<rect x="1904.86" y="834.133" width="119.048" height="119.048" stroke="white" stroke-opacity="0.06" stroke-width="2.38095"/>
<rect x="-118.952" y="953.182" width="119.048" height="119.048" stroke="white" stroke-opacity="0.06" stroke-width="2.38095"/>
<rect x="0.0957031" y="953.182" width="119.048" height="119.048" stroke="white" stroke-opacity="0.06" stroke-width="2.38095"/>
<rect x="119.143" y="953.182" width="119.048" height="119.048" stroke="white" stroke-opacity="0.06" stroke-width="2.38095"/>
<rect x="238.19" y="953.182" width="119.048" height="119.048" fill="white" fill-opacity="0.05" stroke="white" stroke-opacity="0.06" stroke-width="2.38095"/>
<rect x="357.238" y="953.182" width="119.048" height="119.048" stroke="white" stroke-opacity="0.06" stroke-width="2.38095"/>
<rect x="476.286" y="953.182" width="119.048" height="119.048" stroke="white" stroke-opacity="0.06" stroke-width="2.38095"/>
<rect x="595.333" y="953.182" width="119.048" height="119.048" stroke="white" stroke-opacity="0.06" stroke-width="2.38095"/>
<rect x="714.381" y="953.182" width="119.048" height="119.048" stroke="white" stroke-opacity="0.06" stroke-width="2.38095"/>
<rect x="833.429" y="953.182" width="119.048" height="119.048" stroke="white" stroke-opacity="0.06" stroke-width="2.38095"/>
<rect x="952.477" y="953.182" width="119.048" height="119.048" stroke="white" stroke-opacity="0.06" stroke-width="2.38095"/>
<rect x="1071.52" y="953.182" width="119.048" height="119.048" stroke="white" stroke-opacity="0.06" stroke-width="2.38095"/>
<rect x="1190.57" y="953.182" width="119.048" height="119.048" stroke="white" stroke-opacity="0.06" stroke-width="2.38095"/>
<rect x="1309.62" y="953.182" width="119.048" height="119.048" stroke="white" stroke-opacity="0.06" stroke-width="2.38095"/>
<rect x="1428.67" y="953.182" width="119.048" height="119.048" stroke="white" stroke-opacity="0.06" stroke-width="2.38095"/>
<rect x="1547.71" y="953.182" width="119.048" height="119.048" stroke="white" stroke-opacity="0.06" stroke-width="2.38095"/>
<rect x="1666.76" y="953.182" width="119.048" height="119.048" stroke="white" stroke-opacity="0.06" stroke-width="2.38095"/>
<rect x="1785.81" y="953.182" width="119.048" height="119.048" stroke="white" stroke-opacity="0.06" stroke-width="2.38095"/>
<rect x="1904.86" y="953.182" width="119.048" height="119.048" stroke="white" stroke-opacity="0.06" stroke-width="2.38095"/>
<rect x="-118.952" y="1072.23" width="119.048" height="119.048" stroke="white" stroke-opacity="0.06" stroke-width="2.38095"/>
<rect x="0.0957031" y="1072.23" width="119.048" height="119.048" stroke="white" stroke-opacity="0.06" stroke-width="2.38095"/>
<rect x="119.143" y="1072.23" width="119.048" height="119.048" stroke="white" stroke-opacity="0.06" stroke-width="2.38095"/>
<rect x="238.19" y="1072.23" width="119.048" height="119.048" stroke="white" stroke-opacity="0.06" stroke-width="2.38095"/>
<rect x="357.238" y="1072.23" width="119.048" height="119.048" stroke="white" stroke-opacity="0.06" stroke-width="2.38095"/>
<rect x="476.286" y="1072.23" width="119.048" height="119.048" stroke="white" stroke-opacity="0.06" stroke-width="2.38095"/>
<rect x="595.333" y="1072.23" width="119.048" height="119.048" stroke="white" stroke-opacity="0.06" stroke-width="2.38095"/>
<rect x="714.381" y="1072.23" width="119.048" height="119.048" stroke="white" stroke-opacity="0.06" stroke-width="2.38095"/>
<rect x="833.429" y="1072.23" width="119.048" height="119.048" stroke="white" stroke-opacity="0.06" stroke-width="2.38095"/>
<rect x="952.477" y="1072.23" width="119.048" height="119.048" stroke="white" stroke-opacity="0.06" stroke-width="2.38095"/>
<rect x="1071.52" y="1072.23" width="119.048" height="119.048" stroke="white" stroke-opacity="0.06" stroke-width="2.38095"/>
<rect x="1190.57" y="1072.23" width="119.048" height="119.048" stroke="white" stroke-opacity="0.06" stroke-width="2.38095"/>
<rect x="1309.62" y="1072.23" width="119.048" height="119.048" stroke="white" stroke-opacity="0.06" stroke-width="2.38095"/>
<rect x="1428.67" y="1072.23" width="119.048" height="119.048" stroke="white" stroke-opacity="0.06" stroke-width="2.38095"/>
<rect x="1547.71" y="1072.23" width="119.048" height="119.048" stroke="white" stroke-opacity="0.06" stroke-width="2.38095"/>
<rect x="1666.76" y="1072.23" width="119.048" height="119.048" stroke="white" stroke-opacity="0.06" stroke-width="2.38095"/>
<rect x="1785.81" y="1072.23" width="119.048" height="119.048" stroke="white" stroke-opacity="0.06" stroke-width="2.38095"/>
<rect x="1904.86" y="1072.23" width="119.048" height="119.048" stroke="white" stroke-opacity="0.06" stroke-width="2.38095"/>
<rect x="-118.952" y="1191.28" width="119.048" height="119.048" stroke="white" stroke-opacity="0.06" stroke-width="2.38095"/>
<rect x="0.0957031" y="1191.28" width="119.048" height="119.048" stroke="white" stroke-opacity="0.06" stroke-width="2.38095"/>
<rect x="119.143" y="1191.28" width="119.048" height="119.048" stroke="white" stroke-opacity="0.06" stroke-width="2.38095"/>
<rect x="238.19" y="1191.28" width="119.048" height="119.048" stroke="white" stroke-opacity="0.06" stroke-width="2.38095"/>
<rect x="357.238" y="1191.28" width="119.048" height="119.048" stroke="white" stroke-opacity="0.06" stroke-width="2.38095"/>
<rect x="476.286" y="1191.28" width="119.048" height="119.048" stroke="white" stroke-opacity="0.06" stroke-width="2.38095"/>
<rect x="595.333" y="1191.28" width="119.048" height="119.048" stroke="white" stroke-opacity="0.06" stroke-width="2.38095"/>
<rect x="714.381" y="1191.28" width="119.048" height="119.048" stroke="white" stroke-opacity="0.06" stroke-width="2.38095"/>
<rect x="833.429" y="1191.28" width="119.048" height="119.048" stroke="white" stroke-opacity="0.06" stroke-width="2.38095"/>
<rect x="952.477" y="1191.28" width="119.048" height="119.048" stroke="white" stroke-opacity="0.06" stroke-width="2.38095"/>
<rect x="1071.52" y="1191.28" width="119.048" height="119.048" stroke="white" stroke-opacity="0.06" stroke-width="2.38095"/>
<rect x="1190.57" y="1191.28" width="119.048" height="119.048" stroke="white" stroke-opacity="0.06" stroke-width="2.38095"/>
<rect x="1309.62" y="1191.28" width="119.048" height="119.048" stroke="white" stroke-opacity="0.06" stroke-width="2.38095"/>
<rect x="1428.67" y="1191.28" width="119.048" height="119.048" stroke="white" stroke-opacity="0.06" stroke-width="2.38095"/>
<rect x="1547.71" y="1191.28" width="119.048" height="119.048" stroke="white" stroke-opacity="0.06" stroke-width="2.38095"/>
<rect x="1666.76" y="1191.28" width="119.048" height="119.048" stroke="white" stroke-opacity="0.06" stroke-width="2.38095"/>
<rect x="1785.81" y="1191.28" width="119.048" height="119.048" stroke="white" stroke-opacity="0.06" stroke-width="2.38095"/>
<rect x="1904.86" y="1191.28" width="119.048" height="119.048" stroke="white" stroke-opacity="0.06" stroke-width="2.38095"/>
<rect x="-118.952" y="1310.32" width="119.048" height="119.048" stroke="white" stroke-opacity="0.06" stroke-width="2.38095"/>
<rect x="0.0957031" y="1310.32" width="119.048" height="119.048" stroke="white" stroke-opacity="0.06" stroke-width="2.38095"/>
<rect x="119.143" y="1310.32" width="119.048" height="119.048" stroke="white" stroke-opacity="0.06" stroke-width="2.38095"/>
<rect x="238.19" y="1310.32" width="119.048" height="119.048" stroke="white" stroke-opacity="0.06" stroke-width="2.38095"/>
<rect x="357.238" y="1310.32" width="119.048" height="119.048" stroke="white" stroke-opacity="0.06" stroke-width="2.38095"/>
<rect x="476.286" y="1310.32" width="119.048" height="119.048" stroke="white" stroke-opacity="0.06" stroke-width="2.38095"/>
<rect x="595.333" y="1310.32" width="119.048" height="119.048" stroke="white" stroke-opacity="0.06" stroke-width="2.38095"/>
<rect x="714.381" y="1310.32" width="119.048" height="119.048" stroke="white" stroke-opacity="0.06" stroke-width="2.38095"/>
<rect x="833.429" y="1310.32" width="119.048" height="119.048" stroke="white" stroke-opacity="0.06" stroke-width="2.38095"/>
<rect x="952.477" y="1310.32" width="119.048" height="119.048" stroke="white" stroke-opacity="0.06" stroke-width="2.38095"/>
<rect x="1071.52" y="1310.32" width="119.048" height="119.048" stroke="white" stroke-opacity="0.06" stroke-width="2.38095"/>
<rect x="1190.57" y="1310.32" width="119.048" height="119.048" stroke="white" stroke-opacity="0.06" stroke-width="2.38095"/>
<rect x="1309.62" y="1310.32" width="119.048" height="119.048" stroke="white" stroke-opacity="0.06" stroke-width="2.38095"/>
<rect x="1428.67" y="1310.32" width="119.048" height="119.048" stroke="white" stroke-opacity="0.06" stroke-width="2.38095"/>
<rect x="1547.71" y="1310.32" width="119.048" height="119.048" stroke="white" stroke-opacity="0.06" stroke-width="2.38095"/>
<rect x="1666.76" y="1310.32" width="119.048" height="119.048" stroke="white" stroke-opacity="0.06" stroke-width="2.38095"/>
<rect x="1785.81" y="1310.32" width="119.048" height="119.048" stroke="white" stroke-opacity="0.06" stroke-width="2.38095"/>
<rect x="1904.86" y="1310.32" width="119.048" height="119.048" stroke="white" stroke-opacity="0.06" stroke-width="2.38095"/>
<rect x="-118.952" y="1429.37" width="119.048" height="119.048" stroke="white" stroke-opacity="0.06" stroke-width="2.38095"/>
<rect x="0.0957031" y="1429.37" width="119.048" height="119.048" stroke="white" stroke-opacity="0.06" stroke-width="2.38095"/>
<rect x="119.143" y="1429.37" width="119.048" height="119.048" stroke="white" stroke-opacity="0.06" stroke-width="2.38095"/>
<rect x="238.19" y="1429.37" width="119.048" height="119.048" stroke="white" stroke-opacity="0.06" stroke-width="2.38095"/>
<rect x="357.238" y="1429.37" width="119.048" height="119.048" stroke="white" stroke-opacity="0.06" stroke-width="2.38095"/>
<rect x="476.286" y="1429.37" width="119.048" height="119.048" stroke="white" stroke-opacity="0.06" stroke-width="2.38095"/>
<rect x="595.333" y="1429.37" width="119.048" height="119.048" stroke="white" stroke-opacity="0.06" stroke-width="2.38095"/>
<rect x="714.381" y="1429.37" width="119.048" height="119.048" stroke="white" stroke-opacity="0.06" stroke-width="2.38095"/>
<rect x="833.429" y="1429.37" width="119.048" height="119.048" stroke="white" stroke-opacity="0.06" stroke-width="2.38095"/>
<rect x="952.477" y="1429.37" width="119.048" height="119.048" stroke="white" stroke-opacity="0.06" stroke-width="2.38095"/>
<rect x="1071.52" y="1429.37" width="119.048" height="119.048" stroke="white" stroke-opacity="0.06" stroke-width="2.38095"/>
<rect x="1190.57" y="1429.37" width="119.048" height="119.048" stroke="white" stroke-opacity="0.06" stroke-width="2.38095"/>
<rect x="1309.62" y="1429.37" width="119.048" height="119.048" stroke="white" stroke-opacity="0.06" stroke-width="2.38095"/>
<rect x="1428.67" y="1429.37" width="119.048" height="119.048" stroke="white" stroke-opacity="0.06" stroke-width="2.38095"/>
<rect x="1547.71" y="1429.37" width="119.048" height="119.048" stroke="white" stroke-opacity="0.06" stroke-width="2.38095"/>
<rect x="1666.76" y="1429.37" width="119.048" height="119.048" stroke="white" stroke-opacity="0.06" stroke-width="2.38095"/>
<rect x="1785.81" y="1429.37" width="119.048" height="119.048" stroke="white" stroke-opacity="0.06" stroke-width="2.38095"/>
<rect x="1904.86" y="1429.37" width="119.048" height="119.048" stroke="white" stroke-opacity="0.06" stroke-width="2.38095"/>
<g filter="url(#filter0_f_358_6512)">
<rect x="-677" y="-1722.2" width="3019.05" height="2377.85" fill="url(#paint0_radial_358_6512)"/>
</g>
<path d="M-440.381 -707.969H2578.67V1669.88H-440.381V-707.969Z" fill="url(#paint1_radial_358_6512)"/>
<rect x="-774" y="-120" width="3434" height="1710" fill="url(#paint2_radial_358_6512)"/>
</g>
<defs>
<filter id="filter0_f_358_6512" x="-1391.29" y="-2436.48" width="4447.62" height="3806.42" filterUnits="userSpaceOnUse" color-interpolation-filters="sRGB">
<feFlood flood-opacity="0" result="BackgroundImageFix"/>
<feBlend mode="normal" in="SourceGraphic" in2="BackgroundImageFix" result="shape"/>
<feGaussianBlur stdDeviation="357.143" result="effect1_foregroundBlur_358_6512"/>
</filter>
<radialGradient id="paint0_radial_358_6512" cx="0" cy="0" r="1" gradientUnits="userSpaceOnUse" gradientTransform="translate(832.524 -533.276) rotate(90) scale(1188.92 1509.52)">
<stop offset="0.015625" stop-color="#12FFF1" stop-opacity="0.64"/>
<stop offset="0.223958" stop-color="#12FFF1" stop-opacity="0.34"/>
<stop offset="0.911458" stop-color="#12FFF1" stop-opacity="0"/>
</radialGradient>
<radialGradient id="paint1_radial_358_6512" cx="0" cy="0" r="1" gradientUnits="userSpaceOnUse" gradientTransform="translate(951.5 498.801) rotate(84.2635) scale(1176.97 1494.35)">
<stop offset="0.015625" stop-color="#020304"/>
<stop offset="0.223958" stop-color="#020304" stop-opacity="0.34"/>
<stop offset="0.911458" stop-color="#020304" stop-opacity="0"/>
</radialGradient>
<radialGradient id="paint2_radial_358_6512" cx="0" cy="0" r="1" gradientUnits="userSpaceOnUse" gradientTransform="translate(943.047 678.024) rotate(90.003) scale(911.976 1831.42)">
<stop stop-opacity="0"/>
<stop offset="0.797232"/>
</radialGradient>
<clipPath id="clip0_358_6512">
<rect width="2500" height="1600" fill="white" transform="translate(-238 0.800781)"/>
</clipPath>
</defs>
</svg>
