<svg width="162" height="49" viewBox="0 0 162 49" fill="none" xmlns="http://www.w3.org/2000/svg">
<mask id="mask0_2019_406" style="mask-type:alpha" maskUnits="userSpaceOnUse" x="0" y="39" width="162" height="10">
<rect y="39.7998" width="162" height="9" fill="#D9D9D9"/>
</mask>
<g mask="url(#mask0_2019_406)">
<path d="M24.6465 46.7998V40.1787L40.1738 25.7646C41.502 24.4951 42.6152 23.3525 43.5137 22.3369C44.4121 21.3018 45.0957 20.2959 45.5645 19.3193C46.0332 18.3232 46.2676 17.249 46.2676 16.0967C46.2676 14.8076 45.9746 13.7041 45.3887 12.7861C44.8027 11.8682 44.0117 11.1553 43.0156 10.6475C42.0195 10.1396 40.877 9.88574 39.5879 9.88574C38.2598 9.88574 37.0977 10.1592 36.1016 10.7061C35.1055 11.2334 34.334 12.0049 33.7871 13.0205C33.2598 14.0166 32.9961 15.2178 32.9961 16.624H24.207C24.207 13.7529 24.8516 11.2725 26.1406 9.18262C27.4492 7.07324 29.2656 5.44238 31.5898 4.29004C33.9336 3.1377 36.6289 2.56152 39.6758 2.56152C42.7812 2.56152 45.4961 3.11816 47.8203 4.23145C50.1445 5.3252 51.9512 6.84863 53.2402 8.80176C54.5293 10.7354 55.1738 12.9717 55.1738 15.5107C55.1738 17.1514 54.8516 18.7725 54.207 20.374C53.5625 21.9561 52.4199 23.7334 50.7793 25.7061C49.1387 27.6592 46.8145 29.9932 43.8066 32.708L37.4199 38.9482V39.2705H55.7598V46.7998H24.6465ZM77.6152 47.3857C73.9043 47.3857 70.7305 46.5068 68.0938 44.749C65.4766 42.9717 63.4648 40.4229 62.0586 37.1025C60.6719 33.7627 59.9785 29.7295 59.9785 25.0029C59.9785 20.2959 60.6816 16.2725 62.0879 12.9326C63.4941 9.57324 65.5059 7.00488 68.123 5.22754C70.7598 3.4502 73.9238 2.56152 77.6152 2.56152C81.3262 2.56152 84.4902 3.4502 87.1074 5.22754C89.7441 7.00488 91.7559 9.56348 93.1426 12.9033C94.5488 16.2432 95.252 20.2764 95.252 25.0029C95.252 29.7295 94.5586 33.7627 93.1719 37.1025C91.7852 40.4229 89.7734 42.9717 87.1367 44.749C84.5195 46.5068 81.3457 47.3857 77.6152 47.3857ZM77.6152 39.7686C79.3926 39.7686 80.8867 39.2021 82.0977 38.0693C83.3281 36.917 84.2559 35.2373 84.8809 33.0303C85.5254 30.8232 85.8477 28.1475 85.8477 25.0029C85.8477 21.8389 85.5254 19.1533 84.8809 16.9463C84.2559 14.7393 83.3281 13.0596 82.0977 11.9072C80.8867 10.7354 79.3926 10.1494 77.6152 10.1494C74.9785 10.1494 72.9473 11.4482 71.5215 14.0459C70.0957 16.624 69.3828 20.2764 69.3828 25.0029C69.3828 28.1475 69.6953 30.8232 70.3203 33.0303C70.9648 35.2373 71.9023 36.917 73.1328 38.0693C74.3633 39.2021 75.8574 39.7686 77.6152 39.7686ZM123.729 38.5967V36.3115C123.729 34.5537 124.1 32.9424 124.842 31.4775C125.584 30.0127 126.668 28.8408 128.094 27.9619C129.52 27.0635 131.258 26.6143 133.309 26.6143C135.418 26.6143 137.176 27.0537 138.582 27.9326C140.008 28.8115 141.082 29.9932 141.805 31.4775C142.547 32.9424 142.918 34.5537 142.918 36.3115V38.5967C142.918 40.3545 142.547 41.9756 141.805 43.46C141.062 44.9248 139.979 46.0967 138.553 46.9756C137.127 47.8545 135.379 48.2939 133.309 48.2939C131.238 48.2939 129.49 47.8545 128.064 46.9756C126.639 46.0967 125.555 44.9248 124.812 43.46C124.09 41.9756 123.729 40.3545 123.729 38.5967ZM129.91 36.3115V38.5967C129.91 39.6123 130.154 40.5693 130.643 41.4678C131.131 42.3662 132.02 42.8154 133.309 42.8154C134.617 42.8154 135.506 42.376 135.975 41.4971C136.443 40.6182 136.678 39.6514 136.678 38.5967V36.3115C136.678 35.2568 136.453 34.29 136.004 33.4111C135.555 32.5127 134.656 32.0732 133.309 32.0928C132.039 32.0732 131.15 32.5127 130.643 33.4111C130.154 34.29 129.91 35.2568 129.91 36.3115ZM101.316 13.6357V11.3506C101.316 9.59277 101.688 7.98145 102.43 6.5166C103.191 5.03223 104.285 3.85059 105.711 2.97168C107.156 2.09277 108.895 1.65332 110.926 1.65332C113.016 1.65332 114.773 2.09277 116.199 2.97168C117.645 3.85059 118.729 5.03223 119.451 6.5166C120.174 7.98145 120.525 9.59277 120.506 11.3506V13.6357C120.525 15.3936 120.164 17.0049 119.422 18.4697C118.68 19.9346 117.596 21.1064 116.17 21.9854C114.744 22.8447 112.996 23.2842 110.926 23.3037C108.855 23.2842 107.098 22.835 105.652 21.9561C104.227 21.0771 103.143 19.9053 102.4 18.4404C101.678 16.9756 101.316 15.374 101.316 13.6357ZM107.557 11.3506V13.6357C107.557 14.6904 107.801 15.6572 108.289 16.5361C108.777 17.415 109.656 17.8447 110.926 17.8252C112.215 17.8447 113.094 17.415 113.562 16.5361C114.051 15.6572 114.285 14.6904 114.266 13.6357V11.3506C114.285 10.2959 114.061 9.3291 113.592 8.4502C113.143 7.55176 112.254 7.10254 110.926 7.10254C109.637 7.10254 108.748 7.56152 108.26 8.47949C107.791 9.37793 107.557 10.335 107.557 11.3506ZM104.129 46.7998L134.129 3.14746H139.725L109.725 46.7998H104.129Z" fill="#AFAFAF"/>
</g>
<mask id="mask1_2019_406" style="mask-type:alpha" maskUnits="userSpaceOnUse" x="0" y="0" width="162" height="40">
<rect y="0.799805" width="162" height="39" fill="#D9D9D9"/>
</mask>
<g mask="url(#mask1_2019_406)">
<path d="M24.6465 46.7998V40.1787L40.1738 25.7646C41.502 24.4951 42.6152 23.3525 43.5137 22.3369C44.4121 21.3018 45.0957 20.2959 45.5645 19.3193C46.0332 18.3232 46.2676 17.249 46.2676 16.0967C46.2676 14.8076 45.9746 13.7041 45.3887 12.7861C44.8027 11.8682 44.0117 11.1553 43.0156 10.6475C42.0195 10.1396 40.877 9.88574 39.5879 9.88574C38.2598 9.88574 37.0977 10.1592 36.1016 10.7061C35.1055 11.2334 34.334 12.0049 33.7871 13.0205C33.2598 14.0166 32.9961 15.2178 32.9961 16.624H24.207C24.207 13.7529 24.8516 11.2725 26.1406 9.18262C27.4492 7.07324 29.2656 5.44238 31.5898 4.29004C33.9336 3.1377 36.6289 2.56152 39.6758 2.56152C42.7812 2.56152 45.4961 3.11816 47.8203 4.23145C50.1445 5.3252 51.9512 6.84863 53.2402 8.80176C54.5293 10.7354 55.1738 12.9717 55.1738 15.5107C55.1738 17.1514 54.8516 18.7725 54.207 20.374C53.5625 21.9561 52.4199 23.7334 50.7793 25.7061C49.1387 27.6592 46.8145 29.9932 43.8066 32.708L37.4199 38.9482V39.2705H55.7598V46.7998H24.6465ZM77.6152 47.3857C73.9043 47.3857 70.7305 46.5068 68.0938 44.749C65.4766 42.9717 63.4648 40.4229 62.0586 37.1025C60.6719 33.7627 59.9785 29.7295 59.9785 25.0029C59.9785 20.2959 60.6816 16.2725 62.0879 12.9326C63.4941 9.57324 65.5059 7.00488 68.123 5.22754C70.7598 3.4502 73.9238 2.56152 77.6152 2.56152C81.3262 2.56152 84.4902 3.4502 87.1074 5.22754C89.7441 7.00488 91.7559 9.56348 93.1426 12.9033C94.5488 16.2432 95.252 20.2764 95.252 25.0029C95.252 29.7295 94.5586 33.7627 93.1719 37.1025C91.7852 40.4229 89.7734 42.9717 87.1367 44.749C84.5195 46.5068 81.3457 47.3857 77.6152 47.3857ZM77.6152 39.7686C79.3926 39.7686 80.8867 39.2021 82.0977 38.0693C83.3281 36.917 84.2559 35.2373 84.8809 33.0303C85.5254 30.8232 85.8477 28.1475 85.8477 25.0029C85.8477 21.8389 85.5254 19.1533 84.8809 16.9463C84.2559 14.7393 83.3281 13.0596 82.0977 11.9072C80.8867 10.7354 79.3926 10.1494 77.6152 10.1494C74.9785 10.1494 72.9473 11.4482 71.5215 14.0459C70.0957 16.624 69.3828 20.2764 69.3828 25.0029C69.3828 28.1475 69.6953 30.8232 70.3203 33.0303C70.9648 35.2373 71.9023 36.917 73.1328 38.0693C74.3633 39.2021 75.8574 39.7686 77.6152 39.7686ZM123.729 38.5967V36.3115C123.729 34.5537 124.1 32.9424 124.842 31.4775C125.584 30.0127 126.668 28.8408 128.094 27.9619C129.52 27.0635 131.258 26.6143 133.309 26.6143C135.418 26.6143 137.176 27.0537 138.582 27.9326C140.008 28.8115 141.082 29.9932 141.805 31.4775C142.547 32.9424 142.918 34.5537 142.918 36.3115V38.5967C142.918 40.3545 142.547 41.9756 141.805 43.46C141.062 44.9248 139.979 46.0967 138.553 46.9756C137.127 47.8545 135.379 48.2939 133.309 48.2939C131.238 48.2939 129.49 47.8545 128.064 46.9756C126.639 46.0967 125.555 44.9248 124.812 43.46C124.09 41.9756 123.729 40.3545 123.729 38.5967ZM129.91 36.3115V38.5967C129.91 39.6123 130.154 40.5693 130.643 41.4678C131.131 42.3662 132.02 42.8154 133.309 42.8154C134.617 42.8154 135.506 42.376 135.975 41.4971C136.443 40.6182 136.678 39.6514 136.678 38.5967V36.3115C136.678 35.2568 136.453 34.29 136.004 33.4111C135.555 32.5127 134.656 32.0732 133.309 32.0928C132.039 32.0732 131.15 32.5127 130.643 33.4111C130.154 34.29 129.91 35.2568 129.91 36.3115ZM101.316 13.6357V11.3506C101.316 9.59277 101.688 7.98145 102.43 6.5166C103.191 5.03223 104.285 3.85059 105.711 2.97168C107.156 2.09277 108.895 1.65332 110.926 1.65332C113.016 1.65332 114.773 2.09277 116.199 2.97168C117.645 3.85059 118.729 5.03223 119.451 6.5166C120.174 7.98145 120.525 9.59277 120.506 11.3506V13.6357C120.525 15.3936 120.164 17.0049 119.422 18.4697C118.68 19.9346 117.596 21.1064 116.17 21.9854C114.744 22.8447 112.996 23.2842 110.926 23.3037C108.855 23.2842 107.098 22.835 105.652 21.9561C104.227 21.0771 103.143 19.9053 102.4 18.4404C101.678 16.9756 101.316 15.374 101.316 13.6357ZM107.557 11.3506V13.6357C107.557 14.6904 107.801 15.6572 108.289 16.5361C108.777 17.415 109.656 17.8447 110.926 17.8252C112.215 17.8447 113.094 17.415 113.562 16.5361C114.051 15.6572 114.285 14.6904 114.266 13.6357V11.3506C114.285 10.2959 114.061 9.3291 113.592 8.4502C113.143 7.55176 112.254 7.10254 110.926 7.10254C109.637 7.10254 108.748 7.56152 108.26 8.47949C107.791 9.37793 107.557 10.335 107.557 11.3506ZM104.129 46.7998L134.129 3.14746H139.725L109.725 46.7998H104.129Z" fill="#F0F0F0" fill-opacity="0.16"/>
</g>
</svg>
