<svg width="162" height="49" viewBox="0 0 162 49" fill="none" xmlns="http://www.w3.org/2000/svg">
<mask id="mask0_2019_405" style="mask-type:alpha" maskUnits="userSpaceOnUse" x="0" y="24" width="162" height="25">
<rect y="24.7998" width="162" height="24" fill="#D9D9D9"/>
</mask>
<g mask="url(#mask0_2019_405)">
<path d="M39.6152 47.3857C36.6074 47.3857 33.9219 46.8389 31.5586 45.7451C29.1953 44.6318 27.3203 43.0986 25.9336 41.1455C24.5664 39.1924 23.8535 36.9658 23.7949 34.4658H32.7598C32.8379 36.1455 33.5312 37.5127 34.8398 38.5674C36.168 39.6025 37.7598 40.1201 39.6152 40.1201C41.0605 40.1201 42.3301 39.7979 43.4238 39.1533C44.5371 38.5088 45.4062 37.6201 46.0312 36.4873C46.6562 35.335 46.9688 33.9971 46.9688 32.4736C46.9688 30.9502 46.6465 29.6025 46.002 28.4307C45.3574 27.2588 44.4688 26.3506 43.3359 25.7061C42.2227 25.042 40.9336 24.71 39.4688 24.71C38.1797 24.71 36.9395 24.9736 35.748 25.501C34.5566 26.0283 33.6289 26.7412 32.9648 27.6396L24.7324 26.1748L26.7832 3.14746H53.4727V10.7061H34.4004L33.3164 21.6338H33.5508C34.3125 20.5596 35.4648 19.6709 37.0078 18.9678C38.5703 18.2646 40.3086 17.9131 42.2227 17.9131C44.8398 17.9131 47.1738 18.5283 49.2246 19.7588C51.2949 20.9893 52.9258 22.6787 54.1172 24.8271C55.3086 26.9756 55.9043 29.4463 55.9043 32.2393C55.9043 35.1885 55.2207 37.8057 53.8535 40.0908C52.4863 42.3564 50.5723 44.1436 48.1113 45.4521C45.6699 46.7412 42.8379 47.3857 39.6152 47.3857ZM77.6133 47.3857C73.9023 47.3857 70.7285 46.5068 68.0918 44.749C65.4746 42.9717 63.4629 40.4229 62.0566 37.1025C60.6699 33.7627 59.9766 29.7295 59.9766 25.0029C59.9766 20.2959 60.6797 16.2725 62.0859 12.9326C63.4922 9.57324 65.5039 7.00488 68.1211 5.22754C70.7578 3.4502 73.9219 2.56152 77.6133 2.56152C81.3242 2.56152 84.4883 3.4502 87.1055 5.22754C89.7422 7.00488 91.7539 9.56348 93.1406 12.9033C94.5469 16.2432 95.25 20.2764 95.25 25.0029C95.25 29.7295 94.5566 33.7627 93.1699 37.1025C91.7832 40.4229 89.7715 42.9717 87.1348 44.749C84.5176 46.5068 81.3438 47.3857 77.6133 47.3857ZM77.6133 39.7686C79.3906 39.7686 80.8848 39.2021 82.0957 38.0693C83.3262 36.917 84.2539 35.2373 84.8789 33.0303C85.5234 30.8232 85.8457 28.1475 85.8457 25.0029C85.8457 21.8389 85.5234 19.1533 84.8789 16.9463C84.2539 14.7393 83.3262 13.0596 82.0957 11.9072C80.8848 10.7354 79.3906 10.1494 77.6133 10.1494C74.9766 10.1494 72.9453 11.4482 71.5195 14.0459C70.0938 16.624 69.3809 20.2764 69.3809 25.0029C69.3809 28.1475 69.6934 30.8232 70.3184 33.0303C70.9629 35.2373 71.9004 36.917 73.1309 38.0693C74.3613 39.2021 75.8555 39.7686 77.6133 39.7686ZM123.727 38.5967V36.3115C123.727 34.5537 124.098 32.9424 124.84 31.4775C125.582 30.0127 126.666 28.8408 128.092 27.9619C129.518 27.0635 131.256 26.6143 133.307 26.6143C135.416 26.6143 137.174 27.0537 138.58 27.9326C140.006 28.8115 141.08 29.9932 141.803 31.4775C142.545 32.9424 142.916 34.5537 142.916 36.3115V38.5967C142.916 40.3545 142.545 41.9756 141.803 43.46C141.061 44.9248 139.977 46.0967 138.551 46.9756C137.125 47.8545 135.377 48.2939 133.307 48.2939C131.236 48.2939 129.488 47.8545 128.062 46.9756C126.637 46.0967 125.553 44.9248 124.811 43.46C124.088 41.9756 123.727 40.3545 123.727 38.5967ZM129.908 36.3115V38.5967C129.908 39.6123 130.152 40.5693 130.641 41.4678C131.129 42.3662 132.018 42.8154 133.307 42.8154C134.615 42.8154 135.504 42.376 135.973 41.4971C136.441 40.6182 136.676 39.6514 136.676 38.5967V36.3115C136.676 35.2568 136.451 34.29 136.002 33.4111C135.553 32.5127 134.654 32.0732 133.307 32.0928C132.037 32.0732 131.148 32.5127 130.641 33.4111C130.152 34.29 129.908 35.2568 129.908 36.3115ZM101.314 13.6357V11.3506C101.314 9.59277 101.686 7.98145 102.428 6.5166C103.189 5.03223 104.283 3.85059 105.709 2.97168C107.154 2.09277 108.893 1.65332 110.924 1.65332C113.014 1.65332 114.771 2.09277 116.197 2.97168C117.643 3.85059 118.727 5.03223 119.449 6.5166C120.172 7.98145 120.523 9.59277 120.504 11.3506V13.6357C120.523 15.3936 120.162 17.0049 119.42 18.4697C118.678 19.9346 117.594 21.1064 116.168 21.9854C114.742 22.8447 112.994 23.2842 110.924 23.3037C108.854 23.2842 107.096 22.835 105.65 21.9561C104.225 21.0771 103.141 19.9053 102.398 18.4404C101.676 16.9756 101.314 15.374 101.314 13.6357ZM107.555 11.3506V13.6357C107.555 14.6904 107.799 15.6572 108.287 16.5361C108.775 17.415 109.654 17.8447 110.924 17.8252C112.213 17.8447 113.092 17.415 113.561 16.5361C114.049 15.6572 114.283 14.6904 114.264 13.6357V11.3506C114.283 10.2959 114.059 9.3291 113.59 8.4502C113.141 7.55176 112.252 7.10254 110.924 7.10254C109.635 7.10254 108.746 7.56152 108.258 8.47949C107.789 9.37793 107.555 10.335 107.555 11.3506ZM104.127 46.7998L134.127 3.14746H139.723L109.723 46.7998H104.127Z" fill="#AFAFAF"/>
</g>
<mask id="mask1_2019_405" style="mask-type:alpha" maskUnits="userSpaceOnUse" x="0" y="0" width="162" height="25">
<rect y="0.799805" width="162" height="24" fill="#D9D9D9"/>
</mask>
<g mask="url(#mask1_2019_405)">
<path d="M39.6152 47.3857C36.6074 47.3857 33.9219 46.8389 31.5586 45.7451C29.1953 44.6318 27.3203 43.0986 25.9336 41.1455C24.5664 39.1924 23.8535 36.9658 23.7949 34.4658H32.7598C32.8379 36.1455 33.5312 37.5127 34.8398 38.5674C36.168 39.6025 37.7598 40.1201 39.6152 40.1201C41.0605 40.1201 42.3301 39.7979 43.4238 39.1533C44.5371 38.5088 45.4062 37.6201 46.0312 36.4873C46.6562 35.335 46.9688 33.9971 46.9688 32.4736C46.9688 30.9502 46.6465 29.6025 46.002 28.4307C45.3574 27.2588 44.4688 26.3506 43.3359 25.7061C42.2227 25.042 40.9336 24.71 39.4688 24.71C38.1797 24.71 36.9395 24.9736 35.748 25.501C34.5566 26.0283 33.6289 26.7412 32.9648 27.6396L24.7324 26.1748L26.7832 3.14746H53.4727V10.7061H34.4004L33.3164 21.6338H33.5508C34.3125 20.5596 35.4648 19.6709 37.0078 18.9678C38.5703 18.2646 40.3086 17.9131 42.2227 17.9131C44.8398 17.9131 47.1738 18.5283 49.2246 19.7588C51.2949 20.9893 52.9258 22.6787 54.1172 24.8271C55.3086 26.9756 55.9043 29.4463 55.9043 32.2393C55.9043 35.1885 55.2207 37.8057 53.8535 40.0908C52.4863 42.3564 50.5723 44.1436 48.1113 45.4521C45.6699 46.7412 42.8379 47.3857 39.6152 47.3857ZM77.6133 47.3857C73.9023 47.3857 70.7285 46.5068 68.0918 44.749C65.4746 42.9717 63.4629 40.4229 62.0566 37.1025C60.6699 33.7627 59.9766 29.7295 59.9766 25.0029C59.9766 20.2959 60.6797 16.2725 62.0859 12.9326C63.4922 9.57324 65.5039 7.00488 68.1211 5.22754C70.7578 3.4502 73.9219 2.56152 77.6133 2.56152C81.3242 2.56152 84.4883 3.4502 87.1055 5.22754C89.7422 7.00488 91.7539 9.56348 93.1406 12.9033C94.5469 16.2432 95.25 20.2764 95.25 25.0029C95.25 29.7295 94.5566 33.7627 93.1699 37.1025C91.7832 40.4229 89.7715 42.9717 87.1348 44.749C84.5176 46.5068 81.3438 47.3857 77.6133 47.3857ZM77.6133 39.7686C79.3906 39.7686 80.8848 39.2021 82.0957 38.0693C83.3262 36.917 84.2539 35.2373 84.8789 33.0303C85.5234 30.8232 85.8457 28.1475 85.8457 25.0029C85.8457 21.8389 85.5234 19.1533 84.8789 16.9463C84.2539 14.7393 83.3262 13.0596 82.0957 11.9072C80.8848 10.7354 79.3906 10.1494 77.6133 10.1494C74.9766 10.1494 72.9453 11.4482 71.5195 14.0459C70.0938 16.624 69.3809 20.2764 69.3809 25.0029C69.3809 28.1475 69.6934 30.8232 70.3184 33.0303C70.9629 35.2373 71.9004 36.917 73.1309 38.0693C74.3613 39.2021 75.8555 39.7686 77.6133 39.7686ZM123.727 38.5967V36.3115C123.727 34.5537 124.098 32.9424 124.84 31.4775C125.582 30.0127 126.666 28.8408 128.092 27.9619C129.518 27.0635 131.256 26.6143 133.307 26.6143C135.416 26.6143 137.174 27.0537 138.58 27.9326C140.006 28.8115 141.08 29.9932 141.803 31.4775C142.545 32.9424 142.916 34.5537 142.916 36.3115V38.5967C142.916 40.3545 142.545 41.9756 141.803 43.46C141.061 44.9248 139.977 46.0967 138.551 46.9756C137.125 47.8545 135.377 48.2939 133.307 48.2939C131.236 48.2939 129.488 47.8545 128.062 46.9756C126.637 46.0967 125.553 44.9248 124.811 43.46C124.088 41.9756 123.727 40.3545 123.727 38.5967ZM129.908 36.3115V38.5967C129.908 39.6123 130.152 40.5693 130.641 41.4678C131.129 42.3662 132.018 42.8154 133.307 42.8154C134.615 42.8154 135.504 42.376 135.973 41.4971C136.441 40.6182 136.676 39.6514 136.676 38.5967V36.3115C136.676 35.2568 136.451 34.29 136.002 33.4111C135.553 32.5127 134.654 32.0732 133.307 32.0928C132.037 32.0732 131.148 32.5127 130.641 33.4111C130.152 34.29 129.908 35.2568 129.908 36.3115ZM101.314 13.6357V11.3506C101.314 9.59277 101.686 7.98145 102.428 6.5166C103.189 5.03223 104.283 3.85059 105.709 2.97168C107.154 2.09277 108.893 1.65332 110.924 1.65332C113.014 1.65332 114.771 2.09277 116.197 2.97168C117.643 3.85059 118.727 5.03223 119.449 6.5166C120.172 7.98145 120.523 9.59277 120.504 11.3506V13.6357C120.523 15.3936 120.162 17.0049 119.42 18.4697C118.678 19.9346 117.594 21.1064 116.168 21.9854C114.742 22.8447 112.994 23.2842 110.924 23.3037C108.854 23.2842 107.096 22.835 105.65 21.9561C104.225 21.0771 103.141 19.9053 102.398 18.4404C101.676 16.9756 101.314 15.374 101.314 13.6357ZM107.555 11.3506V13.6357C107.555 14.6904 107.799 15.6572 108.287 16.5361C108.775 17.415 109.654 17.8447 110.924 17.8252C112.213 17.8447 113.092 17.415 113.561 16.5361C114.049 15.6572 114.283 14.6904 114.264 13.6357V11.3506C114.283 10.2959 114.059 9.3291 113.59 8.4502C113.141 7.55176 112.252 7.10254 110.924 7.10254C109.635 7.10254 108.746 7.56152 108.258 8.47949C107.789 9.37793 107.555 10.335 107.555 11.3506ZM104.127 46.7998L134.127 3.14746H139.723L109.723 46.7998H104.127Z" fill="#F0F0F0" fill-opacity="0.16"/>
</g>
</svg>
