<svg width="162" height="49" viewBox="0 0 162 49" fill="none" xmlns="http://www.w3.org/2000/svg">
<mask id="mask0_2019_407" style="mask-type:alpha" maskUnits="userSpaceOnUse" x="0" y="8" width="162" height="41">
<rect y="8.7998" width="162" height="40" fill="#D9D9D9"/>
</mask>
<g mask="url(#mask0_2019_407)">
<path d="M39.4707 2.50293C41.7168 2.50293 43.875 2.88379 45.9453 3.64551C48.0352 4.3877 49.9004 5.59863 51.541 7.27832C53.2012 8.93848 54.5098 11.1455 55.4668 13.8994C56.4238 16.6338 56.9023 19.9834 56.9023 23.9482C56.9023 27.6396 56.4824 30.9307 55.6426 33.8213C54.8223 36.7119 53.6309 39.1729 52.0684 41.2041C50.5254 43.2354 48.6602 44.7881 46.4727 45.8623C44.3047 46.917 41.873 47.4443 39.1777 47.4443C36.2871 47.4443 33.7188 46.8779 31.4727 45.7451C29.2266 44.5928 27.4297 43.04 26.082 41.0869C24.7344 39.1338 23.9141 36.9561 23.6211 34.5537H32.7031C33.0547 36.1162 33.7969 37.3369 34.9297 38.2158C36.082 39.0947 37.498 39.5342 39.1777 39.5342C42.0293 39.5342 44.1875 38.2939 45.6523 35.8135C47.1172 33.3135 47.8496 29.9346 47.8496 25.6768H47.5859C46.9414 26.9463 46.0625 28.0498 44.9492 28.9873C43.8359 29.9053 42.5664 30.6084 41.1406 31.0967C39.7148 31.585 38.2012 31.8291 36.5996 31.8291C34.0215 31.8291 31.7168 31.2236 29.6855 30.0127C27.6543 28.8018 26.0625 27.1416 24.9102 25.0322C23.7578 22.9033 23.1719 20.4717 23.1523 17.7373C23.1719 14.7881 23.8652 12.1709 25.2324 9.88574C26.5996 7.58105 28.5039 5.77441 30.9453 4.46582C33.4062 3.1377 36.248 2.4834 39.4707 2.50293ZM39.5293 9.82715C38.1426 9.82715 36.8828 10.1689 35.75 10.8525C34.6172 11.5166 33.7285 12.4346 33.084 13.6064C32.4395 14.7588 32.1172 16.0576 32.1172 17.5029C32.1172 18.9482 32.4297 20.2471 33.0547 21.3994C33.6992 22.5518 34.5781 23.4697 35.6914 24.1533C36.8047 24.8174 38.0645 25.1494 39.4707 25.1494C40.8965 25.1494 42.166 24.8076 43.2793 24.124C44.4121 23.4209 45.3105 22.4932 45.9746 21.3408C46.6387 20.1689 46.9707 18.8701 46.9707 17.4443C46.9707 16.0576 46.6484 14.7881 46.0039 13.6357C45.3594 12.4639 44.4805 11.5361 43.3672 10.8525C42.2539 10.1689 40.9746 9.82715 39.5293 9.82715ZM78.582 47.3857C74.8711 47.3857 71.6973 46.5068 69.0605 44.749C66.4434 42.9717 64.4316 40.4229 63.0254 37.1025C61.6387 33.7627 60.9453 29.7295 60.9453 25.0029C60.9453 20.2959 61.6484 16.2725 63.0547 12.9326C64.4609 9.57324 66.4727 7.00488 69.0898 5.22754C71.7266 3.4502 74.8906 2.56152 78.582 2.56152C82.293 2.56152 85.457 3.4502 88.0742 5.22754C90.7109 7.00488 92.7227 9.56348 94.1094 12.9033C95.5156 16.2432 96.2188 20.2764 96.2188 25.0029C96.2188 29.7295 95.5254 33.7627 94.1387 37.1025C92.752 40.4229 90.7402 42.9717 88.1035 44.749C85.4863 46.5068 82.3125 47.3857 78.582 47.3857ZM78.582 39.7686C80.3594 39.7686 81.8535 39.2021 83.0645 38.0693C84.2949 36.917 85.2227 35.2373 85.8477 33.0303C86.4922 30.8232 86.8145 28.1475 86.8145 25.0029C86.8145 21.8389 86.4922 19.1533 85.8477 16.9463C85.2227 14.7393 84.2949 13.0596 83.0645 11.9072C81.8535 10.7354 80.3594 10.1494 78.582 10.1494C75.9453 10.1494 73.9141 11.4482 72.4883 14.0459C71.0625 16.624 70.3496 20.2764 70.3496 25.0029C70.3496 28.1475 70.6621 30.8232 71.2871 33.0303C71.9316 35.2373 72.8691 36.917 74.0996 38.0693C75.3301 39.2021 76.8242 39.7686 78.582 39.7686ZM124.695 38.5967V36.3115C124.695 34.5537 125.066 32.9424 125.809 31.4775C126.551 30.0127 127.635 28.8408 129.061 27.9619C130.486 27.0635 132.225 26.6143 134.275 26.6143C136.385 26.6143 138.143 27.0537 139.549 27.9326C140.975 28.8115 142.049 29.9932 142.771 31.4775C143.514 32.9424 143.885 34.5537 143.885 36.3115V38.5967C143.885 40.3545 143.514 41.9756 142.771 43.46C142.029 44.9248 140.945 46.0967 139.52 46.9756C138.094 47.8545 136.346 48.2939 134.275 48.2939C132.205 48.2939 130.457 47.8545 129.031 46.9756C127.605 46.0967 126.521 44.9248 125.779 43.46C125.057 41.9756 124.695 40.3545 124.695 38.5967ZM130.877 36.3115V38.5967C130.877 39.6123 131.121 40.5693 131.609 41.4678C132.098 42.3662 132.986 42.8154 134.275 42.8154C135.584 42.8154 136.473 42.376 136.941 41.4971C137.41 40.6182 137.645 39.6514 137.645 38.5967V36.3115C137.645 35.2568 137.42 34.29 136.971 33.4111C136.521 32.5127 135.623 32.0732 134.275 32.0928C133.006 32.0732 132.117 32.5127 131.609 33.4111C131.121 34.29 130.877 35.2568 130.877 36.3115ZM102.283 13.6357V11.3506C102.283 9.59277 102.654 7.98145 103.396 6.5166C104.158 5.03223 105.252 3.85059 106.678 2.97168C108.123 2.09277 109.861 1.65332 111.893 1.65332C113.982 1.65332 115.74 2.09277 117.166 2.97168C118.611 3.85059 119.695 5.03223 120.418 6.5166C121.141 7.98145 121.492 9.59277 121.473 11.3506V13.6357C121.492 15.3936 121.131 17.0049 120.389 18.4697C119.646 19.9346 118.562 21.1064 117.137 21.9854C115.711 22.8447 113.963 23.2842 111.893 23.3037C109.822 23.2842 108.064 22.835 106.619 21.9561C105.193 21.0771 104.109 19.9053 103.367 18.4404C102.645 16.9756 102.283 15.374 102.283 13.6357ZM108.523 11.3506V13.6357C108.523 14.6904 108.768 15.6572 109.256 16.5361C109.744 17.415 110.623 17.8447 111.893 17.8252C113.182 17.8447 114.061 17.415 114.529 16.5361C115.018 15.6572 115.252 14.6904 115.232 13.6357V11.3506C115.252 10.2959 115.027 9.3291 114.559 8.4502C114.109 7.55176 113.221 7.10254 111.893 7.10254C110.604 7.10254 109.715 7.56152 109.227 8.47949C108.758 9.37793 108.523 10.335 108.523 11.3506ZM105.096 46.7998L135.096 3.14746H140.691L110.691 46.7998H105.096Z" fill="#AFAFAF"/>
</g>
<mask id="mask1_2019_407" style="mask-type:alpha" maskUnits="userSpaceOnUse" x="0" y="0" width="162" height="40">
<rect y="0.799805" width="162" height="39" fill="#D9D9D9"/>
</mask>
<g mask="url(#mask1_2019_407)">
<path d="M39.4707 2.50293C41.7168 2.50293 43.875 2.88379 45.9453 3.64551C48.0352 4.3877 49.9004 5.59863 51.541 7.27832C53.2012 8.93848 54.5098 11.1455 55.4668 13.8994C56.4238 16.6338 56.9023 19.9834 56.9023 23.9482C56.9023 27.6396 56.4824 30.9307 55.6426 33.8213C54.8223 36.7119 53.6309 39.1729 52.0684 41.2041C50.5254 43.2354 48.6602 44.7881 46.4727 45.8623C44.3047 46.917 41.873 47.4443 39.1777 47.4443C36.2871 47.4443 33.7188 46.8779 31.4727 45.7451C29.2266 44.5928 27.4297 43.04 26.082 41.0869C24.7344 39.1338 23.9141 36.9561 23.6211 34.5537H32.7031C33.0547 36.1162 33.7969 37.3369 34.9297 38.2158C36.082 39.0947 37.498 39.5342 39.1777 39.5342C42.0293 39.5342 44.1875 38.2939 45.6523 35.8135C47.1172 33.3135 47.8496 29.9346 47.8496 25.6768H47.5859C46.9414 26.9463 46.0625 28.0498 44.9492 28.9873C43.8359 29.9053 42.5664 30.6084 41.1406 31.0967C39.7148 31.585 38.2012 31.8291 36.5996 31.8291C34.0215 31.8291 31.7168 31.2236 29.6855 30.0127C27.6543 28.8018 26.0625 27.1416 24.9102 25.0322C23.7578 22.9033 23.1719 20.4717 23.1523 17.7373C23.1719 14.7881 23.8652 12.1709 25.2324 9.88574C26.5996 7.58105 28.5039 5.77441 30.9453 4.46582C33.4062 3.1377 36.248 2.4834 39.4707 2.50293ZM39.5293 9.82715C38.1426 9.82715 36.8828 10.1689 35.75 10.8525C34.6172 11.5166 33.7285 12.4346 33.084 13.6064C32.4395 14.7588 32.1172 16.0576 32.1172 17.5029C32.1172 18.9482 32.4297 20.2471 33.0547 21.3994C33.6992 22.5518 34.5781 23.4697 35.6914 24.1533C36.8047 24.8174 38.0645 25.1494 39.4707 25.1494C40.8965 25.1494 42.166 24.8076 43.2793 24.124C44.4121 23.4209 45.3105 22.4932 45.9746 21.3408C46.6387 20.1689 46.9707 18.8701 46.9707 17.4443C46.9707 16.0576 46.6484 14.7881 46.0039 13.6357C45.3594 12.4639 44.4805 11.5361 43.3672 10.8525C42.2539 10.1689 40.9746 9.82715 39.5293 9.82715ZM78.582 47.3857C74.8711 47.3857 71.6973 46.5068 69.0605 44.749C66.4434 42.9717 64.4316 40.4229 63.0254 37.1025C61.6387 33.7627 60.9453 29.7295 60.9453 25.0029C60.9453 20.2959 61.6484 16.2725 63.0547 12.9326C64.4609 9.57324 66.4727 7.00488 69.0898 5.22754C71.7266 3.4502 74.8906 2.56152 78.582 2.56152C82.293 2.56152 85.457 3.4502 88.0742 5.22754C90.7109 7.00488 92.7227 9.56348 94.1094 12.9033C95.5156 16.2432 96.2188 20.2764 96.2188 25.0029C96.2188 29.7295 95.5254 33.7627 94.1387 37.1025C92.752 40.4229 90.7402 42.9717 88.1035 44.749C85.4863 46.5068 82.3125 47.3857 78.582 47.3857ZM78.582 39.7686C80.3594 39.7686 81.8535 39.2021 83.0645 38.0693C84.2949 36.917 85.2227 35.2373 85.8477 33.0303C86.4922 30.8232 86.8145 28.1475 86.8145 25.0029C86.8145 21.8389 86.4922 19.1533 85.8477 16.9463C85.2227 14.7393 84.2949 13.0596 83.0645 11.9072C81.8535 10.7354 80.3594 10.1494 78.582 10.1494C75.9453 10.1494 73.9141 11.4482 72.4883 14.0459C71.0625 16.624 70.3496 20.2764 70.3496 25.0029C70.3496 28.1475 70.6621 30.8232 71.2871 33.0303C71.9316 35.2373 72.8691 36.917 74.0996 38.0693C75.3301 39.2021 76.8242 39.7686 78.582 39.7686ZM124.695 38.5967V36.3115C124.695 34.5537 125.066 32.9424 125.809 31.4775C126.551 30.0127 127.635 28.8408 129.061 27.9619C130.486 27.0635 132.225 26.6143 134.275 26.6143C136.385 26.6143 138.143 27.0537 139.549 27.9326C140.975 28.8115 142.049 29.9932 142.771 31.4775C143.514 32.9424 143.885 34.5537 143.885 36.3115V38.5967C143.885 40.3545 143.514 41.9756 142.771 43.46C142.029 44.9248 140.945 46.0967 139.52 46.9756C138.094 47.8545 136.346 48.2939 134.275 48.2939C132.205 48.2939 130.457 47.8545 129.031 46.9756C127.605 46.0967 126.521 44.9248 125.779 43.46C125.057 41.9756 124.695 40.3545 124.695 38.5967ZM130.877 36.3115V38.5967C130.877 39.6123 131.121 40.5693 131.609 41.4678C132.098 42.3662 132.986 42.8154 134.275 42.8154C135.584 42.8154 136.473 42.376 136.941 41.4971C137.41 40.6182 137.645 39.6514 137.645 38.5967V36.3115C137.645 35.2568 137.42 34.29 136.971 33.4111C136.521 32.5127 135.623 32.0732 134.275 32.0928C133.006 32.0732 132.117 32.5127 131.609 33.4111C131.121 34.29 130.877 35.2568 130.877 36.3115ZM102.283 13.6357V11.3506C102.283 9.59277 102.654 7.98145 103.396 6.5166C104.158 5.03223 105.252 3.85059 106.678 2.97168C108.123 2.09277 109.861 1.65332 111.893 1.65332C113.982 1.65332 115.74 2.09277 117.166 2.97168C118.611 3.85059 119.695 5.03223 120.418 6.5166C121.141 7.98145 121.492 9.59277 121.473 11.3506V13.6357C121.492 15.3936 121.131 17.0049 120.389 18.4697C119.646 19.9346 118.562 21.1064 117.137 21.9854C115.711 22.8447 113.963 23.2842 111.893 23.3037C109.822 23.2842 108.064 22.835 106.619 21.9561C105.193 21.0771 104.109 19.9053 103.367 18.4404C102.645 16.9756 102.283 15.374 102.283 13.6357ZM108.523 11.3506V13.6357C108.523 14.6904 108.768 15.6572 109.256 16.5361C109.744 17.415 110.623 17.8447 111.893 17.8252C113.182 17.8447 114.061 17.415 114.529 16.5361C115.018 15.6572 115.252 14.6904 115.232 13.6357V11.3506C115.252 10.2959 115.027 9.3291 114.559 8.4502C114.109 7.55176 113.221 7.10254 111.893 7.10254C110.604 7.10254 109.715 7.56152 109.227 8.47949C108.758 9.37793 108.523 10.335 108.523 11.3506ZM105.096 46.7998L135.096 3.14746H140.691L110.691 46.7998H105.096Z" fill="#F0F0F0" fill-opacity="0.16"/>
</g>
</svg>
