<svg width="215" height="547" viewBox="0 0 215 547" fill="none" xmlns="http://www.w3.org/2000/svg">
<g filter="url(#filter0_b_3020_2085)">
<path d="M56.0593 507.707C54.5957 510.967 49.9683 510.967 48.5048 507.707L26.9461 459.698C25.7158 456.958 27.7201 453.861 30.7233 453.861L73.8407 453.861C76.844 453.861 78.8483 456.958 77.618 459.698L56.0593 507.707Z" fill="white" fill-opacity="0.23"/>
</g>
<path d="M41.8705 460.011L41.7729 460.082C41.7729 460.082 47.6627 466.881 47.6627 470.545C47.6627 475.071 39.2153 477.13 39.2153 477.13L39.2505 477.247C40.2086 477.014 46.2481 475.575 48.695 476.703C53.0509 478.71 51.3118 487.659 51.3118 487.659L51.4341 487.681C51.6259 486.563 53.2109 478.621 55.9829 477.486C57.847 476.723 60.3517 479.453 60.3517 479.453L60.4383 479.372C59.8629 478.768 57.7075 476.414 58.0835 474.746C58.6094 472.414 66.8856 469.966 66.8856 469.966L66.8504 469.852C66.234 470.042 59.032 472.244 57.3205 470.94C55.5801 469.613 57.4319 464.577 57.4319 464.577L57.3143 464.537C57.1122 465.086 55.6276 468.883 53.0494 468.883C49.7116 468.883 43.9078 462.398 41.8705 460.011Z" fill="white"/>
<ellipse cx="52.2822" cy="519.377" rx="5.38032" ry="2.30585" fill="white"/>
<g filter="url(#filter1_b_3020_2085)">
<path d="M67.5044 3.3125C67.5044 1.48306 68.9875 0 70.8169 0L210.77 0C212.599 0 214.083 1.48306 214.083 3.3125V75.7734C214.083 77.6029 212.599 79.0859 210.77 79.0859H70.8169C68.9875 79.0859 67.5044 77.6029 67.5044 75.7734V38.1172C67.5044 37.3022 67.2039 36.5158 66.6605 35.9084L62.4416 31.1931C61.3164 29.9356 61.3164 28.0332 62.4416 26.7756L66.6605 22.0604C67.2039 21.453 67.5044 20.6666 67.5044 19.8516V3.3125Z" fill="#3E3E3E" fill-opacity="0.3"/>
<path d="M70.8169 0.414062H210.77C212.371 0.414062 213.668 1.71174 213.668 3.3125V75.7734C213.668 77.3742 212.371 78.6719 210.77 78.6719H70.8169C69.2161 78.6719 67.9185 77.3742 67.9185 75.7734V38.1172C67.9185 37.2003 67.5804 36.3156 66.9691 35.6323L62.7502 30.917C61.7656 29.8167 61.7656 28.1521 62.7502 27.0517L66.9691 22.3365C67.5804 21.6532 67.9185 20.7685 67.9185 19.8516V3.3125C67.9185 1.71174 69.2161 0.414062 70.8169 0.414062Z" stroke="url(#paint0_linear_3020_2085)" stroke-width="0.828125"/>
</g>
<path d="M115.147 24.8794C115.147 23.5194 115.46 22.2994 116.087 21.2194C116.727 20.1394 117.587 19.2994 118.667 18.6994C119.76 18.086 120.953 17.7794 122.247 17.7794C123.727 17.7794 125.04 18.146 126.187 18.8794C127.347 19.5994 128.187 20.626 128.707 21.9594H125.967C125.607 21.226 125.107 20.6794 124.467 20.3194C123.827 19.9594 123.087 19.7794 122.247 19.7794C121.327 19.7794 120.507 19.986 119.787 20.3994C119.067 20.8127 118.5 21.406 118.087 22.1794C117.687 22.9527 117.487 23.8527 117.487 24.8794C117.487 25.906 117.687 26.806 118.087 27.5794C118.5 28.3527 119.067 28.9527 119.787 29.3794C120.507 29.7927 121.327 29.9994 122.247 29.9994C123.087 29.9994 123.827 29.8194 124.467 29.4594C125.107 29.0994 125.607 28.5527 125.967 27.8194H128.707C128.187 29.1527 127.347 30.1794 126.187 30.8994C125.04 31.6194 123.727 31.9794 122.247 31.9794C120.94 31.9794 119.747 31.6794 118.667 31.0794C117.587 30.466 116.727 29.6194 116.087 28.5394C115.46 27.4594 115.147 26.2394 115.147 24.8794ZM137.075 20.6594C137.915 20.6594 138.662 20.8394 139.315 21.1994C139.982 21.5594 140.502 22.0927 140.875 22.7994C141.262 23.506 141.455 24.3594 141.455 25.3594V31.8594H139.195V25.6994C139.195 24.7127 138.949 23.9594 138.455 23.4394C137.962 22.906 137.289 22.6394 136.435 22.6394C135.582 22.6394 134.902 22.906 134.395 23.4394C133.902 23.9594 133.655 24.7127 133.655 25.6994V31.8594H131.375V17.0594H133.655V22.1194C134.042 21.6527 134.529 21.2927 135.115 21.0394C135.715 20.786 136.369 20.6594 137.075 20.6594ZM145.524 19.3794C145.11 19.3794 144.764 19.2394 144.484 18.9594C144.204 18.6794 144.064 18.3327 144.064 17.9194C144.064 17.506 144.204 17.1594 144.484 16.8794C144.764 16.5994 145.11 16.4594 145.524 16.4594C145.924 16.4594 146.264 16.5994 146.544 16.8794C146.824 17.1594 146.964 17.506 146.964 17.9194C146.964 18.3327 146.824 18.6794 146.544 18.9594C146.264 19.2394 145.924 19.3794 145.524 19.3794ZM146.644 20.8394V31.8594H144.364V20.8394H146.644ZM155.197 20.6594C156.064 20.6594 156.837 20.8394 157.517 21.1994C158.211 21.5594 158.751 22.0927 159.137 22.7994C159.524 23.506 159.717 24.3594 159.717 25.3594V31.8594H157.457V25.6994C157.457 24.7127 157.211 23.9594 156.717 23.4394C156.224 22.906 155.551 22.6394 154.697 22.6394C153.844 22.6394 153.164 22.906 152.657 23.4394C152.164 23.9594 151.917 24.7127 151.917 25.6994V31.8594H149.637V20.8394H151.917V22.0994C152.291 21.646 152.764 21.2927 153.337 21.0394C153.924 20.786 154.544 20.6594 155.197 20.6594ZM161.865 26.2994C161.865 25.1927 162.092 24.2127 162.545 23.3594C163.012 22.506 163.639 21.846 164.425 21.3794C165.225 20.8994 166.105 20.6594 167.065 20.6594C167.932 20.6594 168.685 20.8327 169.325 21.1794C169.979 21.5127 170.499 21.9327 170.885 22.4394V20.8394H173.185V31.8594H170.885V30.2194C170.499 30.7394 169.972 31.1727 169.305 31.5194C168.639 31.866 167.879 32.0394 167.025 32.0394C166.079 32.0394 165.212 31.7994 164.425 31.3194C163.639 30.826 163.012 30.146 162.545 29.2794C162.092 28.3994 161.865 27.406 161.865 26.2994ZM170.885 26.3394C170.885 25.5794 170.725 24.9194 170.405 24.3594C170.099 23.7994 169.692 23.3727 169.185 23.0794C168.679 22.786 168.132 22.6394 167.545 22.6394C166.959 22.6394 166.412 22.786 165.905 23.0794C165.399 23.3594 164.985 23.7794 164.665 24.3394C164.359 24.886 164.205 25.5394 164.205 26.2994C164.205 27.0594 164.359 27.726 164.665 28.2994C164.985 28.8727 165.399 29.3127 165.905 29.6194C166.425 29.9127 166.972 30.0594 167.545 30.0594C168.132 30.0594 168.679 29.9127 169.185 29.6194C169.692 29.326 170.099 28.8994 170.405 28.3394C170.725 27.766 170.885 27.0994 170.885 26.3394Z" fill="#12FFF1"/>
<path fill-rule="evenodd" clip-rule="evenodd" d="M85.7029 46.7861C85.5773 47.4458 85.4224 48.3652 85.4224 48.4502C85.4224 48.5 86.3644 48.5427 88.0168 48.5676L90.6112 48.6068L90.1326 51.3867C89.5014 55.0526 88.8956 58.5363 88.6632 59.8372C88.56 60.4149 88.4755 60.9522 88.4755 61.0314C88.4755 61.1659 88.5704 61.1752 89.9441 61.1752C90.7519 61.1752 91.4127 61.1473 91.4127 61.1132C91.4127 61.0791 91.5328 60.3655 91.6796 59.5275C92.0233 57.5644 92.9793 52.0478 93.2735 50.3296C93.3989 49.5974 93.5213 48.9014 93.5454 48.783L93.5893 48.5676L96.1532 48.5665C97.5634 48.5657 98.7546 48.5394 98.8004 48.5077C98.8644 48.4635 99.2196 46.7023 99.2196 46.4291C99.2196 46.3994 96.1959 46.375 92.5004 46.375H85.7812L85.7029 46.7861ZM175.684 46.4268C175.628 46.4497 175.587 46.6059 175.587 46.7979C175.587 47.141 175.48 47.838 175.346 48.3567C175.273 48.6411 175.257 48.6538 174.984 48.6308L174.698 48.6068L174.505 47.6671L174.312 46.7274L173.546 46.7048C173.124 46.6924 172.754 46.71 172.722 46.744C172.69 46.7779 172.748 47.1757 172.85 47.6279C172.951 48.0802 173.035 48.4943 173.036 48.548C173.036 48.6175 172.872 48.6459 172.472 48.6459H171.907L171.789 49.2724C171.724 49.6169 171.688 49.9164 171.71 49.938C171.731 49.9596 172.458 49.9772 173.325 49.9772H174.902L174.852 50.1534C174.771 50.4357 174.538 50.7205 174.38 50.7291C174.3 50.7335 173.62 50.7423 172.87 50.7487L171.505 50.7603L171.411 51.2888C171.36 51.5795 171.314 51.8526 171.308 51.8957C171.301 51.9436 171.763 51.9892 172.495 52.0132L173.694 52.0523L173.191 52.4352C172.65 52.8475 172.278 53.0386 171.491 53.3089C171.014 53.4729 170.986 53.4957 170.927 53.7847C170.893 53.9517 170.818 54.2912 170.761 54.5393C170.704 54.7873 170.682 55.0058 170.713 55.0248C170.789 55.0726 171.63 54.8441 171.901 54.702C172.023 54.6381 172.142 54.6044 172.164 54.6272C172.197 54.6602 171.939 56.2123 171.756 57.0836L171.72 57.2598H174.533C176.925 57.2598 177.36 57.2772 177.441 57.376C177.518 57.4691 177.494 57.706 177.325 58.5701C177.208 59.1631 177.096 59.6923 177.076 59.7461C177.048 59.82 176.653 59.844 175.463 59.844C173.66 59.844 173.79 59.7712 174.049 60.6345L174.211 61.1752H176.406C177.614 61.1752 178.602 61.1589 178.602 61.1389C178.602 61.1189 178.76 60.2292 178.952 59.1616C179.424 56.5502 179.439 56.3869 179.226 56.1859C179.057 56.0259 178.608 55.9286 178.041 55.9286H177.734L177.787 55.6349C177.919 54.8952 178.079 54.2841 178.14 54.2841C178.176 54.2841 178.326 54.3554 178.471 54.4425C178.836 54.6602 179.996 55.0826 180.11 55.0386C180.16 55.0189 180.291 54.7618 180.4 54.4672C180.509 54.1727 180.62 53.874 180.648 53.8035C180.689 53.6999 180.585 53.6364 180.108 53.4739C179.355 53.2174 178.658 52.818 178.215 52.3893L177.867 52.0523L179.14 52.0132L180.413 51.974L180.544 51.3867C180.617 51.0637 180.666 50.7894 180.654 50.7772C180.642 50.765 179.69 50.7549 178.538 50.7549C177.386 50.7549 176.429 50.7297 176.412 50.6989C176.394 50.668 176.443 50.4937 176.521 50.3115L176.662 49.9801L178.424 49.9591L180.186 49.938L180.276 49.66C180.325 49.5071 180.39 49.2163 180.42 49.014L180.474 48.6459H179.925C179.622 48.6459 179.375 48.63 179.375 48.6105C179.375 48.591 179.531 48.1878 179.723 47.7147C179.914 47.2415 180.07 46.8169 180.07 46.7712C180.07 46.718 179.779 46.6882 179.257 46.6882H178.443L178.367 46.9036C178.325 47.022 178.161 47.4625 178.002 47.8824L177.713 48.6459H177.385C177.204 48.6459 177.056 48.634 177.056 48.6195C177.056 48.605 177.108 48.2438 177.171 47.8169C177.235 47.39 177.287 46.8908 177.287 46.7078L177.288 46.375L176.534 46.3812C176.12 46.3846 175.737 46.4051 175.684 46.4268ZM183.394 46.4415C183.394 46.5102 183.853 48.761 184.023 49.5269L184.105 49.8989H185.064C185.927 49.8989 186.021 49.8853 186.016 49.7618C186.013 49.6865 185.83 48.9024 185.61 48.0195L185.211 46.4142L184.302 46.3921C183.79 46.3796 183.394 46.4012 183.394 46.4415ZM167.359 47.7258C166.494 53.5503 165.61 57.886 164.642 61.0409C164.602 61.17 164.663 61.179 165.436 61.1584L166.273 61.1361L166.764 58.8651C167.034 57.6161 167.288 56.4605 167.328 56.2972L167.402 56.0002L167.958 56.0231L168.515 56.046L168.49 56.3593C168.476 56.5316 168.276 57.6316 168.045 58.8038C167.815 59.976 167.626 60.9892 167.626 61.0552C167.626 61.1553 167.759 61.1752 168.429 61.1752H169.232L169.4 60.2551C169.492 59.7491 169.635 58.965 169.719 58.5128C169.802 58.0605 170.062 56.5805 170.296 55.2238C170.897 51.7451 171.238 49.7897 171.457 48.5744C171.689 47.2819 171.689 47.2733 171.455 47.0371L171.266 46.8448H169.378H167.49L167.359 47.7258ZM186.874 47.0185C186.875 47.1168 186.938 47.4439 187.014 47.7454L187.153 48.2935L190.24 48.335C191.937 48.3578 193.335 48.3841 193.346 48.3937C193.421 48.4613 193.32 49.2271 193.041 50.6967L192.717 52.4047H191.451C190.282 52.4047 190.189 52.3942 190.225 52.2677C190.304 51.9915 190.612 49.9032 190.579 49.8733C190.56 49.8562 190.179 49.6249 189.733 49.3592C189.017 48.933 188.915 48.8926 188.866 49.0155C188.818 49.1394 188.263 52.2024 188.263 52.3436C188.264 52.3746 187.838 52.4098 187.317 52.4219L186.371 52.4439L186.277 52.9529C186.226 53.2328 186.182 53.5588 186.18 53.6772L186.177 53.8926H187.066C187.554 53.8926 187.954 53.919 187.954 53.9513C187.953 54.1358 186.868 60.1192 186.676 60.999C186.638 61.1748 186.64 61.1752 187.644 61.1752C188.197 61.1752 188.65 61.1512 188.65 61.1217C188.65 61.0923 188.84 60.0616 189.071 58.8312C189.303 57.6009 189.582 56.0656 189.691 55.4196C189.801 54.7735 189.908 54.1657 189.929 54.0688C189.967 53.895 189.984 53.8926 191.202 53.8926C191.882 53.8926 192.438 53.9114 192.438 53.9342C192.438 54.0392 191.788 57.6388 191.474 59.28C191.281 60.2835 191.124 61.1204 191.124 61.1398C191.124 61.1593 191.917 61.1752 192.886 61.1752H194.649L194.892 60.5683C195.026 60.2345 195.158 59.8997 195.186 59.8244C195.233 59.6986 195.16 59.6874 194.293 59.6874C193.352 59.6874 193.349 59.6867 193.391 59.5112C193.465 59.2062 194.192 55.4362 194.633 53.0703C195.685 47.4347 195.693 47.3679 195.392 47.0625L195.216 46.884L191.044 46.8618L186.872 46.8397L186.874 47.0185ZM168.827 48.274C168.748 48.5279 168.418 50.6494 168.449 50.7013C168.495 50.777 169.338 50.7762 169.45 50.7003C169.497 50.6687 169.634 50.1359 169.754 49.5163C169.965 48.4229 169.968 48.3868 169.828 48.283C169.643 48.1462 168.869 48.1393 168.827 48.274ZM157.654 48.3066C157.65 48.4748 157.192 50.9305 157.151 50.9974C157.123 51.0427 156.448 51.0735 155.482 51.0735H153.86L154.379 51.837C155.19 53.0299 155.077 52.9529 156.006 52.9529C156.6 52.9529 156.805 52.9783 156.805 53.0523C156.805 53.1317 156.113 57.2023 155.533 60.5355C155.458 60.9656 155.456 61.1184 155.522 61.1443C155.571 61.1634 156.235 61.1694 156.998 61.1575L158.383 61.1361L158.562 60.1181C158.659 59.5582 158.967 57.7786 159.245 56.1635C159.523 54.5484 159.768 53.166 159.789 53.0913C159.825 52.9685 159.999 52.9537 161.645 52.9347L163.461 52.9137L160.622 50.6036C159.061 49.3331 157.754 48.2818 157.719 48.2675C157.684 48.2531 157.654 48.2707 157.654 48.3066ZM181.971 50.7798C181.906 51.0219 181.771 51.8433 181.771 51.9983C181.771 52.1627 181.801 52.1698 182.505 52.1698C183.182 52.1698 183.239 52.1818 183.239 52.3226C183.239 52.6505 182.518 56.8146 182.084 58.994C181.833 60.257 181.641 61.3047 181.658 61.3224C181.676 61.34 182.013 61.149 182.407 60.8979C183.863 59.9705 185.714 58.575 185.853 58.2996C185.946 58.1151 186.21 56.4066 186.155 56.35C186.131 56.3258 185.891 56.4943 185.622 56.7244C185.058 57.2068 184.364 57.7297 184.287 57.7297C184.258 57.7297 184.253 57.668 184.276 57.5926C184.385 57.2381 185.259 52.069 185.369 51.1322L185.422 50.6819H183.71C182.406 50.6819 181.992 50.7053 181.971 50.7798ZM99.943 50.9541C97.4049 51.4209 95.4874 53.1745 94.8463 55.6154C94.6455 56.3797 94.6569 57.6216 94.8712 58.3203C95.2955 59.7041 96.375 60.696 97.9442 61.1439C98.5484 61.3164 100.791 61.3855 101.612 61.2569C102.947 61.048 104.449 60.5051 104.513 60.2085C104.643 59.6081 104.866 58.1768 104.834 58.1451C104.813 58.124 104.594 58.2268 104.346 58.3734C103.764 58.7178 102.878 59.0845 102.195 59.2633C101.373 59.4789 99.8909 59.4672 99.1763 59.2394C98.1964 58.9271 97.6323 58.3511 97.5317 57.5604C97.5025 57.3305 97.4901 57.063 97.5042 56.9662L97.5298 56.79H101.45H105.371L105.507 56.2706C105.699 55.5439 105.751 54.5891 105.637 53.9061C105.38 52.359 104.337 51.3009 102.73 50.9559C102.08 50.8165 100.697 50.8156 99.943 50.9541ZM107.923 51.1319C107.898 51.2936 107.824 51.8664 107.758 52.4047C107.647 53.3138 107.316 55.3202 106.482 60.1315C106.399 60.6127 106.331 61.0444 106.331 61.0908C106.331 61.1482 106.799 61.1752 107.793 61.1752H109.256L109.3 60.9599C109.325 60.8414 109.572 59.4263 109.849 57.815C110.133 56.1695 110.419 54.7371 110.502 54.5469C110.849 53.751 111.913 53.0139 112.862 52.9109C113.828 52.806 114.7 53.277 114.902 54.0118C115.077 54.6509 115.037 54.98 114.255 59.3741C114.106 60.214 113.983 60.9629 113.983 61.0382C113.983 61.1639 114.104 61.1752 115.442 61.1752H116.901L117.024 60.49C117.431 58.2263 117.943 55.1806 117.999 54.6864C118.137 53.4692 117.792 52.3216 117.104 51.7077C116.371 51.0538 115.52 50.8008 114.255 50.8603C113.787 50.8823 113.195 50.958 112.939 51.0285C112.25 51.2191 111.446 51.6352 110.985 52.0396L110.577 52.3978L110.212 52.1786C109.433 51.7104 108.067 50.8934 108.019 50.8664C107.991 50.8507 107.948 50.9702 107.923 51.1319ZM125.075 50.9626C122.103 51.4276 119.905 53.1649 119.311 55.5179C119.106 56.3316 119.108 57.5356 119.315 58.2165C120.095 60.7759 123.055 61.8995 126.891 61.0929C127.986 60.8629 128.353 60.7236 128.397 60.5228C128.417 60.4294 128.505 59.9301 128.593 59.4133C128.68 58.8965 128.772 58.3684 128.798 58.2398L128.844 58.0062L128.527 58.2963C127.646 59.1027 126.087 59.5146 124.724 59.301C123.985 59.1851 123.438 58.9294 122.96 58.4763C121.487 57.0805 122.223 54.4139 124.377 53.3382C125.453 52.801 126.474 52.6746 127.53 52.948C128.261 53.1376 128.666 53.3449 129.103 53.753C129.291 53.9285 129.463 54.0537 129.485 54.0313C129.534 53.9819 129.904 51.8095 129.905 51.566C129.906 51.4207 129.823 51.3671 129.388 51.2309C128.133 50.8382 126.514 50.7375 125.075 50.9626ZM135.394 50.994C133.992 51.302 132.94 51.8483 132.065 52.7231C130.872 53.9151 130.26 55.3957 130.273 57.0623C130.295 60.0204 132.639 61.6374 136.454 61.3267C138.01 61.2 139.982 60.5903 140.072 60.2085C140.16 59.8322 140.418 58.3156 140.418 58.1723C140.418 58.0312 140.407 58.0287 140.283 58.1417C140.047 58.3562 138.777 58.9628 138.215 59.1293C137.378 59.3773 136.583 59.4767 135.852 59.4249C134.08 59.299 133.078 58.5109 133.076 57.2402L133.075 56.79H137.008H140.94L141.075 56.2614C141.149 55.9707 141.226 55.398 141.247 54.9889C141.354 52.8488 140.278 51.3835 138.286 50.9559C137.549 50.7979 136.205 50.8156 135.394 50.994ZM143.478 51.1712C143.455 51.3544 143.381 51.9447 143.313 52.483C143.201 53.3685 142.742 56.1527 142.118 59.7265C141.99 60.4587 141.886 61.0842 141.886 61.1165C141.886 61.1488 142.547 61.1752 143.354 61.1752C144.813 61.1752 144.821 61.1742 144.858 60.999C144.9 60.8033 145.13 59.4781 145.601 56.7117C145.798 55.56 145.977 54.7396 146.081 54.519C146.563 53.496 147.908 52.7632 149.022 52.9164C150.024 53.0542 150.544 53.6609 150.543 54.6927C150.543 55.2279 150.513 55.4265 149.931 58.7704C149.715 60.0103 149.539 61.0587 149.539 61.1C149.539 61.1455 150.118 61.1752 151.001 61.1752H152.464L152.506 60.9599C152.53 60.8414 152.781 59.4231 153.065 57.808C153.629 54.5926 153.695 53.8054 153.462 53.0312C153.178 52.0874 152.507 51.3891 151.57 51.0609C151.12 50.9036 150.898 50.8779 150.003 50.8794C149.131 50.8808 148.864 50.9111 148.382 51.063C147.588 51.3131 147.015 51.6204 146.549 52.045L146.154 52.4043L144.99 51.7045C144.35 51.3196 143.757 50.9672 143.673 50.9214C143.533 50.8456 143.516 50.8678 143.478 51.1712ZM168.196 52.1068C168.113 52.2437 167.641 54.6649 167.689 54.7131C167.752 54.7771 168.772 54.7609 168.812 54.6952C168.868 54.6021 169.249 52.4441 169.249 52.2176C169.249 52.0184 169.236 52.0132 168.751 52.0132C168.449 52.0132 168.231 52.0499 168.196 52.1068ZM175.028 52.6028L174.431 53.1878H175.673C176.355 53.1878 176.903 53.1614 176.888 53.1291C176.874 53.0967 176.723 52.8331 176.553 52.5432C176.254 52.0323 176.235 52.0162 175.935 52.0171C175.656 52.0179 175.568 52.0744 175.028 52.6028ZM100.147 52.6689C99.5389 52.8385 99.1935 53.049 98.7081 53.5456C98.2548 54.0093 97.7719 54.8332 97.8645 54.985C97.8881 55.0236 99.0136 55.0591 100.368 55.0639C102.505 55.0716 102.842 55.0567 102.928 54.9512C103.073 54.7753 102.988 53.9233 102.786 53.5229C102.386 52.7277 101.252 52.3608 100.147 52.6689ZM135.703 52.6734C135.144 52.831 134.699 53.098 134.267 53.5362C133.863 53.9448 133.338 54.8507 133.424 54.9907C133.451 55.0352 134.475 55.0573 135.997 55.0463L138.524 55.028L138.547 54.5807C138.58 53.9378 138.452 53.5503 138.076 53.1542C137.561 52.6119 136.607 52.4187 135.703 52.6734ZM172.882 54.4822C172.882 54.5049 173.094 54.6168 173.353 54.7307L173.825 54.9378L173.775 55.257C173.747 55.4326 173.707 55.6507 173.684 55.7417C173.646 55.8949 173.683 55.9107 174.171 55.9546C174.722 56.0041 175.96 55.9683 176.027 55.9009C176.062 55.865 176.354 54.6325 176.358 54.4995C176.359 54.4671 175.578 54.4407 174.621 54.4407C173.665 54.4407 172.882 54.4594 172.882 54.4822ZM170.472 57.9266C170.413 57.9864 170.607 59.0583 170.692 59.145C170.737 59.1902 171.843 59.2114 173.5 59.199L176.234 59.1784L176.373 58.6302C176.449 58.3287 176.512 58.038 176.513 57.9842C176.514 57.9075 175.864 57.8863 173.513 57.8863C171.862 57.8863 170.494 57.9045 170.472 57.9266Z" fill="#F6FAFB"/>
<path d="M52.1841 24.1087L47.4029 28.8899L52.1841 33.6711L56.9653 28.8899L52.1841 24.1087ZM53.0122 453.793L53.0122 452.133L51.356 452.133L51.356 453.793L53.0122 453.793ZM53.0122 448.814L53.0122 445.494L51.356 445.494L51.356 448.814L53.0122 448.814ZM53.0122 442.175L53.0122 438.855L51.356 438.855L51.356 442.175L53.0122 442.175ZM53.0122 435.535L53.0122 432.216L51.356 432.216L51.356 435.535L53.0122 435.535ZM53.0122 428.896L53.0122 425.577L51.356 425.577L51.356 428.896L53.0122 428.896ZM53.0122 422.257L53.0122 418.938L51.356 418.938L51.356 422.257L53.0122 422.257ZM53.0122 415.618L53.0122 412.299L51.356 412.299L51.356 415.618L53.0122 415.618ZM53.0122 408.979L53.0122 405.659L51.356 405.659L51.356 408.979L53.0122 408.979ZM53.0122 402.34L53.0122 399.02L51.356 399.02L51.356 402.34L53.0122 402.34ZM53.0122 395.701L53.0122 392.381L51.356 392.381L51.356 395.701L53.0122 395.701ZM53.0122 389.062L53.0122 385.742L51.356 385.742L51.356 389.062L53.0122 389.062ZM53.0122 382.423L53.0122 379.103L51.356 379.103L51.356 382.423L53.0122 382.423ZM53.0122 375.783L53.0122 372.464L51.356 372.464L51.356 375.783L53.0122 375.783ZM53.0122 369.144L53.0122 365.825L51.356 365.825L51.356 369.144L53.0122 369.144ZM53.0122 362.505L53.0122 359.186L51.356 359.186L51.356 362.505L53.0122 362.505ZM53.0122 355.866L53.0122 352.546L51.356 352.546L51.356 355.866L53.0122 355.866ZM53.0122 349.227L53.0122 345.907L51.356 345.907L51.356 349.227L53.0122 349.227ZM53.0122 342.588L53.0122 339.268L51.356 339.268L51.356 342.588L53.0122 342.588ZM53.0122 335.949L53.0122 332.629L51.356 332.629L51.356 335.949L53.0122 335.949ZM53.0122 329.31L53.0122 325.99L51.356 325.99L51.356 329.31L53.0122 329.31ZM53.0122 322.67L53.0122 319.351L51.356 319.351L51.356 322.67L53.0122 322.67ZM53.0122 316.031L53.0122 312.712L51.356 312.712L51.356 316.031L53.0122 316.031ZM53.0122 309.392L53.0122 306.073L51.356 306.073L51.356 309.392L53.0122 309.392ZM53.0122 302.753L53.0122 299.434L51.356 299.434L51.356 302.753L53.0122 302.753ZM53.0122 296.114L53.0122 292.795L51.356 292.795L51.356 296.114L53.0122 296.114ZM53.0122 289.475L53.0122 286.155L51.356 286.155L51.356 289.475L53.0122 289.475ZM53.0122 282.836L53.0122 279.516L51.356 279.516L51.356 282.836L53.0122 282.836ZM53.0122 276.197L53.0122 272.877L51.356 272.877L51.356 276.197L53.0122 276.197ZM53.0122 269.558L53.0122 266.238L51.356 266.238L51.356 269.558L53.0122 269.558ZM53.0122 262.919L53.0122 259.599L51.356 259.599L51.356 262.919L53.0122 262.919ZM53.0122 256.279L53.0122 252.96L51.356 252.96L51.356 256.279L53.0122 256.279ZM53.0122 249.64L53.0122 246.321L51.356 246.321L51.356 249.64L53.0122 249.64ZM53.0122 243.001L53.0122 239.682L51.356 239.682L51.356 243.001L53.0122 243.001ZM53.0122 236.362L53.0122 233.043L51.356 233.043L51.356 236.362L53.0122 236.362ZM53.0122 229.723L53.0122 226.404L51.356 226.404L51.356 229.723L53.0122 229.723ZM53.0122 223.084L53.0122 219.764L51.356 219.764L51.356 223.084L53.0122 223.084ZM53.0122 216.445L53.0122 213.125L51.356 213.125L51.356 216.445L53.0122 216.445ZM53.0122 209.806L53.0122 206.486L51.356 206.486L51.356 209.806L53.0122 209.806ZM53.0122 203.167L53.0122 199.847L51.356 199.847L51.356 203.167L53.0122 203.167ZM53.0122 196.528L53.0122 193.208L51.356 193.208L51.356 196.528L53.0122 196.528ZM53.0122 189.888L53.0122 186.569L51.356 186.569L51.356 189.888L53.0122 189.888ZM53.0122 183.249L53.0122 179.93L51.356 179.93L51.356 183.249L53.0122 183.249ZM53.0122 176.61L53.0122 173.291L51.356 173.291L51.356 176.61L53.0122 176.61ZM53.0122 169.971L53.0122 166.652L51.356 166.652L51.356 169.971L53.0122 169.971ZM53.0122 163.332L53.0122 160.013L51.356 160.013L51.356 163.332L53.0122 163.332ZM53.0122 156.693L53.0122 153.373L51.356 153.373L51.356 156.693L53.0122 156.693ZM53.0122 150.054L53.0122 146.734L51.356 146.734L51.356 150.054L53.0122 150.054ZM53.0122 143.415L53.0122 140.095L51.356 140.095L51.356 143.415L53.0122 143.415ZM53.0122 136.776L53.0122 133.456L51.356 133.456L51.356 136.776L53.0122 136.776ZM53.0122 130.137L53.0122 126.817L51.356 126.817L51.356 130.137L53.0122 130.137ZM53.0122 123.498L53.0122 120.178L51.356 120.178L51.356 123.498L53.0122 123.498ZM53.0122 116.858L53.0122 113.539L51.356 113.539L51.356 116.858L53.0122 116.858ZM53.0122 110.219L53.0122 106.9L51.356 106.9L51.356 110.219L53.0122 110.219ZM53.0122 103.58L53.0122 100.261L51.356 100.261L51.356 103.58L53.0122 103.58ZM53.0122 96.9411L53.0122 93.6216L51.356 93.6216L51.356 96.9411L53.0122 96.9411ZM53.0122 90.302L53.0122 86.9825L51.356 86.9825L51.356 90.302L53.0122 90.302ZM53.0122 83.6629L53.0122 80.3434L51.356 80.3434L51.356 83.6629L53.0122 83.6629ZM53.0122 77.0238L53.0122 73.7043L51.356 73.7043L51.356 77.0238L53.0122 77.0238ZM53.0122 70.3847L53.0122 67.0652L51.356 67.0652L51.356 70.3847L53.0122 70.3847ZM53.0122 63.7456L53.0122 60.4261L51.356 60.4261L51.356 63.7456L53.0122 63.7456ZM53.0122 57.1065L53.0122 53.787L51.356 53.787L51.356 57.1065L53.0122 57.1065ZM53.0122 50.4674L53.0122 47.1479L51.356 47.1479L51.356 50.4674L53.0122 50.4674ZM53.0122 43.8283L53.0122 40.5088L51.356 40.5088L51.356 43.8283L53.0122 43.8283ZM53.0122 37.1892L53.0122 33.8697L51.356 33.8697L51.356 37.1892L53.0122 37.1892ZM53.0122 30.5501L53.0122 28.8899L51.356 28.8899L51.356 30.5501L53.0122 30.5501Z" fill="white" fill-opacity="0.5"/>
<path d="M7.72655 538.572H3.83455L3.19055 540.434H1.13255L4.64655 530.648H6.92856L10.4426 540.434H8.37056L7.72655 538.572ZM7.19455 537.004L5.78055 532.916L4.36655 537.004H7.19455ZM16.054 532.566C16.978 532.566 17.7247 532.86 18.294 533.448C18.8634 534.026 19.148 534.838 19.148 535.884V540.434H17.188V536.15C17.188 535.534 17.034 535.062 16.726 534.736C16.418 534.4 15.998 534.232 15.466 534.232C14.9247 534.232 14.4954 534.4 14.178 534.736C13.87 535.062 13.716 535.534 13.716 536.15V540.434H11.756V532.678H13.716V533.644C13.9774 533.308 14.3087 533.046 14.71 532.86C15.1207 532.664 15.5687 532.566 16.054 532.566ZM23.2939 534.288V538.04C23.2939 538.301 23.3546 538.492 23.4759 538.614C23.6066 538.726 23.8212 538.782 24.1199 538.782H25.0299V540.434H23.7979C22.1459 540.434 21.3199 539.631 21.3199 538.026V534.288H20.3959V532.678H21.3199V530.76H23.2939V532.678H25.0299V534.288H23.2939ZM27.4336 531.754C27.0883 531.754 26.799 531.646 26.5656 531.432C26.3416 531.208 26.2296 530.932 26.2296 530.606C26.2296 530.279 26.3416 530.008 26.5656 529.794C26.799 529.57 27.0883 529.458 27.4336 529.458C27.779 529.458 28.0636 529.57 28.2876 529.794C28.521 530.008 28.6376 530.279 28.6376 530.606C28.6376 530.932 28.521 531.208 28.2876 531.432C28.0636 531.646 27.779 531.754 27.4336 531.754ZM28.3996 532.678V540.434H26.4396V532.678H28.3996ZM34.6201 540.434L33.0241 538.026L31.6101 540.434H29.5101L32.0441 536.542L29.4821 532.678H31.6941L33.2761 535.072L34.7041 532.678H36.8041L34.2561 536.542L36.8321 540.434H34.6201ZM42.2266 531.754C41.8813 531.754 41.5919 531.646 41.3586 531.432C41.1346 531.208 41.0226 530.932 41.0226 530.606C41.0226 530.279 41.1346 530.008 41.3586 529.794C41.5919 529.57 41.8813 529.458 42.2266 529.458C42.5719 529.458 42.8566 529.57 43.0806 529.794C43.3139 530.008 43.4306 530.279 43.4306 530.606C43.4306 530.932 43.3139 531.208 43.0806 531.432C42.8566 531.646 42.5719 531.754 42.2266 531.754ZM43.1926 532.678V540.434H41.2326V532.678H43.1926ZM49.4271 532.566C50.3511 532.566 51.0978 532.86 51.6671 533.448C52.2364 534.026 52.5211 534.838 52.5211 535.884V540.434H50.5611V536.15C50.5611 535.534 50.4071 535.062 50.0991 534.736C49.7911 534.4 49.3711 534.232 48.8391 534.232C48.2978 534.232 47.8684 534.4 47.5511 534.736C47.2431 535.062 47.0891 535.534 47.0891 536.15V540.434H45.1291V532.678H47.0891V533.644C47.3504 533.308 47.6818 533.046 48.0831 532.86C48.4938 532.664 48.9418 532.566 49.4271 532.566ZM63.2649 535.422C63.8156 535.524 64.2682 535.8 64.6229 536.248C64.9775 536.696 65.1549 537.209 65.1549 537.788C65.1549 538.31 65.0242 538.772 64.7629 539.174C64.5109 539.566 64.1422 539.874 63.6569 540.098C63.1715 540.322 62.5975 540.434 61.9349 540.434H57.7209V530.662H61.7529C62.4155 530.662 62.9849 530.769 63.4609 530.984C63.9462 531.198 64.3102 531.497 64.5529 531.88C64.8049 532.262 64.9309 532.696 64.9309 533.182C64.9309 533.751 64.7769 534.227 64.4689 534.61C64.1702 534.992 63.7689 535.263 63.2649 535.422ZM59.6809 534.694H61.4729C61.9395 534.694 62.2989 534.591 62.5509 534.386C62.8029 534.171 62.9289 533.868 62.9289 533.476C62.9289 533.084 62.8029 532.78 62.5509 532.566C62.2989 532.351 61.9395 532.244 61.4729 532.244H59.6809V534.694ZM61.6549 538.838C62.1309 538.838 62.4995 538.726 62.7609 538.502C63.0315 538.278 63.1669 537.96 63.1669 537.55C63.1669 537.13 63.0269 536.803 62.7469 536.57C62.4669 536.327 62.0889 536.206 61.6129 536.206H59.6809V538.838H61.6549ZM73.927 536.388C73.927 536.668 73.9083 536.92 73.871 537.144H68.201C68.2476 537.704 68.4436 538.142 68.789 538.46C69.1343 538.777 69.559 538.936 70.063 538.936C70.791 538.936 71.309 538.623 71.617 537.998H73.731C73.507 538.744 73.0776 539.36 72.443 539.846C71.8083 540.322 71.029 540.56 70.105 540.56C69.3583 540.56 68.6863 540.396 68.089 540.07C67.501 539.734 67.039 539.262 66.703 538.656C66.3763 538.049 66.213 537.349 66.213 536.556C66.213 535.753 66.3763 535.048 66.703 534.442C67.0296 533.835 67.487 533.368 68.075 533.042C68.663 532.715 69.3396 532.552 70.105 532.552C70.8423 532.552 71.5003 532.71 72.079 533.028C72.667 533.345 73.1196 533.798 73.437 534.386C73.7636 534.964 73.927 535.632 73.927 536.388ZM71.897 535.828C71.8876 535.324 71.7056 534.922 71.351 534.624C70.9963 534.316 70.5623 534.162 70.049 534.162C69.5636 534.162 69.153 534.311 68.817 534.61C68.4903 534.899 68.2896 535.305 68.215 535.828H71.897ZM76.3516 531.754C76.0063 531.754 75.7169 531.646 75.4836 531.432C75.2596 531.208 75.1476 530.932 75.1476 530.606C75.1476 530.279 75.2596 530.008 75.4836 529.794C75.7169 529.57 76.0063 529.458 76.3516 529.458C76.6969 529.458 76.9816 529.57 77.2056 529.794C77.4389 530.008 77.5556 530.279 77.5556 530.606C77.5556 530.932 77.4389 531.208 77.2056 531.432C76.9816 531.646 76.6969 531.754 76.3516 531.754ZM77.3176 532.678V540.434H75.3576V532.678H77.3176ZM80.2481 531.754C79.8934 531.754 79.5994 531.646 79.3661 531.432C79.1421 531.208 79.0301 530.932 79.0301 530.606C79.0301 530.279 79.1421 530.008 79.3661 529.794C79.5994 529.57 79.8934 529.458 80.2481 529.458C80.5934 529.458 80.8781 529.57 81.1021 529.794C81.3261 530.008 81.4381 530.279 81.4381 530.606C81.4381 530.932 81.3261 531.208 81.1021 531.432C80.8781 531.646 80.5934 531.754 80.2481 531.754ZM81.2141 541.708C81.2141 542.566 80.9994 543.182 80.5701 543.556C80.1501 543.938 79.5434 544.13 78.7501 544.13H77.8821V542.464H78.4421C78.7408 542.464 78.9508 542.403 79.0721 542.282C79.1934 542.17 79.2541 541.983 79.2541 541.722V532.678H81.2141V541.708ZM84.1446 531.754C83.7992 531.754 83.5099 531.646 83.2766 531.432C83.0526 531.208 82.9406 530.932 82.9406 530.606C82.9406 530.279 83.0526 530.008 83.2766 529.794C83.5099 529.57 83.7992 529.458 84.1446 529.458C84.4899 529.458 84.7746 529.57 84.9986 529.794C85.2319 530.008 85.3486 530.279 85.3486 530.606C85.3486 530.932 85.2319 531.208 84.9986 531.432C84.7746 531.646 84.4899 531.754 84.1446 531.754ZM85.1106 532.678V540.434H83.1506V532.678H85.1106ZM91.3451 532.566C92.2691 532.566 93.0157 532.86 93.5851 533.448C94.1544 534.026 94.4391 534.838 94.4391 535.884V540.434H92.4791V536.15C92.4791 535.534 92.3251 535.062 92.0171 534.736C91.7091 534.4 91.2891 534.232 90.7571 534.232C90.2157 534.232 89.7864 534.4 89.4691 534.736C89.1611 535.062 89.0071 535.534 89.0071 536.15V540.434H87.0471V532.678H89.0071V533.644C89.2684 533.308 89.5997 533.046 90.0011 532.86C90.4117 532.664 90.8597 532.566 91.3451 532.566ZM99.3409 532.552C99.9196 532.552 100.428 532.668 100.867 532.902C101.306 533.126 101.651 533.42 101.903 533.784V532.678H103.877V540.49C103.877 541.208 103.732 541.848 103.443 542.408C103.154 542.977 102.72 543.425 102.141 543.752C101.562 544.088 100.862 544.256 100.041 544.256C98.9396 544.256 98.0342 543.999 97.3249 543.486C96.6249 542.972 96.2282 542.272 96.1349 541.386H98.0809C98.1836 541.74 98.4029 542.02 98.7389 542.226C99.0842 542.44 99.4996 542.548 99.9849 542.548C100.554 542.548 101.016 542.375 101.371 542.03C101.726 541.694 101.903 541.18 101.903 540.49V539.286C101.651 539.65 101.301 539.953 100.853 540.196C100.414 540.438 99.9102 540.56 99.3409 540.56C98.6876 540.56 98.0902 540.392 97.5489 540.056C97.0076 539.72 96.5782 539.248 96.2609 538.642C95.9529 538.026 95.7989 537.321 95.7989 536.528C95.7989 535.744 95.9529 535.048 96.2609 534.442C96.5782 533.835 97.0029 533.368 97.5349 533.042C98.0762 532.715 98.6782 532.552 99.3409 532.552ZM101.903 536.556C101.903 536.08 101.81 535.674 101.623 535.338C101.436 534.992 101.184 534.731 100.867 534.554C100.55 534.367 100.209 534.274 99.8449 534.274C99.4809 534.274 99.1449 534.362 98.8369 534.54C98.5289 534.717 98.2769 534.978 98.0809 535.324C97.8942 535.66 97.8009 536.061 97.8009 536.528C97.8009 536.994 97.8942 537.405 98.0809 537.76C98.2769 538.105 98.5289 538.371 98.8369 538.558C99.1542 538.744 99.4902 538.838 99.8449 538.838C100.209 538.838 100.55 538.749 100.867 538.572C101.184 538.385 101.436 538.124 101.623 537.788C101.81 537.442 101.903 537.032 101.903 536.556Z" fill="#F0F0F0"/>
<defs>
<filter id="filter0_b_3020_2085" x="23.8451" y="451.129" width="56.8738" height="61.7566" filterUnits="userSpaceOnUse" color-interpolation-filters="sRGB">
<feFlood flood-opacity="0" result="BackgroundImageFix"/>
<feGaussianBlur in="BackgroundImageFix" stdDeviation="1.36641"/>
<feComposite in2="SourceAlpha" operator="in" result="effect1_backgroundBlur_3020_2085"/>
<feBlend mode="normal" in="SourceGraphic" in2="effect1_backgroundBlur_3020_2085" result="shape"/>
</filter>
<filter id="filter1_b_3020_2085" x="42.7164" y="-18.8812" width="190.247" height="116.848" filterUnits="userSpaceOnUse" color-interpolation-filters="sRGB">
<feFlood flood-opacity="0" result="BackgroundImageFix"/>
<feGaussianBlur in="BackgroundImageFix" stdDeviation="9.44062"/>
<feComposite in2="SourceAlpha" operator="in" result="effect1_backgroundBlur_3020_2085"/>
<feBlend mode="normal" in="SourceGraphic" in2="effect1_backgroundBlur_3020_2085" result="shape"/>
</filter>
<linearGradient id="paint0_linear_3020_2085" x1="137.274" y1="0" x2="137.274" y2="379.281" gradientUnits="userSpaceOnUse">
<stop stop-color="#F0F0F0" stop-opacity="0.4"/>
<stop offset="1" stop-color="white" stop-opacity="0.2"/>
</linearGradient>
</defs>
</svg>
