<svg width="251" height="636" viewBox="0 0 251 636" fill="none" xmlns="http://www.w3.org/2000/svg">
<g filter="url(#filter0_b_2020_624)">
<path d="M177 4.7998C177 2.59067 175.209 0.799805 173 0.799805L4 0.799805C1.79086 0.799805 0 2.59067 0 4.7998V142.8C0 145.009 1.79086 146.8 4 146.8H173C175.209 146.8 177 145.009 177 142.8V46.8281C177 45.8439 177.363 44.8943 178.019 44.1609L183.114 38.467C184.472 36.9484 184.472 34.6512 183.114 33.1326L178.019 27.4387C177.363 26.7053 177 25.7557 177 24.7715V4.7998Z" fill="#3E3E3E" fill-opacity="0.3"/>
<path d="M176.5 4.7998C176.5 2.86681 174.933 1.2998 173 1.2998H4C2.067 1.2998 0.5 2.86681 0.5 4.7998V142.8C0.5 144.733 2.067 146.3 4 146.3H173C174.933 146.3 176.5 144.733 176.5 142.8V46.8281C176.5 45.7209 176.908 44.6526 177.646 43.8275L182.741 38.1336C183.93 36.8048 183.93 34.7948 182.741 33.466L177.646 27.7721C176.908 26.947 176.5 25.8787 176.5 24.7715V4.7998Z" stroke="url(#paint0_linear_2020_624)"/>
</g>
<path d="M29.1234 40.0693C27.7641 40.0693 26.5844 39.8584 25.5844 39.4365C24.5844 39.0146 23.8031 38.4014 23.2406 37.5967C22.6781 36.7842 22.3734 35.7998 22.3266 34.6436H25.4438C25.4906 35.2529 25.6781 35.7607 26.0063 36.167C26.3344 36.5654 26.7641 36.8662 27.2953 37.0693C27.8344 37.2725 28.432 37.374 29.0883 37.374C29.7758 37.374 30.3813 37.2686 30.9047 37.0576C31.4281 36.8467 31.8383 36.5537 32.1352 36.1787C32.432 35.8037 32.5805 35.3662 32.5805 34.8662C32.5805 34.4131 32.4477 34.042 32.182 33.7529C31.9164 33.4561 31.5492 33.2061 31.0805 33.0029C30.6117 32.7998 30.0609 32.6201 29.4281 32.4639L27.4477 31.9482C26.0102 31.5811 24.8773 31.0225 24.0492 30.2725C23.2211 29.5146 22.807 28.5068 22.807 27.249C22.807 26.2178 23.0844 25.3193 23.6391 24.5537C24.1938 23.7803 24.9516 23.1787 25.9125 22.749C26.8813 22.3193 27.975 22.1045 29.1938 22.1045C30.4359 22.1045 31.5258 22.3193 32.4633 22.749C33.4008 23.1787 34.1352 23.7725 34.6664 24.5303C35.1977 25.2881 35.475 26.1592 35.4984 27.1436H32.4398C32.3617 26.3936 32.0297 25.8154 31.4438 25.4092C30.8656 24.9951 30.1039 24.7881 29.1586 24.7881C28.5023 24.7881 27.9359 24.8857 27.4594 25.0811C26.9906 25.2764 26.6313 25.5459 26.3813 25.8896C26.1313 26.2334 26.0063 26.624 26.0063 27.0615C26.0063 27.5459 26.1508 27.9443 26.4398 28.2568C26.7367 28.5615 27.1117 28.8076 27.5648 28.9951C28.0258 29.1826 28.4945 29.3389 28.9711 29.4639L30.6 29.874C31.2563 30.0303 31.8891 30.2412 32.4984 30.5068C33.1078 30.7646 33.6547 31.0928 34.1391 31.4912C34.6313 31.8818 35.018 32.3584 35.2992 32.9209C35.5883 33.4834 35.7328 34.1436 35.7328 34.9014C35.7328 35.917 35.4711 36.8154 34.9477 37.5967C34.4242 38.3701 33.6703 38.9756 32.6859 39.4131C31.7016 39.8506 30.5141 40.0693 29.1234 40.0693ZM43.4494 40.0576C42.1681 40.0576 41.0588 39.7764 40.1213 39.2139C39.1838 38.6514 38.4572 37.8623 37.9416 36.8467C37.4338 35.8311 37.1798 34.6514 37.1798 33.3076C37.1798 31.9561 37.4338 30.7725 37.9416 29.7568C38.4572 28.7334 39.1838 27.9404 40.1213 27.3779C41.0588 26.8154 42.1681 26.5342 43.4494 26.5342C44.7306 26.5342 45.84 26.8154 46.7775 27.3779C47.715 27.9404 48.4416 28.7334 48.9572 29.7568C49.4728 30.7725 49.7306 31.9561 49.7306 33.3076C49.7306 34.6514 49.4728 35.8311 48.9572 36.8467C48.4416 37.8623 47.715 38.6514 46.7775 39.2139C45.84 39.7764 44.7306 40.0576 43.4494 40.0576ZM43.4494 37.5732C44.1603 37.5732 44.7463 37.3857 45.2072 37.0107C45.6681 36.6279 46.0119 36.1123 46.2384 35.4639C46.4728 34.8154 46.59 34.0967 46.59 33.3076C46.59 32.5029 46.4728 31.7764 46.2384 31.1279C46.0119 30.4795 45.6681 29.9678 45.2072 29.5928C44.7463 29.21 44.1603 29.0186 43.4494 29.0186C42.7541 29.0186 42.172 29.21 41.7033 29.5928C41.2345 29.9678 40.883 30.4795 40.6486 31.1279C40.422 31.7764 40.3088 32.5029 40.3088 33.3076C40.3088 34.0967 40.422 34.8154 40.6486 35.4639C40.883 36.1123 41.2345 36.6279 41.7033 37.0107C42.172 37.3857 42.7541 37.5732 43.4494 37.5732ZM60.0136 34.3037V26.6982H63.0956V39.7998H60.1073V37.4678H59.9667C59.6698 38.2021 59.1855 38.8037 58.5136 39.2725C57.8417 39.7412 57.0136 39.9717 56.0292 39.9639C55.1698 39.9639 54.412 39.7764 53.7558 39.4014C53.1073 39.0186 52.5956 38.46 52.2206 37.7256C51.8534 36.9834 51.6698 36.0889 51.6698 35.042V26.6982H54.7519V34.5732C54.7519 35.3936 54.9784 36.0498 55.4316 36.542C55.8925 37.0342 56.4941 37.2764 57.2363 37.2686C57.6894 37.2686 58.1269 37.1592 58.5488 36.9404C58.9784 36.7217 59.33 36.3936 59.6034 35.9561C59.8769 35.5186 60.0136 34.9678 60.0136 34.3037ZM72.1481 26.6982V29.0889H64.6364V26.6982H72.1481ZM66.4763 23.5811H69.5583V35.8623C69.5583 36.3779 69.6716 36.7607 69.8981 37.0107C70.1247 37.2529 70.4841 37.374 70.9763 37.374C71.1091 37.374 71.2575 37.3623 71.4216 37.3389C71.5856 37.3154 71.7341 37.2881 71.8669 37.2568L72.3942 39.6709C72.0661 39.7725 71.7341 39.8467 71.3981 39.8936C71.0622 39.9482 70.7263 39.9756 70.3903 39.9756C69.1716 39.9756 68.2145 39.6553 67.5192 39.0146C66.8239 38.3662 66.4763 37.4834 66.4763 36.3662V23.5811ZM77.4506 32.1357V39.7998H74.3686V22.3389H77.3803V28.9365H77.5444C77.8491 28.1943 78.3217 27.6084 78.9623 27.1787C79.603 26.749 80.4272 26.5342 81.435 26.5342C82.3413 26.5342 83.1303 26.7256 83.8022 27.1084C84.4819 27.4912 85.0092 28.0498 85.3842 28.7842C85.7592 29.5186 85.9467 30.4131 85.9467 31.4678V39.7998H82.853V31.9482C82.853 31.0576 82.6264 30.3701 82.1733 29.8857C81.7202 29.3936 81.0873 29.1475 80.2748 29.1475C79.728 29.1475 79.2397 29.2646 78.81 29.499C78.3881 29.7334 78.0561 30.0732 77.8139 30.5186C77.5717 30.9561 77.4506 31.4951 77.4506 32.1357ZM93.8916 39.7998V22.3389H97.0556V30.3662H97.2666L104.087 22.3389H107.942L101.192 30.1787L108.001 39.7998H104.192L98.9892 32.3232L97.0556 34.6084V39.7998H93.8916ZM114.1 40.0576C112.819 40.0576 111.71 39.7764 110.772 39.2139C109.835 38.6514 109.108 37.8623 108.593 36.8467C108.085 35.8311 107.831 34.6514 107.831 33.3076C107.831 31.9561 108.085 30.7725 108.593 29.7568C109.108 28.7334 109.835 27.9404 110.772 27.3779C111.71 26.8154 112.819 26.5342 114.1 26.5342C115.382 26.5342 116.491 26.8154 117.428 27.3779C118.366 27.9404 119.093 28.7334 119.608 29.7568C120.124 30.7725 120.382 31.9561 120.382 33.3076C120.382 34.6514 120.124 35.8311 119.608 36.8467C119.093 37.8623 118.366 38.6514 117.428 39.2139C116.491 39.7764 115.382 40.0576 114.1 40.0576ZM114.1 37.5732C114.811 37.5732 115.397 37.3857 115.858 37.0107C116.319 36.6279 116.663 36.1123 116.889 35.4639C117.124 34.8154 117.241 34.0967 117.241 33.3076C117.241 32.5029 117.124 31.7764 116.889 31.1279C116.663 30.4795 116.319 29.9678 115.858 29.5928C115.397 29.21 114.811 29.0186 114.1 29.0186C113.405 29.0186 112.823 29.21 112.354 29.5928C111.885 29.9678 111.534 30.4795 111.3 31.1279C111.073 31.7764 110.96 32.5029 110.96 33.3076C110.96 34.0967 111.073 34.8154 111.3 35.4639C111.534 36.1123 111.885 36.6279 112.354 37.0107C112.823 37.3857 113.405 37.5732 114.1 37.5732ZM122.321 39.7998V26.6982H125.309V28.9014H125.45C125.684 28.1357 126.094 27.5498 126.68 27.1436C127.266 26.7295 127.934 26.5225 128.684 26.5225C128.848 26.5225 129.036 26.5303 129.247 26.5459C129.465 26.5615 129.645 26.5811 129.786 26.6045V29.4404C129.653 29.3936 129.446 29.3545 129.165 29.3232C128.883 29.292 128.614 29.2764 128.356 29.2764C127.786 29.2764 127.278 29.3975 126.833 29.6396C126.387 29.8818 126.036 30.2139 125.778 30.6357C125.528 31.0576 125.403 31.5498 125.403 32.1123V39.7998H122.321ZM136.448 40.0576C135.135 40.0576 134.002 39.7842 133.049 39.2373C132.096 38.6826 131.362 37.9014 130.846 36.8936C130.338 35.8857 130.084 34.6982 130.084 33.3311C130.084 31.9795 130.338 30.7959 130.846 29.7803C131.354 28.7568 132.069 27.96 132.99 27.3896C133.912 26.8193 134.998 26.5342 136.248 26.5342C137.053 26.5342 137.815 26.6631 138.533 26.9209C139.26 27.1787 139.901 27.5771 140.455 28.1162C141.018 28.6553 141.459 29.3428 141.78 30.1787C142.1 31.0068 142.26 31.9951 142.26 33.1436V34.1045H131.526V32.0303H140.725L139.283 32.6396C139.283 31.8975 139.17 31.2529 138.944 30.7061C138.717 30.1514 138.381 29.7178 137.936 29.4053C137.49 29.0928 136.936 28.9365 136.272 28.9365C135.608 28.9365 135.041 29.0928 134.573 29.4053C134.104 29.7178 133.748 30.1396 133.506 30.6709C133.264 31.1943 133.143 31.7803 133.143 32.4287V33.8701C133.143 34.667 133.28 35.3506 133.553 35.9209C133.834 36.4834 134.225 36.9131 134.725 37.21C135.233 37.5068 135.823 37.6553 136.494 37.6553C136.932 37.6553 137.33 37.5928 137.69 37.4678C138.057 37.3428 138.369 37.1553 138.627 36.9053C138.893 36.6475 139.096 36.3311 139.237 35.9561L142.119 36.2959C141.932 37.0537 141.584 37.7178 141.076 38.2881C140.576 38.8506 139.932 39.2881 139.143 39.6006C138.362 39.9053 137.463 40.0576 136.448 40.0576ZM147.949 40.0693C147.113 40.0693 146.363 39.9209 145.699 39.624C145.035 39.3193 144.512 38.874 144.129 38.2881C143.746 37.7021 143.555 36.9795 143.555 36.1201C143.555 35.3857 143.691 34.7764 143.965 34.292C144.238 33.8076 144.609 33.4209 145.078 33.1318C145.555 32.8428 146.09 32.624 146.684 32.4756C147.277 32.3193 147.891 32.21 148.523 32.1475C149.297 32.0615 149.922 31.9873 150.398 31.9248C150.875 31.8623 151.219 31.7607 151.43 31.6201C151.648 31.4795 151.758 31.2607 151.758 30.9639V30.9053C151.758 30.2725 151.57 29.7803 151.195 29.4287C150.82 29.0771 150.273 28.9014 149.555 28.9014C148.797 28.9014 148.195 29.0654 147.75 29.3936C147.313 29.7217 147.016 30.1084 146.859 30.5537L143.988 30.1436C144.215 29.3467 144.59 28.6826 145.113 28.1514C145.637 27.6123 146.273 27.21 147.023 26.9443C147.781 26.6709 148.617 26.5342 149.531 26.5342C150.156 26.5342 150.781 26.6084 151.406 26.7568C152.031 26.8975 152.605 27.1396 153.129 27.4834C153.652 27.8271 154.07 28.2881 154.383 28.8662C154.695 29.4443 154.852 30.167 154.852 31.0342V39.7998H151.887V37.9951H151.793C151.605 38.3545 151.34 38.6943 150.996 39.0146C150.66 39.3271 150.238 39.5811 149.73 39.7764C149.23 39.9717 148.637 40.0693 147.949 40.0693ZM148.734 37.7959C149.359 37.7959 149.898 37.6748 150.352 37.4326C150.805 37.1826 151.156 36.8545 151.406 36.4482C151.656 36.0342 151.781 35.585 151.781 35.1006V33.5654C151.68 33.6436 151.516 33.7178 151.289 33.7881C151.063 33.8506 150.805 33.9092 150.516 33.9639C150.227 34.0186 149.941 34.0654 149.66 34.1045C149.387 34.1436 149.148 34.1748 148.945 34.1982C148.484 34.2607 148.07 34.3662 147.703 34.5146C147.344 34.6553 147.059 34.8506 146.848 35.1006C146.637 35.3506 146.531 35.6748 146.531 36.0732C146.531 36.6436 146.738 37.0732 147.152 37.3623C147.566 37.6514 148.094 37.7959 148.734 37.7959Z" fill="#12FFF1"/>
<path d="M128.205 59.9842C130.078 60.4224 131.563 61.4326 132.66 63.0148C133.101 63.6968 133.428 64.4302 133.642 65.2149L133.71 65.5243L133.882 68.1575V70.7839L133.867 72.1356C133.866 72.1906 133.893 72.2181 133.947 72.2181L136.467 72.2263H137.927C137.946 72.2263 137.963 72.2337 137.976 72.2469C137.989 72.26 137.996 72.2779 137.996 72.2965L138 73.8778L137.996 76.5812V78.3811C137.996 78.3901 137.994 78.399 137.991 78.4072C137.987 78.4155 137.982 78.423 137.975 78.4293C137.969 78.4355 137.961 78.4405 137.953 78.4438C137.944 78.4471 137.935 78.4487 137.926 78.4485L136.694 78.421L133.972 78.4581C133.916 78.4581 133.882 78.4852 133.869 78.5393C133.825 78.7134 133.833 78.8899 133.893 79.0687L133.887 82.1405C133.832 82.9802 133.834 83.8199 133.891 84.6596L133.858 86.8377L133.893 90.2066L133.886 93.1396C133.831 93.9949 133.833 94.8447 133.893 95.689L133.858 97.8382L133.887 101.12L133.89 103.201C133.89 103.253 133.916 103.279 133.969 103.279L136.66 103.299L137.884 103.316C137.944 103.316 137.975 103.347 137.977 103.407L137.997 103.89L138 106.811L137.96 109.452L136.66 109.497L133.946 109.539C133.893 109.54 133.867 109.567 133.867 109.62L133.893 112.157L133.824 115.302C133.368 118.68 131.521 120.834 128.285 121.762C127.422 121.894 126.563 121.954 125.706 121.942H120.196L117.508 121.946L114.822 121.942H109.345L108.925 121.929C108.869 121.927 108.841 121.899 108.841 121.843L108.835 120.668L108.826 117.708L108.833 115.836C108.834 115.78 108.862 115.747 108.917 115.736C109.033 115.713 109.153 115.715 109.277 115.743C114.822 115.726 120.367 115.72 125.912 115.724C126.669 115.724 127.362 115.802 127.604 115.031C127.829 114.318 127.693 113.046 127.686 112.276V103.957L127.69 101.155L127.686 98.457V92.9568L127.69 90.1558L127.686 87.4909V81.9907L127.69 79.158L127.686 76.4904V68.2057C127.809 66.2627 127.466 65.9561 125.638 66.0111L123.053 66.0069L120.196 66.0111L117.576 66.0069L114.719 66.0111H109.243L106.623 66.0069L103.766 66.0111H98.2894L95.6702 66.0069L92.8128 66.0111L90.1936 66.0069L87.3362 66.0111H81.8597L79.2405 66.0069L76.3831 66.0111H70.9065L68.2873 66.0069L65.4299 66.0111L62.8108 66.0069L59.9534 66.0111H51.7727C49.7779 65.9712 49.2165 65.8969 49.3138 68.1713L49.3096 70.9104L49.3138 73.6715L49.3083 76.3777L49.3138 79.2749L49.3096 81.8738V84.7958L49.3138 87.4565V90.2754L49.3096 92.9073L49.3138 95.7413V103.82L49.311 106.795L49.3138 109.457V112.173C49.2973 112.977 49.3028 113.782 49.3302 114.586C49.3494 115.147 49.5766 115.674 50.164 115.714C50.9042 115.764 52.3418 115.774 54.4768 115.743L67.9629 115.754L67.9916 115.79C68.0126 115.813 68.0231 115.841 68.0231 115.874L68.0368 117.708V120.549L68.0258 121.927L65.4299 121.942L62.7409 121.946L59.9876 121.942H54.511L51.681 121.933C50.8312 121.965 49.9764 121.927 49.1166 121.819C48.192 121.634 47.2888 121.284 46.4071 120.769L45.6116 120.143C44.0928 118.761 43.2694 117.032 43.1417 114.958L43.1129 112.213L43.0937 109.551C43.0938 109.54 43.0895 109.529 43.0819 109.521C43.0743 109.513 43.0638 109.508 43.0527 109.507C42.296 109.469 41.5402 109.478 40.7854 109.532L39.0055 109.486L39.0096 103.541C39.0105 103.385 39.0885 103.306 39.2437 103.305L40.7511 103.299L42.9842 103.3C43.0234 103.3 43.061 103.284 43.0888 103.256C43.1165 103.229 43.1321 103.191 43.1321 103.151L43.1239 101.231L43.143 98.4818L43.1129 95.7468L43.1417 92.4067L43.1184 90.241L43.1444 87.4703L43.1074 84.7752L43.1417 81.9769L43.1458 78.5516C43.1458 78.5003 43.1202 78.4746 43.0691 78.4746L39.1301 78.4402C39.0968 78.4399 39.0649 78.4264 39.0414 78.4028C39.0178 78.3792 39.0045 78.3472 39.0041 78.3137L39 76.4904V73.9809L39.0041 72.3199C39.0041 72.2951 39.0139 72.2713 39.0314 72.2537C39.0488 72.2362 39.0725 72.2263 39.0972 72.2263L40.7854 72.2222L42.9746 72.2236C43.0988 72.2236 43.1581 72.1617 43.1526 72.038L43.1088 71.0603L43.1129 68.2456C43.1175 67.3252 43.1745 66.4085 43.284 65.4954C43.933 62.6614 46.2263 60.394 49.1029 59.9154C49.4575 59.8756 49.808 59.8261 50.1654 59.8261L57.4889 59.8123H73.9529L76.4077 59.8151L79.0871 59.8123H101.301L103.724 59.8137L106.778 59.8123H117.765L120.22 59.8151L122.9 59.8123H125.364C126.318 59.772 127.265 59.8293 128.205 59.9842Z" fill="#E5E5E5"/>
<path d="M57.2573 72.1047H59.7886L62.77 72.1061L65.2274 72.1393C66.5127 72.4142 67.3678 73.177 67.7929 74.4278C67.9069 74.7636 67.9361 75.4088 67.8805 76.3635C67.8394 77.2703 67.8463 78.2047 67.901 79.1668L67.8914 82.0918C67.8367 82.9514 67.8399 83.7982 67.901 84.6321L67.8901 86.5692L67.8682 90.2607C68.0816 93.1511 67.3332 95.0467 64.167 95.0439C62.6847 95.043 61.2024 95.043 59.7202 95.0439C59.7024 95.0439 59.6853 95.0512 59.6728 95.0642C59.6602 95.0772 59.6531 95.0948 59.6531 95.1131V101.359L59.6572 103.83L59.6463 108.085L59.6121 109.526C59.6102 109.573 59.5861 109.597 59.5396 109.598L57.2518 109.641L54.5303 109.604C54.3935 109.605 53.4344 109.734 53.4891 109.503L53.4549 106.839L53.4521 104.017L53.4549 101.305V95.7703L53.4576 92.9463L53.4549 90.2358V84.7013L53.4576 81.8801L53.4549 79.1668C53.506 78.2139 53.5064 77.273 53.4563 76.3441C53.4467 75.2345 53.4303 74.5496 53.8804 73.6419L54.6658 72.7426C55.4676 72.2269 56.3314 72.0143 57.2573 72.1047ZM59.6572 85.739L59.6545 88.6349C59.6543 88.6537 59.6578 88.6722 59.6647 88.6896C59.6716 88.7069 59.6818 88.7228 59.6948 88.7361C59.7078 88.7495 59.7232 88.7601 59.7402 88.7675C59.7573 88.7748 59.7755 88.7787 59.794 88.7788L61.5947 88.7941C61.6357 88.795 61.6563 88.7747 61.6563 88.7332L61.6987 84.4591L61.7055 78.4736C61.7055 78.4464 61.6948 78.4204 61.6759 78.4012C61.6569 78.382 61.6311 78.3712 61.6043 78.3712H59.7858C59.7506 78.3712 59.7169 78.3852 59.692 78.4101C59.6671 78.435 59.6531 78.4688 59.6531 78.504L59.6572 85.739ZM70.747 72.1102L73.7791 72.1047C74.5781 72.16 75.3156 72.0701 76.1475 72.178L76.1229 73.588L76.1092 76.4797L76.1106 78.5095V89.5786L76.1079 93.1068V95.8243L76.1106 98.5722V101.305L76.1065 103.311C76.1065 103.329 76.1136 103.346 76.1261 103.359C76.1387 103.372 76.1558 103.379 76.1735 103.379L79.0811 103.375C79.446 103.409 79.8072 103.394 80.1648 103.33C80.2149 103.322 80.24 103.292 80.24 103.241L80.2386 101.339V76.5102L80.24 73.6198L80.2428 72.2029C80.2428 72.178 80.2526 72.1541 80.27 72.1364C80.2875 72.1188 80.3111 72.1088 80.3358 72.1088L81.7834 72.1047H84.6568L86.3452 72.1088C86.3572 72.1087 86.3691 72.1113 86.38 72.1162C86.391 72.1212 86.4008 72.1285 86.4089 72.1376C86.4169 72.1468 86.4229 72.1576 86.4266 72.1693C86.4302 72.1811 86.4314 72.1935 86.43 72.2057C86.3808 72.6503 86.3844 73.1028 86.441 73.563V76.6416C86.3853 77.4487 86.3853 78.2559 86.441 79.063V104.21L86.4068 106.666C86.228 108.085 85.5429 109.002 84.3516 109.416C83.9886 109.542 83.4554 109.606 82.7521 109.608C80.6158 109.612 78.48 109.625 76.3446 109.647H73.6422C71.6446 109.738 70.42 108.824 69.9685 106.906L69.9425 104.072L69.9452 101.327L69.9425 98.503V95.7703L69.9452 92.992L69.9425 90.2012V81.934L69.9452 79.1847L69.9425 76.3995L69.9466 73.5921L69.9849 72.2444C69.9867 72.1891 70.0145 72.1596 70.0683 72.1559L70.747 72.1102ZM95.5003 72.1047L98.1123 72.1116L101.042 72.1047C101.949 72.1379 102.6 72.0839 103.518 72.5696C103.988 72.9035 104.373 73.3384 104.673 73.8744C105.032 74.7557 104.965 75.5776 104.981 76.5033V84.8396L104.977 86.5775C104.977 86.5982 104.969 86.618 104.954 86.6328C104.94 86.6475 104.921 86.656 104.9 86.6564L103.023 86.6799C102.977 86.6808 102.955 86.7039 102.955 86.7491L102.929 90.8238L102.933 92.8398C102.933 92.8961 102.96 92.9247 103.016 92.9256L103.636 92.9366L104.974 93.0141L104.981 95.9087V101.409L104.975 104.163L104.947 106.839C104.642 108.48 103.69 109.395 102.09 109.585C101.844 109.614 101.486 109.584 101.179 109.647H95.5345C94.6652 109.662 93.7986 109.623 92.9348 109.532L92.5982 109.434C90.7319 108.66 90.5485 107.328 90.5444 105.331C90.5362 101.237 90.4473 97.1083 90.5075 93.0169C90.5084 92.9625 90.4819 92.9353 90.4281 92.9353L88.4879 92.9283L88.4838 90.3188L88.4824 87.4685L88.4865 86.7615C88.4865 86.7419 88.4941 86.7231 88.5077 86.7092C88.5213 86.6952 88.5397 86.6872 88.5591 86.6868L90.2667 86.6674C90.3369 86.6859 90.4085 86.6849 90.4815 86.6647C90.528 86.6517 90.5508 86.6208 90.5499 86.5719C90.5225 82.077 90.5303 78.248 90.5731 75.085C90.5777 74.7567 90.6561 74.4108 90.8085 74.0473C91.1907 73.1664 91.8329 72.5668 92.735 72.2486C93.6499 72.1038 94.5717 72.0558 95.5003 72.1047ZM96.7344 82.0641L96.7331 84.6791V86.6314C96.7329 86.6419 96.7348 86.6523 96.7387 86.662C96.7426 86.6718 96.7484 86.6806 96.7558 86.6881C96.7632 86.6956 96.772 86.7015 96.7817 86.7056C96.7915 86.7096 96.8019 86.7117 96.8124 86.7117L98.6226 86.6979C98.6588 86.6975 98.6934 86.6828 98.719 86.6569C98.7446 86.6311 98.7591 86.5961 98.7595 86.5595L98.7636 78.5164C98.7636 78.4779 98.7484 78.441 98.7215 78.4137C98.6945 78.3865 98.658 78.3712 98.6199 78.3712H96.8056C96.7591 78.3712 96.7358 78.3947 96.7358 78.4417L96.7344 82.0641ZM96.7372 95.7357V101.409L96.7139 103.238C96.713 103.337 96.7618 103.387 96.8603 103.386L98.6596 103.366C98.7262 103.366 98.7595 103.331 98.7595 103.264L98.7814 93.0653C98.7814 93.0128 98.7549 92.9837 98.702 92.9782L98.3394 92.9394L96.8001 92.9353C96.7823 92.9353 96.7653 92.9424 96.7527 92.9551C96.7401 92.9678 96.7331 92.9851 96.7331 93.0031L96.7372 95.7357ZM112.125 72.1047H120.095C121.104 72.0567 121.979 72.3971 122.722 73.1258L123.063 73.5713C123.547 74.5136 123.522 75.258 123.521 76.4341L123.517 79.1377L123.521 81.9686C123.567 82.1476 123.552 82.2993 123.479 82.4238C123.452 82.4699 123.412 82.493 123.359 82.493L121.908 82.5165L120.133 82.5055L117.398 82.5221L117.319 81.934L117.321 79.2581V78.4832C117.321 78.4632 117.317 78.4434 117.31 78.4249C117.302 78.4064 117.291 78.3896 117.277 78.3756C117.263 78.3616 117.246 78.3505 117.227 78.3431C117.209 78.3357 117.189 78.3321 117.169 78.3324L114.656 78.3767L113.297 78.367C113.246 78.367 113.215 78.3919 113.204 78.4417C113.159 78.6576 113.165 78.8564 113.222 79.0381L113.225 82.0032V87.5377L113.226 90.1971L113.225 93.0031V101.305L113.229 103.253C113.229 103.31 113.258 103.34 113.315 103.342L114.724 103.375L117.186 103.368C117.226 103.367 117.263 103.351 117.291 103.323C117.319 103.294 117.335 103.256 117.335 103.216L117.323 101.328L117.319 98.5376L117.313 95.8658L117.354 93.039C117.355 92.992 117.332 92.9685 117.286 92.9685H115.341C115.321 92.9685 115.302 92.9605 115.288 92.9462C115.274 92.9319 115.266 92.9126 115.266 92.8924L115.318 86.8044C115.318 86.7352 115.352 86.7011 115.421 86.702L120.11 86.7062C122.201 86.6453 123.561 88.0829 123.515 90.1791L123.521 93.0377V104.038L123.483 106.862C123.165 108.682 122.073 109.6 120.207 109.615L117.518 109.633L115.716 109.636C114.473 109.582 113.23 109.586 111.988 109.647C111.027 109.661 109.805 109.731 108.953 109.359C107.673 108.8 107.033 107.704 107.032 106.07C107.027 96.2131 107.026 86.3556 107.027 76.4977C107.027 75.3807 107.099 74.6086 107.243 74.1815C108.016 71.8792 110.108 72.1365 112.125 72.1047Z" fill="#E5E5E5"/>
<path d="M84.546 111.906C85.8204 111.879 85.7338 112.47 85.7791 113.622C85.8158 114.583 85.8002 116.697 85.7324 119.963C85.709 121.092 85.7915 122.49 85.742 123.759C85.8025 124.592 85.5125 125.334 84.645 125.509C83.5673 125.383 82.4762 125.4 81.3719 125.559C80.9292 125.356 80.5746 125.067 80.3079 124.69C80.2795 124.65 80.2662 124.606 80.268 124.558C80.2859 124.144 80.2227 123.713 80.2213 123.341C80.2158 120.175 80.1919 117.01 80.1498 113.845C80.1402 113.147 80.1127 111.849 81.1176 111.856C82.2604 111.865 83.4032 111.882 84.546 111.906ZM82.2833 117.679C82.2741 117.83 82.2989 118.197 82.3575 118.782C82.3832 119.044 82.3699 119.479 82.3177 120.088C82.2297 121.108 82.3548 122.144 82.2861 123.188C82.2851 123.202 82.287 123.215 82.2915 123.228C82.296 123.241 82.3032 123.253 82.3124 123.264C82.3217 123.274 82.3329 123.282 82.3454 123.287C82.3579 123.293 82.3714 123.296 82.385 123.296L83.4793 123.311C83.4922 123.312 83.5051 123.309 83.517 123.304C83.5289 123.299 83.5396 123.291 83.5484 123.282C83.5572 123.272 83.564 123.261 83.5682 123.249C83.5724 123.236 83.5739 123.223 83.5728 123.21C83.5274 122.648 83.4367 122.088 83.46 121.532C83.515 120.209 83.5686 118.896 83.5783 117.575L83.6099 113.89C83.6099 113.878 83.6074 113.866 83.6026 113.854C83.5977 113.843 83.5907 113.832 83.5818 113.824C83.5729 113.815 83.5624 113.808 83.5509 113.804C83.5394 113.8 83.5272 113.798 83.515 113.799L82.3479 113.861C82.3021 113.864 82.2792 113.889 82.2792 113.935L82.2833 117.679ZM97.7224 123.302C97.7142 123.346 97.7174 123.391 97.7317 123.433C97.746 123.475 97.7708 123.513 97.8039 123.542C97.837 123.572 97.8771 123.593 97.9204 123.602C97.9637 123.612 98.0086 123.61 98.051 123.596C98.4359 123.476 98.8313 123.458 99.2373 123.542C99.2786 123.551 99.312 123.572 99.3377 123.606C99.5741 123.923 99.4243 124.906 99.3734 125.301C99.3661 125.358 99.3336 125.387 99.2758 125.388L95.879 125.444C95.837 125.444 95.7966 125.428 95.7663 125.399C95.736 125.369 95.7182 125.329 95.7168 125.287C95.6164 121.866 95.714 118.456 95.6728 115.039C95.6686 114.66 95.7979 114.221 95.7401 113.742C95.6696 113.153 95.6677 112.562 95.7346 111.968C95.742 111.906 95.7763 111.874 95.8377 111.872L97.6894 111.829C97.73 111.828 97.7694 111.843 97.7991 111.871C97.8287 111.899 97.8461 111.938 97.8475 111.979C97.8998 113.744 97.9236 115.505 97.919 117.262C97.919 117.457 97.8489 117.654 97.8489 117.834C97.8452 119.287 97.8448 120.74 97.8475 122.193C97.8489 122.58 97.7884 122.943 97.7224 123.302ZM73.5485 111.871C73.8427 111.851 74.1177 111.904 74.3734 112.029C74.9507 114.217 75.4676 116.408 75.924 118.601C75.9515 118.731 75.9872 118.733 76.0312 118.609C76.078 118.478 76.1252 118.287 76.1728 118.037C76.5532 116.048 76.9486 114.035 77.3592 111.999C77.3684 111.955 77.3931 111.915 77.4287 111.888C77.4644 111.861 77.5085 111.848 77.553 111.851L79.2769 111.989C79.3169 111.992 79.3545 112.01 79.3824 112.04C79.4103 112.069 79.4265 112.108 79.4281 112.149C79.4982 113.913 79.4281 116.057 79.435 117.447C79.4487 120.044 79.5779 122.711 79.3868 125.301C79.3842 125.339 79.3675 125.375 79.3401 125.401C79.3128 125.428 79.2765 125.443 79.2384 125.445L77.6891 125.515C77.6243 125.518 77.5609 125.495 77.5127 125.451C77.4646 125.407 77.4356 125.345 77.432 125.28C77.3386 123.608 77.476 121.867 77.4485 120.229C77.4476 120.201 77.4365 120.174 77.4174 120.153C77.3983 120.133 77.3726 120.12 77.3449 120.118C77.3172 120.115 77.2896 120.123 77.2672 120.139C77.2447 120.156 77.2291 120.18 77.2231 120.208C76.9142 121.814 76.5156 123.397 76.0271 124.959C76.0221 124.976 76.0115 124.991 75.997 125.002C75.9826 125.012 75.965 125.018 75.9472 125.017C75.9293 125.017 75.9121 125.01 75.8982 124.999C75.8843 124.988 75.8745 124.972 75.8704 124.954L74.5191 119.735C74.5115 119.707 74.4939 119.682 74.4697 119.665C74.4454 119.649 74.416 119.642 74.387 119.645C74.3579 119.649 74.3312 119.663 74.3118 119.686C74.2924 119.708 74.2815 119.736 74.2812 119.766L74.2428 125.205C74.2418 125.247 74.2263 125.284 74.196 125.314C74.0906 125.42 73.955 125.471 73.7891 125.469L72.5753 125.423C72.5023 125.42 72.4333 125.389 72.3825 125.336C72.3316 125.284 72.3027 125.214 72.3017 125.141L72.2715 123.17V120.494C72.3549 119.521 72.3663 118.548 72.3058 117.575L72.2412 114.701L72.2673 112.032C72.6871 111.919 73.1141 111.865 73.5485 111.871ZM87.1923 111.871H90.0448C90.8091 111.878 91.8044 111.782 91.7893 112.755C91.7545 115.008 91.7425 116.485 91.7535 117.185C91.7563 117.383 91.6514 117.63 91.4387 117.927C91.4167 117.959 91.3892 117.985 91.3563 118.005L91.2765 118.053C91.2142 118.09 91.206 118.137 91.2518 118.194L91.8278 118.9C91.8635 118.943 91.8814 118.993 91.8814 119.05C91.886 119.8 91.8759 121.485 91.8511 124.107C91.8415 125.175 91.2009 125.369 90.251 125.374C89.2924 125.382 88.3461 125.4 87.4123 125.43L86.8693 125.414C86.8189 125.413 86.7932 125.386 86.7923 125.335L86.7552 123.462C86.7561 122.221 86.7437 120.965 86.7181 119.695C86.7098 119.3 86.45 119.131 86.4362 118.783C86.4184 118.333 86.3538 117.567 86.6933 117.222C86.7272 117.188 86.7442 117.146 86.7442 117.097L86.7043 111.972C86.7034 111.917 86.7304 111.888 86.7854 111.886L87.1923 111.871ZM89.7754 113.774C89.7754 113.75 89.7661 113.727 89.7496 113.71C89.7331 113.693 89.7107 113.683 89.6874 113.683H88.8873C88.8287 113.683 88.7966 113.713 88.7911 113.771C88.6811 114.906 88.6724 116.041 88.765 117.175C88.7676 117.206 88.7807 117.235 88.802 117.257C88.8233 117.28 88.8515 117.294 88.8818 117.297L89.6695 117.385C89.7364 117.392 89.7699 117.362 89.7699 117.293L89.7754 113.774ZM89.7644 119.448C89.7643 119.429 89.7604 119.409 89.7528 119.39C89.7452 119.372 89.7341 119.355 89.7201 119.341C89.7062 119.327 89.6896 119.316 89.6714 119.309C89.6532 119.301 89.6337 119.297 89.614 119.297L88.8469 119.3C88.8272 119.3 88.8077 119.304 88.7896 119.312C88.7714 119.32 88.755 119.331 88.7411 119.345C88.7272 119.359 88.7163 119.376 88.7088 119.394C88.7013 119.413 88.6975 119.432 88.6976 119.452L88.7113 123.447C88.7114 123.467 88.7154 123.486 88.723 123.505C88.7306 123.523 88.7417 123.54 88.7556 123.554C88.7696 123.568 88.7861 123.579 88.8044 123.586C88.8226 123.594 88.8421 123.598 88.8617 123.598L89.6288 123.595C89.6485 123.595 89.668 123.591 89.6861 123.583C89.7043 123.576 89.7207 123.564 89.7346 123.55C89.7485 123.536 89.7594 123.519 89.7669 123.501C89.7744 123.483 89.7782 123.463 89.7781 123.443L89.7644 119.448ZM101.008 111.871L103.693 111.95C104.068 111.913 104.423 111.967 104.759 112.113L104.746 113.724C104.746 113.778 104.719 113.808 104.665 113.811L103.826 113.863L102.252 113.858C102.2 113.858 102.167 113.884 102.153 113.935C102.119 114.066 102.114 114.202 102.137 114.344L102.014 117.239C102.012 117.296 102.04 117.325 102.097 117.326L103.829 117.335L104.419 117.357C104.467 117.359 104.502 117.382 104.524 117.426C104.56 117.498 104.567 117.584 104.544 117.686L104.509 119.214C104.507 119.269 104.479 119.297 104.425 119.299L103.104 119.353C102.76 119.289 102.44 119.324 102.145 119.459C102.08 120.716 102.27 121.681 102.137 123.15L102.146 123.419C102.148 123.468 102.173 123.494 102.222 123.499C102.735 123.547 103.227 123.535 103.697 123.462C103.982 123.587 104.227 123.64 104.432 123.621C104.46 123.619 104.487 123.622 104.513 123.631C104.539 123.64 104.563 123.655 104.583 123.674C104.604 123.693 104.62 123.716 104.631 123.742C104.642 123.767 104.647 123.795 104.647 123.823L104.626 125.369C104.626 125.434 104.594 125.467 104.529 125.466L100.26 125.456C100.103 125.455 100.025 125.376 100.024 125.217C100.017 123.761 100.028 122.257 100.057 120.703C100.079 119.592 99.4009 118.618 99.8175 117.436C100.017 116.87 100.061 115.932 100.024 115.333C99.9558 114.251 99.9499 113.149 100.006 112.028C100.324 111.899 100.658 111.847 101.008 111.871ZM94.6211 112.189C94.6308 112.917 94.716 113.7 94.7229 114.367C94.754 117.066 94.7641 119.766 94.7531 122.465C94.749 123.282 94.6816 124.344 94.694 125.291C94.6944 125.305 94.6889 125.319 94.6789 125.33C94.6689 125.341 94.6551 125.347 94.6404 125.348L92.8932 125.434C92.7713 125.439 92.6842 125.387 92.632 125.277C92.566 125.137 92.5344 124.967 92.5371 124.768C92.5811 121.399 92.5962 117.264 92.5825 112.363C92.5816 112.181 92.6278 112.041 92.7213 111.943C93.3051 111.928 93.8563 111.914 94.3751 111.9C94.5538 111.894 94.6358 111.991 94.6211 112.189Z" fill="#E5E5E5"/>
<path d="M196 30.0263L190.226 35.7998L196 41.5733L201.773 35.7998L196 30.0263ZM197 496.8L197 494.813L195 494.813L195 496.8L197 496.8ZM197 490.839L197 486.864L195 486.864L195 490.839L197 490.839ZM197 482.89L197 478.916L195 478.916L195 482.89L197 482.89ZM197 474.942L197 470.968L195 470.968L195 474.942L197 474.942ZM197 466.994L197 463.02L195 463.02L195 466.994L197 466.994ZM197 459.045L197 455.071L195 455.071L195 459.045L197 459.045ZM197 451.097L197 447.123L195 447.123L195 451.097L197 451.097ZM197 443.149L197 439.175L195 439.175L195 443.149L197 443.149ZM197 435.201L197 431.227L195 431.227L195 435.201L197 435.201ZM197 427.252L197 423.278L195 423.278L195 427.252L197 427.252ZM197 419.304L197 415.33L195 415.33L195 419.304L197 419.304ZM197 411.356L197 407.382L195 407.382L195 411.356L197 411.356ZM197 403.408L197 399.433L195 399.433L195 403.408L197 403.408ZM197 395.459L197 391.485L195 391.485L195 395.459L197 395.459ZM197 387.511L197 383.537L195 383.537L195 387.511L197 387.511ZM197 379.563L197 375.589L195 375.589L195 379.563L197 379.563ZM197 371.614L197 367.64L195 367.64L195 371.614L197 371.614ZM197 363.666L197 359.692L195 359.692L195 363.666L197 363.666ZM197 355.718L197 351.744L195 351.744L195 355.718L197 355.718ZM197 347.77L197 343.796L195 343.796L195 347.77L197 347.77ZM197 339.821L197 335.847L195 335.847L195 339.821L197 339.821ZM197 331.873L197 327.899L195 327.899L195 331.873L197 331.873ZM197 323.925L197 319.951L195 319.951L195 323.925L197 323.925ZM197 315.977L197 312.002L195 312.002L195 315.977L197 315.977ZM197 308.028L197 304.054L195 304.054L195 308.028L197 308.028ZM197 300.08L197 296.106L195 296.106L195 300.08L197 300.08ZM197 292.132L197 288.158L195 288.158L195 292.132L197 292.132ZM197 284.183L197 280.209L195 280.209L195 284.183L197 284.183ZM197 276.235L197 272.261L195 272.261L195 276.235L197 276.235ZM197 268.287L197 264.313L195 264.313L195 268.287L197 268.287ZM197 260.339L197 256.365L195 256.365L195 260.339L197 260.339ZM197 252.39L197 248.416L195 248.416L195 252.39L197 252.39ZM197 244.442L197 240.468L195 240.468L195 244.442L197 244.442ZM197 236.494L197 232.52L195 232.52L195 236.494L197 236.494ZM197 228.546L197 224.571L195 224.571L195 228.546L197 228.546ZM197 220.597L197 216.623L195 216.623L195 220.597L197 220.597ZM197 212.649L197 208.675L195 208.675L195 212.649L197 212.649ZM197 204.701L197 200.726L195 200.726L195 204.701L197 204.701ZM197 196.752L197 192.778L195 192.778L195 196.752L197 196.752ZM197 188.804L197 184.83L195 184.83L195 188.804L197 188.804ZM197 180.856L197 176.882L195 176.882L195 180.856L197 180.856ZM197 172.907L197 168.933L195 168.933L195 172.907L197 172.907ZM197 164.959L197 160.985L195 160.985L195 164.959L197 164.959ZM197 157.011L197 153.037L195 153.037L195 157.011L197 157.011ZM197 149.063L197 145.088L195 145.088L195 149.063L197 149.063ZM197 141.114L197 137.14L195 137.14L195 141.114L197 141.114ZM197 133.166L197 129.192L195 129.192L195 133.166L197 133.166ZM197 125.218L197 121.243L195 121.243L195 125.218L197 125.218ZM197 117.269L197 113.295L195 113.295L195 117.269L197 117.269ZM197 109.321L197 105.347L195 105.347L195 109.321L197 109.321ZM197 101.373L197 97.3985L195 97.3985L195 101.373L197 101.373ZM197 93.4244L197 89.4503L195 89.4503L195 93.4244L197 93.4244ZM197 85.4761L197 81.5019L195 81.5019L195 85.4761L197 85.4761ZM197 77.5278L197 73.5536L195 73.5536L195 77.5278L197 77.5278ZM197 69.5795L197 65.6053L195 65.6053L195 69.5795L197 69.5795ZM197 61.6312L197 57.657L195 57.657L195 61.6312L197 61.6312ZM197 53.6829L197 49.7087L195 49.7087L195 53.6829L197 53.6829ZM197 45.7346L197 41.7604L195 41.7604L195 45.7346L197 45.7346ZM197 37.7863L197 35.7998L195 35.7998L195 37.7863L197 37.7863Z" fill="white" fill-opacity="0.5"/>
<g filter="url(#filter1_b_2020_624)">
<path d="M199.87 565.882C198.103 569.817 192.515 569.817 190.748 565.882L164.715 507.908C163.229 504.599 165.649 500.86 169.276 500.86L221.342 500.86C224.969 500.86 227.389 504.599 225.903 507.908L199.87 565.882Z" fill="white" fill-opacity="0.23"/>
</g>
<path d="M182.737 508.285L182.619 508.372C182.619 508.372 189.731 516.582 189.731 521.006C189.731 526.472 179.53 528.958 179.53 528.958L179.573 529.099C180.73 528.818 188.023 527.079 190.977 528.442C196.237 530.865 194.137 541.671 194.137 541.671L194.285 541.698C194.517 540.348 196.431 530.758 199.778 529.387C202.029 528.465 205.053 531.763 205.053 531.763L205.158 531.665C204.463 530.936 201.86 528.093 202.314 526.079C202.949 523.262 212.943 520.307 212.943 520.307L212.901 520.169C212.157 520.398 203.46 523.058 201.393 521.482C199.292 519.88 201.528 513.799 201.528 513.799L201.386 513.751C201.142 514.413 199.349 518.999 196.236 518.999C192.205 518.999 185.197 511.168 182.737 508.285Z" fill="white"/>
<ellipse cx="195.309" cy="579.973" rx="6.49699" ry="2.78443" fill="white"/>
<path d="M164.069 609.8V596.704H166.047V602.399H172.568V596.704H174.546V609.8H172.568V604.096H166.047V609.8H164.069ZM180.742 610.002C179.781 610.002 178.949 609.794 178.246 609.378C177.543 608.962 177.001 608.376 176.62 607.62C176.245 606.858 176.058 605.971 176.058 604.957C176.058 603.949 176.242 603.062 176.611 602.294C176.986 601.526 177.511 600.929 178.185 600.501C178.864 600.067 179.661 599.851 180.575 599.851C181.132 599.851 181.671 599.941 182.192 600.123C182.714 600.305 183.183 600.592 183.599 600.984C184.015 601.377 184.343 601.887 184.583 602.514C184.829 603.141 184.952 603.896 184.952 604.781V605.467H177.139V604.034H183.968L183.08 604.509C183.08 603.905 182.986 603.372 182.799 602.909C182.611 602.446 182.33 602.086 181.955 601.828C181.586 601.564 181.126 601.433 180.575 601.433C180.024 601.433 179.553 601.564 179.16 601.828C178.773 602.092 178.478 602.44 178.272 602.874C178.067 603.308 177.965 603.782 177.965 604.298V605.273C177.965 605.947 178.082 606.519 178.316 606.987C178.551 607.456 178.876 607.813 179.292 608.06C179.714 608.306 180.203 608.429 180.76 608.429C181.123 608.429 181.451 608.376 181.744 608.271C182.043 608.165 182.301 608.007 182.518 607.796C182.734 607.585 182.898 607.324 183.01 607.014L184.82 607.356C184.674 607.884 184.416 608.347 184.047 608.745C183.678 609.144 183.212 609.454 182.649 609.677C182.093 609.894 181.457 610.002 180.742 610.002ZM188.187 596.704V609.8H186.288V596.704H188.187ZM190.015 609.8V599.974H191.913V609.8H190.015ZM190.973 598.462C190.639 598.462 190.354 598.351 190.12 598.128C189.886 597.905 189.769 597.639 189.769 597.328C189.769 597.012 189.886 596.742 190.12 596.52C190.354 596.297 190.639 596.186 190.973 596.186C191.301 596.186 191.582 596.297 191.816 596.52C192.057 596.742 192.177 597.012 192.177 597.328C192.177 597.639 192.057 597.905 191.816 598.128C191.582 598.351 191.301 598.462 190.973 598.462ZM201.089 602.382L199.357 602.681C199.246 602.353 199.038 602.051 198.733 601.775C198.435 601.5 197.986 601.362 197.389 601.362C196.85 601.362 196.398 601.485 196.035 601.731C195.678 601.972 195.499 602.279 195.499 602.654C195.499 602.982 195.619 603.249 195.859 603.454C196.105 603.659 196.495 603.823 197.028 603.946L198.602 604.298C199.498 604.503 200.169 604.825 200.614 605.265C201.06 605.704 201.282 606.267 201.282 606.952C201.282 607.544 201.112 608.071 200.772 608.534C200.433 608.991 199.961 609.352 199.357 609.615C198.754 609.873 198.057 610.002 197.266 610.002C196.164 610.002 195.268 609.765 194.576 609.29C193.885 608.815 193.46 608.147 193.302 607.286L195.139 607.005C195.256 607.485 195.493 607.849 195.851 608.095C196.214 608.341 196.683 608.464 197.257 608.464C197.878 608.464 198.376 608.332 198.751 608.068C199.132 607.805 199.322 607.485 199.322 607.11C199.322 606.489 198.859 606.07 197.934 605.854L196.272 605.484C195.353 605.273 194.673 604.942 194.233 604.491C193.8 604.034 193.583 603.46 193.583 602.769C193.583 602.188 193.744 601.679 194.066 601.239C194.395 600.8 194.843 600.46 195.411 600.22C195.985 599.974 196.639 599.851 197.371 599.851C198.438 599.851 199.272 600.082 199.876 600.545C200.485 601.008 200.89 601.62 201.089 602.382ZM205.466 610.011C204.845 610.011 204.282 609.896 203.778 609.668C203.274 609.434 202.876 609.094 202.583 608.648C202.29 608.203 202.144 607.661 202.144 607.022C202.144 606.466 202.249 606.012 202.46 605.66C202.677 605.303 202.967 605.019 203.33 604.808C203.693 604.597 204.098 604.438 204.543 604.333C204.988 604.228 205.445 604.146 205.914 604.087C206.506 604.022 206.983 603.967 207.347 603.92C207.71 603.873 207.974 603.8 208.138 603.7C208.308 603.595 208.393 603.428 208.393 603.199V603.155C208.393 602.599 208.234 602.168 207.918 601.863C207.607 601.559 207.145 601.406 206.529 601.406C205.891 601.406 205.384 601.547 205.009 601.828C204.64 602.104 204.385 602.417 204.244 602.769L202.442 602.355C202.659 601.758 202.973 601.277 203.383 600.914C203.799 600.545 204.273 600.275 204.807 600.105C205.346 599.936 205.908 599.851 206.494 599.851C206.887 599.851 207.303 599.897 207.742 599.991C208.182 600.079 208.595 600.246 208.981 600.492C209.374 600.732 209.693 601.078 209.939 601.529C210.186 601.98 210.309 602.563 210.309 603.278V609.8H208.437V608.455H208.366C208.249 608.695 208.064 608.936 207.812 609.176C207.566 609.416 207.25 609.615 206.863 609.773C206.477 609.932 206.011 610.011 205.466 610.011ZM205.879 608.481C206.412 608.481 206.866 608.379 207.241 608.174C207.616 607.963 207.903 607.688 208.103 607.348C208.302 607.008 208.401 606.647 208.401 606.267V604.992C208.331 605.057 208.199 605.118 208.006 605.177C207.812 605.235 207.593 605.285 207.347 605.326C207.101 605.367 206.86 605.405 206.626 605.44C206.392 605.47 206.195 605.493 206.037 605.511C205.668 605.563 205.331 605.646 205.026 605.757C204.722 605.862 204.476 606.021 204.288 606.231C204.106 606.437 204.016 606.709 204.016 607.049C204.016 607.523 204.191 607.881 204.543 608.121C204.895 608.361 205.34 608.481 205.879 608.481ZM216.153 609.8V599.974H218.052V609.8H216.153ZM217.111 598.462C216.777 598.462 216.493 598.351 216.259 598.128C216.024 597.905 215.907 597.639 215.907 597.328C215.907 597.012 216.024 596.742 216.259 596.52C216.493 596.297 216.777 596.186 217.111 596.186C217.439 596.186 217.721 596.297 217.955 596.52C218.195 596.742 218.315 597.012 218.315 597.328C218.315 597.639 218.195 597.905 217.955 598.128C217.721 598.351 217.439 598.462 217.111 598.462ZM221.778 603.973V609.8H219.88V599.974H221.726V601.591H221.857C222.08 601.058 222.429 600.636 222.903 600.325C223.378 600.009 223.987 599.851 224.731 599.851C225.399 599.851 225.982 599.991 226.48 600.272C226.984 600.548 227.374 600.961 227.649 601.512C227.931 602.062 228.071 602.745 228.071 603.56V609.8H226.173V603.788C226.173 603.079 225.985 602.522 225.61 602.118C225.235 601.708 224.726 601.503 224.081 601.503C223.642 601.503 223.246 601.603 222.895 601.802C222.549 601.995 222.276 602.273 222.077 602.637C221.878 603 221.778 603.445 221.778 603.973ZM172.331 620.4V618.704H182.474V620.4H178.396V631.8H176.427V620.4H172.331ZM186.508 632.002C185.588 632.002 184.782 631.791 184.091 631.369C183.405 630.947 182.872 630.355 182.491 629.594C182.116 628.832 181.929 627.947 181.929 626.939C181.929 625.92 182.116 625.029 182.491 624.268C182.872 623.5 183.405 622.905 184.091 622.483C184.782 622.062 185.588 621.851 186.508 621.851C187.434 621.851 188.239 622.062 188.925 622.483C189.61 622.905 190.144 623.5 190.524 624.268C190.905 625.029 191.096 625.92 191.096 626.939C191.096 627.947 190.905 628.832 190.524 629.594C190.144 630.355 189.61 630.947 188.925 631.369C188.239 631.791 187.434 632.002 186.508 632.002ZM186.508 630.394C187.111 630.394 187.609 630.235 188.002 629.919C188.395 629.603 188.685 629.184 188.872 628.662C189.065 628.135 189.162 627.561 189.162 626.939C189.162 626.307 189.065 625.727 188.872 625.199C188.685 624.672 188.395 624.25 188.002 623.934C187.609 623.617 187.111 623.459 186.508 623.459C185.91 623.459 185.415 623.617 185.022 623.934C184.636 624.25 184.346 624.672 184.152 625.199C183.959 625.727 183.862 626.307 183.862 626.939C183.862 627.561 183.959 628.135 184.152 628.662C184.346 629.184 184.636 629.603 185.022 629.919C185.415 630.235 185.91 630.394 186.508 630.394ZM194.233 628.469L194.207 626.14H194.55L198.461 621.974H200.746L196.29 626.72H195.974L194.233 628.469ZM192.476 631.8V618.704H194.374V631.8H192.476ZM198.663 631.8L195.147 627.142L196.466 625.797L201.019 631.8H198.663ZM202.987 635.474C202.7 635.479 202.439 635.459 202.205 635.412C201.977 635.371 201.801 635.321 201.678 635.263L202.144 633.707L202.275 633.742C202.762 633.865 203.172 633.856 203.506 633.716C203.846 633.581 204.13 633.203 204.358 632.582L204.596 631.932L201.01 621.974H203.058L205.536 629.603H205.642L208.129 621.974H210.177L206.134 633.101C205.946 633.616 205.709 634.05 205.422 634.401C205.135 634.759 204.789 635.025 204.385 635.201C203.986 635.383 203.521 635.474 202.987 635.474ZM215.02 632.002C214.1 632.002 213.294 631.791 212.603 631.369C211.917 630.947 211.384 630.355 211.003 629.594C210.628 628.832 210.44 627.947 210.44 626.939C210.44 625.92 210.628 625.029 211.003 624.268C211.384 623.5 211.917 622.905 212.603 622.483C213.294 622.062 214.1 621.851 215.02 621.851C215.945 621.851 216.751 622.062 217.437 622.483C218.122 622.905 218.655 623.5 219.036 624.268C219.417 625.029 219.607 625.92 219.607 626.939C219.607 627.947 219.417 628.832 219.036 629.594C218.655 630.355 218.122 630.947 217.437 631.369C216.751 631.791 215.945 632.002 215.02 632.002ZM215.02 630.394C215.623 630.394 216.121 630.235 216.514 629.919C216.906 629.603 217.196 629.184 217.384 628.662C217.577 628.135 217.674 627.561 217.674 626.939C217.674 626.307 217.577 625.727 217.384 625.199C217.196 624.672 216.906 624.25 216.514 623.934C216.121 623.617 215.623 623.459 215.02 623.459C214.422 623.459 213.927 623.617 213.534 623.934C213.147 624.25 212.857 624.672 212.664 625.199C212.471 625.727 212.374 626.307 212.374 626.939C212.374 627.561 212.471 628.135 212.664 628.662C212.857 629.184 213.147 629.603 213.534 629.919C213.927 630.235 214.422 630.394 215.02 630.394Z" fill="#F0F0F0"/>
<defs>
<filter id="filter0_b_2020_624" x="-22.8" y="-22.0002" width="229.733" height="191.6" filterUnits="userSpaceOnUse" color-interpolation-filters="sRGB">
<feFlood flood-opacity="0" result="BackgroundImageFix"/>
<feGaussianBlur in="BackgroundImageFix" stdDeviation="11.4"/>
<feComposite in2="SourceAlpha" operator="in" result="effect1_backgroundBlur_2020_624"/>
<feBlend mode="normal" in="SourceGraphic" in2="effect1_backgroundBlur_2020_624" result="shape"/>
</filter>
<filter id="filter1_b_2020_624" x="160.971" y="497.559" width="68.6771" height="74.5741" filterUnits="userSpaceOnUse" color-interpolation-filters="sRGB">
<feFlood flood-opacity="0" result="BackgroundImageFix"/>
<feGaussianBlur in="BackgroundImageFix" stdDeviation="1.65"/>
<feComposite in2="SourceAlpha" operator="in" result="effect1_backgroundBlur_2020_624"/>
<feBlend mode="normal" in="SourceGraphic" in2="effect1_backgroundBlur_2020_624" result="shape"/>
</filter>
<linearGradient id="paint0_linear_2020_624" x1="92.75" y1="0.799805" x2="92.75" y2="458.8" gradientUnits="userSpaceOnUse">
<stop stop-color="#F0F0F0" stop-opacity="0.4"/>
<stop offset="1" stop-color="white" stop-opacity="0.2"/>
</linearGradient>
</defs>
</svg>
