<svg width="212" height="507" viewBox="0 0 212 507" fill="none" xmlns="http://www.w3.org/2000/svg">
<g filter="url(#filter0_b_3020_2066)">
<path d="M146.578 3.3125C146.578 1.48306 145.095 0 143.266 0L3.3125 0C1.48306 0 0 1.48306 0 3.3125V117.594C0 119.423 1.48306 120.906 3.3125 120.906H143.266C145.095 120.906 146.578 119.423 146.578 117.594V38.1172C146.578 37.3022 146.879 36.5158 147.422 35.9084L151.641 31.1931C152.766 29.9356 152.766 28.0332 151.641 26.7756L147.422 22.0604C146.879 21.453 146.578 20.6666 146.578 19.8516V3.3125Z" fill="#3E3E3E" fill-opacity="0.3"/>
<path d="M143.266 0.414062H3.3125C1.71173 0.414062 0.414062 1.71174 0.414062 3.3125V117.594C0.414062 119.195 1.71173 120.492 3.3125 120.492H143.266C144.866 120.492 146.164 119.195 146.164 117.594V38.1171C146.164 37.2003 146.502 36.3156 147.113 35.6323L151.332 30.917C152.317 29.8167 152.317 28.1521 151.332 27.0517L147.113 22.3365C146.502 21.6532 146.164 20.7685 146.164 19.8516V3.3125C146.164 1.71174 144.866 0.414062 143.266 0.414062Z" stroke="url(#paint0_linear_3020_2066)" stroke-width="0.828125"/>
</g>
<path d="M53.1386 18.2406V28.2606C53.1386 29.5006 52.7586 30.4806 51.9986 31.2006C51.2519 31.9206 50.2653 32.2806 49.0386 32.2806C47.8119 32.2806 46.8186 31.9206 46.0586 31.2006C45.3119 30.4806 44.9386 29.5006 44.9386 28.2606H47.2386C47.2519 28.874 47.4053 29.3606 47.6986 29.7206C48.0053 30.0806 48.4519 30.2606 49.0386 30.2606C49.6253 30.2606 50.0719 30.0806 50.3786 29.7206C50.6853 29.3473 50.8386 28.8606 50.8386 28.2606V18.2406H53.1386ZM56.0877 26.5806C56.0877 25.474 56.3143 24.494 56.7677 23.6406C57.2343 22.7873 57.861 22.1273 58.6477 21.6606C59.4477 21.1806 60.3277 20.9406 61.2877 20.9406C62.1543 20.9406 62.9077 21.114 63.5477 21.4606C64.201 21.794 64.721 22.214 65.1077 22.7206V21.1206H67.4077V32.1406H65.1077V30.5006C64.721 31.0206 64.1943 31.454 63.5277 31.8006C62.861 32.1473 62.101 32.3206 61.2477 32.3206C60.301 32.3206 59.4343 32.0806 58.6477 31.6006C57.861 31.1073 57.2343 30.4273 56.7677 29.5606C56.3143 28.6806 56.0877 27.6873 56.0877 26.5806ZM65.1077 26.6206C65.1077 25.8606 64.9477 25.2006 64.6277 24.6406C64.321 24.0806 63.9143 23.654 63.4077 23.3606C62.901 23.0673 62.3543 22.9206 61.7677 22.9206C61.181 22.9206 60.6343 23.0673 60.1277 23.3606C59.621 23.6406 59.2077 24.0606 58.8877 24.6206C58.581 25.1673 58.4277 25.8206 58.4277 26.5806C58.4277 27.3406 58.581 28.0073 58.8877 28.5806C59.2077 29.154 59.621 29.594 60.1277 29.9006C60.6477 30.194 61.1943 30.3406 61.7677 30.3406C62.3543 30.3406 62.901 30.194 63.4077 29.9006C63.9143 29.6073 64.321 29.1806 64.6277 28.6206C64.9477 28.0473 65.1077 27.3806 65.1077 26.6206ZM72.6823 22.7406C73.069 22.234 73.5957 21.8073 74.2623 21.4606C74.929 21.114 75.6823 20.9406 76.5223 20.9406C77.4823 20.9406 78.3557 21.1806 79.1423 21.6606C79.9423 22.1273 80.569 22.7873 81.0223 23.6406C81.4757 24.494 81.7023 25.474 81.7023 26.5806C81.7023 27.6873 81.4757 28.6806 81.0223 29.5606C80.569 30.4273 79.9423 31.1073 79.1423 31.6006C78.3557 32.0806 77.4823 32.3206 76.5223 32.3206C75.6823 32.3206 74.9357 32.154 74.2823 31.8206C73.629 31.474 73.0957 31.0473 72.6823 30.5406V37.3806H70.4023V21.1206H72.6823V22.7406ZM79.3823 26.5806C79.3823 25.8206 79.2223 25.1673 78.9023 24.6206C78.5957 24.0606 78.1823 23.6406 77.6623 23.3606C77.1557 23.0673 76.609 22.9206 76.0223 22.9206C75.449 22.9206 74.9023 23.0673 74.3823 23.3606C73.8757 23.654 73.4623 24.0806 73.1423 24.6406C72.8357 25.2006 72.6823 25.8606 72.6823 26.6206C72.6823 27.3806 72.8357 28.0473 73.1423 28.6206C73.4623 29.1806 73.8757 29.6073 74.3823 29.9006C74.9023 30.194 75.449 30.3406 76.0223 30.3406C76.609 30.3406 77.1557 30.194 77.6623 29.9006C78.1823 29.594 78.5957 29.154 78.9023 28.5806C79.2223 28.0073 79.3823 27.3406 79.3823 26.5806ZM83.197 26.5806C83.197 25.474 83.4237 24.494 83.877 23.6406C84.3437 22.7873 84.9704 22.1273 85.757 21.6606C86.557 21.1806 87.437 20.9406 88.397 20.9406C89.2637 20.9406 90.017 21.114 90.657 21.4606C91.3104 21.794 91.8304 22.214 92.217 22.7206V21.1206H94.517V32.1406H92.217V30.5006C91.8304 31.0206 91.3037 31.454 90.637 31.8006C89.9704 32.1473 89.2104 32.3206 88.357 32.3206C87.4104 32.3206 86.5437 32.0806 85.757 31.6006C84.9704 31.1073 84.3437 30.4273 83.877 29.5606C83.4237 28.6806 83.197 27.6873 83.197 26.5806ZM92.217 26.6206C92.217 25.8606 92.057 25.2006 91.737 24.6406C91.4304 24.0806 91.0237 23.654 90.517 23.3606C90.0104 23.0673 89.4637 22.9206 88.877 22.9206C88.2904 22.9206 87.7437 23.0673 87.237 23.3606C86.7304 23.6406 86.317 24.0606 85.997 24.6206C85.6904 25.1673 85.537 25.8206 85.537 26.5806C85.537 27.3406 85.6904 28.0073 85.997 28.5806C86.317 29.154 86.7304 29.594 87.237 29.9006C87.757 30.194 88.3037 30.3406 88.877 30.3406C89.4637 30.3406 90.0104 30.194 90.517 29.9006C91.0237 29.6073 91.4304 29.1806 91.737 28.6206C92.057 28.0473 92.217 27.3806 92.217 26.6206ZM103.072 20.9406C103.938 20.9406 104.712 21.1206 105.392 21.4806C106.085 21.8406 106.625 22.374 107.012 23.0806C107.398 23.7873 107.592 24.6406 107.592 25.6406V32.1406H105.332V25.9806C105.332 24.994 105.085 24.2406 104.592 23.7206C104.098 23.1873 103.425 22.9206 102.572 22.9206C101.718 22.9206 101.038 23.1873 100.532 23.7206C100.038 24.2406 99.7917 24.994 99.7917 25.9806V32.1406H97.5117V21.1206H99.7917V22.3806C100.165 21.9273 100.638 21.574 101.212 21.3206C101.798 21.0673 102.418 20.9406 103.072 20.9406Z" fill="#12FFF1"/>
<path d="M109.732 49.0121C111.283 49.3749 112.513 50.2115 113.422 51.5218C113.787 52.0866 114.058 52.6939 114.235 53.3438L114.291 53.6L114.433 55.7806V57.9556L114.421 59.0749C114.42 59.1205 114.442 59.1433 114.488 59.1433L116.574 59.1501H117.784C117.799 59.1501 117.813 59.1562 117.824 59.1671C117.834 59.178 117.84 59.1928 117.84 59.2082L117.844 60.5177L117.84 62.7564V64.247C117.84 64.2545 117.839 64.2618 117.836 64.2686C117.833 64.2755 117.829 64.2817 117.823 64.2869C117.818 64.2921 117.812 64.2962 117.805 64.2989C117.798 64.3016 117.79 64.303 117.783 64.3028L116.762 64.2801L114.508 64.3108C114.462 64.3108 114.434 64.3332 114.423 64.378C114.387 64.5222 114.393 64.6684 114.442 64.8164L114.438 67.3603C114.392 68.0557 114.394 68.7511 114.441 69.4464L114.414 71.2502L114.442 74.04L114.437 76.4689C114.391 77.1772 114.393 77.8809 114.442 78.5801L114.414 80.3599L114.438 83.0781L114.44 84.801C114.44 84.8442 114.462 84.8659 114.506 84.8659L116.734 84.8818L117.747 84.8966C117.797 84.8966 117.823 84.9217 117.824 84.9718L117.841 85.3715L117.844 87.7901L117.811 89.9776L116.734 90.0152L114.487 90.0493C114.443 90.0501 114.421 90.0725 114.421 90.1165L114.442 92.2175L114.386 94.8217C114.008 97.6199 112.479 99.4032 109.798 100.171C109.084 100.282 108.372 100.331 107.663 100.321H103.1L100.874 100.324L98.6493 100.321H94.114L93.7659 100.31C93.7198 100.309 93.6968 100.285 93.6968 100.239L93.6911 99.2662L93.6843 96.8145L93.69 95.2647C93.6907 95.2184 93.7138 95.1907 93.7591 95.1815C93.8551 95.1626 93.9545 95.1645 94.0573 95.1872C98.6493 95.1736 103.241 95.1683 107.833 95.1713C108.46 95.1713 109.034 95.2362 109.235 94.5974C109.421 94.0075 109.308 92.9542 109.303 92.3165V85.4273L109.306 83.1065L109.303 80.8724V76.3175L109.306 73.9979L109.303 71.7911V67.2362L109.306 64.8904L109.303 62.6813V55.8205C109.405 54.2115 109.12 53.9575 107.606 54.0031L105.466 53.9997L103.1 54.0031L100.931 53.9997L98.5642 54.0031H94.029L91.86 53.9997L89.4937 54.0031H84.9584L82.7894 53.9997L80.4231 54.0031L78.2541 53.9997L75.8878 54.0031H71.3525L69.1835 53.9997L66.8172 54.0031H62.282L60.113 53.9997L57.7467 54.0031L55.5777 53.9997L53.2114 54.0031H46.4368C44.7848 53.9701 44.32 53.9086 44.4005 55.792L44.3971 58.0604L44.4005 60.3469L44.3959 62.5879L44.4005 64.9872L44.3971 67.1394V69.5592L44.4005 71.7626V74.097L44.3971 76.2765L44.4005 78.6234V85.3134L44.3982 87.7776L44.4005 89.9821V92.2311C44.3868 92.8969 44.3914 93.563 44.4141 94.2296C44.4299 94.6942 44.6181 95.1303 45.1046 95.1633C45.7176 95.2051 46.9081 95.2131 48.6761 95.1872L59.8442 95.1964L59.868 95.226C59.8854 95.2457 59.8941 95.2689 59.8941 95.2954L59.9055 96.8145V99.1671L59.8964 100.308L57.7467 100.321L55.5198 100.324L53.2397 100.321H48.7044L46.3608 100.314C45.6571 100.34 44.9492 100.308 44.2372 100.219C43.4715 100.066 42.7235 99.7759 41.9934 99.3493L41.3346 98.8312C40.0768 97.6864 39.395 96.255 39.2892 94.537L39.2654 92.2641L39.2495 90.0596C39.2495 90.0503 39.246 90.0414 39.2397 90.0346C39.2334 90.0278 39.2247 90.0237 39.2155 90.0231C38.5889 89.992 37.963 89.9988 37.3379 90.0436L35.8639 90.0061L35.8673 85.0822C35.8681 84.9532 35.9327 84.8883 36.0612 84.8875L37.3095 84.8818L39.1588 84.8829C39.1913 84.8829 39.2224 84.87 39.2454 84.8469C39.2683 84.8239 39.2812 84.7926 39.2812 84.76L39.2744 83.1692L39.2903 80.8929L39.2654 78.6279L39.2892 75.862L39.2699 74.0685L39.2915 71.774L39.2608 69.5421L39.2892 67.2248L39.2926 64.3882C39.2926 64.3457 39.2714 64.3245 39.2291 64.3245L35.9671 64.296C35.9395 64.2957 35.9132 64.2846 35.8937 64.265C35.8742 64.2454 35.8631 64.2189 35.8628 64.1912L35.8594 62.6813V60.6031L35.8628 59.2275C35.8628 59.207 35.8709 59.1873 35.8854 59.1728C35.8998 59.1583 35.9194 59.1501 35.9399 59.1501L37.3379 59.1467L39.1509 59.1478C39.2537 59.1478 39.3028 59.0966 39.2983 58.9941L39.262 58.1845L39.2654 55.8535C39.2692 55.0913 39.3164 54.3322 39.4071 53.5761C39.9445 51.2292 41.8437 49.3514 44.2258 48.9551C44.5195 48.9221 44.8098 48.8811 45.1057 48.8811L51.1705 48.8697H64.8047L66.8377 48.872L69.0565 48.8697H87.4528L89.4585 48.8709L91.9881 48.8697H101.087L103.12 48.872L105.339 48.8697H107.38C108.17 48.8363 108.954 48.8838 109.732 49.0121Z" fill="#F0F0F0"/>
<path d="M50.9783 59.049H53.0745L55.5435 59.0501L57.5785 59.0776C58.6429 59.3053 59.3511 59.937 59.7031 60.9728C59.7975 61.2509 59.8217 61.7852 59.7756 62.5758C59.7416 63.3267 59.7473 64.1005 59.7926 64.8972L59.7847 67.3195C59.7394 68.0314 59.742 68.7327 59.7926 69.4232L59.7835 71.0274L59.7654 74.0844C59.9422 76.478 59.3224 78.0478 56.7004 78.0455C55.4729 78.0448 54.2454 78.0448 53.0178 78.0455C53.0031 78.0455 52.989 78.0516 52.9786 78.0623C52.9682 78.073 52.9623 78.0876 52.9623 78.1028V83.275L52.9657 85.3215L52.9567 88.8449L52.9283 90.0388C52.9268 90.0778 52.9068 90.0976 52.8683 90.0984L50.9737 90.1339L48.72 90.103C48.6067 90.1041 47.8124 90.2107 47.8577 90.0193L47.8294 87.8136L47.8271 85.4762L47.8294 83.2304V78.6471L47.8317 76.3085L47.8294 74.0638V69.4805L47.8317 67.1442L47.8294 64.8972C47.8717 64.1082 47.8721 63.329 47.8305 62.5598C47.8226 61.6408 47.809 61.0736 48.1818 60.322L48.8322 59.5772C49.4962 59.1502 50.2116 58.9741 50.9783 59.049ZM52.9657 70.3399L52.9635 72.7381C52.9633 72.7536 52.9662 72.769 52.9719 72.7833C52.9776 72.7977 52.9861 72.8108 52.9968 72.8219C53.0076 72.8329 53.0204 72.8418 53.0345 72.8478C53.0486 72.8539 53.0637 72.8571 53.079 72.8572L54.5702 72.8699C54.6042 72.8706 54.6212 72.8538 54.6212 72.8194L54.6563 69.28L54.662 64.3232C54.662 64.3007 54.6531 64.2791 54.6374 64.2632C54.6217 64.2473 54.6004 64.2384 54.5781 64.2384H53.0722C53.0431 64.2384 53.0151 64.25 52.9945 64.2706C52.9739 64.2912 52.9623 64.3192 52.9623 64.3484L52.9657 70.3399ZM62.1494 59.0536L64.6604 59.049C65.3221 59.0948 65.9328 59.0203 66.6218 59.1097L66.6014 60.2773L66.59 62.6721L66.5912 64.353V73.5195L66.5889 76.4414V78.6918L66.5912 80.9674V83.2304L66.5878 84.8918C66.5878 84.9067 66.5936 84.921 66.604 84.9315C66.6144 84.942 66.6286 84.9479 66.6433 84.9479L69.0511 84.9445C69.3533 84.9728 69.6524 84.9605 69.9485 84.9078C69.9901 84.901 70.0108 84.8761 70.0108 84.8334L70.0097 83.259V62.6973L70.0108 60.3036L70.0131 59.1303C70.0131 59.1097 70.0212 59.0898 70.0357 59.0752C70.0501 59.0606 70.0697 59.0524 70.0902 59.0524L71.289 59.049H73.6685L75.0667 59.0524C75.0766 59.0523 75.0865 59.0544 75.0956 59.0585C75.1046 59.0626 75.1128 59.0687 75.1194 59.0763C75.1261 59.0838 75.1311 59.0928 75.1341 59.1025C75.1371 59.1122 75.1381 59.1225 75.137 59.1326C75.0962 59.5008 75.0992 59.8755 75.146 60.2567V62.8061C75.0999 63.4745 75.0999 64.1429 75.146 64.8113V85.6366L75.1177 87.6704C74.9696 88.8453 74.4023 89.6042 73.4158 89.9471C73.1151 90.0518 72.6736 90.1049 72.0912 90.1064C70.3221 90.1095 68.5533 90.1202 66.7849 90.1385H64.5471C62.8928 90.2141 61.8786 89.4575 61.5047 87.8686L61.4832 85.522L61.4855 83.2487L61.4832 80.9101V78.6471L61.4855 76.3463L61.4832 74.0352V67.1889L61.4855 64.9121L61.4832 62.6056L61.4866 60.2807L61.5183 59.1647C61.5198 59.1189 61.5429 59.0944 61.5874 59.0914L62.1494 59.0536ZM82.6482 59.049L84.8113 59.0547L87.2373 59.049C87.9885 59.0765 88.5279 59.0318 89.2882 59.434C89.6772 59.7105 89.996 60.0707 90.2445 60.5145C90.5414 61.2444 90.4858 61.925 90.4994 62.6915V69.5951L90.496 71.0342C90.496 71.0514 90.4894 71.0678 90.4775 71.08C90.4657 71.0922 90.4495 71.0993 90.4326 71.0996L88.878 71.119C88.8402 71.1198 88.8213 71.1389 88.8213 71.1763L88.7998 74.5508L88.8032 76.2202C88.8032 76.2668 88.8262 76.2905 88.8723 76.2913L89.3856 76.3004L90.4938 76.3646L90.4994 78.7617V83.3163L90.4949 85.5976L90.4711 87.8136C90.2188 89.1726 89.4302 89.9303 88.1052 90.0869C87.9013 90.111 87.6055 90.0869 87.3506 90.1385H82.6766C81.9567 90.1507 81.239 90.119 80.5237 90.0434L80.2449 89.962C78.6994 89.3215 78.5476 88.2181 78.5442 86.5647C78.5374 83.1742 78.4637 79.7551 78.5136 76.3669C78.5143 76.3218 78.4924 76.2993 78.4479 76.2993L76.8411 76.2936L76.8377 74.1325L76.8366 71.7722L76.84 71.1866C76.84 71.1704 76.8463 71.1549 76.8575 71.1433C76.8688 71.1317 76.884 71.1251 76.9001 71.1248L78.3142 71.1087C78.3723 71.124 78.4316 71.1232 78.4921 71.1064C78.5306 71.0957 78.5495 71.0702 78.5487 71.0297C78.526 67.3073 78.5325 64.1364 78.568 61.5171C78.5717 61.2451 78.6367 60.9587 78.7629 60.6577C79.0794 59.9282 79.6112 59.4317 80.3583 59.1681C81.1159 59.0482 81.8792 59.0085 82.6482 59.049ZM83.6703 67.2966L83.6692 69.4622V71.0789C83.669 71.0876 83.6706 71.0962 83.6738 71.1043C83.6771 71.1123 83.6819 71.1197 83.688 71.1259C83.6941 71.132 83.7014 71.137 83.7095 71.1403C83.7175 71.1437 83.7261 71.1454 83.7349 71.1454L85.234 71.1339C85.2639 71.1336 85.2926 71.1215 85.3138 71.1C85.3349 71.0786 85.347 71.0496 85.3473 71.0194L85.3507 64.3587C85.3507 64.3268 85.3381 64.2962 85.3158 64.2736C85.2935 64.2511 85.2632 64.2384 85.2317 64.2384H83.7292C83.6907 64.2384 83.6714 64.2579 83.6714 64.2968L83.6703 67.2966ZM83.6726 78.6184V83.3163L83.6533 84.8311C83.6525 84.9136 83.693 84.9544 83.7745 84.9537L85.2646 84.9376C85.3197 84.9369 85.3473 84.9086 85.3473 84.8528L85.3654 76.407C85.3654 76.3635 85.3435 76.3394 85.2997 76.3348L84.9994 76.3027L83.7247 76.2993C83.71 76.2993 83.6958 76.3052 83.6854 76.3157C83.675 76.3263 83.6692 76.3405 83.6692 76.3554L83.6726 78.6184ZM96.4153 59.049H103.016C103.851 59.0093 104.576 59.2911 105.191 59.8946L105.473 60.2635C105.874 61.0438 105.854 61.6603 105.853 62.6342L105.849 64.8732L105.853 67.2175C105.891 67.3657 105.879 67.4914 105.818 67.5945C105.796 67.6327 105.763 67.6518 105.719 67.6518L104.517 67.6713L103.047 67.6621L100.782 67.6759L100.717 67.1889L100.719 64.9729V64.3312C100.719 64.3146 100.716 64.2982 100.709 64.2829C100.703 64.2676 100.694 64.2537 100.682 64.2421C100.67 64.2304 100.656 64.2213 100.641 64.2152C100.626 64.209 100.609 64.206 100.593 64.2063L98.5115 64.243L97.3864 64.235C97.3441 64.235 97.3184 64.2556 97.3093 64.2968C97.2716 64.4756 97.2765 64.6402 97.3241 64.7907L97.3263 67.2462V71.8294L97.3275 74.0317L97.3263 76.3554V83.2304L97.3297 84.8437C97.3297 84.891 97.3535 84.9155 97.4011 84.917L98.5682 84.9445L100.607 84.9388C100.639 84.9385 100.671 84.9251 100.694 84.9014C100.717 84.8778 100.73 84.846 100.73 84.8127L100.72 83.2498L100.717 80.9387L100.712 78.7261L100.746 76.3852C100.747 76.3463 100.728 76.3268 100.689 76.3268H99.0792C99.0627 76.3268 99.0468 76.3201 99.0352 76.3083C99.0235 76.2965 99.0169 76.2805 99.0169 76.2638L99.06 71.2222C99.06 71.1649 99.0883 71.1366 99.1449 71.1374L103.028 71.1408C104.759 71.0904 105.886 72.2809 105.848 74.0168L105.853 76.3841V85.4933L105.821 87.832C105.558 89.3399 104.654 90.0999 103.109 90.1121L100.882 90.127L99.3897 90.1293C98.3601 90.085 97.3309 90.0881 96.302 90.1385C95.5066 90.15 94.4947 90.2084 93.7888 89.9002C92.729 89.4373 92.1987 88.5294 92.198 87.1766C92.1942 79.0137 92.1927 70.8505 92.1934 62.687C92.1942 61.7619 92.2538 61.1225 92.3724 60.7689C93.0126 58.8622 94.7451 59.0753 96.4153 59.049Z" fill="#F0F0F0"/>
<path d="M73.5776 92.0087C74.6329 91.9868 74.5612 92.476 74.5988 93.4302C74.6292 94.226 74.6163 95.9763 74.5601 98.6813C74.5407 99.6159 74.609 100.774 74.5681 101.825C74.6181 102.514 74.3779 103.129 73.6596 103.274C72.7671 103.17 71.8636 103.183 70.949 103.315C70.5825 103.147 70.2888 102.908 70.0679 102.596C70.0444 102.563 70.0334 102.527 70.0349 102.487C70.0497 102.144 69.9973 101.787 69.9962 101.478C69.9916 98.857 69.9719 96.2357 69.937 93.6144C69.929 93.0366 69.9063 91.9615 70.7384 91.9672C71.6848 91.9749 72.6312 91.9887 73.5776 92.0087ZM71.7038 96.7901C71.6962 96.9144 71.7167 97.2187 71.7653 97.7029C71.7865 97.9201 71.7755 98.2807 71.7323 98.7849C71.6594 99.6298 71.763 100.487 71.7061 101.352C71.7053 101.363 71.7068 101.375 71.7106 101.385C71.7144 101.396 71.7203 101.406 71.7279 101.414C71.7356 101.423 71.7449 101.43 71.7552 101.434C71.7656 101.439 71.7767 101.441 71.7881 101.442L72.6942 101.454C72.7049 101.454 72.7156 101.452 72.7254 101.448C72.7353 101.444 72.7442 101.438 72.7515 101.43C72.7588 101.422 72.7644 101.412 72.7678 101.402C72.7713 101.392 72.7726 101.381 72.7716 101.37C72.7341 100.905 72.6589 100.441 72.6783 99.9808C72.7238 98.885 72.7682 97.7973 72.7762 96.7038L72.8024 93.6524C72.8024 93.642 72.8003 93.6317 72.7963 93.6222C72.7923 93.6127 72.7865 93.6041 72.7791 93.5969C72.7717 93.5898 72.763 93.5843 72.7535 93.5808C72.744 93.5773 72.7339 93.5758 72.7238 93.5764L71.7573 93.6282C71.7194 93.6305 71.7004 93.6508 71.7004 93.6892L71.7038 96.7901ZM84.4893 101.446C84.4825 101.482 84.4852 101.52 84.497 101.555C84.5088 101.59 84.5294 101.621 84.5568 101.645C84.5842 101.67 84.6174 101.687 84.6532 101.695C84.6891 101.703 84.7264 101.701 84.7614 101.69C85.0802 101.59 85.4077 101.575 85.7439 101.645C85.778 101.652 85.8057 101.67 85.827 101.698C86.0228 101.961 85.8987 102.774 85.8566 103.101C85.8505 103.149 85.8236 103.173 85.7757 103.174L82.9627 103.22C82.928 103.22 82.8945 103.207 82.8694 103.182C82.8443 103.158 82.8296 103.125 82.8284 103.09C82.7453 100.257 82.8261 97.4336 82.792 94.6031C82.7885 94.29 82.8956 93.9263 82.8477 93.5292C82.7893 93.0419 82.7878 92.5523 82.8432 92.0605C82.8493 92.0091 82.8777 91.9826 82.9286 91.981L84.462 91.9454C84.4956 91.9444 84.5283 91.957 84.5528 91.9803C84.5773 92.0035 84.5917 92.0357 84.5929 92.0697C84.6362 93.5307 84.6559 94.9891 84.6521 96.4448C84.6521 96.606 84.5941 96.7694 84.5941 96.9179C84.591 98.1211 84.5907 99.3243 84.5929 100.528C84.5941 100.849 84.544 101.149 84.4893 101.446ZM64.4703 91.9799C64.7139 91.9638 64.9416 92.0075 65.1534 92.1111C65.6315 93.9229 66.0596 95.7369 66.4375 97.5533C66.4603 97.6607 66.4899 97.663 66.5263 97.5602C66.565 97.4512 66.6041 97.2931 66.6436 97.0859C66.9585 95.4392 67.286 93.7725 67.626 92.0858C67.6336 92.0493 67.6541 92.0168 67.6836 91.9943C67.7131 91.9719 67.7497 91.961 67.7865 91.9638L69.2141 92.0777C69.2473 92.0803 69.2784 92.0952 69.3015 92.1196C69.3246 92.144 69.338 92.1762 69.3393 92.2101C69.3974 93.6708 69.3393 95.4469 69.345 96.5979C69.3564 98.7481 69.4634 100.957 69.3052 103.101C69.3029 103.133 69.2892 103.163 69.2665 103.185C69.2438 103.207 69.2138 103.22 69.1822 103.221L67.8992 103.279C67.8455 103.281 67.7931 103.262 67.7532 103.226C67.7133 103.189 67.6893 103.138 67.6863 103.084C67.6089 101.699 67.7228 100.258 67.7 98.9011C67.6992 98.8779 67.69 98.8557 67.6742 98.8388C67.6584 98.8219 67.6371 98.8114 67.6142 98.8093C67.5913 98.8072 67.5684 98.8136 67.5498 98.8273C67.5312 98.8411 67.5183 98.8612 67.5133 98.8839C67.2575 100.214 66.9274 101.525 66.5229 102.818C66.5187 102.833 66.51 102.845 66.498 102.854C66.486 102.863 66.4715 102.867 66.4567 102.867C66.4419 102.866 66.4276 102.861 66.4161 102.852C66.4046 102.842 66.3965 102.829 66.3931 102.815L65.274 98.4925C65.2678 98.4689 65.2532 98.4483 65.2331 98.4346C65.213 98.421 65.1887 98.4152 65.1646 98.4182C65.1406 98.4213 65.1185 98.4331 65.1024 98.4514C65.0863 98.4698 65.0773 98.4933 65.0771 98.5178L65.0452 103.022C65.0445 103.057 65.0316 103.087 65.0065 103.113C64.9192 103.2 64.8069 103.243 64.6696 103.241L63.6643 103.203C63.6039 103.2 63.5468 103.174 63.5047 103.131C63.4626 103.087 63.4386 103.029 63.4378 102.969L63.4127 101.337V99.121C63.4818 98.3153 63.4913 97.5095 63.4412 96.7038L63.3877 94.3234L63.4093 92.1134C63.7569 92.0198 64.1106 91.9753 64.4703 91.9799ZM75.7691 91.9799H78.1313C78.7642 91.9857 79.5885 91.9062 79.5759 92.712C79.5471 94.5782 79.5372 95.801 79.5463 96.3803C79.5486 96.5446 79.4617 96.7495 79.2856 96.995C79.2674 97.0219 79.2447 97.0434 79.2173 97.0595L79.1513 97.0998C79.0997 97.1304 79.0929 97.1692 79.1308 97.216L79.6078 97.8007C79.6374 97.8368 79.6522 97.8782 79.6522 97.9251C79.656 98.5459 79.6477 99.9417 79.6272 102.113C79.6192 102.998 79.0887 103.158 78.3021 103.162C77.5082 103.168 76.7246 103.184 75.9512 103.208L75.5016 103.196C75.4598 103.194 75.4386 103.172 75.4378 103.13L75.4071 101.578C75.4078 100.551 75.3976 99.5112 75.3763 98.4591C75.3695 98.1322 75.1543 97.9918 75.143 97.7041C75.1282 97.3311 75.0747 96.6969 75.3558 96.4114C75.3839 96.383 75.398 96.3485 75.398 96.3078L75.3649 92.0639C75.3642 92.0179 75.3866 91.9941 75.4321 91.9926L75.7691 91.9799ZM77.9082 93.5557C77.9082 93.5358 77.9005 93.5168 77.8868 93.5028C77.8732 93.4887 77.8546 93.4809 77.8353 93.4809H77.1727C77.1242 93.4809 77.0976 93.505 77.0931 93.5534C77.002 94.4934 76.9948 95.433 77.0714 96.3723C77.0736 96.398 77.0844 96.4221 77.1021 96.4406C77.1197 96.4591 77.1431 96.4707 77.1682 96.4736L77.8205 96.5461C77.8759 96.5522 77.9036 96.5269 77.9036 96.4701L77.9082 93.5557ZM77.8991 98.2551C77.899 98.2386 77.8958 98.2223 77.8895 98.207C77.8832 98.1918 77.874 98.178 77.8624 98.1664C77.8509 98.1548 77.8371 98.1456 77.8221 98.1393C77.807 98.1331 77.7908 98.1299 77.7745 98.1299L77.1393 98.1322C77.123 98.1323 77.1069 98.1356 77.0918 98.142C77.0768 98.1483 77.0631 98.1576 77.0517 98.1693C77.0402 98.181 77.0311 98.1949 77.0249 98.2101C77.0187 98.2254 77.0156 98.2417 77.0156 98.2582L77.027 101.566C77.0271 101.583 77.0304 101.599 77.0366 101.614C77.0429 101.629 77.0521 101.643 77.0637 101.655C77.0753 101.666 77.089 101.676 77.1041 101.682C77.1191 101.688 77.1353 101.691 77.1516 101.691L77.7868 101.689C77.8031 101.689 77.8192 101.686 77.8343 101.679C77.8493 101.673 77.8629 101.664 77.8744 101.652C77.8859 101.64 77.895 101.626 77.9012 101.611C77.9073 101.596 77.9105 101.58 77.9104 101.563L77.8991 98.2551ZM87.2101 91.9799L89.4335 92.0455C89.7439 92.0148 90.0383 92.0597 90.3169 92.1802L90.3055 93.5142C90.3055 93.5595 90.2831 93.5837 90.2383 93.5868L89.5439 93.6293L88.2404 93.6259C88.1971 93.6259 88.1698 93.647 88.1584 93.6892C88.1304 93.7974 88.1258 93.9102 88.1448 94.0276L88.0435 96.4252C88.0419 96.4728 88.0647 96.497 88.1118 96.4978L89.5462 96.5047L90.0345 96.5231C90.0748 96.5246 90.104 96.5438 90.1222 96.5806C90.1518 96.6397 90.1571 96.7115 90.1381 96.7959L90.1097 98.0609C90.1082 98.1061 90.085 98.1296 90.0402 98.1311L88.9462 98.176C88.6609 98.123 88.396 98.1522 88.1516 98.2635C88.0981 99.3052 88.2552 100.104 88.1448 101.321L88.1527 101.543C88.1543 101.583 88.1751 101.606 88.2154 101.61C88.6404 101.649 89.0475 101.639 89.4369 101.578C89.6729 101.682 89.8759 101.726 90.0459 101.711C90.0686 101.709 90.0915 101.712 90.113 101.719C90.1346 101.726 90.1544 101.738 90.1711 101.754C90.1879 101.77 90.2012 101.789 90.2102 101.81C90.2192 101.832 90.2238 101.855 90.2235 101.878L90.2064 103.158C90.2064 103.212 90.1795 103.239 90.1256 103.238L86.5908 103.23C86.4611 103.229 86.3958 103.163 86.395 103.032C86.3897 101.827 86.3988 100.581 86.4224 99.2936C86.4406 98.374 85.8793 97.5671 86.2243 96.5887C86.3893 96.1202 86.4258 95.3433 86.395 94.8472C86.3389 93.9509 86.3339 93.0385 86.3802 92.11C86.6436 92.0033 86.9202 91.9599 87.2101 91.9799ZM81.9211 92.2435C81.929 92.8466 81.9996 93.4947 82.0053 94.0472C82.0311 96.2825 82.0395 98.5178 82.0304 100.753C82.0269 101.43 81.9712 102.309 81.9814 103.093C81.9817 103.105 81.9772 103.117 81.9689 103.126C81.9606 103.135 81.9492 103.14 81.937 103.14L80.4901 103.212C80.3891 103.216 80.317 103.173 80.2738 103.082C80.2191 102.966 80.193 102.825 80.1952 102.66C80.2317 99.8703 80.2442 96.446 80.2328 92.3874C80.232 92.237 80.2704 92.1211 80.3478 92.0397C80.8312 92.0275 81.2877 92.0156 81.7173 92.0041C81.8653 91.9995 81.9332 92.0793 81.9211 92.2435Z" fill="#F0F0F0"/>
<path d="M162.312 24.2032L157.531 28.9844L162.312 33.7656L167.094 28.9844L162.312 24.2032ZM163.141 410.75L163.141 409.104L161.484 409.104L161.484 410.75L163.141 410.75ZM163.141 405.813L163.141 402.522L161.484 402.522L161.484 405.813L163.141 405.813ZM163.141 399.231L163.141 395.94L161.484 395.94L161.484 399.231L163.141 399.231ZM163.141 392.649L163.141 389.358L161.484 389.358L161.484 392.649L163.141 392.649ZM163.141 386.067L163.141 382.776L161.484 382.776L161.484 386.067L163.141 386.067ZM163.141 379.485L163.141 376.194L161.484 376.194L161.484 379.485L163.141 379.485ZM163.141 372.903L163.141 369.611L161.484 369.611L161.484 372.903L163.141 372.903ZM163.141 366.32L163.141 363.029L161.484 363.029L161.484 366.32L163.141 366.32ZM163.141 359.738L163.141 356.447L161.484 356.447L161.484 359.738L163.141 359.738ZM163.141 353.156L163.141 349.865L161.484 349.865L161.484 353.156L163.141 353.156ZM163.141 346.574L163.141 343.283L161.484 343.283L161.484 346.574L163.141 346.574ZM163.141 339.992L163.141 336.701L161.484 336.701L161.484 339.992L163.141 339.992ZM163.141 333.41L163.141 330.118L161.484 330.118L161.484 333.41L163.141 333.41ZM163.141 326.827L163.141 323.536L161.484 323.536L161.484 326.827L163.141 326.827ZM163.141 320.245L163.141 316.954L161.484 316.954L161.484 320.245L163.141 320.245ZM163.141 313.663L163.141 310.372L161.484 310.372L161.484 313.663L163.141 313.663ZM163.141 307.081L163.141 303.79L161.484 303.79L161.484 307.081L163.141 307.081ZM163.141 300.499L163.141 297.208L161.484 297.208L161.484 300.499L163.141 300.499ZM163.141 293.917L163.141 290.625L161.484 290.625L161.484 293.917L163.141 293.917ZM163.141 287.334L163.141 284.043L161.484 284.043L161.484 287.334L163.141 287.334ZM163.141 280.752L163.141 277.461L161.484 277.461L161.484 280.752L163.141 280.752ZM163.141 274.17L163.141 270.879L161.484 270.879L161.484 274.17L163.141 274.17ZM163.141 267.588L163.141 264.297L161.484 264.297L161.484 267.588L163.141 267.588ZM163.141 261.006L163.141 257.715L161.484 257.715L161.484 261.006L163.141 261.006ZM163.141 254.424L163.141 251.133L161.484 251.133L161.484 254.424L163.141 254.424ZM163.141 247.841L163.141 244.55L161.484 244.55L161.484 247.841L163.141 247.841ZM163.141 241.259L163.141 237.968L161.484 237.968L161.484 241.259L163.141 241.259ZM163.141 234.677L163.141 231.386L161.484 231.386L161.484 234.677L163.141 234.677ZM163.141 228.095L163.141 224.804L161.484 224.804L161.484 228.095L163.141 228.095ZM163.141 221.513L163.141 218.222L161.484 218.222L161.484 221.513L163.141 221.513ZM163.141 214.931L163.141 211.64L161.484 211.64L161.484 214.931L163.141 214.931ZM163.141 208.349L163.141 205.057L161.484 205.057L161.484 208.349L163.141 208.349ZM163.141 201.766L163.141 198.475L161.484 198.475L161.484 201.766L163.141 201.766ZM163.141 195.184L163.141 191.893L161.484 191.893L161.484 195.184L163.141 195.184ZM163.141 188.602L163.141 185.311L161.484 185.311L161.484 188.602L163.141 188.602ZM163.141 182.02L163.141 178.729L161.484 178.729L161.484 182.02L163.141 182.02ZM163.141 175.438L163.141 172.147L161.484 172.147L161.484 175.438L163.141 175.438ZM163.141 168.856L163.141 165.565L161.484 165.565L161.484 168.856L163.141 168.856ZM163.141 162.273L163.141 158.982L161.484 158.982L161.484 162.273L163.141 162.273ZM163.141 155.691L163.141 152.4L161.484 152.4L161.484 155.691L163.141 155.691ZM163.141 149.109L163.141 145.818L161.484 145.818L161.484 149.109L163.141 149.109ZM163.141 142.527L163.141 139.236L161.484 139.236L161.484 142.527L163.141 142.527ZM163.141 135.945L163.141 132.654L161.484 132.654L161.484 135.945L163.141 135.945ZM163.141 129.363L163.141 126.072L161.484 126.072L161.484 129.363L163.141 129.363ZM163.141 122.781L163.141 119.489L161.484 119.489L161.484 122.781L163.141 122.781ZM163.141 116.198L163.141 112.907L161.484 112.907L161.484 116.198L163.141 116.198ZM163.141 109.616L163.141 106.325L161.484 106.325L161.484 109.616L163.141 109.616ZM163.141 103.034L163.141 99.743L161.484 99.743L161.484 103.034L163.141 103.034ZM163.141 96.4519L163.141 93.1608L161.484 93.1608L161.484 96.4519L163.141 96.4519ZM163.141 89.8698L163.141 86.5787L161.484 86.5787L161.484 89.8698L163.141 89.8698ZM163.141 83.2876L163.141 79.9965L161.484 79.9965L161.484 83.2876L163.141 83.2876ZM163.141 76.7055L163.141 73.4144L161.484 73.4144L161.484 76.7055L163.141 76.7055ZM163.141 70.1233L163.141 66.8322L161.484 66.8322L161.484 70.1233L163.141 70.1233ZM163.141 63.5412L163.141 60.2501L161.484 60.2501L161.484 63.5412L163.141 63.5412ZM163.141 56.959L163.141 53.6679L161.484 53.6679L161.484 56.959L163.141 56.959ZM163.141 50.3768L163.141 47.0858L161.484 47.0858L161.484 50.3768L163.141 50.3768ZM163.141 43.7947L163.141 40.5036L161.484 40.5036L161.484 43.7947L163.141 43.7947ZM163.141 37.2125L163.141 33.9214L161.484 33.9214L161.484 37.2125L163.141 37.2125ZM163.141 30.6304L163.141 28.9844L161.484 28.9844L161.484 30.6304L163.141 30.6304Z" fill="white" fill-opacity="0.5"/>
<g filter="url(#filter1_b_3020_2066)">
<path d="M165.518 467.958C164.054 471.218 159.427 471.218 157.963 467.958L136.405 419.949C135.174 417.209 137.179 414.112 140.182 414.112L183.299 414.112C186.302 414.112 188.307 417.209 187.076 419.949L165.518 467.958Z" fill="white" fill-opacity="0.23"/>
</g>
<path d="M151.329 420.261L151.231 420.332C151.231 420.332 157.121 427.131 157.121 430.795C157.121 435.321 148.674 437.38 148.674 437.38L148.709 437.497C149.667 437.264 155.707 435.825 158.154 436.953C162.509 438.96 160.77 447.909 160.77 447.909L160.893 447.931C161.084 446.813 162.669 438.871 165.441 437.736C167.306 436.973 169.81 439.703 169.81 439.703L169.897 439.622C169.321 439.018 167.166 436.664 167.542 434.996C168.068 432.664 176.344 430.216 176.344 430.216L176.309 430.102C175.692 430.292 168.49 432.494 166.779 431.19C165.039 429.863 166.89 424.827 166.89 424.827L166.773 424.787C166.571 425.336 165.086 429.133 162.508 429.133C159.17 429.133 153.366 422.648 151.329 420.261Z" fill="white"/>
<ellipse cx="161.74" cy="479.628" rx="5.38032" ry="2.30585" fill="white"/>
<path d="M119.937 499.072H116.045L115.401 500.934H113.343L116.857 491.148H119.139L122.653 500.934H120.581L119.937 499.072ZM119.405 497.504L117.991 493.416L116.577 497.504H119.405ZM128.264 493.066C129.188 493.066 129.935 493.36 130.504 493.948C131.073 494.526 131.358 495.338 131.358 496.384V500.934H129.398V496.65C129.398 496.034 129.244 495.562 128.936 495.236C128.628 494.9 128.208 494.732 127.676 494.732C127.135 494.732 126.705 494.9 126.388 495.236C126.08 495.562 125.926 496.034 125.926 496.65V500.934H123.966V493.178H125.926V494.144C126.187 493.808 126.519 493.546 126.92 493.36C127.331 493.164 127.779 493.066 128.264 493.066ZM135.504 494.788V498.54C135.504 498.801 135.565 498.992 135.686 499.114C135.817 499.226 136.031 499.282 136.33 499.282H137.24V500.934H136.008C134.356 500.934 133.53 500.131 133.53 498.526V494.788H132.606V493.178H133.53V491.26H135.504V493.178H137.24V494.788H135.504ZM139.644 492.254C139.298 492.254 139.009 492.146 138.776 491.932C138.552 491.708 138.44 491.432 138.44 491.106C138.44 490.779 138.552 490.508 138.776 490.294C139.009 490.07 139.298 489.958 139.644 489.958C139.989 489.958 140.274 490.07 140.498 490.294C140.731 490.508 140.848 490.779 140.848 491.106C140.848 491.432 140.731 491.708 140.498 491.932C140.274 492.146 139.989 492.254 139.644 492.254ZM140.61 493.178V500.934H138.65V493.178H140.61ZM146.83 500.934L145.234 498.526L143.82 500.934H141.72L144.254 497.042L141.692 493.178H143.904L145.486 495.572L146.914 493.178H149.014L146.466 497.042L149.042 500.934H146.83ZM154.437 492.254C154.091 492.254 153.802 492.146 153.569 491.932C153.345 491.708 153.233 491.432 153.233 491.106C153.233 490.779 153.345 490.508 153.569 490.294C153.802 490.07 154.091 489.958 154.437 489.958C154.782 489.958 155.067 490.07 155.291 490.294C155.524 490.508 155.641 490.779 155.641 491.106C155.641 491.432 155.524 491.708 155.291 491.932C155.067 492.146 154.782 492.254 154.437 492.254ZM155.403 493.178V500.934H153.443V493.178H155.403ZM161.637 493.066C162.561 493.066 163.308 493.36 163.877 493.948C164.446 494.526 164.731 495.338 164.731 496.384V500.934H162.771V496.65C162.771 496.034 162.617 495.562 162.309 495.236C162.001 494.9 161.581 494.732 161.049 494.732C160.508 494.732 160.078 494.9 159.761 495.236C159.453 495.562 159.299 496.034 159.299 496.65V500.934H157.339V493.178H159.299V494.144C159.56 493.808 159.892 493.546 160.293 493.36C160.704 493.164 161.152 493.066 161.637 493.066ZM176.581 491.162V492.744H173.977V500.934H172.017V492.744H169.413V491.162H176.581ZM181.455 501.06C180.708 501.06 180.036 500.896 179.439 500.57C178.842 500.234 178.37 499.762 178.025 499.156C177.689 498.549 177.521 497.849 177.521 497.056C177.521 496.262 177.694 495.562 178.039 494.956C178.394 494.349 178.874 493.882 179.481 493.556C180.088 493.22 180.764 493.052 181.511 493.052C182.258 493.052 182.934 493.22 183.541 493.556C184.148 493.882 184.624 494.349 184.969 494.956C185.324 495.562 185.501 496.262 185.501 497.056C185.501 497.849 185.319 498.549 184.955 499.156C184.6 499.762 184.115 500.234 183.499 500.57C182.892 500.896 182.211 501.06 181.455 501.06ZM181.455 499.352C181.81 499.352 182.141 499.268 182.449 499.1C182.766 498.922 183.018 498.661 183.205 498.316C183.392 497.97 183.485 497.55 183.485 497.056C183.485 496.318 183.289 495.754 182.897 495.362C182.514 494.96 182.043 494.76 181.483 494.76C180.923 494.76 180.452 494.96 180.069 495.362C179.696 495.754 179.509 496.318 179.509 497.056C179.509 497.793 179.691 498.362 180.055 498.764C180.428 499.156 180.895 499.352 181.455 499.352ZM191.531 500.934L188.899 497.63V500.934H186.939V490.574H188.899V496.468L191.503 493.178H194.051L190.635 497.07L194.079 500.934H191.531ZM202.534 493.178L197.732 504.602H195.646L197.326 500.738L194.218 493.178H196.416L198.418 498.596L200.448 493.178H202.534ZM207.035 501.06C206.288 501.06 205.616 500.896 205.019 500.57C204.422 500.234 203.95 499.762 203.605 499.156C203.269 498.549 203.101 497.849 203.101 497.056C203.101 496.262 203.274 495.562 203.619 494.956C203.974 494.349 204.454 493.882 205.061 493.556C205.668 493.22 206.344 493.052 207.091 493.052C207.838 493.052 208.514 493.22 209.121 493.556C209.728 493.882 210.204 494.349 210.549 494.956C210.904 495.562 211.081 496.262 211.081 497.056C211.081 497.849 210.899 498.549 210.535 499.156C210.18 499.762 209.695 500.234 209.079 500.57C208.472 500.896 207.791 501.06 207.035 501.06ZM207.035 499.352C207.39 499.352 207.721 499.268 208.029 499.1C208.346 498.922 208.598 498.661 208.785 498.316C208.972 497.97 209.065 497.55 209.065 497.056C209.065 496.318 208.869 495.754 208.477 495.362C208.094 494.96 207.623 494.76 207.063 494.76C206.503 494.76 206.032 494.96 205.649 495.362C205.276 495.754 205.089 496.318 205.089 497.056C205.089 497.793 205.271 498.362 205.635 498.764C206.008 499.156 206.475 499.352 207.035 499.352Z" fill="#F0F0F0"/>
<defs>
<filter id="filter0_b_3020_2066" x="-18.8812" y="-18.8812" width="190.247" height="158.669" filterUnits="userSpaceOnUse" color-interpolation-filters="sRGB">
<feFlood flood-opacity="0" result="BackgroundImageFix"/>
<feGaussianBlur in="BackgroundImageFix" stdDeviation="9.44062"/>
<feComposite in2="SourceAlpha" operator="in" result="effect1_backgroundBlur_3020_2066"/>
<feBlend mode="normal" in="SourceGraphic" in2="effect1_backgroundBlur_3020_2066" result="shape"/>
</filter>
<filter id="filter1_b_3020_2066" x="133.304" y="411.379" width="56.8738" height="61.7566" filterUnits="userSpaceOnUse" color-interpolation-filters="sRGB">
<feFlood flood-opacity="0" result="BackgroundImageFix"/>
<feGaussianBlur in="BackgroundImageFix" stdDeviation="1.36641"/>
<feComposite in2="SourceAlpha" operator="in" result="effect1_backgroundBlur_3020_2066"/>
<feBlend mode="normal" in="SourceGraphic" in2="effect1_backgroundBlur_3020_2066" result="shape"/>
</filter>
<linearGradient id="paint0_linear_3020_2066" x1="76.8086" y1="0" x2="76.8086" y2="379.281" gradientUnits="userSpaceOnUse">
<stop stop-color="#F0F0F0" stop-opacity="0.4"/>
<stop offset="1" stop-color="white" stop-opacity="0.2"/>
</linearGradient>
</defs>
</svg>
