<svg width="249" height="674" viewBox="0 0 249 674" fill="none" xmlns="http://www.w3.org/2000/svg">
<path d="M54 30.0263L48.2265 35.7998L54 41.5733L59.7735 35.7998L54 30.0263ZM55 532.8L55 530.796L53 530.796L53 532.8L55 532.8ZM55 526.788L55 522.78L53 522.78L53 526.788L55 526.788ZM55 518.772L55 514.764L53 514.764L53 518.772L55 518.772ZM55 510.755L55 506.747L53 506.747L53 510.755L55 510.755ZM55 502.739L55 498.731L53 498.731L53 502.739L55 502.739ZM55 494.723L55 490.715L53 490.715L53 494.723L55 494.723ZM55 486.707L55 482.699L53 482.699L53 486.707L55 486.707ZM55 478.691L55 474.683L53 474.683L53 478.691L55 478.691ZM55 470.675L55 466.667L53 466.667L53 470.675L55 470.675ZM55 462.659L55 458.651L53 458.651L53 462.659L55 462.659ZM55 454.643L55 450.634L53 450.634L53 454.643L55 454.643ZM55 446.626L55 442.618L53 442.618L53 446.626L55 446.626ZM55 438.61L55 434.602L53 434.602L53 438.61L55 438.61ZM55 430.594L55 426.586L53 426.586L53 430.594L55 430.594ZM55 422.578L55 418.57L53 418.57L53 422.578L55 422.578ZM55 414.562L55 410.554L53 410.554L53 414.562L55 414.562ZM55 406.546L55 402.538L53 402.538L53 406.546L55 406.546ZM55 398.53L55 394.522L53 394.522L53 398.53L55 398.53ZM55 390.514L55 386.505L53 386.505L53 390.514L55 390.514ZM55 382.497L55 378.489L53 378.489L53 382.497L55 382.497ZM55 374.481L55 370.473L53 370.473L53 374.481L55 374.481ZM55 366.465L55 362.457L53 362.457L53 366.465L55 366.465ZM55 358.449L55 354.441L53 354.441L53 358.449L55 358.449ZM55 350.433L55 346.425L53 346.425L53 350.433L55 350.433ZM55 342.417L55 338.409L53 338.409L53 342.417L55 342.417ZM55 334.401L55 330.393L53 330.393L53 334.401L55 334.401ZM55 326.385L55 322.377L53 322.377L53 326.385L55 326.385ZM55 318.369L55 314.36L53 314.36L53 318.369L55 318.369ZM55 310.352L55 306.344L53 306.344L53 310.352L55 310.352ZM55 302.336L55 298.328L53 298.328L53 302.336L55 302.336ZM55 294.32L55 290.312L53 290.312L53 294.32L55 294.32ZM55 286.304L55 282.296L53 282.296L53 286.304L55 286.304ZM55 278.288L55 274.28L53 274.28L53 278.288L55 278.288ZM55 270.272L55 266.264L53 266.264L53 270.272L55 270.272ZM55 262.256L55 258.248L53 258.248L53 262.256L55 262.256ZM55 254.24L55 250.232L53 250.232L53 254.24L55 254.24ZM55 246.224L55 242.215L53 242.215L53 246.224L55 246.224ZM55 238.207L55 234.199L53 234.199L53 238.207L55 238.207ZM55 230.191L55 226.183L53 226.183L53 230.191L55 230.191ZM55 222.175L55 218.167L53 218.167L53 222.175L55 222.175ZM55 214.159L55 210.151L53 210.151L53 214.159L55 214.159ZM55 206.143L55 202.135L53 202.135L53 206.143L55 206.143ZM55 198.127L55 194.119L53 194.119L53 198.127L55 198.127ZM55 190.111L55 186.103L53 186.103L53 190.111L55 190.111ZM55 182.095L55 178.087L53 178.087L53 182.095L55 182.095ZM55 174.078L55 170.07L53 170.07L53 174.078L55 174.078ZM55 166.062L55 162.054L53 162.054L53 166.062L55 166.062ZM55 158.046L55 154.038L53 154.038L53 158.046L55 158.046ZM55 150.03L55 146.022L53 146.022L53 150.03L55 150.03ZM55 142.014L55 138.006L53 138.006L53 142.014L55 142.014ZM55 133.998L55 129.99L53 129.99L53 133.998L55 133.998ZM55 125.982L55 121.974L53 121.974L53 125.982L55 125.982ZM55 117.966L55 113.958L53 113.958L53 117.966L55 117.966ZM55 109.95L55 105.941L53 105.941L53 109.95L55 109.95ZM55 101.933L55 97.9254L53 97.9254L53 101.933L55 101.933ZM55 93.9174L55 89.9093L53 89.9093L53 93.9174L55 93.9174ZM55 85.9012L55 81.8932L53 81.8932L53 85.9012L55 85.9012ZM55 77.8851L55 73.877L53 73.877L53 77.8851L55 77.8851ZM55 69.869L55 65.861L53 65.861L53 69.869L55 69.869ZM55 61.8529L55 57.8448L53 57.8448L53 61.8529L55 61.8529ZM55 53.8368L55 49.8287L53 49.8287L53 53.8368L55 53.8368ZM55 45.8206L55 41.8126L53 41.8126L53 45.8206L55 45.8206ZM55 37.8046L55 35.7998L53 35.7998L53 37.8046L55 37.8046Z" fill="white" fill-opacity="0.5"/>
<g filter="url(#filter0_b_2020_625)">
<mask id="path-2-inside-1_2020_625" fill="white">
<path fill-rule="evenodd" clip-rule="evenodd" d="M75.4998 0.799805C73.2907 0.799805 71.4998 2.59067 71.4998 4.7998V24.7715C71.4998 25.7557 71.137 26.7053 70.4808 27.4387L65.3862 33.1326C64.0275 34.6512 64.0275 36.9484 65.3862 38.467L70.4808 44.1609C71.137 44.8943 71.4998 45.8439 71.4998 46.8281V92.2998C71.4998 94.5089 73.2907 96.2998 75.4998 96.2998H185.716C200.429 90.179 216.57 86.7998 233.5 86.7998C238.577 86.7998 243.582 87.1037 248.5 87.6942V4.7998C248.5 2.59067 246.709 0.799805 244.5 0.799805H75.4998Z"/>
</mask>
<path fill-rule="evenodd" clip-rule="evenodd" d="M75.4998 0.799805C73.2907 0.799805 71.4998 2.59067 71.4998 4.7998V24.7715C71.4998 25.7557 71.137 26.7053 70.4808 27.4387L65.3862 33.1326C64.0275 34.6512 64.0275 36.9484 65.3862 38.467L70.4808 44.1609C71.137 44.8943 71.4998 45.8439 71.4998 46.8281V92.2998C71.4998 94.5089 73.2907 96.2998 75.4998 96.2998H185.716C200.429 90.179 216.57 86.7998 233.5 86.7998C238.577 86.7998 243.582 87.1037 248.5 87.6942V4.7998C248.5 2.59067 246.709 0.799805 244.5 0.799805H75.4998Z" fill="#3E3E3E" fill-opacity="0.3"/>
<path d="M70.4808 27.4387L69.7355 26.7719L70.4808 27.4387ZM65.3862 33.1326L64.641 32.4658L64.641 32.4658L65.3862 33.1326ZM65.3862 38.467L64.641 39.1338H64.641L65.3862 38.467ZM70.4808 44.1609L69.7355 44.8277L69.7355 44.8277L70.4808 44.1609ZM185.716 96.2998V97.2998H185.915L186.1 97.2231L185.716 96.2998ZM248.5 87.6942L248.381 88.687L249.5 88.8214V87.6942H248.5ZM72.4998 4.7998C72.4998 3.14295 73.8429 1.7998 75.4998 1.7998V-0.200195C72.7384 -0.200195 70.4998 2.03838 70.4998 4.7998H72.4998ZM72.4998 24.7715V4.7998H70.4998V24.7715H72.4998ZM71.226 28.1055C72.0463 27.1887 72.4998 26.0017 72.4998 24.7715H70.4998C70.4998 25.5097 70.2277 26.2219 69.7355 26.7719L71.226 28.1055ZM66.1315 33.7994L71.226 28.1055L69.7355 26.7719L64.641 32.4658L66.1315 33.7994ZM66.1315 37.8002C65.1124 36.6613 65.1124 34.9383 66.1315 33.7994L64.641 32.4658C62.9426 34.364 62.9426 37.2356 64.641 39.1338L66.1315 37.8002ZM71.226 43.4941L66.1315 37.8002L64.641 39.1338L69.7355 44.8277L71.226 43.4941ZM72.4998 46.8281C72.4998 45.5979 72.0463 44.4109 71.226 43.4941L69.7355 44.8277C70.2277 45.3777 70.4998 46.09 70.4998 46.8281H72.4998ZM72.4998 92.2998V46.8281H70.4998V92.2998H72.4998ZM75.4998 95.2998C73.8429 95.2998 72.4998 93.9567 72.4998 92.2998H70.4998C70.4998 95.0612 72.7384 97.2998 75.4998 97.2998V95.2998ZM185.716 95.2998H75.4998V97.2998H185.716V95.2998ZM186.1 97.2231C200.694 91.1521 216.704 87.7998 233.5 87.7998V85.7998C216.436 85.7998 200.165 89.206 185.332 95.3765L186.1 97.2231ZM233.5 87.7998C238.537 87.7998 243.503 88.1013 248.381 88.687L248.619 86.7013C243.662 86.106 238.617 85.7998 233.5 85.7998V87.7998ZM247.5 4.7998V87.6942H249.5V4.7998H247.5ZM244.5 1.7998C246.157 1.7998 247.5 3.14295 247.5 4.7998H249.5C249.5 2.03838 247.261 -0.200195 244.5 -0.200195V1.7998ZM75.4998 1.7998H244.5V-0.200195H75.4998V1.7998Z" fill="url(#paint0_linear_2020_625)" mask="url(#path-2-inside-1_2020_625)"/>
</g>
<path d="M110.516 39.7998H107.129L113.293 22.3389H117.184L123.336 39.7998H119.961L115.297 25.9248H115.156L110.516 39.7998ZM110.633 32.9561H119.832V35.4873H110.633V32.9561ZM133.197 34.3037V26.6982H136.279V39.7998H133.291V37.4678H133.15C132.853 38.2021 132.369 38.8037 131.697 39.2725C131.025 39.7412 130.197 39.9717 129.213 39.9639C128.353 39.9639 127.595 39.7764 126.939 39.4014C126.291 39.0186 125.779 38.46 125.404 37.7256C125.037 36.9834 124.853 36.0889 124.853 35.042V26.6982H127.935V34.5732C127.935 35.3936 128.162 36.0498 128.615 36.542C129.076 37.0342 129.677 37.2764 130.42 37.2686C130.873 37.2686 131.31 37.1592 131.732 36.9404C132.162 36.7217 132.513 36.3936 132.787 35.9561C133.06 35.5186 133.197 34.9678 133.197 34.3037ZM149.14 30.1787L146.339 30.4717C146.222 30.042 145.968 29.6631 145.578 29.335C145.187 28.999 144.636 28.8311 143.925 28.8311C143.285 28.8311 142.746 28.9717 142.308 29.2529C141.878 29.5342 141.664 29.8936 141.664 30.3311C141.664 30.7139 141.804 31.0303 142.085 31.2803C142.375 31.5225 142.851 31.7178 143.515 31.8662L145.753 32.335C146.98 32.5928 147.898 33.0146 148.507 33.6006C149.117 34.1865 149.421 34.9443 149.421 35.874C149.421 36.6943 149.183 37.4209 148.707 38.0537C148.23 38.6865 147.57 39.1787 146.726 39.5303C145.89 39.8818 144.925 40.0576 143.832 40.0576C142.23 40.0576 140.941 39.7217 139.964 39.0498C138.996 38.3701 138.414 37.4287 138.218 36.2256L141.23 35.9443C141.363 36.5303 141.652 36.9756 142.097 37.2803C142.55 37.5771 143.128 37.7256 143.832 37.7256C144.566 37.7256 145.156 37.5771 145.601 37.2803C146.046 36.9756 146.269 36.6045 146.269 36.167C146.269 35.4326 145.683 34.9326 144.511 34.667L142.273 34.1982C141.015 33.9248 140.085 33.4834 139.484 32.874C138.882 32.2568 138.582 31.4717 138.582 30.5186C138.582 29.7061 138.804 29.0029 139.25 28.4092C139.695 27.8154 140.316 27.3545 141.113 27.0264C141.91 26.6982 142.832 26.5342 143.878 26.5342C145.417 26.5342 146.625 26.8662 147.5 27.5303C148.382 28.1865 148.929 29.0693 149.14 30.1787ZM157.853 26.6982V29.0889H150.341V26.6982H157.853ZM152.181 23.5811H155.263V35.8623C155.263 36.3779 155.376 36.7607 155.603 37.0107C155.829 37.2529 156.189 37.374 156.681 37.374C156.814 37.374 156.962 37.3623 157.126 37.3389C157.29 37.3154 157.439 37.2881 157.572 37.2568L158.099 39.6709C157.771 39.7725 157.439 39.8467 157.103 39.8936C156.767 39.9482 156.431 39.9756 156.095 39.9756C154.876 39.9756 153.919 39.6553 153.224 39.0146C152.529 38.3662 152.181 37.4834 152.181 36.3662V23.5811ZM159.792 39.7998V26.6982H162.78V28.9014H162.921C163.155 28.1357 163.565 27.5498 164.151 27.1436C164.737 26.7295 165.405 26.5225 166.155 26.5225C166.319 26.5225 166.507 26.5303 166.718 26.5459C166.937 26.5615 167.116 26.5811 167.257 26.6045V29.4404C167.124 29.3936 166.917 29.3545 166.636 29.3232C166.355 29.292 166.085 29.2764 165.827 29.2764C165.257 29.2764 164.749 29.3975 164.304 29.6396C163.858 29.8818 163.507 30.2139 163.249 30.6357C162.999 31.0576 162.874 31.5498 162.874 32.1123V39.7998H159.792ZM172.196 40.0693C171.36 40.0693 170.61 39.9209 169.946 39.624C169.282 39.3193 168.759 38.874 168.376 38.2881C167.993 37.7021 167.802 36.9795 167.802 36.1201C167.802 35.3857 167.938 34.7764 168.212 34.292C168.485 33.8076 168.856 33.4209 169.325 33.1318C169.802 32.8428 170.337 32.624 170.93 32.4756C171.524 32.3193 172.138 32.21 172.77 32.1475C173.544 32.0615 174.169 31.9873 174.645 31.9248C175.122 31.8623 175.466 31.7607 175.677 31.6201C175.895 31.4795 176.005 31.2607 176.005 30.9639V30.9053C176.005 30.2725 175.817 29.7803 175.442 29.4287C175.067 29.0771 174.52 28.9014 173.802 28.9014C173.044 28.9014 172.442 29.0654 171.997 29.3936C171.559 29.7217 171.263 30.1084 171.106 30.5537L168.235 30.1436C168.462 29.3467 168.837 28.6826 169.36 28.1514C169.884 27.6123 170.52 27.21 171.27 26.9443C172.028 26.6709 172.864 26.5342 173.778 26.5342C174.403 26.5342 175.028 26.6084 175.653 26.7568C176.278 26.8975 176.852 27.1396 177.376 27.4834C177.899 27.8271 178.317 28.2881 178.63 28.8662C178.942 29.4443 179.098 30.167 179.098 31.0342V39.7998H176.134V37.9951H176.04C175.852 38.3545 175.587 38.6943 175.243 39.0146C174.907 39.3271 174.485 39.5811 173.977 39.7764C173.477 39.9717 172.884 40.0693 172.196 40.0693ZM172.981 37.7959C173.606 37.7959 174.145 37.6748 174.598 37.4326C175.052 37.1826 175.403 36.8545 175.653 36.4482C175.903 36.0342 176.028 35.585 176.028 35.1006V33.5654C175.927 33.6436 175.763 33.7178 175.536 33.7881C175.309 33.8506 175.052 33.9092 174.763 33.9639C174.473 34.0186 174.188 34.0654 173.907 34.1045C173.634 34.1436 173.395 34.1748 173.192 34.1982C172.731 34.2607 172.317 34.3662 171.95 34.5146C171.591 34.6553 171.305 34.8506 171.095 35.1006C170.884 35.3506 170.778 35.6748 170.778 36.0732C170.778 36.6436 170.985 37.0732 171.399 37.3623C171.813 37.6514 172.341 37.7959 172.981 37.7959ZM184.706 22.3389V39.7998H181.624V22.3389H184.706ZM187.231 39.7998V26.6982H190.313V39.7998H187.231ZM188.778 24.8584C188.285 24.8584 187.864 24.6943 187.512 24.3662C187.16 24.0381 186.985 23.6436 186.985 23.1826C186.985 22.7139 187.16 22.3154 187.512 21.9873C187.864 21.6592 188.285 21.4951 188.778 21.4951C189.262 21.4951 189.68 21.6592 190.032 21.9873C190.383 22.3154 190.559 22.71 190.559 23.1709C190.559 23.6396 190.383 24.0381 190.032 24.3662C189.68 24.6943 189.262 24.8584 188.778 24.8584ZM196.611 40.0693C195.775 40.0693 195.025 39.9209 194.361 39.624C193.697 39.3193 193.174 38.874 192.791 38.2881C192.408 37.7021 192.217 36.9795 192.217 36.1201C192.217 35.3857 192.354 34.7764 192.627 34.292C192.9 33.8076 193.272 33.4209 193.74 33.1318C194.217 32.8428 194.752 32.624 195.346 32.4756C195.94 32.3193 196.553 32.21 197.186 32.1475C197.959 32.0615 198.584 31.9873 199.061 31.9248C199.537 31.8623 199.881 31.7607 200.092 31.6201C200.311 31.4795 200.42 31.2607 200.42 30.9639V30.9053C200.42 30.2725 200.232 29.7803 199.857 29.4287C199.482 29.0771 198.936 28.9014 198.217 28.9014C197.459 28.9014 196.857 29.0654 196.412 29.3936C195.975 29.7217 195.678 30.1084 195.522 30.5537L192.65 30.1436C192.877 29.3467 193.252 28.6826 193.775 28.1514C194.299 27.6123 194.936 27.21 195.686 26.9443C196.443 26.6709 197.279 26.5342 198.193 26.5342C198.818 26.5342 199.443 26.6084 200.068 26.7568C200.693 26.8975 201.268 27.1396 201.791 27.4834C202.315 27.8271 202.732 28.2881 203.045 28.8662C203.357 29.4443 203.514 30.167 203.514 31.0342V39.7998H200.549V37.9951H200.455C200.268 38.3545 200.002 38.6943 199.658 39.0146C199.322 39.3271 198.9 39.5811 198.393 39.7764C197.893 39.9717 197.299 40.0693 196.611 40.0693ZM197.397 37.7959C198.022 37.7959 198.561 37.6748 199.014 37.4326C199.467 37.1826 199.818 36.8545 200.068 36.4482C200.318 36.0342 200.443 35.585 200.443 35.1006V33.5654C200.342 33.6436 200.178 33.7178 199.951 33.7881C199.725 33.8506 199.467 33.9092 199.178 33.9639C198.889 34.0186 198.604 34.0654 198.322 34.1045C198.049 34.1436 197.811 34.1748 197.607 34.1982C197.147 34.2607 196.732 34.3662 196.365 34.5146C196.006 34.6553 195.721 34.8506 195.51 35.1006C195.299 35.3506 195.193 35.6748 195.193 36.0732C195.193 36.6436 195.4 37.0732 195.815 37.3623C196.229 37.6514 196.756 37.7959 197.397 37.7959Z" fill="#12FFF1"/>
<path d="M137.195 73.7998H132.766V71.0576H137.031C138.242 71.0576 139.254 70.8389 140.066 70.4014C140.887 69.9561 141.5 69.2881 141.906 68.3975C142.32 67.5068 142.527 66.3936 142.527 65.0576C142.527 63.7217 142.324 62.6123 141.918 61.7295C141.512 60.8467 140.906 60.1865 140.102 59.749C139.297 59.3037 138.301 59.0811 137.113 59.0811H132.672V56.3389H137.301C139.035 56.3389 140.523 56.6865 141.766 57.3818C143.016 58.0771 143.977 59.0771 144.648 60.3818C145.32 61.6865 145.656 63.2451 145.656 65.0576C145.656 66.8701 145.32 68.4326 144.648 69.7451C143.977 71.0498 143.008 72.0537 141.742 72.7568C140.484 73.4521 138.969 73.7998 137.195 73.7998ZM134.43 56.3389V73.7998H131.266V56.3389H134.43ZM146.447 58.9873V56.3389H160.369V58.9873H154.978V73.7998H151.849V58.9873H146.447ZM169.164 74.0342C167.632 74.0342 166.261 73.6787 165.05 72.9678C163.847 72.2568 162.898 71.2334 162.203 69.8975C161.515 68.5615 161.171 66.9561 161.171 65.0811C161.171 63.1982 161.519 61.5889 162.214 60.2529C162.917 58.9092 163.871 57.8818 165.074 57.1709C166.285 56.46 167.648 56.1045 169.164 56.1045C170.125 56.1045 171.023 56.2412 171.859 56.5146C172.703 56.7881 173.453 57.1904 174.109 57.7217C174.765 58.2451 175.3 58.8896 175.714 59.6553C176.136 60.4131 176.414 61.2764 176.546 62.2451H173.359C173.273 61.7139 173.105 61.2451 172.855 60.8389C172.613 60.4326 172.308 60.0889 171.941 59.8076C171.582 59.5186 171.171 59.3037 170.71 59.1631C170.25 59.0146 169.753 58.9404 169.222 58.9404C168.269 58.9404 167.425 59.1787 166.691 59.6553C165.957 60.124 165.382 60.8193 164.968 61.7412C164.554 62.6553 164.347 63.7686 164.347 65.0811C164.347 66.4092 164.554 67.5303 164.968 68.4443C165.39 69.3506 165.964 70.0381 166.691 70.5068C167.425 70.9678 168.265 71.1982 169.21 71.1982C169.734 71.1982 170.222 71.1318 170.675 70.999C171.128 70.8584 171.539 70.6514 171.906 70.3779C172.281 70.0967 172.589 69.7607 172.832 69.3701C173.082 68.9717 173.257 68.5146 173.359 67.999H176.546C176.429 68.835 176.171 69.6201 175.773 70.3545C175.382 71.0811 174.867 71.7217 174.226 72.2764C173.593 72.8232 172.851 73.2529 172 73.5654C171.148 73.8779 170.203 74.0342 169.164 74.0342Z" fill="#F0F0F0"/>
<g filter="url(#filter1_b_2020_625)">
<path d="M58.8703 603.882C57.103 607.817 51.5152 607.817 49.7478 603.882L23.7147 545.908C22.2291 542.599 24.6493 538.86 28.2759 538.86L80.3422 538.86C83.9688 538.86 86.389 542.599 84.9034 545.908L58.8703 603.882Z" fill="white" fill-opacity="0.23"/>
</g>
<path d="M41.7365 546.285L41.6186 546.372C41.6186 546.372 48.7309 554.582 48.7309 559.006C48.7309 564.472 38.5303 566.958 38.5303 566.958L38.5727 567.099C39.7297 566.818 47.0227 565.079 49.9775 566.442C55.2373 568.865 53.1373 579.671 53.1373 579.671L53.285 579.698C53.5167 578.348 55.4306 568.758 58.7779 567.387C61.0289 566.465 64.0534 569.763 64.0534 569.763L64.1581 569.665C63.4632 568.936 60.8604 566.093 61.3145 564.079C61.9495 561.262 71.9434 558.307 71.9434 558.307L71.901 558.169C71.1566 558.398 62.4598 561.058 60.3931 559.482C58.2916 557.88 60.5277 551.799 60.5277 551.799L60.3856 551.751C60.1416 552.413 58.3488 556.999 55.2355 556.999C51.205 556.999 44.1966 549.168 41.7365 546.285Z" fill="white"/>
<ellipse cx="54.3085" cy="617.973" rx="6.49699" ry="2.78443" fill="white"/>
<path d="M23.0693 647.8V634.704H25.0469V640.399H31.5684V634.704H33.5459V647.8H31.5684V642.096H25.0469V647.8H23.0693ZM39.7422 648.002C38.7812 648.002 37.9492 647.794 37.2461 647.378C36.543 646.962 36.001 646.376 35.6201 645.62C35.2451 644.858 35.0576 643.971 35.0576 642.957C35.0576 641.949 35.2422 641.062 35.6113 640.294C35.9863 639.526 36.5107 638.929 37.1846 638.501C37.8643 638.067 38.6611 637.851 39.5752 637.851C40.1318 637.851 40.6709 637.941 41.1924 638.123C41.7139 638.305 42.1826 638.592 42.5986 638.984C43.0146 639.377 43.3428 639.887 43.583 640.514C43.8291 641.141 43.9521 641.896 43.9521 642.781V643.467H36.1387V642.034H42.9678L42.0801 642.509C42.0801 641.905 41.9863 641.372 41.7988 640.909C41.6113 640.446 41.3301 640.086 40.9551 639.828C40.5859 639.564 40.126 639.433 39.5752 639.433C39.0244 639.433 38.5527 639.564 38.1602 639.828C37.7734 640.092 37.4775 640.44 37.2725 640.874C37.0674 641.308 36.9648 641.782 36.9648 642.298V643.273C36.9648 643.947 37.082 644.519 37.3164 644.987C37.5508 645.456 37.876 645.813 38.292 646.06C38.7139 646.306 39.2031 646.429 39.7598 646.429C40.123 646.429 40.4512 646.376 40.7441 646.271C41.043 646.165 41.3008 646.007 41.5176 645.796C41.7344 645.585 41.8984 645.324 42.0098 645.014L43.8203 645.356C43.6738 645.884 43.416 646.347 43.0469 646.745C42.6777 647.144 42.2119 647.454 41.6494 647.677C41.0928 647.894 40.457 648.002 39.7422 648.002ZM47.1865 634.704V647.8H45.2881V634.704H47.1865ZM49.0146 647.8V637.974H50.9131V647.8H49.0146ZM49.9727 636.462C49.6387 636.462 49.3545 636.351 49.1201 636.128C48.8857 635.905 48.7686 635.639 48.7686 635.328C48.7686 635.012 48.8857 634.742 49.1201 634.52C49.3545 634.297 49.6387 634.186 49.9727 634.186C50.3008 634.186 50.582 634.297 50.8164 634.52C51.0566 634.742 51.1768 635.012 51.1768 635.328C51.1768 635.639 51.0566 635.905 50.8164 636.128C50.582 636.351 50.3008 636.462 49.9727 636.462ZM60.0889 640.382L58.3574 640.681C58.2461 640.353 58.0381 640.051 57.7334 639.775C57.4346 639.5 56.9863 639.362 56.3887 639.362C55.8496 639.362 55.3984 639.485 55.0352 639.731C54.6777 639.972 54.499 640.279 54.499 640.654C54.499 640.982 54.6191 641.249 54.8594 641.454C55.1055 641.659 55.4951 641.823 56.0283 641.946L57.6016 642.298C58.498 642.503 59.1689 642.825 59.6143 643.265C60.0596 643.704 60.2822 644.267 60.2822 644.952C60.2822 645.544 60.1123 646.071 59.7725 646.534C59.4326 646.991 58.9609 647.352 58.3574 647.615C57.7539 647.873 57.0566 648.002 56.2656 648.002C55.1641 648.002 54.2676 647.765 53.5762 647.29C52.8848 646.815 52.46 646.147 52.3018 645.286L54.1387 645.005C54.2559 645.485 54.4932 645.849 54.8506 646.095C55.2139 646.341 55.6826 646.464 56.2568 646.464C56.8779 646.464 57.376 646.332 57.751 646.068C58.1318 645.805 58.3223 645.485 58.3223 645.11C58.3223 644.489 57.8594 644.07 56.9336 643.854L55.2725 643.484C54.3525 643.273 53.6729 642.942 53.2334 642.491C52.7998 642.034 52.583 641.46 52.583 640.769C52.583 640.188 52.7441 639.679 53.0664 639.239C53.3945 638.8 53.8428 638.46 54.4111 638.22C54.9854 637.974 55.6387 637.851 56.3711 637.851C57.4375 637.851 58.2725 638.082 58.876 638.545C59.4854 639.008 59.8896 639.62 60.0889 640.382ZM64.4658 648.011C63.8447 648.011 63.2822 647.896 62.7783 647.668C62.2744 647.434 61.876 647.094 61.583 646.648C61.29 646.203 61.1436 645.661 61.1436 645.022C61.1436 644.466 61.249 644.012 61.46 643.66C61.6768 643.303 61.9668 643.019 62.3301 642.808C62.6934 642.597 63.0977 642.438 63.543 642.333C63.9883 642.228 64.4453 642.146 64.9141 642.087C65.5059 642.022 65.9834 641.967 66.3467 641.92C66.71 641.873 66.9736 641.8 67.1377 641.7C67.3076 641.595 67.3926 641.428 67.3926 641.199V641.155C67.3926 640.599 67.2344 640.168 66.918 639.863C66.6074 639.559 66.1445 639.406 65.5293 639.406C64.8906 639.406 64.3838 639.547 64.0088 639.828C63.6396 640.104 63.3848 640.417 63.2441 640.769L61.4424 640.355C61.6592 639.758 61.9727 639.277 62.3828 638.914C62.7988 638.545 63.2734 638.275 63.8066 638.105C64.3457 637.936 64.9082 637.851 65.4941 637.851C65.8867 637.851 66.3027 637.897 66.7422 637.991C67.1816 638.079 67.5947 638.246 67.9814 638.492C68.374 638.732 68.6934 639.078 68.9395 639.529C69.1855 639.98 69.3086 640.563 69.3086 641.278V647.8H67.4365V646.455H67.3662C67.249 646.695 67.0645 646.936 66.8125 647.176C66.5664 647.416 66.25 647.615 65.8633 647.773C65.4766 647.932 65.0107 648.011 64.4658 648.011ZM64.8789 646.481C65.4121 646.481 65.8662 646.379 66.2412 646.174C66.6162 645.963 66.9033 645.688 67.1025 645.348C67.3018 645.008 67.4014 644.647 67.4014 644.267V642.992C67.3311 643.057 67.1992 643.118 67.0059 643.177C66.8125 643.235 66.5928 643.285 66.3467 643.326C66.1006 643.367 65.8604 643.405 65.626 643.44C65.3916 643.47 65.1953 643.493 65.0371 643.511C64.668 643.563 64.3311 643.646 64.0264 643.757C63.7217 643.862 63.4756 644.021 63.2881 644.231C63.1064 644.437 63.0156 644.709 63.0156 645.049C63.0156 645.523 63.1914 645.881 63.543 646.121C63.8945 646.361 64.3398 646.481 64.8789 646.481ZM75.1533 647.8V637.974H77.0518V647.8H75.1533ZM76.1113 636.462C75.7773 636.462 75.4932 636.351 75.2588 636.128C75.0244 635.905 74.9072 635.639 74.9072 635.328C74.9072 635.012 75.0244 634.742 75.2588 634.52C75.4932 634.297 75.7773 634.186 76.1113 634.186C76.4395 634.186 76.7207 634.297 76.9551 634.52C77.1953 634.742 77.3154 635.012 77.3154 635.328C77.3154 635.639 77.1953 635.905 76.9551 636.128C76.7207 636.351 76.4395 636.462 76.1113 636.462ZM80.7783 641.973V647.8H78.8799V637.974H80.7256V639.591H80.8574C81.0801 639.058 81.4287 638.636 81.9033 638.325C82.3779 638.009 82.9873 637.851 83.7314 637.851C84.3994 637.851 84.9824 637.991 85.4805 638.272C85.9844 638.548 86.374 638.961 86.6494 639.512C86.9307 640.062 87.0713 640.745 87.0713 641.56V647.8H85.1729V641.788C85.1729 641.079 84.9854 640.522 84.6104 640.118C84.2354 639.708 83.7256 639.503 83.0811 639.503C82.6416 639.503 82.2461 639.603 81.8945 639.802C81.5488 639.995 81.2764 640.273 81.0771 640.637C80.8779 641 80.7783 641.445 80.7783 641.973ZM29.8809 669.8V656.704H34.6885C35.6143 656.704 36.3818 656.856 36.9912 657.161C37.6006 657.466 38.0547 657.879 38.3535 658.4C38.6582 658.916 38.8105 659.496 38.8105 660.141C38.8105 660.686 38.708 661.146 38.5029 661.521C38.3037 661.896 38.0371 662.194 37.7031 662.417C37.3691 662.64 37 662.804 36.5957 662.909V663.032C37.0352 663.056 37.4629 663.196 37.8789 663.454C38.2949 663.712 38.6377 664.078 38.9072 664.553C39.1826 665.021 39.3203 665.596 39.3203 666.275C39.3203 666.943 39.1621 667.544 38.8457 668.077C38.5352 668.604 38.0547 669.023 37.4043 669.334C36.7539 669.645 35.9189 669.8 34.8994 669.8H29.8809ZM31.8584 668.112H34.7061C35.6553 668.112 36.335 667.928 36.7451 667.559C37.1553 667.189 37.3604 666.729 37.3604 666.179C37.3604 665.763 37.2549 665.385 37.0439 665.045C36.8389 664.699 36.543 664.424 36.1562 664.219C35.7695 664.014 35.3125 663.911 34.7852 663.911H31.8584V668.112ZM31.8584 662.373H34.5127C34.9521 662.373 35.3506 662.288 35.708 662.118C36.0654 661.948 36.3467 661.708 36.5518 661.397C36.7627 661.081 36.8682 660.715 36.8682 660.299C36.8682 659.76 36.6777 659.309 36.2969 658.945C35.9219 658.576 35.3447 658.392 34.5654 658.392H31.8584V662.373ZM44.9893 670.002C44.0283 670.002 43.1963 669.794 42.4932 669.378C41.79 668.962 41.248 668.376 40.8672 667.62C40.4922 666.858 40.3047 665.971 40.3047 664.957C40.3047 663.949 40.4893 663.062 40.8584 662.294C41.2334 661.526 41.7578 660.929 42.4316 660.501C43.1113 660.067 43.9082 659.851 44.8223 659.851C45.3789 659.851 45.918 659.941 46.4395 660.123C46.9609 660.305 47.4297 660.592 47.8457 660.984C48.2617 661.377 48.5898 661.887 48.8301 662.514C49.0762 663.141 49.1992 663.896 49.1992 664.781V665.467H41.3857V664.034H48.2148L47.3271 664.509C47.3271 663.905 47.2334 663.372 47.0459 662.909C46.8584 662.446 46.5771 662.086 46.2021 661.828C45.833 661.564 45.373 661.433 44.8223 661.433C44.2715 661.433 43.7998 661.564 43.4072 661.828C43.0205 662.092 42.7246 662.44 42.5195 662.874C42.3145 663.308 42.2119 663.782 42.2119 664.298V665.273C42.2119 665.947 42.3291 666.519 42.5635 666.987C42.7979 667.456 43.123 667.813 43.5391 668.06C43.9609 668.306 44.4502 668.429 45.0068 668.429C45.3701 668.429 45.6982 668.376 45.9912 668.271C46.29 668.165 46.5479 668.007 46.7646 667.796C46.9814 667.585 47.1455 667.324 47.2568 667.014L49.0674 667.356C48.9209 667.884 48.6631 668.347 48.2939 668.745C47.9248 669.144 47.459 669.454 46.8965 669.677C46.3398 669.894 45.7041 670.002 44.9893 670.002ZM50.5352 669.8V659.974H52.4336V669.8H50.5352ZM51.4932 658.462C51.1592 658.462 50.875 658.351 50.6406 658.128C50.4062 657.905 50.2891 657.639 50.2891 657.328C50.2891 657.012 50.4062 656.742 50.6406 656.52C50.875 656.297 51.1592 656.186 51.4932 656.186C51.8213 656.186 52.1025 656.297 52.3369 656.52C52.5771 656.742 52.6973 657.012 52.6973 657.328C52.6973 657.639 52.5771 657.905 52.3369 658.128C52.1025 658.351 51.8213 658.462 51.4932 658.462ZM54.2617 659.974H56.1602V670.441C56.166 671.098 56.0488 671.651 55.8086 672.103C55.5684 672.554 55.2168 672.894 54.7539 673.122C54.291 673.356 53.7227 673.474 53.0488 673.474H52.6621V671.83H52.9697C53.4268 671.83 53.7549 671.71 53.9541 671.47C54.1533 671.229 54.2559 670.884 54.2617 670.433V659.974ZM55.2021 658.462C54.8682 658.462 54.584 658.351 54.3496 658.128C54.1152 657.905 53.998 657.639 53.998 657.328C53.998 657.012 54.1152 656.742 54.3496 656.52C54.584 656.297 54.8682 656.186 55.2021 656.186C55.5303 656.186 55.8115 656.297 56.0459 656.52C56.2861 656.742 56.4062 657.012 56.4062 657.328C56.4062 657.639 56.2861 657.905 56.0459 658.128C55.8115 658.351 55.5303 658.462 55.2021 658.462ZM57.9883 669.8V659.974H59.8867V669.8H57.9883ZM58.9463 658.462C58.6123 658.462 58.3281 658.351 58.0938 658.128C57.8594 657.905 57.7422 657.639 57.7422 657.328C57.7422 657.012 57.8594 656.742 58.0938 656.52C58.3281 656.297 58.6123 656.186 58.9463 656.186C59.2744 656.186 59.5557 656.297 59.79 656.52C60.0303 656.742 60.1504 657.012 60.1504 657.328C60.1504 657.639 60.0303 657.905 59.79 658.128C59.5557 658.351 59.2744 658.462 58.9463 658.462ZM63.6133 663.973V669.8H61.7148V659.974H63.5605V661.591H63.6924C63.915 661.058 64.2637 660.636 64.7383 660.325C65.2129 660.009 65.8223 659.851 66.5664 659.851C67.2344 659.851 67.8174 659.991 68.3154 660.272C68.8193 660.548 69.209 660.961 69.4844 661.512C69.7656 662.062 69.9062 662.745 69.9062 663.56V669.8H68.0078V663.788C68.0078 663.079 67.8203 662.522 67.4453 662.118C67.0703 661.708 66.5605 661.503 65.916 661.503C65.4766 661.503 65.0811 661.603 64.7295 661.802C64.3838 661.995 64.1113 662.273 63.9121 662.637C63.7129 663 63.6133 663.445 63.6133 663.973ZM75.8301 673.685C74.6582 673.685 73.7354 673.465 73.0615 673.025C72.3877 672.586 71.9219 672.064 71.6641 671.461L73.2988 670.784C73.416 670.972 73.5713 671.171 73.7646 671.382C73.9639 671.593 74.2305 671.771 74.5645 671.918C74.8984 672.064 75.3291 672.138 75.8564 672.138C76.5771 672.138 77.1748 671.962 77.6494 671.61C78.124 671.265 78.3613 670.708 78.3613 669.94V668.016H78.2295C78.124 668.221 77.9629 668.452 77.7461 668.71C77.5293 668.962 77.2334 669.182 76.8584 669.369C76.4834 669.557 75.9941 669.65 75.3906 669.65C74.6172 669.65 73.9199 669.469 73.2988 669.105C72.6836 668.736 72.1914 668.197 71.8223 667.488C71.459 666.773 71.2773 665.895 71.2773 664.852C71.2773 663.809 71.4561 662.915 71.8135 662.171C72.1768 661.421 72.6689 660.847 73.29 660.448C73.9111 660.05 74.6172 659.851 75.4082 659.851C76.0176 659.851 76.5098 659.953 76.8848 660.158C77.2656 660.357 77.5615 660.592 77.7725 660.861C77.9834 661.131 78.1475 661.368 78.2646 661.573H78.4053V659.974H80.2598V670.02C80.2598 670.863 80.0635 671.555 79.6709 672.094C79.2842 672.633 78.7568 673.031 78.0889 673.289C77.4209 673.553 76.668 673.685 75.8301 673.685ZM75.8125 668.06C76.6387 668.06 77.2715 667.775 77.7109 667.207C78.1562 666.633 78.3789 665.839 78.3789 664.825C78.3789 664.163 78.2822 663.583 78.0889 663.085C77.8955 662.581 77.6084 662.188 77.2275 661.907C76.8467 661.62 76.375 661.477 75.8125 661.477C75.2383 661.477 74.7578 661.626 74.3711 661.925C73.9902 662.218 73.7031 662.619 73.5098 663.129C73.3164 663.633 73.2197 664.198 73.2197 664.825C73.2197 665.464 73.3164 666.029 73.5098 666.521C73.7031 667.008 73.9932 667.386 74.3799 667.655C74.7725 667.925 75.25 668.06 75.8125 668.06Z" fill="#F0F0F0"/>
<defs>
<filter id="filter0_b_2020_625" x="41.5672" y="-22.0002" width="229.733" height="141.1" filterUnits="userSpaceOnUse" color-interpolation-filters="sRGB">
<feFlood flood-opacity="0" result="BackgroundImageFix"/>
<feGaussianBlur in="BackgroundImageFix" stdDeviation="11.4"/>
<feComposite in2="SourceAlpha" operator="in" result="effect1_backgroundBlur_2020_625"/>
<feBlend mode="normal" in="SourceGraphic" in2="effect1_backgroundBlur_2020_625" result="shape"/>
</filter>
<filter id="filter1_b_2020_625" x="19.9705" y="535.559" width="68.6771" height="74.5741" filterUnits="userSpaceOnUse" color-interpolation-filters="sRGB">
<feFlood flood-opacity="0" result="BackgroundImageFix"/>
<feGaussianBlur in="BackgroundImageFix" stdDeviation="1.65"/>
<feComposite in2="SourceAlpha" operator="in" result="effect1_backgroundBlur_2020_625"/>
<feBlend mode="normal" in="SourceGraphic" in2="effect1_backgroundBlur_2020_625" result="shape"/>
</filter>
<linearGradient id="paint0_linear_2020_625" x1="155.75" y1="0.799805" x2="155.75" y2="458.8" gradientUnits="userSpaceOnUse">
<stop stop-color="#F0F0F0" stop-opacity="0.4"/>
<stop offset="1" stop-color="white" stop-opacity="0.2"/>
</linearGradient>
</defs>
</svg>
