<svg width="235" height="631" viewBox="0 0 235 631" fill="none" xmlns="http://www.w3.org/2000/svg">
<g filter="url(#filter0_b_2020_623)">
<path d="M43.5431 613.882C41.7758 617.817 36.188 617.817 34.4207 613.882L8.38755 555.908C6.90195 552.599 9.3222 548.86 12.9488 548.86L65.0151 548.86C68.6416 548.86 71.0619 552.599 69.5763 555.908L43.5431 613.882Z" fill="white" fill-opacity="0.23"/>
</g>
<path d="M26.4094 556.285L26.2915 556.372C26.2915 556.372 33.4037 564.582 33.4037 569.006C33.4037 574.472 23.2031 576.958 23.2031 576.958L23.2455 577.099C24.4025 576.818 31.6956 575.079 34.6503 576.442C39.9102 578.865 37.8102 589.671 37.8102 589.671L37.9578 589.698C38.1895 588.348 40.1034 578.758 43.4508 577.387C45.7018 576.465 48.7263 579.763 48.7263 579.763L48.8309 579.665C48.1361 578.936 45.5333 576.093 45.9873 574.079C46.6223 571.262 56.6162 568.307 56.6162 568.307L56.5738 568.169C55.8294 568.398 47.1327 571.058 45.066 569.482C42.9644 567.88 45.2005 561.799 45.2005 561.799L45.0584 561.751C44.8145 562.413 43.0217 566.999 39.9084 566.999C35.8779 566.999 28.8695 559.168 26.4094 556.285Z" fill="white"/>
<ellipse cx="38.9814" cy="627.973" rx="6.49699" ry="2.78443" fill="white"/>
<g filter="url(#filter1_b_2020_623)">
<path d="M57.3633 4.7998C57.3633 2.59067 59.1541 0.799805 61.3633 0.799805L230.363 0.799805C232.572 0.799805 234.363 2.59067 234.363 4.7998V92.2998C234.363 94.5089 232.572 96.2998 230.363 96.2998H61.3633C59.1541 96.2998 57.3633 94.5089 57.3633 92.2998V46.8281C57.3633 45.8439 57.0005 44.8943 56.3442 44.1609L51.2497 38.467C49.891 36.9484 49.891 34.6512 51.2497 33.1326L56.3442 27.4387C57.0005 26.7053 57.3633 25.7557 57.3633 24.7715V4.7998Z" fill="#3E3E3E" fill-opacity="0.3"/>
<path d="M57.8633 4.7998C57.8633 2.86681 59.4303 1.2998 61.3633 1.2998H230.363C232.296 1.2998 233.863 2.86681 233.863 4.7998V92.2998C233.863 94.2328 232.296 95.7998 230.363 95.7998H61.3633C59.4303 95.7998 57.8633 94.2328 57.8633 92.2998V46.8281C57.8633 45.7209 57.4551 44.6526 56.7169 43.8275L51.6223 38.1336C50.4335 36.8048 50.4335 34.7948 51.6223 33.466L56.7169 27.7721C57.4551 26.947 57.8633 25.8787 57.8633 24.7715V4.7998Z" stroke="url(#paint0_linear_2020_623)"/>
</g>
<path d="M122.824 40.0342C121.293 40.0342 119.922 39.6787 118.711 38.9678C117.508 38.2568 116.559 37.2334 115.863 35.8975C115.176 34.5615 114.832 32.9561 114.832 31.0811C114.832 29.1982 115.18 27.5889 115.875 26.2529C116.578 24.9092 117.531 23.8818 118.734 23.1709C119.945 22.46 121.309 22.1045 122.824 22.1045C123.785 22.1045 124.684 22.2412 125.52 22.5146C126.363 22.7881 127.113 23.1904 127.77 23.7217C128.426 24.2451 128.961 24.8896 129.375 25.6553C129.797 26.4131 130.074 27.2764 130.207 28.2451H127.02C126.934 27.7139 126.766 27.2451 126.516 26.8389C126.273 26.4326 125.969 26.0889 125.602 25.8076C125.242 25.5186 124.832 25.3037 124.371 25.1631C123.91 25.0146 123.414 24.9404 122.883 24.9404C121.93 24.9404 121.086 25.1787 120.352 25.6553C119.617 26.124 119.043 26.8193 118.629 27.7412C118.215 28.6553 118.008 29.7686 118.008 31.0811C118.008 32.4092 118.215 33.5303 118.629 34.4443C119.051 35.3506 119.625 36.0381 120.352 36.5068C121.086 36.9678 121.926 37.1982 122.871 37.1982C123.395 37.1982 123.883 37.1318 124.336 36.999C124.789 36.8584 125.199 36.6514 125.566 36.3779C125.941 36.0967 126.25 35.7607 126.492 35.3701C126.742 34.9717 126.918 34.5146 127.02 33.999H130.207C130.09 34.835 129.832 35.6201 129.434 36.3545C129.043 37.0811 128.527 37.7217 127.887 38.2764C127.254 38.8232 126.512 39.2529 125.66 39.5654C124.809 39.8779 123.863 40.0342 122.824 40.0342ZM135.427 32.1357V39.7998H132.345V22.3389H135.357V28.9365H135.521C135.826 28.1943 136.299 27.6084 136.939 27.1787C137.58 26.749 138.404 26.5342 139.412 26.5342C140.318 26.5342 141.107 26.7256 141.779 27.1084C142.459 27.4912 142.986 28.0498 143.361 28.7842C143.736 29.5186 143.924 30.4131 143.924 31.4678V39.7998H140.83V31.9482C140.83 31.0576 140.603 30.3701 140.15 29.8857C139.697 29.3936 139.064 29.1475 138.252 29.1475C137.705 29.1475 137.217 29.2646 136.787 29.499C136.365 29.7334 136.033 30.0732 135.791 30.5186C135.549 30.9561 135.427 31.4951 135.427 32.1357ZM146.437 39.7998V26.6982H149.519V39.7998H146.437ZM147.984 24.8584C147.492 24.8584 147.07 24.6943 146.718 24.3662C146.367 24.0381 146.191 23.6436 146.191 23.1826C146.191 22.7139 146.367 22.3154 146.718 21.9873C147.07 21.6592 147.492 21.4951 147.984 21.4951C148.468 21.4951 148.886 21.6592 149.238 21.9873C149.589 22.3154 149.765 22.71 149.765 23.1709C149.765 23.6396 149.589 24.0381 149.238 24.3662C148.886 24.6943 148.468 24.8584 147.984 24.8584ZM155.126 32.1357V39.7998H152.044V26.6982H155.068V28.9365H155.22C155.517 28.2021 155.982 27.6201 156.615 27.1904C157.255 26.7529 158.068 26.5342 159.052 26.5342C159.958 26.5342 160.747 26.7256 161.419 27.1084C162.091 27.4912 162.611 28.0537 162.978 28.7959C163.353 29.5303 163.54 30.4209 163.54 31.4678V39.7998H160.458V31.9482C160.458 31.0732 160.232 30.3896 159.779 29.8975C159.325 29.3975 158.7 29.1475 157.904 29.1475C157.365 29.1475 156.884 29.2646 156.462 29.499C156.048 29.7334 155.72 30.0732 155.478 30.5186C155.243 30.9561 155.126 31.4951 155.126 32.1357ZM169.839 40.0693C169.003 40.0693 168.253 39.9209 167.589 39.624C166.925 39.3193 166.401 38.874 166.019 38.2881C165.636 37.7021 165.444 36.9795 165.444 36.1201C165.444 35.3857 165.581 34.7764 165.855 34.292C166.128 33.8076 166.499 33.4209 166.968 33.1318C167.444 32.8428 167.98 32.624 168.573 32.4756C169.167 32.3193 169.78 32.21 170.413 32.1475C171.187 32.0615 171.812 31.9873 172.288 31.9248C172.765 31.8623 173.108 31.7607 173.319 31.6201C173.538 31.4795 173.647 31.2607 173.647 30.9639V30.9053C173.647 30.2725 173.46 29.7803 173.085 29.4287C172.71 29.0771 172.163 28.9014 171.444 28.9014C170.687 28.9014 170.085 29.0654 169.64 29.3936C169.202 29.7217 168.905 30.1084 168.749 30.5537L165.878 30.1436C166.105 29.3467 166.48 28.6826 167.003 28.1514C167.526 27.6123 168.163 27.21 168.913 26.9443C169.671 26.6709 170.507 26.5342 171.421 26.5342C172.046 26.5342 172.671 26.6084 173.296 26.7568C173.921 26.8975 174.495 27.1396 175.019 27.4834C175.542 27.8271 175.96 28.2881 176.272 28.8662C176.585 29.4443 176.741 30.167 176.741 31.0342V39.7998H173.776V37.9951H173.683C173.495 38.3545 173.23 38.6943 172.886 39.0146C172.55 39.3271 172.128 39.5811 171.62 39.7764C171.12 39.9717 170.526 40.0693 169.839 40.0693ZM170.624 37.7959C171.249 37.7959 171.788 37.6748 172.241 37.4326C172.694 37.1826 173.046 36.8545 173.296 36.4482C173.546 36.0342 173.671 35.585 173.671 35.1006V33.5654C173.569 33.6436 173.405 33.7178 173.179 33.7881C172.952 33.8506 172.694 33.9092 172.405 33.9639C172.116 34.0186 171.831 34.0654 171.55 34.1045C171.276 34.1436 171.038 34.1748 170.835 34.1982C170.374 34.2607 169.96 34.3662 169.593 34.5146C169.233 34.6553 168.948 34.8506 168.737 35.1006C168.526 35.3506 168.421 35.6748 168.421 36.0732C168.421 36.6436 168.628 37.0732 169.042 37.3623C169.456 37.6514 169.983 37.7959 170.624 37.7959Z" fill="#12FFF1"/>
<path fill-rule="evenodd" clip-rule="evenodd" d="M79.3388 57.2962C79.1871 58.0928 79 59.2031 79 59.3057C79 59.3659 80.1376 59.4174 82.1329 59.4475L85.2658 59.4948L84.6878 62.8517C83.9256 67.2784 83.1941 71.4852 82.9135 73.056C82.7889 73.7536 82.6868 74.4025 82.6868 74.4981C82.6868 74.6605 82.8015 74.6718 84.4603 74.6718C85.4356 74.6718 86.2337 74.6381 86.2337 74.5969C86.2337 74.5557 86.3786 73.694 86.5559 72.682C86.9709 70.3116 88.1253 63.65 88.4807 61.5751C88.6321 60.691 88.7798 59.8505 88.8089 59.7075L88.862 59.4475L91.958 59.4461C93.6608 59.4452 95.0993 59.4134 95.1546 59.3752C95.2319 59.3217 95.6608 57.195 95.6608 56.8651C95.6608 56.8292 92.0096 56.7998 87.547 56.7998H79.4333L79.3388 57.2962ZM187.995 56.8624C187.927 56.89 187.878 57.0787 187.878 57.3104C187.878 57.7248 187.748 58.5664 187.587 59.1929C187.499 59.5362 187.479 59.5515 187.15 59.5238L186.805 59.4948L186.572 58.3601L186.338 57.2253L185.413 57.1981C184.904 57.1831 184.457 57.2043 184.419 57.2454C184.38 57.2863 184.45 57.7667 184.573 58.3128C184.696 58.8589 184.797 59.3589 184.797 59.4239C184.798 59.5077 184.6 59.5421 184.116 59.5421H183.434L183.291 60.2986C183.213 60.7145 183.17 61.0762 183.196 61.1023C183.222 61.1283 184.099 61.1496 185.147 61.1496H187.051L186.99 61.3624C186.893 61.7032 186.611 62.0472 186.421 62.0576C186.324 62.0629 185.503 62.0735 184.597 62.0812L182.948 62.0952L182.836 62.7335C182.774 63.0845 182.718 63.4143 182.711 63.4663C182.703 63.5241 183.261 63.5792 184.145 63.6082L185.592 63.6555L184.985 64.1178C184.332 64.6156 183.882 64.8464 182.932 65.1728C182.355 65.3709 182.323 65.3984 182.251 65.7474C182.209 65.949 182.119 66.359 182.05 66.6586C181.981 66.9581 181.955 67.2219 181.992 67.2449C182.084 67.3026 183.1 67.0266 183.428 66.8551C183.575 66.7779 183.718 66.7372 183.745 66.7647C183.784 66.8046 183.473 68.6788 183.253 69.731L183.208 69.9437H186.605C189.494 69.9437 190.019 69.9647 190.117 70.084C190.209 70.1965 190.181 70.4825 189.976 71.526C189.836 72.242 189.7 72.8811 189.676 72.946C189.643 73.0353 189.165 73.0642 187.728 73.0642C185.551 73.0642 185.708 72.9764 186.021 74.0188L186.216 74.6718H188.867C190.326 74.6718 191.519 74.652 191.519 74.6279C191.519 74.6038 191.709 73.5294 191.942 72.2402C192.511 69.0868 192.53 68.8897 192.272 68.6469C192.068 68.4537 191.526 68.3362 190.842 68.3362H190.471L190.534 67.9816C190.694 67.0883 190.887 66.3504 190.961 66.3504C191.005 66.3504 191.185 66.4365 191.361 66.5417C191.801 66.8046 193.203 67.3147 193.339 67.2615C193.401 67.2377 193.558 66.9273 193.69 66.5715C193.821 66.2159 193.956 65.8552 193.99 65.77C194.039 65.6449 193.913 65.5683 193.337 65.3721C192.428 65.0623 191.586 64.58 191.052 64.0623L190.632 63.6555L192.169 63.6082L193.705 63.5609L193.864 62.8517C193.952 62.4616 194.011 62.1304 193.997 62.1156C193.982 62.1009 192.832 62.0888 191.441 62.0888C190.05 62.0888 188.895 62.0583 188.874 62.0211C188.853 61.9838 188.912 61.7733 189.006 61.5533L189.176 61.1532L191.304 61.1278L193.431 61.1023L193.54 60.7666C193.599 60.5819 193.678 60.2308 193.714 59.9865L193.78 59.5421H193.116C192.751 59.5421 192.452 59.5228 192.452 59.4992C192.452 59.4757 192.641 58.9889 192.872 58.4175C193.103 57.8461 193.292 57.3334 193.292 57.2783C193.292 57.214 192.939 57.178 192.31 57.178H191.327L191.235 57.4381C191.185 57.5811 190.986 58.113 190.794 58.6201L190.446 59.5421H190.049C189.83 59.5421 189.652 59.5277 189.652 59.5102C189.652 59.4926 189.715 59.0565 189.791 58.541C189.868 58.0254 189.931 57.4227 189.931 57.2017L189.932 56.7998L189.022 56.8073C188.521 56.8113 188.059 56.8362 187.995 56.8624ZM197.305 56.8801C197.305 56.9631 197.859 59.681 198.064 60.6059L198.164 61.055H199.322C200.364 61.055 200.478 61.0387 200.472 60.8896C200.468 60.7986 200.247 59.8518 199.982 58.7856L199.499 56.8471L198.402 56.8204C197.784 56.8054 197.305 56.8315 197.305 56.8801ZM177.942 58.431C176.898 65.4643 175.83 70.6998 174.662 74.5096C174.614 74.6654 174.687 74.6763 175.621 74.6514L176.631 74.6245L177.224 71.8822C177.55 70.374 177.857 68.9786 177.905 68.7813L177.994 68.4226L178.666 68.4503L179.338 68.4781L179.308 68.8563C179.291 69.0643 179.05 70.3927 178.771 71.8082C178.493 73.2237 178.265 74.4471 178.265 74.5268C178.265 74.6478 178.425 74.6718 179.235 74.6718H180.204L180.406 73.5607C180.518 72.9496 180.691 72.0028 180.792 71.4567C180.892 70.9106 181.206 69.1234 181.489 67.4852C182.215 63.2844 182.627 60.9232 182.89 59.4557C183.171 57.8949 183.171 57.8846 182.889 57.5993L182.66 57.3672H180.38H178.1L177.942 58.431ZM201.508 57.5768C201.509 57.6956 201.585 58.0906 201.677 58.4546L201.844 59.1165L205.572 59.1666C207.622 59.1941 209.31 59.2259 209.323 59.2375C209.414 59.3191 209.291 60.2439 208.955 62.0185L208.563 64.081H207.035C205.624 64.081 205.51 64.0683 205.554 63.9155C205.649 63.582 206.022 61.0602 205.981 61.0241C205.958 61.0035 205.498 60.7243 204.959 60.4034C204.095 59.8887 203.972 59.8399 203.914 59.9884C203.855 60.1379 203.185 63.8366 203.185 64.0071C203.186 64.0446 202.671 64.0871 202.043 64.1017L200.9 64.1283L200.787 64.7429C200.725 65.081 200.672 65.4746 200.67 65.6176L200.666 65.8776H201.739C202.329 65.8776 202.812 65.9095 202.812 65.9486C202.811 66.1713 201.501 73.3966 201.269 74.459C201.222 74.6712 201.226 74.6718 202.437 74.6718C203.106 74.6718 203.652 74.6427 203.652 74.6072C203.652 74.5716 203.881 73.327 204.161 71.8413C204.441 70.3556 204.778 68.5017 204.91 67.7216C205.042 66.9414 205.171 66.2075 205.196 66.0904C205.242 65.8806 205.263 65.8776 206.734 65.8776C207.555 65.8776 208.226 65.9003 208.226 65.9279C208.226 66.0546 207.442 70.4013 207.062 72.3832C206.829 73.5949 206.639 74.6056 206.639 74.629C206.639 74.6526 207.597 74.6718 208.768 74.6718H210.896L211.19 73.9389C211.352 73.5358 211.512 73.1316 211.545 73.0406C211.601 72.8886 211.513 72.8751 210.466 72.8751C209.331 72.8751 209.326 72.8743 209.377 72.6624C209.466 72.2941 210.344 67.7416 210.877 64.8847C212.147 58.0794 212.157 57.9987 211.794 57.63L211.581 57.4144L206.543 57.3877L201.506 57.3609L201.508 57.5768ZM179.715 59.0929C179.619 59.3996 179.221 61.9613 179.259 62.024C179.315 62.1154 180.332 62.1145 180.468 62.0229C180.524 61.9847 180.689 61.3413 180.834 60.5931C181.09 59.2728 181.092 59.2292 180.923 59.1038C180.7 58.9387 179.766 58.9303 179.715 59.0929ZM166.223 59.1323C166.219 59.3354 165.665 62.3008 165.616 62.3816C165.582 62.4363 164.767 62.4734 163.6 62.4734H161.641L162.268 63.3954C163.247 64.8359 163.112 64.7429 164.234 64.7429C164.95 64.7429 165.197 64.7736 165.197 64.863C165.197 64.9588 164.362 69.8742 163.662 73.8993C163.572 74.4186 163.569 74.6031 163.649 74.6344C163.708 74.6575 164.51 74.6647 165.43 74.6504L167.104 74.6245L167.319 73.3952C167.437 72.7191 167.809 70.5702 168.144 68.6199C168.48 66.6696 168.776 65.0002 168.802 64.9101C168.845 64.7617 169.055 64.7439 171.042 64.721L173.235 64.6956L169.807 61.9061C167.922 60.3718 166.344 59.1024 166.302 59.0851C166.259 59.0677 166.223 59.0889 166.223 59.1323ZM195.588 62.1188C195.509 62.4111 195.345 63.4031 195.345 63.5902C195.345 63.7888 195.382 63.7973 196.232 63.7973C197.049 63.7973 197.119 63.8118 197.119 63.9818C197.119 64.3778 196.248 69.4062 195.724 72.0379C195.42 73.563 195.189 74.8282 195.21 74.8495C195.231 74.8707 195.637 74.6401 196.113 74.3369C197.872 73.2171 200.107 71.5319 200.274 71.1993C200.387 70.9765 200.706 68.9134 200.639 68.8451C200.61 68.8159 200.321 69.0193 199.996 69.2971C199.315 69.8797 198.476 70.5111 198.383 70.5111C198.348 70.5111 198.342 70.4366 198.37 70.3456C198.502 69.9175 199.558 63.6756 199.69 62.5444L199.754 62.0006H197.687C196.112 62.0006 195.612 62.0288 195.588 62.1188ZM96.5344 62.3293C93.4695 62.8929 91.154 65.0105 90.3798 67.958C90.1373 68.881 90.1511 70.3806 90.4099 71.2243C90.9223 72.8953 92.2259 74.0931 94.1207 74.6339C94.8503 74.8423 97.5578 74.9257 98.5497 74.7704C100.161 74.5181 101.975 73.8625 102.053 73.5044C102.209 72.7794 102.479 71.051 102.441 71.0127C102.416 70.9873 102.15 71.1114 101.851 71.2884C101.149 71.7044 100.079 72.1471 99.2543 72.3631C98.2607 72.6234 96.4714 72.6092 95.6085 72.3341C94.4253 71.957 93.7441 71.2615 93.6226 70.3068C93.5874 70.029 93.5723 69.7061 93.5894 69.5891L93.6203 69.3764H98.3545H103.089L103.254 68.7492C103.485 67.8717 103.548 66.7187 103.41 65.894C103.099 64.0258 101.84 62.748 99.8994 62.3315C99.1146 62.1631 97.4445 62.1621 96.5344 62.3293ZM106.17 62.544C106.141 62.7393 106.051 63.4309 105.972 64.081C105.837 65.1787 105.437 67.6016 104.431 73.4115C104.33 73.9925 104.248 74.5138 104.248 74.5698C104.248 74.6392 104.814 74.6718 106.014 74.6718H107.78L107.834 74.4117C107.864 74.2687 108.162 72.5599 108.497 70.6142C108.839 68.6271 109.184 66.8975 109.284 66.6678C109.704 65.7067 110.988 64.8166 112.134 64.6922C113.301 64.5656 114.354 65.1343 114.598 66.0216C114.809 66.7934 114.761 67.1908 113.817 72.4969C113.637 73.511 113.489 74.4153 113.489 74.5063C113.488 74.6581 113.634 74.6718 115.25 74.6718H117.011L117.16 73.8444C117.652 71.1108 118.27 67.433 118.338 66.8362C118.505 65.3664 118.088 63.9806 117.257 63.2393C116.371 62.4497 115.344 62.1442 113.817 62.216C113.251 62.2425 112.536 62.334 112.228 62.4192C111.396 62.6492 110.425 63.1517 109.869 63.64L109.376 64.0727L108.935 63.808C107.994 63.2425 106.345 62.256 106.286 62.2233C106.252 62.2044 106.2 62.3487 106.17 62.544ZM126.882 62.3395C123.294 62.9011 120.64 64.999 119.922 67.8403C119.674 68.8228 119.677 70.2768 119.927 71.099C120.869 74.1895 124.443 75.5464 129.076 74.5724C130.397 74.2946 130.841 74.1264 130.894 73.884C130.918 73.7712 131.024 73.1683 131.13 72.5442C131.236 71.9201 131.347 71.2824 131.378 71.1272L131.434 70.845L131.051 71.1953C129.987 72.1691 128.104 72.6665 126.459 72.4086C125.566 72.2686 124.906 71.9599 124.328 71.4126C122.55 69.7272 123.438 66.5071 126.039 65.2082C127.339 64.5595 128.572 64.4069 129.847 64.737C130.73 64.966 131.219 65.2163 131.747 65.709C131.974 65.921 132.181 66.0722 132.208 66.0452C132.267 65.9855 132.714 63.3622 132.715 63.0682C132.716 62.8927 132.616 62.828 132.09 62.6635C130.575 62.1893 128.62 62.0677 126.882 62.3395ZM139.343 62.3775C137.65 62.7494 136.38 63.4091 135.323 64.4655C133.882 65.9048 133.144 67.6927 133.159 69.7053C133.186 73.2773 136.016 75.2299 140.623 74.8547C142.502 74.7017 144.884 73.9655 144.992 73.5044C145.098 73.05 145.41 71.2186 145.41 71.0456C145.41 70.8753 145.396 70.8722 145.246 71.0087C144.962 71.2677 143.428 72.0002 142.75 72.2012C141.739 72.5007 140.779 72.6208 139.897 72.5582C137.756 72.4062 136.546 71.4544 136.544 69.9201L136.543 69.3764H141.291H146.04L146.203 68.7381C146.292 68.3871 146.386 67.6956 146.41 67.2015C146.54 64.6172 145.24 62.8478 142.835 62.3315C141.946 62.1407 140.323 62.1621 139.343 62.3775ZM149.105 62.5915C149.077 62.8126 148.987 63.5254 148.906 64.1755C148.771 65.2448 148.216 68.6068 147.463 72.9224C147.309 73.8065 147.182 74.5618 147.183 74.6009C147.183 74.6399 147.98 74.6718 148.955 74.6718C150.716 74.6718 150.727 74.6705 150.772 74.459C150.822 74.2226 151.099 72.6225 151.669 69.2818C151.906 67.8911 152.123 66.9004 152.248 66.6341C152.83 65.3988 154.454 64.5139 155.8 64.6988C157.01 64.8653 157.637 65.5978 157.637 66.8439C157.636 67.4901 157.6 67.7299 156.897 71.7678C156.637 73.2651 156.424 74.5311 156.424 74.581C156.424 74.6358 157.123 74.6718 158.19 74.6718H159.956L160.007 74.4117C160.035 74.2687 160.339 72.556 160.681 70.6057C161.363 66.7229 161.442 65.7724 161.161 64.8375C160.818 63.6978 160.008 62.8545 158.876 62.4582C158.333 62.2683 158.065 62.2373 156.984 62.2391C155.931 62.2408 155.609 62.2773 155.027 62.4608C154.068 62.7628 153.376 63.1339 152.813 63.6466L152.336 64.0805L150.931 63.2354C150.158 62.7707 149.442 62.3451 149.34 62.2898C149.171 62.1983 149.15 62.2251 149.105 62.5915ZM178.953 63.7212C178.852 63.8866 178.283 66.8103 178.34 66.8684C178.417 66.9458 179.649 66.9262 179.697 66.8469C179.765 66.7344 180.225 64.1285 180.225 63.8551C180.225 63.6145 180.209 63.6082 179.623 63.6082C179.258 63.6082 178.995 63.6525 178.953 63.7212ZM187.204 64.3202L186.482 65.0266H187.981C188.806 65.0266 189.467 64.9947 189.45 64.9557C189.432 64.9166 189.25 64.5983 189.045 64.2483C188.683 63.6312 188.66 63.6119 188.298 63.6129C187.961 63.6138 187.855 63.6821 187.204 64.3202ZM96.7808 64.4C96.0463 64.6048 95.6293 64.8589 95.0432 65.4586C94.4957 66.0186 93.9126 67.0135 94.0245 67.1968C94.0529 67.2434 95.412 67.2862 97.0477 67.2921C99.6275 67.3013 100.035 67.2834 100.139 67.156C100.314 66.9435 100.211 65.9147 99.9676 65.4312C99.4841 64.4709 98.1149 64.0279 96.7808 64.4ZM139.716 64.4054C139.041 64.5958 138.504 64.9181 137.982 65.4473C137.495 65.9407 136.861 67.0346 136.964 67.2037C136.997 67.2574 138.233 67.2841 140.071 67.2708L143.123 67.2488L143.151 66.7086C143.191 65.9323 143.036 65.4643 142.582 64.986C141.96 64.3312 140.807 64.0978 139.716 64.4054ZM184.612 66.5896C184.612 66.617 184.868 66.7521 185.181 66.8897L185.75 67.1398L185.69 67.5253C185.657 67.7373 185.607 68.0006 185.58 68.1105C185.535 68.2955 185.579 68.3146 186.168 68.3676C186.833 68.4274 188.329 68.3841 188.409 68.3028C188.452 68.2594 188.804 66.7711 188.809 66.6105C188.811 66.5714 187.867 66.5396 186.712 66.5396C185.557 66.5396 184.612 66.5621 184.612 66.5896ZM181.701 70.7489C181.63 70.8211 181.864 72.1155 181.968 72.2202C182.022 72.2748 183.357 72.3004 185.358 72.2853L188.66 72.2605L188.827 71.5986C188.919 71.2345 188.995 70.8835 188.996 70.8184C188.998 70.7259 188.212 70.7002 185.374 70.7002C183.38 70.7002 181.728 70.7222 181.701 70.7489Z" fill="#F6FAFB"/>
<path d="M38.8633 29.9124L33.0898 35.6859L38.8633 41.4594L44.6368 35.6859L38.8633 29.9124ZM39.8633 548.776L39.8633 546.772L37.8633 546.772L37.8633 548.776L39.8633 548.776ZM39.8633 542.764L39.8633 538.755L37.8633 538.755L37.8633 542.764L39.8633 542.764ZM39.8633 534.747L39.8633 530.738L37.8633 530.738L37.8633 534.747L39.8633 534.747ZM39.8633 526.73L39.8633 522.721L37.8633 522.721L37.8633 526.73L39.8633 526.73ZM39.8633 518.712L39.8633 514.704L37.8633 514.704L37.8633 518.712L39.8633 518.712ZM39.8633 510.695L39.8633 506.687L37.8633 506.687L37.8633 510.695L39.8633 510.695ZM39.8633 502.678L39.8633 498.67L37.8633 498.67L37.8633 502.678L39.8633 502.678ZM39.8633 494.661L39.8633 490.653L37.8633 490.653L37.8633 494.661L39.8633 494.661ZM39.8633 486.644L39.8633 482.636L37.8633 482.636L37.8633 486.644L39.8633 486.644ZM39.8633 478.627L39.8633 474.619L37.8633 474.619L37.8633 478.627L39.8633 478.627ZM39.8633 470.61L39.8633 466.602L37.8633 466.602L37.8633 470.61L39.8633 470.61ZM39.8633 462.593L39.8633 458.585L37.8633 458.585L37.8633 462.593L39.8633 462.593ZM39.8633 454.576L39.8633 450.568L37.8633 450.568L37.8633 454.576L39.8633 454.576ZM39.8633 446.559L39.8633 442.551L37.8633 442.551L37.8633 446.559L39.8633 446.559ZM39.8633 438.542L39.8633 434.534L37.8633 434.534L37.8633 438.542L39.8633 438.542ZM39.8633 430.525L39.8633 426.516L37.8633 426.516L37.8633 430.525L39.8633 430.525ZM39.8633 422.508L39.8633 418.499L37.8633 418.499L37.8633 422.508L39.8633 422.508ZM39.8633 414.491L39.8633 410.482L37.8633 410.482L37.8633 414.491L39.8633 414.491ZM39.8633 406.474L39.8633 402.465L37.8633 402.465L37.8633 406.474L39.8633 406.474ZM39.8633 398.457L39.8633 394.448L37.8633 394.448L37.8633 398.457L39.8633 398.457ZM39.8633 390.44L39.8633 386.431L37.8633 386.431L37.8633 390.44L39.8633 390.44ZM39.8633 382.423L39.8633 378.414L37.8633 378.414L37.8633 382.423L39.8633 382.423ZM39.8633 374.406L39.8633 370.397L37.8633 370.397L37.8633 374.406L39.8633 374.406ZM39.8633 366.389L39.8633 362.38L37.8633 362.38L37.8633 366.389L39.8633 366.389ZM39.8633 358.372L39.8633 354.363L37.8633 354.363L37.8633 358.372L39.8633 358.372ZM39.8633 350.355L39.8633 346.346L37.8633 346.346L37.8633 350.355L39.8633 350.355ZM39.8633 342.338L39.8633 338.329L37.8633 338.329L37.8633 342.338L39.8633 342.338ZM39.8633 334.321L39.8633 330.312L37.8633 330.312L37.8633 334.321L39.8633 334.321ZM39.8633 326.304L39.8633 322.295L37.8633 322.295L37.8633 326.304L39.8633 326.304ZM39.8633 318.287L39.8633 314.278L37.8633 314.278L37.8633 318.287L39.8633 318.287ZM39.8633 310.27L39.8633 306.261L37.8633 306.261L37.8633 310.27L39.8633 310.27ZM39.8633 302.253L39.8633 298.244L37.8633 298.244L37.8633 302.253L39.8633 302.253ZM39.8633 294.236L39.8633 290.227L37.8633 290.227L37.8633 294.236L39.8633 294.236ZM39.8633 286.218L39.8633 282.21L37.8633 282.21L37.8633 286.218L39.8633 286.218ZM39.8633 278.201L39.8633 274.193L37.8633 274.193L37.8633 278.201L39.8633 278.201ZM39.8633 270.184L39.8633 266.176L37.8633 266.176L37.8633 270.184L39.8633 270.184ZM39.8633 262.167L39.8633 258.159L37.8633 258.159L37.8633 262.167L39.8633 262.167ZM39.8633 254.15L39.8633 250.142L37.8633 250.142L37.8633 254.15L39.8633 254.15ZM39.8633 246.133L39.8633 242.125L37.8633 242.125L37.8633 246.133L39.8633 246.133ZM39.8633 238.116L39.8633 234.108L37.8633 234.108L37.8633 238.116L39.8633 238.116ZM39.8633 230.099L39.8633 226.091L37.8633 226.091L37.8633 230.099L39.8633 230.099ZM39.8633 222.082L39.8633 218.074L37.8633 218.074L37.8633 222.082L39.8633 222.082ZM39.8633 214.065L39.8633 210.057L37.8633 210.057L37.8633 214.065L39.8633 214.065ZM39.8633 206.048L39.8633 202.04L37.8633 202.04L37.8633 206.048L39.8633 206.048ZM39.8633 198.031L39.8633 194.023L37.8633 194.023L37.8633 198.031L39.8633 198.031ZM39.8633 190.014L39.8633 186.006L37.8633 186.006L37.8633 190.014L39.8633 190.014ZM39.8633 181.997L39.8633 177.989L37.8633 177.989L37.8633 181.997L39.8633 181.997ZM39.8633 173.98L39.8633 169.972L37.8633 169.972L37.8633 173.98L39.8633 173.98ZM39.8633 165.963L39.8633 161.955L37.8633 161.955L37.8633 165.963L39.8633 165.963ZM39.8633 157.946L39.8633 153.938L37.8633 153.937L37.8633 157.946L39.8633 157.946ZM39.8633 149.929L39.8633 145.92L37.8633 145.92L37.8633 149.929L39.8633 149.929ZM39.8633 141.912L39.8633 137.903L37.8633 137.903L37.8633 141.912L39.8633 141.912ZM39.8633 133.895L39.8633 129.886L37.8633 129.886L37.8633 133.895L39.8633 133.895ZM39.8633 125.878L39.8633 121.869L37.8633 121.869L37.8633 125.878L39.8633 125.878ZM39.8633 117.861L39.8633 113.852L37.8633 113.852L37.8633 117.861L39.8633 117.861ZM39.8633 109.844L39.8633 105.835L37.8633 105.835L37.8633 109.844L39.8633 109.844ZM39.8633 101.827L39.8633 97.8183L37.8633 97.8183L37.8633 101.827L39.8633 101.827ZM39.8633 93.8098L39.8633 89.8013L37.8633 89.8013L37.8633 93.8098L39.8633 93.8098ZM39.8633 85.7928L39.8633 81.7842L37.8633 81.7842L37.8633 85.7928L39.8633 85.7928ZM39.8633 77.7758L39.8633 73.7672L37.8633 73.7672L37.8633 77.7758L39.8633 77.7758ZM39.8633 69.7587L39.8633 65.7502L37.8633 65.7502L37.8633 69.7587L39.8633 69.7587ZM39.8633 61.7417L39.8633 57.7332L37.8633 57.7332L37.8633 61.7417L39.8633 61.7417ZM39.8633 53.7247L39.8633 49.7161L37.8633 49.7161L37.8633 53.7247L39.8633 53.7247ZM39.8633 45.7076L39.8633 41.6991L37.8633 41.6991L37.8633 45.7076L39.8633 45.7076ZM39.8633 37.6906L39.8633 35.6859L37.8633 35.6859L37.8633 37.6906L39.8633 37.6906Z" fill="white" fill-opacity="0.5"/>
<defs>
<filter id="filter0_b_2020_623" x="4.64336" y="545.559" width="68.6771" height="74.5741" filterUnits="userSpaceOnUse" color-interpolation-filters="sRGB">
<feFlood flood-opacity="0" result="BackgroundImageFix"/>
<feGaussianBlur in="BackgroundImageFix" stdDeviation="1.65"/>
<feComposite in2="SourceAlpha" operator="in" result="effect1_backgroundBlur_2020_623"/>
<feBlend mode="normal" in="SourceGraphic" in2="effect1_backgroundBlur_2020_623" result="shape"/>
</filter>
<filter id="filter1_b_2020_623" x="27.4305" y="-22.0002" width="229.733" height="141.1" filterUnits="userSpaceOnUse" color-interpolation-filters="sRGB">
<feFlood flood-opacity="0" result="BackgroundImageFix"/>
<feGaussianBlur in="BackgroundImageFix" stdDeviation="11.4"/>
<feComposite in2="SourceAlpha" operator="in" result="effect1_backgroundBlur_2020_623"/>
<feBlend mode="normal" in="SourceGraphic" in2="effect1_backgroundBlur_2020_623" result="shape"/>
</filter>
<linearGradient id="paint0_linear_2020_623" x1="141.613" y1="0.799805" x2="141.613" y2="458.8" gradientUnits="userSpaceOnUse">
<stop stop-color="#F0F0F0" stop-opacity="0.4"/>
<stop offset="1" stop-color="white" stop-opacity="0.2"/>
</linearGradient>
</defs>
</svg>
