<svg width="174" height="41" viewBox="0 0 174 41" fill="none" xmlns="http://www.w3.org/2000/svg">
<mask id="mask0_3018_2070" style="mask-type:luminance" maskUnits="userSpaceOnUse" x="0" y="0" width="174" height="41">
<path d="M0 0H174V41H0V0Z" fill="white"/>
</mask>
<g mask="url(#mask0_3018_2070)">
<path d="M25.7635 30.1843L18.3561 33.3955V33.074C16.9277 33.4385 15.3457 33.6489 13.8468 33.7163C6.88153 33.6489 1.3528 30.014 1.28818 25.6887V24.082C3.5759 27.3991 8.2336 29.6214 13.8468 29.5414C15.7467 29.6214 17.6893 29.3221 19.3219 28.8991L19.966 27.2932C18.0301 27.8695 15.9164 28.2702 13.8475 28.2562C6.88153 28.2702 1.3528 24.6353 1.28891 20.2293V18.9448C3.5759 22.0116 8.22332 24.2338 13.8475 24.0827C16.3776 24.2346 18.8519 23.7035 20.9318 22.7975L21.2549 21.1923C19.222 22.2612 16.5877 22.882 13.8475 22.7975C6.88153 22.882 1.3528 19.2471 1.28891 14.7707V13.4855C3.5759 16.6233 8.2336 18.8463 13.8475 18.9448C17.0379 18.8463 20.0629 18.0056 22.5431 16.6966L22.8648 14.7699C20.6145 16.4329 17.3287 17.5048 13.8475 17.6596C6.88153 17.5048 1.35354 13.8692 1.28891 9.31131C1.3528 4.9764 6.88153 1.34077 13.8475 1.28373C17.9999 1.34151 21.8564 2.79339 24.1529 5.13715L24.3769 5.50826L26 5.51567L25.7635 5.13715C23.4795 2.04301 18.9114 0 13.8475 0C6.13977 0 0 4.23565 0 9.31205V26.0094C0.271002 30.9651 6.27049 35 13.8475 35C18.8519 35 23.3495 33.037 25.7635 30.1843Z" fill="#F0F0F0"/>
<path d="M23.0177 41L25.594 30.0353L18.1875 33.2602L22.6968 14.2335H14L16.2539 4.88087H43.9518L41.6972 14.2335H32.6802L30.7473 19.3934L40.7307 15.2006L23.0177 41ZM27.5269 27.7774L26.2388 34.2273L36.8663 18.1034L28.1703 21.9733L32.0354 12.9435H40.7307L42.3412 6.17083H17.2196L15.6091 12.9435H24.3058L20.1183 31.0031L27.5262 27.7789L27.5269 27.7774ZM57.462 11.0263C57.3838 12.1369 56.985 13.0116 56.2655 13.6504C55.5465 14.2878 54.5989 14.6065 53.4229 14.6065C52.1362 14.6065 51.1244 14.161 50.3874 13.2701C49.6504 12.3791 49.2817 11.1563 49.2812 9.60142V8.9697C49.2812 7.97753 49.451 7.10305 49.7906 6.34627C50.1312 5.59047 50.6171 5.0106 51.2483 4.60665C51.88 4.20173 52.6141 3.99951 53.4505 4C54.6082 4 55.5409 4.31918 56.2488 4.95753C56.9562 5.59489 57.3652 6.4905 57.4758 7.64435H55.4082C55.3573 6.97799 55.177 6.49468 54.8675 6.19442C54.557 5.89466 54.0847 5.74478 53.4505 5.74478C52.7616 5.74478 52.2458 5.99859 51.9033 6.50623C51.5613 7.01484 51.3854 7.80308 51.3757 8.87092V9.6508C51.3762 10.7663 51.5404 11.5816 51.8684 12.0966C52.1973 12.6126 52.7157 12.8703 53.4236 12.8698C54.0621 12.8698 54.5385 12.7199 54.8529 12.4202C55.1678 12.1194 55.3483 11.655 55.3944 11.027L57.462 11.0263ZM68.1382 9.53729C68.1382 10.5545 67.9636 11.4455 67.6142 12.2101C67.2649 12.9762 66.7652 13.5671 66.115 13.9829C65.4649 14.3986 64.7194 14.6065 63.8786 14.6065C63.0475 14.6065 62.3055 14.4011 61.6524 13.9903C61.0003 13.5785 60.495 12.9912 60.1365 12.2285C59.7779 11.4659 59.5965 10.5874 59.5921 9.59331V9.08322C59.5921 8.06697 59.7702 7.17259 60.1263 6.40008C60.4824 5.62757 60.9855 5.03419 61.6357 4.61992C62.2858 4.20713 63.0291 4.00049 63.8655 4C64.7015 4 65.4445 4.20664 66.0947 4.61992C66.7448 5.03419 67.2479 5.62757 67.604 6.40008C67.9602 7.17259 68.1382 8.06451 68.1382 9.07585V9.53729ZM66.043 9.06921C66.043 7.98662 65.8547 7.16423 65.4783 6.60205C65.1013 6.03938 64.5637 5.75804 63.8655 5.75804C63.1713 5.75804 62.6356 6.03569 62.2586 6.591C61.8821 7.1463 61.6917 7.96082 61.6873 9.03457V9.53802C61.6873 10.5921 61.8756 11.4096 62.2521 11.9904C62.6286 12.5723 63.1708 12.8632 63.8786 12.8632C64.5724 12.8632 65.1056 12.5831 65.4783 12.0229C65.8504 11.4627 66.0386 10.6459 66.043 9.57267V9.06921ZM72.9138 14.465H70.847V4.14153H72.9138V14.465ZM84.0668 14.465H81.9985L77.9732 7.6731V14.465H75.9056V4.14153H77.9732L82.0057 10.9481V4.14153H84.0668V14.465ZM94.302 5.86493H91.2287V14.465H89.1611V5.86493H86.1278V4.14153H94.302V5.86493ZM102.594 9.99135H98.6242V12.7563H103.283V14.465H96.5559V4.14153H103.269V5.86493H98.6242V8.32471H102.594V9.99135ZM107.639 12.7563H112.03V14.465H105.571V4.14153H107.639V12.7563ZM120.328 9.99062H116.358V12.7563H121.017V14.465H114.291V4.14153H121.004V5.86493H116.358V8.32471H120.328V9.99062ZM131.246 13.1603C130.874 13.6187 130.348 13.9743 129.668 14.2269C128.988 14.4804 128.235 14.6072 127.407 14.6072C126.539 14.6072 125.777 14.4121 125.122 14.022C124.467 13.6318 123.962 13.0657 123.606 12.3236C123.25 11.5816 123.067 10.7096 123.058 9.70756V9.00508C123.058 7.97458 123.227 7.08266 123.565 6.32932C123.903 5.57548 124.39 4.99881 125.025 4.59928C125.662 4.19976 126.407 4 127.262 4C128.452 4 129.383 4.2919 130.054 4.87571C130.725 5.45951 131.122 6.30917 131.246 7.42469H129.233C129.141 6.83351 128.938 6.40106 128.623 6.12734C128.308 5.85313 127.875 5.71603 127.324 5.71603C126.621 5.71603 126.086 5.98778 125.718 6.53129C125.35 7.0748 125.164 7.88318 125.16 8.95643V9.61542C125.16 10.698 125.36 11.5157 125.76 12.0686C126.159 12.6214 126.745 12.8978 127.517 12.8978C128.294 12.8978 128.848 12.7278 129.178 12.3877V10.6083H127.297V9.0412H131.246V13.1603ZM137.711 10.6865H136.065V14.465H133.996V4.14153H137.725C138.911 4.14153 139.825 4.41353 140.468 4.95753C141.111 5.50054 141.433 6.26838 141.433 7.26104C141.433 7.96573 141.285 8.55298 140.989 9.02277C140.692 9.49355 140.243 9.86826 139.641 10.1469L141.812 14.3655V14.465H139.593L137.711 10.6865ZM136.065 8.96307H137.731C138.25 8.96307 138.653 8.82719 138.938 8.55543C139.223 8.28319 139.365 7.90848 139.365 7.43132C139.365 6.94482 139.231 6.562 138.962 6.28288C138.694 6.00424 138.281 5.86493 137.725 5.86493H136.064L136.065 8.96307ZM149.746 12.3376H146.12L145.431 14.465H143.232L146.968 4.14153H148.884L152.64 14.465H150.442L149.746 12.3376ZM146.678 10.6157H149.187L147.926 6.75022L146.678 10.6157ZM156.721 10.828V14.465H154.653V4.14153H158.568C159.321 4.14153 159.984 4.28355 160.556 4.56759C161.129 4.85064 161.569 5.25361 161.876 5.77647C162.184 6.29836 162.338 6.89273 162.338 7.55958C162.338 8.57091 162.002 9.36824 161.328 9.95155C160.655 10.5363 159.723 10.8285 158.534 10.828H156.721ZM156.721 9.10459H158.568C159.115 9.10459 159.532 8.9724 159.819 8.70802C160.106 8.44266 160.25 8.06451 160.25 7.57358C160.25 7.06742 160.105 6.65832 159.815 6.34627C159.526 6.0352 159.126 5.87476 158.616 5.86493H156.721V9.10459ZM173 14.465H170.932V10.0407H166.901V14.465H164.833V4.14153H166.901V8.32471H170.932V4.14153H173V14.465Z" fill="#F0F0F0"/>
<path d="M75 29V22H73.8744V29H75ZM72.2004 24.0691V29H71.0755V24.0684L72.2004 24.0691ZM71.0003 22.7749C71.0003 22.6082 71.0561 22.47 71.1676 22.3602C71.2829 22.2477 71.4411 22.1915 71.6422 22.1915C71.8409 22.1915 71.9977 22.2477 72.1125 22.3602C72.2269 22.47 72.2841 22.6082 72.2841 22.7749C72.2861 22.8512 72.2719 22.9271 72.2423 22.9978C72.2128 23.0684 72.1686 23.1323 72.1125 23.1854C71.9977 23.2942 71.8409 23.3488 71.6422 23.3493C71.4411 23.3493 71.2829 23.2944 71.1676 23.1847C71.1124 23.1314 71.069 23.0674 71.0402 22.9969C71.0114 22.9264 70.9978 22.8508 71.0003 22.7749Z" fill="#F0F0F0"/>
<path fill-rule="evenodd" clip-rule="evenodd" d="M52.819 26.3566C52.8862 26.329 52.9501 26.2983 53.0106 26.2644C53.2792 26.1142 53.4824 25.9204 53.6204 25.6831C53.7583 25.4423 53.8272 25.1778 53.8272 24.8896C53.8272 24.5626 53.7711 24.2804 53.6588 24.043C53.5521 23.8079 53.3847 23.6055 53.1739 23.4566C52.9423 23.2901 52.6793 23.1724 52.4008 23.1108C52.0638 23.0332 51.7188 22.9962 51.373 23.0003H49V30H51.5697C52.0783 30 52.5138 29.923 52.8763 29.7689C53.2378 29.612 53.5146 29.3828 53.7067 29.0815C53.9022 28.7802 54 28.407 54 27.9618C54 27.6731 53.939 27.4037 53.8171 27.1538C53.6934 26.9014 53.5002 26.6896 53.2603 26.5434C53.1239 26.4582 52.975 26.3952 52.819 26.3566ZM50.2057 26.8362H51.6227C51.9005 26.8362 52.1262 26.8827 52.2999 26.9757C52.4727 27.0658 52.599 27.1957 52.6789 27.3652C52.7587 27.5319 52.7989 27.729 52.7994 27.9567C52.7994 28.1747 52.7529 28.3653 52.66 28.5286C52.5705 28.6884 52.4342 28.8151 52.2513 28.9086C52.0693 28.9982 51.8419 29.043 51.569 29.043H50.2057V26.8362ZM50.2057 25.957V23.9617H51.373C51.6575 23.9617 51.8913 23.9953 52.0742 24.0627C52.2595 24.1295 52.3972 24.2368 52.4872 24.3846C52.5768 24.5318 52.6215 24.7224 52.6215 24.9564C52.6215 25.1676 52.5734 25.3488 52.4771 25.4999C52.3812 25.6477 52.2404 25.7615 52.0546 25.8415C51.8721 25.9185 51.6495 25.957 51.3868 25.957H50.2057Z" fill="#F0F0F0"/>
<path d="M57.2637 25.645V29H56V24.0905H57.2067L57.2415 24.6672L57.2519 24.6528L57.2637 24.6349C57.4075 24.4356 57.5859 24.28 57.7989 24.168C58.0167 24.0555 58.2666 23.9995 58.5489 24C58.6261 24 58.7082 24.0059 58.7955 24.0178C58.8864 24.0302 58.9545 24.0439 59 24.059L58.9897 25.0752C58.8198 25.0515 58.648 25.0393 58.4759 25.0388C58.2592 25.0388 58.0687 25.066 57.9043 25.1204C57.7479 25.1673 57.606 25.2447 57.4897 25.3467C57.3936 25.4328 57.3169 25.5344 57.2637 25.645Z" fill="#F0F0F0"/>
<path fill-rule="evenodd" clip-rule="evenodd" d="M61.6851 28.572C61.7328 28.5271 61.7771 28.4813 61.8183 28.4346L61.8228 28.4696C61.8514 28.6479 61.8901 28.7949 61.939 28.9108H63V28.8394C62.9377 28.6958 62.893 28.5446 62.8669 28.3895C62.8367 28.1935 62.8224 27.9952 62.824 27.7967V25.6529C62.824 25.2847 62.7453 24.9787 62.5877 24.7348C62.4328 24.488 62.2096 24.2955 61.9475 24.1825C61.6782 24.0613 61.3687 24.0004 61.0189 24C60.7268 24 60.4636 24.04 60.2294 24.1199C59.9943 24.2007 59.7924 24.3107 59.6236 24.4499C59.4543 24.5891 59.3253 24.7481 59.2366 24.9268C59.1506 25.0973 59.105 25.2866 59.1035 25.4791H60.1346C60.1346 25.3511 60.169 25.2366 60.2378 25.1356C60.3067 25.035 60.4025 24.9551 60.5255 24.8958C60.6488 24.8361 60.7949 24.8062 60.9638 24.8062C61.1469 24.8062 61.2986 24.8404 61.4189 24.9086C61.5423 24.9773 61.6341 25.0738 61.6942 25.1982C61.7544 25.3235 61.7845 25.4721 61.7845 25.6441V25.9782H61.1222C60.7845 25.9782 60.4839 26.0141 60.2203 26.086C59.9567 26.1533 59.7333 26.2541 59.5502 26.3884C59.3697 26.5222 59.2323 26.6885 59.1379 26.8875C59.0433 27.0997 58.9962 27.3313 59.0002 27.565C59.0002 27.8389 59.0675 28.0839 59.2022 28.2999C59.3364 28.5141 59.5225 28.6849 59.7606 28.8124C59.9987 28.9373 60.2692 28.9997 60.5722 28.9997C60.9819 29.0079 61.3795 28.8552 61.6851 28.572ZM61.7066 27.6809C61.7369 27.6364 61.7628 27.5927 61.7845 27.5496V26.6423H61.2001C61.0079 26.6423 60.8389 26.6616 60.693 26.7002C60.5626 26.7289 60.4387 26.7833 60.3281 26.8605C60.2307 26.9319 60.1575 27.0181 60.1086 27.1192C60.0601 27.2202 60.0359 27.3347 60.0359 27.4627C60.0359 27.5902 60.0645 27.7074 60.1216 27.8143C60.1801 27.9193 60.2667 28.0045 60.3709 28.0594C60.4826 28.1187 60.6172 28.1483 60.7748 28.1483C60.9865 28.1483 61.1711 28.1039 61.3287 28.015C61.4888 27.9229 61.6148 27.8116 61.7066 27.6809Z" fill="#F0F0F0"/>
<path d="M67.8632 27.3154C67.9173 27.4016 67.9444 27.4981 67.9444 27.605C67.9444 27.7209 67.9099 27.8248 67.8409 27.9169C67.7724 28.0067 67.6725 28.0781 67.5413 28.1311C67.3848 28.1858 67.2196 28.2114 67.0538 28.2065C66.8928 28.2065 66.7362 28.1814 66.5838 28.1311C66.4383 28.0807 66.3086 27.9931 66.2078 27.8771C66.1095 27.7577 66.0545 27.5987 66.0428 27.4002H65C65 27.6647 65.0775 27.9202 65.2326 28.1668C65.3909 28.4106 65.6219 28.6111 65.9258 28.7683C66.2301 28.9228 66.6016 29 67.0402 29C67.3387 29 67.6069 28.9643 67.845 28.8929C68.0871 28.8219 68.2945 28.7225 68.4671 28.5945C68.6402 28.4638 68.7717 28.3109 68.8614 28.1358C68.9533 27.9575 68.9995 27.7613 69 27.5471C69 27.2588 68.9283 27.0212 68.785 26.8344C68.642 26.644 68.4362 26.4896 68.1675 26.371C67.8622 26.2361 67.5426 26.1358 67.2147 26.0719C67.0484 26.0377 66.8841 25.9945 66.7224 25.9426C66.6154 25.908 66.5132 25.8603 66.4181 25.8005C66.3522 25.7551 66.2972 25.6958 66.2571 25.6267C66.2216 25.5429 66.2067 25.4518 66.2138 25.3611C66.2208 25.2704 66.2496 25.1827 66.2977 25.1053C66.3643 25.0073 66.4573 24.93 66.5662 24.8824C66.7109 24.8183 66.8684 24.7876 67.0267 24.7928C67.2206 24.7928 67.3817 24.8287 67.5102 24.9006C67.6383 24.9679 67.7336 25.0584 67.7963 25.172C67.8621 25.2821 67.895 25.4011 67.895 25.529H68.9729C68.9771 25.2527 68.8959 24.9818 68.7403 24.7531C68.5848 24.5214 68.3612 24.3386 68.0695 24.2048C67.7801 24.0683 67.4325 24 67.0267 24C66.7404 24 66.481 24.0386 66.2484 24.1159C66.0184 24.1931 65.823 24.2986 65.662 24.4324C65.5068 24.5591 65.3803 24.717 65.2908 24.8959C65.2047 25.069 65.1603 25.2597 65.161 25.4529C65.161 25.655 65.2027 25.8333 65.2861 25.9877C65.3699 26.1418 65.4878 26.2754 65.6397 26.3885C65.7917 26.5017 65.9736 26.5982 66.1855 26.6782C66.4164 26.761 66.6527 26.828 66.8928 26.8789C67.185 26.9382 67.4056 27.0033 67.5549 27.0742C67.7068 27.1461 67.8096 27.2265 67.8632 27.3154Z" fill="#F0F0F0"/>
</g>
</svg>
