<svg width="153" height="30" viewBox="0 0 153 30" fill="none" xmlns="http://www.w3.org/2000/svg">
<path d="M6.93031 15.0186L3.46516 18.4015L0 15.0186L3.46516 11.6357L6.93031 15.0186ZM15.3838 6.76581L21.324 12.6022L24.7892 9.21933L18.8489 3.3829L15.3838 0L11.9186 3.3829L5.94027 9.21933L9.40541 12.6022L15.3838 6.76581ZM27.3024 11.6357L23.8372 15.0186L27.3024 18.4015L30.7675 15.0186L27.3024 11.6357ZM15.3838 23.2342L9.44351 17.4349L5.94027 20.8179L11.8805 26.6171L15.3457 30L18.8109 26.6171L24.7892 20.8179L21.324 17.4349L15.3838 23.2342ZM15.3838 18.4015L18.8489 15.0186L15.3838 11.6357L11.9186 15.0186L15.3838 18.4015ZM52.0535 18.7361V18.6989C52.0535 16.5056 50.8351 15.3903 48.8929 14.6468C50.1114 13.9777 51.1014 12.9368 51.1014 11.0781V11.0409C51.1014 8.43867 48.9692 6.76581 45.5422 6.76581H37.6978V23.2342H45.7323C49.5403 23.2342 52.0535 21.7472 52.0535 18.7361ZM47.408 11.7101C47.408 12.9368 46.3797 13.4573 44.7423 13.4573H41.3153V9.96284H44.9707C46.5322 9.96284 47.408 10.5576 47.408 11.6729V11.7101ZM48.3598 18.29C48.3598 19.5167 47.3697 20.0743 45.7323 20.0743H41.3153V16.4684H45.6181C47.5223 16.4684 48.3598 17.1375 48.3598 18.2528V18.29ZM59.8217 23.2342V6.76581H56.1279V23.2342H59.8217ZM79.7747 23.2342V6.76581H76.1192V16.9145L68.1989 6.76581H64.7719V23.2342H68.4273V12.7881L76.6144 23.2714H79.7747V23.2342ZM100.337 23.2342L93.1024 6.65428H89.675L82.4404 23.2342H86.2101L87.7712 19.5539H94.892L96.4531 23.2342H100.337ZM93.5972 16.3569H89.1039L91.3508 11.0037L93.5972 16.3569ZM118.006 23.2342V6.76581H114.35V16.9145L106.43 6.76581H103.003V23.2342H106.658V12.7881L114.845 23.2714H118.006V23.2342ZM137.197 20.5948L134.837 18.2528C133.504 19.4424 132.323 20.1859 130.419 20.1859C127.525 20.1859 125.545 17.8439 125.545 15.0186V14.9814C125.545 12.1561 127.602 9.85131 130.419 9.85131C132.095 9.85131 133.428 10.5576 134.722 11.7101L137.083 9.03345C135.522 7.50929 133.618 6.50558 130.419 6.50558C125.241 6.50558 121.623 10.3346 121.623 15.0186V15.0558C121.623 19.777 125.317 23.5316 130.267 23.5316C133.504 23.5316 135.446 22.4164 137.197 20.5948ZM153 23.2342V20H143.861V16.5428H151.819V13.3086H143.861V9.96284H152.886V6.72863H140.167V23.197H153V23.2342Z" fill="#F0F0F0"/>
</svg>
