<svg width="177" height="24" viewBox="0 0 177 24" fill="none" xmlns="http://www.w3.org/2000/svg">
<path d="M25.4522 23.8877H42.4454V19.4321H30.6028V13.9657H40.4152V9.51014H30.6028V4.45554H42.5206V0H25.4522V23.8877ZM62.8974 15.0515L51.7691 0H44.0996L46.5057 3.03276V23.9626H51.6187V8.27457L63.123 23.8877H68.048V0H62.8974V15.0515ZM17.7075 11.6069C19.9633 11.195 21.843 9.09828 21.843 6.14041C21.843 2.95788 19.5121 0 14.8878 0H0L2.33093 2.95788V23.9251H15.4142C20.0384 23.9251 22.4446 21.0421 22.4446 17.4477C22.3318 14.4899 20.3016 11.9438 17.7075 11.6069ZM7.44392 4.49298H13.8728C15.6022 4.49298 16.6924 5.5039 16.6924 7.00156C16.6924 8.49922 15.6022 9.51014 13.8728 9.51014H7.44392V4.49298ZM14.0983 19.4696H7.44392V13.9657H14.0983C16.0533 13.9657 17.1436 15.2012 17.1436 16.6989C17.1436 18.4212 15.9781 19.4321 14.0983 19.4696ZM143.164 15.0515H145.833V17.8596C144.442 18.9828 142.713 19.6193 140.908 19.6568C136.622 19.6568 133.615 16.3994 133.615 12.0187C133.615 7.63807 136.66 4.38066 140.908 4.38066C143.126 4.38066 145.194 5.54134 146.397 7.41342L150.458 5.16693C148.728 2.4337 145.683 0 140.871 0C134.066 0 128.427 4.68019 128.427 11.9438C128.427 19.2075 133.991 23.8877 140.871 23.8877C144.63 23.9626 148.202 22.3526 150.683 19.5819V10.7457H139.705L143.164 15.0515ZM120.043 15.0515L108.877 0H101.245L103.613 3.03276V23.9626H108.764V8.27457L120.268 23.8877H125.156V0H120.043V15.0515ZM167.676 0H157.789L160.157 3.03276L159.744 4.19345L152.074 23.9626H157.864L159.368 19.9189H169.706L171.21 23.9626H177L167.676 0ZM160.684 15.4259L164.443 5.12949L168.203 15.4259H160.684ZM93.1243 0H98.2748V24H93.1243V0ZM89.0263 4.11856V0H70.9429V4.45554H82.2967L70.9429 19.8066V23.8877H89.2143V19.4321H77.5973L89.0263 4.11856Z" fill="#F0F0F0"/>
</svg>
