<svg width="228" height="40" viewBox="0 0 228 40" fill="none" xmlns="http://www.w3.org/2000/svg">
<path fill-rule="evenodd" clip-rule="evenodd" d="M117.461 0.982152L114.092 1.94178V5.04219C114.092 6.74749 114.156 8.13975 114.234 8.13633C114.313 8.13273 115.957 7.68262 117.889 7.13589L121.401 6.14191L121.453 3.06086C121.501 0.210276 121.48 -0.0188565 121.168 0.00107629C120.983 0.0128462 119.315 0.454406 117.461 0.982152Z" fill="#F0F0F0"/>
<path fill-rule="evenodd" clip-rule="evenodd" d="M4.86494 1.79675C3.31208 2.2516 1.5821 2.75732 1.02075 2.92058L0 3.21729V17.6434V32.0694L4.03403 32.0182L8.06805 31.9669V16.511C8.06805 6.36213 8.00294 1.04044 7.87822 1.01234C7.77381 0.988803 6.4178 1.3419 4.86494 1.79675ZM103.785 3.82876L100.407 4.8011L100.465 16.2008C100.533 29.2653 100.491 28.9092 102.154 30.5794C103.466 31.8974 104.48 32.1558 108.333 32.1564C110.021 32.1565 111.449 32.1098 111.507 32.0525C111.564 31.995 111.915 30.799 112.288 29.3948C112.66 27.9904 113.004 26.7118 113.052 26.5535C113.128 26.3058 112.851 26.2758 111.059 26.3371L108.979 26.4083L108.403 25.8325L107.827 25.2569V19.6421V14.0273H109.807H111.787L112.072 13.0307C112.229 12.4826 112.493 11.5029 112.659 10.8537C112.824 10.2044 113.01 9.54246 113.072 9.38243C113.169 9.12975 112.833 9.0916 110.505 9.0916H107.827V5.95929C107.827 3.09713 107.799 2.82832 107.495 2.84161C107.312 2.84977 105.643 3.2938 103.785 3.82876ZM14.7123 9.03958C13.1462 9.48892 11.5445 9.94415 11.1529 10.051L10.441 10.2452V21.1536V32.0618H14.1428H17.8446V25.3572C17.8446 17.9196 17.9287 17.2512 19.0199 16.0083C19.8645 15.0464 20.4856 14.7867 21.9417 14.7867C23.4663 14.7867 24.2755 15.204 24.801 16.261C25.1209 16.9047 25.1621 17.6595 25.2483 24.4684L25.3432 31.9669L29.1046 32.0183L32.8658 32.07L32.7924 23.3808C32.7326 16.2946 32.6656 14.5167 32.4296 13.7426C31.4996 10.6917 29.7721 9.07356 26.8744 8.53974C23.6601 7.94745 20.7425 8.79336 18.6668 10.9195L17.6681 11.9426L17.614 10.0825L17.5599 8.22253L14.7123 9.03958ZM63.2156 8.62745C58.7983 9.57625 55.1282 13.3098 54.1754 17.8241C53.8232 19.4927 53.9208 22.6093 54.3774 24.2785C55.2426 27.4418 57.23 29.9136 60.0106 31.2842C61.998 32.264 63.6847 32.6237 66.3084 32.6281C69.573 32.6332 72.4659 31.8494 75.1753 30.2255C77.053 29.1 76.9844 29.4461 75.9183 26.473C75.4012 25.0307 74.9404 23.7897 74.8945 23.7155C74.8486 23.6412 74.2944 24.0828 73.663 24.6969C72.383 25.9417 70.4525 26.9761 68.7499 27.3296C67.2562 27.6396 65.0126 27.4733 64.0569 26.9814C63.3382 26.6116 61.8862 25.2154 61.8871 24.8949C61.8873 24.8169 65.3577 23.7707 69.599 22.57L77.3106 20.3869L77.2039 18.6783C76.9484 14.5841 74.8452 11.21 71.5325 9.57986C69.1633 8.41388 65.9327 8.04389 63.2156 8.62745ZM85.1899 8.61928C81.5443 9.31048 79.1983 10.9482 78.3943 13.3629C78.0289 14.4607 78.0629 16.5974 78.4642 17.7616C78.9403 19.1421 80.0742 20.3542 81.5477 21.0574C82.2776 21.4057 84.2168 21.9773 86.3722 22.4791C91.1415 23.5898 91.8809 23.9816 91.8809 25.3984C91.8809 26.1697 90.9653 27.1889 90.0171 27.4729C88.7691 27.8469 87.1173 27.7544 86.1681 27.2576C85.1876 26.7443 84.0976 25.2647 84.0976 24.4469C84.0976 24.1454 84.0355 23.8988 83.9596 23.8988C83.8837 23.8988 82.4225 24.2977 80.7126 24.7852L77.6039 25.6715L77.7056 26.2982C78.0016 28.1221 79.7519 30.3056 81.7019 31.2841C83.7436 32.3086 84.9741 32.5364 88.4638 32.5364C91.2161 32.5364 91.7689 32.4825 93.0199 32.092C96.8218 30.9053 98.8223 28.8705 99.2657 25.7387C99.5649 23.6261 99.0216 21.812 97.6273 20.2686C96.4793 18.998 94.6755 18.2584 91.4063 17.7181C88.9031 17.3045 86.7842 16.6205 86.1383 16.0178C85.1463 15.0921 85.591 13.8835 87.0752 13.4713C89.2792 12.8591 91.6721 13.8848 92.0126 15.5876C92.1032 16.0408 92.1996 16.1266 92.5246 16.0438C95.1939 15.3642 98.7144 14.2713 98.7146 14.1223C98.7146 14.0179 98.4718 13.4199 98.1749 12.7934C96.8816 10.0639 93.7515 8.58113 88.9384 8.41768C87.4216 8.36623 86.1689 8.43362 85.1899 8.61928ZM117.414 9.34104L113.997 10.3255V21.1462V31.9669L117.746 32.0183L121.495 32.0698V20.201C121.495 9.01927 121.476 8.33301 121.163 8.3444C120.981 8.35104 119.293 8.79963 117.414 9.34104ZM127.76 9.11096C126.35 9.51854 124.877 9.94055 124.485 10.0486L123.773 10.2452V21.1536V32.0618H127.461H131.148L131.226 25.0853C131.311 17.4488 131.34 17.2284 132.447 15.9346C133.176 15.0838 134.059 14.7324 135.469 14.7324C136.816 14.7324 137.605 15.2152 138.201 16.4035L138.676 17.3495L138.737 24.7057L138.798 32.0618H142.495H146.192L146.132 23.2819C146.074 14.7502 146.06 14.4659 145.644 13.2285C144.897 11.0114 143.304 9.38527 141.273 8.76584C139.624 8.26277 136.533 8.31877 135.118 8.87727C133.821 9.38888 132.37 10.4406 131.568 11.4503L130.987 12.1812V10.2568C130.987 8.54335 130.951 8.33434 130.655 8.35104C130.472 8.36149 129.17 8.70338 127.76 9.11096ZM155.856 8.45147C152.137 9.16753 149.573 11.4784 148.316 15.2465C147.846 16.656 147.805 17.0252 147.805 19.8174C147.805 22.6095 147.846 22.9787 148.316 24.3882C149.774 28.7592 152.802 30.9906 157.28 30.993C159.516 30.9942 160.763 30.5211 162.317 29.0827L163.449 28.0344V29.5391C163.449 30.3666 163.318 31.4876 163.156 32.0301C162.616 33.8514 161.047 35.0884 159.273 35.0931C157.668 35.0975 155.679 33.7901 155.361 32.5218C155.297 32.2687 155.123 32.0618 154.974 32.0618C154.697 32.0618 148.603 33.7662 148.477 33.8791C148.247 34.0853 149.705 36.5636 150.529 37.3664C152.309 39.0998 154.473 39.8333 158.229 39.9767C161.246 40.0917 162.859 39.7952 165.123 38.7095C167.847 37.4027 169.518 35.3393 170.288 32.3304C170.641 30.9484 170.663 30.1991 170.663 19.5972C170.663 10.8237 170.612 8.33225 170.43 8.33225C170.021 8.33225 163.934 10.0947 163.687 10.2845C163.556 10.385 163.449 10.682 163.449 10.945C163.449 11.3907 163.397 11.3639 162.68 10.5492C161.511 9.22126 159.887 8.49703 157.908 8.4209C157.04 8.38749 156.117 8.40116 155.856 8.45147ZM32.3802 9.51873C32.5982 10.2154 38.5011 28.3961 39.1306 30.3094L39.7094 32.0688L43.9815 32.018L48.2538 31.9669L51.933 20.7665C53.9567 14.6063 55.6145 9.4595 55.6172 9.32889C55.621 9.14684 54.7485 9.0916 51.8728 9.09198L48.1236 9.09236L46.131 16.4007C45.0351 20.4203 44.0933 23.709 44.0381 23.709C43.983 23.709 43.0494 20.4201 41.9638 16.4003L39.9896 9.0916H36.1181H32.2466L32.3802 9.51873ZM63.9573 14.0856C62.5434 14.8258 61.3172 17.113 61.3172 19.0104C61.3172 19.6237 61.3732 19.7316 61.6494 19.6497C61.832 19.5958 63.8183 19.0275 66.0631 18.3868C68.3079 17.7461 70.1583 17.2079 70.175 17.1908C70.3272 17.0351 69.5652 15.5496 69.0673 15.031C67.6779 13.5841 65.6368 13.2065 63.9573 14.0856ZM157.56 14.6443C156.492 15.1844 155.762 16.2405 155.361 17.8241C154.739 20.2866 155.409 23.2549 156.829 24.3277C158.946 25.9259 161.82 25.2264 162.999 22.8263C163.485 21.8367 163.544 21.5194 163.539 19.9123C163.532 17.0763 162.821 15.5495 161.113 14.698C159.885 14.0866 158.698 14.0685 157.56 14.6443ZM183.192 16.664C180.019 17.6918 178.257 20.5012 178.257 24.5327C178.257 27.8702 179.806 30.743 182.227 31.8936C183.447 32.4736 185.495 32.5899 186.807 32.1541C188.531 31.5817 189.991 29.9015 190.559 27.8366C190.778 27.0418 190.659 26.9066 189.522 26.6627C188.96 26.5423 188.914 26.5738 188.787 27.1623C188.48 28.5844 187.298 30.1063 186.17 30.5315C185.176 30.9063 183.932 30.7726 182.898 30.1798C181.241 29.2291 180.385 27.5547 180.208 24.9181C180.022 22.1476 181.141 19.6182 182.985 18.6453C183.951 18.1354 185.502 18.0532 186.476 18.4602C187.293 18.8014 188.247 19.9161 188.529 20.8582C188.777 21.6838 188.989 21.7639 189.998 21.4124C190.717 21.1618 190.738 20.8909 190.141 19.6082C189.608 18.4634 188.663 17.4662 187.635 16.9626C186.829 16.5679 184.063 16.3819 183.192 16.664ZM196.576 16.9556C193.593 18.1965 191.853 21.9993 192.465 25.9396C192.896 28.7163 194.267 30.84 196.26 31.8188C197.207 32.2837 197.55 32.3464 199.139 32.3456C200.722 32.3449 201.058 32.2835 201.891 31.8426C202.413 31.5663 203.169 31.0115 203.571 30.6096C206.56 27.621 206.512 21.2113 203.479 18.1781C202.363 17.0617 201.26 16.6289 199.328 16.5488C197.944 16.4912 197.553 16.5491 196.576 16.9556ZM212.332 16.9419C211.81 17.1855 211.063 17.7402 210.671 18.1745L209.959 18.9642V17.8246C209.959 17.1978 209.912 16.6851 209.853 16.6851C209.795 16.6851 209.368 16.7805 208.904 16.8975L208.061 17.1097V24.5859V32.0618H208.994H209.928L209.994 26.8888C210.057 21.9394 210.08 21.6726 210.507 20.7206C211.051 19.5083 212.164 18.46 213.092 18.286C214.931 17.9412 216.395 18.6552 216.794 20.0913C216.898 20.466 216.981 23.2802 216.982 26.4142L216.983 32.0618H217.915H218.846L218.915 26.7939C218.98 21.7917 219.006 21.4781 219.417 20.579C220.222 18.8169 221.103 18.2038 222.831 18.2038C224.162 18.2038 225.058 18.7011 225.573 19.7262C225.868 20.3123 225.905 21.0456 225.905 26.2243L225.906 32.0618H226.855H227.804V26.1158C227.804 19.4128 227.721 18.8805 226.491 17.65C224.589 15.7478 220.517 16.2361 218.992 18.5491L218.629 19.1011L218.043 18.2362C217.229 17.0328 216.143 16.4947 214.533 16.4971C213.623 16.4985 213.023 16.6196 212.332 16.9419ZM197.221 18.5817C193.935 20.3185 193.253 26.3312 195.997 29.3688C196.91 30.3799 198.027 30.804 199.496 30.6978C201.335 30.5648 202.559 29.4818 203.426 27.221C203.961 25.8253 203.918 22.865 203.342 21.3979C202.864 20.1817 201.702 18.8729 200.743 18.4724C199.823 18.088 198.052 18.1428 197.221 18.5817ZM173.89 30.4482V32.0618H175.124H176.358V30.4482V28.8346H175.124H173.89V30.4482Z" fill="#F0F0F0"/>
</svg>
