<svg width="107" height="25" viewBox="0 0 107 25" fill="none" xmlns="http://www.w3.org/2000/svg">
<path fill-rule="evenodd" clip-rule="evenodd" d="M4.9486 0.658966C2.82427 1.70979 1.48489 3.50917 0.488456 6.6509C0.0385124 8.06938 -0.00182157 8.55703 5.92857e-05 12.5423C0.00214913 16.746 0.0209578 16.9392 0.574557 18.4945C1.91289 22.2521 3.9484 24.0286 6.90825 24.0217C8.72599 24.0174 9.75169 23.4943 10.7084 22.0833L11.3876 21.0817V22.3465V23.6112H12.955H14.5224V17.7147V11.8181H10.8691H7.21587L7.08484 12.335C6.83134 13.3349 7.0514 13.4733 8.89611 13.4733H10.5972L10.5067 16.525C10.4079 19.8666 10.1126 20.9963 9.14083 21.7531C7.79601 22.8004 5.85371 21.847 5.19416 19.8159C4.75675 18.4682 4.53439 8.55786 4.87901 5.76766C5.21965 3.01076 6.08485 1.6591 7.53478 1.61834C9.03027 1.57634 9.78868 3.18683 10.043 6.94448L10.1908 9.12848H12.252H14.3134L14.3098 8.04228C14.305 6.62048 13.8242 4.41103 13.3013 3.40903C12.7368 2.32738 11.2762 0.964966 10.1337 0.454345C8.6261 -0.21931 6.55882 -0.137793 4.9486 0.658966ZM16.1943 11.8225V23.6197L20.4262 23.5639L24.6581 23.5078L24.7235 22.8354L24.7892 22.163H22.8949H21.0009V11.094V0.0250345H18.5976H16.1943V11.8225ZM30.8232 0.114C30.8232 0.170276 29.6006 5.43724 28.1064 11.8181C26.6121 18.199 25.3896 23.4629 25.3896 23.5155C25.3896 23.5682 25.7657 23.6112 26.2255 23.6112C26.6853 23.6112 27.0614 23.5548 27.0614 23.4857C27.0614 23.346 29.1206 14.4083 29.2846 13.8354C29.3753 13.5194 29.6742 13.4733 31.6324 13.4733H33.8762L34.7709 18.1802C35.263 20.7691 35.7109 23.0499 35.7663 23.2492C35.8547 23.5672 36.1583 23.6112 38.2561 23.6112C40.3965 23.6112 40.6442 23.5736 40.6344 23.2492C40.6283 23.0499 39.4686 17.7664 38.0574 11.5078L35.4917 0.128483L33.1575 0.069931C31.8735 0.0378621 30.8232 0.0575172 30.8232 0.114ZM41.6904 11.8181V23.6112H42.4218H43.1532L43.1664 13.9388C43.1737 8.6189 43.2556 4.45262 43.3486 4.68021C43.4416 4.90779 44.3831 8.91124 45.4408 13.5768C46.4987 18.2423 47.456 22.4131 47.5682 22.8453L47.7724 23.6313L48.9634 23.5694L50.1542 23.5078L52.2441 14.6555L54.3339 5.80303L54.3885 14.7072L54.4428 23.6112H56.844H59.245V11.8119V0.0126207L56.5874 0.0705517L53.9299 0.128483L52.1467 7.83579C50.9429 13.039 50.317 15.3919 50.22 15.0772C50.1413 14.821 49.396 11.3294 48.5643 7.31814L47.0518 0.0250345H44.371H41.6904V11.8181ZM65.9399 0.47069C64.5491 1.01131 62.8584 2.61559 62.0833 4.13007C59.8308 8.53055 60.1936 16.9614 62.7898 20.5508C65.4734 24.2609 70.6399 24.6263 73.7578 21.3263C74.8409 20.1801 75.5433 18.8243 76.1118 16.7837C76.647 14.8618 76.6392 8.57979 76.099 6.66228C75.276 3.74048 73.7308 1.63572 71.6742 0.636C70.2 -0.0806896 67.5545 -0.156828 65.9399 0.47069ZM78.0979 9.594L78.1581 19.163L78.6547 20.2506C79.5627 22.2393 81.3802 23.3568 84.0293 23.5552C87.3495 23.8037 89.8149 22.4474 90.7193 19.8751C91.0851 18.8348 91.1152 18.0414 91.1152 9.43883V0.128483L90.3315 0.0643448L89.5478 0V8.58848C89.5478 14.1536 89.4652 17.563 89.3131 18.2735C88.8159 20.5955 87.8195 21.7492 86.3112 21.7492C85.1142 21.7492 84.1365 21.0687 83.4872 19.7834L82.9648 18.7492L82.9044 9.3871L82.8442 0.0250345H80.4411H78.0378L78.0979 9.594ZM92.9875 0.283655C92.9325 0.426 92.9118 5.75607 92.9417 12.1285L92.996 23.7147H95.3993H97.8027L97.8585 18.594L97.9145 13.4733L98.3809 13.4737C98.81 13.4741 98.9678 13.8788 100.337 18.491L101.827 23.5078L104.36 23.5659C105.906 23.6013 106.893 23.5454 106.893 23.4223C106.893 23.3112 106.084 20.9592 105.095 18.1953C103.455 13.6099 103.329 13.1516 103.66 12.9596C105.425 11.9373 106.275 10.3132 106.427 7.67007C106.63 4.14124 105.556 1.87779 103.103 0.664138L101.811 0.0250345H97.4493C94.1523 0.0250345 93.0629 0.0881379 92.9875 0.283655ZM67.6786 1.66903C66.8847 2.00317 66.1451 3.216 65.826 4.7071C65.4519 6.45517 65.3904 16.6632 65.7426 18.5495C66.0134 19.9999 66.5852 21.185 67.2301 21.6321C67.98 22.152 69.3421 22.0488 70.1039 21.414C71.4407 20.3003 71.7872 18.2723 71.7776 11.6166C71.7663 3.84517 71.1881 1.87531 68.8282 1.57076C68.4424 1.5211 67.9252 1.56517 67.6786 1.66903ZM97.4892 6.74917V11.8181H98.6288C99.2555 11.8181 99.9861 11.7199 100.252 11.5999C101.894 10.8592 102.563 7.1731 101.565 4.3709C100.995 2.77179 99.5985 1.68021 98.1228 1.68021H97.4892V6.74917ZM30.866 7.11621C30.3782 9.19014 29.9229 11.0967 29.8543 11.3526C29.7314 11.8107 29.7605 11.8181 31.6574 11.8181C33.5489 11.8181 33.5832 11.8094 33.4787 11.3526C33.42 11.0967 33.0679 9.25779 32.6961 7.26641C32.3245 5.27503 31.96 3.57807 31.8865 3.49552C31.8129 3.41297 31.3538 5.04228 30.866 7.11621Z" fill="#F0F0F0"/>
</svg>
