<svg width="72" height="31" viewBox="0 0 72 31" fill="none" xmlns="http://www.w3.org/2000/svg">
<path d="M14.6008 30.5331H11.9131V22.5137H14.2326C15.8803 22.5137 16.9639 23.2503 16.9639 24.6054C16.9639 25.212 16.6818 25.873 16.0101 26.2414V26.2744C17.213 26.6969 17.3971 27.7262 17.3971 28.1819C17.3971 29.8603 16.1069 30.5331 14.6008 30.5331ZM14.2762 23.7909H13.3224V25.7633H14.3741C14.8722 25.7633 15.5663 25.644 15.5663 24.7658C15.5652 23.9762 14.8722 23.7909 14.2762 23.7909ZM14.5028 26.9991H13.3213V29.2536H14.5134C15.1095 29.2536 15.9771 29.1344 15.9877 28.1052C15.9877 27.1407 15.165 26.9991 14.5028 26.9991Z" fill="#F0F0F0"/>
<path d="M23.9385 29.764C23.3967 30.36 22.6601 30.6846 21.8031 30.6846C21.1965 30.6846 20.2533 30.4792 19.636 29.7745C19.04 29.0912 18.8994 28.4525 18.8994 27.4658V22.5129H20.3631V27.4551C20.3631 27.9533 20.3844 28.5175 20.7208 28.9069C20.9922 29.2646 21.4149 29.3945 21.7937 29.3945C22.2162 29.3945 22.6389 29.254 22.9103 28.8739C23.1924 28.4832 23.2137 27.9851 23.2137 27.4646V22.5117H24.6774V27.4539C24.6761 28.5494 24.4377 29.2103 23.9385 29.764Z" fill="#F0F0F0"/>
<path d="M28.966 30.6841C27.1778 30.6841 26.3644 29.6761 26.2783 28.2135H27.7301C27.8057 29.1567 28.4785 29.4494 28.9554 29.4494C29.6164 29.4494 30.1476 28.9289 30.1476 28.2891C30.1476 27.4333 29.4428 27.2162 28.4349 26.8372C27.8057 26.6201 26.4188 26.1539 26.4188 24.637C26.4188 23.217 27.6971 22.3613 28.9873 22.3613C29.7356 22.3613 30.4934 22.6434 30.9596 23.1959C31.3503 23.6621 31.4259 24.1284 31.4577 24.5509H30.0165C29.9516 24.1389 29.7025 23.5971 28.9436 23.5971C28.3475 23.5971 27.8707 24.0304 27.8707 24.6052C27.8707 25.3417 28.3805 25.5046 29.6801 26.0146C31.0458 26.5457 31.5983 27.3259 31.5983 28.2902C31.5994 29.5025 30.7649 30.6841 28.966 30.6841Z" fill="#F0F0F0"/>
<path d="M33.2881 30.5336V22.5142H34.7399V30.5336H33.2881Z" fill="#F0F0F0"/>
<path d="M43.2705 30.6841H42.8586L38.0793 25.2981H38.0356V30.533H36.6699V22.3613H37.0819L41.8718 27.7261H41.9155V22.5135H43.2705V30.6841Z" fill="#F0F0F0"/>
<path d="M45.2021 30.5331V22.5137H49.6344V23.7921H46.6103V25.8294H49.1351V27.1077H46.6103V29.2536H49.6344V30.5319H45.2021V30.5331Z" fill="#F0F0F0"/>
<path d="M53.9495 30.6841C52.1612 30.6841 51.3479 29.6761 51.2617 28.2135H52.7136C52.7891 29.1567 53.4608 29.4494 53.9389 29.4494C54.5998 29.4494 55.131 28.9289 55.131 28.2891C55.131 27.4333 54.4263 27.2162 53.4182 26.8372C52.7903 26.6201 51.4023 26.1539 51.4023 24.637C51.4023 23.217 52.6806 22.3613 53.9707 22.3613C54.7191 22.3613 55.4769 22.6434 55.9431 23.1959C56.3326 23.6621 56.4093 24.1284 56.4412 24.5509H54.9999C54.9351 24.1389 54.686 23.5971 53.927 23.5971C53.3309 23.5971 52.8541 24.0304 52.8541 24.6052C52.8541 25.3417 53.364 25.5046 54.6635 26.0146C56.0292 26.5457 56.5816 27.3259 56.5816 28.2902C56.5829 29.5025 55.7483 30.6841 53.9495 30.6841Z" fill="#F0F0F0"/>
<path d="M60.6887 30.6841C58.9003 30.6841 58.0871 29.6761 58.001 28.2135H59.4528C59.5284 29.1567 60.2 29.4494 60.678 29.4494C61.339 29.4494 61.8702 28.9289 61.8702 28.2891C61.8702 27.4333 61.1655 27.2162 60.1575 26.8372C59.5295 26.6201 58.1414 26.1539 58.1414 24.637C58.1414 23.217 59.4197 22.3613 60.7099 22.3613C61.4582 22.3613 62.216 22.6434 62.6822 23.1959C63.0718 23.6621 63.1486 24.1284 63.1804 24.5509H61.7392C61.6743 24.1389 61.4252 23.5971 60.6663 23.5971C60.0702 23.5971 59.5932 24.0304 59.5932 24.6052C59.5932 25.3417 60.1032 25.5046 61.4028 26.0146C62.7685 26.5457 63.3209 27.3259 63.3209 28.2902C63.322 29.5025 62.4875 30.6841 60.6887 30.6841Z" fill="#F0F0F0"/>
<path d="M71.6769 11.6647L71.6722 11.7781C71.5907 13.5746 70.9604 15.0158 69.7989 16.0617C67.7451 17.9112 64.7199 17.7555 63.9384 17.7461C63.9301 17.7461 63.8027 17.7461 63.7956 17.7461V9.37603C63.8334 9.37603 63.9891 9.37603 64.0281 9.37484C65.4941 9.3654 67.2009 9.2332 67.4854 12.8936L67.4937 13.0021H67.7758V5.37695H67.4972L67.4854 5.48199C67.1101 8.95463 65.3561 8.94047 63.9267 8.94402C63.9218 8.94402 63.7991 8.94402 63.7956 8.94402V0.963553C63.9844 0.962373 64.2937 0.960012 64.4838 0.956471C67.1798 0.915158 69.8509 0.637772 70.9875 6.37317L71.0065 6.46879H71.2933V0.518555H55.7962V0.928143H57.1678V13.4849C57.1348 15.2885 56.4289 16.3956 55.8092 16.9823C55.0609 17.6917 54.0127 18.0635 53.0648 18.0305C49.5686 17.9042 49.4706 14.3879 49.4683 14.2356V0.928143H51.0606V0.518555H44.8672V0.928143H46.5103L46.5056 12.7649C46.5056 16.0014 48.1498 18.4979 52.9515 18.4979C56.1716 18.4979 57.6495 15.8231 57.6163 13.6052V0.928143H59.0765V0.930503H60.8081V17.7401H59.2453V18.1627H72.0003V11.6647H71.6769Z" fill="#F0F0F0"/>
<path d="M39.4161 10.6127V11.0234H40.842V14.7026C40.8396 17.4506 39.0172 18.062 37.5877 18.0903C36.0449 18.1151 35.0109 17.3596 34.4255 15.7909C33.8483 14.2612 33.5437 12.7845 33.5437 9.34614C33.5437 8.12211 33.7326 4.10767 34.6368 2.3513C34.9803 1.68911 35.62 0.457982 37.5275 0.457982C37.5333 0.457982 37.5393 0.457982 37.5452 0.457982C39.8705 0.467425 41.2067 2.07744 42.2903 6.39405L42.3127 6.48375H42.5759V0H42.3221L42.2914 0.0731828C42.0436 0.666908 41.4522 0.796748 40.9423 0.784944C40.6991 0.775501 40.4772 0.74009 40.3143 0.707039C40.1703 0.67517 40.0782 0.645661 40.0735 0.64448C39.8492 0.573659 39.651 0.506377 39.4691 0.446179C39.3866 0.417849 39.3063 0.394243 39.226 0.371816C38.6394 0.177055 38.2015 0.0531165 37.5228 0.0531165C34.4656 0.0531165 30.2588 3.15984 30.2588 9.56923C30.2588 14.8042 33.4033 18.5011 37.695 18.5011C38.4942 18.5011 39.154 18.2391 39.7749 17.951C39.8905 17.9038 40.0051 17.8554 40.1148 17.8034C40.7216 17.5155 41.2964 17.2428 41.9433 17.2086C41.9692 17.2074 41.9952 17.2074 42.0211 17.2062C42.0389 17.2062 42.0566 17.2051 42.0754 17.2051C42.4497 17.2051 43.2003 17.447 43.3456 18.167L43.3644 18.2615L43.6158 18.2627V11.0258H44.9661V10.615H39.4161V10.6127Z" fill="#F0F0F0"/>
<path d="M21.1568 0.0913086C17.5307 0.0913086 13.5576 3.71504 13.5576 9.24742C13.5576 14.7798 17.6617 18.4519 21.1568 18.4519C24.653 18.4519 28.756 14.7798 28.756 9.24742C28.7571 3.71504 24.7828 0.0913086 21.1568 0.0913086ZM25.3943 8.56753C25.3955 8.60765 25.3966 8.64779 25.3966 8.68674C25.3979 8.71625 25.3979 8.74458 25.3979 8.77409C25.3979 8.79652 25.399 8.82012 25.399 8.84255C25.399 8.87914 25.4002 8.91455 25.4002 8.94878C25.4002 8.96176 25.4002 8.97593 25.4002 8.98891C25.4002 9.02668 25.4013 9.06209 25.4013 9.0975C25.4013 9.10695 25.4013 9.11639 25.4013 9.12584C25.4013 9.16833 25.4013 9.20846 25.4013 9.24742C25.4013 9.2781 25.4013 9.31115 25.4013 9.34539C25.3966 10.3687 25.3105 14.3253 24.2742 16.2977C23.6898 17.4403 22.5343 18.0447 21.1568 18.0447C19.7793 18.0447 18.6237 17.4403 18.0382 16.2966C17.0019 14.3253 16.9158 10.3676 16.9111 9.34539C16.9111 9.31115 16.9111 9.2781 16.9111 9.24742C16.9111 9.20965 16.9111 9.16951 16.9111 9.12584C16.9111 9.11639 16.9111 9.10695 16.9111 9.0975C16.9111 9.06209 16.9111 9.02668 16.9122 8.98891C16.9122 8.97593 16.9122 8.96176 16.9122 8.94878C16.9122 8.91455 16.9134 8.87914 16.9134 8.84255C16.9134 8.82012 16.9145 8.79652 16.9145 8.77409C16.9145 8.74576 16.9158 8.71625 16.9158 8.68674C16.9169 8.64779 16.9169 8.60765 16.9181 8.56753C16.9181 8.55336 16.9192 8.53919 16.9192 8.52503C16.9594 6.94806 17.1565 3.98534 18.0382 2.2443C18.7536 0.801889 20.183 0.499715 21.1579 0.499715C22.1318 0.499715 23.5612 0.80307 24.2753 2.24666C25.1571 3.98652 25.353 6.94924 25.3932 8.52621C25.3932 8.53919 25.3943 8.55336 25.3943 8.56753Z" fill="#F0F0F0"/>
<path d="M11.6054 0.520996V0.925862H13.0489L9.19859 13.8096L4.54913 0.925862H5.86878V0.689788H5.87V0.520996H0V0.925862H1.69973L8.213 18.2584H8.30628L13.494 0.925862H15.0839V0.520996H11.6054Z" fill="#F0F0F0"/>
</svg>
