<svg width="232" height="40" viewBox="0 0 232 40" fill="none" xmlns="http://www.w3.org/2000/svg">
<path d="M39.277 20.0083V19.9307C39.2384 8.9563 30.4251 0 19.6385 0C8.8519 0 0 8.9563 0 20.0083C0 31.0617 8.81186 40 19.6385 40C24.6065 40.0034 29.3846 38.0854 32.9785 34.6451C33.3325 34.3207 33.5435 33.8685 33.5651 33.3881C33.5868 32.9077 33.4172 32.4383 33.0938 32.0832C32.7704 31.7282 32.3197 31.5165 31.8407 31.4948C31.3617 31.4732 30.8937 31.6432 30.5398 31.9676L30.5011 32.0064C28.9504 33.485 27.1178 34.6341 25.1133 35.3847C23.1088 36.1353 20.9738 36.4718 18.8364 36.3741C16.699 36.2765 14.6033 35.7466 12.6752 34.8163C10.747 33.886 9.02619 32.5745 7.61595 30.9606L16.0052 17.4666V23.7108C16.0052 26.6944 17.1652 27.6653 18.1402 27.9368C19.1151 28.2083 20.5776 28.0116 22.1615 25.4921L26.7642 17.9957C26.8871 17.7769 27.0294 17.5691 27.1868 17.3738V21.176C27.1868 23.967 28.3081 26.2165 30.2401 27.3011C31.1319 27.7881 32.1386 28.0238 33.1533 27.9831C34.1679 27.9424 35.1526 27.6267 36.0028 27.0697C38.2344 25.6167 39.4331 23.0722 39.277 20.0083ZM34.173 23.9352C33.8631 24.1493 33.5018 24.2765 33.1264 24.3035C32.7511 24.3305 32.3753 24.2565 32.0381 24.0889C31.2648 23.6249 30.7994 22.5791 30.7994 21.1441V16.7491C30.7994 14.6575 29.9874 13.1436 28.5968 12.7585C26.2367 12.0438 24.4608 14.9678 23.8021 16.0537L19.6385 22.7606V14.5024C19.5999 12.6034 18.9798 11.4786 17.8198 11.1282C17.0465 10.8969 15.8865 11.0146 14.7665 12.7211L5.44924 27.6875C4.20973 25.3185 3.56015 22.6838 3.55595 20.0083C3.55595 10.9731 10.7839 3.6443 19.6385 3.6443C28.4932 3.6443 35.7211 10.9731 35.7211 20.0083V20.0873C35.8136 21.8298 35.2557 23.2288 34.1744 23.9241L34.173 23.9352ZM66.6489 13.1837C66.9051 13.3483 67.1191 13.5709 67.2738 13.8336C67.4285 14.0964 67.5196 14.3918 67.5396 14.6963C67.5369 15.1414 67.3621 15.5681 67.0519 15.8864C66.7418 16.2048 66.3205 16.3899 65.8769 16.4028C65.6666 16.3867 65.4586 16.3472 65.2569 16.2851C64.1739 15.4702 62.86 15.0228 61.5062 15.008C58.221 15.008 55.9797 17.6813 55.9797 21.0153C55.9797 24.3493 58.261 26.988 61.5062 26.988C63.0662 26.9858 64.5638 26.3736 65.6809 25.2815C65.9653 25.0807 66.3023 24.9726 66.6489 24.9713C66.9264 24.9682 67.1996 25.039 67.4408 25.1767C67.682 25.3143 67.8823 25.5137 68.0214 25.7546C68.1605 25.9954 68.2333 26.2689 68.2323 26.5472C68.2314 26.8255 68.1568 27.0986 68.016 27.3385C67.8821 27.5739 67.6915 27.7748 67.4609 27.9202C66.3291 28.8641 64.9875 29.5212 63.5494 29.836C62.1113 30.1508 60.6188 30.114 59.1978 29.7289C57.7768 29.3437 56.469 28.6214 55.3847 27.623C54.3004 26.6245 53.4713 25.3791 52.9675 23.9919C52.4638 22.6046 52.2999 21.1162 52.49 19.6521C52.68 18.1881 53.2182 16.7913 54.0593 15.5797C54.9004 14.368 56.0197 13.377 57.3227 12.6903C58.6258 12.0035 60.0743 11.6412 61.5463 11.6338C63.3664 11.6061 65.1506 12.1463 66.6489 13.1837ZM75.8488 17.0497C74.1145 17.0423 72.448 17.7248 71.2146 18.9477C69.9811 20.1706 69.2813 21.8341 69.2686 23.5737C69.2793 25.3228 69.974 26.9979 71.2032 28.2387C72.4325 29.4794 74.0981 30.1867 75.8419 30.2085C79.2446 30.2085 82.1446 27.1445 82.1446 23.5737C82.1446 20.0055 79.2901 17.0497 75.8488 17.0497ZM75.8101 26.9769C74.1875 26.9769 72.8342 25.5031 72.8342 23.6027C72.8342 21.6262 74.1875 20.4225 75.8101 20.4225C77.3195 20.4225 78.5928 21.6649 78.5928 23.6027C78.5928 25.5419 77.3195 26.988 75.8101 26.988V26.9769ZM84.3154 28.1903V19.0373C84.311 18.8 84.3538 18.5642 84.4413 18.3436C84.5287 18.1231 84.6591 17.9222 84.8249 17.7528C84.9906 17.5834 85.1883 17.4487 85.4064 17.3568C85.6246 17.2648 85.8588 17.2174 86.0955 17.2173C86.5716 17.2235 87.026 17.4183 87.3595 17.7593C87.693 18.1003 87.8785 18.5597 87.8755 19.0373V28.1903C87.8788 28.6682 87.6935 29.128 87.36 29.4692C87.0265 29.8105 86.5719 30.0056 86.0955 30.0118C85.6216 29.9978 85.1715 29.8003 84.8396 29.4607C84.5077 29.1211 84.3199 28.6658 84.3154 28.1903ZM84.0448 13.7655C84.037 13.4892 84.0842 13.2141 84.1834 12.9563C84.2827 12.6984 84.4321 12.4629 84.6229 12.2635C84.8138 12.0641 85.0422 11.9048 85.295 11.7948C85.5478 11.6847 85.8199 11.6263 86.0955 11.6227C86.3727 11.6259 86.6466 11.684 86.9014 11.7934C87.1563 11.9029 87.3871 12.0617 87.5808 12.2607C87.7744 12.4597 87.9271 12.695 88.03 12.9532C88.133 13.2114 88.1842 13.4874 88.1807 13.7655C88.1807 14.3154 87.9629 14.8429 87.5752 15.2317C87.1875 15.6206 86.6617 15.839 86.1134 15.839C85.5652 15.839 85.0393 15.6206 84.6516 15.2317C84.2639 14.8429 84.0448 14.3154 84.0448 13.7655ZM94.6767 23.2288V28.1903C94.6767 28.6638 94.4892 29.118 94.1553 29.4528C93.8215 29.7876 93.3688 29.9758 92.8967 29.9758C92.4246 29.9758 91.9718 29.7876 91.638 29.4528C91.3042 29.118 91.1166 28.6638 91.1166 28.1903V18.6121C91.1166 18.2469 91.2612 17.8967 91.5187 17.6385C91.7761 17.3803 92.1252 17.2353 92.4893 17.2353C92.8533 17.2353 93.2025 17.3803 93.4599 17.6385C93.7173 17.8967 93.862 18.2469 93.862 18.6121C94.3692 18.0921 94.9801 17.6853 95.6546 17.418C96.3292 17.1507 97.0523 17.0289 97.777 17.0607C101.336 17.0607 102.92 19.7368 102.92 22.8007V28.1903C102.92 28.6638 102.732 29.118 102.398 29.4528C102.064 29.7876 101.612 29.9758 101.14 29.9758C100.667 29.9758 100.215 29.7876 99.8809 29.4528C99.5471 29.118 99.3595 28.6638 99.3595 28.1903V23.2288C99.3595 21.676 99.1676 20.3726 96.9249 20.3726C95.3423 20.3726 94.6836 21.6899 94.6836 23.2288H94.6767ZM114.433 25.1278C114.252 25.1282 114.074 25.0861 113.912 25.0048C113.751 24.9234 113.611 24.8052 113.503 24.6596L109.367 20.1621V28.1903C109.374 28.4289 109.333 28.6663 109.246 28.8887C109.16 29.111 109.03 29.3137 108.864 29.4848C108.698 29.6559 108.5 29.7919 108.281 29.8848C108.061 29.9776 107.826 30.0255 107.588 30.0255C107.35 30.0255 107.114 29.9776 106.895 29.8848C106.676 29.7919 106.478 29.6559 106.312 29.4848C106.146 29.3137 106.016 29.111 105.93 28.8887C105.843 28.6663 105.802 28.4289 105.809 28.1903V12.2903C105.863 12.1585 105.954 12.0449 106.071 11.9628C106.188 11.8806 106.325 11.8333 106.467 11.8263C106.774 11.8785 107.05 12.0441 107.241 12.2903L113.853 19.7368C113.92 19.8328 114.006 19.9139 114.106 19.9754C114.206 20.0368 114.317 20.0772 114.433 20.0942C114.663 20.0494 114.869 19.9224 115.013 19.7368L121.622 12.2903C121.713 12.1655 121.829 12.0601 121.961 11.9805C122.094 11.9008 122.241 11.8484 122.394 11.8263C122.539 11.8227 122.681 11.8659 122.799 11.9494C122.918 12.0329 123.007 12.1524 123.053 12.2903V28.1917C123.057 28.429 123.014 28.6648 122.927 28.8854C122.839 29.1059 122.709 29.3068 122.543 29.4762C122.377 29.6457 122.18 29.7803 121.962 29.8722C121.743 29.9642 121.509 30.0116 121.272 30.0118C120.796 30.0048 120.342 29.8095 120.009 29.4684C119.676 29.1272 119.491 28.6678 119.494 28.1903V20.1621L115.354 24.6596C115.115 24.9267 114.785 25.0938 114.428 25.1278H114.433ZM147.872 20.3587H147.484C145.243 20.4723 144.819 21.755 144.819 23.2149V28.1765C144.819 28.6499 144.631 29.1038 144.297 29.4386C143.964 29.7733 143.511 29.9615 143.039 29.9619C142.567 29.9612 142.115 29.7726 141.781 29.4376C141.448 29.1026 141.26 28.6485 141.26 28.1751V18.6135C141.261 18.2482 141.406 17.898 141.664 17.6397C141.921 17.3814 142.27 17.236 142.634 17.2353C142.998 17.236 143.347 17.3815 143.605 17.6398C143.862 17.8982 144.007 18.2483 144.007 18.6135C145.32 17.371 146.403 17.0995 147.484 17.0594H147.841C148.274 17.0709 148.686 17.2515 148.989 17.5629C149.292 17.8743 149.462 18.2919 149.463 18.7271C149.463 19.1523 149.297 19.5605 149.001 19.8652C148.705 20.1698 148.303 20.3469 147.879 20.3587H147.872ZM161.596 27.3371C161.759 27.5933 161.853 27.887 161.867 28.1903C161.848 28.6576 161.654 29.1006 161.324 29.4313C160.994 29.762 160.553 29.9564 160.087 29.9758C159.471 29.9758 158.927 29.5076 158.503 28.9646L154.407 24.1887V28.1501C154.407 28.6235 154.22 29.0774 153.886 29.4122C153.552 29.7469 153.1 29.9349 152.628 29.9349C152.156 29.9349 151.703 29.7469 151.369 29.4122C151.036 29.0774 150.848 28.6235 150.848 28.1501V13.6131C150.848 13.2599 150.951 12.9144 151.147 12.6204C151.342 12.3265 151.62 12.0974 151.945 11.9622C152.271 11.827 152.629 11.7918 152.974 11.861C153.32 11.9303 153.637 12.1009 153.885 12.3513C154.219 12.6851 154.407 13.1408 154.407 13.6117V22.6844L158.503 18.1495C158.927 17.6827 159.432 17.1799 160.048 17.1799C160.5 17.1998 160.927 17.3912 161.243 17.7153C161.559 18.0394 161.74 18.4719 161.75 18.9251C161.751 19.2128 161.671 19.4949 161.518 19.7382L158.272 23.3077L161.596 27.3426V27.3371ZM183.092 30.1683H182.124C179.419 30.1683 177.832 28.9646 177.832 24.7386V20.3587H176.907C176.471 20.3587 176.052 20.1849 175.744 19.8756C175.435 19.5662 175.262 19.1466 175.262 18.709C175.262 18.2715 175.435 17.8519 175.744 17.5425C176.052 17.2332 176.471 17.0594 176.907 17.0594H177.818V13.6865C177.81 13.3288 177.909 12.9768 178.104 12.6767C178.298 12.3766 178.579 12.1425 178.908 12.005C179.126 11.9136 179.361 11.8665 179.597 11.8665C180.073 11.8745 180.526 12.0699 180.859 12.4105C181.192 12.7511 181.378 13.2094 181.377 13.6865V17.0497H182.844C183.273 17.0627 183.681 17.2448 183.977 17.5566C184.274 17.8684 184.437 18.2849 184.43 18.716C184.416 19.1373 184.245 19.5381 183.952 19.8399C183.658 20.1416 183.263 20.3227 182.844 20.3477H181.377V24.0321C181.377 26.4741 181.49 26.9769 182.573 26.9769H183.078C183.499 26.9788 183.901 27.1473 184.198 27.4458C184.495 27.7442 184.662 28.1483 184.662 28.5698C184.653 28.9882 184.483 29.3868 184.188 29.6827C183.893 29.9786 183.495 30.1491 183.078 30.1586L183.092 30.1683ZM200.293 13.1837C200.549 13.3487 200.763 13.5715 200.917 13.8341C201.071 14.0968 201.162 14.3921 201.183 14.6963C201.18 15.1415 201.006 15.5684 200.695 15.8868C200.385 16.2052 199.964 16.3902 199.52 16.4028C199.31 16.3858 199.103 16.3463 198.901 16.2851C197.82 15.4696 196.506 15.0221 195.153 15.008C191.865 15.008 189.623 17.6813 189.623 21.0153C189.623 24.3493 191.904 26.988 195.153 26.988C196.713 26.9858 198.211 26.3736 199.328 25.2815C199.611 25.0821 199.948 24.974 200.293 24.9713C200.502 24.9693 200.709 25.009 200.903 25.0879C201.096 25.1669 201.272 25.2835 201.42 25.4311C201.666 25.6772 201.823 25.9983 201.867 26.3438C201.911 26.6893 201.839 27.0397 201.663 27.3398C201.528 27.5765 201.336 27.7755 201.104 27.9188C199.973 28.861 198.632 29.5164 197.195 29.8298C195.759 30.1432 194.268 30.1053 192.849 29.7195C190.706 29.1386 188.847 27.7983 187.615 25.9472C186.382 24.0961 185.861 21.8596 186.147 19.6523C186.432 17.4447 187.505 15.4155 189.168 13.9411C190.831 12.4666 192.97 11.6468 195.189 11.6338C197.011 11.599 198.797 12.1413 200.293 13.1837ZM136.7 17.1785C136.519 17.1784 136.34 17.2147 136.173 17.2852C136.007 17.3557 135.856 17.459 135.729 17.589C135.603 17.719 135.504 17.8731 135.438 18.0421C135.371 18.2112 135.34 18.3918 135.344 18.5733L135.27 19.0027C134.76 18.3968 134.127 17.907 133.413 17.5659C132.699 17.2248 131.921 17.0403 131.131 17.0247C127.654 17.0247 125.142 19.9695 125.142 23.5349C125.142 27.1016 127.614 30.1683 130.939 30.1683C132.331 30.1683 134.534 29.5464 135.231 28.1903L135.31 28.6156C135.306 28.7981 135.34 28.9795 135.409 29.1484C135.478 29.3174 135.581 29.4703 135.711 29.5978C135.842 29.7253 135.997 29.8246 136.167 29.8896C136.337 29.9546 136.519 29.9839 136.7 29.9758C136.883 29.9761 137.065 29.9403 137.234 29.8702C137.403 29.8002 137.556 29.6974 137.686 29.5676C137.815 29.4379 137.917 29.2838 137.987 29.1143C138.057 28.9447 138.093 28.763 138.092 28.5795V18.5844C138.087 18.2148 137.939 17.8618 137.679 17.5995C137.42 17.3373 137.069 17.1863 136.7 17.1785ZM131.519 26.988C129.935 26.988 128.696 25.4782 128.696 23.6138C128.696 21.7508 129.971 20.4003 131.519 20.4003C133.066 20.4003 134.459 21.6788 134.459 23.6138C134.459 25.5489 133.104 26.988 131.519 26.988ZM174.587 23.3035C174.508 19.3088 171.918 17.0594 168.479 17.0594C164.209 17.0594 162.407 20.1621 162.407 23.7316C162.407 28.2693 165.387 30.2071 168.982 30.2071C170.334 30.2071 171.764 30.0118 172.846 29.1973C173.07 29.0654 173.258 28.8794 173.393 28.6562C173.528 28.433 173.606 28.1796 173.619 27.9188C173.622 27.535 173.474 27.1655 173.207 26.8899C172.941 26.6142 172.578 26.4545 172.195 26.445C171.868 26.4478 171.547 26.542 171.27 26.7165C170.536 27.0307 169.746 27.1887 168.948 27.1805C168.059 27.1805 166.01 26.8232 166.01 24.6998H173.191C173.558 24.6927 173.909 24.5435 174.169 24.2833C174.429 24.023 174.579 23.672 174.587 23.3035ZM166.002 22.4032C166.002 20.8934 167.59 20.3906 168.554 20.3906C169.519 20.3906 171.106 20.8934 171.144 22.4032H166.002ZM214.476 17.1785C214.295 17.1786 214.116 17.2149 213.949 17.2853C213.782 17.3557 213.631 17.4588 213.505 17.5885C213.378 17.7184 213.279 17.8726 213.214 18.0418C213.148 18.211 213.117 18.3918 213.122 18.5733L213.045 19.0027C212.536 18.3968 211.903 17.9068 211.19 17.5657C210.477 17.2246 209.699 17.0402 208.909 17.0247C205.429 17.0247 202.916 19.9695 202.916 23.5349C202.916 27.1016 205.407 30.1683 208.713 30.1683C210.105 30.1683 212.312 29.5464 213.005 28.1903L213.084 28.6156C213.081 28.7979 213.116 28.9788 213.185 29.1473C213.255 29.3159 213.357 29.4686 213.487 29.5962C213.617 29.7239 213.772 29.8234 213.942 29.8887C214.112 29.954 214.294 29.9836 214.476 29.9758C214.751 29.9756 215.02 29.8937 215.249 29.7404C215.478 29.5871 215.657 29.3692 215.763 29.1142C215.832 28.9452 215.868 28.7638 215.868 28.5795V18.5844C215.862 18.2151 215.713 17.8624 215.454 17.6003C215.194 17.3382 214.844 17.187 214.476 17.1785ZM209.293 26.988C207.749 26.988 206.472 25.4782 206.472 23.6138C206.472 21.7508 207.71 20.4003 209.293 20.4003C210.877 20.4003 212.233 21.6788 212.233 23.6138C212.233 25.5489 210.888 26.988 209.301 26.988H209.293ZM226.003 17.0497C225.228 17.0355 224.458 17.1794 223.74 17.4728C223.023 17.7661 222.372 18.2028 221.828 18.7561C221.828 17.8669 221.248 17.2062 220.476 17.2062C220.293 17.2056 220.111 17.2413 219.942 17.3113C219.773 17.3812 219.619 17.484 219.489 17.6137C219.36 17.7435 219.257 17.8976 219.187 18.0672C219.117 18.2369 219.081 18.4188 219.081 18.6024V33.6491C219.082 34.122 219.27 34.5751 219.603 34.9094C219.937 35.2438 220.388 35.4321 220.86 35.4332C221.332 35.4328 221.784 35.2448 222.118 34.9103C222.451 34.5759 222.639 34.1223 222.64 33.6491V29.1225C223.604 29.8566 225.152 30.1683 226.199 30.1932C229.563 30.1932 232 27.1307 232 23.5612C232 19.9903 229.445 17.0497 226.003 17.0497ZM225.576 26.9769C223.992 26.9769 222.64 25.5502 222.64 23.6041C222.64 21.658 223.992 20.3906 225.576 20.3906C227.16 20.3906 228.398 21.6691 228.398 23.6041C228.398 25.4768 227.164 26.988 225.576 26.988V26.9769Z" fill="#F0F0F0"/>
</svg>
