<svg width="223" height="26" viewBox="0 0 223 26" fill="none" xmlns="http://www.w3.org/2000/svg">
<path fill-rule="evenodd" clip-rule="evenodd" d="M0 10.7102V21.4204H6.84262H13.6852V10.7102V0H6.84262H0V10.7102Z" fill="#F0F0F0"/>
<path fill-rule="evenodd" clip-rule="evenodd" d="M44.2115 1.13075C41.4215 2.88365 40.4522 5.2268 40.3992 10.3451C40.3231 17.7464 42.7596 20.8256 48.6913 20.8256C52.8064 20.8256 55.3387 18.7657 55.3387 15.4175C55.3387 14.1377 55.6065 13.0905 55.9338 13.0905C56.261 13.0905 56.5288 12.6888 56.5288 12.1979C56.5288 11.5036 55.7356 11.3054 52.9587 11.3054C50.1818 11.3054 49.3886 11.5036 49.3886 12.1979C49.3886 12.6888 49.8052 13.0905 50.3139 13.0905C51.0457 13.0905 51.201 13.6789 51.0576 15.9114C50.8643 18.9204 50.1217 19.5029 47.3609 18.8103C43.3047 17.7916 43.0744 4.69189 47.0735 2.44751C49.2084 1.24856 51.4569 1.97626 52.3607 4.15757C53.3139 6.45907 54.7437 6.51916 54.7437 4.25753C54.7437 1.80906 52.8927 0.434589 49.231 0.163859C46.8533 -0.0116686 45.6651 0.21741 44.2115 1.13075ZM127.194 0.931422C125.02 2.11073 123.699 4.83112 123.336 8.87302C122.953 13.1416 124.009 16.9961 126.147 19.1346C127.518 20.5055 128.36 20.8256 130.591 20.8256C136.566 20.8256 138.916 17.8904 138.929 10.4129C138.939 5.08281 137.615 1.99828 134.76 0.697583C132.681 -0.249673 129.17 -0.140786 127.194 0.931422ZM16.6631 1.48776C16.6631 1.97864 16.9308 2.38027 17.2581 2.38027C17.6264 2.38027 17.8531 5.55346 17.8531 10.7104C17.8531 15.8674 17.6264 19.0406 17.2581 19.0406C16.9308 19.0406 16.6631 19.4422 16.6631 19.9331C16.6631 20.653 17.5955 20.8256 21.4821 20.8256C29.0357 20.8256 31.4289 19.1625 32.4148 13.2279C33.149 8.81055 32.2458 4.75377 30.0359 2.5439C28.1051 0.613092 28.0355 0.595242 22.3752 0.595242C17.6942 0.595242 16.6631 0.75649 16.6631 1.48776ZM32.7284 1.48776C32.7284 1.97864 33.13 2.38027 33.6209 2.38027C34.3718 2.38027 34.5134 3.70238 34.5134 10.7104C34.5134 16.8396 34.326 19.0013 33.8047 18.8918C33.4156 18.8097 32.9943 19.2119 32.8688 19.7843C32.6712 20.6869 33.1229 20.8256 36.255 20.8256C39.0706 20.8256 39.8685 20.6286 39.8685 19.9331C39.8685 19.4422 39.6007 19.0406 39.2735 19.0406C38.9052 19.0406 38.6785 15.8674 38.6785 10.7104C38.6785 5.55346 38.9052 2.38027 39.2735 2.38027C39.6007 2.38027 39.8685 1.97864 39.8685 1.48776C39.8685 0.79338 39.0753 0.595242 36.2984 0.595242C33.5215 0.595242 32.7284 0.79338 32.7284 1.48776ZM55.9338 1.48776C55.9338 1.97864 56.3354 2.38027 56.8263 2.38027C57.5772 2.38027 57.7188 3.70238 57.7188 10.7104C57.7188 16.8396 57.5314 19.0013 57.0101 18.8918C56.621 18.8097 56.1997 19.2119 56.0742 19.7843C55.8766 20.6869 56.3282 20.8256 59.4604 20.8256C62.7115 20.8256 63.0739 20.703 63.0739 19.6005C63.0739 18.9269 62.8061 18.5407 62.4789 18.7431C62.0927 18.9817 61.8839 16.1708 61.8839 10.7455C61.8839 5.56536 62.1106 2.38027 62.4789 2.38027C62.8061 2.38027 63.0739 1.97864 63.0739 1.48776C63.0739 0.79338 62.2807 0.595242 59.5038 0.595242C56.7269 0.595242 55.9338 0.79338 55.9338 1.48776ZM63.6689 2.34517C63.6689 4.53421 64.5923 5.18039 65.445 3.58695C65.871 2.79142 66.6915 2.38027 67.8548 2.38027H69.619V10.3832C69.619 17.1829 69.472 18.4688 68.6432 18.9329C66.9712 19.8682 68.3683 20.8256 71.404 20.8256C74.4398 20.8256 75.8368 19.8682 74.1649 18.9329C73.336 18.4688 73.1891 17.1829 73.1891 10.3832V2.38027H74.9533C76.1082 2.38027 76.937 2.79083 77.3541 3.57029C78.3299 5.394 79.1392 4.98939 79.1392 2.67778V0.595242H71.404H63.6689V2.34517ZM83.8992 1.21643C83.8992 1.60319 82.6801 5.77183 81.1902 10.4801C79.257 16.5891 78.2205 19.0406 77.5707 19.0406C75.6298 19.0406 77.272 20.5382 79.4087 20.7173C81.5424 20.8958 81.6483 20.825 81.3026 19.4487C81.1015 18.6473 81.2282 17.1568 81.584 16.1363C82.1553 14.4971 82.495 14.2805 84.4942 14.2805C86.4935 14.2805 86.8332 14.4971 87.4044 16.1363C87.7603 17.1568 87.8876 18.6443 87.6877 19.4422C87.3319 20.8583 87.3985 20.8887 90.4735 20.7107C92.324 20.6031 93.7246 20.2211 93.8686 19.7843C94.0031 19.375 93.6979 19.0406 93.1897 19.0406C92.5209 19.0406 91.4695 16.5356 89.3823 9.96665C86.9052 2.17261 86.315 0.865972 85.1987 0.702344C84.4841 0.598217 83.8992 0.829081 83.8992 1.21643ZM94.6094 1.48776C94.6094 1.97864 94.8772 2.38027 95.2044 2.38027C95.5727 2.38027 95.7994 5.55346 95.7994 10.7104C95.7994 15.8674 95.5727 19.0406 95.2044 19.0406C94.8772 19.0406 94.6094 19.4422 94.6094 19.9331C94.6094 20.6768 95.7994 20.8256 101.75 20.8256C107.061 20.8256 108.891 20.6352 108.898 20.0818C108.902 19.6731 109.068 18.7353 109.265 17.9993C109.695 16.3934 108.076 16.0941 107.221 17.6209C106.835 18.3105 105.736 18.6044 103.324 18.6621L99.9639 18.7431V10.5617C99.9645 5.50408 100.192 2.38027 100.56 2.38027C100.887 2.38027 101.155 1.97864 101.155 1.48776C101.155 0.802305 100.394 0.595242 97.882 0.595242C95.3698 0.595242 94.6094 0.802305 94.6094 1.48776ZM116.03 1.48776C116.03 1.97864 116.298 2.38027 116.625 2.38027C116.998 2.38027 117.22 6.14847 117.22 12.4954C117.22 21.9781 117.142 22.6886 115.97 23.8601C114.207 25.6232 115.31 26.6234 117.855 25.569C120.848 24.3296 121.385 22.2072 121.385 11.622C121.385 5.85751 121.609 2.38027 121.98 2.38027C122.307 2.38027 122.575 1.97864 122.575 1.48776C122.575 0.802305 121.814 0.595242 119.302 0.595242C116.79 0.595242 116.03 0.802305 116.03 1.48776ZM139.235 1.48776C139.235 1.97864 139.503 2.38027 139.83 2.38027C140.189 2.38027 140.425 4.86563 140.425 8.64692C140.425 17.7303 142.115 20.8256 147.074 20.8256C152.662 20.8256 154.11 18.4003 154.11 9.04796C154.11 3.78331 154.285 2.44096 155.003 2.16488C156.812 1.4705 155.817 0.595242 153.218 0.595242C150.484 0.595242 149.771 1.29557 151.513 2.2702C152.347 2.73728 152.447 3.74106 152.214 9.38176C151.901 16.9973 151.047 19.0406 148.181 19.0406C145.21 19.0406 144.59 17.3745 144.59 9.38771C144.59 5.11256 144.822 2.38027 145.185 2.38027C145.513 2.38027 145.78 1.97864 145.78 1.48776C145.78 0.802305 145.02 0.595242 142.508 0.595242C139.996 0.595242 139.235 0.802305 139.235 1.48776ZM156.49 1.2087C156.49 1.54666 156.892 1.97686 157.383 2.16488C158.117 2.44691 158.276 3.9749 158.276 10.7741C158.276 17.919 158.148 19.0406 157.334 19.0406C156.815 19.0406 156.502 19.375 156.637 19.7843C156.784 20.2324 158.223 20.5989 160.256 20.7066C163.011 20.8524 163.631 20.7125 163.631 19.9444C163.631 19.4267 163.229 18.849 162.738 18.6609C162.084 18.4098 161.846 17.3799 161.846 14.8118C161.846 11.8463 162.009 11.3054 162.905 11.3054C163.522 11.3054 164.23 12.0087 164.6 12.9881C164.949 13.9139 166.142 16.056 167.249 17.7482C169.086 20.5531 169.462 20.8256 171.505 20.8256C173.37 20.8256 173.746 20.6203 173.746 19.6005C173.746 18.9269 173.487 18.5354 173.171 18.7306C172.543 19.1191 169.211 14.8678 168.294 12.5079C167.877 11.4334 167.924 10.9651 168.469 10.7836C168.879 10.6467 169.833 9.91667 170.588 9.1622C172.546 7.20461 172.401 4.51398 170.222 2.33446C168.529 0.642248 168.32 0.595242 162.486 0.595242C158.764 0.595242 156.49 0.827891 156.49 1.2087ZM174.341 1.2087C174.341 1.54666 174.742 1.97686 175.233 2.16488C176.62 2.69741 176.543 18.1528 175.15 18.9329C173.682 19.754 174.74 20.8256 177.018 20.8256C179.358 20.8256 180.24 19.867 178.841 18.8436C178.026 18.2486 177.894 17.1264 178.037 12.023L178.208 5.91463L182.436 13.2214C185.495 18.5086 186.975 20.5281 187.791 20.5281C188.841 20.5281 188.93 19.9057 189.083 11.4542C189.18 6.07588 189.483 2.38027 189.827 2.38027C190.145 2.38027 190.406 1.97864 190.406 1.48776C190.406 0.843361 189.745 0.595242 188.026 0.595242C186.37 0.595242 185.646 0.851691 185.646 1.43837C185.646 1.90188 185.926 2.37432 186.267 2.48797C186.652 2.61649 186.822 4.58597 186.713 7.66158L186.538 12.6281L183.062 6.61139L179.585 0.595242H176.963C175.521 0.595242 174.341 0.871327 174.341 1.2087ZM195.892 6.39659C194.895 9.58763 193.605 13.7372 193.026 15.6192C192.442 17.5203 191.625 19.0406 191.19 19.0406C190.759 19.0406 190.406 19.4422 190.406 19.9331C190.406 20.5775 191.067 20.8256 192.786 20.8256C194.505 20.8256 195.166 20.5775 195.166 19.9331C195.166 19.4422 194.913 19.0406 194.602 19.0406C194.284 19.0406 194.373 18.0701 194.807 16.8093C195.504 14.7892 195.8 14.5613 197.94 14.4001C200.21 14.2299 200.331 14.3126 200.998 16.4826C201.441 17.9225 201.48 18.815 201.107 18.9412C200.785 19.0507 200.521 19.5189 200.521 19.9825C200.521 20.6078 201.367 20.8256 203.794 20.8256C207.105 20.8256 207.928 20.1419 206.22 18.8085C205.755 18.4455 204.134 14.199 202.619 9.37164C199.132 -1.73541 198.518 -2.00674 195.892 6.39659ZM207.661 1.48776C207.661 1.97864 207.929 2.38027 208.256 2.38027C208.625 2.38027 208.851 5.55346 208.851 10.7104C208.851 15.8674 208.625 19.0406 208.256 19.0406C207.929 19.0406 207.661 19.4422 207.661 19.9331C207.661 20.6762 208.844 20.8256 214.732 20.8256C221.562 20.8256 221.815 20.7798 222.162 19.4868C222.359 18.7502 222.524 17.8136 222.528 17.4043C222.54 16.3315 220.907 16.4886 220.273 17.6209C219.887 18.3105 218.788 18.6044 216.376 18.6621L213.016 18.7431V10.5617C213.016 5.50408 213.244 2.38027 213.611 2.38027C213.939 2.38027 214.206 1.97864 214.206 1.48776C214.206 0.802305 213.446 0.595242 210.934 0.595242C208.422 0.595242 207.661 0.802305 207.661 1.48776ZM128.687 3.39536C127.088 5.83669 127.161 16.0149 128.792 17.816C130.515 19.7207 132.745 19.2286 134.028 16.6605C135.23 14.2555 135.44 7.78356 134.413 4.83647C133.264 1.54071 130.378 0.814206 128.687 3.39536ZM22.0182 10.7104V19.0406H23.4724C24.2727 19.0406 25.6781 18.3944 26.5962 17.6048C28.2075 16.219 28.2658 15.9709 28.2658 10.5272C28.2658 3.95943 27.4405 2.38027 24.0085 2.38027H22.0182V10.7104ZM161.846 5.95033V9.52039H163.886C166.443 9.52039 167.796 8.2084 167.796 5.72958C167.796 3.21924 166.872 2.38027 164.107 2.38027H161.846V5.95033ZM197.07 9.35974C196.162 12.3913 196.109 12.1979 197.844 12.1979C199.498 12.1979 199.561 11.8951 198.512 8.99322L197.783 6.97851L197.07 9.35974ZM83.7558 9.03249C83.5916 9.79172 83.2733 10.8473 83.049 11.378C82.7164 12.1628 82.9335 12.2878 84.2069 12.0438C85.5575 11.7862 85.7212 11.5291 85.3897 10.1862C84.8376 7.95016 84.1015 7.43072 83.7558 9.03249Z" fill="#F0F0F0"/>
</svg>
