<svg width="133" height="32" viewBox="0 0 133 32" fill="none" xmlns="http://www.w3.org/2000/svg">
<path d="M45.7568 12.3532C45.6092 10.4092 44.0105 7.68994 40.0629 7.68994C36.6686 7.68994 34 10.04 34 14.6541C34 19.2067 36.5211 21.5814 40.026 21.5814C43.3341 21.5814 45.2034 19.5758 45.7568 16.7089H43.0021C42.67 18.3331 41.6124 19.1944 40.0875 19.1944C37.7509 19.1944 36.8162 17.0658 36.8162 14.691C36.8162 10.9629 38.7593 10.077 40.0875 10.077C42.3626 10.077 42.7807 11.5658 43.0021 12.3532H45.7568ZM88 16.3398C88 12.8085 85.6265 11.1966 83.007 11.1966C80.3876 11.1966 78.0141 12.8085 78.0141 16.3398C78.0141 19.8711 80.3876 21.483 83.007 21.483C85.6388 21.483 88 19.8588 88 16.3398ZM85.356 16.3398C85.356 17.5825 84.987 19.3174 83.007 19.3174C81.0271 19.3174 80.6582 17.5948 80.6582 16.3398C80.6582 15.0848 81.0271 13.3622 83.007 13.3622C84.9993 13.3622 85.356 15.0848 85.356 16.3398ZM76.2186 8.79732H73.6484V11.4427H72.3325V13.2761H73.6484V19.2067C73.6484 20.474 74.0542 21.323 76.2678 21.323H76.5999C77.0057 21.323 77.4115 21.3107 77.8173 21.2861V19.342C77.6329 19.3543 77.4484 19.379 77.2885 19.379C76.2432 19.379 76.2186 19.1575 76.2186 18.5915V13.2761H77.8173V11.4427H76.2186V8.79732ZM46.5069 21.2246H49.0772V16.1306C49.0772 15.0479 49.4461 13.7928 51.4507 13.7928C51.6843 13.7928 51.9672 13.7928 52.1886 13.8298V11.2213C52.0287 11.2089 51.8565 11.1843 51.6966 11.1843C50.1348 11.1843 49.5445 12.1441 49.0157 13.1284H48.9788V11.4427H46.5192V21.2246H46.5069Z" fill="#F0F0F0"/>
<path d="M63 11.6587H60.2025L58.1392 18.9536H58.1013L55.9494 11.6587H53L56.7089 21.9713C56.4557 23.3305 55.9367 23.4677 54.9747 23.4677C54.7468 23.4677 54.5823 23.4428 54.4684 23.4303V25.5128C54.8481 25.5252 55.3038 25.5502 55.6582 25.5502C57.962 25.5502 58.3038 25.0638 59.557 21.3977L63 11.6587Z" fill="#F0F0F0"/>
<path d="M65.6008 17.0376C65.6008 15.4708 66.0429 13.8917 67.9155 13.8917C69.645 13.8917 70.2302 15.3475 70.2302 16.8896C70.2302 18.0493 69.749 19.8505 67.9935 19.8505C66.251 19.8505 65.6008 18.4811 65.6008 17.0376ZM65.6008 11.9178H63V25.5502H65.7048V20.4673H65.7438C66.0689 20.9978 66.7581 21.9724 68.6567 21.9724C71.7256 21.9724 73 19.394 73 16.7045C73 13.3118 70.9844 11.6587 68.7087 11.6587C66.8882 11.6587 66.1209 12.5593 65.6138 13.3365H65.5748V11.9178H65.6008Z" fill="#F0F0F0"/>
<path d="M2 20.422C4.80926 26.0467 9.51667 29.5896 13.8571 31.8054C13.8698 31.8176 14.2367 32.0002 14.2367 32.0002C14.2367 32.0002 14.6037 31.8176 14.6164 31.8054C21.9685 28.0799 30.3584 20.5072 28.8145 5.56869L25.575 4.21729C24.9676 8.84372 22.0065 12.7397 17.8812 15.5642C17.3244 15.9416 16.7423 16.3069 16.1349 16.6478L16.717 20.8603C16.7929 21.4203 16.2361 21.8951 15.654 21.8951H12.7056C12.1235 21.8951 11.554 21.4203 11.6426 20.8603L11.9463 18.5957C9.11174 19.6428 6.06204 20.2637 3.03766 20.4098C2.68334 20.4098 2.34167 20.422 2 20.422Z" fill="#F0F0F0"/>
<path d="M0.17587 5.16258C-0.362805 10.6538 0.371752 15.1544 1.88984 18.8479C2.39178 18.8601 2.88149 18.8479 3.38344 18.8234C6.40736 18.6766 9.45577 17.9795 12.2593 16.8299L12.4919 15.0444C11.6105 14.4573 11.0228 13.4545 11.0228 12.3171C11.0228 10.5193 12.4919 9.0517 14.2916 9.0517C16.0913 9.0517 17.5604 10.5193 17.5604 12.3171C17.5604 13.0876 17.291 13.8091 16.8258 14.3717C16.9115 14.3106 16.9972 14.2494 17.0829 14.1883C20.7557 11.5833 23.4001 8.01215 24 3.82952C20.5598 4.73454 17.4257 3.54824 15.4914 0.992188H14.3528H14.2426H13.1041C11.0228 3.74392 7.55817 4.90576 3.82417 3.59716L0.17587 5.16258Z" fill="#F0F0F0"/>
<path d="M27 0C27.2742 0 27.5323 0.112031 27.7097 0.288075C27.8871 0.464119 28 0.720182 28 0.992251C28 1.26432 27.8871 1.52038 27.7097 1.69643C27.5323 1.87247 27.2742 1.9845 27 1.9845C26.7258 1.9845 26.4677 1.87247 26.2903 1.69643C26.1129 1.52038 26 1.26432 26 0.992251C26 0.720182 26.1129 0.464119 26.2903 0.288075C26.4677 0.128035 26.7258 0 27 0ZM26.629 1.63241V0.336085H27.0968C27.1935 0.336085 27.2581 0.352091 27.3226 0.368095C27.371 0.384099 27.4032 0.432108 27.4355 0.48012C27.4677 0.544136 27.4839 0.608154 27.4839 0.67217C27.4839 0.768194 27.4516 0.848214 27.4032 0.91223C27.3548 0.976247 27.2742 1.00825 27.1774 1.02426C27.2258 1.04026 27.2581 1.07227 27.2742 1.08828C27.3226 1.13629 27.3548 1.2003 27.3871 1.24832L27.5806 1.61641C27.5968 1.6004 27.6129 1.6004 27.629 1.5844C27.7903 1.42436 27.8871 1.21631 27.8871 0.976246C27.8871 0.736185 27.7903 0.528135 27.629 0.368095C27.4677 0.208055 27.2581 0.11203 27.0161 0.11203C26.7742 0.11203 26.5645 0.208055 26.4032 0.368095C26.2419 0.528135 26.1452 0.736185 26.1452 0.976246C26.1452 1.21631 26.2419 1.42436 26.4032 1.5844C26.5645 1.74444 26.7742 1.84046 27.0161 1.84046C27.1774 1.84046 27.3226 1.79245 27.4516 1.72844L27.2581 1.34434C27.2097 1.23231 27.1613 1.16829 27.129 1.13629C27.0968 1.10428 27.0806 1.07227 27.0484 1.05627C27.0161 1.04026 26.9839 1.04026 26.9355 1.04026H26.7742V1.61641H26.629V1.63241ZM26.7581 0.91223H27.0645C27.129 0.91223 27.1774 0.896226 27.2097 0.896226C27.2419 0.880222 27.2742 0.848213 27.2903 0.816205C27.3065 0.784197 27.3226 0.736183 27.3226 0.704175C27.3226 0.640159 27.3065 0.592148 27.2581 0.56014C27.2258 0.512128 27.1613 0.496125 27.0968 0.496125H26.7581V0.91223Z" fill="#F0F0F0"/>
<path d="M90 21.8488H95.7612C100.157 21.8488 101.287 17.6351 101.287 14.6944C101.287 12.1102 100.355 8.18931 95.873 8.18931H90V21.8488ZM129 11.741H126.256L124.232 19.1882H124.195L122.084 11.741H119.191L122.829 22.2689C122.593 23.6565 122.072 23.7965 121.128 23.7965C120.904 23.7965 120.743 23.7711 120.619 23.7583V25.8843C120.991 25.897 121.438 25.9225 121.786 25.9225C124.046 25.9225 124.381 25.426 125.61 21.6833L129 11.741ZM118.322 8.20204H115.727V21.8488H118.322V8.20204ZM111.567 11.741V21.8488H114.162V11.741H111.567ZM114.162 8.06201H111.567V10.5317H114.162V8.06201ZM110.177 14.3889C110.177 11.8938 107.631 11.461 106.241 11.461C104.217 11.461 102.131 11.8938 101.833 15H104.341C104.415 14.4144 104.639 13.5869 105.93 13.5869C106.601 13.5869 107.631 13.6506 107.631 14.7581C107.631 15.331 107.135 15.4964 106.725 15.5601L104.391 15.9165C102.739 16.1584 101.522 17.1768 101.522 19.15C101.522 21.2378 103.037 22.1034 104.527 22.1034C106.29 22.1034 107.122 21.2632 107.718 20.6394C107.78 21.2123 107.818 21.3651 107.967 21.8361H110.76V21.4542C110.45 21.3396 110.189 21.0723 110.189 19.8756V14.3889H110.177ZM107.631 18.2207C107.631 19.4555 106.464 20.2193 105.309 20.2193C104.813 20.2193 104.105 19.9393 104.105 18.9973C104.105 17.8897 104.9 17.6478 105.868 17.4824C106.936 17.3041 107.371 17.1386 107.631 16.935V18.2207ZM92.7192 10.5571H95.3887C96.5807 10.5571 98.4432 10.8881 98.4432 14.9109C98.4432 17.1514 97.6858 19.4937 95.426 19.4937H92.7192V10.5571Z" fill="#F0F0F0"/>
<path d="M129.961 6.81708V7.87499C129.961 7.89931 129.949 7.92363 129.936 7.94795C129.924 7.97227 129.9 7.97227 129.875 7.97227H129.703C129.679 7.97227 129.654 7.96011 129.63 7.94795C129.605 7.93579 129.605 7.91147 129.605 7.87499V5.16333C129.605 5.13901 129.618 5.11469 129.63 5.09037C129.642 5.06605 129.667 5.06605 129.703 5.06605H130.684C130.953 5.06605 131.186 5.13901 131.358 5.28493C131.505 5.43085 131.603 5.63757 131.603 5.90509V5.96589C131.603 6.16045 131.554 6.33069 131.431 6.4766C131.333 6.5982 131.186 6.69548 131.002 6.75628L131.566 7.82635C131.578 7.83851 131.578 7.85067 131.591 7.86283C131.591 7.87499 131.591 7.88715 131.591 7.89931C131.591 7.92363 131.578 7.93579 131.566 7.94795C131.554 7.96011 131.529 7.97227 131.517 7.97227H131.284C131.26 7.97227 131.235 7.96011 131.223 7.94795C131.211 7.93579 131.199 7.92363 131.186 7.89931L130.623 6.81708H129.961ZM130.5 4.09326C131.186 4.09326 131.811 4.37294 132.265 4.82286C132.718 5.27277 133 5.89293 133 6.57388C133 7.25484 132.718 7.87499 132.265 8.32491C131.811 8.77482 131.186 9.0545 130.5 9.0545C129.814 9.0545 129.189 8.77482 128.735 8.32491C128.282 7.87499 128 7.25484 128 6.57388C128 5.89293 128.282 5.27277 128.735 4.82286C129.176 4.37294 129.814 4.09326 130.5 4.09326ZM132.02 5.05389C131.627 4.66478 131.088 4.42158 130.488 4.42158C129.887 4.42158 129.348 4.66478 128.956 5.05389C128.564 5.44301 128.319 5.97805 128.319 6.57388C128.319 7.16972 128.564 7.70475 128.956 8.09387C129.348 8.48299 129.887 8.72619 130.488 8.72619C131.088 8.72619 131.627 8.48299 132.02 8.09387C132.412 7.70475 132.657 7.16972 132.657 6.57388C132.657 5.97805 132.412 5.44301 132.02 5.05389ZM129.961 5.41869V6.4766H130.659C130.819 6.4766 130.966 6.42796 131.076 6.34284C131.162 6.25773 131.223 6.14829 131.223 5.99021V5.91725C131.223 5.74701 131.162 5.62541 131.076 5.54029C130.966 5.44301 130.819 5.40653 130.659 5.40653H129.961V5.41869Z" fill="#F0F0F0"/>
</svg>
