<svg width="12" height="12" viewBox="0 0 12 12" fill="none" xmlns="http://www.w3.org/2000/svg">
<path fill-rule="evenodd" clip-rule="evenodd" d="M12 6C12 9.31371 9.31371 12 6 12C2.68629 12 0 9.31371 0 6C0 2.68629 2.68629 0 6 0C9.31371 0 12 2.68629 12 6ZM6.354 4.5156L5.0526 5.8176L4.2942 5.0592L6.354 3L8.4168 5.0628L7.659 5.8206L6.354 4.5156ZM3.7578 5.5962L3 6.354L3.7578 7.1118L4.5156 6.354L3.7578 5.5962ZM6.354 8.1924L5.0526 6.894L4.2942 7.6488L6.354 9.7086L8.4168 7.6452L7.659 6.8874L6.354 8.1924ZM8.9502 5.5962L8.1924 6.354L8.9502 7.1118L9.7086 6.354L8.9502 5.5962ZM6.354 7.122L7.1256 6.354L6.354 5.586L5.787 6.153L5.7198 6.2196L5.586 6.354L6.354 7.122Z" fill="#E5E5E5"/>
</svg>
