<svg width="12" height="12" viewBox="0 0 12 12" fill="none" xmlns="http://www.w3.org/2000/svg">
<path fill-rule="evenodd" clip-rule="evenodd" d="M6 0C9.3137 0 12 2.68628 12 6C12 9.31373 9.3137 12 6 12C2.6863 12 0 9.3137 0 6C0 2.6863 2.6863 0 6 0ZM3.64855 5.54623C3.54513 5.54623 3.4608 5.63055 3.4608 5.73397V6.2628C3.4608 6.36622 3.54513 6.45062 3.64855 6.45062H4.47533C4.57868 6.45062 4.66307 6.36622 4.66307 6.2628V5.73397C4.66307 5.63055 4.57868 5.54623 4.47533 5.54623H3.64855ZM9.48432 4.93223H2.51568V7.68435C2.51568 8.11283 2.865 8.4621 3.29343 8.4621H8.70658C9.13485 8.4621 9.48432 8.11283 9.48432 7.68435V4.93223ZM6.43447 7.4608H6.97983C7.02603 7.46079 7.07034 7.44242 7.10301 7.40975C7.13567 7.37707 7.15403 7.33276 7.15403 7.28655C7.154 7.24036 7.13564 7.19606 7.10297 7.1634C7.07031 7.13074 7.02602 7.11238 6.97983 7.11235H6.43447C6.4116 7.11235 6.38895 7.11685 6.36781 7.1256C6.34668 7.13436 6.32747 7.14719 6.3113 7.16337C6.29512 7.17954 6.28229 7.19875 6.27354 7.21988C6.26479 7.24102 6.26029 7.26367 6.2603 7.28655C6.26028 7.30943 6.26478 7.33209 6.27352 7.35323C6.28227 7.37438 6.2951 7.39359 6.31127 7.40977C6.32745 7.42596 6.34666 7.43879 6.3678 7.44755C6.38894 7.4563 6.41159 7.46081 6.43447 7.4608ZM7.84885 7.4608H8.39398C8.41686 7.46081 8.43952 7.45631 8.46066 7.44756C8.4818 7.4388 8.50101 7.42596 8.51718 7.40978C8.53336 7.3936 8.54619 7.37438 8.55493 7.35324C8.56368 7.33209 8.56817 7.30943 8.56815 7.28655C8.56816 7.26367 8.56366 7.24102 8.55491 7.21988C8.54615 7.19875 8.53333 7.17954 8.51715 7.16337C8.50098 7.14719 8.48177 7.13436 8.46064 7.1256C8.4395 7.11685 8.41685 7.11235 8.39398 7.11235H7.84885C7.80264 7.11235 7.75833 7.13071 7.72565 7.16338C7.69298 7.19605 7.67462 7.24037 7.67462 7.28658C7.67462 7.33278 7.69298 7.3771 7.72565 7.40977C7.75833 7.44244 7.80264 7.4608 7.84885 7.4608ZM3.60595 7.4608H4.15115C4.17403 7.46081 4.19669 7.45631 4.21784 7.44756C4.23898 7.4388 4.25819 7.42597 4.27437 7.40978C4.29055 7.3936 4.30338 7.37439 4.31212 7.35324C4.32087 7.3321 4.32537 7.30943 4.32535 7.28655C4.32536 7.26367 4.32086 7.24102 4.3121 7.21988C4.30335 7.19874 4.29052 7.17953 4.27434 7.16336C4.25817 7.14718 4.23896 7.13435 4.21782 7.1256C4.19668 7.11684 4.17403 7.11234 4.15115 7.11235H3.60595C3.55975 7.11235 3.51544 7.1307 3.48277 7.16337C3.4501 7.19604 3.43175 7.24035 3.43175 7.28655C3.43175 7.38288 3.50975 7.4608 3.60595 7.4608ZM5.02018 7.4608H5.56545C5.61166 7.4608 5.65597 7.44244 5.68865 7.40977C5.72132 7.3771 5.73968 7.33278 5.73968 7.28658C5.73968 7.24037 5.72132 7.19605 5.68865 7.16338C5.65597 7.13071 5.61166 7.11235 5.56545 7.11235H5.02018C4.97397 7.11236 4.92967 7.13072 4.89699 7.16338C4.86432 7.19605 4.84595 7.24035 4.84593 7.28655C4.84593 7.33276 4.86428 7.37709 4.89696 7.40976C4.92964 7.44244 4.97396 7.4608 5.02018 7.4608ZM3.29343 3.5379C2.865 3.5379 2.51568 3.8873 2.51568 4.31565V4.58378H9.4843V4.31565C9.4843 3.8873 9.13485 3.5379 8.70655 3.5379H3.29343Z" fill="#E5E5E5"/>
</svg>
