<svg width="12" height="12" viewBox="0 0 12 12" fill="none" xmlns="http://www.w3.org/2000/svg">
<path d="M6 0C4.81331 0 3.65328 0.351894 2.66658 1.01118C1.67989 1.67047 0.910851 2.60754 0.456725 3.7039C0.00259972 4.80025 -0.11622 6.00665 0.115291 7.17054C0.346802 8.33443 0.918247 9.40352 1.75736 10.2426C2.59648 11.0818 3.66557 11.6532 4.82946 11.8847C5.99335 12.1162 7.19975 11.9974 8.2961 11.5433C9.39246 11.0891 10.3295 10.3201 10.9888 9.33342C11.6481 8.34672 12 7.18669 12 6C12 5.21207 11.8448 4.43185 11.5433 3.7039C11.2417 2.97594 10.7998 2.31451 10.2426 1.75736C9.68549 1.20021 9.02406 0.758251 8.2961 0.456723C7.56815 0.155195 6.78793 0 6 0ZM7.7616 7.32L6.27 9.462C6.23939 9.50509 6.1989 9.54023 6.15193 9.56448C6.10496 9.58873 6.05286 9.60138 6 9.60138C5.94714 9.60138 5.89505 9.58873 5.84807 9.56448C5.8011 9.54023 5.76062 9.50509 5.73 9.462L4.2384 7.32C4.22486 7.29926 4.21806 7.27485 4.21894 7.2501C4.21982 7.22534 4.22834 7.20147 4.24332 7.18175C4.25831 7.16203 4.27903 7.14744 4.30264 7.13996C4.32625 7.13248 4.3516 7.1325 4.3752 7.14L5.856 7.632C5.94934 7.664 6.05067 7.664 6.144 7.632L7.6254 7.14C7.64897 7.13268 7.67421 7.13281 7.69771 7.14036C7.7212 7.14791 7.74179 7.16252 7.75668 7.18219C7.77157 7.20187 7.78003 7.22566 7.78091 7.25032C7.78179 7.27498 7.77505 7.29931 7.7616 7.32ZM7.974 6.066L6 6.732L4.0266 6.0684C4.00159 6.06005 3.97871 6.04631 3.95959 6.02815C3.94047 6.00998 3.92558 5.98784 3.91597 5.96329C3.90635 5.93873 3.90225 5.91236 3.90395 5.88605C3.90565 5.85973 3.91311 5.83411 3.9258 5.811L5.712 2.571C5.74116 2.52041 5.78313 2.47839 5.83369 2.44917C5.88425 2.41995 5.94161 2.40457 6 2.40457C6.0584 2.40457 6.11576 2.41995 6.16632 2.44917C6.21688 2.47839 6.25885 2.52041 6.288 2.571L8.0742 5.814C8.08637 5.83695 8.09342 5.86227 8.09487 5.8882C8.09633 5.91414 8.09215 5.94008 8.08263 5.96425C8.07312 5.98842 8.05848 6.01025 8.03972 6.02822C8.02097 6.0462 7.99855 6.05991 7.974 6.0684V6.066Z" fill="#E5E5E5"/>
</svg>
