<svg width="1920" height="527" viewBox="0 0 1920 527" fill="none" xmlns="http://www.w3.org/2000/svg">
<path d="M936.507 155.61C909.7 137.256 873.033 127.95 827.547 127.95C769.109 127.95 720.558 148.797 686.574 188.356V141.925V137.77H682.514H587.662H583.595V141.925V514.372V518.527H587.662H682.514H686.574V514.372V314.097C686.574 232.506 755.299 210.721 795.917 210.721C874.229 210.721 883.275 257.285 883.275 292.312V514.378V518.533H887.335H982.188H986.248V514.378V261.393C986.222 213.801 969.489 178.226 936.507 155.61ZM1293.05 442.852L1227.03 444.204C1199.46 444.204 1196.73 426.291 1196.73 382.3V216.38H1291.66H1295.73V212.225V141.958V137.803H1291.66H1196.73V26.7107V19.5152L1190.64 23.1426L1095.78 79.368L1093.75 80.5618V82.9428V137.816H1022.21H1018.15V141.971V212.238V216.393H1022.21H1093.75V410.416C1093.75 480.847 1102.69 526.995 1222.21 526.995C1252.32 526.995 1271.63 524.647 1295.62 521.323L1299.14 520.822V517.194V446.934V442.641L1294.94 442.779L1293.05 442.865V442.852ZM1358.17 137.783H1354.11V141.938V514.385V518.54H1358.17H1453.02H1457.09V514.385V141.938V137.783H1453.02H1358.17ZM1358.17 0.0456583H1354.11V4.20073V82.9098V87.0648H1358.17H1453.02H1457.09V82.9098V4.20073V0.0456583H1453.02H1358.17ZM1963.1 511.674L1801.17 322.526L1952.1 144.675L1957.95 137.783H1949.04H1826.7H1824.76L1823.53 139.333L1731.2 256.163L1640.86 139.359L1639.65 137.783H1637.67H1515.33H1506.47L1512.24 144.649L1661.88 322.526L1500.6 511.674L1494.73 518.54H1503.66H1626H1627.92L1629.14 517.016L1731.12 388.915L1830.39 516.964L1831.6 518.54H1833.58H1960.04H1969L1963.1 511.674ZM476.044 0.0456583H403.039H357.708H355.84L354.624 1.50982L-70.2907 511.694L-76 518.533H-67.2001H51.1292H52.9978L54.2198 517.069L156.003 394.837H398.979V514.352V518.507H403.039H497.892H501.959V514.352V4.19413V0.0390625H497.892H476.044V0.0456583ZM229.06 307.159L398.979 103.144V307.159H229.06Z" fill="white"/>
</svg>
