<svg width="1920" height="528" viewBox="0 0 1920 528" fill="none" xmlns="http://www.w3.org/2000/svg">
<path d="M936.507 156.411C909.7 138.056 873.033 128.75 827.547 128.75C769.109 128.75 720.558 149.598 686.574 189.157V142.726V138.571H682.514H587.662H583.595V142.726V515.172V519.328H587.662H682.514H686.574V515.172V314.898C686.574 233.307 755.299 211.522 795.917 211.522C874.229 211.522 883.275 258.085 883.275 293.113V515.179V519.334H887.335H982.188H986.248V515.179V262.194C986.222 214.602 969.489 179.027 936.507 156.411ZM1293.05 443.652L1227.03 445.004C1199.46 445.004 1196.73 427.091 1196.73 383.1V217.181H1291.66H1295.73V213.026V142.759V138.604H1291.66H1196.73V27.5115V20.3159L1190.64 23.9434L1095.78 80.1688L1093.75 81.3626V83.7435V138.617H1022.21H1018.15V142.772V213.039V217.194H1022.21H1093.75V411.216C1093.75 481.648 1102.69 527.796 1222.21 527.796C1252.32 527.796 1271.63 525.448 1295.62 522.124L1299.14 521.623V517.995V447.735V443.441L1294.94 443.58L1293.05 443.666V443.652ZM1358.17 138.584H1354.11V142.739V515.186V519.341H1358.17H1453.02H1457.09V515.186V142.739V138.584H1453.02H1358.17ZM1358.17 0.84644H1354.11V5.00151V83.7105V87.8656H1358.17H1453.02H1457.09V83.7105V5.00151V0.84644H1453.02H1358.17ZM1963.1 512.475L1801.17 323.327L1952.1 145.476L1957.95 138.584H1949.04H1826.7H1824.76L1823.53 140.134L1731.2 256.964L1640.86 140.16L1639.65 138.584H1637.67H1515.33H1506.47L1512.24 145.45L1661.88 323.327L1500.6 512.475L1494.73 519.341H1503.66H1626H1627.92L1629.14 517.817L1731.12 389.716L1830.39 517.764L1831.6 519.341H1833.58H1960.04H1969L1963.1 512.475ZM476.044 0.84644H403.039H357.708H355.84L354.624 2.3106L-70.2907 512.495L-76 519.334H-67.2001H51.1292H52.9978L54.2198 517.87L156.003 395.638H398.979V515.153V519.308H403.039H497.892H501.959V515.153V4.99492V0.839844H497.892H476.044V0.84644ZM229.06 307.959L398.979 103.945V307.959H229.06Z" fill="white"/>
</svg>
