<svg width="477" height="727" viewBox="0 0 477 727" fill="none" xmlns="http://www.w3.org/2000/svg">
<g filter="url(#filter0_b_2008_41)">
<path fill-rule="evenodd" clip-rule="evenodd" d="M463.607 727C471.004 727 477 719.333 477 709.874L477 17.1257C477 7.6675 471.004 7.70855e-05 463.607 7.64388e-05L224.935 5.55735e-05C221.859 5.53046e-05 218.877 1.35395 216.49 3.83424L184.948 36.6037C181.818 39.8557 180 41.1109 180 46.2679L180 54.5119C180 63.9701 174.004 62.3104 166.607 62.3104L13.3934 62.3104C5.99641 62.3104 -3.59645e-06 69.9778 -4.42332e-06 79.436L1.49717e-06 709.874C6.70306e-07 719.333 5.99641 727 13.3934 727C163.464 727 313.536 727 463.607 727Z" fill="#191919" fill-opacity="0.6"/>
<path d="M476.5 709.874C476.5 719.178 470.62 726.5 463.607 726.5L462.727 726.5L461.848 726.5L460.969 726.5L460.089 726.5L459.21 726.5L458.331 726.5L457.451 726.5L456.572 726.5L455.693 726.5L454.813 726.5L453.934 726.5L453.055 726.5L452.175 726.5L451.296 726.5L450.417 726.5L449.537 726.5L448.658 726.5L447.779 726.5L446.899 726.5L446.02 726.5L445.141 726.5L444.262 726.5L443.382 726.5L442.503 726.5L441.624 726.5L440.744 726.5L439.865 726.5L438.986 726.5L438.106 726.5L437.227 726.5L436.348 726.5L435.468 726.5L434.589 726.5L433.71 726.5L432.83 726.5L431.951 726.5L431.072 726.5L430.192 726.5L429.313 726.5L428.434 726.5L427.554 726.5L426.675 726.5L425.796 726.5L424.916 726.5L424.037 726.5L423.158 726.5L422.278 726.5L421.399 726.5L420.52 726.5L419.64 726.5L418.761 726.5L417.882 726.5L417.003 726.5L416.123 726.5L415.244 726.5L414.365 726.5L413.485 726.5L412.606 726.5L411.727 726.5L410.847 726.5L409.968 726.5L409.089 726.5L408.209 726.5L407.33 726.5L406.451 726.5L405.571 726.5L404.692 726.5L403.813 726.5L402.933 726.5L402.054 726.5L401.175 726.5L400.295 726.5L399.416 726.5L398.537 726.5L397.657 726.5L396.778 726.5L395.899 726.5L395.019 726.5L394.14 726.5L393.261 726.5L392.381 726.5L391.502 726.5L390.623 726.5L389.744 726.5L388.864 726.5L387.985 726.5L387.106 726.5L386.226 726.5L385.347 726.5L384.468 726.5L383.588 726.5L382.709 726.5L381.83 726.5L380.95 726.5L380.071 726.5L379.192 726.5L378.312 726.5L377.433 726.5L376.554 726.5L375.674 726.5L374.795 726.5L373.916 726.5L373.036 726.5L372.157 726.5L371.278 726.5L370.398 726.5L369.519 726.5L368.64 726.5L367.76 726.5L366.881 726.5L366.002 726.5L365.122 726.5L364.243 726.5L363.364 726.5L362.485 726.5L361.605 726.5L360.726 726.5L359.847 726.5L358.967 726.5L358.088 726.5L357.209 726.5L356.329 726.5L355.45 726.5L354.571 726.5L353.691 726.5L352.812 726.5L351.933 726.5L351.053 726.5L350.174 726.5L349.295 726.5L348.415 726.5L347.536 726.5L346.657 726.5L345.777 726.5L344.898 726.5L344.019 726.5L343.139 726.5L342.26 726.5L341.381 726.5L340.501 726.5L339.622 726.5L338.743 726.5L337.863 726.5L336.984 726.5L336.105 726.5L335.226 726.5L334.346 726.5L333.467 726.5L332.588 726.5L331.708 726.5L330.829 726.5L329.95 726.5L329.07 726.5L328.191 726.5L327.312 726.5L326.432 726.5L325.553 726.5L324.674 726.5L323.794 726.5L322.915 726.5L322.036 726.5L321.156 726.5L320.277 726.5L319.398 726.5L318.518 726.5L317.639 726.5L316.76 726.5L315.88 726.5L315.001 726.5L314.122 726.5L313.242 726.5L312.363 726.5L311.484 726.5L310.604 726.5L309.725 726.5L308.846 726.5L307.967 726.5L307.087 726.5L306.208 726.5L305.329 726.5L304.449 726.5L303.57 726.5L302.691 726.5L301.811 726.5L300.932 726.5L300.053 726.5L299.173 726.5L298.294 726.5L297.415 726.5L296.535 726.5L295.656 726.5L294.777 726.5L293.897 726.5L293.018 726.5L292.139 726.5L291.259 726.5L290.38 726.5L289.501 726.5L288.621 726.5L287.742 726.5L286.863 726.5L285.983 726.5L285.104 726.5L284.225 726.5L283.345 726.5L282.466 726.5L281.587 726.5L280.707 726.5L279.828 726.5L278.949 726.5L278.07 726.5L277.19 726.5L276.311 726.5L275.432 726.5L274.552 726.5L273.673 726.5L272.794 726.5L271.914 726.5L271.035 726.5L270.156 726.5L269.276 726.5L268.397 726.5L267.518 726.5L266.638 726.5L265.759 726.5L264.88 726.5L264 726.5L263.121 726.5L262.242 726.5L261.362 726.5L260.483 726.5L259.604 726.5L258.724 726.5L257.845 726.5L256.966 726.5L256.086 726.5L255.207 726.5L254.328 726.5L253.448 726.5L252.569 726.5L251.69 726.5L250.811 726.5L249.931 726.5L249.052 726.5L248.173 726.5L247.293 726.5L246.414 726.5L245.535 726.5L244.655 726.5L243.776 726.5L242.897 726.5L242.017 726.5L241.138 726.5L240.259 726.5L239.379 726.5L238.5 726.5L237.621 726.5L236.741 726.5L235.862 726.5L234.983 726.5L234.103 726.5L233.224 726.5L232.345 726.5L231.465 726.5L230.586 726.5L229.707 726.5L228.827 726.5L227.948 726.5L227.069 726.5L226.189 726.5L225.31 726.5L224.431 726.5L223.552 726.5L222.672 726.5L221.793 726.5L220.914 726.5L220.034 726.5L219.155 726.5L218.276 726.5L217.396 726.5L216.517 726.5L215.638 726.5L214.758 726.5L213.879 726.5L213 726.5L212.12 726.5L211.241 726.5L210.362 726.5L209.482 726.5L208.603 726.5L207.724 726.5L206.844 726.5L205.965 726.5L205.086 726.5L204.206 726.5L203.327 726.5L202.448 726.5L201.568 726.5L200.689 726.5L199.81 726.5L198.93 726.5L198.051 726.5L197.172 726.5L196.293 726.5L195.413 726.5L194.534 726.5L193.655 726.5L192.775 726.5L191.896 726.5L191.017 726.5L190.137 726.5L189.258 726.5L188.379 726.5L187.499 726.5L186.62 726.5L185.741 726.5L184.861 726.5L183.982 726.5L183.103 726.5L182.223 726.5L181.344 726.5L180.465 726.5L179.585 726.5L178.706 726.5L177.827 726.5L176.947 726.5L176.068 726.5L175.189 726.5L174.309 726.5L173.43 726.5L172.551 726.5L171.671 726.5L170.792 726.5L169.913 726.5L169.034 726.5L168.154 726.5L167.275 726.5L166.396 726.5L165.516 726.5L164.637 726.5L163.758 726.5L162.878 726.5L161.999 726.5L161.12 726.5L160.24 726.5L159.361 726.5L158.482 726.5L157.602 726.5L156.723 726.5L155.844 726.5L154.964 726.5L154.085 726.5L153.206 726.5L152.326 726.5L151.447 726.5L150.568 726.5L149.688 726.5L148.809 726.5L147.93 726.5L147.05 726.5L146.171 726.5L145.292 726.5L144.412 726.5L143.533 726.5L142.654 726.5L141.775 726.5L140.895 726.5L140.016 726.5L139.137 726.5L138.257 726.5L137.378 726.5L136.499 726.5L135.619 726.5L134.74 726.5L133.861 726.5L132.981 726.5L132.102 726.5L131.223 726.5L130.343 726.5L129.464 726.5L128.585 726.5L127.705 726.5L126.826 726.5L125.947 726.5L125.067 726.5L124.188 726.5L123.309 726.5L122.429 726.5L121.55 726.5L120.671 726.5L119.791 726.5L118.912 726.5L118.033 726.5L117.153 726.5L116.274 726.5L115.395 726.5L114.516 726.5L113.636 726.5L112.757 726.5L111.878 726.5L110.998 726.5L110.119 726.5L109.24 726.5L108.36 726.5L107.481 726.5L106.602 726.5L105.722 726.5L104.843 726.5L103.964 726.5L103.084 726.5L102.205 726.5L101.326 726.5L100.446 726.5L99.567 726.5L98.6877 726.5L97.8084 726.5L96.929 726.5L96.0497 726.5L95.1704 726.5L94.2911 726.5L93.4117 726.5L92.5324 726.5L91.6531 726.5L90.7738 726.5L89.8945 726.5L89.0151 726.5L88.1358 726.5L87.2565 726.5L86.3772 726.5L85.4979 726.5L84.6185 726.5L83.7392 726.5L82.8599 726.5L81.9806 726.5L81.1012 726.5L80.2219 726.5L79.3426 726.5L78.4633 726.5L77.584 726.5L76.7046 726.5L75.8253 726.5L74.946 726.5L74.0667 726.5L73.1873 726.5L72.308 726.5L71.4287 726.5L70.5494 726.5L69.67 726.5L68.7907 726.5L67.9114 726.5L67.0321 726.5L66.1528 726.5L65.2734 726.5L64.3941 726.5L63.5148 726.5L62.6355 726.5L61.7561 726.5L60.8768 726.5L59.9975 726.5L59.1182 726.5L58.2389 726.5L57.3595 726.5L56.4802 726.5L55.6009 726.5L54.7216 726.5L53.8423 726.5L52.9629 726.5L52.0836 726.5L51.2043 726.5L50.325 726.5L49.4456 726.5L48.5663 726.5L47.687 726.5L46.8076 726.5L45.9283 726.5L45.049 726.5L44.1697 726.5L43.2904 726.5L42.411 726.5L41.5317 726.5L40.6524 726.5L39.7731 726.5L38.8938 726.5L38.0144 726.5L37.1351 726.5L36.2558 726.5L35.3765 726.5L34.4971 726.5L33.6178 726.5L32.7385 726.5L31.8592 726.5L30.9799 726.5L30.1005 726.5L29.2212 726.5L28.3419 726.5L27.4626 726.5L26.5833 726.5L25.7039 726.5L24.8246 726.5L23.9453 726.5L23.0659 726.5L22.1866 726.5L21.3073 726.5L20.428 726.5L19.5486 726.5L18.6693 726.5L17.79 726.5L16.9107 726.5L16.0314 726.5L15.152 726.5L14.2727 726.5L13.3934 726.5C6.38004 726.5 0.500001 719.178 0.500001 709.874L0.499996 79.436C0.499996 70.1325 6.38003 62.8104 13.3934 62.8104L166.607 62.8104C167.523 62.8104 168.419 62.8361 169.29 62.863L169.502 62.8696C170.298 62.8943 171.074 62.9183 171.818 62.9219C173.429 62.9298 174.938 62.8432 176.228 62.4347C177.539 62.0197 178.63 61.2703 179.381 59.9705C180.12 58.6896 180.5 56.9206 180.5 54.5119L180.5 46.2679C180.5 43.7553 180.941 42.2503 181.725 40.9847C182.364 39.9533 183.231 39.0708 184.356 37.9261C184.655 37.622 184.972 37.2994 185.308 36.9505L216.85 4.18101C219.155 1.78581 222.012 0.500039 224.935 0.500039L463.607 0.50006C470.62 0.50006 476.5 7.8222 476.5 17.1257L476.5 709.874Z" stroke="#363938"/>
</g>
<defs>
<filter id="filter0_b_2008_41" x="-29.1" y="-29.1" width="535.2" height="785.2" filterUnits="userSpaceOnUse" color-interpolation-filters="sRGB">
<feFlood flood-opacity="0" result="BackgroundImageFix"/>
<feGaussianBlur in="BackgroundImageFix" stdDeviation="14.55"/>
<feComposite in2="SourceAlpha" operator="in" result="effect1_backgroundBlur_2008_41"/>
<feBlend mode="normal" in="SourceGraphic" in2="effect1_backgroundBlur_2008_41" result="shape"/>
</filter>
</defs>
</svg>
