<svg width="603" height="573" viewBox="0 0 603 573" fill="none" xmlns="http://www.w3.org/2000/svg">
<path d="M-94.7184 -244.36L-91.2139 -247C-18.1032 -158.99 190.18 80.059 309.962 80.059C402.485 80.059 455.765 -59.921 463.015 -80.1453L467.238 -78.674C467.238 -78.674 400.783 106.957 463.239 155.866C524.659 203.956 783.117 122.768 805.24 115.773L806.5 119.98C806.5 119.98 509.492 210.203 490.621 296.196C477.128 357.658 554.479 444.446 575.129 466.711L572.019 469.701C572.019 469.701 482.134 369.042 415.237 397.181C315.757 439.041 258.879 731.78 251.994 773L247.606 772.175C247.606 772.175 310.015 442.298 153.698 368.313C65.8861 326.725 -150.855 379.792 -185.24 388.383L-186.5 384.076C-186.5 384.076 116.651 308.174 116.651 141.319C116.651 6.26915 -94.7184 -244.36 -94.7184 -244.36Z" fill="#F0F0F0" fill-opacity="0.02"/>
</svg>
