<svg width="14" height="15" viewBox="0 0 14 15" fill="none" xmlns="http://www.w3.org/2000/svg">
<path d="M13 11.8333L8.5 11.8333M10.75 9.66667V14M3.7616 8.94444C4.47433 9.40078 5.32989 9.66667 6.24994 9.66667C6.77592 9.66667 7.28082 9.57977 7.75 9.42007M5.875 14H2.2C1.77996 14 1.56994 14 1.40951 13.9213C1.26839 13.852 1.15365 13.7416 1.08175 13.6057C1 13.4512 1 13.2489 1 12.8444V11.1111C1 9.91449 2.00736 8.94444 3.25 8.94444H3.625M9.25 3.88889C9.25 5.48438 7.90685 6.77778 6.25 6.77778C4.59315 6.77778 3.25 5.48438 3.25 3.88889C3.25 2.2934 4.59315 1 6.25 1C7.90685 1 9.25 2.2934 9.25 3.88889Z" stroke="#6C6C6C" stroke-linecap="round" stroke-linejoin="round"/>
</svg>
