<svg width="657" height="688" viewBox="0 0 657 688" fill="none" xmlns="http://www.w3.org/2000/svg">
<g filter="url(#filter0_b_253_503)">
<path fill-rule="evenodd" clip-rule="evenodd" d="M643.107 687.684C650.504 687.684 656.5 679.99 656.5 670.5L656.5 17.1838C656.5 7.69348 650.504 6.05109e-05 643.107 5.98643e-05L270.329 2.7275e-05C267.253 2.70061e-05 264.27 1.35855 261.883 3.84726L230.341 36.7278C227.211 39.9908 225.393 41.2502 225.393 46.4247L225.393 54.6966C225.393 64.1869 219.397 62.5216 212 62.5216L13.3934 62.5216C5.99645 62.5215 -7.05431e-06 70.2149 -7.88398e-06 79.7052L1.50225e-06 670.5C6.72578e-07 679.99 5.99646 687.684 13.3934 687.684C163.464 687.684 493.036 687.684 643.107 687.684Z" fill="#191919" fill-opacity="0.6"/>
<path d="M656 670.5C656 679.837 650.119 687.184 643.107 687.184L328.25 687.184L13.3934 687.184C6.38141 687.184 0.500001 679.837 0.500002 670.5L0.499992 79.7052C0.499993 70.3679 6.3814 63.0215 13.3934 63.0216L212 63.0216C212.916 63.0216 213.812 63.0473 214.684 63.0744C215.553 63.1013 216.402 63.1295 217.211 63.1335C218.822 63.1414 220.331 63.0545 221.622 62.6445C222.933 62.2281 224.024 61.476 224.774 60.1723C225.513 58.8875 225.893 57.1131 225.893 54.6966L225.893 46.4247C225.893 43.9032 226.334 42.3925 227.119 41.1222C227.758 40.0871 228.625 39.2013 229.75 38.0527C230.049 37.7476 230.366 37.4239 230.702 37.0739L262.244 4.19339C264.549 1.78988 267.406 0.500027 270.329 0.500027L643.107 0.50006C650.119 0.50006 656 7.8465 656 17.1838L656 670.5Z" stroke="#363938"/>
</g>
<defs>
<filter id="filter0_b_253_503" x="-29.1" y="-29.1" width="714.7" height="745.884" filterUnits="userSpaceOnUse" color-interpolation-filters="sRGB">
<feFlood flood-opacity="0" result="BackgroundImageFix"/>
<feGaussianBlur in="BackgroundImageFix" stdDeviation="14.55"/>
<feComposite in2="SourceAlpha" operator="in" result="effect1_backgroundBlur_253_503"/>
<feBlend mode="normal" in="SourceGraphic" in2="effect1_backgroundBlur_253_503" result="shape"/>
</filter>
</defs>
</svg>
