<svg width="1920" height="962" viewBox="0 0 1920 962" fill="none" xmlns="http://www.w3.org/2000/svg">
<g clip-path="url(#clip0_2001_103)">
<rect x="-118.953" y="-118.952" width="119.048" height="119.048" stroke="white" stroke-opacity="0.06" stroke-width="2.38095"/>
<rect x="0.0957031" y="-118.952" width="119.048" height="119.048" fill="white" fill-opacity="0.05" stroke="white" stroke-opacity="0.06" stroke-width="2.38095"/>
<rect x="119.143" y="-118.952" width="119.048" height="119.048" stroke="white" stroke-opacity="0.06" stroke-width="2.38095"/>
<rect x="238.191" y="-118.952" width="119.048" height="119.048" stroke="white" stroke-opacity="0.06" stroke-width="2.38095"/>
<rect x="357.238" y="-118.952" width="119.048" height="119.048" stroke="white" stroke-opacity="0.06" stroke-width="2.38095"/>
<rect x="476.285" y="-118.952" width="119.048" height="119.048" stroke="white" stroke-opacity="0.06" stroke-width="2.38095"/>
<rect x="595.334" y="-118.952" width="119.048" height="119.048" stroke="white" stroke-opacity="0.06" stroke-width="2.38095"/>
<rect x="714.381" y="-118.952" width="119.048" height="119.048" stroke="white" stroke-opacity="0.06" stroke-width="2.38095"/>
<rect x="833.428" y="-118.952" width="119.048" height="119.048" fill="white" fill-opacity="0.05" stroke="white" stroke-opacity="0.06" stroke-width="2.38095"/>
<rect x="952.477" y="-118.952" width="119.048" height="119.048" stroke="white" stroke-opacity="0.06" stroke-width="2.38095"/>
<rect x="1071.52" y="-118.952" width="119.048" height="119.048" stroke="white" stroke-opacity="0.06" stroke-width="2.38095"/>
<rect x="1190.57" y="-118.952" width="119.048" height="119.048" stroke="white" stroke-opacity="0.06" stroke-width="2.38095"/>
<rect x="1309.62" y="-118.952" width="119.048" height="119.048" stroke="white" stroke-opacity="0.06" stroke-width="2.38095"/>
<rect x="1428.67" y="-118.952" width="119.048" height="119.048" stroke="white" stroke-opacity="0.06" stroke-width="2.38095"/>
<rect x="1547.71" y="-118.952" width="119.048" height="119.048" stroke="white" stroke-opacity="0.06" stroke-width="2.38095"/>
<rect x="1666.76" y="-118.952" width="119.048" height="119.048" stroke="white" stroke-opacity="0.06" stroke-width="2.38095"/>
<rect x="1785.81" y="-118.952" width="119.048" height="119.048" stroke="white" stroke-opacity="0.06" stroke-width="2.38095"/>
<rect x="1904.86" y="-118.952" width="119.048" height="119.048" stroke="white" stroke-opacity="0.06" stroke-width="2.38095"/>
<rect x="-118.953" y="0.0952148" width="119.048" height="119.048" stroke="white" stroke-opacity="0.06" stroke-width="2.38095"/>
<rect x="0.0957031" y="0.0952148" width="119.048" height="119.048" stroke="white" stroke-opacity="0.06" stroke-width="2.38095"/>
<rect x="119.143" y="0.0952148" width="119.048" height="119.048" stroke="white" stroke-opacity="0.06" stroke-width="2.38095"/>
<rect x="238.191" y="0.0952148" width="119.048" height="119.048" stroke="white" stroke-opacity="0.06" stroke-width="2.38095"/>
<rect x="357.238" y="0.0952148" width="119.048" height="119.048" stroke="white" stroke-opacity="0.06" stroke-width="2.38095"/>
<rect x="476.285" y="0.0952148" width="119.048" height="119.048" stroke="white" stroke-opacity="0.06" stroke-width="2.38095"/>
<rect x="595.334" y="0.0952148" width="119.048" height="119.048" stroke="white" stroke-opacity="0.06" stroke-width="2.38095"/>
<rect x="714.381" y="0.0952148" width="119.048" height="119.048" stroke="white" stroke-opacity="0.06" stroke-width="2.38095"/>
<rect x="833.428" y="0.0952148" width="119.048" height="119.048" stroke="white" stroke-opacity="0.06" stroke-width="2.38095"/>
<rect x="952.477" y="0.0952148" width="119.048" height="119.048" stroke="white" stroke-opacity="0.06" stroke-width="2.38095"/>
<rect x="1071.52" y="0.0952148" width="119.048" height="119.048" stroke="white" stroke-opacity="0.06" stroke-width="2.38095"/>
<rect x="1190.57" y="0.0952148" width="119.048" height="119.048" stroke="white" stroke-opacity="0.06" stroke-width="2.38095"/>
<rect x="1309.62" y="0.0952148" width="119.048" height="119.048" stroke="white" stroke-opacity="0.06" stroke-width="2.38095"/>
<rect x="1428.67" y="0.0952148" width="119.048" height="119.048" stroke="white" stroke-opacity="0.06" stroke-width="2.38095"/>
<rect x="1547.71" y="0.0952148" width="119.048" height="119.048" stroke="white" stroke-opacity="0.06" stroke-width="2.38095"/>
<rect x="1666.76" y="0.0952148" width="119.048" height="119.048" fill="white" fill-opacity="0.05" stroke="white" stroke-opacity="0.06" stroke-width="2.38095"/>
<rect x="1785.81" y="0.0952148" width="119.048" height="119.048" stroke="white" stroke-opacity="0.06" stroke-width="2.38095"/>
<rect x="1904.86" y="0.0952148" width="119.048" height="119.048" stroke="white" stroke-opacity="0.06" stroke-width="2.38095"/>
<rect x="-118.953" y="119.143" width="119.048" height="119.048" stroke="white" stroke-opacity="0.06" stroke-width="2.38095"/>
<rect x="0.0957031" y="119.143" width="119.048" height="119.048" stroke="white" stroke-opacity="0.06" stroke-width="2.38095"/>
<rect x="119.143" y="119.143" width="119.048" height="119.048" stroke="white" stroke-opacity="0.06" stroke-width="2.38095"/>
<rect x="238.191" y="119.143" width="119.048" height="119.048" stroke="white" stroke-opacity="0.06" stroke-width="2.38095"/>
<rect x="357.238" y="119.143" width="119.048" height="119.048" stroke="white" stroke-opacity="0.06" stroke-width="2.38095"/>
<rect x="476.285" y="119.143" width="119.048" height="119.048" stroke="white" stroke-opacity="0.06" stroke-width="2.38095"/>
<rect x="595.334" y="119.143" width="119.048" height="119.048" stroke="white" stroke-opacity="0.06" stroke-width="2.38095"/>
<rect x="714.381" y="119.143" width="119.048" height="119.048" stroke="white" stroke-opacity="0.06" stroke-width="2.38095"/>
<rect x="833.428" y="119.143" width="119.048" height="119.048" stroke="white" stroke-opacity="0.06" stroke-width="2.38095"/>
<rect x="952.477" y="119.143" width="119.048" height="119.048" stroke="white" stroke-opacity="0.06" stroke-width="2.38095"/>
<rect x="1071.52" y="119.143" width="119.048" height="119.048" stroke="white" stroke-opacity="0.06" stroke-width="2.38095"/>
<rect x="1190.57" y="119.143" width="119.048" height="119.048" stroke="white" stroke-opacity="0.06" stroke-width="2.38095"/>
<rect x="1309.62" y="119.143" width="119.048" height="119.048" stroke="white" stroke-opacity="0.06" stroke-width="2.38095"/>
<rect x="1428.67" y="119.143" width="119.048" height="119.048" stroke="white" stroke-opacity="0.06" stroke-width="2.38095"/>
<rect x="1547.71" y="119.143" width="119.048" height="119.048" stroke="white" stroke-opacity="0.06" stroke-width="2.38095"/>
<rect x="1666.76" y="119.143" width="119.048" height="119.048" stroke="white" stroke-opacity="0.06" stroke-width="2.38095"/>
<rect x="1785.81" y="119.143" width="119.048" height="119.048" stroke="white" stroke-opacity="0.06" stroke-width="2.38095"/>
<rect x="1904.86" y="119.143" width="119.048" height="119.048" stroke="white" stroke-opacity="0.06" stroke-width="2.38095"/>
<rect x="-118.953" y="238.19" width="119.048" height="119.048" stroke="white" stroke-opacity="0.06" stroke-width="2.38095"/>
<rect x="0.0957031" y="238.19" width="119.048" height="119.048" stroke="white" stroke-opacity="0.06" stroke-width="2.38095"/>
<rect x="119.143" y="238.19" width="119.048" height="119.048" fill="white" fill-opacity="0.05" stroke="white" stroke-opacity="0.06" stroke-width="2.38095"/>
<rect x="238.191" y="238.19" width="119.048" height="119.048" stroke="white" stroke-opacity="0.06" stroke-width="2.38095"/>
<rect x="357.238" y="238.19" width="119.048" height="119.048" stroke="white" stroke-opacity="0.06" stroke-width="2.38095"/>
<rect x="476.285" y="238.19" width="119.048" height="119.048" stroke="white" stroke-opacity="0.06" stroke-width="2.38095"/>
<rect x="595.334" y="238.19" width="119.048" height="119.048" stroke="white" stroke-opacity="0.06" stroke-width="2.38095"/>
<rect x="714.381" y="238.19" width="119.048" height="119.048" stroke="white" stroke-opacity="0.06" stroke-width="2.38095"/>
<rect x="833.428" y="238.19" width="119.048" height="119.048" stroke="white" stroke-opacity="0.06" stroke-width="2.38095"/>
<rect x="952.477" y="238.19" width="119.048" height="119.048" stroke="white" stroke-opacity="0.06" stroke-width="2.38095"/>
<rect x="1071.52" y="238.19" width="119.048" height="119.048" stroke="white" stroke-opacity="0.06" stroke-width="2.38095"/>
<rect x="1190.57" y="238.19" width="119.048" height="119.048" fill="white" fill-opacity="0.05" stroke="white" stroke-opacity="0.06" stroke-width="2.38095"/>
<rect x="1309.62" y="238.19" width="119.048" height="119.048" stroke="white" stroke-opacity="0.06" stroke-width="2.38095"/>
<rect x="1428.67" y="238.19" width="119.048" height="119.048" stroke="white" stroke-opacity="0.06" stroke-width="2.38095"/>
<rect x="1547.71" y="238.19" width="119.048" height="119.048" stroke="white" stroke-opacity="0.06" stroke-width="2.38095"/>
<rect x="1666.76" y="238.19" width="119.048" height="119.048" stroke="white" stroke-opacity="0.06" stroke-width="2.38095"/>
<rect x="1785.81" y="238.19" width="119.048" height="119.048" stroke="white" stroke-opacity="0.06" stroke-width="2.38095"/>
<rect x="1904.86" y="238.19" width="119.048" height="119.048" stroke="white" stroke-opacity="0.06" stroke-width="2.38095"/>
<rect x="-118.953" y="357.238" width="119.048" height="119.048" stroke="white" stroke-opacity="0.06" stroke-width="2.38095"/>
<rect x="0.0957031" y="357.238" width="119.048" height="119.048" stroke="white" stroke-opacity="0.06" stroke-width="2.38095"/>
<rect x="119.143" y="357.238" width="119.048" height="119.048" stroke="white" stroke-opacity="0.06" stroke-width="2.38095"/>
<rect x="238.191" y="357.238" width="119.048" height="119.048" stroke="white" stroke-opacity="0.06" stroke-width="2.38095"/>
<rect x="357.238" y="357.238" width="119.048" height="119.048" stroke="white" stroke-opacity="0.06" stroke-width="2.38095"/>
<rect x="476.285" y="357.238" width="119.048" height="119.048" stroke="white" stroke-opacity="0.06" stroke-width="2.38095"/>
<rect x="595.334" y="357.238" width="119.048" height="119.048" stroke="white" stroke-opacity="0.06" stroke-width="2.38095"/>
<rect x="714.381" y="357.238" width="119.048" height="119.048" stroke="white" stroke-opacity="0.06" stroke-width="2.38095"/>
<rect x="833.428" y="357.238" width="119.048" height="119.048" stroke="white" stroke-opacity="0.06" stroke-width="2.38095"/>
<rect x="952.477" y="357.238" width="119.048" height="119.048" stroke="white" stroke-opacity="0.06" stroke-width="2.38095"/>
<rect x="1071.52" y="357.238" width="119.048" height="119.048" stroke="white" stroke-opacity="0.06" stroke-width="2.38095"/>
<rect x="1190.57" y="357.238" width="119.048" height="119.048" stroke="white" stroke-opacity="0.06" stroke-width="2.38095"/>
<rect x="1309.62" y="357.238" width="119.048" height="119.048" stroke="white" stroke-opacity="0.06" stroke-width="2.38095"/>
<rect x="1428.67" y="357.238" width="119.048" height="119.048" stroke="white" stroke-opacity="0.06" stroke-width="2.38095"/>
<rect x="1547.71" y="357.238" width="119.048" height="119.048" stroke="white" stroke-opacity="0.06" stroke-width="2.38095"/>
<rect x="1666.76" y="357.238" width="119.048" height="119.048" stroke="white" stroke-opacity="0.06" stroke-width="2.38095"/>
<rect x="1785.81" y="357.238" width="119.048" height="119.048" stroke="white" stroke-opacity="0.06" stroke-width="2.38095"/>
<rect x="1904.86" y="357.238" width="119.048" height="119.048" fill="white" fill-opacity="0.05" stroke="white" stroke-opacity="0.06" stroke-width="2.38095"/>
<rect x="-118.953" y="476.286" width="119.048" height="119.048" stroke="white" stroke-opacity="0.06" stroke-width="2.38095"/>
<rect x="0.0957031" y="476.286" width="119.048" height="119.048" stroke="white" stroke-opacity="0.06" stroke-width="2.38095"/>
<rect x="119.143" y="476.286" width="119.048" height="119.048" stroke="white" stroke-opacity="0.06" stroke-width="2.38095"/>
<rect x="238.191" y="476.286" width="119.048" height="119.048" stroke="white" stroke-opacity="0.06" stroke-width="2.38095"/>
<rect x="357.238" y="476.286" width="119.048" height="119.048" stroke="white" stroke-opacity="0.06" stroke-width="2.38095"/>
<rect x="476.285" y="476.286" width="119.048" height="119.048" stroke="white" stroke-opacity="0.06" stroke-width="2.38095"/>
<rect x="595.334" y="476.286" width="119.048" height="119.048" stroke="white" stroke-opacity="0.06" stroke-width="2.38095"/>
<rect x="714.381" y="476.286" width="119.048" height="119.048" stroke="white" stroke-opacity="0.06" stroke-width="2.38095"/>
<rect x="833.428" y="476.286" width="119.048" height="119.048" stroke="white" stroke-opacity="0.06" stroke-width="2.38095"/>
<rect x="952.477" y="476.286" width="119.048" height="119.048" stroke="white" stroke-opacity="0.06" stroke-width="2.38095"/>
<rect x="1071.52" y="476.286" width="119.048" height="119.048" stroke="white" stroke-opacity="0.06" stroke-width="2.38095"/>
<rect x="1190.57" y="476.286" width="119.048" height="119.048" stroke="white" stroke-opacity="0.06" stroke-width="2.38095"/>
<rect x="1309.62" y="476.286" width="119.048" height="119.048" stroke="white" stroke-opacity="0.06" stroke-width="2.38095"/>
<rect x="1428.67" y="476.286" width="119.048" height="119.048" stroke="white" stroke-opacity="0.06" stroke-width="2.38095"/>
<rect x="1547.71" y="476.286" width="119.048" height="119.048" stroke="white" stroke-opacity="0.06" stroke-width="2.38095"/>
<rect x="1666.76" y="476.286" width="119.048" height="119.048" stroke="white" stroke-opacity="0.06" stroke-width="2.38095"/>
<rect x="1785.81" y="476.286" width="119.048" height="119.048" stroke="white" stroke-opacity="0.06" stroke-width="2.38095"/>
<rect x="1904.86" y="476.286" width="119.048" height="119.048" stroke="white" stroke-opacity="0.06" stroke-width="2.38095"/>
<rect x="-118.953" y="595.333" width="119.048" height="119.048" stroke="white" stroke-opacity="0.06" stroke-width="2.38095"/>
<rect x="0.0957031" y="595.333" width="119.048" height="119.048" stroke="white" stroke-opacity="0.06" stroke-width="2.38095"/>
<rect x="119.143" y="595.333" width="119.048" height="119.048" stroke="white" stroke-opacity="0.06" stroke-width="2.38095"/>
<rect x="238.191" y="595.333" width="119.048" height="119.048" stroke="white" stroke-opacity="0.06" stroke-width="2.38095"/>
<rect x="357.238" y="595.333" width="119.048" height="119.048" stroke="white" stroke-opacity="0.06" stroke-width="2.38095"/>
<rect x="476.285" y="595.333" width="119.048" height="119.048" stroke="white" stroke-opacity="0.06" stroke-width="2.38095"/>
<rect x="595.334" y="595.333" width="119.048" height="119.048" stroke="white" stroke-opacity="0.06" stroke-width="2.38095"/>
<rect x="714.381" y="595.333" width="119.048" height="119.048" fill="white" fill-opacity="0.05" stroke="white" stroke-opacity="0.06" stroke-width="2.38095"/>
<rect x="833.428" y="595.333" width="119.048" height="119.048" stroke="white" stroke-opacity="0.06" stroke-width="2.38095"/>
<rect x="952.477" y="595.333" width="119.048" height="119.048" stroke="white" stroke-opacity="0.06" stroke-width="2.38095"/>
<rect x="1071.52" y="595.333" width="119.048" height="119.048" stroke="white" stroke-opacity="0.06" stroke-width="2.38095"/>
<rect x="1190.57" y="595.333" width="119.048" height="119.048" stroke="white" stroke-opacity="0.06" stroke-width="2.38095"/>
<rect x="1309.62" y="595.333" width="119.048" height="119.048" stroke="white" stroke-opacity="0.06" stroke-width="2.38095"/>
<rect x="1428.67" y="595.333" width="119.048" height="119.048" stroke="white" stroke-opacity="0.06" stroke-width="2.38095"/>
<rect x="1547.71" y="595.333" width="119.048" height="119.048" stroke="white" stroke-opacity="0.06" stroke-width="2.38095"/>
<rect x="1666.76" y="595.333" width="119.048" height="119.048" stroke="white" stroke-opacity="0.06" stroke-width="2.38095"/>
<rect x="1785.81" y="595.333" width="119.048" height="119.048" stroke="white" stroke-opacity="0.06" stroke-width="2.38095"/>
<rect x="1904.86" y="595.333" width="119.048" height="119.048" stroke="white" stroke-opacity="0.06" stroke-width="2.38095"/>
<rect x="-118.953" y="714.381" width="119.048" height="119.048" stroke="white" stroke-opacity="0.06" stroke-width="2.38095"/>
<rect x="0.0957031" y="714.381" width="119.048" height="119.048" stroke="white" stroke-opacity="0.06" stroke-width="2.38095"/>
<rect x="119.143" y="714.381" width="119.048" height="119.048" stroke="white" stroke-opacity="0.06" stroke-width="2.38095"/>
<rect x="238.191" y="714.381" width="119.048" height="119.048" fill="white" fill-opacity="0.05" stroke="white" stroke-opacity="0.06" stroke-width="2.38095"/>
<rect x="357.238" y="714.381" width="119.048" height="119.048" stroke="white" stroke-opacity="0.06" stroke-width="2.38095"/>
<rect x="476.285" y="714.381" width="119.048" height="119.048" stroke="white" stroke-opacity="0.06" stroke-width="2.38095"/>
<rect x="595.334" y="714.381" width="119.048" height="119.048" stroke="white" stroke-opacity="0.06" stroke-width="2.38095"/>
<rect x="714.381" y="714.381" width="119.048" height="119.048" stroke="white" stroke-opacity="0.06" stroke-width="2.38095"/>
<rect x="833.428" y="714.381" width="119.048" height="119.048" stroke="white" stroke-opacity="0.06" stroke-width="2.38095"/>
<rect x="952.477" y="714.381" width="119.048" height="119.048" stroke="white" stroke-opacity="0.06" stroke-width="2.38095"/>
<rect x="1071.52" y="714.381" width="119.048" height="119.048" stroke="white" stroke-opacity="0.06" stroke-width="2.38095"/>
<rect x="1190.57" y="714.381" width="119.048" height="119.048" stroke="white" stroke-opacity="0.06" stroke-width="2.38095"/>
<rect x="1309.62" y="714.381" width="119.048" height="119.048" stroke="white" stroke-opacity="0.06" stroke-width="2.38095"/>
<rect x="1428.67" y="714.381" width="119.048" height="119.048" stroke="white" stroke-opacity="0.06" stroke-width="2.38095"/>
<rect x="1547.71" y="714.381" width="119.048" height="119.048" stroke="white" stroke-opacity="0.06" stroke-width="2.38095"/>
<rect x="1666.76" y="714.381" width="119.048" height="119.048" stroke="white" stroke-opacity="0.06" stroke-width="2.38095"/>
<rect x="1785.81" y="714.381" width="119.048" height="119.048" stroke="white" stroke-opacity="0.06" stroke-width="2.38095"/>
<rect x="1904.86" y="714.381" width="119.048" height="119.048" stroke="white" stroke-opacity="0.06" stroke-width="2.38095"/>
<rect x="-118.953" y="833.429" width="119.048" height="119.048" stroke="white" stroke-opacity="0.06" stroke-width="2.38095"/>
<rect x="0.0957031" y="833.429" width="119.048" height="119.048" stroke="white" stroke-opacity="0.06" stroke-width="2.38095"/>
<rect x="119.143" y="833.429" width="119.048" height="119.048" stroke="white" stroke-opacity="0.06" stroke-width="2.38095"/>
<rect x="238.191" y="833.429" width="119.048" height="119.048" stroke="white" stroke-opacity="0.06" stroke-width="2.38095"/>
<rect x="357.238" y="833.429" width="119.048" height="119.048" stroke="white" stroke-opacity="0.06" stroke-width="2.38095"/>
<rect x="476.285" y="833.429" width="119.048" height="119.048" stroke="white" stroke-opacity="0.06" stroke-width="2.38095"/>
<rect x="595.334" y="833.429" width="119.048" height="119.048" stroke="white" stroke-opacity="0.06" stroke-width="2.38095"/>
<rect x="714.381" y="833.428" width="119.048" height="119.048" stroke="white" stroke-opacity="0.06" stroke-width="2.38095"/>
<rect x="833.428" y="833.429" width="119.048" height="119.048" stroke="white" stroke-opacity="0.06" stroke-width="2.38095"/>
<rect x="952.477" y="833.429" width="119.048" height="119.048" stroke="white" stroke-opacity="0.06" stroke-width="2.38095"/>
<rect x="1071.52" y="833.429" width="119.048" height="119.048" stroke="white" stroke-opacity="0.06" stroke-width="2.38095"/>
<rect x="1190.57" y="833.429" width="119.048" height="119.048" stroke="white" stroke-opacity="0.06" stroke-width="2.38095"/>
<rect x="1309.62" y="833.428" width="119.048" height="119.048" stroke="white" stroke-opacity="0.06" stroke-width="2.38095"/>
<rect x="1428.67" y="833.429" width="119.048" height="119.048" stroke="white" stroke-opacity="0.06" stroke-width="2.38095"/>
<rect x="1547.71" y="833.429" width="119.048" height="119.048" stroke="white" stroke-opacity="0.06" stroke-width="2.38095"/>
<rect x="1666.76" y="833.429" width="119.048" height="119.048" stroke="white" stroke-opacity="0.06" stroke-width="2.38095"/>
<rect x="1785.81" y="833.429" width="119.048" height="119.048" stroke="white" stroke-opacity="0.06" stroke-width="2.38095"/>
<rect x="1904.86" y="833.429" width="119.048" height="119.048" stroke="white" stroke-opacity="0.06" stroke-width="2.38095"/>
<rect x="-118.953" y="952.476" width="119.048" height="119.048" stroke="white" stroke-opacity="0.06" stroke-width="2.38095"/>
<rect x="0.0957031" y="952.476" width="119.048" height="119.048" stroke="white" stroke-opacity="0.06" stroke-width="2.38095"/>
<rect x="119.143" y="952.476" width="119.048" height="119.048" stroke="white" stroke-opacity="0.06" stroke-width="2.38095"/>
<rect x="238.191" y="952.476" width="119.048" height="119.048" stroke="white" stroke-opacity="0.06" stroke-width="2.38095"/>
<rect x="357.238" y="952.476" width="119.048" height="119.048" stroke="white" stroke-opacity="0.06" stroke-width="2.38095"/>
<rect x="476.285" y="952.476" width="119.048" height="119.048" stroke="white" stroke-opacity="0.06" stroke-width="2.38095"/>
<rect x="595.334" y="952.476" width="119.048" height="119.048" stroke="white" stroke-opacity="0.06" stroke-width="2.38095"/>
<rect x="714.381" y="952.476" width="119.048" height="119.048" stroke="white" stroke-opacity="0.06" stroke-width="2.38095"/>
<rect x="833.428" y="952.476" width="119.048" height="119.048" stroke="white" stroke-opacity="0.06" stroke-width="2.38095"/>
<rect x="952.477" y="952.476" width="119.048" height="119.048" stroke="white" stroke-opacity="0.06" stroke-width="2.38095"/>
<rect x="1071.52" y="952.476" width="119.048" height="119.048" stroke="white" stroke-opacity="0.06" stroke-width="2.38095"/>
<rect x="1190.57" y="952.476" width="119.048" height="119.048" stroke="white" stroke-opacity="0.06" stroke-width="2.38095"/>
<rect x="1309.62" y="952.476" width="119.048" height="119.048" stroke="white" stroke-opacity="0.06" stroke-width="2.38095"/>
<rect x="1428.67" y="952.476" width="119.048" height="119.048" stroke="white" stroke-opacity="0.06" stroke-width="2.38095"/>
<rect x="1547.71" y="952.476" width="119.048" height="119.048" stroke="white" stroke-opacity="0.06" stroke-width="2.38095"/>
<rect x="1666.76" y="952.476" width="119.048" height="119.048" stroke="white" stroke-opacity="0.06" stroke-width="2.38095"/>
<rect x="1785.81" y="952.476" width="119.048" height="119.048" stroke="white" stroke-opacity="0.06" stroke-width="2.38095"/>
<rect x="1904.86" y="952.476" width="119.048" height="119.048" stroke="white" stroke-opacity="0.06" stroke-width="2.38095"/>
<g filter="url(#filter0_f_2001_103)">
<rect x="-440.381" y="-1919.57" width="3019.05" height="2381.82" fill="url(#paint0_radial_2001_103)"/>
</g>
<rect x="-773.715" y="-796.238" width="3433.33" height="2159.91" fill="url(#paint1_radial_2001_103)"/>
<g filter="url(#filter1_f_2001_103)">
<path d="M334.192 1725.47C229.722 1558.88 175.917 1410.47 419.149 1246.56C584.237 1135.31 847.129 1121.86 1208.71 1297.63C1439.07 1409.62 1496.57 1580.85 1293.5 1762.2C1012.53 1960.67 438.662 1892.06 334.192 1725.47Z" fill="#08F2FF" fill-opacity="0.17"/>
</g>
</g>
<defs>
<filter id="filter0_f_2001_103" x="-1154.67" y="-2633.86" width="4447.62" height="3810.39" filterUnits="userSpaceOnUse" color-interpolation-filters="sRGB">
<feFlood flood-opacity="0" result="BackgroundImageFix"/>
<feBlend mode="normal" in="SourceGraphic" in2="BackgroundImageFix" result="shape"/>
<feGaussianBlur stdDeviation="357.143" result="effect1_foregroundBlur_2001_103"/>
</filter>
<filter id="filter1_f_2001_103" x="1.41757" y="919.394" width="1661.16" height="1208.73" filterUnits="userSpaceOnUse" color-interpolation-filters="sRGB">
<feFlood flood-opacity="0" result="BackgroundImageFix"/>
<feBlend mode="normal" in="SourceGraphic" in2="BackgroundImageFix" result="shape"/>
<feGaussianBlur stdDeviation="122.3" result="effect1_foregroundBlur_2001_103"/>
</filter>
<radialGradient id="paint0_radial_2001_103" cx="0" cy="0" r="1" gradientUnits="userSpaceOnUse" gradientTransform="translate(1069.14 -728.664) rotate(90) scale(1190.91 1509.52)">
<stop offset="0.015625" stop-color="#12FFF1" stop-opacity="0.64"/>
<stop offset="0.223958" stop-color="#12FFF1" stop-opacity="0.34"/>
<stop offset="0.911458" stop-color="#12FFF1" stop-opacity="0"/>
</radialGradient>
<radialGradient id="paint1_radial_2001_103" cx="0" cy="0" r="1" gradientUnits="userSpaceOnUse" gradientTransform="translate(942.999 307.409) rotate(90.0026) scale(1056.26 1679)">
<stop stop-opacity="0"/>
<stop offset="0.660118"/>
</radialGradient>
<clipPath id="clip0_2001_103">
<rect width="1920" height="962" fill="white"/>
</clipPath>
</defs>
</svg>
