<svg width="1920" height="1353" viewBox="0 0 1920 1353" fill="none" xmlns="http://www.w3.org/2000/svg">
<g clip-path="url(#clip0_210_618)">
<rect x="-118.952" y="-8.90479" width="119.048" height="119.048" stroke="white" stroke-opacity="0.06" stroke-width="2.38095"/>
<rect x="0.0957031" y="-8.90479" width="119.048" height="119.048" stroke="white" stroke-opacity="0.06" stroke-width="2.38095"/>
<rect x="119.143" y="-8.90479" width="119.048" height="119.048" stroke="white" stroke-opacity="0.06" stroke-width="2.38095"/>
<rect x="238.19" y="-8.90479" width="119.048" height="119.048" stroke="white" stroke-opacity="0.06" stroke-width="2.38095"/>
<rect x="357.238" y="-8.90479" width="119.048" height="119.048" stroke="white" stroke-opacity="0.06" stroke-width="2.38095"/>
<rect x="476.286" y="-8.90479" width="119.048" height="119.048" stroke="white" stroke-opacity="0.06" stroke-width="2.38095"/>
<rect x="595.333" y="-8.90479" width="119.048" height="119.048" stroke="white" stroke-opacity="0.06" stroke-width="2.38095"/>
<rect x="714.381" y="-8.90479" width="119.048" height="119.048" stroke="white" stroke-opacity="0.06" stroke-width="2.38095"/>
<rect x="833.429" y="-8.90479" width="119.048" height="119.048" stroke="white" stroke-opacity="0.06" stroke-width="2.38095"/>
<rect x="952.477" y="-8.90479" width="119.048" height="119.048" stroke="white" stroke-opacity="0.06" stroke-width="2.38095"/>
<rect x="1071.52" y="-8.90479" width="119.048" height="119.048" stroke="white" stroke-opacity="0.06" stroke-width="2.38095"/>
<rect x="1190.57" y="-8.90479" width="119.048" height="119.048" stroke="white" stroke-opacity="0.06" stroke-width="2.38095"/>
<rect x="1309.62" y="-8.90479" width="119.048" height="119.048" stroke="white" stroke-opacity="0.06" stroke-width="2.38095"/>
<rect x="1428.67" y="-8.90479" width="119.048" height="119.048" stroke="white" stroke-opacity="0.06" stroke-width="2.38095"/>
<rect x="1547.71" y="-8.90479" width="119.048" height="119.048" stroke="white" stroke-opacity="0.06" stroke-width="2.38095"/>
<rect x="1666.76" y="-8.90479" width="119.048" height="119.048" fill="white" fill-opacity="0.05" stroke="white" stroke-opacity="0.06" stroke-width="2.38095"/>
<rect x="1785.81" y="-8.90479" width="119.048" height="119.048" stroke="white" stroke-opacity="0.06" stroke-width="2.38095"/>
<rect x="1904.86" y="-8.90479" width="119.048" height="119.048" stroke="white" stroke-opacity="0.06" stroke-width="2.38095"/>
<rect x="-118.952" y="110.143" width="119.048" height="119.048" stroke="white" stroke-opacity="0.06" stroke-width="2.38095"/>
<rect x="0.0957031" y="110.143" width="119.048" height="119.048" stroke="white" stroke-opacity="0.06" stroke-width="2.38095"/>
<rect x="119.143" y="110.143" width="119.048" height="119.048" stroke="white" stroke-opacity="0.06" stroke-width="2.38095"/>
<rect x="238.19" y="110.143" width="119.048" height="119.048" stroke="white" stroke-opacity="0.06" stroke-width="2.38095"/>
<rect x="357.238" y="110.143" width="119.048" height="119.048" stroke="white" stroke-opacity="0.06" stroke-width="2.38095"/>
<rect x="476.286" y="110.143" width="119.048" height="119.048" stroke="white" stroke-opacity="0.06" stroke-width="2.38095"/>
<rect x="595.333" y="110.143" width="119.048" height="119.048" stroke="white" stroke-opacity="0.06" stroke-width="2.38095"/>
<rect x="714.381" y="110.143" width="119.048" height="119.048" stroke="white" stroke-opacity="0.06" stroke-width="2.38095"/>
<rect x="833.429" y="110.143" width="119.048" height="119.048" stroke="white" stroke-opacity="0.06" stroke-width="2.38095"/>
<rect x="952.477" y="110.143" width="119.048" height="119.048" stroke="white" stroke-opacity="0.06" stroke-width="2.38095"/>
<rect x="1071.52" y="110.143" width="119.048" height="119.048" stroke="white" stroke-opacity="0.06" stroke-width="2.38095"/>
<rect x="1190.57" y="110.143" width="119.048" height="119.048" stroke="white" stroke-opacity="0.06" stroke-width="2.38095"/>
<rect x="1309.62" y="110.143" width="119.048" height="119.048" stroke="white" stroke-opacity="0.06" stroke-width="2.38095"/>
<rect x="1428.67" y="110.143" width="119.048" height="119.048" stroke="white" stroke-opacity="0.06" stroke-width="2.38095"/>
<rect x="1547.71" y="110.143" width="119.048" height="119.048" stroke="white" stroke-opacity="0.06" stroke-width="2.38095"/>
<rect x="1666.76" y="110.143" width="119.048" height="119.048" stroke="white" stroke-opacity="0.06" stroke-width="2.38095"/>
<rect x="1785.81" y="110.143" width="119.048" height="119.048" stroke="white" stroke-opacity="0.06" stroke-width="2.38095"/>
<rect x="1904.86" y="110.143" width="119.048" height="119.048" stroke="white" stroke-opacity="0.06" stroke-width="2.38095"/>
<rect x="-118.952" y="229.19" width="119.048" height="119.048" stroke="white" stroke-opacity="0.06" stroke-width="2.38095"/>
<rect x="0.0957031" y="229.19" width="119.048" height="119.048" stroke="white" stroke-opacity="0.06" stroke-width="2.38095"/>
<rect x="119.143" y="229.19" width="119.048" height="119.048" fill="white" fill-opacity="0.05" stroke="white" stroke-opacity="0.06" stroke-width="2.38095"/>
<rect x="238.19" y="229.19" width="119.048" height="119.048" stroke="white" stroke-opacity="0.06" stroke-width="2.38095"/>
<rect x="357.238" y="229.19" width="119.048" height="119.048" stroke="white" stroke-opacity="0.06" stroke-width="2.38095"/>
<rect x="476.286" y="229.19" width="119.048" height="119.048" stroke="white" stroke-opacity="0.06" stroke-width="2.38095"/>
<rect x="595.333" y="229.19" width="119.048" height="119.048" stroke="white" stroke-opacity="0.06" stroke-width="2.38095"/>
<rect x="714.381" y="229.19" width="119.048" height="119.048" stroke="white" stroke-opacity="0.06" stroke-width="2.38095"/>
<rect x="833.429" y="229.19" width="119.048" height="119.048" stroke="white" stroke-opacity="0.06" stroke-width="2.38095"/>
<rect x="952.477" y="229.19" width="119.048" height="119.048" stroke="white" stroke-opacity="0.06" stroke-width="2.38095"/>
<rect x="1071.52" y="229.19" width="119.048" height="119.048" stroke="white" stroke-opacity="0.06" stroke-width="2.38095"/>
<rect x="1190.57" y="229.19" width="119.048" height="119.048" fill="white" fill-opacity="0.05" stroke="white" stroke-opacity="0.06" stroke-width="2.38095"/>
<rect x="1309.62" y="229.19" width="119.048" height="119.048" stroke="white" stroke-opacity="0.06" stroke-width="2.38095"/>
<rect x="1428.67" y="229.19" width="119.048" height="119.048" stroke="white" stroke-opacity="0.06" stroke-width="2.38095"/>
<rect x="1547.71" y="229.19" width="119.048" height="119.048" stroke="white" stroke-opacity="0.06" stroke-width="2.38095"/>
<rect x="1666.76" y="229.19" width="119.048" height="119.048" stroke="white" stroke-opacity="0.06" stroke-width="2.38095"/>
<rect x="1785.81" y="229.19" width="119.048" height="119.048" stroke="white" stroke-opacity="0.06" stroke-width="2.38095"/>
<rect x="1904.86" y="229.19" width="119.048" height="119.048" stroke="white" stroke-opacity="0.06" stroke-width="2.38095"/>
<rect x="-118.952" y="348.238" width="119.048" height="119.048" stroke="white" stroke-opacity="0.06" stroke-width="2.38095"/>
<rect x="0.0957031" y="348.238" width="119.048" height="119.048" stroke="white" stroke-opacity="0.06" stroke-width="2.38095"/>
<rect x="119.143" y="348.238" width="119.048" height="119.048" stroke="white" stroke-opacity="0.06" stroke-width="2.38095"/>
<rect x="238.19" y="348.238" width="119.048" height="119.048" stroke="white" stroke-opacity="0.06" stroke-width="2.38095"/>
<rect x="357.238" y="348.238" width="119.048" height="119.048" stroke="white" stroke-opacity="0.06" stroke-width="2.38095"/>
<rect x="476.286" y="348.238" width="119.048" height="119.048" stroke="white" stroke-opacity="0.06" stroke-width="2.38095"/>
<rect x="595.333" y="348.238" width="119.048" height="119.048" stroke="white" stroke-opacity="0.06" stroke-width="2.38095"/>
<rect x="714.381" y="348.238" width="119.048" height="119.048" stroke="white" stroke-opacity="0.06" stroke-width="2.38095"/>
<rect x="833.429" y="348.238" width="119.048" height="119.048" stroke="white" stroke-opacity="0.06" stroke-width="2.38095"/>
<rect x="952.477" y="348.238" width="119.048" height="119.048" stroke="white" stroke-opacity="0.06" stroke-width="2.38095"/>
<rect x="1071.52" y="348.238" width="119.048" height="119.048" stroke="white" stroke-opacity="0.06" stroke-width="2.38095"/>
<rect x="1190.57" y="348.238" width="119.048" height="119.048" stroke="white" stroke-opacity="0.06" stroke-width="2.38095"/>
<rect x="1309.62" y="348.238" width="119.048" height="119.048" stroke="white" stroke-opacity="0.06" stroke-width="2.38095"/>
<rect x="1428.67" y="348.238" width="119.048" height="119.048" stroke="white" stroke-opacity="0.06" stroke-width="2.38095"/>
<rect x="1547.71" y="348.238" width="119.048" height="119.048" stroke="white" stroke-opacity="0.06" stroke-width="2.38095"/>
<rect x="1666.76" y="348.238" width="119.048" height="119.048" stroke="white" stroke-opacity="0.06" stroke-width="2.38095"/>
<rect x="1785.81" y="348.238" width="119.048" height="119.048" stroke="white" stroke-opacity="0.06" stroke-width="2.38095"/>
<rect x="1904.86" y="348.238" width="119.048" height="119.048" fill="white" fill-opacity="0.05" stroke="white" stroke-opacity="0.06" stroke-width="2.38095"/>
<rect x="-118.952" y="467.286" width="119.048" height="119.048" stroke="white" stroke-opacity="0.06" stroke-width="2.38095"/>
<rect x="0.0957031" y="467.286" width="119.048" height="119.048" stroke="white" stroke-opacity="0.06" stroke-width="2.38095"/>
<rect x="119.143" y="467.286" width="119.048" height="119.048" stroke="white" stroke-opacity="0.06" stroke-width="2.38095"/>
<rect x="238.19" y="467.286" width="119.048" height="119.048" stroke="white" stroke-opacity="0.06" stroke-width="2.38095"/>
<rect x="357.238" y="467.286" width="119.048" height="119.048" stroke="white" stroke-opacity="0.06" stroke-width="2.38095"/>
<rect x="476.286" y="467.286" width="119.048" height="119.048" stroke="white" stroke-opacity="0.06" stroke-width="2.38095"/>
<rect x="595.333" y="467.286" width="119.048" height="119.048" stroke="white" stroke-opacity="0.06" stroke-width="2.38095"/>
<rect x="714.381" y="467.286" width="119.048" height="119.048" stroke="white" stroke-opacity="0.06" stroke-width="2.38095"/>
<rect x="833.429" y="467.286" width="119.048" height="119.048" stroke="white" stroke-opacity="0.06" stroke-width="2.38095"/>
<rect x="952.477" y="467.286" width="119.048" height="119.048" stroke="white" stroke-opacity="0.06" stroke-width="2.38095"/>
<rect x="1071.52" y="467.286" width="119.048" height="119.048" stroke="white" stroke-opacity="0.06" stroke-width="2.38095"/>
<rect x="1190.57" y="467.286" width="119.048" height="119.048" stroke="white" stroke-opacity="0.06" stroke-width="2.38095"/>
<rect x="1309.62" y="467.286" width="119.048" height="119.048" stroke="white" stroke-opacity="0.06" stroke-width="2.38095"/>
<rect x="1428.67" y="467.286" width="119.048" height="119.048" stroke="white" stroke-opacity="0.06" stroke-width="2.38095"/>
<rect x="1547.71" y="467.286" width="119.048" height="119.048" stroke="white" stroke-opacity="0.06" stroke-width="2.38095"/>
<rect x="1666.76" y="467.286" width="119.048" height="119.048" stroke="white" stroke-opacity="0.06" stroke-width="2.38095"/>
<rect x="1785.81" y="467.286" width="119.048" height="119.048" stroke="white" stroke-opacity="0.06" stroke-width="2.38095"/>
<rect x="1904.86" y="467.286" width="119.048" height="119.048" stroke="white" stroke-opacity="0.06" stroke-width="2.38095"/>
<rect x="-118.952" y="586.333" width="119.048" height="119.048" stroke="white" stroke-opacity="0.06" stroke-width="2.38095"/>
<rect x="0.0957031" y="586.333" width="119.048" height="119.048" stroke="white" stroke-opacity="0.06" stroke-width="2.38095"/>
<rect x="119.143" y="586.333" width="119.048" height="119.048" stroke="white" stroke-opacity="0.06" stroke-width="2.38095"/>
<rect x="238.19" y="586.333" width="119.048" height="119.048" stroke="white" stroke-opacity="0.06" stroke-width="2.38095"/>
<rect x="357.238" y="586.333" width="119.048" height="119.048" stroke="white" stroke-opacity="0.06" stroke-width="2.38095"/>
<rect x="476.286" y="586.333" width="119.048" height="119.048" stroke="white" stroke-opacity="0.06" stroke-width="2.38095"/>
<rect x="595.333" y="586.333" width="119.048" height="119.048" stroke="white" stroke-opacity="0.06" stroke-width="2.38095"/>
<rect x="714.381" y="586.333" width="119.048" height="119.048" fill="white" fill-opacity="0.05" stroke="white" stroke-opacity="0.06" stroke-width="2.38095"/>
<rect x="833.429" y="586.333" width="119.048" height="119.048" stroke="white" stroke-opacity="0.06" stroke-width="2.38095"/>
<rect x="952.477" y="586.333" width="119.048" height="119.048" stroke="white" stroke-opacity="0.06" stroke-width="2.38095"/>
<rect x="1071.52" y="586.333" width="119.048" height="119.048" stroke="white" stroke-opacity="0.06" stroke-width="2.38095"/>
<rect x="1190.57" y="586.333" width="119.048" height="119.048" stroke="white" stroke-opacity="0.06" stroke-width="2.38095"/>
<rect x="1309.62" y="586.333" width="119.048" height="119.048" stroke="white" stroke-opacity="0.06" stroke-width="2.38095"/>
<rect x="1428.67" y="586.333" width="119.048" height="119.048" stroke="white" stroke-opacity="0.06" stroke-width="2.38095"/>
<rect x="1547.71" y="586.333" width="119.048" height="119.048" stroke="white" stroke-opacity="0.06" stroke-width="2.38095"/>
<rect x="1666.76" y="586.333" width="119.048" height="119.048" stroke="white" stroke-opacity="0.06" stroke-width="2.38095"/>
<rect x="1785.81" y="586.333" width="119.048" height="119.048" stroke="white" stroke-opacity="0.06" stroke-width="2.38095"/>
<rect x="1904.86" y="586.333" width="119.048" height="119.048" stroke="white" stroke-opacity="0.06" stroke-width="2.38095"/>
<rect x="-118.952" y="705.381" width="119.048" height="119.048" stroke="white" stroke-opacity="0.06" stroke-width="2.38095"/>
<rect x="0.0957031" y="705.381" width="119.048" height="119.048" stroke="white" stroke-opacity="0.06" stroke-width="2.38095"/>
<rect x="119.143" y="705.381" width="119.048" height="119.048" stroke="white" stroke-opacity="0.06" stroke-width="2.38095"/>
<rect x="238.19" y="705.381" width="119.048" height="119.048" fill="white" fill-opacity="0.05" stroke="white" stroke-opacity="0.06" stroke-width="2.38095"/>
<rect x="357.238" y="705.381" width="119.048" height="119.048" stroke="white" stroke-opacity="0.06" stroke-width="2.38095"/>
<rect x="476.286" y="705.381" width="119.048" height="119.048" stroke="white" stroke-opacity="0.06" stroke-width="2.38095"/>
<rect x="595.333" y="705.381" width="119.048" height="119.048" stroke="white" stroke-opacity="0.06" stroke-width="2.38095"/>
<rect x="714.381" y="705.381" width="119.048" height="119.048" stroke="white" stroke-opacity="0.06" stroke-width="2.38095"/>
<rect x="833.429" y="705.381" width="119.048" height="119.048" stroke="white" stroke-opacity="0.06" stroke-width="2.38095"/>
<rect x="952.477" y="705.381" width="119.048" height="119.048" stroke="white" stroke-opacity="0.06" stroke-width="2.38095"/>
<rect x="1071.52" y="705.381" width="119.048" height="119.048" stroke="white" stroke-opacity="0.06" stroke-width="2.38095"/>
<rect x="1190.57" y="705.381" width="119.048" height="119.048" stroke="white" stroke-opacity="0.06" stroke-width="2.38095"/>
<rect x="1309.62" y="705.381" width="119.048" height="119.048" stroke="white" stroke-opacity="0.06" stroke-width="2.38095"/>
<rect x="1428.67" y="705.381" width="119.048" height="119.048" stroke="white" stroke-opacity="0.06" stroke-width="2.38095"/>
<rect x="1547.71" y="705.381" width="119.048" height="119.048" stroke="white" stroke-opacity="0.06" stroke-width="2.38095"/>
<rect x="1666.76" y="705.381" width="119.048" height="119.048" stroke="white" stroke-opacity="0.06" stroke-width="2.38095"/>
<rect x="1785.81" y="705.381" width="119.048" height="119.048" stroke="white" stroke-opacity="0.06" stroke-width="2.38095"/>
<rect x="1904.86" y="705.381" width="119.048" height="119.048" stroke="white" stroke-opacity="0.06" stroke-width="2.38095"/>
<rect x="-118.952" y="824.428" width="119.048" height="119.048" stroke="white" stroke-opacity="0.06" stroke-width="2.38095"/>
<rect x="0.0957031" y="824.428" width="119.048" height="119.048" stroke="white" stroke-opacity="0.06" stroke-width="2.38095"/>
<rect x="119.143" y="824.428" width="119.048" height="119.048" stroke="white" stroke-opacity="0.06" stroke-width="2.38095"/>
<rect x="238.19" y="824.428" width="119.048" height="119.048" stroke="white" stroke-opacity="0.06" stroke-width="2.38095"/>
<rect x="357.238" y="824.428" width="119.048" height="119.048" stroke="white" stroke-opacity="0.06" stroke-width="2.38095"/>
<rect x="476.286" y="824.428" width="119.048" height="119.048" stroke="white" stroke-opacity="0.06" stroke-width="2.38095"/>
<rect x="595.333" y="824.428" width="119.048" height="119.048" stroke="white" stroke-opacity="0.06" stroke-width="2.38095"/>
<rect x="714.381" y="824.428" width="119.048" height="119.048" stroke="white" stroke-opacity="0.06" stroke-width="2.38095"/>
<rect x="833.429" y="824.428" width="119.048" height="119.048" stroke="white" stroke-opacity="0.06" stroke-width="2.38095"/>
<rect x="952.477" y="824.428" width="119.048" height="119.048" stroke="white" stroke-opacity="0.06" stroke-width="2.38095"/>
<rect x="1071.52" y="824.428" width="119.048" height="119.048" stroke="white" stroke-opacity="0.06" stroke-width="2.38095"/>
<rect x="1190.57" y="824.428" width="119.048" height="119.048" stroke="white" stroke-opacity="0.06" stroke-width="2.38095"/>
<rect x="1309.62" y="824.428" width="119.048" height="119.048" stroke="white" stroke-opacity="0.06" stroke-width="2.38095"/>
<rect x="1428.67" y="824.428" width="119.048" height="119.048" stroke="white" stroke-opacity="0.06" stroke-width="2.38095"/>
<rect x="1547.71" y="824.428" width="119.048" height="119.048" stroke="white" stroke-opacity="0.06" stroke-width="2.38095"/>
<rect x="1666.76" y="824.428" width="119.048" height="119.048" stroke="white" stroke-opacity="0.06" stroke-width="2.38095"/>
<rect x="1785.81" y="824.428" width="119.048" height="119.048" stroke="white" stroke-opacity="0.06" stroke-width="2.38095"/>
<rect x="1904.86" y="824.428" width="119.048" height="119.048" stroke="white" stroke-opacity="0.06" stroke-width="2.38095"/>
<rect x="-118.952" y="943.476" width="119.048" height="119.048" stroke="white" stroke-opacity="0.06" stroke-width="2.38095"/>
<rect x="0.0957031" y="943.476" width="119.048" height="119.048" stroke="white" stroke-opacity="0.06" stroke-width="2.38095"/>
<rect x="119.143" y="943.476" width="119.048" height="119.048" stroke="white" stroke-opacity="0.06" stroke-width="2.38095"/>
<rect x="238.19" y="943.476" width="119.048" height="119.048" stroke="white" stroke-opacity="0.06" stroke-width="2.38095"/>
<rect x="357.238" y="943.476" width="119.048" height="119.048" stroke="white" stroke-opacity="0.06" stroke-width="2.38095"/>
<rect x="476.286" y="943.476" width="119.048" height="119.048" stroke="white" stroke-opacity="0.06" stroke-width="2.38095"/>
<rect x="595.333" y="943.476" width="119.048" height="119.048" stroke="white" stroke-opacity="0.06" stroke-width="2.38095"/>
<rect x="714.381" y="943.476" width="119.048" height="119.048" stroke="white" stroke-opacity="0.06" stroke-width="2.38095"/>
<rect x="833.429" y="943.476" width="119.048" height="119.048" stroke="white" stroke-opacity="0.06" stroke-width="2.38095"/>
<rect x="952.477" y="943.476" width="119.048" height="119.048" stroke="white" stroke-opacity="0.06" stroke-width="2.38095"/>
<rect x="1071.52" y="943.476" width="119.048" height="119.048" stroke="white" stroke-opacity="0.06" stroke-width="2.38095"/>
<rect x="1190.57" y="943.476" width="119.048" height="119.048" stroke="white" stroke-opacity="0.06" stroke-width="2.38095"/>
<rect x="1309.62" y="943.476" width="119.048" height="119.048" stroke="white" stroke-opacity="0.06" stroke-width="2.38095"/>
<rect x="1428.67" y="943.476" width="119.048" height="119.048" stroke="white" stroke-opacity="0.06" stroke-width="2.38095"/>
<rect x="1547.71" y="943.476" width="119.048" height="119.048" stroke="white" stroke-opacity="0.06" stroke-width="2.38095"/>
<rect x="1666.76" y="943.476" width="119.048" height="119.048" stroke="white" stroke-opacity="0.06" stroke-width="2.38095"/>
<rect x="1785.81" y="943.476" width="119.048" height="119.048" stroke="white" stroke-opacity="0.06" stroke-width="2.38095"/>
<rect x="1904.86" y="943.476" width="119.048" height="119.048" stroke="white" stroke-opacity="0.06" stroke-width="2.38095"/>
<rect x="-118.952" y="1062.52" width="119.048" height="119.048" stroke="white" stroke-opacity="0.06" stroke-width="2.38095"/>
<rect x="0.0957031" y="1062.52" width="119.048" height="119.048" stroke="white" stroke-opacity="0.06" stroke-width="2.38095"/>
<rect x="119.143" y="1062.52" width="119.048" height="119.048" stroke="white" stroke-opacity="0.06" stroke-width="2.38095"/>
<rect x="238.19" y="1062.52" width="119.048" height="119.048" stroke="white" stroke-opacity="0.06" stroke-width="2.38095"/>
<rect x="357.238" y="1062.52" width="119.048" height="119.048" stroke="white" stroke-opacity="0.06" stroke-width="2.38095"/>
<rect x="476.286" y="1062.52" width="119.048" height="119.048" stroke="white" stroke-opacity="0.06" stroke-width="2.38095"/>
<rect x="595.333" y="1062.52" width="119.048" height="119.048" stroke="white" stroke-opacity="0.06" stroke-width="2.38095"/>
<rect x="714.381" y="1062.52" width="119.048" height="119.048" stroke="white" stroke-opacity="0.06" stroke-width="2.38095"/>
<rect x="833.429" y="1062.52" width="119.048" height="119.048" stroke="white" stroke-opacity="0.06" stroke-width="2.38095"/>
<rect x="952.477" y="1062.52" width="119.048" height="119.048" stroke="white" stroke-opacity="0.06" stroke-width="2.38095"/>
<rect x="1071.52" y="1062.52" width="119.048" height="119.048" stroke="white" stroke-opacity="0.06" stroke-width="2.38095"/>
<rect x="1190.57" y="1062.52" width="119.048" height="119.048" stroke="white" stroke-opacity="0.06" stroke-width="2.38095"/>
<rect x="1309.62" y="1062.52" width="119.048" height="119.048" stroke="white" stroke-opacity="0.06" stroke-width="2.38095"/>
<rect x="1428.67" y="1062.52" width="119.048" height="119.048" stroke="white" stroke-opacity="0.06" stroke-width="2.38095"/>
<rect x="1547.71" y="1062.52" width="119.048" height="119.048" stroke="white" stroke-opacity="0.06" stroke-width="2.38095"/>
<rect x="1666.76" y="1062.52" width="119.048" height="119.048" stroke="white" stroke-opacity="0.06" stroke-width="2.38095"/>
<rect x="1785.81" y="1062.52" width="119.048" height="119.048" stroke="white" stroke-opacity="0.06" stroke-width="2.38095"/>
<rect x="1904.86" y="1062.52" width="119.048" height="119.048" stroke="white" stroke-opacity="0.06" stroke-width="2.38095"/>
<rect x="-118.952" y="1181.57" width="119.048" height="119.048" stroke="white" stroke-opacity="0.06" stroke-width="2.38095"/>
<rect x="0.0957031" y="1181.57" width="119.048" height="119.048" stroke="white" stroke-opacity="0.06" stroke-width="2.38095"/>
<rect x="119.143" y="1181.57" width="119.048" height="119.048" stroke="white" stroke-opacity="0.06" stroke-width="2.38095"/>
<rect x="238.19" y="1181.57" width="119.048" height="119.048" stroke="white" stroke-opacity="0.06" stroke-width="2.38095"/>
<rect x="357.238" y="1181.57" width="119.048" height="119.048" stroke="white" stroke-opacity="0.06" stroke-width="2.38095"/>
<rect x="476.286" y="1181.57" width="119.048" height="119.048" stroke="white" stroke-opacity="0.06" stroke-width="2.38095"/>
<rect x="595.333" y="1181.57" width="119.048" height="119.048" stroke="white" stroke-opacity="0.06" stroke-width="2.38095"/>
<rect x="714.381" y="1181.57" width="119.048" height="119.048" stroke="white" stroke-opacity="0.06" stroke-width="2.38095"/>
<rect x="833.429" y="1181.57" width="119.048" height="119.048" stroke="white" stroke-opacity="0.06" stroke-width="2.38095"/>
<rect x="952.477" y="1181.57" width="119.048" height="119.048" stroke="white" stroke-opacity="0.06" stroke-width="2.38095"/>
<rect x="1071.52" y="1181.57" width="119.048" height="119.048" stroke="white" stroke-opacity="0.06" stroke-width="2.38095"/>
<rect x="1190.57" y="1181.57" width="119.048" height="119.048" stroke="white" stroke-opacity="0.06" stroke-width="2.38095"/>
<rect x="1309.62" y="1181.57" width="119.048" height="119.048" stroke="white" stroke-opacity="0.06" stroke-width="2.38095"/>
<rect x="1428.67" y="1181.57" width="119.048" height="119.048" stroke="white" stroke-opacity="0.06" stroke-width="2.38095"/>
<rect x="1547.71" y="1181.57" width="119.048" height="119.048" stroke="white" stroke-opacity="0.06" stroke-width="2.38095"/>
<rect x="1666.76" y="1181.57" width="119.048" height="119.048" stroke="white" stroke-opacity="0.06" stroke-width="2.38095"/>
<rect x="1785.81" y="1181.57" width="119.048" height="119.048" stroke="white" stroke-opacity="0.06" stroke-width="2.38095"/>
<rect x="1904.86" y="1181.57" width="119.048" height="119.048" stroke="white" stroke-opacity="0.06" stroke-width="2.38095"/>
<g filter="url(#filter0_f_210_618)">
<rect x="-440.381" y="-1925.77" width="3019.05" height="2377.85" fill="url(#paint0_radial_210_618)"/>
</g>
<rect x="-773.714" y="-804.308" width="3433.33" height="2156.31" fill="url(#paint1_radial_210_618)"/>
<g filter="url(#filter1_f_210_618)">
<path d="M334.192 1716.47C229.722 1549.88 175.917 1401.47 419.149 1237.56C584.237 1126.31 847.129 1112.86 1208.71 1288.63C1439.07 1400.62 1496.57 1571.85 1293.5 1753.2C1012.53 1951.67 438.662 1883.06 334.192 1716.47Z" fill="#08F2FF" fill-opacity="0.17"/>
</g>
</g>
<defs>
<filter id="filter0_f_210_618" x="-1154.67" y="-2640.06" width="4447.62" height="3806.42" filterUnits="userSpaceOnUse" color-interpolation-filters="sRGB">
<feFlood flood-opacity="0" result="BackgroundImageFix"/>
<feBlend mode="normal" in="SourceGraphic" in2="BackgroundImageFix" result="shape"/>
<feGaussianBlur stdDeviation="357.143" result="effect1_foregroundBlur_210_618"/>
</filter>
<filter id="filter1_f_210_618" x="1.41855" y="910.394" width="1661.16" height="1208.73" filterUnits="userSpaceOnUse" color-interpolation-filters="sRGB">
<feFlood flood-opacity="0" result="BackgroundImageFix"/>
<feBlend mode="normal" in="SourceGraphic" in2="BackgroundImageFix" result="shape"/>
<feGaussianBlur stdDeviation="122.3" result="effect1_foregroundBlur_210_618"/>
</filter>
<radialGradient id="paint0_radial_210_618" cx="0" cy="0" r="1" gradientUnits="userSpaceOnUse" gradientTransform="translate(1069.14 -736.846) rotate(90) scale(1188.92 1509.52)">
<stop offset="0.015625" stop-color="#12FFF1" stop-opacity="0.64"/>
<stop offset="0.223958" stop-color="#12FFF1" stop-opacity="0.34"/>
<stop offset="0.911458" stop-color="#12FFF1" stop-opacity="0"/>
</radialGradient>
<radialGradient id="paint1_radial_210_618" cx="0" cy="0" r="1" gradientUnits="userSpaceOnUse" gradientTransform="translate(943 297.5) rotate(90.0026) scale(1054.5 1679)">
<stop stop-opacity="0"/>
<stop offset="0.660118"/>
</radialGradient>
<clipPath id="clip0_210_618">
<rect width="2500" height="1600" fill="white" transform="translate(-238 -247)"/>
</clipPath>
</defs>
</svg>
