<svg width="1920" height="471" viewBox="0 0 1920 471" fill="none" xmlns="http://www.w3.org/2000/svg">
<g clip-path="url(#clip0_493_1523)">
<rect x="-9.30664" y="3.14282" width="119.048" height="119.048" stroke="white" stroke-opacity="0.06" stroke-width="2.38095"/>
<rect x="109.74" y="3.14282" width="119.048" height="119.048" stroke="white" stroke-opacity="0.06" stroke-width="2.38095"/>
<rect x="228.788" y="3.14282" width="119.048" height="119.048" stroke="white" stroke-opacity="0.06" stroke-width="2.38095"/>
<rect x="347.836" y="3.14282" width="119.048" height="119.048" stroke="white" stroke-opacity="0.06" stroke-width="2.38095"/>
<rect x="466.884" y="3.14282" width="119.048" height="119.048" stroke="white" stroke-opacity="0.06" stroke-width="2.38095"/>
<rect x="585.931" y="3.14282" width="119.048" height="119.048" stroke="white" stroke-opacity="0.06" stroke-width="2.38095"/>
<rect x="704.979" y="3.14282" width="119.048" height="119.048" stroke="white" stroke-opacity="0.06" stroke-width="2.38095"/>
<rect x="824.026" y="3.14282" width="119.048" height="119.048" stroke="white" stroke-opacity="0.06" stroke-width="2.38095"/>
<rect x="943.074" y="3.14282" width="119.048" height="119.048" stroke="white" stroke-opacity="0.06" stroke-width="2.38095"/>
<rect x="1062.12" y="3.14282" width="119.048" height="119.048" stroke="white" stroke-opacity="0.06" stroke-width="2.38095"/>
<rect x="1181.17" y="3.14282" width="119.048" height="119.048" stroke="white" stroke-opacity="0.06" stroke-width="2.38095"/>
<rect x="1300.22" y="3.14282" width="119.048" height="119.048" stroke="white" stroke-opacity="0.06" stroke-width="2.38095"/>
<rect x="1419.26" y="3.14282" width="119.048" height="119.048" stroke="white" stroke-opacity="0.06" stroke-width="2.38095"/>
<rect x="1538.31" y="3.14282" width="119.048" height="119.048" stroke="white" stroke-opacity="0.06" stroke-width="2.38095"/>
<rect x="1657.36" y="3.14282" width="119.048" height="119.048" stroke="white" stroke-opacity="0.06" stroke-width="2.38095"/>
<rect x="1776.41" y="3.14282" width="119.048" height="119.048" stroke="white" stroke-opacity="0.06" stroke-width="2.38095"/>
<rect x="1895.46" y="3.14282" width="119.048" height="119.048" stroke="white" stroke-opacity="0.06" stroke-width="2.38095"/>
<rect x="-9.30664" y="122.19" width="119.048" height="119.048" stroke="white" stroke-opacity="0.06" stroke-width="2.38095"/>
<rect x="109.74" y="122.19" width="119.048" height="119.048" fill="white" fill-opacity="0.05" stroke="white" stroke-opacity="0.06" stroke-width="2.38095"/>
<rect x="228.788" y="122.19" width="119.048" height="119.048" stroke="white" stroke-opacity="0.06" stroke-width="2.38095"/>
<rect x="347.836" y="122.19" width="119.048" height="119.048" stroke="white" stroke-opacity="0.06" stroke-width="2.38095"/>
<rect x="466.884" y="122.19" width="119.048" height="119.048" stroke="white" stroke-opacity="0.06" stroke-width="2.38095"/>
<rect x="585.931" y="122.19" width="119.048" height="119.048" stroke="white" stroke-opacity="0.06" stroke-width="2.38095"/>
<rect x="704.979" y="122.19" width="119.048" height="119.048" stroke="white" stroke-opacity="0.06" stroke-width="2.38095"/>
<rect x="824.026" y="122.19" width="119.048" height="119.048" stroke="white" stroke-opacity="0.06" stroke-width="2.38095"/>
<rect x="943.074" y="122.19" width="119.048" height="119.048" stroke="white" stroke-opacity="0.06" stroke-width="2.38095"/>
<rect x="1062.12" y="122.19" width="119.048" height="119.048" stroke="white" stroke-opacity="0.06" stroke-width="2.38095"/>
<rect x="1181.17" y="122.19" width="119.048" height="119.048" fill="white" fill-opacity="0.05" stroke="white" stroke-opacity="0.06" stroke-width="2.38095"/>
<rect x="1300.22" y="122.19" width="119.048" height="119.048" stroke="white" stroke-opacity="0.06" stroke-width="2.38095"/>
<rect x="1419.26" y="122.19" width="119.048" height="119.048" stroke="white" stroke-opacity="0.06" stroke-width="2.38095"/>
<rect x="1538.31" y="122.19" width="119.048" height="119.048" stroke="white" stroke-opacity="0.06" stroke-width="2.38095"/>
<rect x="1657.36" y="122.19" width="119.048" height="119.048" stroke="white" stroke-opacity="0.06" stroke-width="2.38095"/>
<rect x="1776.41" y="122.19" width="119.048" height="119.048" stroke="white" stroke-opacity="0.06" stroke-width="2.38095"/>
<rect x="1895.45" y="122.19" width="119.048" height="119.048" stroke="white" stroke-opacity="0.06" stroke-width="2.38095"/>
<rect x="-9.30664" y="241.238" width="119.048" height="119.048" stroke="white" stroke-opacity="0.06" stroke-width="2.38095"/>
<rect x="109.74" y="241.238" width="119.048" height="119.048" stroke="white" stroke-opacity="0.06" stroke-width="2.38095"/>
<rect x="228.788" y="241.238" width="119.048" height="119.048" stroke="white" stroke-opacity="0.06" stroke-width="2.38095"/>
<rect x="347.836" y="241.238" width="119.048" height="119.048" stroke="white" stroke-opacity="0.06" stroke-width="2.38095"/>
<rect x="466.884" y="241.238" width="119.048" height="119.048" stroke="white" stroke-opacity="0.06" stroke-width="2.38095"/>
<rect x="585.931" y="241.238" width="119.048" height="119.048" stroke="white" stroke-opacity="0.06" stroke-width="2.38095"/>
<rect x="704.979" y="241.238" width="119.048" height="119.048" stroke="white" stroke-opacity="0.06" stroke-width="2.38095"/>
<rect x="824.026" y="241.238" width="119.048" height="119.048" stroke="white" stroke-opacity="0.06" stroke-width="2.38095"/>
<rect x="943.074" y="241.238" width="119.048" height="119.048" stroke="white" stroke-opacity="0.06" stroke-width="2.38095"/>
<rect x="1062.12" y="241.238" width="119.048" height="119.048" stroke="white" stroke-opacity="0.06" stroke-width="2.38095"/>
<rect x="1181.17" y="241.238" width="119.048" height="119.048" stroke="white" stroke-opacity="0.06" stroke-width="2.38095"/>
<rect x="1300.22" y="241.238" width="119.048" height="119.048" stroke="white" stroke-opacity="0.06" stroke-width="2.38095"/>
<rect x="1419.26" y="241.238" width="119.048" height="119.048" stroke="white" stroke-opacity="0.06" stroke-width="2.38095"/>
<rect x="1538.31" y="241.238" width="119.048" height="119.048" stroke="white" stroke-opacity="0.06" stroke-width="2.38095"/>
<rect x="1657.36" y="241.238" width="119.048" height="119.048" stroke="white" stroke-opacity="0.06" stroke-width="2.38095"/>
<rect x="1776.41" y="241.238" width="119.048" height="119.048" stroke="white" stroke-opacity="0.06" stroke-width="2.38095"/>
<rect x="1895.46" y="241.238" width="119.048" height="119.048" fill="white" fill-opacity="0.05" stroke="white" stroke-opacity="0.06" stroke-width="2.38095"/>
<rect x="-9.30664" y="360.286" width="119.048" height="119.048" stroke="white" stroke-opacity="0.06" stroke-width="2.38095"/>
<rect x="109.74" y="360.286" width="119.048" height="119.048" stroke="white" stroke-opacity="0.06" stroke-width="2.38095"/>
<rect x="228.788" y="360.286" width="119.048" height="119.048" stroke="white" stroke-opacity="0.06" stroke-width="2.38095"/>
<rect x="347.836" y="360.286" width="119.048" height="119.048" stroke="white" stroke-opacity="0.06" stroke-width="2.38095"/>
<rect x="466.884" y="360.286" width="119.048" height="119.048" stroke="white" stroke-opacity="0.06" stroke-width="2.38095"/>
<rect x="585.931" y="360.286" width="119.048" height="119.048" stroke="white" stroke-opacity="0.06" stroke-width="2.38095"/>
<rect x="704.979" y="360.286" width="119.048" height="119.048" stroke="white" stroke-opacity="0.06" stroke-width="2.38095"/>
<rect x="824.026" y="360.286" width="119.048" height="119.048" stroke="white" stroke-opacity="0.06" stroke-width="2.38095"/>
<rect x="943.074" y="360.286" width="119.048" height="119.048" stroke="white" stroke-opacity="0.06" stroke-width="2.38095"/>
<rect x="1062.12" y="360.286" width="119.048" height="119.048" stroke="white" stroke-opacity="0.06" stroke-width="2.38095"/>
<rect x="1181.17" y="360.286" width="119.048" height="119.048" stroke="white" stroke-opacity="0.06" stroke-width="2.38095"/>
<rect x="1300.22" y="360.286" width="119.048" height="119.048" stroke="white" stroke-opacity="0.06" stroke-width="2.38095"/>
<rect x="1419.26" y="360.286" width="119.048" height="119.048" stroke="white" stroke-opacity="0.06" stroke-width="2.38095"/>
<rect x="1538.31" y="360.286" width="119.048" height="119.048" stroke="white" stroke-opacity="0.06" stroke-width="2.38095"/>
<rect x="1657.36" y="360.286" width="119.048" height="119.048" stroke="white" stroke-opacity="0.06" stroke-width="2.38095"/>
<rect x="1776.41" y="360.286" width="119.048" height="119.048" stroke="white" stroke-opacity="0.06" stroke-width="2.38095"/>
<rect x="1895.46" y="360.286" width="119.048" height="119.048" stroke="white" stroke-opacity="0.06" stroke-width="2.38095"/>
<rect x="-774" y="-73" width="3434" height="631" fill="url(#paint0_radial_493_1523)"/>
<g opacity="0.6" filter="url(#filter0_f_493_1523)">
<rect x="888.598" y="117" width="913" height="268" fill="url(#paint1_radial_493_1523)"/>
</g>
</g>
<defs>
<filter id="filter0_f_493_1523" x="603.298" y="-168.3" width="1483.6" height="838.6" filterUnits="userSpaceOnUse" color-interpolation-filters="sRGB">
<feFlood flood-opacity="0" result="BackgroundImageFix"/>
<feBlend mode="normal" in="SourceGraphic" in2="BackgroundImageFix" result="shape"/>
<feGaussianBlur stdDeviation="142.65" result="effect1_foregroundBlur_493_1523"/>
</filter>
<radialGradient id="paint0_radial_493_1523" cx="0" cy="0" r="1" gradientUnits="userSpaceOnUse" gradientTransform="translate(943.047 249.422) rotate(90.0088) scale(308.578 1679.33)">
<stop stop-color="#020304" stop-opacity="0"/>
<stop offset="0.660118" stop-color="#020304"/>
</radialGradient>
<radialGradient id="paint1_radial_493_1523" cx="0" cy="0" r="1" gradientUnits="userSpaceOnUse" gradientTransform="translate(1345.1 251) rotate(90) scale(134 456.5)">
<stop offset="0.015625" stop-color="#12FFF1" stop-opacity="0.64"/>
<stop offset="0.223958" stop-color="#12FFF1" stop-opacity="0.34"/>
<stop offset="0.911458" stop-color="#12FFF1" stop-opacity="0"/>
</radialGradient>
<clipPath id="clip0_493_1523">
<rect width="2500" height="1600" fill="white" transform="translate(-247.402 -354)"/>
</clipPath>
</defs>
</svg>
