<svg width="49" height="49" viewBox="0 0 49 49" fill="none" xmlns="http://www.w3.org/2000/svg">
<rect x="0.5" y="-0.5" width="47" height="47" rx="2.55691" transform="matrix(1 0 0 -1 0.5 47.0195)" stroke="#032A28"/>
<g clip-path="url(#clip0_630_4883)">
<path d="M36.6416 22.6531C36.6416 22.231 36.2994 21.8888 35.8774 21.8888H32.5262C31.9581 21.8888 31.5886 21.291 31.8427 20.7828L34.3047 15.859C34.5587 15.3508 34.1892 14.753 33.6211 14.753H29.9781C29.6886 14.753 29.424 14.9165 29.2945 15.1754L26.0185 21.7275C25.9654 21.8336 25.9378 21.9506 25.9378 22.0692V31.8284C25.9378 32.2505 26.2799 32.5927 26.702 32.5927H35.8774C36.2994 32.5927 36.6416 32.2505 36.6416 31.8284V22.6531ZM21.6056 32.5927C22.0277 32.5927 22.3698 32.2505 22.3698 31.8284V22.6531C22.3698 22.231 22.0277 21.8888 21.6056 21.8888H18.2545C17.6863 21.8888 17.3168 21.291 17.5709 20.7828L20.0329 15.859C20.2869 15.3508 19.9174 14.753 19.3493 14.753H15.7063C15.4168 14.753 15.1522 14.9165 15.0227 15.1754L11.7467 21.7275C11.6936 21.8336 11.666 21.9506 11.666 22.0692V31.8284C11.666 32.2505 12.0082 32.5927 12.4302 32.5927H21.6056Z" fill="white"/>
<path d="M36.6416 22.6531C36.6416 22.231 36.2994 21.8888 35.8774 21.8888H32.5262C31.9581 21.8888 31.5886 21.291 31.8427 20.7828L34.3047 15.859C34.5587 15.3508 34.1892 14.753 33.6211 14.753H29.9781C29.6886 14.753 29.424 14.9165 29.2945 15.1754L26.0185 21.7275C25.9654 21.8336 25.9378 21.9506 25.9378 22.0692V31.8284C25.9378 32.2505 26.2799 32.5927 26.702 32.5927H35.8774C36.2994 32.5927 36.6416 32.2505 36.6416 31.8284V22.6531ZM21.6056 32.5927C22.0277 32.5927 22.3698 32.2505 22.3698 31.8284V22.6531C22.3698 22.231 22.0277 21.8888 21.6056 21.8888H18.2545C17.6863 21.8888 17.3168 21.291 17.5709 20.7828L20.0329 15.859C20.2869 15.3508 19.9174 14.753 19.3493 14.753H15.7063C15.4168 14.753 15.1522 14.9165 15.0227 15.1754L11.7467 21.7275C11.6936 21.8336 11.666 21.9506 11.666 22.0692V31.8284C11.666 32.2505 12.0082 32.5927 12.4302 32.5927H21.6056Z" fill="#032A28"/>
</g>
<defs>
<clipPath id="clip0_630_4883">
<rect width="24.9756" height="24.9756" fill="white" transform="matrix(-1 0 0 -1 36.6406 36.1607)"/>
</clipPath>
</defs>
</svg>
