<svg width="103" height="103" viewBox="0 0 103 103" fill="none" xmlns="http://www.w3.org/2000/svg">
<rect x="0.829268" y="-0.829268" width="100.341" height="100.341" rx="5.80488" transform="matrix(1 0 0 -1 0.400391 101.141)" stroke="url(#paint0_linear_326_3766)" stroke-width="1.65854"/>
<g clip-path="url(#clip0_326_3766)">
<path d="M77.2012 48.9307C77.2012 48.0147 76.4586 47.2721 75.5426 47.2721H68.5119C67.279 47.2721 66.4771 45.9746 67.0285 44.8719L72.2101 34.5087C72.7615 33.406 71.9596 32.1085 70.7267 32.1085H63.0625C62.4343 32.1085 61.86 32.4634 61.5791 33.0253L54.6307 46.9219C54.5155 47.1522 54.4556 47.4062 54.4556 47.6637V68.3592C54.4556 69.2752 55.1981 70.0178 56.1141 70.0178H75.5426C76.4586 70.0178 77.2012 69.2752 77.2012 68.3592V48.9307ZM45.2151 70.0178C46.1311 70.0178 46.8736 69.2752 46.8736 68.3592V48.9307C46.8736 48.0147 46.1311 47.2721 45.2151 47.2721H38.1844C36.9515 47.2721 36.1496 45.9746 36.701 44.8719L41.8826 34.5087C42.434 33.406 41.6321 32.1085 40.3992 32.1085H32.735C32.1068 32.1085 31.5325 32.4634 31.2515 33.0253L24.3031 46.9219C24.188 47.1522 24.128 47.4062 24.128 47.6637V68.3592C24.128 69.2752 24.8706 70.0178 25.7865 70.0178H45.2151Z" fill="white"/>
<path d="M77.2012 48.9307C77.2012 48.0147 76.4586 47.2721 75.5426 47.2721H68.5119C67.279 47.2721 66.4771 45.9746 67.0285 44.8719L72.2101 34.5087C72.7615 33.406 71.9596 32.1085 70.7267 32.1085H63.0625C62.4343 32.1085 61.86 32.4634 61.5791 33.0253L54.6307 46.9219C54.5155 47.1522 54.4556 47.4062 54.4556 47.6637V68.3592C54.4556 69.2752 55.1981 70.0178 56.1141 70.0178H75.5426C76.4586 70.0178 77.2012 69.2752 77.2012 68.3592V48.9307ZM45.2151 70.0178C46.1311 70.0178 46.8736 69.2752 46.8736 68.3592V48.9307C46.8736 48.0147 46.1311 47.2721 45.2151 47.2721H38.1844C36.9515 47.2721 36.1496 45.9746 36.701 44.8719L41.8826 34.5087C42.434 33.406 41.6321 32.1085 40.3992 32.1085H32.735C32.1068 32.1085 31.5325 32.4634 31.2515 33.0253L24.3031 46.9219C24.188 47.1522 24.128 47.4062 24.128 47.6637V68.3592C24.128 69.2752 24.8706 70.0178 25.7865 70.0178H45.2151Z" fill="url(#paint1_linear_326_3766)"/>
</g>
<defs>
<linearGradient id="paint0_linear_326_3766" x1="-19.0839" y1="-3.32477e-06" x2="123.34" y2="93.633" gradientUnits="userSpaceOnUse">
<stop stop-color="#12FFF1"/>
<stop offset="1" stop-color="#EDFFFE" stop-opacity="0.4"/>
</linearGradient>
<linearGradient id="paint1_linear_326_3766" x1="87.131" y1="70.0178" x2="29.6711" y2="17.1318" gradientUnits="userSpaceOnUse">
<stop stop-color="#12FFF1"/>
<stop offset="1" stop-color="#12FFF1" stop-opacity="0.4"/>
</linearGradient>
<clipPath id="clip0_326_3766">
<rect width="53.0732" height="53.0732" fill="white" transform="matrix(-1 0 0 -1 77.2002 77.5999)"/>
</clipPath>
</defs>
</svg>
