<svg width="12" height="12" viewBox="0 0 12 12" fill="none" xmlns="http://www.w3.org/2000/svg">
<path fill-rule="evenodd" clip-rule="evenodd" d="M12 6C12 9.31371 9.31371 12 6 12C2.68629 12 0 9.31371 0 6C0 2.68629 2.68629 0 6 0C9.31371 0 12 2.68629 12 6ZM6.62279 4.55286V5.26146C7.97999 5.32686 8.99339 5.59806 8.99339 5.92146C8.99339 6.24486 7.97699 6.51666 6.62279 6.58146V8.92146H5.37719V6.58146C4.02179 6.51726 3.00659 6.24426 3.00659 5.92146C3.00659 5.59866 4.02299 5.32686 5.37719 5.26146V4.55286H3.76079V3.43506H8.23499V4.55286H6.62279ZM3.34499 5.87526C3.34499 6.14826 4.53359 6.37506 5.99999 6.37506C7.46639 6.37506 8.65499 6.15126 8.65259 5.87526C8.65259 5.64066 7.78679 5.44326 6.62159 5.39046V6.19086C6.42239 6.19986 6.21299 6.20526 5.99879 6.20526C5.78459 6.20526 5.57639 6.19986 5.37599 6.19086V5.39046C4.21079 5.44326 3.34499 5.64066 3.34499 5.87526Z" fill="#E5E5E5"/>
</svg>
