<svg width="254" height="97" viewBox="0 0 254 97" fill="none" xmlns="http://www.w3.org/2000/svg">
<g filter="url(#filter0_b_630_5286)">
<rect y="0.0976562" width="254" height="96.8165" rx="4" fill="#F0F0F0" fill-opacity="0.04"/>
<rect x="0.5" y="0.597656" width="253" height="95.8165" rx="3.5" stroke="url(#paint0_linear_630_5286)" stroke-opacity="0.2"/>
<rect x="16" y="16.0977" width="29.5164" height="21.8165" fill="#252525"/>
<rect x="16.5" y="16.5977" width="28.5164" height="20.8165" stroke="white" stroke-opacity="0.1"/>
<path d="M54.2197 31.0059V22.2754H57.3369C58.0127 22.2754 58.5732 22.4004 59.0186 22.6504C59.4639 22.8965 59.7979 23.2344 60.0205 23.6641C60.2432 24.0898 60.3545 24.5703 60.3545 25.1055C60.3545 25.6406 60.2432 26.123 60.0205 26.5527C59.7979 26.9785 59.4619 27.3164 59.0127 27.5664C58.5674 27.8125 58.0049 27.9355 57.3252 27.9355H55.1924V26.8223H57.2021C57.6357 26.8223 57.9854 26.748 58.251 26.5996C58.5205 26.4512 58.7158 26.248 58.8369 25.9902C58.9619 25.7285 59.0244 25.4336 59.0244 25.1055C59.0244 24.7734 58.9619 24.4805 58.8369 24.2266C58.7158 23.9688 58.5205 23.7676 58.251 23.623C57.9814 23.4785 57.6299 23.4062 57.1963 23.4062H55.5381V31.0059H54.2197ZM62.4198 22.2754V31.0059H61.1541V22.2754H62.4198ZM65.4049 31.1465C64.9909 31.1465 64.6159 31.0703 64.2799 30.918C63.944 30.7617 63.6784 30.5352 63.4831 30.2383C63.2878 29.9414 63.1901 29.5801 63.1901 29.1543C63.1901 28.7832 63.2604 28.4805 63.401 28.2461C63.5456 28.0078 63.7389 27.8184 63.9811 27.6777C64.2233 27.5371 64.4928 27.4316 64.7897 27.3613C65.0866 27.291 65.3913 27.2363 65.7038 27.1973C66.0983 27.1543 66.4167 27.1172 66.6589 27.0859C66.901 27.0547 67.0768 27.0059 67.1862 26.9395C67.2995 26.8691 67.3561 26.7578 67.3561 26.6055V26.5762C67.3561 26.2051 67.2506 25.918 67.0397 25.7148C66.8327 25.5117 66.5241 25.4102 66.1139 25.4102C65.6881 25.4102 65.3503 25.5039 65.1003 25.6914C64.8542 25.875 64.6842 26.084 64.5905 26.3184L63.3893 26.043C63.5339 25.6445 63.7428 25.3242 64.0163 25.082C64.2936 24.8359 64.61 24.6562 64.9655 24.543C65.3249 24.4297 65.6999 24.373 66.0905 24.373C66.3522 24.373 66.6296 24.4043 66.9225 24.4668C67.2155 24.5254 67.4909 24.6367 67.7487 24.8008C68.0104 24.9609 68.2233 25.1914 68.3874 25.4922C68.5514 25.793 68.6335 26.1816 68.6335 26.6582V31.0059H67.3854V30.1094H67.3385C67.2604 30.2695 67.1374 30.4297 66.9694 30.5898C66.8053 30.75 66.5944 30.8828 66.3366 30.9883C66.0788 31.0938 65.7682 31.1465 65.4049 31.1465ZM65.6803 30.127C66.0358 30.127 66.3385 30.0586 66.5885 29.9219C66.8385 29.7812 67.0299 29.5977 67.1628 29.3711C67.2956 29.1445 67.362 28.9043 67.362 28.6504V27.8008C67.3151 27.8438 67.2272 27.8848 67.0983 27.9238C66.9694 27.9629 66.8229 27.9961 66.6589 28.0234C66.4948 28.0508 66.3346 28.0762 66.1784 28.0996C66.0221 28.1191 65.8913 28.1348 65.7858 28.1465C65.5397 28.1816 65.3151 28.2363 65.112 28.3105C64.9089 28.3809 64.7448 28.4863 64.6198 28.627C64.4987 28.7637 64.4381 28.9453 64.4381 29.1719C64.4381 29.4883 64.5553 29.7266 64.7897 29.8867C65.0241 30.0469 65.321 30.127 65.6803 30.127ZM72.7729 24.4551V25.4805H69.1987V24.4551H72.7729ZM70.1538 22.8965H71.4253V29.084C71.4253 29.3848 71.4878 29.6055 71.6128 29.7461C71.7378 29.8828 71.939 29.9512 72.2163 29.9512C72.2827 29.9512 72.353 29.9473 72.4272 29.9395C72.5054 29.9316 72.5835 29.9199 72.6616 29.9043L72.9019 30.959C72.7729 31.002 72.6323 31.0352 72.48 31.0586C72.3276 31.082 72.1753 31.0938 72.0229 31.0938C71.4565 31.0938 71.0034 30.9355 70.6636 30.6191C70.3237 30.2988 70.1538 29.873 70.1538 29.3418V22.8965ZM76.6722 24.4551V25.4805H72.9749V24.4551H76.6722ZM73.9827 31.0059V23.6934C73.9827 23.2871 74.0726 22.9492 74.2523 22.6797C74.4359 22.4062 74.6741 22.2031 74.9671 22.0703C75.264 21.9336 75.5824 21.8652 75.9222 21.8652C76.1839 21.8652 76.4066 21.8867 76.5902 21.9297C76.7738 21.9727 76.9085 22.0098 76.9945 22.041L76.6898 23.0723C76.6312 23.0527 76.555 23.0312 76.4613 23.0078C76.3714 22.9844 76.2581 22.9727 76.1214 22.9727C75.8128 22.9727 75.5902 23.0508 75.4534 23.207C75.3167 23.3594 75.2484 23.582 75.2484 23.875V31.0059H73.9827ZM79.839 31.1406C79.2257 31.1406 78.6886 31 78.2277 30.7188C77.7707 30.4375 77.4152 30.043 77.1613 29.5352C76.9113 29.0273 76.7863 28.4375 76.7863 27.7656C76.7863 27.0859 76.9113 26.4922 77.1613 25.9844C77.4152 25.4727 77.7707 25.0762 78.2277 24.7949C78.6886 24.5137 79.2257 24.373 79.839 24.373C80.4562 24.373 80.9933 24.5137 81.4504 24.7949C81.9074 25.0762 82.2629 25.4727 82.5168 25.9844C82.7707 26.4922 82.8976 27.0859 82.8976 27.7656C82.8976 28.4375 82.7707 29.0273 82.5168 29.5352C82.2629 30.043 81.9074 30.4375 81.4504 30.7188C80.9933 31 80.4562 31.1406 79.839 31.1406ZM79.839 30.0684C80.2414 30.0684 80.5734 29.9629 80.8351 29.752C81.0968 29.541 81.2902 29.2617 81.4152 28.9141C81.5441 28.5625 81.6086 28.1797 81.6086 27.7656C81.6086 27.3438 81.5441 26.957 81.4152 26.6055C81.2902 26.2539 81.0968 25.9727 80.8351 25.7617C80.5734 25.5508 80.2414 25.4453 79.839 25.4453C79.4406 25.4453 79.1105 25.5508 78.8488 25.7617C78.591 25.9727 78.3976 26.2539 78.2687 26.6055C78.1398 26.957 78.0754 27.3438 78.0754 27.7656C78.0754 28.1797 78.1398 28.5625 78.2687 28.9141C78.3976 29.2617 78.591 29.541 78.8488 29.752C79.1105 29.9629 79.4406 30.0684 79.839 30.0684ZM83.6855 31.0059V24.4551H84.9101V25.5039H84.9805C85.1016 25.1523 85.3125 24.875 85.6133 24.6719C85.918 24.4648 86.2617 24.3613 86.6445 24.3613C86.7226 24.3613 86.8144 24.3652 86.9199 24.373C87.0293 24.377 87.1172 24.3828 87.1836 24.3906V25.6094C87.1328 25.5938 87.041 25.5781 86.9082 25.5625C86.7793 25.5469 86.6484 25.5391 86.5156 25.5391C86.2148 25.5391 85.9453 25.6035 85.707 25.7324C85.4726 25.8574 85.2871 26.0312 85.1504 26.2539C85.0176 26.4727 84.9512 26.7266 84.9512 27.0156V31.0059H83.6855ZM87.6668 31.0059V24.4551H88.8797V25.5332H88.9676C89.1043 25.1699 89.327 24.8867 89.6356 24.6836C89.9481 24.4766 90.3192 24.373 90.7489 24.373C91.1864 24.373 91.5516 24.4766 91.8446 24.6836C92.1414 24.8867 92.3621 25.1699 92.5067 25.5332H92.577C92.7332 25.1777 92.9813 24.8965 93.3211 24.6895C93.661 24.4785 94.0653 24.373 94.534 24.373C95.1278 24.373 95.6141 24.5605 95.993 24.9355C96.3719 25.3066 96.5614 25.8672 96.5614 26.6172V31.0059H95.284V26.7344C95.284 26.2891 95.1629 25.9688 94.9207 25.7734C94.6785 25.5742 94.3895 25.4746 94.0535 25.4746C93.6395 25.4746 93.3172 25.6035 93.0867 25.8613C92.8602 26.1152 92.7469 26.4375 92.7469 26.8281V31.0059H91.4696V26.6523C91.4696 26.2969 91.3602 26.0117 91.1414 25.7969C90.9227 25.582 90.6356 25.4746 90.2801 25.4746C90.0379 25.4746 89.8133 25.5391 89.6063 25.668C89.4031 25.793 89.2391 25.9688 89.1141 26.1953C88.993 26.418 88.9324 26.6758 88.9324 26.9688V31.0059H87.6668Z" fill="#F0F0F0"/>
<rect x="107.517" y="16.0977" width="29.5164" height="21.8165" fill="#12FFF1"/>
<rect x="107.837" y="16.4185" width="28.8747" height="21.1748" stroke="white" stroke-opacity="0.1" stroke-width="0.641661"/>
<path d="M146.48 31.0059H145.08L148.221 22.2754H149.744L152.879 31.0059H151.484L149.012 23.8633H148.941L146.48 31.0059ZM146.715 27.5898H151.244V28.6914H146.715V27.5898ZM156.022 33.5957C155.241 33.5957 154.626 33.4492 154.177 33.1562C153.727 32.8633 153.417 32.5156 153.245 32.1133L154.335 31.6621C154.413 31.7871 154.516 31.9199 154.645 32.0605C154.778 32.2012 154.956 32.3203 155.179 32.418C155.401 32.5156 155.688 32.5645 156.04 32.5645C156.52 32.5645 156.919 32.4473 157.235 32.2129C157.552 31.9824 157.71 31.6113 157.71 31.0996V29.8164H157.622C157.552 29.9531 157.444 30.1074 157.3 30.2793C157.155 30.4473 156.958 30.5938 156.708 30.7188C156.458 30.8438 156.132 30.9062 155.729 30.9062C155.214 30.9062 154.749 30.7852 154.335 30.543C153.925 30.2969 153.597 29.9375 153.35 29.4648C153.108 28.9883 152.987 28.4023 152.987 27.707C152.987 27.0117 153.106 26.416 153.345 25.9199C153.587 25.4199 153.915 25.0371 154.329 24.7715C154.743 24.5059 155.214 24.373 155.741 24.373C156.147 24.373 156.475 24.4414 156.725 24.5781C156.979 24.7109 157.177 24.8672 157.317 25.0469C157.458 25.2266 157.567 25.3848 157.645 25.5215H157.739V24.4551H158.975V31.1523C158.975 31.7148 158.845 32.1758 158.583 32.5352C158.325 32.8945 157.973 33.1602 157.528 33.332C157.083 33.5078 156.581 33.5957 156.022 33.5957ZM156.011 29.8457C156.561 29.8457 156.983 29.6562 157.276 29.2773C157.573 28.8945 157.722 28.3652 157.722 27.6895C157.722 27.248 157.657 26.8613 157.528 26.5293C157.399 26.1934 157.208 25.9316 156.954 25.7441C156.7 25.5527 156.386 25.457 156.011 25.457C155.628 25.457 155.307 25.5566 155.05 25.7559C154.796 25.9512 154.604 26.2188 154.475 26.5586C154.347 26.8945 154.282 27.2715 154.282 27.6895C154.282 28.1152 154.347 28.4922 154.475 28.8203C154.604 29.1445 154.798 29.3965 155.056 29.5762C155.317 29.7559 155.636 29.8457 156.011 29.8457ZM162.881 31.1406C162.24 31.1406 161.685 31.002 161.216 30.7246C160.748 30.4473 160.386 30.0566 160.132 29.5527C159.882 29.0449 159.757 28.4531 159.757 27.7773C159.757 27.1055 159.881 26.5137 160.127 26.002C160.377 25.4902 160.726 25.0918 161.175 24.8066C161.629 24.5176 162.16 24.373 162.769 24.373C163.14 24.373 163.5 24.4336 163.847 24.5547C164.195 24.6758 164.507 24.8672 164.785 25.1289C165.062 25.3906 165.281 25.7305 165.441 26.1484C165.605 26.5664 165.687 27.0703 165.687 27.6602V28.1172H160.478V27.1621H165.031L164.439 27.4785C164.439 27.0762 164.377 26.7207 164.252 26.4121C164.127 26.1035 163.939 25.8633 163.689 25.6914C163.443 25.5156 163.136 25.4277 162.769 25.4277C162.402 25.4277 162.088 25.5156 161.826 25.6914C161.568 25.8672 161.371 26.0996 161.234 26.3887C161.097 26.6777 161.029 26.9941 161.029 27.3379V27.9883C161.029 28.4375 161.107 28.8184 161.263 29.1309C161.42 29.4434 161.636 29.6816 161.914 29.8457C162.195 30.0098 162.521 30.0918 162.892 30.0918C163.134 30.0918 163.353 30.0566 163.549 29.9863C163.748 29.916 163.92 29.8105 164.064 29.6699C164.209 29.5293 164.318 29.3555 164.392 29.1484L165.599 29.377C165.502 29.7285 165.33 30.0371 165.084 30.3027C164.838 30.5684 164.527 30.7754 164.152 30.9238C163.781 31.0684 163.357 31.1406 162.881 31.1406ZM167.711 27.1211V31.0059H166.446V24.4551H167.676V25.5332H167.764C167.913 25.1777 168.145 24.8965 168.461 24.6895C168.778 24.4785 169.184 24.373 169.68 24.373C170.125 24.373 170.514 24.4668 170.846 24.6543C171.182 24.8379 171.442 25.1133 171.625 25.4805C171.813 25.8477 171.907 26.3027 171.907 26.8457V31.0059H170.641V26.998C170.641 26.5254 170.516 26.1543 170.266 25.8848C170.016 25.6113 169.676 25.4746 169.247 25.4746C168.954 25.4746 168.69 25.541 168.456 25.6738C168.225 25.8027 168.043 25.9883 167.911 26.2305C167.778 26.4727 167.711 26.7695 167.711 27.1211ZM176.04 24.4551V25.4805H172.466V24.4551H176.04ZM173.421 22.8965H174.693V29.084C174.693 29.3848 174.755 29.6055 174.88 29.7461C175.005 29.8828 175.206 29.9512 175.484 29.9512C175.55 29.9512 175.62 29.9473 175.695 29.9395C175.773 29.9316 175.851 29.9199 175.929 29.9043L176.169 30.959C176.04 31.002 175.9 31.0352 175.747 31.0586C175.595 31.082 175.443 31.0938 175.29 31.0938C174.724 31.0938 174.271 30.9355 173.931 30.6191C173.591 30.2988 173.421 29.873 173.421 29.3418V22.8965ZM181.615 26.0605L180.461 26.2598C180.387 26.041 180.248 25.8398 180.045 25.6562C179.846 25.4727 179.547 25.3809 179.149 25.3809C178.789 25.3809 178.488 25.4629 178.246 25.627C178.008 25.7871 177.889 25.9922 177.889 26.2422C177.889 26.4609 177.969 26.6387 178.129 26.7754C178.293 26.9121 178.553 27.0215 178.908 27.1035L179.957 27.3379C180.555 27.4746 181.002 27.6895 181.299 27.9824C181.596 28.2754 181.744 28.6504 181.744 29.1074C181.744 29.502 181.631 29.8535 181.404 30.1621C181.178 30.4668 180.863 30.707 180.461 30.8828C180.059 31.0547 179.594 31.1406 179.067 31.1406C178.332 31.1406 177.735 30.9824 177.274 30.666C176.813 30.3496 176.529 29.9043 176.424 29.3301L177.649 29.1426C177.727 29.4629 177.885 29.7051 178.123 29.8691C178.365 30.0332 178.678 30.1152 179.061 30.1152C179.475 30.1152 179.807 30.0273 180.057 29.8516C180.311 29.6758 180.438 29.4629 180.438 29.2129C180.438 28.7988 180.129 28.5195 179.512 28.375L178.404 28.1289C177.791 27.9883 177.338 27.7676 177.045 27.4668C176.756 27.1621 176.611 26.7793 176.611 26.3184C176.611 25.9316 176.719 25.5918 176.934 25.2988C177.153 25.0059 177.451 24.7793 177.83 24.6191C178.213 24.4551 178.649 24.373 179.137 24.373C179.848 24.373 180.404 24.5273 180.807 24.8359C181.213 25.1445 181.483 25.5527 181.615 26.0605Z" fill="#F0F0F0"/>
<rect x="16.3208" y="53.8267" width="28.8747" height="21.1748" stroke="#828282" stroke-width="0.641661" stroke-dasharray="3.85 3.85"/>
<path d="M54.2197 61.4141V52.6836H59.6396V53.8145H55.5381V56.6445H59.2471V57.7695H55.5381V61.4141H54.2197ZM64.2596 58.707V54.8633H65.5252V61.4141H64.283V60.2773H64.2127C64.0565 60.625 63.8143 60.916 63.4862 61.1504C63.158 61.3848 62.7479 61.5 62.2557 61.4961C61.8338 61.4961 61.4608 61.4043 61.1366 61.2207C60.8162 61.0371 60.5643 60.7617 60.3807 60.3945C60.201 60.0273 60.1112 59.5723 60.1112 59.0293V54.8633H61.3768V58.8828C61.3768 59.3242 61.5018 59.6777 61.7518 59.9434C62.0018 60.209 62.3241 60.3398 62.7186 60.3359C62.9569 60.3359 63.1932 60.2773 63.4276 60.1602C63.6659 60.043 63.8631 59.8633 64.0194 59.6211C64.1795 59.3789 64.2596 59.0742 64.2596 58.707ZM67.8776 57.5293V61.4141H66.612V54.8633H67.8424V55.9414H67.9303C68.0788 55.5859 68.3112 55.3047 68.6276 55.0977C68.944 54.8867 69.3503 54.7812 69.8464 54.7812C70.2917 54.7812 70.6803 54.875 71.0124 55.0625C71.3483 55.2461 71.6081 55.5215 71.7917 55.8887C71.9792 56.2559 72.0729 56.7109 72.0729 57.2539V61.4141H70.8073V57.4062C70.8073 56.9336 70.6823 56.5625 70.4323 56.293C70.1823 56.0195 69.8424 55.8828 69.4128 55.8828C69.1198 55.8828 68.8561 55.9492 68.6217 56.082C68.3913 56.2109 68.2096 56.3965 68.0768 56.6387C67.944 56.8809 67.8776 57.1777 67.8776 57.5293ZM75.9077 61.5488C75.2788 61.5488 74.7358 61.4043 74.2788 61.1152C73.8218 60.8262 73.4702 60.4277 73.2241 59.9199C72.978 59.4121 72.855 58.8301 72.855 58.1738C72.855 57.5059 72.98 56.918 73.23 56.4102C73.4839 55.8984 73.8374 55.5 74.2905 55.2148C74.7476 54.9258 75.2827 54.7812 75.896 54.7812C76.396 54.7812 76.8394 54.873 77.2261 55.0566C77.6167 55.2363 77.9311 55.4922 78.1694 55.8242C78.4116 56.1562 78.5542 56.543 78.5972 56.9844H77.355C77.312 56.7773 77.228 56.5879 77.103 56.416C76.9819 56.2441 76.8218 56.1074 76.6226 56.0059C76.4233 55.9043 76.187 55.8535 75.9136 55.8535C75.5581 55.8535 75.2476 55.9473 74.9819 56.1348C74.7202 56.3184 74.5151 56.582 74.3667 56.9258C74.2183 57.2695 74.144 57.6758 74.144 58.1445C74.144 58.6172 74.2163 59.0293 74.3608 59.3809C74.5054 59.7324 74.7104 60.0039 74.9761 60.1953C75.2456 60.3828 75.5581 60.4766 75.9136 60.4766C76.2808 60.4766 76.5933 60.375 76.8511 60.1719C77.1128 59.9688 77.2808 59.6914 77.355 59.3398H78.5972C78.5542 59.7656 78.4175 60.1445 78.187 60.4766C77.9565 60.8086 77.6479 61.0703 77.2612 61.2617C76.8745 61.4531 76.4233 61.5488 75.9077 61.5488ZM82.4144 54.8633V55.8887H78.8402V54.8633H82.4144ZM79.7952 53.3047H81.0667V59.4922C81.0667 59.793 81.1292 60.0137 81.2542 60.1543C81.3792 60.291 81.5804 60.3594 81.8577 60.3594C81.9241 60.3594 81.9945 60.3555 82.0687 60.3477C82.1468 60.3398 82.2249 60.3281 82.3031 60.3125L82.5433 61.3672C82.4144 61.4102 82.2738 61.4434 82.1214 61.4668C81.9691 61.4902 81.8167 61.502 81.6644 61.502C81.098 61.502 80.6449 61.3438 80.305 61.0273C79.9652 60.707 79.7952 60.2812 79.7952 59.75V53.3047ZM83.1964 61.4141V54.8633H84.4621V61.4141H83.1964ZM83.8351 53.8555C83.6125 53.8555 83.423 53.7812 83.2668 53.6328C83.1105 53.4844 83.0324 53.3066 83.0324 53.0996C83.0324 52.8887 83.1105 52.709 83.2668 52.5605C83.423 52.4121 83.6125 52.3379 83.8351 52.3379C84.0539 52.3379 84.2414 52.4121 84.3976 52.5605C84.5578 52.709 84.6379 52.8887 84.6379 53.0996C84.6379 53.3066 84.5578 53.4844 84.3976 53.6328C84.2414 53.7812 84.0539 53.8555 83.8351 53.8555ZM88.2969 61.5488C87.6836 61.5488 87.1465 61.4082 86.6855 61.127C86.2285 60.8457 85.873 60.4512 85.6191 59.9434C85.3691 59.4355 85.2441 58.8457 85.2441 58.1738C85.2441 57.4941 85.3691 56.9004 85.6191 56.3926C85.873 55.8809 86.2285 55.4844 86.6855 55.2031C87.1465 54.9219 87.6836 54.7812 88.2969 54.7812C88.9141 54.7812 89.4512 54.9219 89.9082 55.2031C90.3652 55.4844 90.7207 55.8809 90.9746 56.3926C91.2285 56.9004 91.3555 57.4941 91.3555 58.1738C91.3555 58.8457 91.2285 59.4355 90.9746 59.9434C90.7207 60.4512 90.3652 60.8457 89.9082 61.127C89.4512 61.4082 88.9141 61.5488 88.2969 61.5488ZM88.2969 60.4766C88.6992 60.4766 89.0312 60.3711 89.293 60.1602C89.5547 59.9492 89.748 59.6699 89.873 59.3223C90.0019 58.9707 90.0664 58.5879 90.0664 58.1738C90.0664 57.752 90.0019 57.3652 89.873 57.0137C89.748 56.6621 89.5547 56.3809 89.293 56.1699C89.0312 55.959 88.6992 55.8535 88.2969 55.8535C87.8984 55.8535 87.5684 55.959 87.3066 56.1699C87.0488 56.3809 86.8555 56.6621 86.7266 57.0137C86.5976 57.3652 86.5332 57.752 86.5332 58.1738C86.5332 58.5879 86.5976 58.9707 86.7266 59.3223C86.8555 59.6699 87.0488 59.9492 87.3066 60.1602C87.5684 60.3711 87.8984 60.4766 88.2969 60.4766ZM93.409 57.5293V61.4141H92.1434V54.8633H93.3739V55.9414H93.4617C93.6102 55.5859 93.8426 55.3047 94.159 55.0977C94.4754 54.8867 94.8817 54.7812 95.3778 54.7812C95.8231 54.7812 96.2117 54.875 96.5438 55.0625C96.8797 55.2461 97.1395 55.5215 97.3231 55.8887C97.5106 56.2559 97.6043 56.7109 97.6043 57.2539V61.4141H96.3387V57.4062C96.3387 56.9336 96.2137 56.5625 95.9637 56.293C95.7137 56.0195 95.3739 55.8828 94.9442 55.8828C94.6512 55.8828 94.3875 55.9492 94.1531 56.082C93.9227 56.2109 93.741 56.3965 93.6082 56.6387C93.4754 56.8809 93.409 57.1777 93.409 57.5293ZM100.59 61.5547C100.175 61.5547 99.8004 61.4785 99.4645 61.3262C99.1286 61.1699 98.8629 60.9434 98.6676 60.6465C98.4723 60.3496 98.3747 59.9883 98.3747 59.5625C98.3747 59.1914 98.445 58.8887 98.5856 58.6543C98.7301 58.416 98.9235 58.2266 99.1657 58.0859C99.4079 57.9453 99.6774 57.8398 99.9743 57.7695C100.271 57.6992 100.576 57.6445 100.888 57.6055C101.283 57.5625 101.601 57.5254 101.843 57.4941C102.086 57.4629 102.261 57.4141 102.371 57.3477C102.484 57.2773 102.541 57.166 102.541 57.0137V56.9844C102.541 56.6133 102.435 56.3262 102.224 56.123C102.017 55.9199 101.709 55.8184 101.298 55.8184C100.873 55.8184 100.535 55.9121 100.285 56.0996C100.039 56.2832 99.8688 56.4922 99.7751 56.7266L98.5739 56.4512C98.7184 56.0527 98.9274 55.7324 99.2008 55.4902C99.4782 55.2441 99.7946 55.0645 100.15 54.9512C100.509 54.8379 100.884 54.7812 101.275 54.7812C101.537 54.7812 101.814 54.8125 102.107 54.875C102.4 54.9336 102.675 55.0449 102.933 55.209C103.195 55.3691 103.408 55.5996 103.572 55.9004C103.736 56.2012 103.818 56.5898 103.818 57.0664V61.4141H102.57V60.5176H102.523C102.445 60.6777 102.322 60.8379 102.154 60.998C101.99 61.1582 101.779 61.291 101.521 61.3965C101.263 61.502 100.953 61.5547 100.59 61.5547ZM100.865 60.5352C101.22 60.5352 101.523 60.4668 101.773 60.3301C102.023 60.1895 102.215 60.0059 102.347 59.7793C102.48 59.5527 102.547 59.3125 102.547 59.0586V58.209C102.5 58.252 102.412 58.293 102.283 58.332C102.154 58.3711 102.007 58.4043 101.843 58.4316C101.679 58.459 101.519 58.4844 101.363 58.5078C101.207 58.5273 101.076 58.543 100.97 58.5547C100.724 58.5898 100.5 58.6445 100.297 58.7188C100.093 58.7891 99.9294 58.8945 99.8044 59.0352C99.6833 59.1719 99.6227 59.3535 99.6227 59.5801C99.6227 59.8965 99.7399 60.1348 99.9743 60.2949C100.209 60.4551 100.506 60.5352 100.865 60.5352ZM106.176 52.6836V61.4141H104.911V52.6836H106.176ZM107.263 61.4141V54.8633H108.529V61.4141H107.263ZM107.902 53.8555C107.679 53.8555 107.49 53.7812 107.333 53.6328C107.177 53.4844 107.099 53.3066 107.099 53.0996C107.099 52.8887 107.177 52.709 107.333 52.5605C107.49 52.4121 107.679 52.3379 107.902 52.3379C108.12 52.3379 108.308 52.4121 108.464 52.5605C108.624 52.709 108.704 52.8887 108.704 53.0996C108.704 53.3066 108.624 53.4844 108.464 53.6328C108.308 53.7812 108.12 53.8555 107.902 53.8555ZM112.662 54.8633V55.8887H109.088V54.8633H112.662ZM110.043 53.3047H111.315V59.4922C111.315 59.793 111.377 60.0137 111.502 60.1543C111.627 60.291 111.828 60.3594 112.106 60.3594C112.172 60.3594 112.242 60.3555 112.317 60.3477C112.395 60.3398 112.473 60.3281 112.551 60.3125L112.791 61.3672C112.662 61.4102 112.522 61.4434 112.369 61.4668C112.217 61.4902 112.065 61.502 111.912 61.502C111.346 61.502 110.893 61.3438 110.553 61.0273C110.213 60.707 110.043 60.2812 110.043 59.75V53.3047ZM114.241 63.8633C114.05 63.8672 113.876 63.8535 113.72 63.8223C113.567 63.7949 113.45 63.7617 113.368 63.7227L113.679 62.6855L113.767 62.709C114.091 62.791 114.364 62.7852 114.587 62.6914C114.813 62.6016 115.003 62.3496 115.155 61.9355L115.313 61.502L112.923 54.8633H114.288L115.94 59.9492H116.011L117.669 54.8633H119.034L116.339 62.2812C116.214 62.625 116.056 62.9141 115.864 63.1484C115.673 63.3867 115.442 63.5645 115.173 63.6816C114.907 63.8027 114.597 63.8633 114.241 63.8633ZM56.6514 76.5371C56.0693 76.5371 55.5654 76.4316 55.1396 76.2207C54.7178 76.0059 54.3916 75.7148 54.1611 75.3477C53.9346 74.9805 53.8213 74.5625 53.8213 74.0938C53.8213 73.7383 53.8975 73.4258 54.0498 73.1562C54.2061 72.8828 54.417 72.6289 54.6826 72.3945C54.9482 72.1602 55.249 71.918 55.585 71.668L56.9971 70.6719C57.2275 70.5078 57.4092 70.3418 57.542 70.1738C57.6787 70.0059 57.7471 69.791 57.7471 69.5293C57.7471 69.3262 57.6592 69.1309 57.4834 68.9434C57.3076 68.752 57.0713 68.6562 56.7744 68.6562C56.5713 68.6562 56.3916 68.707 56.2354 68.8086C56.083 68.9062 55.9619 69.0332 55.8721 69.1895C55.7861 69.3418 55.7432 69.5039 55.7432 69.6758C55.7432 69.8711 55.7979 70.0723 55.9072 70.2793C56.0205 70.4824 56.1631 70.6914 56.335 70.9062C56.5107 71.1172 56.6943 71.3398 56.8857 71.5742L60.9346 76.4141H59.4932L56.1416 72.4766C55.8604 72.1406 55.5986 71.8262 55.3564 71.5332C55.1143 71.2363 54.9189 70.9375 54.7705 70.6367C54.6221 70.3359 54.5479 70.0098 54.5479 69.6582C54.5479 69.2559 54.6396 68.9004 54.8232 68.5918C55.0068 68.2793 55.2627 68.0352 55.5908 67.8594C55.9229 67.6797 56.3076 67.5898 56.7451 67.5898C57.1982 67.5898 57.585 67.6777 57.9053 67.8535C58.2295 68.0293 58.4795 68.2617 58.6553 68.5508C58.8311 68.8398 58.9189 69.1562 58.9189 69.5C58.9189 69.9102 58.8154 70.2734 58.6084 70.5898C58.4014 70.9023 58.1182 71.1914 57.7588 71.457L56.001 72.752C55.6611 73.002 55.4248 73.25 55.292 73.4961C55.1631 73.7383 55.0986 73.9258 55.0986 74.0586C55.0986 74.3125 55.1631 74.5469 55.292 74.7617C55.4209 74.9727 55.6025 75.1426 55.8369 75.2715C56.0713 75.4004 56.3467 75.4648 56.6631 75.4648C56.9834 75.4648 57.2979 75.3945 57.6064 75.2539C57.915 75.1094 58.1943 74.9062 58.4443 74.6445C58.6943 74.3789 58.8936 74.0605 59.042 73.6895C59.1943 73.3184 59.2705 72.9043 59.2705 72.4473H60.4189C60.4189 73.0098 60.3545 73.4863 60.2256 73.877C60.1006 74.2637 59.9463 74.5781 59.7627 74.8203C59.583 75.0625 59.415 75.252 59.2588 75.3887C59.208 75.4355 59.1592 75.4824 59.1123 75.5293C59.0654 75.5723 59.0166 75.6172 58.9658 75.6641C58.6689 75.9609 58.3096 76.1816 57.8877 76.3262C57.4697 76.4668 57.0576 76.5371 56.6514 76.5371ZM63.9284 76.4141V67.6836H69.3483V68.8145H65.2467V71.6445H68.9557V72.7695H65.2467V76.4141H63.9284ZM72.5679 76.5488C71.9272 76.5488 71.3726 76.4102 70.9038 76.1328C70.4351 75.8555 70.0737 75.4648 69.8198 74.9609C69.5698 74.4531 69.4448 73.8613 69.4448 73.1855C69.4448 72.5137 69.5679 71.9219 69.814 71.4102C70.064 70.8984 70.4136 70.5 70.8628 70.2148C71.3159 69.9258 71.8472 69.7812 72.4565 69.7812C72.8276 69.7812 73.187 69.8418 73.5347 69.9629C73.8823 70.084 74.1948 70.2754 74.4722 70.5371C74.7495 70.7988 74.9683 71.1387 75.1284 71.5566C75.2925 71.9746 75.3745 72.4785 75.3745 73.0684V73.5254H70.1655V72.5703H74.7183L74.1265 72.8867C74.1265 72.4844 74.064 72.1289 73.939 71.8203C73.814 71.5117 73.6265 71.2715 73.3765 71.0996C73.1304 70.9238 72.8237 70.8359 72.4565 70.8359C72.0894 70.8359 71.7749 70.9238 71.5132 71.0996C71.2554 71.2754 71.0581 71.5078 70.9214 71.7969C70.7847 72.0859 70.7163 72.4023 70.7163 72.7461V73.3965C70.7163 73.8457 70.7944 74.2266 70.9507 74.5391C71.1069 74.8516 71.3237 75.0898 71.6011 75.2539C71.8823 75.418 72.2085 75.5 72.5796 75.5C72.8218 75.5 73.0405 75.4648 73.2358 75.3945C73.4351 75.3242 73.6069 75.2188 73.7515 75.0781C73.896 74.9375 74.0054 74.7637 74.0796 74.5566L75.2866 74.7852C75.189 75.1367 75.0171 75.4453 74.771 75.7109C74.5249 75.9766 74.2144 76.1836 73.8394 76.332C73.4683 76.4766 73.0444 76.5488 72.5679 76.5488ZM78.0316 76.5547C77.6175 76.5547 77.2425 76.4785 76.9066 76.3262C76.5706 76.1699 76.305 75.9434 76.1097 75.6465C75.9144 75.3496 75.8167 74.9883 75.8167 74.5625C75.8167 74.1914 75.887 73.8887 76.0277 73.6543C76.1722 73.416 76.3656 73.2266 76.6077 73.0859C76.8499 72.9453 77.1195 72.8398 77.4163 72.7695C77.7132 72.6992 78.0179 72.6445 78.3304 72.6055C78.7249 72.5625 79.0433 72.5254 79.2855 72.4941C79.5277 72.4629 79.7034 72.4141 79.8128 72.3477C79.9261 72.2773 79.9827 72.166 79.9827 72.0137V71.9844C79.9827 71.6133 79.8773 71.3262 79.6663 71.123C79.4593 70.9199 79.1507 70.8184 78.7406 70.8184C78.3148 70.8184 77.9769 70.9121 77.7269 71.0996C77.4808 71.2832 77.3109 71.4922 77.2171 71.7266L76.0159 71.4512C76.1605 71.0527 76.3695 70.7324 76.6429 70.4902C76.9202 70.2441 77.2366 70.0645 77.5921 69.9512C77.9515 69.8379 78.3265 69.7812 78.7171 69.7812C78.9788 69.7812 79.2562 69.8125 79.5491 69.875C79.8421 69.9336 80.1175 70.0449 80.3753 70.209C80.637 70.3691 80.8499 70.5996 81.014 70.9004C81.1781 71.2012 81.2601 71.5898 81.2601 72.0664V76.4141H80.012V75.5176H79.9652C79.887 75.6777 79.764 75.8379 79.596 75.998C79.432 76.1582 79.221 76.291 78.9632 76.3965C78.7054 76.502 78.3949 76.5547 78.0316 76.5547ZM78.307 75.5352C78.6624 75.5352 78.9652 75.4668 79.2152 75.3301C79.4652 75.1895 79.6566 75.0059 79.7894 74.7793C79.9222 74.5527 79.9886 74.3125 79.9886 74.0586V73.209C79.9417 73.252 79.8538 73.293 79.7249 73.332C79.596 73.3711 79.4495 73.4043 79.2855 73.4316C79.1214 73.459 78.9613 73.4844 78.805 73.5078C78.6488 73.5273 78.5179 73.543 78.4124 73.5547C78.1663 73.5898 77.9417 73.6445 77.7386 73.7188C77.5355 73.7891 77.3714 73.8945 77.2464 74.0352C77.1253 74.1719 77.0648 74.3535 77.0648 74.5801C77.0648 74.8965 77.182 75.1348 77.4163 75.2949C77.6507 75.4551 77.9476 75.5352 78.307 75.5352ZM85.3996 69.8633V70.8887H81.8254V69.8633H85.3996ZM82.7804 68.3047H84.0519V74.4922C84.0519 74.793 84.1144 75.0137 84.2394 75.1543C84.3644 75.291 84.5656 75.3594 84.8429 75.3594C84.9093 75.3594 84.9796 75.3555 85.0539 75.3477C85.132 75.3398 85.2101 75.3281 85.2882 75.3125L85.5285 76.3672C85.3996 76.4102 85.2589 76.4434 85.1066 76.4668C84.9543 76.4902 84.8019 76.502 84.6496 76.502C84.0832 76.502 83.63 76.3438 83.2902 76.0273C82.9504 75.707 82.7804 75.2812 82.7804 74.75V68.3047ZM90.3301 73.707V69.8633H91.5957V76.4141H90.3535V75.2773H90.2832C90.1269 75.625 89.8848 75.916 89.5566 76.1504C89.2285 76.3848 88.8184 76.5 88.3262 76.4961C87.9043 76.4961 87.5312 76.4043 87.207 76.2207C86.8867 76.0371 86.6348 75.7617 86.4512 75.3945C86.2715 75.0273 86.1816 74.5723 86.1816 74.0293V69.8633H87.4473V73.8828C87.4473 74.3242 87.5723 74.6777 87.8223 74.9434C88.0723 75.209 88.3945 75.3398 88.7891 75.3359C89.0273 75.3359 89.2637 75.2773 89.498 75.1602C89.7363 75.043 89.9336 74.8633 90.0898 74.6211C90.25 74.3789 90.3301 74.0742 90.3301 73.707ZM92.6824 76.4141V69.8633H93.9071V70.9121H93.9774C94.0985 70.5605 94.3094 70.2832 94.6102 70.0801C94.9149 69.873 95.2586 69.7695 95.6414 69.7695C95.7196 69.7695 95.8114 69.7734 95.9168 69.7812C96.0262 69.7852 96.1141 69.791 96.1805 69.7988V71.0176C96.1297 71.002 96.0379 70.9863 95.9051 70.9707C95.7762 70.9551 95.6453 70.9473 95.5125 70.9473C95.2117 70.9473 94.9422 71.0117 94.7039 71.1406C94.4696 71.2656 94.284 71.4395 94.1473 71.6621C94.0145 71.8809 93.9481 72.1348 93.9481 72.4238V76.4141H92.6824ZM99.2477 76.5488C98.6071 76.5488 98.0524 76.4102 97.5836 76.1328C97.1149 75.8555 96.7536 75.4648 96.4997 74.9609C96.2497 74.4531 96.1247 73.8613 96.1247 73.1855C96.1247 72.5137 96.2477 71.9219 96.4938 71.4102C96.7438 70.8984 97.0934 70.5 97.5426 70.2148C97.9958 69.9258 98.527 69.7812 99.1364 69.7812C99.5075 69.7812 99.8669 69.8418 100.215 69.9629C100.562 70.084 100.875 70.2754 101.152 70.5371C101.429 70.7988 101.648 71.1387 101.808 71.5566C101.972 71.9746 102.054 72.4785 102.054 73.0684V73.5254H96.8454V72.5703H101.398L100.806 72.8867C100.806 72.4844 100.744 72.1289 100.619 71.8203C100.494 71.5117 100.306 71.2715 100.056 71.0996C99.8102 70.9238 99.5036 70.8359 99.1364 70.8359C98.7692 70.8359 98.4547 70.9238 98.193 71.0996C97.9352 71.2754 97.7379 71.5078 97.6012 71.7969C97.4645 72.0859 97.3961 72.4023 97.3961 72.7461V73.3965C97.3961 73.8457 97.4743 74.2266 97.6305 74.5391C97.7868 74.8516 98.0036 75.0898 98.2809 75.2539C98.5622 75.418 98.8883 75.5 99.2594 75.5C99.5016 75.5 99.7204 75.4648 99.9157 75.3945C100.115 75.3242 100.287 75.2188 100.431 75.0781C100.576 74.9375 100.685 74.7637 100.759 74.5566L101.966 74.7852C101.869 75.1367 101.697 75.4453 101.451 75.7109C101.205 75.9766 100.894 76.1836 100.519 76.332C100.148 76.4766 99.7243 76.5488 99.2477 76.5488ZM107.711 71.4688L106.557 71.668C106.483 71.4492 106.344 71.248 106.141 71.0645C105.942 70.8809 105.643 70.7891 105.245 70.7891C104.885 70.7891 104.584 70.8711 104.342 71.0352C104.104 71.1953 103.985 71.4004 103.985 71.6504C103.985 71.8691 104.065 72.0469 104.225 72.1836C104.389 72.3203 104.649 72.4297 105.004 72.5117L106.053 72.7461C106.651 72.8828 107.098 73.0977 107.395 73.3906C107.692 73.6836 107.84 74.0586 107.84 74.5156C107.84 74.9102 107.727 75.2617 107.5 75.5703C107.274 75.875 106.959 76.1152 106.557 76.291C106.155 76.4629 105.69 76.5488 105.163 76.5488C104.428 76.5488 103.831 76.3906 103.37 76.0742C102.909 75.7578 102.625 75.3125 102.52 74.7383L103.745 74.5508C103.823 74.8711 103.981 75.1133 104.219 75.2773C104.461 75.4414 104.774 75.5234 105.157 75.5234C105.571 75.5234 105.903 75.4355 106.153 75.2598C106.407 75.084 106.534 74.8711 106.534 74.6211C106.534 74.207 106.225 73.9277 105.608 73.7832L104.5 73.5371C103.887 73.3965 103.434 73.1758 103.141 72.875C102.852 72.5703 102.708 72.1875 102.708 71.7266C102.708 71.3398 102.815 71 103.03 70.707C103.249 70.4141 103.547 70.1875 103.926 70.0273C104.309 69.8633 104.745 69.7812 105.233 69.7812C105.944 69.7812 106.5 69.9355 106.903 70.2441C107.309 70.5527 107.579 70.9609 107.711 71.4688Z" fill="#F0F0F0"/>
<g clip-path="url(#clip0_630_5286)">
<path d="M147.427 72.1409C147.552 72.0156 147.552 71.8125 147.427 71.6872L145.385 69.6454C145.26 69.5202 145.056 69.5202 144.931 69.6454C144.806 69.7707 144.806 69.9739 144.931 70.0992L146.746 71.9141L144.931 73.729C144.806 73.8542 144.806 74.0574 144.931 74.1827C145.056 74.308 145.26 74.308 145.385 74.1827L147.427 72.1409ZM130.517 72.2349H147.2V71.5932H130.517V72.2349Z" fill="#A1A1A1"/>
<path d="M159.56 76.0312C158.81 76.0312 158.138 75.8516 157.544 75.4922C156.95 75.1328 156.481 74.6191 156.138 73.9512C155.794 73.2793 155.622 72.4805 155.622 71.5547C155.622 70.6211 155.794 69.8203 156.138 69.1523C156.481 68.4805 156.95 67.9648 157.544 67.6055C158.138 67.2461 158.81 67.0664 159.56 67.0664C160.317 67.0664 160.991 67.2461 161.581 67.6055C162.171 67.9648 162.636 68.4805 162.976 69.1523C163.319 69.8203 163.491 70.6211 163.491 71.5547C163.491 72.4844 163.319 73.2832 162.976 73.9512C162.636 74.6191 162.171 75.1328 161.581 75.4922C160.991 75.8516 160.317 76.0312 159.56 76.0312ZM159.56 74.8301C160.063 74.8301 160.513 74.7051 160.907 74.4551C161.302 74.2051 161.612 73.8359 161.839 73.3477C162.069 72.8594 162.185 72.2617 162.185 71.5547C162.185 70.8438 162.069 70.2441 161.839 69.7559C161.612 69.2637 161.302 68.8926 160.907 68.6426C160.513 68.3926 160.063 68.2676 159.56 68.2676C159.06 68.2676 158.61 68.3926 158.212 68.6426C157.817 68.8926 157.505 69.2637 157.274 69.7559C157.044 70.2441 156.929 70.8438 156.929 71.5547C156.929 72.2617 157.044 72.8594 157.274 73.3477C157.505 73.8359 157.817 74.2051 158.212 74.4551C158.61 74.7051 159.06 74.8301 159.56 74.8301ZM167.443 69.3633V70.3887H163.869V69.3633H167.443ZM164.824 67.8047H166.096V73.9922C166.096 74.293 166.158 74.5137 166.283 74.6543C166.408 74.791 166.609 74.8594 166.887 74.8594C166.953 74.8594 167.023 74.8555 167.097 74.8477C167.176 74.8398 167.254 74.8281 167.332 74.8125L167.572 75.8672C167.443 75.9102 167.303 75.9434 167.15 75.9668C166.998 75.9902 166.846 76.002 166.693 76.002C166.127 76.002 165.674 75.8438 165.334 75.5273C164.994 75.207 164.824 74.7812 164.824 74.25V67.8047ZM169.632 72.0293V75.9141H168.366V67.1836H169.614V70.4414H169.702C169.854 70.0859 170.087 69.8047 170.399 69.5977C170.715 69.3867 171.128 69.2812 171.635 69.2812C172.085 69.2812 172.477 69.373 172.813 69.5566C173.149 69.7402 173.411 70.0156 173.598 70.3828C173.79 70.75 173.885 71.207 173.885 71.7539V75.9141H172.608V71.9062C172.608 71.4219 172.483 71.0469 172.233 70.7812C171.987 70.5156 171.643 70.3828 171.202 70.3828C170.897 70.3828 170.628 70.4492 170.393 70.582C170.159 70.7109 169.973 70.8965 169.837 71.1387C169.7 71.3809 169.632 71.6777 169.632 72.0293ZM177.791 76.0488C177.15 76.0488 176.595 75.9102 176.126 75.6328C175.658 75.3555 175.296 74.9648 175.042 74.4609C174.792 73.9531 174.667 73.3613 174.667 72.6855C174.667 72.0137 174.791 71.4219 175.037 70.9102C175.287 70.3984 175.636 70 176.085 69.7148C176.539 69.4258 177.07 69.2812 177.679 69.2812C178.05 69.2812 178.41 69.3418 178.757 69.4629C179.105 69.584 179.417 69.7754 179.695 70.0371C179.972 70.2988 180.191 70.6387 180.351 71.0566C180.515 71.4746 180.597 71.9785 180.597 72.5684V73.0254H175.388V72.0703H179.941L179.349 72.3867C179.349 71.9844 179.287 71.6289 179.162 71.3203C179.037 71.0117 178.849 70.7715 178.599 70.5996C178.353 70.4238 178.046 70.3359 177.679 70.3359C177.312 70.3359 176.998 70.4238 176.736 70.5996C176.478 70.7754 176.281 71.0078 176.144 71.2969C176.007 71.5859 175.939 71.9023 175.939 72.2461V72.8965C175.939 73.3457 176.017 73.7266 176.173 74.0391C176.33 74.3516 176.546 74.5898 176.824 74.7539C177.105 74.918 177.431 75 177.802 75C178.044 75 178.263 74.9648 178.458 74.8945C178.658 74.8242 178.83 74.7188 178.974 74.5781C179.119 74.4375 179.228 74.2637 179.302 74.0566L180.509 74.2852C180.412 74.6367 180.24 74.9453 179.994 75.2109C179.748 75.4766 179.437 75.6836 179.062 75.832C178.691 75.9766 178.267 76.0488 177.791 76.0488ZM181.356 75.9141V69.3633H182.58V70.4121H182.651C182.772 70.0605 182.983 69.7832 183.284 69.5801C183.588 69.373 183.932 69.2695 184.315 69.2695C184.393 69.2695 184.485 69.2734 184.59 69.2812C184.7 69.2852 184.787 69.291 184.854 69.2988V70.5176C184.803 70.502 184.711 70.4863 184.578 70.4707C184.45 70.4551 184.319 70.4473 184.186 70.4473C183.885 70.4473 183.616 70.5117 183.377 70.6406C183.143 70.7656 182.957 70.9395 182.821 71.1621C182.688 71.3809 182.621 71.6348 182.621 71.9238V75.9141H181.356ZM188.715 75.9141H187.314L190.455 67.1836H191.979L195.113 75.9141H193.719L191.246 68.7715H191.176L188.715 75.9141ZM188.949 72.498H193.479V73.5996H188.949V72.498ZM198.274 76.0488C197.645 76.0488 197.102 75.9043 196.645 75.6152C196.188 75.3262 195.837 74.9277 195.591 74.4199C195.345 73.9121 195.222 73.3301 195.222 72.6738C195.222 72.0059 195.347 71.418 195.597 70.9102C195.85 70.3984 196.204 70 196.657 69.7148C197.114 69.4258 197.649 69.2812 198.263 69.2812C198.763 69.2812 199.206 69.373 199.593 69.5566C199.983 69.7363 200.298 69.9922 200.536 70.3242C200.778 70.6562 200.921 71.043 200.964 71.4844H199.722C199.679 71.2773 199.595 71.0879 199.47 70.916C199.348 70.7441 199.188 70.6074 198.989 70.5059C198.79 70.4043 198.554 70.3535 198.28 70.3535C197.925 70.3535 197.614 70.4473 197.348 70.6348C197.087 70.8184 196.882 71.082 196.733 71.4258C196.585 71.7695 196.511 72.1758 196.511 72.6445C196.511 73.1172 196.583 73.5293 196.727 73.8809C196.872 74.2324 197.077 74.5039 197.343 74.6953C197.612 74.8828 197.925 74.9766 198.28 74.9766C198.647 74.9766 198.96 74.875 199.218 74.6719C199.479 74.4688 199.647 74.1914 199.722 73.8398H200.964C200.921 74.2656 200.784 74.6445 200.554 74.9766C200.323 75.3086 200.014 75.5703 199.628 75.7617C199.241 75.9531 198.79 76.0488 198.274 76.0488ZM204.781 69.3633V70.3887H201.207V69.3633H204.781ZM202.162 67.8047H203.433V73.9922C203.433 74.293 203.496 74.5137 203.621 74.6543C203.746 74.791 203.947 74.8594 204.224 74.8594C204.291 74.8594 204.361 74.8555 204.435 74.8477C204.513 74.8398 204.591 74.8281 204.67 74.8125L204.91 75.8672C204.781 75.9102 204.64 75.9434 204.488 75.9668C204.336 75.9902 204.183 76.002 204.031 76.002C203.465 76.002 203.011 75.8438 202.672 75.5273C202.332 75.207 202.162 74.7812 202.162 74.25V67.8047ZM205.563 75.9141V69.3633H206.829V75.9141H205.563ZM206.202 68.3555C205.979 68.3555 205.79 68.2812 205.633 68.1328C205.477 67.9844 205.399 67.8066 205.399 67.5996C205.399 67.3887 205.477 67.209 205.633 67.0605C205.79 66.9121 205.979 66.8379 206.202 66.8379C206.42 66.8379 206.608 66.9121 206.764 67.0605C206.924 67.209 207.004 67.3887 207.004 67.5996C207.004 67.8066 206.924 67.9844 206.764 68.1328C206.608 68.2812 206.42 68.3555 206.202 68.3555ZM210.663 76.0488C210.05 76.0488 209.513 75.9082 209.052 75.627C208.595 75.3457 208.24 74.9512 207.986 74.4434C207.736 73.9355 207.611 73.3457 207.611 72.6738C207.611 71.9941 207.736 71.4004 207.986 70.8926C208.24 70.3809 208.595 69.9844 209.052 69.7031C209.513 69.4219 210.05 69.2812 210.663 69.2812C211.281 69.2812 211.818 69.4219 212.275 69.7031C212.732 69.9844 213.087 70.3809 213.341 70.8926C213.595 71.4004 213.722 71.9941 213.722 72.6738C213.722 73.3457 213.595 73.9355 213.341 74.4434C213.087 74.9512 212.732 75.3457 212.275 75.627C211.818 75.9082 211.281 76.0488 210.663 76.0488ZM210.663 74.9766C211.066 74.9766 211.398 74.8711 211.659 74.6602C211.921 74.4492 212.115 74.1699 212.24 73.8223C212.368 73.4707 212.433 73.0879 212.433 72.6738C212.433 72.252 212.368 71.8652 212.24 71.5137C212.115 71.1621 211.921 70.8809 211.659 70.6699C211.398 70.459 211.066 70.3535 210.663 70.3535C210.265 70.3535 209.935 70.459 209.673 70.6699C209.415 70.8809 209.222 71.1621 209.093 71.5137C208.964 71.8652 208.9 72.252 208.9 72.6738C208.9 73.0879 208.964 73.4707 209.093 73.8223C209.222 74.1699 209.415 74.4492 209.673 74.6602C209.935 74.8711 210.265 74.9766 210.663 74.9766ZM215.776 72.0293V75.9141H214.51V69.3633H215.74V70.4414H215.828C215.977 70.0859 216.209 69.8047 216.526 69.5977C216.842 69.3867 217.248 69.2812 217.744 69.2812C218.19 69.2812 218.578 69.375 218.91 69.5625C219.246 69.7461 219.506 70.0215 219.69 70.3887C219.877 70.7559 219.971 71.2109 219.971 71.7539V75.9141H218.705V71.9062C218.705 71.4336 218.58 71.0625 218.33 70.793C218.08 70.5195 217.74 70.3828 217.311 70.3828C217.018 70.3828 216.754 70.4492 216.52 70.582C216.289 70.7109 216.108 70.8965 215.975 71.1387C215.842 71.3809 215.776 71.6777 215.776 72.0293ZM225.956 70.9688L224.802 71.168C224.728 70.9492 224.589 70.748 224.386 70.5645C224.187 70.3809 223.888 70.2891 223.489 70.2891C223.13 70.2891 222.829 70.3711 222.587 70.5352C222.349 70.6953 222.229 70.9004 222.229 71.1504C222.229 71.3691 222.31 71.5469 222.47 71.6836C222.634 71.8203 222.894 71.9297 223.249 72.0117L224.298 72.2461C224.895 72.3828 225.343 72.5977 225.64 72.8906C225.937 73.1836 226.085 73.5586 226.085 74.0156C226.085 74.4102 225.972 74.7617 225.745 75.0703C225.519 75.375 225.204 75.6152 224.802 75.791C224.399 75.9629 223.935 76.0488 223.407 76.0488C222.673 76.0488 222.075 75.8906 221.614 75.5742C221.153 75.2578 220.87 74.8125 220.765 74.2383L221.989 74.0508C222.067 74.3711 222.226 74.6133 222.464 74.7773C222.706 74.9414 223.019 75.0234 223.401 75.0234C223.815 75.0234 224.147 74.9355 224.397 74.7598C224.651 74.584 224.778 74.3711 224.778 74.1211C224.778 73.707 224.47 73.4277 223.853 73.2832L222.745 73.0371C222.132 72.8965 221.679 72.6758 221.386 72.375C221.097 72.0703 220.952 71.6875 220.952 71.2266C220.952 70.8398 221.06 70.5 221.274 70.207C221.493 69.9141 221.792 69.6875 222.171 69.5273C222.554 69.3633 222.989 69.2812 223.478 69.2812C224.188 69.2812 224.745 69.4355 225.147 69.7441C225.554 70.0527 225.823 70.4609 225.956 70.9688Z" fill="#F0F0F0"/>
</g>
<g clip-path="url(#clip1_630_5286)">
<path d="M147.427 57.1409C147.552 57.0156 147.552 56.8125 147.427 56.6872L145.385 54.6454C145.26 54.5202 145.056 54.5202 144.931 54.6454C144.806 54.7707 144.806 54.9739 144.931 55.0992L146.746 56.9141L144.931 58.729C144.806 58.8542 144.806 59.0574 144.931 59.1827C145.056 59.308 145.26 59.308 145.385 59.1827L147.427 57.1409ZM130.517 57.2349H147.2V56.5932H130.517V57.2349Z" fill="#12FFF1"/>
<path d="M155.47 53.3145V52.1836H162.231V53.3145H159.513V60.9141H158.2V53.3145H155.47ZM164.789 61.0488C164.176 61.0488 163.639 60.9082 163.178 60.627C162.721 60.3457 162.365 59.9512 162.111 59.4434C161.861 58.9355 161.736 58.3457 161.736 57.6738C161.736 56.9941 161.861 56.4004 162.111 55.8926C162.365 55.3809 162.721 54.9844 163.178 54.7031C163.639 54.4219 164.176 54.2812 164.789 54.2812C165.406 54.2812 165.943 54.4219 166.4 54.7031C166.857 54.9844 167.213 55.3809 167.467 55.8926C167.721 56.4004 167.847 56.9941 167.847 57.6738C167.847 58.3457 167.721 58.9355 167.467 59.4434C167.213 59.9512 166.857 60.3457 166.4 60.627C165.943 60.9082 165.406 61.0488 164.789 61.0488ZM164.789 59.9766C165.191 59.9766 165.523 59.8711 165.785 59.6602C166.047 59.4492 166.24 59.1699 166.365 58.8223C166.494 58.4707 166.558 58.0879 166.558 57.6738C166.558 57.252 166.494 56.8652 166.365 56.5137C166.24 56.1621 166.047 55.8809 165.785 55.6699C165.523 55.459 165.191 55.3535 164.789 55.3535C164.39 55.3535 164.06 55.459 163.799 55.6699C163.541 55.8809 163.347 56.1621 163.219 56.5137C163.09 56.8652 163.025 57.252 163.025 57.6738C163.025 58.0879 163.09 58.4707 163.219 58.8223C163.347 59.1699 163.541 59.4492 163.799 59.6602C164.06 59.8711 164.39 59.9766 164.789 59.9766ZM169.807 58.6934L169.79 57.1406H170.018L172.626 54.3633H174.149L171.178 57.5273H170.967L169.807 58.6934ZM168.635 60.9141V52.1836H169.901V60.9141H168.635ZM172.76 60.9141L170.417 57.8086L171.296 56.9121L174.331 60.9141H172.76ZM177.228 61.0488C176.587 61.0488 176.033 60.9102 175.564 60.6328C175.095 60.3555 174.734 59.9648 174.48 59.4609C174.23 58.9531 174.105 58.3613 174.105 57.6855C174.105 57.0137 174.228 56.4219 174.474 55.9102C174.724 55.3984 175.074 55 175.523 54.7148C175.976 54.4258 176.507 54.2812 177.117 54.2812C177.488 54.2812 177.847 54.3418 178.195 54.4629C178.542 54.584 178.855 54.7754 179.132 55.0371C179.41 55.2988 179.628 55.6387 179.789 56.0566C179.953 56.4746 180.035 56.9785 180.035 57.5684V58.0254H174.826V57.0703H179.378L178.787 57.3867C178.787 56.9844 178.724 56.6289 178.599 56.3203C178.474 56.0117 178.287 55.7715 178.037 55.5996C177.791 55.4238 177.484 55.3359 177.117 55.3359C176.75 55.3359 176.435 55.4238 176.173 55.5996C175.916 55.7754 175.718 56.0078 175.582 56.2969C175.445 56.5859 175.376 56.9023 175.376 57.2461V57.8965C175.376 58.3457 175.455 58.7266 175.611 59.0391C175.767 59.3516 175.984 59.5898 176.261 59.7539C176.542 59.918 176.869 60 177.24 60C177.482 60 177.701 59.9648 177.896 59.8945C178.095 59.8242 178.267 59.7188 178.412 59.5781C178.556 59.4375 178.666 59.2637 178.74 59.0566L179.947 59.2852C179.849 59.6367 179.677 59.9453 179.431 60.2109C179.185 60.4766 178.875 60.6836 178.5 60.832C178.128 60.9766 177.705 61.0488 177.228 61.0488ZM182.059 57.0293V60.9141H180.793V54.3633H182.024V55.4414H182.112C182.26 55.0859 182.493 54.8047 182.809 54.5977C183.125 54.3867 183.532 54.2812 184.028 54.2812C184.473 54.2812 184.862 54.375 185.194 54.5625C185.53 54.7461 185.789 55.0215 185.973 55.3887C186.16 55.7559 186.254 56.2109 186.254 56.7539V60.9141H184.989V56.9062C184.989 56.4336 184.864 56.0625 184.614 55.793C184.364 55.5195 184.024 55.3828 183.594 55.3828C183.301 55.3828 183.037 55.4492 182.803 55.582C182.573 55.7109 182.391 55.8965 182.258 56.1387C182.125 56.3809 182.059 56.6777 182.059 57.0293ZM189.975 60.9141V52.1836H195.395V53.3145H191.293V56.1445H195.002V57.2695H191.293V60.9141H189.975ZM197.542 52.1836V60.9141H196.276V52.1836H197.542ZM201.377 61.0488C200.763 61.0488 200.226 60.9082 199.765 60.627C199.308 60.3457 198.953 59.9512 198.699 59.4434C198.449 58.9355 198.324 58.3457 198.324 57.6738C198.324 56.9941 198.449 56.4004 198.699 55.8926C198.953 55.3809 199.308 54.9844 199.765 54.7031C200.226 54.4219 200.763 54.2812 201.377 54.2812C201.994 54.2812 202.531 54.4219 202.988 54.7031C203.445 54.9844 203.8 55.3809 204.054 55.8926C204.308 56.4004 204.435 56.9941 204.435 57.6738C204.435 58.3457 204.308 58.9355 204.054 59.4434C203.8 59.9512 203.445 60.3457 202.988 60.627C202.531 60.9082 201.994 61.0488 201.377 61.0488ZM201.377 59.9766C201.779 59.9766 202.111 59.8711 202.373 59.6602C202.634 59.4492 202.828 59.1699 202.953 58.8223C203.082 58.4707 203.146 58.0879 203.146 57.6738C203.146 57.252 203.082 56.8652 202.953 56.5137C202.828 56.1621 202.634 55.8809 202.373 55.6699C202.111 55.459 201.779 55.3535 201.377 55.3535C200.978 55.3535 200.648 55.459 200.386 55.6699C200.129 55.8809 199.935 56.1621 199.806 56.5137C199.677 56.8652 199.613 57.252 199.613 57.6738C199.613 58.0879 199.677 58.4707 199.806 58.8223C199.935 59.1699 200.129 59.4492 200.386 59.6602C200.648 59.8711 200.978 59.9766 201.377 59.9766ZM206.436 60.9141L204.514 54.3633H205.827L207.11 59.1738H207.18L208.463 54.3633H209.782L211.053 59.1562H211.118L212.395 54.3633H213.708L211.786 60.9141H210.491L209.155 56.1914H209.067L207.731 60.9141H206.436Z" fill="#F0F0F0"/>
</g>
</g>
<defs>
<filter id="filter0_b_630_5286" x="-29.1" y="-29.0023" width="312.2" height="155.016" filterUnits="userSpaceOnUse" color-interpolation-filters="sRGB">
<feFlood flood-opacity="0" result="BackgroundImageFix"/>
<feGaussianBlur in="BackgroundImageFix" stdDeviation="14.55"/>
<feComposite in2="SourceAlpha" operator="in" result="effect1_backgroundBlur_630_5286"/>
<feBlend mode="normal" in="SourceGraphic" in2="effect1_backgroundBlur_630_5286" result="shape"/>
</filter>
<linearGradient id="paint0_linear_630_5286" x1="-10.7674" y1="121.717" x2="-4.17802" y2="-34.7276" gradientUnits="userSpaceOnUse">
<stop stop-color="#0F0F0F" stop-opacity="0.43"/>
<stop offset="1" stop-color="#EDFFFE" stop-opacity="0.6"/>
</linearGradient>
<clipPath id="clip0_630_5286">
<rect width="96.6832" height="18" fill="white" transform="translate(130.517 62.9141)"/>
</clipPath>
<clipPath id="clip1_630_5286">
<rect width="83.6832" height="18" fill="white" transform="translate(130.517 47.9141)"/>
</clipPath>
</defs>
</svg>
