<svg width="451" height="269" viewBox="0 0 451 269" fill="none" xmlns="http://www.w3.org/2000/svg">
<g filter="url(#filter0_b_478_403)">
<path d="M0.828125 8.44629C0.828125 3.87268 4.53577 0.165039 9.10938 0.165039H442.219C446.792 0.165039 450.5 3.87268 450.5 8.44629V27.0791V195.09V203.889C450.5 206.175 448.646 208.029 446.359 208.029H396.982C392.866 208.029 389.529 211.366 389.529 215.482V245.323C389.529 246.431 389.085 247.493 388.296 248.271L368.483 267.808C367.708 268.572 366.663 269 365.575 269H343.465H302.68H9.10937C4.53576 269 0.828125 265.292 0.828125 260.719L0.828125 8.44629Z" fill="white" fill-opacity="0.1"/>
<path d="M1.65625 8.44629C1.65625 4.33004 4.99313 0.993164 9.10938 0.993164H442.219C446.335 0.993164 449.672 4.33004 449.672 8.44629V27.0791V195.09V203.889C449.672 205.718 448.189 207.201 446.359 207.201H396.982C392.409 207.201 388.701 210.909 388.701 215.482V245.323C388.701 246.209 388.346 247.059 387.714 247.681L367.901 267.218C367.281 267.829 366.446 268.172 365.575 268.172H343.465H302.68H9.10937C4.99312 268.172 1.65625 264.835 1.65625 260.719V8.44629Z" stroke="url(#paint0_linear_478_403)" stroke-width="1.65625"/>
</g>
<defs>
<filter id="filter0_b_478_403" x="-46.1266" y="-46.7896" width="543.581" height="362.744" filterUnits="userSpaceOnUse" color-interpolation-filters="sRGB">
<feFlood flood-opacity="0" result="BackgroundImageFix"/>
<feGaussianBlur in="BackgroundImageFix" stdDeviation="23.4773"/>
<feComposite in2="SourceAlpha" operator="in" result="effect1_backgroundBlur_478_403"/>
<feBlend mode="normal" in="SourceGraphic" in2="effect1_backgroundBlur_478_403" result="shape"/>
</filter>
<linearGradient id="paint0_linear_478_403" x1="-54.4852" y1="72.0701" x2="12.0999" y2="258.974" gradientUnits="userSpaceOnUse">
<stop stop-color="white" stop-opacity="0.19"/>
<stop offset="1" stop-color="#EDFFFE" stop-opacity="0.4"/>
</linearGradient>
</defs>
</svg>
