<svg width="28" height="29" viewBox="0 0 28 29" fill="none" xmlns="http://www.w3.org/2000/svg">
<path d="M22.1663 5.35078V17.9508C22.1663 17.9508 21.1455 19.0008 18.083 19.0008C15.0205 19.0008 12.9788 16.9008 9.91634 16.9008C6.85384 16.9008 5.83301 17.9508 5.83301 17.9508V5.35081C5.83301 5.35081 6.85384 4.30078 9.91634 4.30078C12.9788 4.30078 15.0205 6.40078 18.083 6.40078C21.1455 6.40078 22.1663 5.35078 22.1663 5.35078Z" fill="#F0F0F0"/>
<path d="M5.83301 25.3008V5.35081C5.83301 5.35081 6.85384 4.30078 9.91634 4.30078C12.9788 4.30078 15.0205 6.40078 18.083 6.40078C21.1455 6.40078 22.1663 5.35078 22.1663 5.35078V17.9508C22.1663 17.9508 21.1455 19.0008 18.083 19.0008C15.0205 19.0008 12.9788 16.9008 9.91634 16.9008C6.85384 16.9008 5.83301 17.9508 5.83301 17.9508" stroke="#F0F0F0" stroke-width="1.5" stroke-linecap="round" stroke-linejoin="round"/>
</svg>
