<svg width="98" height="99" viewBox="0 0 98 99" fill="none" xmlns="http://www.w3.org/2000/svg">
<path d="M76.5206 80.2133C73.1659 85.2768 69.6094 90.2175 64.1934 90.2993C58.7778 90.4218 57.0397 87.0733 50.8965 87.0733C44.7128 87.0733 42.8131 90.2175 37.68 90.4218C32.3854 90.6258 28.3841 85.0318 24.9891 80.0908C18.078 70.005 12.7834 51.4258 19.8967 38.9308C23.413 32.7242 29.7179 28.8042 36.5484 28.6817C41.7218 28.6 46.6528 32.2342 49.8456 32.2342C52.9981 32.2342 58.9797 27.865 65.2444 28.5183C67.8715 28.6408 75.2272 29.58 79.9559 36.6033C79.5922 36.8483 71.1856 41.83 71.2665 52.1608C71.3878 64.4925 81.9769 68.6168 82.0981 68.6575C81.9769 68.9433 80.4006 74.5375 76.5206 80.2133ZM53.4428 14.88C56.3931 11.4908 61.2834 8.91833 65.3253 8.755C65.8506 13.5325 63.9509 18.3508 61.1219 21.7808C58.3331 25.2517 53.7256 27.9467 49.199 27.5792C48.5928 22.8833 50.8559 17.9833 53.4428 14.88Z" fill="white"/>
</svg>
