<svg width="140" height="104" viewBox="0 0 140 104" fill="none" xmlns="http://www.w3.org/2000/svg">
<path d="M44.4659 31.0147C44.4927 31.284 44.5206 31.5516 44.5498 31.8174C44.8644 34.8125 45.4885 37.804 45.5129 40.8119C45.5234 42.2379 44.0044 42.0059 43.8453 40.8119C43.4235 37.6458 42.9544 34.4827 42.4381 31.3227C42.4362 31.3105 42.4317 31.2989 42.4251 31.2886C42.4184 31.2783 42.4097 31.2695 42.3995 31.2628C42.3893 31.2562 42.3778 31.2518 42.3658 31.2499C42.3538 31.2481 42.3415 31.2488 42.3298 31.252L40.0871 31.8917C40.0631 31.8979 40.0417 31.912 40.0261 31.9319C40.0106 31.9519 40.0018 31.9765 40.001 32.0022C40.0002 32.0278 40.0075 32.053 40.0218 32.0739C40.036 32.0948 40.0565 32.1104 40.0801 32.1181C40.8457 32.3899 41.4295 32.524 41.3264 33.5568C41.3189 33.632 41.2919 33.7036 41.2482 33.7642C41.2045 33.8248 41.1458 33.8721 41.0782 33.9011L39.8039 34.4447C39.7375 34.4737 39.7089 34.5244 39.7182 34.5969C40.1354 37.8379 40.5864 41.0698 41.0712 44.2926C41.1656 44.9147 40.9587 45.3725 40.4506 45.6661C40.3959 45.6975 40.3382 45.7053 40.2776 45.6896C39.5609 45.4957 38.8617 43.8233 38.6729 43.1909C38.6531 43.1269 38.6339 43.1269 38.6152 43.1909C38.5919 43.267 38.5896 43.3431 38.6082 43.4192C38.8442 44.3778 39.2375 46.2459 38.7061 47.1265C38.3775 47.6737 37.2465 48.3876 36.9301 47.3638C35.974 44.26 35.2975 41.0655 34.4514 37.9272C34.4246 37.8282 34.4095 37.83 34.406 37.9327C34.3932 38.3277 34.4025 38.7179 34.4339 39.1032C34.6064 41.1579 34.7917 43.2109 34.9898 45.262C35.1087 46.4996 33.6333 46.7061 33.3624 45.8436C32.5496 43.258 32.1423 40.4295 31.6616 37.7569C31.6045 37.4416 31.5048 37.075 31.3627 36.6571C31.3405 36.593 31.298 36.5695 31.2351 36.5864C29.036 37.188 26.8749 37.9133 24.7516 38.7625C24.6934 38.7855 24.6601 38.8296 24.652 38.8948C24.5174 40.0672 24.2499 46.0846 23.4668 46.5865C22.9145 46.938 22.3918 45.7675 22.2554 45.358C22.2487 45.339 22.2362 45.3228 22.2198 45.3119C22.2033 45.301 22.1839 45.296 22.1645 45.2977C22.145 45.2993 22.1266 45.3075 22.1121 45.321C22.0976 45.3346 22.0878 45.3527 22.0841 45.3725C21.7613 47.3258 21.368 49.2863 20.9042 51.2541C20.7259 52.0079 19.5635 51.3646 19.595 50.5311C19.673 48.3701 19.7785 46.2115 19.9113 44.0552C19.923 43.8596 19.9148 43.6663 19.8869 43.4754C19.8799 43.4223 19.8688 43.4217 19.8537 43.4736L18.3276 48.7337C18.3215 48.755 18.311 48.7747 18.297 48.7915C18.2829 48.8083 18.2657 48.8218 18.2463 48.8311C18.2269 48.8403 18.2059 48.8452 18.1846 48.8453C18.1634 48.8453 18.1424 48.8407 18.1231 48.8315C17.5987 48.5887 17.6913 46.534 17.6459 45.9632C17.6401 45.8895 17.6267 45.8883 17.6057 45.9596C17.2928 47.0504 17.0498 49.0653 16.0465 49.6741C15.9997 49.7024 15.9464 49.7171 15.8923 49.7167C15.8381 49.7164 15.785 49.701 15.7386 49.6721C15.6921 49.6432 15.654 49.6019 15.6282 49.5525C15.6025 49.5032 15.5899 49.4475 15.592 49.3914C15.8961 41.0347 17.2334 32.8121 17.8364 24.488C17.9833 22.4744 18.1866 20.4667 18.4465 18.4651C18.4547 18.4011 18.429 18.38 18.3696 18.4017C17.9431 18.563 16.2248 19.44 16.3646 18.2694C16.4468 17.5863 17.5987 16.3923 18.0899 15.8976C18.1045 15.8832 18.1141 15.8642 18.1172 15.8435C18.1202 15.8229 18.1165 15.8017 18.1067 15.7835C18.0969 15.7652 18.0815 15.7508 18.063 15.7426C18.0444 15.7344 18.0238 15.7329 18.0042 15.7382C17.6005 15.8433 17.2264 15.6657 16.9607 15.3341C16.4829 14.7362 16.5726 14.1588 17.2299 13.6019C19.1789 11.953 21.7538 10.7644 23.9405 9.31663C24.1421 9.18375 24.1352 9.16986 23.9196 9.27495C20.9607 10.7148 17.925 11.9512 14.8124 12.984C14.7392 13.0079 14.6603 13.0037 14.5899 12.9721C14.5196 12.9405 14.4626 12.8836 14.4295 12.8119C14.2198 12.3589 14.9609 11.8733 15.1969 11.7265C16.0977 11.1564 16.9916 10.6345 17.8784 10.161C17.9973 10.0982 18.0107 10.016 17.9186 9.91457C17.1302 9.05027 17.6651 8.08451 18.6248 7.77829C24.4772 5.91198 29.1864 4.29512 32.7523 2.92771C33.4119 2.67404 33.8792 2.79483 34.1543 3.2901C34.7451 4.35733 32.2646 5.78152 31.5951 6.278C31.446 6.38913 31.4547 6.40544 31.6214 6.32692C32.493 5.91984 33.3327 5.45115 34.1403 4.92085C34.1997 4.88219 34.237 4.82723 34.2521 4.75596L34.3168 4.46062C34.332 4.39176 34.3704 4.34163 34.4322 4.31023C34.7433 4.14715 35.072 4.05957 35.4181 4.04749C35.481 4.04508 35.5387 4.02514 35.5911 3.9877C36.1575 3.58001 36.9896 3.29191 37.5297 3.79563C38.6065 4.79583 37.4982 5.64744 36.7081 6.12761C36.6568 6.15901 36.633 6.20552 36.6364 6.26712C37.0548 13.376 37.7022 20.4613 38.5785 27.5231C38.5867 27.5883 38.6222 27.6185 38.6851 27.6137C39.6081 27.5412 40.5101 27.3636 40.8212 28.5486C40.8375 28.6102 40.876 28.6362 40.9366 28.6265L41.9714 28.4562C42.0413 28.4453 42.0705 28.4037 42.0588 28.3312C41.3188 23.7156 40.9762 19.0691 41.031 14.3919C41.031 14.3315 41.0485 14.2777 41.0834 14.2306C41.8159 13.2304 43.3856 14.4662 43.9607 15.0804C43.9731 15.0941 43.9895 15.1032 44.0073 15.1062C44.0252 15.1092 44.0435 15.106 44.0595 15.0971C44.0754 15.0883 44.0881 15.0742 44.0955 15.0571C44.1029 15.0399 44.1047 15.0208 44.1005 15.0025C43.938 14.1871 43.8436 12.493 44.4729 11.828C44.5136 11.7845 44.5626 11.7609 44.6197 11.7573C45.0497 11.7295 45.4634 11.802 45.8608 11.9748C45.8757 11.9811 45.892 11.9826 45.9077 11.979C45.9234 11.9754 45.9377 11.9669 45.9488 11.9547C45.9599 11.9424 45.9673 11.9269 45.97 11.9101C45.9727 11.8933 45.9706 11.8761 45.9639 11.8606C45.5898 11.0416 45.0707 9.61198 45.5514 8.7658C45.5828 8.71023 45.6295 8.68245 45.6912 8.68245C46.2209 8.67882 46.2716 9.10825 46.359 9.53044C46.3718 9.58963 46.4021 9.63674 46.4499 9.67177C46.8607 9.97618 47.2662 10.1592 47.5354 10.6249C50.1365 15.1366 52.8581 19.7589 55.7668 23.9155C55.817 23.9879 55.8403 23.9795 55.8368 23.8901C55.6602 19.9636 55.3543 16.0589 55.5746 12.1306C55.6148 11.4257 56.4626 11.4674 56.8366 11.8044C56.8724 11.8364 56.9158 11.8579 56.9623 11.8666C57.0087 11.8752 57.0566 11.8708 57.1009 11.8538C57.1452 11.8368 57.1842 11.8078 57.214 11.7698C57.2438 11.7317 57.2632 11.6862 57.2701 11.6377C57.375 10.9105 57.4613 10.1924 57.5289 9.48333C57.6425 8.30375 58.7717 9.24234 59.1772 9.51232C59.2437 9.55701 59.2821 9.53829 59.2926 9.45615C59.373 8.84854 59.4336 8.24637 59.4744 7.64964C59.574 6.23813 61.2906 6.9466 61.2854 8.0229C61.2801 9.23509 61.135 10.4092 61.0616 11.5961C61.06 11.6143 61.0648 11.6326 61.0751 11.6475C61.0855 11.6624 61.1007 11.673 61.118 11.6771C61.1352 11.6813 61.1533 11.6789 61.169 11.6704C61.1847 11.6618 61.1968 11.6476 61.2032 11.6305C61.6029 10.6049 61.8302 9.54373 61.8849 8.44689C61.8931 8.27778 61.9799 8.16544 62.1454 8.10987C62.8411 7.87432 63.2257 8.85639 63.1872 9.41991C62.8784 13.9329 62.6214 19.0148 62.4163 24.6656C62.4082 24.883 62.4216 25.0655 62.4565 25.2128C62.4845 25.3336 62.5119 25.333 62.5387 25.211C63.1488 22.4768 64.2081 19.893 65.9753 17.8763C66.0126 17.834 66.0301 17.7845 66.0278 17.7277L65.9998 16.8579C65.9975 16.7927 66.0184 16.7365 66.0627 16.6894C68.5437 14.0585 71.28 11.7525 74.2714 9.77143C75.3045 9.08651 76.2502 8.82559 77.4459 9.26771C77.5041 9.28945 77.5601 9.28462 77.6137 9.25321C78.1538 8.9488 80.2549 7.68769 80.7706 8.67158C80.9501 9.01585 80.9973 9.36978 80.9122 9.73338C80.8947 9.80344 80.8528 9.85055 80.7863 9.87471L79.346 10.3893C79.2574 10.4207 79.2434 10.4739 79.304 10.5488L79.8179 11.1775C79.8599 11.2306 79.8756 11.291 79.8651 11.3587C79.748 12.0581 76.8708 13.0927 76.2502 13.4841C74.3449 14.6836 71.749 16.4956 70.4345 18.3782C70.3693 18.4724 70.3809 18.4839 70.4695 18.4126C72.7734 16.5463 75.1367 14.8358 77.7692 13.4968C77.8159 13.4738 77.8654 13.4654 77.9178 13.4714L78.8198 13.5874C78.8664 13.5934 78.8857 13.6206 78.8775 13.6689C78.631 15.1493 75.6209 16.0136 74.8273 17.3725C74.7714 17.4668 74.79 17.4873 74.8833 17.4341C76.4652 16.53 78.0472 15.4519 79.9403 15.5624C79.9714 15.5641 80.0017 15.5734 80.0288 15.5894C80.0558 15.6055 80.0788 15.6279 80.096 15.6549C80.1132 15.6818 80.124 15.7126 80.1276 15.7447C80.1312 15.7768 80.1275 15.8093 80.1168 15.8396C79.5347 17.4704 77.5577 18.0285 76.1995 18.8004C73.7861 20.1714 71.9198 22.0673 70.6006 24.488C69.134 27.1806 68.3684 31.6054 70.4765 34.1638C71.9553 35.9595 75.8919 34.7346 77.5979 33.8884C77.6434 33.8655 77.6649 33.828 77.6626 33.7761L77.521 30.2609C77.5175 30.1582 77.4703 30.1274 77.3794 30.1685L73.6719 31.8319C73.6136 31.8572 73.5588 31.8518 73.5076 31.8156C73.1521 31.5631 72.8952 31.2255 72.7367 30.8027C72.7122 30.7374 72.7239 30.6801 72.7716 30.6305L73.0723 30.3207C73.1935 30.1951 73.1754 30.096 73.0181 30.0235C72.4692 29.7723 72.1965 29.4606 72.2 29.0886C72.207 28.1971 74.3676 26.9034 75.0615 26.5682C75.1326 26.5331 75.1297 26.509 75.0528 26.4957C74.4025 26.3852 73.546 26.7312 73.3974 25.7872C73.1877 24.4464 76.7554 23.3103 77.7622 23.0349C81.5928 21.9827 84.2632 21.2664 85.7734 20.8859C85.8142 20.875 85.8364 20.8478 85.8399 20.8044L85.9465 19.3258C85.9478 19.3099 85.9447 19.2939 85.9374 19.2798C85.9302 19.2656 85.9192 19.254 85.9058 19.2461C85.8923 19.2383 85.877 19.2346 85.8616 19.2356C85.8462 19.2365 85.8314 19.2421 85.8189 19.2515C85.2438 19.69 83.7807 20.6522 83.3559 19.4907C83.335 19.4327 83.2948 19.3977 83.2353 19.3856L82.3316 19.199C82.2465 19.1809 82.1818 19.1331 82.1376 19.0558L81.5607 18.0393C81.5257 17.9789 81.5368 17.9288 81.5939 17.8889L82.2844 17.4106C82.3648 17.355 82.3788 17.2844 82.3263 17.1986L82.0659 16.7764C82.0368 16.7305 82.0391 16.6864 82.0729 16.6441L82.8542 15.6602C82.87 15.6404 82.8813 15.6171 82.8874 15.5922C82.8936 15.5673 82.8943 15.5414 82.8896 15.5162C82.8849 15.4911 82.8749 15.4674 82.8604 15.4469C82.8458 15.4264 82.827 15.4095 82.8053 15.3975C82.3823 15.1565 81.3562 14.7561 81.1657 14.3339C80.7059 13.3174 82.6882 13.3482 82.655 12.3498C82.6528 12.291 82.667 12.2328 82.6958 12.182C82.7246 12.1313 82.7669 12.0902 82.8175 12.0635C87.927 9.42897 93.3302 7.10787 99.1563 7.27276C99.8223 7.29269 100.518 7.86526 101.1 7.81634C105.243 7.46301 107.496 11.4094 107.526 15.1964C107.528 15.4489 107.596 15.6735 107.729 15.8704C107.775 15.9393 107.827 15.9441 107.882 15.8849L108.396 15.3595C108.444 15.3099 108.501 15.2797 108.566 15.2689C110.136 15.0098 110.583 17.2529 111.155 18.3147C112.304 20.4468 113.466 22.5722 114.642 24.691C114.69 24.778 114.726 24.7731 114.75 24.6765L116.887 16.0063C116.903 15.9423 116.941 15.897 117 15.8704C117.523 15.6397 118.054 15.6113 118.591 15.7853C118.656 15.807 118.713 15.7919 118.76 15.74C119.475 14.9753 119.313 12.2973 120.46 12.0382C121.327 11.8425 121.507 13.0674 121.197 13.6689C121.189 13.6845 121.185 13.7017 121.184 13.7193C121.183 13.7369 121.186 13.7544 121.193 13.7707C121.199 13.787 121.209 13.8016 121.222 13.8134C121.234 13.8253 121.249 13.8341 121.265 13.8392C122.18 14.1201 123.618 14.535 123.398 15.8016C123.392 15.8254 123.395 15.8507 123.407 15.8719C123.419 15.8931 123.439 15.9086 123.462 15.9148C123.485 15.9211 123.509 15.9176 123.53 15.9052C123.55 15.8928 123.565 15.8725 123.571 15.8487C123.992 14.5821 124.599 12.3118 125.539 11.4547C125.58 11.4173 125.628 11.3986 125.683 11.3986C127.015 11.3949 126.359 13.6345 126.134 14.2415C126.113 14.2946 126.121 14.3424 126.16 14.3846L126.868 15.1493C126.917 15.2024 126.928 15.2634 126.903 15.3323C126.016 17.7367 125.116 20.1158 124.185 22.5003C122.054 27.9579 120.211 33.5913 118.35 39.1539C117.493 41.716 116.939 44.5753 115.588 47.0178C115.574 47.0421 115.552 47.0601 115.526 47.0678C115.5 47.0756 115.472 47.0726 115.448 47.0594L114.658 46.6173C114.612 46.5918 114.576 46.5508 114.556 46.501C114.536 46.4512 114.533 46.3958 114.548 46.3437L115.478 42.9753C115.48 42.9649 115.48 42.954 115.478 42.9436C115.475 42.9333 115.469 42.9239 115.462 42.9164C115.454 42.909 115.445 42.9038 115.435 42.9014C115.425 42.8991 115.414 42.8995 115.404 42.9028L114.691 43.1674C114.647 43.1843 114.617 43.2151 114.602 43.2598L113.773 45.7784C113.747 45.8593 113.695 45.9287 113.627 45.976C113.558 46.0232 113.476 46.0455 113.394 46.0393C113.184 46.0248 112.993 45.9433 112.819 45.7947C112.782 45.7634 112.738 45.7422 112.691 45.733C112.644 45.7238 112.595 45.7269 112.549 45.742C112.504 45.7571 112.462 45.7838 112.429 45.8195C112.396 45.8553 112.372 45.8991 112.359 45.9469L111.772 48.1738C111.751 48.2547 111.7 48.294 111.62 48.2916C111.304 48.2843 111.023 48.1768 110.777 47.969C110.729 47.9292 110.704 47.8766 110.702 47.8114C110.678 46.6952 111.095 45.4269 111.441 44.3216C111.464 44.254 111.457 44.1851 111.422 44.115C111.416 44.1032 111.407 44.0936 111.395 44.0876C111.383 44.0816 111.37 44.0795 111.358 44.0814C111.345 44.0834 111.333 44.0895 111.323 44.0987C111.314 44.108 111.308 44.12 111.305 44.1332C111.237 44.539 111.074 44.8742 110.996 45.2892C110.727 46.7152 110.204 46.8656 109.162 45.927C109.118 45.8871 109.104 45.8376 109.12 45.7784C110.674 40.5038 111.908 35.1224 113.207 29.7681C113.21 29.7562 113.209 29.7435 113.204 29.7324C113.199 29.7212 113.19 29.7124 113.179 29.7075C113.168 29.7026 113.156 29.702 113.145 29.7058C113.133 29.7096 113.124 29.7176 113.118 29.7282C112.627 30.52 112.158 30.0181 111.644 29.5651C110.77 28.7932 110.052 27.7206 109.487 26.9469C109.108 26.425 109.087 26.4401 109.424 26.9922C109.952 27.8565 110.735 28.978 111.087 30.2011C111.101 30.2518 111.089 30.2953 111.052 30.3316C110.823 30.5526 110.625 30.549 110.457 30.3207C108.038 27.0103 106.264 24.9918 105.46 21.627C105.443 21.563 105.411 21.5515 105.362 21.5926C104.829 22.0286 104.48 22.3367 104.315 22.5166C102.669 24.3069 100.906 26.0149 99.0235 27.6408C99.0069 27.6554 98.9937 27.6737 98.985 27.6943C98.9762 27.715 98.9721 27.7374 98.973 27.7599C98.9738 27.7824 98.9796 27.8045 98.9898 27.8243C99.0001 27.8442 99.0146 27.8614 99.0322 27.8746C101.309 29.5657 103.613 31.2273 105.942 32.8592C106.315 33.122 106.613 33.4209 106.863 33.7725C106.874 33.7867 106.88 33.8038 106.881 33.8215C106.882 33.8393 106.879 33.8571 106.871 33.8728C106.863 33.8886 106.851 33.9016 106.836 33.9105C106.821 33.9193 106.804 33.9236 106.786 33.9228C105.414 33.8794 103.972 32.9661 102.813 32.3465C102.792 32.337 102.769 32.3358 102.747 32.3431C102.726 32.3504 102.707 32.3657 102.696 32.3861C102.685 32.4064 102.681 32.4305 102.685 32.4536C102.69 32.4767 102.702 32.4972 102.721 32.5113L108.061 36.2349C108.114 36.2723 108.144 36.3243 108.15 36.3907C108.185 36.7483 108.061 37.0279 107.779 37.2296C107.733 37.2635 107.684 37.2677 107.634 37.2423L104.248 35.5717C104.232 35.5636 104.213 35.5623 104.195 35.5682C104.178 35.5741 104.163 35.5867 104.155 35.6034C104.146 35.6202 104.144 35.6397 104.148 35.6581C104.153 35.6765 104.165 35.6922 104.18 35.7022C104.99 36.2337 105.722 36.7259 106.376 37.1789C106.918 37.5558 106.974 38.0154 106.545 38.5578C106.173 39.0289 105.568 38.7481 105.154 38.4998C105.138 38.4915 105.12 38.4889 105.103 38.4925C105.086 38.4961 105.071 38.5057 105.059 38.5196C105.048 38.5336 105.042 38.551 105.042 38.5692C105.041 38.5873 105.047 38.605 105.058 38.6194C105.413 39.0519 105.821 39.4173 106.281 39.7156C106.668 39.9675 107.584 40.6633 107.059 41.2177C106.825 41.466 106.545 41.4859 106.238 41.3246C101.231 38.6919 97.2615 34.9194 92.409 32.3483C92.3449 32.3144 92.3128 32.335 92.3128 32.4099C92.2953 34.2997 92.5453 36.1787 92.6449 38.0631C92.6904 38.9075 91.6433 38.8839 91.5 38.0976C91.1451 36.1497 90.4617 33.8214 90.5928 31.8572C90.5974 31.7884 90.5671 31.7618 90.5019 31.7775C90.376 31.8047 90.3131 31.9279 90.3183 32.0638C90.4104 34.5667 90.538 37.0726 90.7011 39.5816C90.7053 39.6405 90.6932 39.6994 90.6662 39.7511C90.6393 39.8028 90.5986 39.8452 90.5491 39.8733C90.2099 40.0653 89.3936 40.5165 89.231 39.8733C89.0749 39.2512 88.9251 38.6279 88.7818 38.0033C88.4864 36.715 88.3028 35.222 88.0039 33.8341C88.0015 33.8212 87.9954 33.8093 87.9864 33.8001C87.9774 33.7909 87.9659 33.7847 87.9534 33.7823C87.9409 33.78 87.9281 33.7816 87.9165 33.7869C87.9049 33.7923 87.8952 33.8011 87.8886 33.8123C87.8151 33.9283 87.7819 34.0654 87.7889 34.2236C87.8396 35.3525 88.1403 36.7622 87.7714 37.8385C87.7547 37.8872 87.7282 37.9316 87.6936 37.9688C87.659 38.0061 87.6172 38.0353 87.5709 38.0545C87.5246 38.0737 87.4749 38.0824 87.4251 38.0802C87.3753 38.0779 87.3265 38.0647 87.282 38.0414C86.9464 37.865 86.7716 37.563 86.7576 37.1354C86.623 33.1165 86.1108 28.8566 85.8469 24.6928C85.8434 24.6348 85.8137 24.6119 85.7577 24.6239L84.8924 24.8069C84.826 24.8202 84.8179 24.8504 84.868 24.8975L85.3889 25.3813C85.4301 25.4197 85.4625 25.4672 85.4834 25.5204C85.5043 25.5735 85.5132 25.6309 85.5095 25.688C85.5058 25.7452 85.4895 25.8007 85.462 25.8502C85.4344 25.8997 85.3962 25.942 85.3504 25.9738C84.6524 26.4582 83.9066 26.8327 83.113 27.0972C83.0512 27.1178 83.0215 27.1613 83.0238 27.2277C83.0821 29.5712 83.1054 31.9086 83.0937 34.2399C83.0902 34.673 82.877 35.0626 82.8665 35.4014C82.8537 35.7662 82.8869 36.642 82.9661 38.0287C83.05 39.523 83.2697 42.1346 83.6251 45.8636C83.6671 46.3117 83.501 46.6656 83.1269 46.9254C83.0768 46.9604 83.0279 46.9586 82.9801 46.9199C82.3246 46.4035 82.4539 45.6969 82.2739 45.0047C82.2588 44.9455 82.2215 44.9129 82.162 44.9069L81.1779 44.7873C81.1301 44.7812 81.0998 44.754 81.087 44.7057C80.671 43.1239 80.6727 41.4152 80.4035 39.7935C80.393 39.7259 80.361 39.712 80.3074 39.7519C79.6361 40.2483 79.8494 41.9099 79.8686 43.2217C79.8698 43.2966 79.8418 43.3558 79.7847 43.3993L79.276 43.7816C79.2131 43.83 79.1595 43.8203 79.1152 43.7526C78.5541 42.9137 78.4842 41.6762 78.2028 40.7629C78.1853 40.7062 78.1486 40.685 78.0926 40.6995C77.63 40.8179 76.6021 41.0728 75.0091 41.4642C70.9484 42.4644 66.0907 41.8936 64.257 37.4453C64.2302 37.3776 64.1813 37.3444 64.1102 37.3456C63.8468 37.348 63.6178 37.2617 63.4232 37.0865C63.4092 37.0739 63.3922 37.0655 63.3741 37.0621C63.3559 37.0587 63.3371 37.0604 63.3198 37.0671C63.3025 37.0737 63.2872 37.0851 63.2755 37.1C63.2639 37.1149 63.2563 37.1328 63.2536 37.1517C63.1954 37.5334 63.1056 37.9031 62.9844 38.2606C62.7974 38.8133 62.5369 38.6991 62.0825 38.5959C61.9484 38.5657 61.8564 38.617 61.8063 38.7499C61.565 39.3913 61.1473 40.1378 60.3397 39.9621C59.3013 39.7374 60.4044 37.0575 58.1791 36.7676C58.1185 36.7603 58.0789 36.7265 58.0603 36.6661C57.9624 36.349 57.9624 35.7239 57.4991 35.7819C57.4409 35.7891 57.4112 35.823 57.41 35.8834C57.4082 36.012 57.4345 36.2621 57.5061 36.3726C57.8977 36.9729 58.1745 37.6265 58.3364 38.3331C58.3539 38.4068 58.3265 38.4479 58.2543 38.4563L57.5131 38.5451C57.4537 38.5524 57.4059 38.53 57.3698 38.4781C54.4191 34.1729 51.7709 29.6303 48.7013 25.423C48.4822 25.1246 48.3867 25.1621 48.4146 25.5354C48.7433 29.919 49.1249 34.4169 49.5596 39.0289C49.6155 39.6359 49.3551 40.0599 48.7503 40.0327C48.2731 40.011 48.1612 39.5979 47.5599 39.7772C47.1718 39.8932 46.6771 39.9004 46.5687 39.471C46.1632 37.8451 45.7227 36.2325 45.2472 34.6331C45.0002 33.8057 44.752 32.5977 44.5026 31.0092C44.4303 30.5562 44.4181 30.5581 44.4659 31.0147ZM34.5636 7.61394C34.5394 7.568 34.4986 7.53389 34.4502 7.51911C34.4018 7.50433 34.3496 7.51009 34.3053 7.53512L32.2671 8.68698C32.2451 8.6994 32.2257 8.71618 32.21 8.73637C32.1943 8.75656 32.1826 8.77976 32.1755 8.80464C32.1685 8.82953 32.1662 8.85561 32.1689 8.88141C32.1715 8.9072 32.1791 8.93219 32.191 8.95496L32.1961 8.96457C32.2203 9.01051 32.2611 9.04462 32.3096 9.0594C32.358 9.07418 32.4101 9.06842 32.4545 9.04339L34.4927 7.89153C34.5146 7.87912 34.534 7.86233 34.5497 7.84214C34.5655 7.82195 34.5772 7.79875 34.5842 7.77387C34.5913 7.74898 34.5936 7.7229 34.5909 7.69711C34.5882 7.67131 34.5807 7.64632 34.5687 7.62355L34.5636 7.61394ZM95.3998 10.4255C93.6938 9.84753 89.3307 11.0978 88.0267 12.4132C87.9288 12.5123 87.9439 12.5371 88.0721 12.4875C90.4354 11.5526 92.8728 10.9238 95.3841 10.6013C95.4037 10.5985 95.4218 10.589 95.4354 10.5742C95.4491 10.5594 95.4575 10.5403 95.4593 10.5199C95.4612 10.4995 95.4563 10.4791 95.4455 10.462C95.4347 10.4448 95.4186 10.432 95.3998 10.4255ZM91.472 17.7331L91.5944 24.171C91.5955 24.235 91.6229 24.2507 91.6765 24.2181C93.9769 22.783 98.1687 20.0633 98.6302 16.9087C98.6407 16.8386 98.6139 16.7897 98.5498 16.7619C96.3001 15.7762 93.734 16.838 91.5594 17.6027C91.5 17.6232 91.4708 17.6667 91.472 17.7331ZM21.1315 17.0446L20.8448 23.0385C20.845 23.0557 20.8511 23.0722 20.8619 23.0851C20.8728 23.0981 20.8877 23.1066 20.9041 23.1093C20.9204 23.1119 20.9372 23.1084 20.9513 23.0994C20.9654 23.0904 20.976 23.0765 20.9811 23.0602C21.5475 20.9837 21.7415 18.7315 22.0037 16.5898C22.0142 16.5125 21.9857 16.4913 21.9181 16.5264L21.2346 16.8797C21.1693 16.9135 21.135 16.9685 21.1315 17.0446ZM27.9103 18.0955C27.8555 17.8092 27.8013 17.8092 27.7477 18.0955C26.9314 22.5203 26.0399 27.128 25.5085 31.6688C25.5072 31.6814 25.5088 31.6941 25.5133 31.7059C25.5178 31.7176 25.5249 31.728 25.5341 31.7361C25.5433 31.7442 25.5543 31.7497 25.566 31.7522C25.5777 31.7547 25.5898 31.7541 25.6012 31.7503L30.1338 30.2971C30.1736 30.2849 30.2075 30.2576 30.2288 30.2207C30.2502 30.1838 30.2574 30.14 30.2492 30.0978L27.9103 18.0955ZM102.726 19.9093C101.009 22.0147 99.0322 23.7325 96.6654 25.8506C96.6071 25.9026 96.606 25.9557 96.6619 26.0101C96.853 26.1949 97.0808 26.2927 97.3454 26.3036C97.4072 26.306 97.4613 26.2861 97.5079 26.2438C99.4308 24.479 101.574 22.263 102.894 19.9672C102.918 19.925 102.909 19.8923 102.867 19.8694C102.831 19.8495 102.759 19.8676 102.726 19.9093ZM121.07 21.8662C120.12 24.276 119.411 26.7638 118.788 29.3712C118.76 29.4908 118.779 29.4993 118.843 29.3966C119.056 29.056 119.239 28.6972 119.391 28.3203C120.34 25.9853 121.068 23.5772 121.575 21.0961C121.59 21.0236 121.577 21.0176 121.536 21.078C121.292 21.4343 121.136 21.697 121.07 21.8662ZM85.8259 21.9386L85.1144 22.2883C85.1122 22.2898 85.1106 22.2922 85.1099 22.2949C85.1093 22.2976 85.1096 22.3004 85.111 22.3028L85.1127 22.3083C85.1302 22.3466 85.1562 22.3803 85.1892 22.4074C85.2222 22.4345 85.2616 22.4545 85.3051 22.4663C85.3486 22.4781 85.3954 22.4814 85.4428 22.476C85.4902 22.4707 85.5372 22.4568 85.5812 22.4351L85.6406 22.4061C85.6847 22.3846 85.725 22.3557 85.7591 22.3211C85.7932 22.2864 85.8204 22.2468 85.8393 22.2044C85.8581 22.1619 85.8682 22.1176 85.8689 22.0739C85.8696 22.0301 85.8609 21.9879 85.8434 21.9495L85.8399 21.9423C85.8384 21.9399 85.8362 21.9382 85.8336 21.9376C85.831 21.9369 85.8282 21.9373 85.8259 21.9386ZM35.1279 24.2742C35.1885 25.6199 35.2689 27.0018 35.3691 28.42C35.3773 28.5299 35.4297 28.5613 35.5265 28.5142L36.1488 28.2152C36.2362 28.1729 36.2699 28.1029 36.2501 28.005L35.1052 22.5783C35.0609 22.3669 35.0347 22.3693 35.0265 22.5855C35.0038 23.149 35.1122 23.8937 35.1279 24.2742ZM51.5803 26.5374C51.5617 26.5132 51.55 26.5168 51.5454 26.5482C51.5331 26.6316 56.05 33.7362 56.4346 34.0606C56.4479 34.0718 56.4644 34.0782 56.4816 34.079C56.4988 34.0798 56.5157 34.0749 56.53 34.065C56.5443 34.055 56.5551 34.0406 56.5609 34.0239C56.5667 34.0071 56.5672 33.9888 56.5622 33.9718C56.3384 33.2095 56.0238 32.5355 55.6183 31.9496C54.3888 30.1763 53.0428 28.3723 51.5803 26.5374ZM77.6836 38.1048C76.0527 38.8441 74.4375 39.2953 72.6965 39.6576C72.6914 39.658 72.6865 39.6594 72.682 39.6617C72.6774 39.6641 72.6734 39.6673 72.67 39.6712C72.6667 39.6752 72.6642 39.6798 72.6626 39.6848C72.6609 39.6897 72.6603 39.695 72.6606 39.7002C72.661 39.7055 72.6623 39.7106 72.6646 39.7153C72.6668 39.72 72.6699 39.7242 72.6738 39.7276C72.6776 39.7311 72.682 39.7337 72.6868 39.7354C72.6916 39.7371 72.6967 39.7377 72.7017 39.7374C74.4859 39.8618 76.1756 39.5097 77.771 38.681C77.8304 38.6496 77.8555 38.5995 77.8462 38.5306L77.799 38.1719C77.7885 38.097 77.75 38.0746 77.6836 38.1048ZM22.3953 39.6232L22.0806 39.616C22.0691 39.616 22.0579 39.6207 22.0497 39.6292C22.0415 39.6377 22.0369 39.6493 22.0369 39.6613L22.0352 39.6921C22.027 40.0956 22.0235 40.4953 22.0247 40.8681C22.0259 41.2409 22.0319 41.5796 22.0423 41.8646C22.0527 42.1496 22.0673 42.3754 22.0853 42.529C22.1033 42.6826 22.1243 42.761 22.1471 42.7597L22.203 42.7615C22.2488 42.7592 22.2992 42.4359 22.3431 41.8624C22.387 41.2888 22.4208 40.5117 22.4372 39.7011L22.439 39.6703C22.4392 39.6642 22.4383 39.6581 22.4362 39.6524C22.4341 39.6467 22.4309 39.6415 22.4268 39.6371C22.4227 39.6327 22.4178 39.6292 22.4124 39.6268C22.407 39.6244 22.4012 39.6232 22.3953 39.6232Z" fill="#F0F0F0"/>
<path d="M33.5436 7.02482L31.5648 8.1292C31.4751 8.17927 31.4432 8.2966 31.4937 8.39128L31.4987 8.40071C31.5491 8.49539 31.6627 8.53156 31.7524 8.4815L33.7313 7.37711C33.821 7.32705 33.8528 7.20972 33.8024 7.11504L33.7974 7.1056C33.7469 7.01093 33.6333 6.97476 33.5436 7.02482Z" fill="black"/>
<path d="M96.825 24.9766C99.1863 22.8849 101.159 21.1885 102.871 19.1093C102.904 19.0681 102.976 19.0502 103.013 19.0699C103.054 19.0926 103.063 19.1248 103.039 19.1665C101.722 21.4337 99.5839 23.6221 97.6656 25.3649C97.6191 25.4067 97.565 25.4264 97.5034 25.424C97.2395 25.4133 97.0122 25.3166 96.8215 25.1341C96.7657 25.0804 96.7669 25.0279 96.825 24.9766ZM118.896 28.4534C119.517 25.8785 120.225 23.4217 121.172 21.0418C121.238 20.8748 121.394 20.6153 121.638 20.2634C121.678 20.2038 121.691 20.2097 121.676 20.2813C121.17 22.7316 120.444 25.1097 119.498 27.4156C119.346 27.7878 119.163 28.1421 118.95 28.4785C118.886 28.5799 118.868 28.5715 118.896 28.4534ZM86.0109 21.1134C86.0132 21.112 86.0159 21.1116 86.0185 21.1123C86.0211 21.113 86.0234 21.1146 86.0248 21.117L86.0283 21.1241C86.0458 21.162 86.0544 21.2037 86.0537 21.2469C86.053 21.2901 86.043 21.3339 86.0242 21.3758C86.0054 21.4177 85.9782 21.4569 85.9442 21.491C85.9102 21.5252 85.87 21.5538 85.826 21.575L85.7667 21.6037C85.7228 21.6251 85.6759 21.6388 85.6287 21.6441C85.5814 21.6494 85.5347 21.6461 85.4913 21.6345C85.4479 21.6228 85.4086 21.6031 85.3757 21.5763C85.3427 21.5495 85.3168 21.5162 85.2993 21.4784L85.2976 21.473C85.2963 21.4707 85.2959 21.4678 85.2966 21.4652C85.2972 21.4625 85.2988 21.4602 85.3011 21.4587L86.0109 21.1134ZM35.4314 23.4199C35.4157 23.0441 35.3076 22.3087 35.3303 21.7522C35.3384 21.5387 35.3646 21.5363 35.4087 21.745L36.551 27.1042C36.5708 27.2008 36.5371 27.27 36.4499 27.3118L35.829 27.607C35.7325 27.6536 35.6802 27.6225 35.6721 27.514C35.5721 26.1135 35.4919 24.7488 35.4314 23.4199Z" fill="black"/>
<path d="M51.0648 25.8552C52.5895 27.8295 53.9927 29.7706 55.2744 31.6786C55.6971 32.309 56.0252 33.0342 56.2584 33.8543C56.2636 33.8727 56.2631 33.8923 56.2571 33.9104C56.251 33.9284 56.2397 33.9439 56.2249 33.9546C56.21 33.9653 56.1923 33.9706 56.1744 33.9697C56.1565 33.9689 56.1393 33.9619 56.1254 33.9499C55.7245 33.6009 51.0156 25.9566 51.0283 25.8669C51.0332 25.8331 51.0454 25.8292 51.0648 25.8552Z" fill="black"/>
<path d="M41.7605 37.3633C41.7758 37.7372 41.8187 38.039 41.8564 38.0374C41.8941 38.0358 41.9122 37.7314 41.8969 37.3574C41.8816 36.9835 41.8386 36.6817 41.801 36.6833C41.7633 36.685 41.7452 36.9894 41.7605 37.3633Z" fill="#F0F0F0"/>
<path d="M71.9991 39.3064C73.7557 39.0123 75.3852 38.6462 77.0306 38.0462C77.0976 38.0217 77.1364 38.0398 77.147 38.1006L77.1946 38.3918C77.204 38.4477 77.1787 38.4883 77.1188 38.5138C75.5092 39.1863 73.8044 39.4721 72.0044 39.3711C71.9941 39.3717 71.984 39.3689 71.9762 39.3632C71.9684 39.3576 71.9637 39.3496 71.963 39.341C71.9623 39.3324 71.9657 39.3239 71.9725 39.3175C71.9793 39.311 71.9888 39.307 71.9991 39.3064Z" fill="black"/>
<path d="M22.6144 39.3971C22.6203 39.3971 22.6261 39.3982 22.6316 39.4002C22.637 39.4023 22.6419 39.4053 22.646 39.4091C22.6501 39.4129 22.6532 39.4174 22.6553 39.4223C22.6574 39.4272 22.6584 39.4325 22.6582 39.4377L22.6564 39.4643C22.64 40.1628 22.6061 40.8324 22.5622 41.3266C22.5182 41.8208 22.4678 42.0994 22.4219 42.1014L22.3659 42.0998C22.3431 42.101 22.322 42.0334 22.304 41.901C22.286 41.7687 22.2714 41.5741 22.261 41.3285C22.2506 41.0829 22.2446 40.7911 22.2434 40.4698C22.2422 40.1486 22.2457 39.8042 22.2539 39.4564L22.2557 39.4299C22.2557 39.4196 22.2603 39.4096 22.2685 39.4023C22.2767 39.395 22.2878 39.3909 22.2994 39.3909L22.6144 39.3971Z" fill="black"/>
<path d="M27.0594 69.4745C27.0747 69.4667 27.0866 69.4535 27.0931 69.4373C27.0995 69.4211 27.1 69.4031 27.0944 69.3865C27.0889 69.37 27.0776 69.3561 27.0628 69.3475C27.048 69.3389 27.0307 69.3361 27.0141 69.3398C25.1742 69.7815 23.4883 70.5417 21.9564 71.6203C21.5467 71.9094 20.8093 72.466 20.2601 72.4283C19.1652 72.3529 18.8514 71.3366 19.7667 70.6632C20.12 70.4034 20.4821 70.1323 20.8528 69.8497C20.8689 69.8375 20.8816 69.8211 20.8896 69.8022C20.8976 69.7833 20.9007 69.7626 20.8986 69.7421C20.8965 69.7217 20.8892 69.7021 20.8775 69.6854C20.8658 69.6687 20.8501 69.6554 20.8319 69.6468C20.7634 69.6157 20.6704 69.6109 20.553 69.6325C19.1257 69.8851 17.7897 70.3968 16.5449 71.1678C16.4786 71.2085 16.3397 71.2348 16.1282 71.2468C16.0736 71.2492 16.0236 71.2342 15.9783 71.2019C14.7997 70.3525 17.7286 68.4922 18.2691 68.0882C18.3284 68.0439 18.3266 68.0032 18.2639 67.9661C16.7593 67.079 18.6579 64.9116 19.561 64.4322C22.6015 62.8197 25.8042 61.3257 29.0138 60.1333C33.979 58.2892 38.9792 57.7254 44.1327 59.2211C49.5251 60.7834 51.7322 66.9246 49.9801 72.0728C49.0979 74.6675 46.8367 77.4347 44.9608 79.4853C44.9494 79.4978 44.9412 79.513 44.937 79.5295C44.9328 79.5461 44.9327 79.5635 44.9367 79.5801C44.9407 79.5967 44.9486 79.612 44.9599 79.6246C44.9711 79.6373 44.9852 79.6468 45.0009 79.6523C45.7279 79.8983 46.5491 80.1318 47.168 80.5304C51.8979 83.5777 50.5485 90.3528 47.0948 93.7358C45.2816 95.5099 43.0576 96.9908 40.4227 98.1783C39.7625 98.4764 38.2248 98.987 35.8096 99.71C35.0896 99.9255 34.6206 100.527 33.9372 100.678C33.1474 100.85 32.3768 100.859 31.6167 101.175C30.48 101.648 29.5281 101.872 28.3077 101.642C28.2368 101.629 28.1932 101.587 28.1769 101.515L28.0723 101.073C28.0596 101.017 28.0258 100.995 27.9712 101.008L27.4953 101.123C27.4383 101.138 27.3814 101.141 27.3244 101.134C26.8118 101.066 24.5681 100.204 25.3108 99.2952C25.5862 98.9576 26.5207 98.9235 26.9949 98.7439C27.7248 98.4674 28.4611 98.2124 29.2038 97.979C29.2956 97.9491 29.2951 97.9209 29.2021 97.8946C28.1403 97.5821 25.846 99.1893 25.4258 97.4582C25.4084 97.3876 25.3648 97.3565 25.2951 97.3649L24.4739 97.4618C24.4042 97.4702 24.3391 97.4576 24.2787 97.4241C23.7522 97.138 23.5691 96.6729 23.7295 96.0289C23.7423 95.9774 23.769 95.9355 23.8097 95.9032C24.5384 95.3322 25.7257 95.1005 26.777 94.8491C26.8351 94.836 26.8601 94.7988 26.8519 94.7378C25.9628 87.5922 25.1777 80.4346 24.4966 73.2651C24.4896 73.1909 24.4542 73.1717 24.3902 73.2077C22.9415 74.0121 21.8379 75.0015 20.2287 75.7342C20.1799 75.7569 20.134 75.7509 20.091 75.7162C19.6412 75.3511 19.4482 74.8675 19.5122 74.2653C19.5191 74.2055 19.5435 74.1546 19.5854 74.1127C21.6914 72.0153 24.4443 70.726 27.0594 69.4745ZM33.5362 60.9791C31.6341 61.4729 29.5699 62.1661 27.8893 63.2237C27.8711 63.2356 27.8576 63.2538 27.8511 63.275C27.8445 63.2963 27.8454 63.3191 27.8536 63.3395C27.8619 63.3599 27.8768 63.3764 27.8958 63.3861C27.9148 63.3959 27.9366 63.3981 27.9573 63.3925C30.3911 62.7664 32.7604 61.944 35.0652 60.9252C35.0836 60.9182 35.0989 60.9046 35.1084 60.8869C35.1179 60.8693 35.121 60.8486 35.1169 60.8288C35.1129 60.8091 35.1022 60.7914 35.0866 60.7791C35.071 60.7668 35.0517 60.7607 35.0321 60.7618C34.5741 60.7654 34.0755 60.8379 33.5362 60.9791ZM45.1927 63.4751C46.5403 64.9763 47.2865 67.3286 47.9142 69.329C47.9189 69.344 47.9286 69.3568 47.9416 69.3653C47.9545 69.3738 47.9699 69.3774 47.9851 69.3755C48.0003 69.3736 48.0144 69.3663 48.025 69.3549C48.0356 69.3434 48.042 69.3286 48.0432 69.3128C48.1914 66.3338 47.0651 63.1214 43.9217 62.3007C43.8357 62.278 43.8282 62.2947 43.8991 62.351C44.5825 62.8993 45.0137 63.274 45.1927 63.4751ZM33.7419 79.7978C35.7608 78.4061 42.1748 73.8523 38.7717 70.7979C37.1521 69.3452 35.0512 69.5391 33.069 70.0078C32.8853 70.0521 32.8121 70.1694 32.8493 70.3597C33.2677 72.4768 33.2433 74.7735 33.2956 76.9642C33.3049 77.3928 33.4287 78.3259 33.667 79.7637C33.6751 79.8151 33.7001 79.8265 33.7419 79.7978ZM27.4116 77.7435C27.6574 77.5819 27.2791 72.8521 27.2355 72.2883C27.2285 72.1937 27.1809 72.159 27.0925 72.1841L26.5887 72.3296C26.512 72.3523 26.4742 72.405 26.4754 72.4876C26.505 74.1235 27.0019 76.0466 27.2843 77.6861C27.2867 77.7 27.2925 77.7131 27.301 77.7242C27.3095 77.7353 27.3205 77.7441 27.3331 77.7497C27.3457 77.7554 27.3594 77.7578 27.3731 77.7567C27.3868 77.7557 27.4 77.7511 27.4116 77.7435ZM41.8384 85.2387C43.0378 85.7666 43.6986 86.9841 43.7021 88.3596C43.7021 88.4805 43.7282 88.4865 43.7805 88.3775C44.5703 86.7022 43.7927 85.0591 41.8785 85.0411C41.5472 85.0388 41.5338 85.1046 41.8384 85.2387ZM40.1315 90.1103C40.754 89.595 41.9831 87.8029 40.862 87.178C39.4208 86.3759 37.807 86.2257 36.0206 86.7273C35.5068 86.8709 34.7421 87.2642 33.7262 87.907C33.6693 87.9418 33.642 87.9932 33.6443 88.0615L33.796 92.8308C33.7983 92.9074 33.8367 92.9397 33.911 92.9278C36.2368 92.5519 38.3103 91.6127 40.1315 90.1103ZM40.9161 93.075C39.014 93.9836 37.6053 94.718 35.2064 95.7577C34.924 95.8798 34.6625 96.1636 34.5544 96.4293C34.5453 96.452 34.5428 96.477 34.5472 96.5011C34.5516 96.5252 34.5626 96.5475 34.579 96.5653C34.5954 96.5832 34.6164 96.5957 34.6396 96.6015C34.6627 96.6074 34.687 96.6062 34.7095 96.5981C36.8051 95.8236 38.7473 94.7893 40.536 93.4952C40.6883 93.3851 40.8266 93.2605 40.951 93.1217C41.0172 93.0475 41.0056 93.0319 40.9161 93.075ZM114.758 66.2386C117.004 64.8691 119.404 63.9007 121.957 63.3332C122.023 63.3189 122.061 63.3464 122.069 63.4158C122.083 63.5284 122.042 63.614 121.947 63.6726C121.841 63.7385 121.848 63.7875 121.968 63.8199C122.188 63.8797 122.279 64.036 122.239 64.2885C122.229 64.3556 122.195 64.4047 122.137 64.4358L118.817 66.2135C118.793 66.2264 118.775 66.2471 118.764 66.2723C118.753 66.2976 118.75 66.3258 118.757 66.3527C118.763 66.3795 118.778 66.4033 118.799 66.4204C118.82 66.4375 118.846 66.4468 118.873 66.4469L120.064 66.4487C120.145 66.4499 120.199 66.49 120.224 66.5691L120.306 66.824C120.322 66.8743 120.356 66.8959 120.407 66.8887C121.234 66.7809 122.302 66.271 122.907 67.0341C122.938 67.0733 122.962 67.1185 122.976 67.167C122.99 67.2156 122.994 67.2665 122.989 67.3168C122.983 67.3672 122.968 67.4159 122.944 67.4601C122.921 67.5044 122.888 67.5433 122.85 67.5746C122.233 68.0738 121.562 68.479 120.84 68.7903C120.772 68.819 120.76 68.8639 120.803 68.925C121.235 69.5337 121.839 69.9736 121.544 70.8643C121.525 70.9194 121.49 70.9589 121.438 70.9828C118.713 72.1823 115.159 73.996 116.213 77.652C116.866 79.9181 118.287 80.8303 119.907 82.1357C120.906 82.9402 121.561 83.9763 121.802 85.28C122.776 90.5646 116.286 94.9174 112.163 96.0702C111.726 96.1935 111.365 96.0439 111.08 95.6213C111.051 95.5782 111.011 95.5524 110.961 95.5441L110.264 95.4273C110.202 95.4166 110.154 95.3842 110.118 95.3304C109.909 95.0107 109.854 94.666 109.952 94.2961C109.972 94.223 109.946 94.1961 109.875 94.2153C109.054 94.4343 107.628 94.7468 107.065 93.9818C107.03 93.9339 107.014 93.8795 107.018 93.8184C107.063 93.1588 107.402 92.7626 108.034 92.6297C108.118 92.6129 108.129 92.5734 108.069 92.5112L108.011 92.4519C107.979 92.4184 107.941 92.407 107.896 92.4178C106.992 92.6512 106.313 92.3753 105.86 91.59C105.849 91.5709 105.843 91.5495 105.841 91.5274C105.839 91.5053 105.842 91.4831 105.85 91.4625C105.858 91.4419 105.871 91.4234 105.886 91.4084C105.902 91.3935 105.921 91.3825 105.942 91.3763C109.483 90.3348 113.42 89.0635 113.353 84.3552C113.352 84.2953 113.333 84.2421 113.296 84.1954C112.887 83.6794 112.496 83.3305 112.124 83.1485C110.475 82.3405 108.931 81.3588 107.492 80.2036C107.442 80.1641 107.411 80.1761 107.398 80.2395C107.157 81.439 106.741 82.5392 106.148 83.54C101.943 90.6239 96.4474 94.718 88.7764 97.3361C88.1749 97.5426 85.7114 98.0311 85.6469 97.0883C85.6173 96.6538 86.9632 95.9427 87.2822 95.6985C87.4043 95.6063 87.3898 95.5626 87.2387 95.5674C86.7156 95.5865 86.3298 95.3687 86.081 94.9138C86.0543 94.8635 86.0142 94.8437 85.9607 94.8545L84.4074 95.167C84.333 95.1813 84.2702 95.1604 84.2191 95.1041C83.9273 94.7917 83.7263 94.4265 83.6158 94.0087C83.5949 93.9261 83.6228 93.8687 83.6995 93.8364L87.1654 92.3855C87.277 92.3388 87.3235 92.2544 87.3049 92.1323L84.9931 76.4201C84.9911 76.4069 84.9862 76.3943 84.9786 76.3833C84.9711 76.3724 84.9611 76.3635 84.9496 76.3572C84.9381 76.3509 84.9253 76.3475 84.9123 76.3472C84.8993 76.3469 84.8864 76.3497 84.8746 76.3555C84.3742 76.6015 82.6012 77.5424 82.2124 76.9319C81.8312 76.3321 81.7882 75.709 82.0834 75.0626C82.1229 74.9752 82.0985 74.9465 82.0102 74.9764C81.5325 75.1356 81.1489 75.0231 80.8595 74.6388C80.844 74.6182 80.8239 74.6016 80.8009 74.5905C80.7779 74.5794 80.7527 74.5741 80.7274 74.575C80.702 74.5758 80.6772 74.5829 80.6551 74.5956C80.6329 74.6082 80.6139 74.6261 80.5997 74.6478C78.8703 77.2575 76.7857 79.5224 74.3461 81.4426C74.335 81.4513 74.3261 81.4625 74.32 81.4753C74.3139 81.4882 74.3108 81.5024 74.3109 81.5167C74.3111 81.531 74.3145 81.5451 74.3209 81.5578C74.3274 81.5705 74.3366 81.5815 74.3478 81.5899C76.061 82.8301 77.8509 83.9643 79.7176 84.9927C80.924 85.6571 83.248 86.2245 83.6385 87.7598C83.6995 88.0004 83.8216 88.1189 83.9366 88.3236C83.9715 88.3859 83.9541 88.414 83.8843 88.408L83.2567 88.3506C83.2269 88.3483 83.1973 88.3562 83.1723 88.3731C83.1473 88.3899 83.1284 88.4147 83.1185 88.4437C83.1086 88.4728 83.1082 88.5043 83.1174 88.5336C83.1266 88.5628 83.145 88.5881 83.1695 88.6056C83.7884 89.0293 84.4823 89.3813 84.9984 89.929C85.0437 89.9769 85.0547 90.0319 85.0315 90.0942C84.7822 90.7568 84.2104 89.938 83.9105 90.4569C83.8791 90.512 83.8332 90.5305 83.7728 90.5126C82.4809 90.1193 81.3616 89.4226 80.2476 88.7618C80.2333 88.752 80.216 88.748 80.199 88.7506C80.182 88.7531 80.1665 88.762 80.1555 88.7756C80.1445 88.7891 80.1387 88.8064 80.1393 88.8241C80.1399 88.8417 80.1468 88.8586 80.1587 88.8713C80.5265 89.3292 81.3825 90.0242 81.5272 90.5162C81.5322 90.5337 81.5325 90.5523 81.5279 90.57C81.5234 90.5877 81.5143 90.6038 81.5016 90.6165C81.4888 90.6292 81.473 90.6382 81.4557 90.6423C81.4384 90.6465 81.4203 90.6457 81.4035 90.6401L78.4571 89.6165C78.2688 89.5507 78.2566 89.5758 78.4205 89.6919C79.531 90.4749 80.7671 90.8412 81.3442 92.2274C81.3732 92.2981 81.3506 92.3352 81.2762 92.3388L80.272 92.3873C80.208 92.3909 80.1563 92.3663 80.1168 92.3136L79.8326 91.9365C79.7931 91.8851 79.7426 91.8486 79.681 91.827C78.3926 91.3781 77.0868 90.9615 75.8576 90.3833C73.4343 89.2412 71.0877 87.8765 68.6469 86.7937C68.5806 86.7638 68.5434 86.7859 68.5353 86.8602C68.3906 88.1531 68.7759 89.428 68.7619 90.7424C68.7619 90.7927 68.7416 90.8322 68.7009 90.8609L68.143 91.2506C68.093 91.2865 68.0384 91.2979 67.9791 91.2847L67.5764 91.1913C67.5113 91.177 67.4573 91.1955 67.4143 91.247C67.0778 91.651 67.2731 92.9583 67.3341 93.4826C67.3418 93.5488 67.3306 93.6158 67.3018 93.6755C67.273 93.7352 67.2279 93.7849 67.1719 93.8184C66.7535 94.0722 66.302 94.1578 65.8173 94.0752C65.7603 94.0656 65.722 94.0327 65.7022 93.9764C65.0781 92.1969 65.1583 90.2809 64.8305 88.4583C64.7875 88.2177 64.7091 87.9938 64.5952 87.7867C64.5231 87.6551 64.4848 87.6646 64.4801 87.8155L64.2796 93.6065C64.2773 93.6652 64.2587 93.7178 64.2238 93.7645C63.8472 94.2601 63.3312 93.8346 63.2527 93.3875C62.8425 91.077 62.5664 88.7516 62.4246 86.4112C62.1404 81.7263 61.5006 77.23 61.4779 73.1915C61.4779 73.1257 61.4524 73.1125 61.4012 73.152C60.8852 73.5542 59.7711 74.4018 59.2342 73.5129C58.9947 73.1179 59.0587 72.739 59.4259 72.3763C59.4748 72.3284 59.4707 72.2853 59.4137 72.247C58.9221 71.913 58.223 71.2701 58.7338 70.6973C58.7803 70.6446 58.7855 70.5884 58.7495 70.5285C58.6879 70.4244 58.6025 70.3651 58.4932 70.3507C58.413 70.3412 58.3712 70.3783 58.3677 70.4621C58.2334 74.0319 57.8168 77.5568 57.6302 81.1158C57.4396 84.7419 57.1461 88.359 56.7498 91.9671C56.6574 92.8218 56.6452 93.3102 55.9618 93.7125C54.8198 94.384 55.0866 92.0497 55.1058 91.7193C55.1081 91.6786 55.0895 91.66 55.05 91.6636L54.0754 91.73C54.0243 91.7336 53.9739 91.7167 53.9346 91.683C53.8953 91.6492 53.8702 91.6011 53.8644 91.5487C53.7029 90.1062 53.6471 88.6588 53.6971 87.2067C53.704 87.0116 53.6785 87.0068 53.6204 87.1924C53.1985 88.5337 53.1897 90.0565 53.0102 91.432C53.0041 91.4765 52.9886 91.5192 52.9649 91.557C52.9412 91.5948 52.9098 91.6268 52.8729 91.6508C52.8361 91.6747 52.7946 91.69 52.7514 91.6957C52.7083 91.7013 52.6645 91.6971 52.6231 91.6834C52.0687 91.4966 51.9885 91.0064 52.0199 90.4425C52.1524 88.031 52.0809 85.5547 52.0513 83.1377C51.9653 76.2723 51.8584 69.4074 51.7305 62.5431C51.7293 62.4857 51.7439 62.433 51.7741 62.3851C52.2152 61.6776 52.862 62.0942 53.3711 62.536C53.4222 62.5803 53.4454 62.5677 53.4408 62.4983C53.4106 62.0003 53.4286 61.3981 53.4948 60.6918C53.5593 59.9969 54.309 60.2249 54.7518 60.2626C54.8111 60.2674 54.8617 60.2483 54.9035 60.2052C55.5224 59.5623 56.3785 59.1583 57.2031 59.6557C57.2334 59.6734 57.2584 59.6995 57.275 59.7309C57.2916 59.7624 57.2993 59.7979 57.2972 59.8335L57.102 63.6942C57.1008 63.7155 57.1068 63.7365 57.1189 63.7539C57.1309 63.7712 57.1484 63.7837 57.1684 63.7894C57.1884 63.7951 57.2096 63.7935 57.2286 63.785C57.2476 63.7765 57.2632 63.7616 57.2728 63.7427C57.5587 63.2057 57.5744 62.2648 57.7174 61.4083C57.8795 60.4404 58.8628 60.7349 59.3423 61.1659C59.3853 61.2042 59.4033 61.2527 59.3963 61.3113L58.9692 64.5669C58.9599 64.6387 58.986 64.6567 59.0476 64.6207C63.5631 62.044 69.3076 59.6916 74.5047 60.3614C78.4222 60.8678 83.8495 63.8019 82.9255 68.8388C82.9227 68.8527 82.9239 68.8672 82.929 68.8804C82.934 68.8937 82.9427 68.9052 82.954 68.9136C82.9653 68.9221 82.9788 68.9271 82.9928 68.9282C83.0069 68.9292 83.021 68.9262 83.0335 68.9196C86.1147 67.246 89.3912 66.3009 92.8629 66.0842C93.6754 66.0339 95.1718 66.0962 97.3522 66.271C99.1723 66.417 100.812 66.7953 102.27 67.4058C103.761 68.0307 104.648 68.9286 105.586 70.2017C105.624 70.2532 105.658 70.2508 105.691 70.1945C107.957 66.323 112.445 63.265 116.338 61.191C116.896 60.8929 118.631 60.4853 118.435 61.7082C118.424 61.78 118.453 61.8075 118.523 61.7908C119.401 61.5825 120.88 60.9971 122.182 60.9217C122.241 60.9181 122.289 60.9408 122.325 60.9899C123.017 61.947 119.846 63.2506 119.019 63.5828C117.612 64.1503 116.185 65.026 114.739 66.2099C114.61 66.3165 114.617 66.326 114.758 66.2386ZM62.0812 66.4434L67.7298 63.9743C67.7308 63.9739 67.7318 63.9733 67.7325 63.9726C67.7332 63.9718 67.7338 63.9708 67.7341 63.9698C67.7345 63.9688 67.7346 63.9676 67.7344 63.9666C67.7343 63.9655 67.7339 63.9644 67.7333 63.9635C67.708 63.901 67.6103 63.8709 67.4459 63.8748C67.2815 63.8787 67.0535 63.9166 66.775 63.9863C66.4965 64.056 66.173 64.1562 65.8229 64.281C65.4728 64.4059 65.103 64.5531 64.7346 64.7141L64.6789 64.7375C64.3105 64.8985 63.9508 65.0702 63.6204 65.2429C63.2899 65.4155 62.9952 65.5856 62.753 65.7436C62.5107 65.9015 62.3258 66.0441 62.2088 66.1632C62.0917 66.2824 62.0448 66.3757 62.0707 66.438L62.0724 66.4398C62.0732 66.4414 62.0745 66.4426 62.0761 66.4433C62.0777 66.444 62.0795 66.444 62.0812 66.4434ZM72.2296 66.6822C73.3977 66.7881 74.1404 67.2245 75.1167 67.8099C75.1702 67.841 75.1975 67.8248 75.1986 67.7614C75.2422 66.1022 73.2251 66.0519 72.2052 66.5331C72.1899 66.5406 72.1774 66.553 72.1695 66.5685C72.1617 66.584 72.1589 66.6016 72.1617 66.6187C72.1645 66.6357 72.1727 66.6512 72.185 66.6627C72.1972 66.6742 72.2129 66.681 72.2296 66.6822ZM100.836 69.5481C100.839 69.5496 100.842 69.5499 100.845 69.549C100.848 69.5482 100.851 69.5461 100.853 69.5433C100.855 69.5405 100.856 69.5371 100.856 69.5337C100.855 69.5303 100.854 69.5271 100.851 69.5247C99.9255 68.336 96.6688 67.7991 95.4101 68.5371C95.3206 68.591 95.3275 68.6197 95.431 68.6233C97.2697 68.7071 99.0712 69.0154 100.836 69.5481ZM69.1071 68.9106L68.5719 76.8942C68.5673 76.9684 68.5969 76.9876 68.6608 76.9516C71.2725 75.4846 73.5389 73.2184 73.9904 70.0598C73.9997 69.9976 73.9864 69.9413 73.9503 69.8911C72.9095 68.4366 70.725 68.3198 69.2048 68.7849C69.1443 68.8041 69.1118 68.846 69.1071 68.9106ZM107.175 72.3385C106.931 72.7611 106.931 73.1975 107.176 73.6476C107.185 73.6635 107.198 73.6767 107.213 73.6855C107.228 73.6944 107.246 73.6985 107.264 73.6976C107.281 73.6967 107.298 73.6906 107.313 73.6802C107.327 73.6698 107.339 73.6554 107.345 73.6386C107.82 72.4858 108.592 71.1732 108.796 69.9521C108.815 69.8396 108.787 69.8264 108.714 69.9126C108.081 70.6686 107.661 71.4928 107.175 72.3385ZM82.0415 71.9471C82.0383 71.9582 82.0382 71.9701 82.0413 71.9813C82.0443 71.9924 82.0505 72.0025 82.0589 72.0102C82.0673 72.0179 82.0777 72.023 82.0888 72.0249C82.1 72.0268 82.1114 72.0253 82.1217 72.0207L83.2602 71.5107C83.2707 71.5061 83.2796 71.4984 83.286 71.4886C83.2923 71.4789 83.2958 71.4674 83.296 71.4557C83.2962 71.4439 83.2931 71.4323 83.287 71.4224C83.281 71.4124 83.2723 71.4044 83.2619 71.3994L82.4042 70.972C82.3965 70.9683 82.3881 70.9663 82.3795 70.9663C82.371 70.9662 82.3626 70.968 82.3548 70.9716C82.347 70.9752 82.3401 70.9804 82.3345 70.987C82.3289 70.9936 82.3247 71.0014 82.3222 71.0098L82.0415 71.9471ZM63.9048 71.4928L63.2318 71.5341C63.2254 71.5345 63.2191 71.5363 63.2134 71.5393C63.2076 71.5422 63.2025 71.5463 63.1983 71.5513C63.1941 71.5563 63.1909 71.5621 63.1888 71.5684C63.1868 71.5747 63.186 71.5814 63.1865 71.588L63.1882 71.6113C63.2398 72.4802 63.3007 73.3401 63.3672 74.1417C63.4338 74.9432 63.5048 75.6709 63.5762 76.283C63.6476 76.8952 63.718 77.3798 63.7833 77.7093C63.8487 78.0388 63.9077 78.2066 63.9571 78.2032L63.9745 78.2014C64.074 78.1928 64.128 77.4889 64.1247 76.2442C64.1215 74.9995 64.0612 73.3158 63.9571 71.5628L63.9553 71.5395C63.9544 71.5265 63.9487 71.5143 63.9392 71.5056C63.9298 71.4969 63.9174 71.4923 63.9048 71.4928ZM87.875 71.9668C86.5558 71.9764 85.4121 72.4427 84.444 73.3657C84.4338 73.3757 84.427 73.3888 84.4246 73.4031C84.4221 73.4174 84.4242 73.4321 84.4304 73.4451C84.4366 73.4581 84.4467 73.4687 84.4591 73.4754C84.4716 73.4821 84.4858 73.4846 84.4998 73.4824C85.9363 73.249 87.5176 72.7857 88.7973 72.0638C88.9065 72.0028 88.9001 71.9609 88.7781 71.9381C88.4817 71.886 88.0772 71.9651 87.875 71.9668ZM92.8507 89.4172C95.0056 87.8622 96.8658 85.7648 98.1455 83.4268C99.4007 81.1284 100.462 77.2838 97.673 75.5869C96.0848 74.6209 93.0076 75.4397 91.4455 76.2172C91.3909 76.2447 91.3659 76.2902 91.3706 76.3537C91.4176 77.0235 91.4194 77.7202 91.4909 78.363C91.8884 82.0208 92.1586 85.7522 92.7583 89.3777C92.7688 89.4412 92.7996 89.4543 92.8507 89.4172ZM115.571 84.5527C115.616 85.587 115.703 86.4831 115.208 87.4294C115.203 87.4404 115.201 87.4531 115.203 87.4653C115.205 87.4776 115.211 87.4887 115.22 87.497C115.229 87.5053 115.241 87.5102 115.253 87.5109C115.265 87.5117 115.277 87.5083 115.287 87.5012C116.24 86.7901 117.403 85.2566 115.649 84.4953C115.594 84.4713 115.567 84.4905 115.571 84.5527ZM100.848 86.343C99.8871 87.6 98.4767 89.103 97.3261 89.8518C97.082 90.011 96.96 90.2139 96.96 90.4605C96.9588 90.5575 97.0006 90.5838 97.0855 90.5395C99.0462 89.5184 100.492 87.9831 101.421 85.9336C101.428 85.9177 101.429 85.8999 101.425 85.8832C101.42 85.8664 101.411 85.8517 101.397 85.8413C101.384 85.831 101.367 85.8256 101.35 85.826C101.334 85.8265 101.317 85.8328 101.305 85.8438C101.14 85.9947 100.987 86.1611 100.848 86.343ZM89.0884 91.2757L89.3709 91.2147C89.4016 91.2082 89.4286 91.1894 89.4459 91.1625C89.4632 91.1356 89.4694 91.1027 89.4633 91.071L89.458 91.0441C89.1999 89.7372 88.9252 88.4891 88.6941 87.5736C88.4631 86.658 88.2945 86.1497 88.2254 86.1599C88.1911 86.1649 88.1824 86.298 88.1998 86.5518C88.2172 86.8056 88.2605 87.175 88.327 87.6387C88.3936 88.1025 88.4822 88.6515 88.5877 89.2544C88.6932 89.8572 88.8136 90.5021 88.942 91.1518L88.949 91.1788C88.9519 91.1946 88.9578 91.2097 88.9664 91.2231C88.975 91.2366 88.9861 91.2481 88.9991 91.2572C89.0121 91.2662 89.0266 91.2724 89.042 91.2756C89.0573 91.2788 89.0731 91.2789 89.0884 91.2757Z" fill="#F0F0F0"/>
<path d="M27.5192 63.527C29.2033 62.4737 31.2718 61.7834 33.1777 61.2916C33.7181 61.1509 34.2178 61.0788 34.6767 61.0752C34.6963 61.0741 34.7157 61.0802 34.7313 61.0924C34.7469 61.1047 34.7577 61.1222 34.7617 61.142C34.7657 61.1617 34.7627 61.1822 34.7532 61.1998C34.7437 61.2174 34.7283 61.231 34.7099 61.2379C32.4003 62.2525 30.0261 63.0716 27.5873 63.6951C27.5666 63.7007 27.5448 63.6985 27.5257 63.6888C27.5067 63.6791 27.4917 63.6626 27.4835 63.6423C27.4753 63.6221 27.4743 63.5993 27.4809 63.5781C27.4874 63.557 27.501 63.5389 27.5192 63.527ZM44.8582 63.7774C44.6788 63.5771 44.2467 63.2039 43.5619 62.6579C43.4909 62.6019 43.4985 62.5852 43.5846 62.6078C46.7345 63.4251 47.863 66.6244 47.7146 69.5913C47.7134 69.607 47.707 69.6217 47.6964 69.6331C47.6858 69.6445 47.6716 69.6517 47.6564 69.6536C47.6411 69.6555 47.6257 69.652 47.6127 69.6435C47.5998 69.6351 47.5901 69.6223 47.5853 69.6074C46.9564 67.6152 46.2086 65.2724 44.8582 63.7774ZM61.7814 66.7335C61.7798 66.7341 61.778 66.7341 61.7764 66.7335C61.7748 66.7328 61.7735 66.7315 61.7727 66.7299L61.7709 66.7281C61.745 66.6662 61.792 66.5732 61.9093 66.4545C62.0266 66.3359 62.2119 66.1939 62.4546 66.0366C62.6973 65.8793 62.9927 65.7099 63.3238 65.5379C63.6549 65.366 64.0154 65.195 64.3845 65.0346L64.4404 65.0113C64.8095 64.851 65.18 64.7044 65.5309 64.58C65.8817 64.4557 66.2059 64.3559 66.4849 64.2865C66.764 64.2171 66.9924 64.1793 67.1572 64.1754C67.322 64.1716 67.4198 64.2016 67.4452 64.2638C67.4458 64.2647 67.4462 64.2658 67.4463 64.2668C67.4465 64.2679 67.4464 64.269 67.446 64.2701C67.4457 64.2711 67.4451 64.272 67.4444 64.2728C67.4436 64.2736 67.4427 64.2742 67.4417 64.2745L61.7814 66.7335ZM74.8438 68.0944C73.8655 67.5114 73.1212 67.0769 71.9507 66.9714C71.9341 66.9702 71.9183 66.9634 71.906 66.952C71.8937 66.9405 71.8855 66.9251 71.8827 66.9081C71.8799 66.8912 71.8827 66.8736 71.8906 66.8582C71.8984 66.8428 71.911 66.8304 71.9263 66.8229C72.9483 66.3437 74.9696 66.3937 74.9259 68.0462C74.9247 68.1093 74.8974 68.1254 74.8438 68.0944ZM100.616 69.8255C98.8476 69.295 97.0424 68.988 95.1999 68.9046C95.0962 68.901 95.0892 68.8724 95.1789 68.8187C96.4402 68.0837 99.7036 68.6184 100.631 69.8023C100.634 69.8047 100.635 69.8078 100.636 69.8112C100.636 69.8146 100.635 69.818 100.633 69.8208C100.631 69.8236 100.628 69.8256 100.625 69.8265C100.622 69.8274 100.619 69.827 100.616 69.8255ZM68.2855 77.1416L68.8219 69.1907C68.8265 69.1263 68.8591 69.0846 68.9197 69.0655C70.4431 68.6023 72.6321 68.7186 73.675 70.1671C73.7111 70.2172 73.7245 70.2732 73.7152 70.3352C73.2627 73.4809 70.9916 75.7378 68.3746 77.1989C68.3106 77.2346 68.2809 77.2156 68.2855 77.1416ZM70.4081 70.5749C70.3068 71.5656 70.1251 72.6797 70.1845 73.6669C70.1903 73.7599 70.2235 73.7718 70.2841 73.7027C71.0213 72.8657 71.5955 71.9251 72.0066 70.8807C72.0288 70.8246 72.0125 70.7859 71.9577 70.7644C71.4872 70.5868 71.0009 70.4956 70.499 70.4908C70.4442 70.4908 70.414 70.5188 70.4081 70.5749ZM38.424 71.0702C41.8341 74.1122 35.4069 78.6474 33.3839 80.0334C33.342 80.062 33.3169 80.0507 33.3088 79.9994C33.07 78.5675 32.946 77.6382 32.9366 77.2114C32.8842 75.0296 32.9087 72.7423 32.4894 70.6339C32.4521 70.4443 32.5255 70.3275 32.7095 70.2834C34.6959 69.8166 36.801 69.6235 38.424 71.0702ZM34.5264 76.7536C34.5264 76.8525 34.5194 76.9521 34.5055 77.0522C34.4961 77.1166 34.5159 77.1279 34.5649 77.0862C35.4733 76.3011 39.0983 73.5042 37.1714 72.1844C36.2367 71.5424 35.5257 71.5781 34.4216 71.6675C34.3669 71.6723 34.3418 71.7027 34.3465 71.7587C34.4758 73.4195 34.5357 75.0845 34.5264 76.7536ZM106.968 72.6046C107.455 71.7623 107.876 70.9415 108.51 70.1886C108.584 70.1027 108.611 70.1159 108.592 70.2279C108.388 71.444 107.614 72.7513 107.139 73.8994C107.132 73.9161 107.121 73.9304 107.106 73.9408C107.092 73.9512 107.075 73.9572 107.057 73.9581C107.039 73.9591 107.022 73.9549 107.006 73.9461C106.991 73.9373 106.978 73.9242 106.969 73.9083C106.724 73.46 106.723 73.0255 106.968 72.6046Z" fill="black"/>
<path d="M82.4323 71.8166L82.7245 70.6175C82.727 70.6068 82.7314 70.5968 82.7372 70.5884C82.7431 70.58 82.7503 70.5733 82.7584 70.5687C82.7665 70.5641 82.7753 70.5618 82.7841 70.5619C82.793 70.562 82.8017 70.5645 82.8098 70.5693L83.7026 71.116C83.7134 71.1224 83.7225 71.1326 83.7287 71.1454C83.735 71.1581 83.7383 71.1729 83.7381 71.188C83.7379 71.203 83.7343 71.2176 83.7277 71.2301C83.7211 71.2426 83.7117 71.2525 83.7008 71.2584L82.5158 71.9108C82.505 71.9167 82.4931 71.9185 82.4815 71.9161C82.4699 71.9138 82.4591 71.9072 82.4503 71.8974C82.4416 71.8875 82.4352 71.8746 82.432 71.8603C82.4288 71.846 82.4289 71.8309 82.4323 71.8166Z" fill="black"/>
<path d="M63.84 71.9173C63.8527 71.9168 63.8652 71.9214 63.8747 71.9302C63.8842 71.939 63.89 71.9513 63.8909 71.9644L63.8926 71.988C63.9974 73.7581 64.0581 75.4583 64.0614 76.7153C64.0647 77.9722 64.0103 78.683 63.9102 78.6917L63.8926 78.6935C63.8429 78.6969 63.7835 78.5274 63.7177 78.1947C63.652 77.862 63.5811 77.3726 63.5093 76.7545C63.4374 76.1363 63.3659 75.4016 63.2989 74.5921C63.2319 73.7827 63.1707 72.9144 63.1188 72.037L63.117 72.0134C63.1166 72.0067 63.1174 72 63.1194 71.9937C63.1214 71.9873 63.1247 71.9814 63.1289 71.9764C63.1331 71.9713 63.1383 71.9672 63.1441 71.9642C63.1499 71.9612 63.1562 71.9594 63.1627 71.959L63.84 71.9173ZM87.9656 72.396C88.1691 72.3942 88.5762 72.3144 88.8745 72.367C88.9973 72.3899 89.0038 72.4322 88.8938 72.4939C87.6058 73.2228 86.0143 73.6907 84.5684 73.9264C84.5544 73.9286 84.5401 73.9261 84.5275 73.9193C84.515 73.9126 84.5049 73.9018 84.4986 73.8887C84.4923 73.8756 84.4903 73.8607 84.4928 73.8463C84.4952 73.8319 84.5021 73.8187 84.5123 73.8085C85.4867 72.8765 86.6378 72.4057 87.9656 72.396ZM26.9331 72.7206C26.9769 73.2899 27.3577 78.0661 27.1103 78.2293C27.0986 78.237 27.0853 78.2416 27.0715 78.2426C27.0577 78.2437 27.0439 78.2413 27.0313 78.2356C27.0186 78.2298 27.0075 78.221 26.9989 78.2098C26.9904 78.1986 26.9846 78.1853 26.9822 78.1713C26.6979 76.5158 26.1978 74.5737 26.168 72.9218C26.1668 72.8384 26.2048 72.7852 26.2821 72.7623L26.7892 72.6154C26.8781 72.59 26.926 72.6251 26.9331 72.7206Z" fill="black"/>
<path d="M116.395 86.9495C116.895 86.0383 116.807 85.1755 116.761 84.1796C116.758 84.1196 116.784 84.1012 116.84 84.1242C118.612 84.8573 117.437 86.334 116.474 87.0187C116.464 87.0255 116.452 87.0288 116.44 87.028C116.428 87.0273 116.416 87.0225 116.407 87.0146C116.398 87.0066 116.392 86.9959 116.389 86.9841C116.387 86.9723 116.389 86.9601 116.395 86.9495ZM44.1766 87.8452C44.1731 86.5207 43.5058 85.3484 42.2943 84.8401C41.9868 84.711 42.0003 84.6476 42.3348 84.6499C44.2682 84.6671 45.0535 86.2492 44.2559 87.8624C44.203 87.9673 44.1766 87.9616 44.1766 87.8452ZM98.3346 89.282C99.4967 88.561 100.921 87.1138 101.891 85.9034C102.032 85.7282 102.186 85.568 102.353 85.4228C102.366 85.4121 102.382 85.4061 102.399 85.4056C102.416 85.4052 102.433 85.4104 102.446 85.4204C102.46 85.4303 102.47 85.4445 102.474 85.4606C102.479 85.4768 102.477 85.4939 102.471 85.5092C101.532 87.4826 100.072 88.961 98.0916 89.9442C98.0059 89.9869 97.9637 89.9615 97.9648 89.8681C97.9648 89.6307 98.0881 89.4353 98.3346 89.282ZM90.0149 90.6531C89.9994 90.6561 89.9835 90.6561 89.968 90.653C89.9525 90.65 89.9378 90.6439 89.9247 90.6352C89.9116 90.6266 89.9004 90.6154 89.8917 90.6025C89.883 90.5895 89.877 90.575 89.8741 90.5598L89.867 90.5338C89.7374 89.9082 89.6158 89.2873 89.5092 88.7068C89.4026 88.1263 89.3132 87.5976 89.2459 87.1511C89.1787 86.7045 89.135 86.3488 89.1174 86.1045C89.0998 85.8601 89.1086 85.7319 89.1433 85.7271C89.2131 85.7172 89.3834 86.2068 89.6167 87.0883C89.8501 87.9699 90.1275 89.1716 90.3882 90.4301L90.3935 90.456C90.3997 90.4865 90.3934 90.5182 90.3759 90.5441C90.3584 90.57 90.3312 90.5881 90.3002 90.5943L90.0149 90.6531ZM40.5705 89.531C38.7311 90.9776 36.637 91.8819 34.2881 92.2439C34.213 92.2554 34.1742 92.2243 34.1719 92.1505L34.0187 87.5581C34.0163 87.4924 34.0439 87.4429 34.1014 87.4094C35.1274 86.7904 35.8998 86.4118 36.4186 86.2734C38.2228 85.7905 39.8527 85.9351 41.3083 86.7074C42.4405 87.3091 41.1991 89.0347 40.5705 89.531ZM35.6985 88.5022L35.7196 90.2278C35.7208 90.275 35.7437 90.2906 35.7883 90.2745C37.2392 89.7523 38.845 89.0762 39.8698 87.8953C39.877 87.8873 39.8819 87.8775 39.8839 87.867C39.8859 87.8565 39.885 87.8456 39.8813 87.8354C39.8775 87.8252 39.871 87.8161 39.8625 87.809C39.854 87.8019 39.8437 87.7971 39.8328 87.795C38.4118 87.5478 37.0666 87.5166 35.7654 88.376C35.7208 88.4059 35.6985 88.448 35.6985 88.5022Z" fill="black"/>
</svg>
