<svg width="88" height="107" viewBox="0 0 88 107" fill="none" xmlns="http://www.w3.org/2000/svg">
<g clip-path="url(#clip0_833_9474)">
<path fill-rule="evenodd" clip-rule="evenodd" d="M2.61122 65.3254L3.2684 56.8681C3.2684 56.8681 1.35642 56.8086 0.878351 53.8903C0.400221 50.972 0.101562 46.0287 0.101562 46.0287C0.101562 46.0287 2.96968 45.6117 3.32821 44.1228C3.68673 42.6339 3.62686 41.6809 3.62686 41.6809C3.62686 41.6809 1.05758 39.2985 1.29662 37.4523C1.53565 35.606 1.95386 35.3676 2.07341 34.7126C2.19283 34.0576 2.25264 32.3304 1.71488 31.3179C1.17719 30.3054 0.400401 27.387 0.460085 24.4092C0.519829 21.4313 0.579573 19.3468 1.23687 17.8579C1.89418 16.369 1.47585 8.3882 1.47585 8.3882C1.47585 8.3882 0.758804 6.4824 0.69906 5.52944C0.639316 4.57654 1.77463 2.31334 1.77463 2.31334L22.2699 2.07508L23.8832 3.68319L31.5913 3.74268C31.5913 3.74268 33.085 2.61114 33.6827 2.37288C34.2802 2.13457 34.5192 1.89643 34.5192 1.89643L35.3558 1.06257L50.2939 0.764771C50.2939 0.764771 50.6525 1.06257 50.1147 1.30083C49.5769 1.53908 48.6807 2.13457 48.6807 2.13457L51.9073 2.43237L52.8035 4.21907L56.8668 4.04043L57.046 2.07502C57.046 2.07502 57.046 0.943417 57.6436 0.943417C58.2411 0.943417 74.1952 1.83671 74.1952 1.83671L74.6732 3.80217L76.884 1.71761L77.4816 2.37276L84.1739 2.67057L86.6835 4.45727L86.8627 8.44757C86.8627 8.44757 86.2653 8.98351 86.2653 9.51956C86.2653 10.0557 87.042 11.1278 86.9823 12.4975C86.9226 13.8673 86.803 29.9479 86.803 29.9479C86.803 29.9479 86.5042 30.4243 86.0262 30.6626C85.5482 30.9009 84.174 30.9603 84.4129 31.4964C84.6519 32.0324 85.4884 32.6279 84.6519 33.2831C83.8154 33.9382 82.68 34.9507 83.5763 35.9036C84.4727 36.8566 85.4884 37.869 85.6677 39.5366C85.847 41.2043 85.5483 49.0659 85.5483 49.0659L84.0545 49.6615L86.6836 49.8401L87.1019 85.813C87.1019 85.813 84.2936 84.622 82.979 84.1454C81.6644 83.6689 80.9473 83.6689 80.29 83.6689C79.6328 83.6689 77.7803 83.3712 77.8999 83.8476C78.0194 84.3241 79.3937 84.4431 78.9157 85.0387C78.4377 85.6343 75.0318 86.1107 73.5977 86.2298C72.1637 86.349 71.2077 85.5748 70.6699 85.3365C70.132 85.0983 70.0723 85.0983 70.0723 85.0983C70.0723 85.0983 70.2066 85.6492 69.2656 85.6939C68.3246 85.7385 67.2191 85.2173 66.5917 84.9345C65.9643 84.6517 65.7403 84.711 65.4415 84.994C65.1427 85.2769 64.7542 85.5748 64.0521 85.5599C63.3501 85.5449 61.5874 85.4406 60.9301 85.7384C60.2728 86.0362 59.3763 86.0956 58.3607 85.8575C57.3449 85.6193 49.0392 85.9171 49.0392 85.9171C49.0392 85.9171 48.2625 87.8826 46.8284 87.7634C45.3944 87.6442 45.0358 86.9892 45.0358 86.9892C45.0358 86.9892 44.6176 87.4657 43.9603 87.3465C43.303 87.2273 42.2872 86.3339 41.0922 86.0361C39.8972 85.7383 39.5985 85.6787 39.1204 86.5126C38.6423 87.3465 37.9254 87.8229 37.3279 87.406C36.7303 86.9891 35.8938 86.0361 35.6548 85.381C35.4157 84.7259 35.5353 84.0112 35.1768 84.309C34.8183 84.6068 34.8183 85.0237 34.2207 84.9641C33.6231 84.9046 29.5599 84.845 29.0819 84.6663C28.6039 84.4877 28.1259 83.8325 27.1699 83.8325C26.2138 83.8325 24.7798 84.9045 24.2419 84.7854C23.7041 84.6663 23.3456 84.0707 23.3456 84.0707C23.3456 84.0707 22.4495 84.7258 21.9714 84.7258C21.4933 84.7258 21.0154 83.9516 20.2983 83.9516C19.5813 83.9516 18.5058 84.1303 18.1472 84.5471C17.7887 84.9641 17.0717 85.0832 16.7729 84.5471C16.4741 84.0111 15.518 83.4155 15.0998 83.9516C14.6815 84.4876 13.4864 84.6663 12.9486 84.3685C12.4109 84.0707 12.1122 83.773 12.1122 83.773C12.1122 83.773 11.6938 84.5472 10.7976 84.5472C9.90134 84.5472 9.48307 83.6538 9.48307 83.6538C9.48307 83.6538 8.28796 84.6663 7.27213 84.6067C6.25625 84.5472 6.19657 84.3089 5.41978 84.3089C4.64299 84.3089 3.14921 84.3685 3.14921 84.3685C3.14921 84.3685 3.02979 83.6538 2.37248 83.5942C1.71518 83.5347 0.938394 83.4752 0.938394 83.4752L1.29692 78.8297L0.818787 68.3475C0.818787 68.3475 0.699359 65.6674 2.61134 65.3249L2.61122 65.3254ZM16.6753 52.4792L33.8581 69.0534L23.6831 72.8023C23.6831 72.8023 19.1301 72.9602 18.0611 72.6445C16.9921 72.3288 11.4096 67.0802 11.4096 67.0802C11.4096 67.0802 10.8156 66.6858 11.4096 65.0283C12.0036 63.3708 16.8337 53.8209 16.6753 52.4792ZM51.8934 19.4162L67.3544 31.2533C67.3544 31.2533 68.0267 31.7001 68.4748 31.1044C68.9229 30.5088 69.7444 25.1485 69.8938 24.1063C70.0432 23.0641 70.4914 21.4263 70.4914 20.7563C70.4914 20.0863 70.79 19.7884 70.1926 19.4162C69.5951 19.044 65.4125 15.9172 65.039 16.0662C64.6654 16.2151 63.1715 16.7361 60.7815 17.034C58.3914 17.3318 56.3002 18.5228 55.7026 18.4483C55.1051 18.374 54.9556 18.2251 54.2834 18.5229C53.6113 18.8207 51.8934 19.4162 51.8934 19.4162ZM10.1412 17.7039C10.1412 17.7039 11.4109 17.3317 12.5312 16.9595C13.6516 16.5872 14.4732 15.9916 14.4732 15.9916C14.4732 15.9916 16.6393 15.6938 17.4609 15.9916C18.2825 16.2894 22.9134 19.9372 23.959 20.5328C25.0046 21.1284 25.3033 21.2775 25.378 21.724C25.4527 22.1706 25.4527 22.8408 25.4527 22.8408C25.4527 22.8408 26.9466 22.5428 27.9923 23.1384C29.0379 23.734 76.5412 55.6718 76.5412 55.6718C76.5412 55.6718 76.7654 57.2351 76.4666 58.2774C76.1678 59.3197 72.7321 70.5613 72.2839 70.9335C71.8357 71.3056 71.537 71.7524 69.9686 71.7524C68.4 71.7524 63.6198 71.2313 62.7982 71.3056C61.9766 71.3801 61.0057 71.2312 61.0057 71.2312C61.0057 71.2312 10.2158 17.7038 10.1412 17.7038V17.7039Z" fill="white"/>
<path d="M2.56769 106.366C2.79277 106.269 3.05539 106.207 3.35555 106.176C3.7901 106.129 4.11216 106.023 4.32791 105.867C4.49361 105.531 4.57491 104.677 4.57491 103.305V101.862L4.59371 100.993L4.57491 100.354L4.59371 99.173L4.56557 96.203C4.56557 95.8664 4.51564 95.6482 4.4186 95.5423C4.27793 95.3896 3.9027 95.2493 3.29616 95.1215C3.04605 95.0686 2.8928 95.0187 2.83653 94.9751C2.78337 94.9283 2.74895 94.8442 2.73644 94.7195C2.87718 94.6915 2.97416 94.6758 3.03037 94.6758H3.68073L4.02159 94.6665C4.24674 94.6665 4.49685 94.6915 4.77198 94.7413C5.33482 94.7787 5.91316 94.7974 6.5073 94.7974C6.67612 94.7974 6.92311 94.7881 7.23895 94.7725C8.08309 94.7257 8.68975 94.7039 9.05551 94.7039C9.7965 94.7039 10.4938 94.7756 11.1504 94.9221C11.807 95.0686 12.4855 95.3366 13.1827 95.7322C13.6173 95.9815 14.0614 96.3743 14.5178 96.9103C14.9712 97.4463 15.3183 98.0323 15.5527 98.668C15.7872 99.3006 15.906 100.014 15.906 100.809C15.906 101.52 15.7747 102.224 15.5151 102.922C15.2556 103.62 14.8961 104.225 14.4302 104.736C13.9643 105.25 13.4953 105.636 13.017 105.892C12.5417 106.151 11.8132 106.375 10.8376 106.562C10.4343 106.634 9.70892 106.671 8.6646 106.671C7.9736 106.671 7.41082 106.652 6.97621 106.618C6.80734 106.596 6.6229 106.587 6.42595 106.587C6.39781 106.587 6.36339 106.59 6.32592 106.596L2.58642 106.671L2.56763 106.599C2.55511 106.568 2.54883 106.537 2.54883 106.5L2.56763 106.366L2.56769 106.366ZM57.019 103.893L62.1467 103.66C62.4821 104.636 62.7116 105.43 62.7116 105.781C62.7116 105.837 62.6928 105.918 62.6553 106.03C62.5271 106.086 62.3395 106.119 62.0955 106.13L61.6925 106.148C61.6329 106.15 61.5643 106.176 61.4924 106.213C61.4643 106.294 61.4487 106.378 61.4487 106.465C61.5049 106.497 61.5643 106.515 61.6331 106.521H61.8332C61.8864 106.521 61.952 106.525 62.0302 106.528C62.1052 106.534 62.1802 106.534 62.2554 106.534L63.3622 106.525L64.2783 106.54C65.0631 106.553 65.6134 106.559 65.9229 106.559C66.0043 106.559 66.1418 106.556 66.3357 106.55C66.3545 106.49 66.3638 106.447 66.3638 106.419C66.3638 106.381 66.3513 106.331 66.3263 106.266C66.2168 106.213 66.023 106.151 65.7416 106.073C65.6633 106.048 65.5228 106.01 65.3257 105.964C65.1257 105.914 65.013 105.876 64.9818 105.851C64.8785 105.767 64.7661 105.593 64.6441 105.325C64.5351 105.088 64.3186 104.492 63.9948 103.54C65.3273 103.399 66.7997 103.198 67.4798 102.844H63.7499L63.1309 101.146L61.7394 97.3778C61.4894 96.7514 61.308 96.2776 61.1985 95.9598C60.9984 95.3614 60.7639 94.8005 60.5013 94.2831L60.1824 94.2737L59.8947 94.2924C59.7134 94.8627 59.557 95.3209 59.4289 95.6605C58.5381 98.0245 57.6506 100.408 56.8087 102.788C56.4147 103.925 56.0583 104.807 55.7425 105.428C55.5893 105.714 55.4048 105.914 55.1923 106.029C55.1078 106.073 54.8295 106.113 54.3605 106.157C54.2542 106.163 54.1822 106.166 54.1385 106.166H53.929C53.8602 106.166 53.7852 106.191 53.7008 106.241C53.6757 106.316 53.6632 106.375 53.6632 106.418V106.475C53.8947 106.493 54.0854 106.503 54.2324 106.503C54.323 106.503 54.4731 106.496 54.6795 106.484C54.9984 106.471 55.2205 106.465 55.3486 106.465C55.4768 106.465 55.6894 106.471 55.9896 106.484C56.6368 106.534 57.2059 106.559 57.6937 106.559C57.8406 106.559 58.0501 106.556 58.3252 106.549C58.344 106.487 58.3533 106.44 58.3533 106.409C58.3533 106.366 58.3189 106.316 58.2533 106.259L57.0058 106.15C56.7931 106.119 56.6212 106.085 56.493 106.048C56.4398 105.92 56.4117 105.829 56.4117 105.773C56.4117 105.674 56.6065 105.155 56.9245 104.184C56.9568 104.085 56.9883 103.988 57.0192 103.893L57.019 103.893ZM61.8578 102.844H57.3479C57.8653 101.155 58.2348 99.8033 59.0102 97.9449C59.2383 97.3983 59.4875 97.0594 59.5249 96.9876L59.6156 97.1497C59.906 97.8756 61.0458 100.609 61.8578 102.844ZM7.23267 105.985C7.69541 106.144 8.16444 106.222 8.64281 106.222C9.25875 106.222 9.86535 106.126 10.4563 105.936C11.0504 105.742 11.5725 105.474 12.029 105.122C12.4824 104.773 12.8576 104.38 13.1515 103.938C13.4423 103.499 13.6518 103.103 13.7737 102.747C13.9456 102.233 14.0301 101.56 14.0301 100.734C14.0301 99.9426 13.8612 99.1417 13.5268 98.3252C13.2954 97.7611 12.8858 97.222 12.3042 96.7047C11.7194 96.1873 11.0317 95.8102 10.2375 95.5703C9.44325 95.3302 8.58343 95.2087 7.66111 95.2087C7.02644 95.2087 6.55735 95.2773 6.25103 95.4176C6.21349 95.455 6.17901 95.4985 6.14154 95.5453C6.10406 95.698 6.08526 95.8383 6.08526 95.966C6.08526 96.044 6.08838 96.1374 6.09466 96.2465C6.11346 96.954 6.1228 97.518 6.1228 97.9449L6.1134 100.014C6.1134 103.053 6.16961 104.745 6.28216 105.088C6.3947 105.431 6.71371 105.73 7.23267 105.985ZM21.4245 100.706C21.4245 100.086 21.4995 99.5344 21.6496 99.0482C21.7997 98.5652 22.0498 98.0385 22.4062 97.4713C22.7595 96.9072 23.1879 96.4335 23.6881 96.0533C24.1884 95.6731 24.8825 95.3366 25.7705 95.0436C26.3927 94.8409 27.1806 94.7413 28.1343 94.7413C28.7753 94.7413 29.4037 94.8254 30.0197 94.9968C30.6325 95.1683 31.1891 95.4051 31.6924 95.7106C32.1927 96.0128 32.693 96.4835 33.1932 97.1161C33.5434 97.5555 33.806 98.0261 33.9842 98.5309C34.2157 99.1979 34.3314 99.8804 34.3314 100.588C34.3314 101.392 34.2531 102.059 34.0968 102.589C33.9405 103.118 33.681 103.642 33.3153 104.159C33.0276 104.561 32.5335 105.026 31.8394 105.549C31.3735 105.901 30.7951 106.188 30.1041 106.403C29.4162 106.618 28.669 106.727 27.8685 106.727C27.0556 106.727 26.3301 106.634 25.6955 106.444C25.0608 106.257 24.5292 106.026 24.1071 105.755C23.6818 105.484 23.2441 105.082 22.7939 104.552C22.3468 104.022 22.006 103.439 21.7715 102.797C21.5401 102.158 21.4244 101.46 21.4244 100.706H21.4245ZM27.7872 106.391C28.3 106.391 28.8315 106.319 29.385 106.176C29.9384 106.032 30.4293 105.795 30.8576 105.462C31.2829 105.132 31.6174 104.754 31.8613 104.331C32.1021 103.907 32.2958 103.365 32.4428 102.698C32.5898 102.034 32.6616 101.37 32.6616 100.706C32.6616 99.8771 32.5397 99.0575 32.2958 98.2472C32.1052 97.6333 31.7956 97.0848 31.3704 96.5986C30.9421 96.1155 30.4262 95.7415 29.8195 95.4766C29.2162 95.2118 28.572 95.0778 27.8873 95.0778C27.3308 95.0778 26.7867 95.1681 26.2552 95.352C25.7237 95.5359 25.2859 95.7665 24.9451 96.0501C24.6043 96.3337 24.2854 96.7357 23.9915 97.2562C23.6975 97.7766 23.4756 98.3532 23.3224 98.9796C23.1692 99.606 23.0942 100.161 23.0942 100.644C23.0942 101.149 23.1692 101.722 23.3224 102.361C23.4756 103 23.6851 103.554 23.9508 104.025C24.2165 104.493 24.545 104.91 24.9326 105.272C25.3203 105.633 25.7549 105.911 26.2364 106.104C26.7211 106.294 27.237 106.39 27.7872 106.39V106.391ZM39.3089 96.2122L39.6872 94.8347C39.7122 94.6509 39.7435 94.5325 39.7872 94.4826C39.831 94.4296 39.8779 94.4047 39.9342 94.4047C40.0436 94.4047 40.1656 94.5356 40.3063 94.7974C40.4096 94.9874 40.497 95.109 40.5627 95.1619C40.6284 95.2118 40.7284 95.2461 40.8566 95.2648L40.9473 95.2554L41.3413 95.2929L43.5019 95.3209L46.0532 95.3115H46.8036L48.2231 95.2866C48.2856 95.2866 48.3607 95.2897 48.4514 95.3022C48.8672 95.3395 49.1236 95.3582 49.2205 95.3582C49.3112 95.3582 49.3862 95.3272 49.4393 95.2679C49.4581 95.243 49.5582 95.0435 49.7426 94.6634C49.8239 94.4919 49.9209 94.4047 50.0366 94.4047C50.0865 94.4047 50.1491 94.417 50.221 94.442C50.2523 94.5605 50.2679 94.6696 50.2679 94.7662L50.2585 95.1308L50.2679 95.9005C50.2679 96.0876 50.2523 96.6921 50.221 97.7111C50.221 97.7798 50.2085 97.839 50.1835 97.895C50.1179 97.9356 50.0584 97.9574 50.0116 97.9574C49.9615 97.9574 49.9177 97.9356 49.8802 97.8888C49.8427 97.8452 49.799 97.7049 49.7426 97.4713C49.6207 96.929 49.4675 96.5394 49.2861 96.3057C49.1641 96.1561 48.9891 96.047 48.7608 95.9815C48.5326 95.9161 47.9854 95.8818 47.1224 95.8818H45.5778C45.5684 96.1249 45.5621 96.3462 45.5621 96.5487L45.6342 102.211C45.6342 102.436 45.6216 102.863 45.5966 103.489L45.606 104.701L45.5966 105.378C45.5966 105.59 45.6342 105.742 45.7061 105.833C45.7811 105.923 45.9812 106.013 46.3032 106.098C46.866 106.238 47.2412 106.322 47.432 106.353C47.5476 106.366 47.6446 106.394 47.7165 106.431V106.727L46.4126 106.693C45.6967 106.69 45.1588 106.674 44.7993 106.652L43.4579 106.712L42.4793 106.765C42.201 106.765 42.0353 106.758 41.9728 106.746L41.8446 106.693C41.8571 106.556 41.8853 106.468 41.9258 106.428C41.9697 106.391 42.0822 106.359 42.2667 106.334C42.5231 106.297 42.8264 106.232 43.1765 106.138C43.5267 106.045 43.755 105.948 43.8643 105.851C43.927 105.795 43.9707 105.705 43.9957 105.577C44.0488 105.309 44.0769 104.782 44.0769 103.994V102.442L44.0395 99.0513L44.0019 98.322L43.9925 95.8818H42.5167C41.6381 95.8818 41.1034 95.9348 40.9128 96.0407C40.6126 96.2059 40.1686 96.689 39.5745 97.4899C39.3775 97.7891 39.2056 97.9387 39.0555 97.9387L38.9743 97.92C38.9493 97.8826 38.9367 97.8514 38.9367 97.8202C38.9367 97.7455 38.9868 97.5272 39.0837 97.1626C39.2088 96.6952 39.2838 96.3773 39.3089 96.2121V96.2122ZM84.6533 104.134L83.6835 106.54H75.5073V106.197C77.9142 104.237 79.6059 102.638 80.5861 101.398C81.5662 100.158 82.058 99.0233 82.058 97.9949C82.058 97.2096 81.7894 96.5644 81.2488 96.0596C80.7116 95.5547 80.0698 95.3023 79.3198 95.3023C78.6362 95.3023 78.0257 95.4767 77.485 95.829C76.9408 96.1811 76.5433 96.6985 76.2816 97.3779H75.9049C76.0758 96.259 76.5152 95.3989 77.2199 94.7974C77.9245 94.199 78.8071 93.8999 79.8675 93.8999C80.9907 93.8999 81.9325 94.224 82.6858 94.869C83.4393 95.5142 83.8161 96.2746 83.8161 97.1534C83.8161 97.7798 83.6521 98.4094 83.3242 99.0358C82.8218 100.02 82.0022 101.065 80.872 102.168C79.1733 103.82 78.1269 104.811 77.7257 105.138H81.3081C82.037 105.138 82.5498 105.113 82.8428 105.066C83.1358 105.016 83.401 104.917 83.6381 104.767C83.8753 104.62 84.0811 104.409 84.2556 104.134H84.6531H84.6533Z" fill="white"/>
</g>
<defs>
<clipPath id="clip0_833_9474">
<rect width="87" height="106" fill="white" transform="translate(0.101562 0.764771)"/>
</clipPath>
</defs>
</svg>
