<svg width="197" height="76" viewBox="0 0 197 76" fill="none" xmlns="http://www.w3.org/2000/svg">
<g clip-path="url(#clip0_833_9478)">
<path fill-rule="evenodd" clip-rule="evenodd" d="M71.3864 46.8356H69.5986V9.73277H71.9824C72.3526 10.2881 72.7769 10.4223 72.7769 11.3286V45.4392C72.7769 46.3705 72.3137 46.8356 71.3864 46.8356ZM57.8789 55.8121H72.3796C80.7045 55.8121 84.4967 54.8926 84.4967 46.4366V10.1317C84.4967 8.73395 84.3107 6.81511 83.9817 5.66193C83.5718 4.2249 82.9214 3.37243 81.9687 2.49707C80.4984 1.14622 76.2604 0.756348 73.3728 0.756348H57.8789V55.8121V55.8121Z" fill="#FEFEFE"/>
<path fill-rule="evenodd" clip-rule="evenodd" d="M40.1994 45.0403V10.9297C40.1994 9.03187 43.3777 8.79081 43.3777 11.5281V45.4393C43.3777 47.1484 41.736 47.1851 40.5967 46.6361C40.3662 46.1538 40.1994 45.7635 40.1994 45.0403ZM45.364 0.552734H38.0144C30.1444 0.616006 28.4796 2.73412 28.4796 10.5307C28.4796 17.5291 28.1596 44.9669 28.6834 49.6232C29.0064 52.4951 30.2728 54.4913 32.7314 55.3325C36.1984 56.5188 47.1523 56.5173 50.6559 55.3414C56.1273 53.5051 55.0975 46.3105 55.0975 40.2528V10.5307C55.1133 2.33779 52.5156 0.610238 45.364 0.552734H45.364Z" fill="#FEFEFE"/>
<path fill-rule="evenodd" clip-rule="evenodd" d="M0.466813 3.74845V52.4209C1.54347 56.853 11.7197 56.8203 15.1756 55.2185C17.4042 54.1855 18.1086 52.6503 18.7463 52.2215C19.0632 52.8229 19.4028 53.3703 19.7799 53.9762C20.0667 54.4372 20.6029 55.324 20.7327 55.8121H25.8973V27.4862H12.1911V36.4627H14.3762C14.3762 37.8981 14.5214 44.7824 14.1909 45.8516C13.7235 47.364 11.1861 47.7197 10.9968 44.8434C10.787 41.6577 10.9993 25.7522 10.9993 22.1004L10.9985 12.3252C10.9903 10.8016 11.0708 10.5285 11.5952 9.53333C13.6359 9.53333 14.3968 9.17433 14.3782 13.1218C14.3682 15.2496 14.3762 17.3792 14.3762 19.5072H25.8973C25.8973 15.4055 26.3255 9.05576 25.5019 5.74139C24.3996 1.30512 21.5638 0.592982 16.5612 0.552734H8.81423C4.78245 0.585138 1.90907 1.07991 0.466797 3.74848L0.466813 3.74845Z" fill="#FEFEFE"/>
<path fill-rule="evenodd" clip-rule="evenodd" d="M180.836 16.116H181.035C181.035 17.7732 181.25 19.4431 181.419 20.9174L181.617 23.3113C181.667 23.754 181.595 24.2369 181.645 24.6795L182.624 35.8643H179.247C179.264 35.1256 179.34 35.245 179.404 34.8249L180.836 16.1161L180.836 16.116ZM187.987 0.951172H173.884L171.283 21.4834C170.811 25.5816 169.831 31.1053 169.514 35.0664C169.426 36.1691 169.248 37.2931 169.095 38.4362L166.932 55.8121C168.786 55.8121 170.64 55.8121 172.494 55.8121C173.491 55.8121 177.382 56.2639 177.789 55.544C177.796 55.5308 178.651 45.6545 178.651 45.0403H183.22C183.22 45.4663 183.188 46.0296 183.218 46.4384C183.277 47.23 183.365 46.8429 183.42 47.632L184.015 55.8121C186.994 55.8121 189.974 55.8054 192.954 55.8121C195.623 55.8182 195.116 56.0276 194.785 53.7733C194.568 52.2953 194.523 51.1317 194.297 49.6751L192.178 33.452C192.007 31.989 191.927 30.8125 191.681 29.3629L190.614 21.2583C190.393 19.7669 190.349 18.649 190.129 17.1576L187.988 0.951172H187.987Z" fill="#FEFEFE"/>
<path fill-rule="evenodd" clip-rule="evenodd" d="M107.34 0.951172H86.6817V10.3312H95.0246C93.5538 16.6711 90.8534 25.4369 89.2244 32.0344C88.1926 36.213 86.5018 41.6017 85.601 45.5508C85.3604 46.6056 85.4899 54.3769 85.4899 55.8121H107.34C107.34 54.6187 107.516 46.5166 107.19 46.1888C106.863 45.8611 98.7954 46.0377 97.6069 46.0377L106.344 13.7196C107.141 10.6146 107.341 11.0915 107.34 7.93747C107.34 5.60874 107.34 3.27999 107.34 0.951188L107.34 0.951172Z" fill="#FEFEFE"/>
<path fill-rule="evenodd" clip-rule="evenodd" d="M136.541 0.951172H125.02V55.8121H143.493V46.8356C135.318 46.8356 136.54 47.6936 136.541 44.0429V1.15525C136.859 0.887916 136.691 1.20416 136.541 0.951188V0.951172Z" fill="#FEFEFE"/>
<path fill-rule="evenodd" clip-rule="evenodd" d="M157.595 0.951172H146.074V55.8121H164.548V46.8356C156.372 46.8356 157.595 47.6936 157.595 44.0429V0.951172Z" fill="#FEFEFE"/>
<path fill-rule="evenodd" clip-rule="evenodd" d="M121.841 0.951172H110.121V55.8121H121.841V0.951172Z" fill="#FEFEFE"/>
<path fill-rule="evenodd" clip-rule="evenodd" d="M88.0712 74.7665H93.0372V58.8042H86.8793L85.568 61.6764C85.1478 62.7258 84.5335 63.7692 84.297 64.7885H83.8997C83.8361 64.0213 83.0282 62.5227 82.7346 61.7695L81.516 58.8042H75.1595C75.1595 63.5873 75.1982 68.3863 75.1587 73.1674C75.1422 75.1723 74.95 74.9793 76.9465 74.9627C81.2772 74.9267 80.3242 76.3742 80.3242 67.5812L81.3174 69.3765C81.8162 70.379 83.5966 74.2471 84.297 74.7624C84.5086 73.8506 85.6379 71.8775 86.0846 70.9721L87.9785 67.4881C87.9956 67.465 88.0404 67.4173 88.0712 67.3818V74.7665L88.0712 74.7665Z" fill="#FEFEFE"/>
<path fill-rule="evenodd" clip-rule="evenodd" d="M111.115 74.7665H115.882C116.394 74.3261 116.081 69.009 116.081 68.3791L117.932 71.5068C118.15 71.9259 118.174 71.9021 118.385 72.2487L119.855 74.7665H124.622C125.083 74.0277 124.821 59.5518 124.821 58.8042H119.656V65.5864L115.882 58.8042C114.927 58.8042 111.378 58.3809 110.984 59.0722L110.909 73.5722C110.909 73.6592 110.9 74.1199 110.907 74.1731C110.994 74.9331 110.937 74.5276 111.114 74.7665L111.115 74.7665Z" fill="#FEFEFE"/>
<path fill-rule="evenodd" clip-rule="evenodd" d="M176.665 65.9854C175.279 66.3095 175.345 66.1849 173.685 66.1849V62.9933H176.466C176.945 63.9015 177.021 65.1858 176.665 65.9854ZM168.52 74.7665H173.486L173.697 73.7771C173.703 73.3868 173.686 72.9642 173.685 72.5682C173.684 71.7038 173.685 70.8393 173.685 69.975C175.618 69.975 175.301 71.2224 176.335 74.0957L176.665 74.7665H182.028C182.284 74.5464 182.284 74.7781 182.028 74.5629C181.926 73.3287 180.894 70.0942 179.843 69.1771C181.349 68.8247 181.842 67.882 181.831 65.9875C181.823 64.4013 181.983 62.2352 181.64 60.9888C181.523 60.562 181.52 60.5088 181.286 60.1481C180.711 59.265 179.789 58.8788 178.654 58.8017C177.036 58.6918 174.957 58.8042 173.288 58.8042C172.333 58.8042 168.784 58.3809 168.39 59.0722L168.312 74.1731C168.4 74.9331 168.343 74.5276 168.52 74.7665L168.52 74.7665Z" fill="#FEFEFE"/>
<path fill-rule="evenodd" clip-rule="evenodd" d="M100.388 63.1927C102.648 63.1927 103.765 62.871 103.765 63.7912V70.3739C102.35 70.4922 102.242 70.8077 100.388 70.3739V63.1927ZM98.0044 74.7666H105.95C108.02 74.7499 108.938 73.4762 108.934 71.3761C108.931 69.2468 108.93 67.1175 108.93 64.988C108.93 58.579 108.758 58.8042 102.176 58.8042C100.231 58.8042 97.5564 58.4744 96.3698 59.357C94.8975 60.4518 95.2235 62.1734 95.2235 64.5891C95.2235 66.2662 94.9005 72.4668 95.6913 73.6942C96.2389 74.5439 96.6909 74.756 98.0045 74.7666L98.0044 74.7666Z" fill="#FEFEFE"/>
<path fill-rule="evenodd" clip-rule="evenodd" d="M22.7188 74.3635H27.6847V67.9802L28.1499 68.7099C28.7278 69.8003 31.0578 73.6021 31.2603 74.3635C33.1271 74.3635 36.2263 74.7575 36.2263 73.765V59.4027C36.2263 58.3619 34.1232 58.8042 31.2603 58.8042V65.387C30.7738 65.029 27.9846 59.7504 27.4861 58.8042H22.7188V74.3635H22.7188Z" fill="#FEFEFE"/>
<path fill-rule="evenodd" clip-rule="evenodd" d="M126.21 74.7666H135.944C139.643 74.7368 139.317 73.0301 139.321 69.3766C139.325 64.2063 138.054 65.1194 132.75 65.0036C131.883 64.9847 131.571 64.8954 131.752 63.7926C131.912 62.8245 133.31 63.1928 135.546 63.1928C140.806 63.1928 139.519 64.231 139.519 58.8043C137.069 58.8043 134.619 58.8043 132.17 58.8043C130.917 58.8043 129.603 58.7311 128.625 59.0344C125.561 59.9841 126.922 67.227 127.327 67.8562C127.884 68.7224 128.828 68.7863 130.182 68.7789C131.44 68.772 132.699 68.7781 133.957 68.7781C133.957 71.2579 134.306 70.5734 126.012 70.5734L126.024 74.3517C126.1 74.742 126.082 74.5603 126.21 74.7666H126.21Z" fill="#FEFEFE"/>
<path fill-rule="evenodd" clip-rule="evenodd" d="M0.470703 74.3634H5.83406V68.7781C6.98212 68.8037 6.66764 68.7887 7.49779 71.2963L8.61499 74.3635H14.1769C14.157 73.4636 12.2095 68.7242 11.714 67.4613C10.9009 65.3888 11.3057 66.2109 12.7073 62.7143C13.0988 61.7375 14.1024 59.7037 14.1769 58.8042H8.81364L6.64221 64.4032C6.16968 65.2904 6.66855 64.7568 6.03268 64.988C5.59393 64.2038 5.83408 59.9747 5.83408 58.8042H0.470719V74.3635L0.470703 74.3634Z" fill="#FEFEFE"/>
<path fill-rule="evenodd" clip-rule="evenodd" d="M183.816 74.7666H192.754C193.892 74.7574 194.231 74.8064 194.944 74.368C195.614 73.9564 195.906 73.6123 195.936 72.5682V66.9828C195.694 64.2751 191.651 64.988 188.782 64.988V63.1927H195.933C195.902 61.8039 195.171 60.293 195.138 58.8042C192.755 58.8042 190.371 58.8089 187.987 58.8042C184.895 58.7982 184.161 59.0534 183.691 61.6716C183.336 63.6505 183.392 66.9999 184.352 68.0403C185.39 69.165 188.408 68.7781 190.768 68.7781C190.768 70.9204 191.312 70.5734 187.391 70.5734C185.67 70.5734 183.948 70.5734 182.227 70.5734C182.515 71.8153 183.391 73.5147 183.418 74.7624L183.816 74.7666H183.816Z" fill="#FEFEFE"/>
<path fill-rule="evenodd" clip-rule="evenodd" d="M46.3576 74.9667H46.7549C47.7525 74.9575 50.4517 74.289 51.125 73.9645C51.125 63.2657 52.559 64.994 46.5456 64.9774C45.0384 64.9732 45.3644 64.8812 45.3644 68.3792H46.3576V70.3739C45.0279 70.3739 44.262 70.4278 43.1794 70.1744V63.1927C45.0826 62.7475 47.894 62.9933 50.1318 62.9933L49.1386 58.8042C46.9748 58.8042 42.5288 58.5518 40.634 58.8414C37.5978 59.3054 38.2133 61.7538 38.2133 65.1875C38.2133 75.1795 37.0938 74.3635 46.3576 74.3635V74.9666L46.3576 74.9667Z" fill="#FEFEFE"/>
<path fill-rule="evenodd" clip-rule="evenodd" d="M155.212 74.7665H166.534C166.869 74.2307 166.735 73.5344 166.733 72.7676C166.731 72.0363 166.733 71.3047 166.733 70.5733H160.178V68.778H165.74V64.988H160.178V63.1927H166.733C165.504 57.8949 166.67 58.8038 163.157 58.8042C162.001 58.8043 155.628 58.4893 155.164 58.9554C154.846 59.2743 154.965 71.3259 155.001 73.7771L155.212 74.7665H155.212Z" fill="#FEFEFE"/>
<path fill-rule="evenodd" clip-rule="evenodd" d="M144.884 74.7665H150.048C150.178 74.5576 150.17 74.7538 150.235 74.3516L150.247 63.1927H153.624V58.8042H141.109V63.1927H144.685L144.682 73.3688C144.668 74.8092 144.665 74.4165 144.884 74.7665H144.884Z" fill="#FEFEFE"/>
<path fill-rule="evenodd" clip-rule="evenodd" d="M15.5684 74.3635H20.5343V58.8042H15.5684V74.3635Z" fill="#FEFEFE"/>
<path fill-rule="evenodd" clip-rule="evenodd" d="M59.2682 63.5917V60.9985C61.1643 60.9985 60.8574 60.6608 60.8574 63.5917C60.8574 64.4553 59.2682 64.4553 59.2682 63.5917ZM56.8846 60.9985C56.8846 64.3721 56.5266 64.4565 57.6791 66.1849C60.4587 66.1849 61.6092 66.5501 63.0424 65.5864V59.6021C61.8839 58.5938 61.6613 59.0037 58.0764 59.0037H57.6791C57.2176 59.6957 56.8846 59.7624 56.8846 60.9985Z" fill="#FEFEFE"/>
<path fill-rule="evenodd" clip-rule="evenodd" d="M60.0625 74.7624H62.4462V72.1692H63.8367V74.7624H66.2204V67.5812H63.8367V70.1744H62.4462V67.5812H60.0625V74.7624Z" fill="#FEFEFE"/>
<path fill-rule="evenodd" clip-rule="evenodd" d="M67.2148 74.7624H71.9822C72.0478 73.9714 72.3139 73.5586 72.3795 72.7676H69.3999V72.1692C72.3578 72.1692 71.9822 72.5148 71.9822 70.3739H69.3999V69.576H72.3795C72.327 68.9428 72.1173 68.1633 71.9822 67.5812H67.2148V74.7624Z" fill="#FEFEFE"/>
<path fill-rule="evenodd" clip-rule="evenodd" d="M64.0371 66.1849H66.2221C66.2221 63.1127 65.7452 63.5917 68.8044 63.5917C68.8044 61.4508 69.18 61.7964 66.2221 61.7964V60.9985H69.2018C69.1883 60.3949 69.1336 60.2391 69.0338 59.7708C68.7796 58.5782 68.5669 59.0037 64.0371 59.0037V66.1849V66.1849Z" fill="#FEFEFE"/>
<path fill-rule="evenodd" clip-rule="evenodd" d="M53.5078 69.576H55.2956V74.7624C58.5884 74.7624 57.878 75.6821 57.878 69.576H59.4671C59.4146 68.9428 59.2048 68.1633 59.0698 67.5812H53.9051C53.8873 68.3861 53.6655 68.8962 53.5078 69.576H53.5078Z" fill="#FEFEFE"/>
<path fill-rule="evenodd" clip-rule="evenodd" d="M0.466752 52.4209V3.74841C0.0192157 4.13264 0.272656 15.1768 0.272656 15.7171L0.26989 51.0274C0.268263 51.2 0.247874 51.6927 0.263528 51.8319L0.466736 52.4209H0.466752Z" fill="#FEFEFE"/>
<path fill-rule="evenodd" clip-rule="evenodd" d="M107.34 0.951195C106.947 0.488716 103.013 0.756346 102.374 0.756346L87.8667 0.749679C87.7753 0.749287 87.327 0.740512 87.2683 0.747195L86.6816 0.951211H107.34V0.951195Z" fill="#FEFEFE"/>
<path fill-rule="evenodd" clip-rule="evenodd" d="M187.988 0.951151C187.755 0.677638 188.103 0.816862 187.402 0.747136C187.18 0.725027 186.653 0.753133 186.4 0.755274C184.954 0.76766 174.473 0.514344 173.885 0.951151H187.988Z" fill="#FEFEFE"/>
<path fill-rule="evenodd" clip-rule="evenodd" d="M121.841 0.9512C121.569 0.631949 121.255 0.74725 120.656 0.749669C119.023 0.756287 111.118 0.559739 110.242 0.875134C110.212 0.88587 110.159 0.9228 110.121 0.951184H121.841V0.9512Z" fill="#FEFEFE"/>
<path fill-rule="evenodd" clip-rule="evenodd" d="M136.541 0.951186C136.269 0.631935 135.955 0.747236 135.356 0.749654C133.784 0.755994 125.976 0.574088 125.141 0.875119C125.111 0.885855 125.058 0.922785 125.02 0.951169H136.541L136.541 0.951186Z" fill="#FEFEFE"/>
<path fill-rule="evenodd" clip-rule="evenodd" d="M166.535 74.7666H155.213C155.485 75.0866 155.798 74.9711 156.398 74.9686L165.949 74.9711C166.646 74.8919 166.255 74.9753 166.535 74.7666H166.535Z" fill="#FEFEFE"/>
<path fill-rule="evenodd" clip-rule="evenodd" d="M135.944 74.7666H126.211C126.58 75.2015 133.692 74.9643 134.759 74.9686C134.85 74.969 135.3 74.9777 135.358 74.9711C136.055 74.8919 135.664 74.9753 135.944 74.7666H135.944Z" fill="#FEFEFE"/>
<path fill-rule="evenodd" clip-rule="evenodd" d="M192.755 74.7666H183.816C184.097 75.0967 183.949 74.9451 184.596 74.9768C185.599 75.0261 192.27 75.1274 192.755 74.7666Z" fill="#FEFEFE"/>
<path fill-rule="evenodd" clip-rule="evenodd" d="M16.5615 0.55268C16.1342 0.04966 11.6082 0.359466 10.8008 0.35726C10.2139 0.355675 9.27989 0.20645 8.81445 0.55268H16.5615Z" fill="#FEFEFE"/>
<path fill-rule="evenodd" clip-rule="evenodd" d="M45.3633 0.552733C44.9501 0.0662166 40.6176 0.361561 39.8011 0.357084C39.1309 0.353472 38.446 0.231096 38.0137 0.552733H45.3633Z" fill="#FEFEFE"/>
<path fill-rule="evenodd" clip-rule="evenodd" d="M105.95 74.7666H98.0039C98.2843 75.0967 98.1362 74.9451 98.7833 74.9768L103.963 74.962C104.291 74.9629 104.646 74.9787 104.969 74.974L105.95 74.7666Z" fill="#FEFEFE"/>
<path fill-rule="evenodd" clip-rule="evenodd" d="M157.595 0.951178C157.324 0.631927 157.01 0.747228 156.41 0.749646L146.074 0.951178H157.595Z" fill="#FEFEFE"/>
<path fill-rule="evenodd" clip-rule="evenodd" d="M195.938 72.5682C196.269 72.2856 196.311 67.4858 195.938 66.9828V72.5682Z" fill="#FEFEFE"/>
<path fill-rule="evenodd" clip-rule="evenodd" d="M182.029 74.7666H176.666C176.938 75.0866 177.251 74.9711 177.851 74.9686C178.656 74.9654 181.485 75.1713 182.029 74.7666Z" fill="#FEFEFE"/>
<path fill-rule="evenodd" clip-rule="evenodd" d="M150.047 74.7666H144.883C145.234 75.1797 148.171 74.9659 148.862 74.9686C149.886 74.9728 149.699 75.0255 150.047 74.7666Z" fill="#FEFEFE"/>
<path fill-rule="evenodd" clip-rule="evenodd" d="M115.881 74.7666H111.113C111.472 75.189 114.003 74.9658 114.696 74.9686C115.719 74.9728 115.533 75.0255 115.881 74.7666Z" fill="#FEFEFE"/>
<path fill-rule="evenodd" clip-rule="evenodd" d="M124.621 74.7666H119.854C120.212 75.189 122.743 74.9658 123.436 74.9686C123.527 74.969 123.976 74.9777 124.034 74.9711C124.732 74.8919 124.34 74.9753 124.621 74.7666Z" fill="#FEFEFE"/>
<path fill-rule="evenodd" clip-rule="evenodd" d="M173.488 74.7666H168.521C168.794 75.0876 168.886 74.9651 169.502 74.974L172.302 74.9686C172.393 74.969 172.843 74.9777 172.901 74.9711C173.598 74.8919 173.207 74.9753 173.488 74.7666H173.488Z" fill="#FEFEFE"/>
<path fill-rule="evenodd" clip-rule="evenodd" d="M93.0383 74.7666H88.0723C88.3448 75.0876 88.4368 74.9651 89.0532 74.974L91.8532 74.9686C91.944 74.969 92.3935 74.9777 92.4517 74.9711C93.1492 74.8919 92.7577 74.9753 93.0383 74.7666Z" fill="#FEFEFE"/>
<path fill-rule="evenodd" clip-rule="evenodd" d="M46.7547 74.9667H46.3574C46.3574 75.6149 46.721 75.0104 46.7547 74.9667Z" fill="#FEFEFE"/>
</g>
<defs>
<clipPath id="clip0_833_9478">
<rect width="196" height="75" fill="white" transform="translate(0.201172 0.264771)"/>
</clipPath>
</defs>
</svg>
