<svg width="189" height="104" viewBox="0 0 189 104" fill="none" xmlns="http://www.w3.org/2000/svg">
<g clip-path="url(#clip0_833_9443)">
<path fill-rule="evenodd" clip-rule="evenodd" d="M70.3781 76.6009V95.6258C70.3781 105.452 86.2604 105.11 86.2604 95.6258V76.6009C86.2604 72.7632 83.1089 69.2839 79.243 69.2839H77.3961C73.5302 69.2839 70.3781 72.7632 70.3781 76.6009ZM97.3403 97.8206H95.4935V87.9421L99.1872 88.3081C99.8395 91.0817 99.5567 93.0438 99.5567 96.3572C99.5567 97.4821 98.4747 97.8206 97.3403 97.8206ZM96.9708 83.9179H95.4935V74.4055C100.348 74.4055 99.5567 73.6722 99.5567 82.0885C99.5567 83.2711 98.2159 83.9179 96.9708 83.9179ZM89.9528 102.211C101.512 102.211 105.096 104.013 105.096 92.3323C105.096 89.3312 104.543 86.7479 102.141 86.1127V85.3807C105.563 84.4756 104.727 79.8514 104.727 75.5022C104.727 68.332 96.3134 69.6486 89.9522 69.6486V102.21L89.9528 102.211ZM113.962 59.0394H111.007V36.3563C117.285 36.3563 115.809 35.2647 115.809 56.4786C115.809 57.7112 115.156 59.0394 113.962 59.0394ZM105.466 32.3315V63.7956C123.228 63.7956 121.348 65.0436 121.348 39.2831C121.348 29.9944 112.964 31.2341 106.574 31.2341C105.723 31.2341 105.466 31.4885 105.466 32.3315ZM171.949 32.3321V63.7963H177.49V50.2596H182.661V63.7963H188.201V31.2347C184.385 31.2347 182.661 30.7065 182.661 32.3321V45.5027H177.49V31.2341C173.674 31.2341 171.949 30.7059 171.949 32.3315V32.3321ZM58.1896 85.3813V74.4055H60.7748C61.6394 74.4055 62.2522 75.0125 62.2522 75.8689V83.9179C62.2522 85.8294 59.9543 84.5422 58.1896 85.3813ZM52.6489 102.211H58.1896V89.4055C59.711 89.8081 59.4612 90.4286 59.9155 92.0862L62.9912 102.211H68.5312C68.3416 99.9519 65.172 91.667 64.4686 88.6741C68.1895 86.7236 67.7929 82.6404 67.7929 78.4303C67.7929 68.173 62.1021 69.6499 52.6496 69.6499V102.211L52.6489 102.211ZM21.6234 86.1242C22.1185 86.562 22.5462 86.8351 22.1237 88.0588C21.9373 88.5985 21.76 88.7466 21.5367 88.9613C20.8048 89.6658 21.725 89.0639 20.5279 89.4953C18.9249 89.5164 18.7243 89.6991 17.9116 88.6741C17.1712 87.5216 16.4652 85.9018 18.1782 84.8627C19.5772 84.0141 21.1763 84.4403 21.6241 86.1242H21.6234ZM17.6592 79.4553C18.2455 80.7623 17.8015 81.2751 16.8548 83.1487C15.9372 84.964 16.5798 84.8307 15.3276 86.1063C13.3668 88.1043 13.5325 86.9569 11.9878 88.2485L11.3433 88.7902C9.87626 89.9869 10.3998 89.6279 9.89697 90.5901L4.23791 90.6452C2.29978 90.4369 3.54484 90.801 3.08668 90.2548C2.90937 92.5477 3.16369 95.8392 2.41691 97.6379C2.41691 103.233 3.31705 102.943 10.5428 102.942C29.0459 102.938 25.5016 106.001 25.6919 84.2782C25.721 80.9642 25.8122 80.7597 23.9751 79.1617C23.656 79.3239 23.7531 79.3309 23.0749 79.4392C22.9507 79.4591 22.543 79.488 22.3819 79.4969L17.6592 79.4553ZM50.8021 57.2106V38.1857C50.8021 34.6737 55.6037 34.7288 55.6037 38.1857V57.2106C55.6037 60.4432 50.8021 60.4252 50.8021 57.2106ZM45.2614 38.1857V57.2106C45.2614 66.6942 61.1437 67.1147 61.1437 57.2106V38.1857C61.1437 34.348 57.9922 30.8687 54.1257 30.8687H52.2788C48.4129 30.8687 45.2608 34.348 45.2608 38.1857H45.2614ZM113.223 96.3572V75.8689C113.223 73.7363 118.024 72.7799 118.024 76.9663V95.2591C118.024 99.0032 113.223 98.4577 113.223 96.3565V96.3572ZM107.683 76.2349V95.9912C107.683 104.893 123.565 106.135 123.565 94.5278V78.0643C123.565 65.6334 107.683 67.4596 107.683 76.2349ZM138.708 63.7956H143.879C144.516 56.2145 144.521 57.576 149.419 57.576C149.419 59.6214 150.114 61.8483 150.158 63.7956H155.699L152.955 47.1226C152.464 44.2118 152.06 41.8035 151.584 38.9684C150.063 29.9078 151.643 31.2341 145.357 31.2341C143.941 31.2341 143.989 32.9776 143.768 34.4166L140.237 55.4318C139.952 57.1299 139.193 62.7925 138.708 63.795V63.7956ZM140.924 76.2349C140.924 86.6518 150.897 88.0569 150.897 95.6252C150.897 99.4692 145.726 98.5622 145.726 96.3572V92.333H140.554C140.554 97.018 140.799 102.943 148.311 102.943C156.729 102.943 159.286 93.056 151.365 84.9172C148.805 82.2866 146.094 79.97 146.094 76.2355C146.094 74.7522 147.75 73.3491 149.402 74.0305C149.985 74.2709 150.618 74.0971 150.871 76.2599C151.313 80.0206 149.364 79.8943 154.959 79.8943C156.317 79.8943 156.066 79.1136 156.066 77.3329C156.066 65.8795 140.923 67.4666 140.923 76.2355L140.924 76.2349ZM68.1617 63.7956H73.7017C73.7017 61.5547 77.4984 42.6907 78.1837 38.6004C78.4063 37.2704 78.6677 36.105 78.9725 34.6192C79.7497 30.8296 80.2583 31.2341 75.1791 31.2341C73.7101 31.2341 74.0188 32.9186 73.591 35.8807C73.3568 37.5005 72.9342 40.0119 72.7006 41.5843L70.747 52.8198C70.747 49.418 69.9284 45.4072 69.4294 42.0516C68.8942 38.4549 68.5506 34.4596 67.7922 31.2341C61.2188 31.2341 61.3954 28.2105 64.8051 45.1688L68.1617 63.7956ZM124.303 32.3321V63.7963H137.6V59.04H129.844V49.1616C130.391 49.4218 135.385 50.5173 135.385 48.4296V44.7707H129.844V35.9903H137.6V31.2341H125.412C124.561 31.2341 124.304 31.4885 124.304 32.3315L124.303 32.3321ZM14.7808 32.3321C14.6209 32.5359 13.9402 33.7032 13.9402 32.6981L12.3431 31.2347C11.2126 32.6391 10.3053 33.2244 7.57381 33.1141C6.01619 33.0513 5.94048 33.0135 5.09405 32.2398C3.93441 31.1796 4.71613 31.1988 3.15592 30.9052C0.6891 32.3821 -0.155391 35.9659 1.4197 39.1741C2.17295 40.7087 2.97861 41.3388 3.9467 42.5247C4.96397 43.7714 5.50108 44.54 6.78303 45.5027L11.7464 43.4112C12.5197 42.8855 12.2078 41.3978 17.0891 40.9004C20.7602 40.526 16.563 42.6727 22.7578 40.3491C25.1619 39.4472 24.914 40.335 26.1138 38.287C27.0146 36.7492 25.7695 37.7415 27.1634 37.0069C28.7443 34.8858 25.6136 30.5924 23.4509 29.7892C20.9621 28.8649 15.8324 29.4559 14.7808 32.3315V32.3321ZM81.4587 63.7956H94.7551V59.0394H86.6292V49.5269C93.2117 49.5269 92.1692 50.5115 92.1692 44.7707H86.6292C86.6292 33.9519 84.638 35.9903 94.7551 35.9903C94.7551 29.72 97.0006 31.2341 81.4587 31.2341V63.7956ZM154.59 36.3563H159.761V63.7956H165.301V36.3563H170.103V31.2341H154.59V36.3563ZM124.303 70.7473C124.303 75.5798 123.426 74.7715 129.474 74.7715V102.211H135.014V74.7715H139.816V69.6492H125.411C124.56 69.6492 124.303 69.9037 124.303 70.7466V70.7473ZM31.9657 63.7956H44.8926V59.0394H37.1362V31.2341H31.9657V63.7956ZM6.26922 67.0884C5.38784 68.0172 3.20381 69.9044 2.69841 71.0357C1.67143 73.3369 2.97602 75.5817 4.79184 76.1092C8.63832 77.2259 9.96492 72.6042 13.8677 70.0152C15.2163 70.3716 20.5253 75.6304 20.8857 76.9669C22.1638 76.6284 25.6673 72.967 26.4257 71.8447L23.7525 68.9954C22.6802 68.123 23.5001 68.6108 22.7319 68.4288C21.5302 67.4262 20.4166 66.1801 19.2886 66.6096C19.2731 66.6154 18.3975 67.0179 18.3238 67.0596L17.8527 67.3583C17.7588 67.4192 17.52 67.6217 17.4256 67.6794C16.7823 68.0679 18.1057 67.8737 16.4063 68.1076C15.4046 68.2454 14.0431 67.5653 13.0193 67.1827C11.685 66.684 12.4149 66.7526 10.5415 66.6263L8.12192 66.7128C7.44503 66.9686 8.47072 66.8449 7.30914 67.1673C5.57162 67.6487 8.54319 67.0827 6.81797 67.2128L6.26986 67.0891L6.26922 67.0884ZM37.1362 83.9179H31.2267C31.2267 89.6959 30.1208 88.6741 37.1362 88.6741V94.8938C43.4476 94.8938 42.3073 96.1021 42.3073 88.6741H47.848V83.9179C40.6138 83.9179 42.1708 84.3679 42.3222 81.0058C42.4976 77.1284 42.7305 77.6983 37.1368 77.6983V83.9179H37.1362ZM0.201172 0.814093L1.20291 2.45441C2.53922 5.49917 5.36066 12.1694 6.02525 14.77C6.46465 17.059 7.71812 19.2653 8.53478 21.5159C9.04601 22.9235 9.32945 25.0606 13.845 24.2664L14.9756 23.8485C13.8528 22.5338 9.53458 11.7688 9.40192 10.0137C8.35553 7.59075 6.60184 1.95379 5.37231 0.135273C4.40228 0.135273 3.33 0.0820703 2.38197 0.102582C0.606916 0.141683 0.960244 -0.16151 0.201819 0.812811L0.201172 0.814093Z" fill="#FEFEFE"/>
<path fill-rule="evenodd" clip-rule="evenodd" d="M3.89558 59.0411C4.44951 60.3885 3.94476 59.5616 4.90379 60.6276C5.94825 61.7891 7.6767 63.0179 8.69721 64.5268L6.26986 67.0883L6.81797 67.212C8.54384 67.0819 5.57162 67.6479 7.30914 67.1665C8.47072 66.8447 7.44503 66.9678 8.12192 66.712L10.5415 66.6255C12.4149 66.7517 11.685 66.6832 13.0193 67.1819C14.0431 67.5645 15.4046 68.2446 16.4064 68.1068C18.1057 67.8729 16.783 68.0671 17.4256 67.6786C17.5207 67.6216 17.7588 67.4184 17.8527 67.3575L18.3238 67.0588C18.3975 67.0171 19.2731 66.6146 19.2886 66.6088C20.4166 66.1793 21.5309 67.4254 22.732 68.428C21.7988 66.4543 20.6961 66.4319 19.4077 64.5262C20.4243 63.0224 21.848 61.9173 23.194 60.5936C25.1354 58.6841 25.6867 59.0033 25.6867 55.4253L24.6429 55.0727C23.979 56.5278 22.8193 58.6232 21.5057 59.2988C17.445 61.3885 14.4766 61.4981 9.80832 59.8027C6.92798 58.7559 6.29445 59.4129 3.89493 59.0411H3.89558ZM6.02525 14.7704C5.36066 12.1699 2.53986 5.49964 1.20291 2.45488L0.201172 0.814562V24.2835C2.54633 24.2835 4.01206 23.956 5.74181 23.9175C5.74181 21.0433 5.22282 17.4389 6.02525 14.7711V14.7704ZM9.40192 10.0142C9.53458 11.7693 13.8528 22.5342 14.9756 23.8489V0.135742H9.80443L9.67695 9.11808C9.6666 9.17962 9.64783 9.28923 9.63489 9.34628L9.40128 10.0142H9.40192ZM8.69721 84.1017C8.76775 84.1735 8.89717 84.1562 8.93729 84.2857C9.14825 84.9664 13.0433 85.9856 9.74749 88.5964C9.69442 88.6381 9.59347 88.7079 9.54623 88.7445L9.15925 89.0406C8.49143 89.7182 10.0199 89.2169 8.33159 89.6726L7.20819 89.4047C6.65878 88.9304 6.63355 89.2214 6.2621 88.4304C5.77029 87.383 6.43035 87.7343 6.48147 87.6747C6.11908 86.8138 6.13526 86.8163 6.11197 85.5433L5.0041 87.0792C3.78039 87.067 3.31317 86.9619 2.42079 86.7612L2.41885 86.8433V97.6396C3.16563 95.8416 2.91131 92.5501 3.08862 90.2566C3.54678 90.8027 2.30172 90.4386 4.23985 90.647L9.89891 90.5918C10.4017 89.6297 9.8782 89.9887 11.3452 88.7919L11.9898 88.2503C13.5338 86.9586 13.3681 88.1054 15.3295 86.108C16.5811 84.8325 15.9391 84.9651 16.8567 83.1505C17.8035 81.2768 18.2474 80.764 17.6611 79.457L13.3312 79.4468C13.3015 80.7852 12.8543 81.514 12.0674 82.5069C10.6916 84.2421 9.84779 84.2517 8.69786 84.1043L8.69721 84.1017Z" fill="#FEFEFE"/>
<path fill-rule="evenodd" clip-rule="evenodd" d="M16.9805 57.2617L16.0842 57.695L14.1868 59.4052L13.7966 59.4488L10.24 56.6342C8.86751 57.1931 7.44708 56.088 3.88986 57.0098C3.29063 57.1649 2.77876 57.3092 2.34324 56.8444L1.61523 57.5188C3.08484 58.5232 2.87065 59.0161 3.89569 59.0411C6.29521 59.4136 6.92874 58.7565 9.80907 59.8026C14.4774 61.4987 17.4457 61.3891 21.5064 59.2988C22.8194 58.6226 23.9791 56.5278 24.6436 55.0727L25.6874 55.4253C25.1031 54.2516 25.6014 54.6881 24.6236 53.917L23.7655 54.0298C22.9475 54.3035 23.4911 53.9676 22.9721 54.5426C22.5916 54.9637 22.4538 55.6458 21.7588 56.2316C20.7409 57.0899 18.4455 57.3156 16.9805 57.2617ZM6.78378 45.5026C7.29306 46.2961 7.19535 46.3384 7.84312 47.0692C8.62096 47.9467 8.71155 47.9832 9.71782 48.43C9.34832 46.9115 8.17315 47.8396 10.5623 46.8256C12.1458 46.1532 11.1014 47.091 12.5296 46.0314C18.2902 41.7559 16.6957 44.9289 20.0407 43.834C20.9331 43.5417 23.1268 42.6604 23.8406 42.6988C25.3885 41.3969 26.9623 39.6393 27.1648 37.0074C25.7709 37.742 27.0153 36.7497 26.1152 38.2875C24.9154 40.3355 25.1633 39.4477 22.7592 40.3496C16.5644 42.6732 20.7616 40.5271 17.0905 40.9008C12.2092 41.3982 12.5211 42.8854 11.7478 43.4116L6.78443 45.5032L6.78378 45.5026ZM55.974 12.2096H54.8661V9.64883L57.8208 10.0148V11.8443C56.9925 12.0353 56.9718 12.2103 55.974 12.2103V12.2096ZM52.6497 17.3319H54.8661V14.039C56.9854 14.0858 56.4645 14.366 57.4416 15.8781C58.3787 17.3287 58.4731 17.3319 60.7756 17.3319C60.3873 15.68 59.3752 14.8794 58.5592 13.673C62.4464 11.0943 59.3435 7.81941 57.8208 7.81941H52.6497V17.3319ZM38.6143 16.2338C38.6143 17.9216 40.6909 17.3312 44.8933 17.3312C46.2063 17.3312 46.0012 16.6184 46.0012 15.1358H41.1996V13.3064H45.6317V11.477H41.1996V9.64755H46.0012V7.81813H38.6143V16.2332V16.2338ZM24.5789 10.3802C24.5789 14.2384 28.3581 12.566 30.1189 14.4044C28.3769 16.7594 28.617 14.4044 24.2094 14.4044C25.6311 17.0652 26.3009 17.3312 29.0111 17.3312C32.9779 17.3312 33.4348 12.582 30.3318 11.6327C28.3083 11.0135 27.3473 11.8302 27.1642 9.64819C29.5831 9.64819 29.0505 9.85459 29.6944 10.0687C30.2115 10.2405 29.9099 10.2642 30.8664 10.3712C31.2637 10.4161 31.914 10.3796 32.3353 10.3796C32.1858 10.0712 31.7484 7.45276 28.6416 7.45276C26.5792 7.45276 24.5789 8.52836 24.5789 10.3796V10.3802ZM89.5847 10.7462C89.5847 14.63 94.4808 11.8641 94.7559 15.1364C90.6635 16.0806 94.6251 14.4044 89.2152 14.4044C90.6318 17.0556 90.8207 17.3312 94.0168 17.3312C97.3955 17.3312 98.7887 12.7032 95.3409 11.6295C91.9577 10.5764 93.0158 12.2885 91.8011 10.0142C93.8027 8.90014 94.0376 10.3802 97.3418 10.3802C96.5206 8.84245 96.0423 7.4534 93.648 7.4534C91.3429 7.4534 89.5854 8.50015 89.5854 10.7462H89.5847ZM76.2884 17.3319H83.3057V15.1364H78.5041V13.307C79.1066 13.307 84.6252 13.8871 83.0585 11.9596C82.5466 11.3302 83.5238 11.4776 82.1972 11.4776H78.5034V9.64819H83.3051V7.81877H76.2877V17.3312L76.2884 17.3319ZM2.4196 86.7599C3.31198 86.9606 3.77985 87.0657 5.00291 87.0779L6.11078 85.542L7.17335 84.9908C8.02172 84.5119 7.83988 84.751 8.69602 84.1011C9.84531 84.2491 10.6898 84.2395 12.0656 82.5037C12.8525 81.5108 13.2996 80.782 13.3294 79.4436L7.65933 79.582C7.40437 80.773 7.08469 81.0448 5.98653 81.639C4.86895 82.2434 4.6787 82.2793 3.1295 82.2774L2.4196 86.7593V86.7599ZM3.15667 30.9051C4.71688 31.1986 3.93516 31.1794 5.0948 32.2396C5.94058 33.0133 6.01694 33.0511 7.57456 33.1139C10.3061 33.2242 11.2133 32.639 12.3438 31.2345C10.9545 29.1109 4.83401 28.484 3.15667 30.9057V30.9051ZM10.6283 49.0986C11.355 50.3575 11.8003 51.028 13.0278 51.7677C13.6012 51.3882 12.714 51.6549 14.115 51.1979C14.623 51.0318 15.0669 50.9806 15.7904 50.9011L18.0165 48.6409C19.16 47.7256 19.3612 47.1454 19.9734 46.0654L10.6283 49.0986Z" fill="#FEFEFE"/>
<path fill-rule="evenodd" clip-rule="evenodd" d="M9.71748 48.4293C9.14931 49.1658 9.35445 48.8158 10.1718 48.6043C9.48258 47.5172 9.95821 48.3799 10.1737 48.0293C14.0228 46.9576 16.3336 45.6807 20.5153 44.973C20.8337 45.4397 20.8687 44.6769 20.5173 45.5839C21.8238 45.4538 20.7955 45.7256 21.6957 45.2134C21.8555 45.1224 22.3059 44.7179 22.4865 44.5378C23.3407 43.6865 23.3549 43.7243 23.8396 42.6981C23.1258 42.6596 20.9321 43.541 20.0397 43.8333C16.6954 44.9282 18.2892 41.7552 12.5286 46.0307C11.1004 47.0902 12.1448 46.1525 10.5613 46.8249C8.17216 47.8396 9.34733 46.9114 9.71683 48.4293H9.71748ZM67.0542 17.3318H69.27V7.81934H67.0542V17.3318ZM2.41797 79.8915L7.66029 79.5826L13.3304 79.4441L17.6602 79.4544L22.3829 79.496C22.5447 79.4871 22.9517 79.4582 23.076 79.4383C23.7535 79.3294 23.6564 79.323 23.9761 79.1608C16.2049 78.6057 10.725 78.7948 2.78747 78.7948C2.55451 79.0704 2.48786 79.6851 2.41797 79.8903V79.8915ZM20.8835 53.5515C19.8041 55.0848 19.1577 54.8976 17.8874 56.0502C17.8052 56.1245 17.5658 56.3412 17.4926 56.4283C17.0099 57.004 17.4111 56.4578 16.9808 57.261C18.4458 57.3148 20.7412 57.0899 21.7591 56.2309C22.4541 55.645 22.5919 54.963 22.9724 54.5419C23.4914 53.9669 22.9478 54.3034 23.7658 54.0291L24.6239 53.9163C23.6532 53.1464 21.6077 52.1856 20.8848 53.5503L20.8835 53.5515Z" fill="#FEFEFE"/>
<path fill-rule="evenodd" clip-rule="evenodd" d="M2.41882 86.8419L2.42076 86.7599L3.13065 82.278C4.6805 82.2799 4.87011 82.2447 5.98768 81.6395C7.08584 81.0453 7.40552 80.7736 7.66049 79.5826L2.41817 79.8915V86.8419H2.41882ZM10.1733 48.6043L10.6288 49.0979L19.9739 46.0646L20.5188 45.5839C20.8701 44.6769 20.8352 45.4397 20.5168 44.973C16.3345 45.6807 14.0243 46.9576 10.1752 48.0293C9.9597 48.3799 9.48407 47.5172 10.1733 48.6043ZM3.89425 55.747C2.51265 56.304 3.28919 55.6752 2.34375 56.8444C2.77926 57.3084 3.29113 57.1649 3.89037 57.0097C7.44759 56.088 8.86801 57.1931 10.2406 56.6341C9.80698 55.8656 10.1966 56.411 9.72804 55.8495C9.68015 55.7925 9.23623 55.4572 9.15404 55.3938C7.93034 55.3361 6.96289 55.2925 5.73725 55.497C4.5459 55.6963 3.89748 56.2963 3.89425 55.7463V55.747Z" fill="#FEFEFE"/>
<path fill-rule="evenodd" clip-rule="evenodd" d="M5.74131 53.9176C4.47555 55.4637 5.21909 54.2785 5.97233 54.7471L7.93764 54.2721L9.15422 55.3945C9.23641 55.4573 9.68033 55.7926 9.72822 55.8502C10.1967 56.4118 9.80717 55.8663 10.2407 56.6348L13.7973 59.4495L14.1875 59.4059L6.93784 52.3683C6.62657 52.6087 6.29525 52.692 5.99304 53.0837C5.4624 53.7721 5.66689 53.2343 5.74131 53.9176ZM18.0172 48.6403L15.7911 50.9004C15.3698 51.6703 15.718 51.3934 14.8935 52.0671C14.6444 52.2703 14.2082 52.4536 13.9694 52.5587L13.0279 51.7671C11.8003 51.0274 11.3551 50.3569 10.6284 49.0979L10.1728 48.6044C9.60527 49.9364 10.3385 49.7819 11.9375 51.4395C13.0454 52.5875 12.8279 52.983 14.2374 53.9176C17.1274 49.6428 18.2657 50.6248 18.0165 48.6403H18.0172Z" fill="#FEFEFE"/>
<path fill-rule="evenodd" clip-rule="evenodd" d="M3.89437 55.747C3.89696 56.2969 4.54538 55.697 5.73737 55.4976C6.96366 55.2925 7.93111 55.3361 9.15417 55.3944L7.93758 54.272L5.97228 54.747C5.21903 54.2778 4.47549 55.4636 5.74125 53.9175C4.83917 54.2816 5.1129 53.8938 4.28588 54.7246C3.17478 55.8393 3.91508 54.931 3.89502 55.747H3.89437ZM16.0848 57.695L16.9811 57.2616C17.4114 56.4585 17.0108 57.0046 17.493 56.429C17.5661 56.3418 17.8055 56.1258 17.8877 56.0508C19.1586 54.8983 19.8045 55.0854 20.8839 53.5522C19.3728 53.5522 19.0208 54.4752 18.2087 55.2906C17.2833 56.22 16.7073 56.5796 16.0842 57.6956L16.0848 57.695ZM13.0285 51.7676L13.97 52.5593C14.2095 52.4541 14.6456 52.2708 14.8941 52.0676C15.7186 51.3939 15.3704 51.6708 15.7917 50.901C15.0682 50.9811 14.6243 51.0318 14.1163 51.1978C12.7153 51.6548 13.6018 51.3888 13.0291 51.7676H13.0285ZM20.5991 88.6739L20.5286 89.495C21.7258 89.0636 20.8056 89.6655 21.5375 88.9611C21.7607 88.7463 21.9387 88.5982 22.1244 88.0585C22.547 86.8342 22.1192 86.5611 21.6242 86.124V87.9425L20.5985 88.6745L20.5991 88.6739ZM19.974 46.0646C19.3618 47.1447 19.1606 47.7248 18.0171 48.6402C19.2589 48.3158 18.0993 48.8357 18.9244 48.3242C18.9664 48.2979 19.6233 47.7062 19.71 47.6242C20.9447 46.4582 20.8056 47.0447 20.5182 45.5833L19.9734 46.064L19.974 46.0646Z" fill="#FEFEFE"/>
<path fill-rule="evenodd" clip-rule="evenodd" d="M20.5271 89.4951L20.5976 88.674C18.8537 89.0374 19.6373 89.063 17.9108 88.674C18.7236 89.6996 18.9242 89.5162 20.5271 89.4951ZM9.15786 89.04C8.09464 88.9605 8.06682 88.8688 7.16797 88.674L7.2068 89.4041L8.3302 89.672C10.0179 89.2156 8.48939 89.7169 9.15786 89.04Z" fill="#FEFEFE"/>
<path fill-rule="evenodd" clip-rule="evenodd" d="M7.20728 89.404L7.16845 88.6739L6.48057 87.6733C6.42944 87.733 5.76938 87.3817 6.26119 88.4291C6.63264 89.2201 6.65852 88.9291 7.20728 89.4034V89.404ZM13.9406 32.6979C13.9406 33.703 14.6213 32.5357 14.7812 32.3319C14.1438 32.5915 14.3664 32.3787 13.9406 32.6979Z" fill="#FEFEFE"/>
</g>
<defs>
<clipPath id="clip0_833_9443">
<rect width="188" height="103" fill="white" transform="translate(0.201172 0.0882568)"/>
</clipPath>
</defs>
</svg>
