<svg width="234" height="40" viewBox="0 0 234 40" fill="none" xmlns="http://www.w3.org/2000/svg">
<g clip-path="url(#clip0_833_9723)">
<path fill-rule="evenodd" clip-rule="evenodd" d="M206.205 21.5908H211.469V9.16991C211.504 9.21169 211.563 9.21819 211.577 9.29371C211.591 9.36923 211.663 9.39245 211.681 9.42123L217.649 21.5905H222.684L228.771 8.88826L228.864 21.5905H233.899V0.264404H228.177L222.136 12.3582C221.359 13.6519 220.582 15.7166 219.937 16.2007C219.725 15.27 216.781 9.50696 216.124 8.15379C215.739 7.363 215.501 6.99746 215.134 6.35461C214.777 5.72879 214.494 5.05499 214.138 4.32733C213.443 2.90328 212.846 1.60148 212.155 0.264404H206.204V21.5905L206.205 21.5908ZM167.982 21.5908H173.246V4.24871H184.919V10.342H175.535V13.1542C176.405 13.7503 177.054 14.4873 177.882 15.2038L182.816 19.5267C183.436 20.0238 183.474 20.0191 184.057 20.5998C184.49 21.0312 184.91 21.2705 185.377 21.5911H191.786L188.582 18.7786C188.117 18.431 187.902 18.189 187.437 17.8414L183.089 14.0917C186.815 14.0917 190.184 14.7714 190.184 12.217V2.13972C190.184 1.00599 189.46 0.265023 188.353 0.265023H167.983V21.5911L167.982 21.5908ZM53.5426 2.60832V19.2475C53.5426 20.6997 53.9265 20.778 54.4582 21.5911H75.2864C77.7901 21.5911 77.1173 17.3583 77.1173 14.0917C77.1173 12.9017 75.0149 13.3888 71.8531 13.3888V17.6071H58.8068V4.24902H71.8531V8.23303H77.1173C77.1173 4.75229 77.8315 0.265023 75.2864 0.265023H55.3738C54.0097 0.265023 53.5426 1.21088 53.5426 2.60863V2.60832ZM128.615 2.13941V19.7161C128.615 20.7808 129.104 20.9384 129.531 21.5908H151.045C151.654 20.8947 151.926 20.7681 151.961 20.1847V13.3885C145.576 13.3885 146.697 12.3418 146.697 17.6068H133.88V4.24871H146.697V8.23272H151.961V1.20222C151.281 0.579175 151.157 0.301236 150.588 0.264714H129.531C129.104 0.917159 128.615 1.0747 128.615 2.13941ZM6.16455 4.24871H17.6085V10.8106H6.16455V4.24871ZM0.900391 21.5908H6.16455V14.7946H21.9573C22.3842 14.1422 22.8729 13.9846 22.8729 12.9199V2.13972C22.8729 1.07501 22.3842 0.917468 21.9573 0.265023H0.900391V21.5911V21.5908ZM36.8345 5.18622L41.1831 13.8574H32.9433L35.8388 7.4478C36.2363 6.62234 36.6296 6.08689 36.8345 5.18622ZM23.7882 21.5911H29.2812L31.1164 17.8436L43.2428 17.8414C43.325 18.8532 44.4084 20.7462 44.8449 21.5911H50.3379C46.8384 14.8194 43.4308 7.27293 39.8096 0.265023H34.3166C32.5204 3.74081 30.8854 7.2949 29.1295 10.8899L23.7882 21.5914V21.5911ZM93.3677 21.5908H98.6319V12.9199H110.991V8.93592H98.6319V4.48301H113.967V0.264714H93.3677V21.5908ZM117.858 21.5908H123.122V0.264714H117.858V21.5908ZM82.6102 21.5908H87.8744V0.264714H82.6102V21.5908ZM195.448 21.5908H200.712V0.264714H195.448V21.5908ZM186.064 30.7306C186.064 32.8501 185.643 37.4674 186.521 39.1675H196.363C197.542 39.1675 197.05 36.8536 197.05 33.5431H191.557C190.691 33.5431 190.87 34.0897 190.87 35.4178H194.532V37.2925H188.581V31.1992H194.532V32.6053H197.05V29.5588C195.361 28.729 190.25 29.0902 187.666 29.0902C186.598 29.0902 186.064 29.6368 186.064 30.7306H186.064ZM123.351 29.7934V33.3088C124.261 33.8019 129.981 35.8604 131.132 35.8867V37.2928H125.868V35.6524H123.351C123.351 40.1818 121.996 39.1678 132.964 39.1678C134.058 39.1678 133.65 37.0056 133.65 34.7152C132.332 34.4008 130.746 33.7657 129.502 33.3385C128.729 33.0733 128.246 32.9492 127.383 32.6954C126.087 32.3141 125.899 32.5747 125.869 31.1998H131.133C131.133 32.8501 130.933 32.6059 133.65 32.6059V29.5594C131.969 28.6486 127.074 29.0908 124.953 29.0908C124.113 29.0908 123.847 29.4539 123.351 29.7937L123.351 29.7934ZM162.26 39.1675H164.778L165.091 32.9879C165.284 33.2231 165.216 33.1569 165.406 33.3686C165.704 33.6997 165.894 33.8669 166.208 34.1878L170.5 39.1678H173.246V29.7937C173.246 28.837 172.529 29.0908 170.729 29.0908V35.6527L164.778 29.3245C164.751 29.2939 164.688 29.2298 164.666 29.2054C164.419 28.9367 162.654 29.0908 162.26 29.0908V39.1681V39.1675ZM84.6703 39.1675H87.1879V31.1995H92.4521V34.0117H88.1035C88.1035 35.5401 88.6129 35.8032 90.8065 37.5717C91.1635 37.8595 91.0813 37.7125 91.4782 38.0558C93.1123 39.4687 91.6768 39.1678 95.6562 39.1678C95.2841 38.599 95.2739 38.62 94.7412 38.2297L91.7653 35.6524C95.616 35.6524 94.9698 36.8301 94.9698 29.5591C94.52 29.3155 94.2948 29.0905 93.5965 29.0905H84.6703V39.1678V39.1675ZM64.071 31.1995H69.3351V34.246H64.071V31.1995ZM61.5533 29.7934V39.1675H64.071V36.121H70.9372C72.4217 36.121 71.8528 32.7338 71.8528 29.5591C70.1347 28.6281 64.4618 29.0905 62.2398 29.0905C61.7123 29.0905 61.5533 29.2536 61.5533 29.7934ZM37.7498 38.4646C37.7498 39.0047 37.9091 39.1675 38.4363 39.1675H48.2782C49.178 37.4265 48.7358 32.0173 48.7358 29.7934C48.7358 28.8367 48.0182 29.0905 46.2181 29.0905V36.5899C46.2181 37.828 43.6264 37.2928 40.2672 37.2928V29.7934C40.2672 28.8367 39.5496 29.0905 37.7495 29.0905V38.4646H37.7498ZM107.787 29.7934V39.1675H110.305V29.0902H108.474C107.946 29.0902 107.787 29.2533 107.787 29.7931L107.787 29.7934ZM146.696 29.7934V39.1675H149.214V29.0902H147.383C146.856 29.0902 146.697 29.2533 146.697 29.7931L146.696 29.7934Z" fill="#FEFEFE"/>
</g>
<defs>
<clipPath id="clip0_833_9723">
<rect width="233" height="39" fill="white" transform="translate(0.900391 0.264771)"/>
</clipPath>
</defs>
</svg>
