<svg width="220" height="59" viewBox="0 0 220 59" fill="none" xmlns="http://www.w3.org/2000/svg">
<g clip-path="url(#clip0_833_9527)">
<path fill-rule="evenodd" clip-rule="evenodd" d="M86.1764 52.7016C85.7902 53.4325 85.3155 54.3147 85.0045 55.0913L87.568 55.0199C87.2116 54.255 86.8443 53.2398 86.1764 52.7016L86.1764 52.7016ZM106.071 57.7661C106.148 56.854 106.125 56.1293 106.112 55.2208L106.178 53.8315L108.858 57.7376C111.774 57.8607 110.835 56.2216 112.769 53.6676C113.031 53.321 112.974 53.4037 113.238 53.1755L113.262 57.7251L115.268 57.7641L115.261 50.8698L112.001 50.9244L109.744 55.0482C109.528 54.8472 109.582 54.9259 109.307 54.5569C106.913 51.3513 109.271 50.7821 104.067 50.9003L104.102 57.7598L106.071 57.7661V57.7661ZM190.091 52.959C191.532 54.2651 192.726 56.3541 193.992 57.7626L197.281 57.7774L197.299 50.8799L195.176 50.8955L195.089 55.685C190.288 50.7199 193.237 50.8557 187.959 50.8895L188.024 57.7656L190.051 57.743L190.091 52.959ZM212.594 52.701C212.958 52.259 215.096 52.2294 215.88 52.403C217.326 52.7233 216.07 52.6027 217.13 52.9253C217.822 53.1357 218.117 53.0657 218.854 53.0654C218.697 50.687 217.664 50.7861 215.36 50.7898C213.687 50.7926 212.177 50.7395 210.751 51.4242C209.359 57.3579 214.625 53.8896 216.938 55.5146C216.596 56.5682 215.035 56.4906 213.655 56.3001C211.929 56.0619 213.319 56.1235 212.345 55.713C211.654 55.4219 211.315 55.5171 210.491 55.5056C210.527 57.6819 211.115 57.8579 213.362 57.8579C215.913 57.8579 220.619 58.2217 218.952 54.4855C218.041 52.4439 213.332 54.6206 212.594 52.701ZM40.1644 55.8682C39.5867 53.5242 39.621 52.5797 42.169 52.5448C42.4252 52.5413 43.3706 52.5733 43.5941 52.6233C45.3424 53.0147 43.9427 53.5206 46.5679 53.3683C46.9573 50.104 43.3461 50.8053 40.7599 50.8085C37.7458 50.899 37.4988 52.4167 37.8198 55.5396C38.1063 58.3275 40.4978 57.8541 43.031 57.8608C45.7124 57.8677 46.7137 57.904 46.7315 55.1349C43.5597 55.0994 44.355 56.9804 40.1644 55.8682ZM68.5265 51.1032L66.5229 51.0104C66.5282 51.3509 66.5864 52.1046 66.5577 52.3916C66.4371 53.5972 66.5238 52.8417 66.232 53.3024L62.0084 53.3501L62.032 50.8981L59.9242 50.8835L59.9876 57.7851L62.012 57.7489L62.0154 55.1665L66.4274 55.1737L66.4403 57.7159L68.5396 57.7399L68.5265 51.1032L68.5265 51.1032Z" fill="#FEFEFE"/>
<path fill-rule="evenodd" clip-rule="evenodd" d="M86.1756 52.7016C86.8435 53.2398 87.2107 54.255 87.5671 55.0199L85.0037 55.0913C85.3147 54.3147 85.7894 53.4325 86.1756 52.7016L86.1756 52.7016ZM81.3164 57.7751C85.706 57.7056 82.6669 56.8171 84.7611 56.5471C85.5627 56.4437 87.8311 56.4165 88.4885 56.8785C89.2414 57.4075 88.327 57.4219 89.6152 57.7345C89.9386 57.8129 90.9274 57.7771 91.3189 57.7834C90.9551 56.7176 88.1699 51.4581 87.3161 50.8808L86.1805 50.8799C84.6303 50.8742 84.7725 51.0608 84.0444 52.5177C83.3212 53.965 81.7417 56.4512 81.3164 57.7751V57.7751ZM112.02 11.4681C114.102 12.1619 115.931 18.1989 116.973 20.6625C119.683 27.0749 119.11 26.7246 112.014 26.7255C104.332 26.7266 104.637 27.3328 107.204 20.812C108.294 18.0415 110.269 12.9684 112.02 11.4681V11.4681ZM94.6346 40.4914L101.258 40.2014C100.767 39.7386 100.247 39.3472 100.085 38.6625C99.7125 37.0884 101.797 32.5484 102.45 31.1264C104.315 27.0674 107.449 27.7895 112.298 27.7895C120.544 27.7896 120.718 27.8264 123.98 35.8344C125.001 38.3393 125.578 38.817 123.331 40.4658L133.698 40.5157C132.53 39.1432 131.839 39.2134 130.262 36.6597C128.606 33.9769 120.256 15.1635 118.604 11.3408C117.158 7.99447 115.859 4.18183 114.206 0.965336C113.544 2.0237 112.598 4.78927 112.125 6.10913C109.917 12.2775 101.43 31.4744 98.1226 36.4638C97.043 38.0926 95.9106 39.2542 94.6346 40.4914H94.6346ZM172.202 52.9256C172.9 53.8612 172.884 55.1587 172.16 55.7789C171.51 56.1881 170.328 56.1393 169.334 56.1063C167.899 56.0586 167.501 55.9246 167.492 54.3772C167.484 52.9275 167.691 52.6844 169.042 52.5619C170.067 52.4691 171.481 52.491 172.202 52.9256L172.202 52.9256ZM165.425 56.0838C165.823 58.3461 169.425 57.977 171.93 57.8512C175.144 57.6898 175.233 55.4183 174.74 52.6827C174.301 50.2455 170.587 50.6924 168.205 50.8218C165.072 50.9919 164.904 53.1156 165.425 56.0838V56.0838ZM130.709 52.5904C131.877 52.5904 134.709 52.0744 134.66 53.5093C134.617 54.8206 131.907 54.3194 130.74 54.3203L130.709 52.5904ZM131.034 56.0366C133.976 56.0366 138.235 56.7093 136.672 52.1707C136.004 50.23 130.68 50.59 128.602 51.0292L128.593 57.7221L130.466 57.7573C130.874 57.0405 130.533 57.4999 130.713 56.9268L131.034 56.0366H131.034ZM10.2853 2.29674C9.2102 2.51756 6.70321 4.73531 5.55327 5.9865C1.01365 10.9259 -0.908482 18.2997 1.08463 25.2809C3.26467 32.9167 10.279 39.5131 19.4729 40.4415C19.719 46.9159 20.1072 48.4589 21.1049 54.4446C21.3046 55.6428 21.5188 57.8833 22.082 58.7648C22.452 55.7714 23.0324 52.864 23.5198 49.8826C24.6158 43.1767 23.9922 46.0679 24.3827 40.5102C29.36 39.6326 33.2265 38.1422 36.2039 35.2956C37.7724 33.7961 38.9009 32.8555 40.21 30.7709C44.1712 24.4633 44.6603 16.9721 41.4834 10.6665C40.024 7.76986 35.3935 2.3436 33.1837 2.09228L34.0718 3.01042C43.1776 11.756 42.649 23.7584 34.2392 30.7712C31.862 32.7533 28.3989 34.9821 24.3107 35.1085L24.5017 27.2202C26.8975 25.7789 26.8857 27.2369 27.303 25.9138C26.78 25.5799 17.8577 25.2436 16.5292 25.9138C16.9014 26.6247 16.4677 26.105 17.228 26.4497C19.8163 27.6232 19.5277 25.3184 19.5055 35.1733C7.74291 33.9168 -0.112529 21.5531 4.47272 10.3192C5.63014 7.48344 7.35914 5.10384 9.52366 3.13661L10.2853 2.29672L10.2853 2.29674ZM52.3731 0.807854C53.9451 2.24712 54.8132 2.48795 54.816 5.42093L54.8198 26.4831C54.8197 32.924 59.4228 38.0239 64.2992 39.601C67.3863 40.5994 71.1319 40.7331 74.5355 40.3686C78.2702 39.9688 80.0227 39.1893 82.521 37.3331C88.0159 33.2506 87.8938 29.0457 87.8939 20.5059C87.8939 16.8058 87.895 13.1058 87.894 9.40566C87.8927 4.42815 87.1213 3.2812 90.4455 0.797441L79.3599 0.819058C80.8712 2.11067 81.8588 1.71372 82.0304 4.83437L82.0357 24.4907C82.0354 28.9056 82.6381 32.8676 80.3989 36.054C78.6832 38.4953 75.2491 39.5954 71.1263 39.5385C59.0586 39.3719 60.6834 30.9356 60.6832 24.206L60.7007 4.57763C60.7674 3.73783 61.0115 2.89641 61.4848 2.29453C62.013 1.62287 62.6861 1.43827 63.3416 0.774426L52.3731 0.80783L52.3731 0.807854ZM149.119 5.42093C149.119 3.016 149.558 2.4038 151.318 0.775265L141.388 0.764771C142.222 1.80571 142.593 1.66929 143.105 2.99558C143.837 4.89416 143.461 23.1868 143.46 25.9138C143.46 28.9173 143.843 37.0063 142.981 38.7529C142.512 39.7039 142.077 39.717 141.251 40.4955L151.217 40.4864C150.361 39.5907 149.575 39.4983 149.239 37.8114L149.182 25.0577C149.862 19.1152 155.69 20.5624 160.631 22.1378C163.717 23.1218 166.627 24.8295 169.059 26.7818C174.515 31.1621 175.043 35.4033 176.942 40.0802C178.355 31.929 173.838 23.7841 167.243 20.0588C166.819 19.8196 166.286 19.5854 165.729 19.3105C165.511 19.2032 165.173 19.0277 164.99 18.9087C164.636 18.6784 164.706 18.725 164.499 18.5136L173.677 5.48368C174.497 4.31705 176.003 2.24162 176.439 1.20551L163.68 13.6714C157.684 20.2866 149.119 22.681 149.119 15.0981L149.119 5.42091L149.119 5.42093ZM186.952 0.843914C188.401 1.8997 189.377 2.94927 189.376 5.42093L189.372 26.4831C189.371 30.8398 190.061 32.6883 192.243 35.1341C194.041 37.1476 195.694 38.7409 198.964 39.7683C207.952 42.5925 214.599 37.3612 219.074 40.2639L219.051 27.8705C217.834 29.2676 217.158 31.8828 214.409 34.9232C209.027 40.8766 195.041 43.2899 195.036 28.7601C195.034 21.6934 195.222 21.7705 202.183 20.678C196.629 20.0649 195.033 21.1589 195.035 14.8135C195.039 4.15586 193.606 1.8818 202.289 1.86906C207.741 1.87091 210.266 1.28646 214.106 4.10375C218.143 7.06578 217.976 10.093 219.067 13.0591L219.051 0.787786L186.952 0.843937V0.843914ZM150.021 57.7747L152.085 57.7708L152.077 50.8786L149.966 50.9001L150.021 57.7747ZM66.2311 53.3024C66.523 52.8417 66.4363 53.5972 66.5568 52.3916C66.5856 52.1046 66.5273 51.3509 66.522 51.0104L68.5257 51.1032C68.1005 50.646 69.0615 50.7885 67.4588 50.724C67.022 50.7065 66.8459 50.7859 66.479 50.8468C66.0259 51.7572 66.2014 52.1808 66.2311 53.3024Z" fill="#FEFEFE"/>
<path fill-rule="evenodd" clip-rule="evenodd" d="M33.1835 2.09228C32.8826 1.18406 33.255 1.64918 32.382 1.22932C32.0979 1.09274 31.5431 0.988085 31.1879 0.937256C32.164 1.57843 31.8789 1.99821 33.1835 2.09228ZM10.2852 2.29673C11.479 2.01031 11.4014 1.845 12.1683 1.12799C11.7078 1.28056 11.5105 1.31331 11.0789 1.55052C10.0994 2.0889 10.6371 1.72809 10.2852 2.29674V2.29673Z" fill="#FEFEFE"/>
</g>
<defs>
<clipPath id="clip0_833_9527">
<rect width="219" height="58" fill="white" transform="translate(0.300781 0.764771)"/>
</clipPath>
</defs>
</svg>
