<svg width="199" height="68" viewBox="0 0 199 68" fill="none" xmlns="http://www.w3.org/2000/svg">
<g clip-path="url(#clip0_833_9705)">
<path fill-rule="evenodd" clip-rule="evenodd" d="M160 24.615V25.8115H159.7V26.4096H159.4V27.3069H159.101V28.8025H159.4V31.4944H159.101V32.99H159.4V33.2891H159.7V34.1864H160.3V34.4856H163V34.1864H163.601V33.8874H163.9V32.0927H164.2V30.2981H163.9V28.2042H164.2V26.7088H163.9V20.7267H163.601V20.4274H163.3V20.1284H163V19.5301H162.4V18.9321H162.1V18.633H160.901V18.3338H160V18.633H158.201V18.9321H157.9V19.5301H157V18.633H154.901V18.9321H154.3V19.2311H154.001V18.633H154.6V18.0347H155.2V17.7355H155.501V5.17311H155.801V4.57482H156.4V4.87407H157.601V4.57482H158.201V4.87407H159.4V5.77139H159.7V6.07042H160V6.36945H160.6V6.66849H161.5V6.96773H163.3V6.66849H163.601V6.36945H164.2V5.17311H163.9V3.37848H163.3V3.07944H163V2.7802H162.7V2.48116H162.4V2.18213H162.1V1.88288H161.801V1.2846H161.5V0.98557H160.901V0.686537H160.6V0.38729H160.3V0.0882568H156.1V0.38729H154.3V0.0882568H151.6V0.38729H151.301V0.686537H150.7V6.66849H151V8.46333H150.7V13.8472H151V18.633H150.7V24.615H151V25.2133H150.7V28.2042H151.9V28.5035H153.4V28.8025H154.001V28.5035H155.501V22.8203H155.801V22.5213H156.4V22.2223H156.701V21.923H157V21.624H158.8V21.325H159.7V21.624H160V21.923H160.3V22.2223H160.6V24.3159H160.3V24.615H160ZM0.700317 12.3516H1.30038V13.2489H0.700317V13.8472H0.400391V17.4365H0.700317V17.7355H9.10041V18.633H8.80048V23.1194H9.10041V22.8203H9.40055V23.4186H9.10041V25.8115H8.80048V28.5035H9.10041V28.8025H10.3003V29.1015H10.0004V29.6998H9.70047V29.9989H9.40055V30.2981H9.10041V30.8962H8.80048V34.1864H9.40055V33.5881H10.9004V33.8874H11.8004V33.5881H12.7004V33.8874H13.0005V34.1864H13.6004V30.5971H13.0005V29.9989H13.3004V29.6998H13.6004V29.1015H13.3004V28.5035H13.9003V26.1106H13.6004V24.9142H13.3004V24.615H12.1005V24.9142H11.2003V24.3159H11.5005V24.0169H11.8004V23.7177H12.1005V23.4186H12.4005V23.1194H13.0005V22.8203H13.9003V21.923H13.6004V15.0436H9.10041V15.3428H5.80036V15.0436H5.2005V12.6509H4.90036V12.0526H5.2005V7.86505H4.90036V6.36945H5.2005V5.17311H8.80048V11.4543H9.40055V11.7535H11.8004V11.4543H12.1005V11.7535H13.3004V11.4543H13.9003V5.47214H13.6004V4.57482H13.3004V3.37848H13.0005V2.48116H12.7004V2.18213H12.4005V1.88288H12.1005V1.2846H11.2003V0.98557H10.6005V0.686537H10.3003V0.38729H9.70047V0.0882568H7.30042V0.38729H4.30051V0.686537H4.00037V0.98557H3.40051V1.2846H2.80045V1.58385H2.20038V1.88288H1.90045V2.18213H1.60053V2.48116H1.30038V3.07944H1.00046V3.97654H0.700317V5.77139H1.00046V6.66849H0.700317V7.26677H0.400391V11.7535H0.700317V12.3516ZM52.0004 13.2489V7.86505H52.3003V5.17311H55.9003V15.0436H50.5004V15.3426H49.9005V15.6416H49.3004V14.7443H49.6004V14.4453H49.9003V14.1462H50.8003V14.4453H51.1002V14.1462H51.7001V13.2489H52H52.0004ZM47.5004 16.8382H47.8004V17.1372H48.1003V17.4362H48.4002V17.7353H51.4003V17.4362H53.8004V17.7353H55.9003V22.8201H56.2002V23.1192H56.5002V23.4182H56.8001V24.0165H56.5002V24.3155H56.2002V24.9138H55.9003V27.3067H56.2002V28.503H58.0002V28.8021H58.3002V28.503H58.9V28.8021H60.7V25.2128H60.4001V24.9138H60.1001V24.6148H59.5003V24.0167H59.8002V23.7177H60.1001V23.4186H60.7002V18.633H60.4003V16.5391H60.7002V6.36967H60.4003V4.87407H60.7002V3.97676H60.4003V3.07944H60.1004V2.48138H59.8004V2.18234H59.5005V1.88331H58.9004V1.58428H58.6005V0.986212H58.3006V0.687178H57.7005V0.388145H54.1005V0.0891118H51.4006V0.388145H50.8005V0.687178H50.2006V0.986212H49.6006V1.28524H49.0005V1.58428H48.7006V1.88331H48.4007V3.97697H48.1007V4.27601H47.8008V4.87429H47.5009V15.0438H47.2009V16.5394H47.5009V16.8384L47.5004 16.8382ZM28.3004 34.1864H29.2004V35.3829H29.5003V35.981H29.2004V35.682H28.6006V35.981H28.3004V36.5793H28.0005V38.673H28.3004V38.9722H32.5005V38.673H32.8004V36.28H32.5005V35.981H32.2005V35.682H31.9004V35.981H31.0004V35.3829H31.3005V35.0837H31.6005V34.1864H32.8004V24.0169H32.5005V23.7177H31.6005V23.1194H31.9004V22.8203H32.5005V22.5213H32.8004V12.9499H32.5005V12.6509H32.8004V6.36945H32.5005V5.17311H32.8004V4.87407H35.2005V4.57482H37.6005V4.27579H37.9004V3.67751H38.2004V1.58385H37.9004V0.98557H37.6005V0.686537H37.3004V0.38729H29.8005V0.686537H29.2004V0.38729H22.9005V1.2846H22.6005V3.67751H22.9005V4.27579H23.2004V4.57482H23.8005V4.87407H24.7004V4.57482H26.2005V4.87407H27.7004V5.17311H28.0005V12.3516H28.3004V13.548H28.0005V23.1194H28.3004V24.615H28.0005V28.5035H28.3004V29.4008H28.0005V33.8874H28.3004V34.1864ZM73.9004 8.46333V9.36064H73.6005V11.4543H73.9004V11.7535H74.8004V12.0526H74.5005V12.6509H74.2006V12.9499H73.9004V13.548H74.2006V13.8472H73.9004V18.3338H73.6005V21.325H73.9004V23.4186H74.2006V25.5123H73.9004V31.7937H73.6005V33.5881H73.9004V33.8874H74.2006V34.1864H75.4005V34.4856H74.8004V34.7847H76.3005V34.4856H76.6004V34.1864H76.9005V33.8874H78.4004V33.5881H78.7005V32.3918H78.4004V30.2981H78.7005V28.5035H78.4004V28.2042H78.7005V25.5123H78.4004V21.624H78.7005V17.7355H78.4004V17.1374H78.7005V13.8472H78.4004V13.548H78.1005V13.2489H77.2005V12.6509H77.8005V12.3516H78.4004V11.4543H78.7005V7.86505H78.4004V6.96773H78.7005V5.47214H78.4004V3.07944H78.7005V2.18213H78.1005V1.88288H76.0005V2.18213H74.5005V2.48116H73.9004V2.7802H73.6005V3.97654H73.9004V4.57482H73.6005V6.07042H74.8004V5.77139H75.1003V6.36945H74.8004V7.86505H74.5005V8.16408H74.2006V8.46333H73.9004ZM105.4 11.1553H105.701V11.4543H106V12.3516H105.701V12.6509H105.1V12.9499H104.8V14.1462H104.5V15.0436H103.301V12.6509H103.001V12.3516H102.7V12.0526H102.1V11.4543H102.401V11.1553H103.301V10.856H103.6V10.258H103.301V7.86505H101.8V7.26677H103.001V6.96773H101.501V7.56601H100.301V7.26677H100.601V6.96773H99.4004V7.26677H100V7.56601H99.7005V7.86505H99.1005V8.16408H98.8005V8.76236H98.5004V11.1553H98.8005V12.9499H98.5004V17.1374H98.8005V17.7355H99.1005V17.4365H99.7005V17.1374H100.301V17.7355H101.2V17.4365H102.401V17.1374H103.301V17.4365H102.7V18.3338H103.301V17.7355H110.5V17.4365H110.8V17.1374H111.4V16.5391H111.101V16.2401H110.8V15.6418H110.5V15.3428H109.301V14.1462H109.6V12.9499H109.9V10.856H110.201V9.95871H110.5V8.16408H110.8V6.66849H111.101V6.07042H111.4V3.97654H111.7V2.18213H112.001V0.686537H111.7V0.38729H108.7V0.686537H108.1V0.98557H107.5V1.2846H107.2V1.88288H106.9V2.48116H106.601V4.57482H106.3V5.77139H106.601V6.07042H107.2V6.36945H108.1V6.66849H108.401V6.96773H108.7V7.26677H106V7.86505H105.701V9.65967H105.4V11.1553ZM133.001 16.8382V16.2399H133.601V16.8382H133.001ZM126.401 17.4362H127.001V18.3336H129.101V18.0345H129.401V17.7355H130.001V17.4365H131.801V17.1374H132.101V16.8384H133.001V17.4365H133.3V17.7355H133.901V17.4365H138.101V15.0436H130.901V15.3426H130.601V15.0436H129.401V9.95871H129.101V8.46311H129.401V4.57482H129.701V3.97654H130.601V3.67751H131.201V4.27558H131.801V3.97654H133.001V4.27558H133.3V4.87386H133.6V4.57482H133.9V4.27579H134.5V3.97676H135.4V4.27579H136V3.07944H136.3V2.78041H136.6V2.48138H136.9V0.387504H136.6V0.0884706H134.2V0.387504H133.3V0.0884706H131.5V0.387504H130V0.0884706H128.8V0.387504H128.5V0.686537H128.2V0.98557H127.6V1.2846H126.7V1.58364H126.4V1.88267H126.1V2.1817H125.8V3.07902H125.5V3.97633H125.2V4.27536H124.9V4.87364H124.6V15.9407H124.9V16.2397H125.2V16.5387H125.8V16.8378H126.1V17.1368H126.4V17.4358L126.401 17.4362ZM185.8 7.56601H186.1V7.86505H186.401V8.16408H186.7V8.46333H187.6V8.16408H188.8V8.46333H189.4V8.16408H190.001V4.87407H193.6V5.17311H193.9V5.47214H193.6V7.56601H193.9V8.16408H194.5V8.46333H195.4V8.76236H195.1V9.06161H194.5V9.36064H193.9V9.65967H193.6V12.9499H193.9V13.2489H194.201V13.548H195.1V13.8472H195.7V14.1462H196.901V13.8472H198.4V4.57482H197.801V4.27579H196.6V3.67751H197.501V3.37848H198.1V2.7802H197.801V2.48116H197.501V1.88288H197.2V1.58385H196.6V1.2846H196.3V0.98557H196.001V0.686537H195.7V0.38729H195.1V0.0882568H189.101V0.38729H188.5V0.686537H187.6V0.98557H187V1.2846H186.7V1.88288H186.1V2.18213H185.8V2.48116H185.501V3.07944H185.2V6.96773H185.501V7.26677H185.8V7.56601ZM191.801 39.8695V38.9722H192.1V38.0749H192.4V37.1776H192.701V35.981H192.4V35.682H191.801V35.3829H191.501V35.0837H190.601V35.3829H188.201V35.682H187.901V36.28H187.6V37.7756H187.301V38.3739H187V39.2712H187.301V39.5703H187V40.1685H186.7V41.0659H186.401V42.2622H186.1V43.7578H187.6V44.0571H188.5V44.3561H189.101V44.6551H188.201V44.3561H187.301V44.6551H187V44.9544H185.8V45.5524H185.501V45.8515H185.2V46.749H185.501V47.9453H186.1V48.2444H187V47.9453H188.8V48.2444H194.8V47.9453H195.7V48.2444H197.501V47.9453H198.1V47.048H198.4V43.4588H190.901V42.2622H191.2V41.6641H191.501V39.8695H191.801ZM189.101 34.1864H189.4V34.4856H190.901V34.1864H191.501V33.8874H193.301V33.5881H193.6V32.6908H193.9V32.0927H194.201V29.1015H194.5V28.8025H194.8V28.2042H195.1V27.3069H195.4V26.1106H195.7V25.2133H196.001V24.3159H196.3V22.8203H196.6V22.2223H196.901V21.0257H197.2V19.5301H197.501V18.3338H197.801V16.2401H197.2V16.5391H196.6V16.2401H196.001V15.9409H193.6V16.2401H193.301V16.5391H193V17.4365H192.701V18.633H192.4V19.8294H192.1V20.4274H191.801V21.624H191.501V23.4186H191.2V24.9142H190.901V25.8115H190.601V26.4096H190.3V27.3069H190.001V28.8025H190.3V29.4008H190.001V29.6998H189.7V29.9989H189.4V31.4944H189.101V32.0927H188.8V32.6908H188.5V33.2891H188.8V33.8874H189.101V34.1864ZM125.801 34.7847V34.1864H126.101V34.4856H126.4V34.7847H127.3V34.4856H127.6V34.1864H128.2V34.4856H127.9V34.7847H128.501V34.4856H128.8V33.8874H129.401V33.2891H129.7V32.3918H129.401V19.8294H127.9V20.1284H127.6V20.4274H127.3V20.7267H126.7V19.8294H125.5V20.1284H124.6V33.5881H124.9V33.8874H125.201V34.4856H125.5V34.7847H125.801ZM50.5004 34.7847H51.7005V34.4856H52.0004V34.1864H52.3003V29.9989H52.0004V29.6998H50.8005V29.4008H49.9005V29.1015H50.8005V28.5035H51.7005V28.2042H52.0004V27.9052H52.3003V26.4096H52.0004V25.2133H52.3003V24.0169H52.0004V23.4186H51.1004V23.7177H49.3004V23.4186H47.8004V24.3159H47.5004V24.615H47.2005V26.4096H47.5004V27.9052H47.8004V29.9989H47.5004V34.4856H47.8004V34.7847H48.1005V36.28H47.8004V36.5793H47.2005V38.673H47.8004V38.9722H52.0004V38.673H52.3003V36.28H52.0004V35.981H51.4006V36.28H49.0005V35.981H49.3004V35.682H49.6004V35.0837H49.3004V34.7847H49.0005V34.1864H50.2004V34.4856H50.5004V34.7847ZM107.2 28.5035H107.5V28.2042H108.1V29.1015H110.201V29.6998H108.401V29.9989H108.1V30.2981H107.8V30.5971H107.2V34.1864H107.5V34.4856H109V34.1864H109.6V33.8874H110.5V33.5881H111.101V35.3829H111.4V35.0837H111.7V34.7847H112.001V24.9142H111.7V25.2133H111.4V24.3159H111.101V23.7177H111.7V22.8203H112.001V21.0257H111.7V20.4274H112.001V19.5301H111.7V19.2311H111.101V20.1284H110.8V20.4274H109.6V20.7267H109V19.8294H109.301V19.2311H107.2V19.8294H107.5V21.325H107.2V28.5035ZM1.00046 29.4008H1.60053V29.9989H1.00046V29.4008ZM1.30038 27.3069H0.400391V28.5033H0.700317V31.1952H0.400391V34.1864H0.700317V35.682H0.400391V38.6732H0.700317V38.9722H3.70044V38.6732H4.90036V38.3741H5.20029V29.7H4.60022V29.401H4.90015V29.102H5.20007V27.3073H4.90015V27.0083H1.30017V27.3073L1.30038 27.3069ZM103.001 28.8025V28.5035H103.301V19.2311H101.2V19.8294H100.301V19.5301H98.8005V19.8294H98.5004V21.0257H98.8005V22.2223H98.5004V24.9142H98.8005V25.8115H98.5004V27.9052H98.8005V28.8025H99.1005V29.9989H99.4004V29.1015H100V29.4008H101.2V29.1015H102.7V28.8025H103.001ZM75.4005 44.6551H74.2006V44.9544H73.9004V45.2534H74.2006V45.5524H73.9004V47.048H73.6005V47.6463H73.9004V47.9453H74.2006V48.2444H75.1003V47.9453H76.0005V48.2444H77.2005V47.9453H79.6005V48.2444H81.1004V47.9453H82.9004V47.6463H83.2005V47.9453H85.0005V48.2444H86.2004V47.9453H86.5005V47.6463H86.8005V45.2534H83.5004V45.5524H82.6004V45.2534H82.9004V44.9544H82.0004V45.2534H79.0005V44.9544H81.1004V44.3561H78.7005V44.9544H78.1005V45.2534H76.6004V44.9544H76.3005V45.2534H75.7004V45.5524H75.1003V45.2534H74.5005V44.9544H75.4005V44.6551ZM125.201 45.2534V46.1507H125.5V46.4497H125.801V47.048H126.101V47.6463H126.4V47.9453H128.501V47.3471H128.8V47.048H129.1V47.3471H129.7V47.9453H136.9V47.6463H138.101V47.3471H138.4V46.1507H138.7V45.5524H138.4V45.2534H137.8V44.9544H136.301V44.6551H131.8V44.9544H128.2V45.2534H125.201ZM10.9004 47.6463V47.3471H11.2003V47.048H11.8004V46.1507H12.1005V45.5524H11.8004V44.9544H9.40055V44.3561H7.90049V44.6551H4.30051V44.9544H2.50052V45.2534H1.00046V45.5524H0.700317V45.8515H1.00046V46.1507H1.30038V46.4497H1.60053V47.048H1.90045V47.3471H2.50052V47.6463H3.10037V47.9453H3.40051V48.2444H8.50034V47.9453H10.6005V47.6463H10.9004ZM103.9 59.6104H104.5V60.2087H103.9V61.7043H103.001V62.0033H102.401V61.7043H101.501V59.0123H101.8V58.7131H101.501V58.4141H100.601V58.7131H100.301V66.7891H101.8V66.1909H101.501V64.9943H101.8V63.798H101.501V63.4989H101.8V63.1997H103.9V66.7891H105.4V65.8916H105.1V64.6953H105.4V62.9006H105.1V62.6016H105.4V58.7131H105.1V58.4141H103.9V59.6104ZM151.6 62.3024H151.301V61.106H151.9V62.0033H151.6V62.3024ZM152.2 60.5077H152.8V59.9097H153.1V59.6106H154.3V59.9097H154.9V60.807H155.2V62.9008H155.5V63.1999H155.8V63.4989H155.2V64.6953H154.9V65.2935H154.3V65.5926H154V65.8916H153.4V65.5926H153.1V65.2935H152.8V64.6953H152.5V64.0972H152.2V63.7982H151.9V63.4991H152.2V61.4055H152.5V61.1064H152.2V60.5082V60.5077ZM152.8 58.7131H152.2V59.3112H151.6V59.6102H151.301V60.5075H151.001V60.8065H150.701V63.4985H151.001V65.2931H151.301V65.5921H151.6V66.1902H151.9V66.4893H152.2V66.7883H155.2V66.4893H155.5V66.1902H155.8V65.8912H156.1V65.5921H156.4V64.6948H156.7V61.1056H156.4V59.9092H156.1V59.6102H155.8V59.0121H155.5V58.7131H154.9V58.4141H154.6V58.7131H154.3V58.4141H152.8V58.7131ZM143.501 61.405H143.2V62.6016H142.9V63.4989H142.601V63.798H142.3V64.3962H142V64.0972H141.701V62.9006H141.4V62.3024H141.1V61.7043H140.801V60.807H140.5V60.5077H140.2V59.3114H139.9V59.0123H139.3V58.4141H138.4V58.7131H137.8V66.7891H139.001V64.9943H138.7V64.3962H139.001V60.807H139.3V61.405H139.6V62.0033H139.9V63.1997H140.2V63.4989H140.5V64.0972H140.801V64.9943H141.1V65.5926H141.4V66.1909H141.701V66.4899H142V66.7891H143.501V61.405ZM6.40042 62.9006H7.00049V63.4989H6.40042V63.798H6.1005V65.2935H6.40042V66.1909H6.1005V66.4899H6.70035V66.1909H7.00049V66.7891H7.60034V66.4899H7.90049V63.4989H7.60034V63.1997H9.70047V65.2935H10.3003V64.3962H10.6005V64.0972H10.9004V64.3962H11.2003V61.405H11.5005V58.7131H11.2003V58.4141H10.0004V61.7043H7.90049V59.0123H7.60034V58.7131H7.30042V58.4141H6.40042V59.0123H6.1005V59.6104H6.40042V62.9006Z" fill="#FEFEFE"/>
<path fill-rule="evenodd" clip-rule="evenodd" d="M98.8005 2.1822V2.48123H98.5004V6.36952H98.8005V6.66855H99.4004V6.36952H100.601V6.66855H101.8V6.36952H103.001V6.07048H103.301V1.28467H100.9V1.58391H100.301V1.28467H99.7005V1.58391H99.1005V2.1822H98.8005ZM114.701 58.7132H114.1V59.3114H113.501V59.9097H114.1V60.5078H114.701V59.9097H115.3V59.6105H116.201V59.9097H116.8V60.807H117.1V62.9007H117.4V63.1997H117.7V63.499H117.1V64.9944H116.8V65.2936H116.201V65.5926H115.9V65.8917H115.3V65.5926H115V65.2936H114.701V64.6953H114.4V64.0973H114.1V63.798H113.801V63.499H114.1V61.4051H113.801V62.0034H113.501V62.3024H113.2V61.7043H112.901V65.2936H113.2V65.5926H113.501V65.8917H113.801V66.49H114.4V66.7892H117.1V66.49H117.4V66.1909H117.7V65.8917H118V65.5926H118.3V64.6953H118.6V60.2088H118.3V59.9097H118V59.6105H117.7V59.0124H117.4V58.7132H116.8V58.4141H116.5V58.7132H116.201V58.4141H114.701V58.7132ZM57.4004 29.6999V29.9989H56.5004V30.2982H55.9003V33.2891H56.2005V33.5882H56.5004V34.1865H59.8004V33.5882H60.4005V32.6909H60.7004V29.9989H59.8004V29.6999H59.5005V29.4008H58.9004V29.1016H58.3004V29.4008H57.7005V29.6999H57.4004ZM100 35.0838V34.7847H100.601V34.4857H100.9V33.8874H102.1V34.1865H103.301V31.7938H103.6V30.5972H103.301V30.2982H101.8V29.9989H99.7005V30.2982H99.4004V30.5972H98.8005V30.8962H98.5004V31.7938H98.8005V33.2891H98.5004V34.1865H98.8005V34.4857H99.1005V34.7847H99.4004V35.0838H100ZM128.8 62.0034H128.501V62.3024H127.301V59.3112H127.601V59.6103H127.9V59.9093H128.8V60.5074H129.1V61.7039H128.8V62.003V62.0034ZM128.201 64.0973H128.8V63.7982H128.501V63.1999H128.8V62.6019H129.401V62.3028H130.301V59.3117H130.001V59.0126H129.701V58.7136H129.101V58.4146H128.501V58.7136H127.901V58.4146H126.101V60.2092H126.401V60.5082H126.101V66.7894H127.301V63.4992H128.201V64.0975L128.201 64.0973ZM186.1 9.3607V9.65974H185.501V9.95877H185.2V12.95H189.7V12.6509H190.001V9.3607H189.4V9.06167H189.101V8.76242H188.5V8.46339H187.901V8.76242H187.301V9.06167H186.7V9.3607H186.1ZM19.0006 64.9944H19.3005V64.6953H19.6004V65.2936H19.0006V66.7892H22.6005V65.5926H20.2005V63.1997H22.0005V62.9007H22.3004V61.7043H20.2005V60.807H19.6004V60.2088H20.2005V59.6105H22.6005V58.7132H22.3004V58.4141H19.0006V64.9944ZM162.7 11.7536H164.2V8.46339H163.9V8.16414H162.7V7.86511H162.1V8.16414H161.2V7.86511H159.4V9.06167H159.7V9.3607H159.4V11.1553H159.7V11.7536H160.6V12.0526H161.801V11.7536H162.4V11.4544H162.7V11.7536ZM175.3 59.0124H175.6V60.2088H175.901V60.807H176.2V61.1061H176.5V61.4051H176.801V63.1997H177.1V65.8917H177.401V66.7892H178.601V63.1997H178.9V62.6017H179.2V61.4051H179.501V60.807H179.8V60.2088H180.101V59.3114H180.4V58.4141H179.501V58.7132H178.9V59.0124H178.601V60.5078H178.301V60.807H178V61.7043H177.701V60.807H177.401V60.2088H177.1V59.3114H176.801V58.7132H176.5V58.4141H175.3V59.0124ZM53.2003 59.6105H54.7004V66.7892H56.2005V63.1997H55.9003V62.9007H56.2005V59.9097H56.5004V59.6105H58.0004V58.7132H57.7005V58.4141H53.2003V59.6105ZM126.101 35.682H125.801V35.9811H124.9V36.2801H124.6V36.8784H124.301V37.4767H124.6V39.2713H125.201V39.5703H126.101V39.2713H127.9V38.9723H128.2V38.673H128.8V38.9723H129.1V38.374H129.401V36.5794H129.1V36.2801H128.8V35.9811H127.9V35.682H127.3V35.383H126.101V35.682ZM164.2 64.9944H164.8V65.5926H165.101V65.8917H164.501V65.5926H164.2V66.1909H164.501V66.49H165.101V66.1909H165.7V65.8917H165.401V62.9007H166.301V62.3024H166.6V62.0034H165.401V59.6105H166.301V59.9097H166.9V60.2088H167.201V60.807H167.5V60.5078H168.4V59.3114H168.101V59.0124H167.801V58.7132H167.201V58.4141H164.501V58.7132H164.2V59.0124H163.9V62.0034H164.2V62.6017H163.9V63.798H164.2V64.9944ZM159.4 37.4767V38.9723H160V39.2713H163V38.9723H163.9V38.673H164.2V36.2801H163.9V35.9811H163V35.682H162.7V35.383H160.901V35.682H160.6V35.9811H160.3V36.2801H160V36.8784H160.3V37.1776H160V37.4767H159.4ZM151 31.1955V31.4945H150.7V32.3918H152.201V32.6909H152.8V32.9901H153.4V33.5882H153.7V33.8874H154.001V34.1865H153.4V33.8874H152.5V33.5882H152.8V33.2891H152.201V34.1865H152.5V34.4857H153.7V34.7847H154.3V34.4857H155.2V34.1865H155.501V30.5972H155.2V30.2982H152.8V30.5972H152.201V30.8962H151.6V30.2982H151.301V31.1955H151ZM68.5005 54.5258H67.3005V54.8249H74.5005V54.5258H74.8004V54.8249H80.8004V54.5258H81.4005V54.8249H87.7005V54.5258H88.3003V54.8249H92.8005V54.2266H90.4004V54.5258H89.8004V54.2266H83.5004V54.5258H83.2005V54.2266H68.5005V54.5258ZM47.5004 19.8294V20.1285H47.2005V21.325H47.5004V21.6241H48.1005V21.9231H48.4004V22.2223H49.3004V22.5214H52.0004V21.9231H52.3003V19.5302H52.0004V19.2312H49.9005V19.5302H49.6004V19.8294H49.0005V19.5302H48.7004V19.2312H48.1005V19.5302H47.8004V19.8294H47.5004ZM107.5 45.5525H107.2V47.9454H107.5V48.2444H112.001V47.0481H111.7V46.4498H112.001V45.2535H107.5V45.5525ZM99.7005 45.2535H99.4004V45.5525H99.1005V45.8515H98.8005V46.1508H98.5004V47.9454H98.8005V48.2444H103.001V47.9454H103.301V45.5525H103.001V45.2535H101.2V44.9544H99.7005V45.2535ZM12.1005 36.2801H9.10041V36.5794H8.80048V38.9723H11.2003V39.2713H12.7004V38.9723H13.3004V38.673H13.6004V38.374H13.9003V36.5794H13.6004V36.2801H13.0005V35.9811H12.1005V36.2801ZM49.3004 44.9544H48.7004V45.2535H47.5004V47.6464H48.1005V47.9454H48.4004V48.2444H49.6004V47.9454H51.4006V47.6464H52.3003V45.5525H52.0004V45.2535H51.7005V44.9544H50.5004V44.6552H49.3004V44.9544ZM98.8005 36.2801H98.5004V36.8784H98.8005V37.4767H98.5004V38.374H98.8005V38.673H99.7005V38.9723H100V39.2713H100.601V38.9723H103.001V38.673H103.301V37.4767H103.6V36.5794H103.001V35.9811H101.2V36.2801H100.9V35.9811H98.8005V36.2801ZM29.2004 45.2535H28.3004V45.5525H28.0005V47.3471H28.3004V47.9454H30.1004V48.2444H31.3005V47.9454H31.6005V47.6464H32.5005V47.3471H32.8004V45.2535H32.2005V44.9544H29.2004V45.2535ZM74.5005 35.9811V36.5794H74.2006V36.8784H73.9004V38.9723H76.9005V38.673H77.8005V38.9723H78.4004V38.673H78.7005V37.7757H78.4004V36.8784H78.7005V36.2801H78.4004V35.682H77.8005V35.9811H74.5005ZM145.6 44.9544H142.3V45.2535H141.4V47.9454H145.901V47.6464H146.201V47.0481H145.901V45.2535H145.6V44.9544ZM33.1003 63.499H33.7004V64.0973H33.1003V63.499ZM32.5005 61.1061V62.0034H32.8004V63.1997H31.9004V63.4988H31.3005V63.7978H30.1004V64.0968H30.4003V65.5924H30.1004V65.2934H29.8005V64.9944H29.5006V65.5926H29.8005V65.8917H30.1004V66.1907H30.4003V65.8917H30.7003V64.9944H31.0002V64.6953H31.6V64.0973H31.9V64.6953H33.0999V64.9944H33.3998V66.1907H33.6997V66.789H34.8997V66.49H35.1996V65.5926H34.8997V64.6953H34.5997V63.1997H34.2998V62.9007H33.9999V60.8068H33.7V59.6105H33.4V60.2088H32.8V60.8068H33.0999V61.1059H32.5L32.5005 61.1061ZM44.5005 64.3963H45.4005V64.9944H45.7005V64.3963H46.0004V64.0973H45.7005V63.499H45.4005V62.9007H45.7005V62.6017H45.4005V62.0034H43.3004V61.7043H43.0005V61.1061H42.4004V61.4051H42.1005V59.0124H41.8006V62.3024H42.4004V62.9007H41.8006V65.8917H42.1005V66.7892H43.3004V63.499H43.9005V63.798H44.2004V64.0973H44.5005V64.3963ZM19.6004 44.9544V45.2535H18.7004V44.9544H17.8004V45.2535H17.5005V47.3471H17.8004V47.6464H18.1003V47.9454H20.2005V48.2444H21.4004V47.9454H22.3004V45.2535H21.1005V45.5525H19.9003V44.9544H19.6004ZM152.5 45.2535H151.301V46.1508H151V46.4498H150.7V47.6464H151V47.9454H151.6V48.2444H152.5V47.9454H154.6V48.2444H155.501V45.5525H155.2V45.2535H153.101V44.9544H152.5V45.2535ZM160 13.8473V14.7446H160.3V15.3429H159.7V15.6419H159.4V16.2402H159.7V16.5392H161.5V16.8382H162.1V16.5392H162.4V16.8382H163V16.5392H163.3V16.2402H163.601V15.0436H163.9V14.7446H164.2V13.548H163.9V13.249H162.4V12.95H161.5V13.249H161.2V13.548H160.901V14.1463H160.6V14.4456H160.3V13.8473H160ZM55.9003 45.5525V47.6464H56.2005V47.9454H57.1005V48.2444H60.1004V47.9454H60.4005V47.6464H60.7004V46.7491H60.4005V45.2535H59.2004V45.5525H57.4004V45.8515H56.8005V45.5525H55.9003ZM5.2005 41.0659H4.60043V41.3652H1.90045V41.0659H0.400391V43.4588H0.700317V43.7579H1.60053V44.0571H2.50052V43.7579H4.90036V42.8606H5.2005V41.0659ZM160 45.8515H159.4V47.6464H159.7V47.9454H161.801V48.2444H163.9V47.9454H164.2V45.8515H163V45.2535H162.7V45.5525H160.901V45.2535H160V45.8515ZM188.8 60.2088H187.301V66.7892H190.901V65.5926H188.8V64.9944H188.5V64.6953H188.201V64.3963H188.5V63.798H188.8V61.4051H188.5V60.807H188.8V60.2088ZM167.201 45.8515V46.1508H166.9V46.4498H166.6V48.2444H171.1V47.9454H171.401V45.8515H171.1V45.5525H170.801V45.8515H168.701V45.5525H167.5V45.8515H167.201ZM64.6005 46.4498V47.6464H64.9005V47.9454H67.0004V48.2444H67.9006V47.9454H69.1005V47.6464H69.4004V45.8515H68.8004V45.5525H67.9006V45.2535H67.3005V45.5525H64.9005V46.4498H64.6005ZM91.6004 44.6552H90.7006V45.2535H90.4004V48.2444H92.5004V47.9454H93.4006V44.3561H91.6004V44.6552ZM10.0004 40.1686H9.40055V40.7669H9.10041V43.1596H10.3003V43.4588H13.6004V43.1596H13.9003V41.0659H12.4005V41.3652H10.0004V41.0659H9.70047V40.7669H10.0004V40.1686ZM115.9 46.4498H115.601V46.7491H115.9V47.6464H116.201V47.9454H119.5V47.6464H120.4V45.5525H119.2V45.8515H117.7V45.5525H117.1V45.2535H116.8V44.9544H115.9V46.4498ZM32.8004 42.5615H32.5005V41.0659H31.0004V40.7669H30.1004V41.0659H28.6006V40.7669H28.0005V43.4588H30.1004V43.1596H32.8004V42.5615ZM89.5005 59.6105H89.2005V59.9097H88.9004V61.1061H88.6005V64.3963H88.9004V65.5926H89.2005V65.8917H89.5005V66.1909H89.8004V66.49H90.1005V66.7892H91.3004V66.49H91.0005V66.1909H91.3004V65.8917H91.0005V65.2936H90.7006V64.9944H90.4004V64.6953H90.1005V62.3024H89.8004V61.1061H90.1005V60.807H90.4004V59.6105H90.1005V60.5078H89.5005V59.6105ZM56.2005 37.1776V38.075H55.9003V38.673H56.2005V38.9723H57.4004V38.673H58.3004V38.9723H60.1004V38.673H60.4005V37.4767H60.7004V36.2801H59.5005V36.5794H58.0004V36.8784H56.5004V37.1776H56.2005ZM151.9 41.3652H151.301V41.6642H150.7V42.5615H151V42.8606H151.301V43.1596H152.201V43.4588H155.2V43.1596H155.501V41.3652H154.901V41.0659H153.4V41.3652H152.201V41.0659H151.9V41.3652ZM107.5 37.4767H108.1V37.7757H108.7V38.075H109V38.374H109.301V38.673H111.101V38.9723H111.7V38.673H112.001V36.2801H110.201V36.5794H109.6V36.2801H107.2V37.1776H107.5V37.4767ZM38.8004 46.1508V46.4498H38.5005V47.6464H38.8004V47.9454H39.4005V48.2444H40.3005V47.9454H42.7003V48.2444H43.3004V46.1508H40.9003V45.8515H39.1004V46.1508H38.8004ZM107.2 43.1596H109V43.4588H111.7V42.8606H112.001V41.3652H111.4V41.6642H109V41.3652H108.7V41.0659H107.2V43.1596ZM164.2 41.6642H163.9V41.3652H163.601V41.0659H162.1V40.7669H161.5V41.0659H160.901V40.7669H159.7V41.0659H159.4V43.1596H160.901V42.8606H163V42.5615H163.9V41.9632H164.2V41.6642ZM153.4 36.2801V37.1776H153.101V37.4767H152.8V37.7757H152.5V38.075H152.201V38.374H151.301V38.9723H151.6V39.2713H152.201V38.9723H154.6V39.2713H155.501V35.9811H153.7V36.2801H153.4ZM60.4005 43.1596V41.9632H58.6005V41.6642H58.3004V41.3652H57.1005V41.0659H56.2005V41.3652H55.9003V43.4588H59.8004V43.1596H60.4005Z" fill="#FEFEFE"/>
<path fill-rule="evenodd" clip-rule="evenodd" d="M167.201 60.8071V61.4051H166.9V61.7044H166.6V62.3024H166.301V62.9007H165.401V63.1998H166.9V63.499H167.201V65.2936H167.5V66.1909H167.201V66.7892H167.5V66.49H168.101V66.1909H168.4V65.5927H168.701V64.9944H168.4V64.3963H168.701V63.1998H168.4V62.9007H167.801V62.6017H167.5V62.3024H167.801V62.0034H168.101V61.7044H168.4V60.5078H167.5V60.8071H167.201ZM153.101 29.4009H153.7V29.9989H153.101V29.4009ZM151 31.1955H151.3V30.2982H152.2V30.5972H152.8V30.2982H155.2V30.5972H155.5V28.8026H155.2V28.5036H154.001V28.8026H153.4V28.5036H151.9V28.2045H151.6V28.8028H151V31.1957V31.1955ZM74.2006 60.2088H73.9004V65.5927H74.8004V63.499H76.0006V63.1998H76.3005V62.6017H74.8004V60.8071H76.3005V59.9098H74.2006V60.2088ZM43.3004 61.7044V59.6105H44.8005V60.5078H46.3003V59.3115H46.0004V59.0124H45.4006V58.7132H45.1004V58.4142H42.4004V58.7132H42.1005V61.4051H42.4004V61.1061H43.0005V61.7044H43.3004ZM125.5 43.7579H126.4V43.4589H127.001V43.1596H127.6V42.8606H128.2V43.1596H129.1V42.8606H129.401V41.6642H129.1V41.3652H128.801V41.0659H127.901V41.3652H127.3V41.0659H126.4V41.3652H126.101V42.2623H125.5V42.8606H125.201V43.4589H125.5V43.7579ZM193.9 15.0436V15.3429H193.6V15.6419H193.9V15.941H195.7V15.6419H196.3V15.0436H196.901V15.3429H197.201V15.6419H196.6V15.941H196.901V16.5392H197.201V16.2402H197.801V14.7446H198.1V13.8473H196.901V14.1463H195.7V13.8473H195.1V13.548H194.201V14.1463H194.8V14.4456H195.1V14.7446H194.501V14.4456H194.201V15.0436H193.9ZM16.0005 4.57491V4.87416H15.7005V5.17319H15.4004V6.07051H17.8004V5.77147H19.3005V6.07051H19.9004V5.77147H20.8004V5.47223H21.7006V5.17319H20.5004V4.87416H20.2005V4.57491H18.4005V4.27588H17.5005V4.57491H16.0005ZM69.7004 64.0973H69.4005V63.1998H69.1005V63.499H68.8004V64.6954H69.1005V65.2936H69.4005V65.5927H71.8005V65.2936H72.1004V64.6954H72.4004V64.0973H72.7005V61.7044H72.4004V61.4051H72.1004V60.8071H71.8005V61.4051H71.5004V63.499H71.8005V63.798H71.5004V64.3963H71.2005V64.6954H70.9005V64.9944H70.3005V64.6954H70.0005V64.3963H69.7004V64.0973ZM28.0005 54.8249H39.1004V54.5259H39.4005V54.2266H28.0005V54.8249ZM73.9004 41.3652V43.1596H74.5005V42.8606H74.8004V42.5615H75.1004V42.8606H76.9006V43.1596H78.1005V42.8606H78.7006V41.6642H78.4004V41.3652H77.8006V41.6642H77.5004V41.9633H76.3005V41.6642H74.8004V41.3652H74.5005V41.0659H74.2006V41.3652H73.9004ZM64.6006 46.4498H64.9005V45.5525H67.3006V45.2535H67.9006V45.5525H68.8004V45.8516H69.1005V45.5525H69.4005V44.6552H69.1005V44.3562H67.9006V44.0571H67.3006V43.7579H66.4006V44.0571H65.8005V44.3562H65.5004V44.6552H65.2004V44.9545H64.9005V45.2535H64.6006V46.4498ZM102.401 43.4589V43.1596H102.7V42.2623H101.8V41.9633H100.301V41.6642H98.8006V43.1596H99.1005V43.4589H100V43.7579H100.301V43.4589H100.9V43.7579H101.8V43.4589H102.401ZM125.201 18.0348V19.8295H124.9V20.1285H125.5V19.8295H126.7V20.7268H127.3V20.4275H127.6V19.5302H127.901V18.9321H127.3V19.2312H127.001V19.5302H126.7V19.2312H126.101V18.6331H125.801V18.3339H126.101V18.0348H126.4V18.3339H126.7V18.6331H128.2V18.9321H128.501V19.5302H129.1V18.3339H127.001V17.4365H126.101V17.7356H125.801V18.0348H125.201Z" fill="#FEFEFE"/>
<path fill-rule="evenodd" clip-rule="evenodd" d="M98.8005 41.6641H100.301V41.9632H101.8V42.2622H102.7V43.1595H102.401V43.4588H103.001V43.1595H103.301V42.5615H103.6V41.9632H103.301V41.6641H103.001V41.3651H102.401V41.0659H102.1V40.7668H100.9V40.4676H100V40.7668H99.1005V41.3651H98.8005V41.6641ZM52.0004 17.7355H51.7005V17.4365H51.4006V17.7355H48.4004V17.4365H48.1005V17.1374H47.8004V16.8382H47.5004V19.2311H47.2005V19.8294H47.8004V19.5301H48.1005V18.9321H49.3004V18.633H49.6004V18.3338H50.2004V18.633H51.4006V18.3338H51.7005V18.633H52.0004V17.7355ZM78.4004 1.58385V0.98557H78.7005V0.38729H77.8005V0.0882568H74.5005V0.38729H74.2006V0.686537H73.6005V1.2846H73.9004V1.58385H74.8004V1.2846H75.7004V0.98557H76.3005V1.2846H78.1005V1.58385H78.4004ZM51.7005 41.9632V42.2622H50.2004V42.5615H48.7004V42.8605H48.1005V43.1595H47.8004V43.7578H50.8005V44.0571H51.1004V43.7578H52.0004V41.9632H51.7005ZM0.400391 41.0659H1.90045V41.3651H4.60043V41.0659H5.2005V40.7668H4.90036V40.4676H4.60043V40.1685H4.30051V39.8695H2.80045V40.1685H1.60053V39.8695H1.00046V40.1685H0.700317V40.7668H0.400391V41.0659ZM61.3005 28.2042H64.0005V28.5035H64.6005V28.2042H65.2004V27.9052H65.8005V28.2042H66.4005V28.5035H66.7005V28.2042H67.0004V27.6062H62.8003V27.3069H63.1005V27.0079H63.7006V26.7088H61.3005V28.2042ZM16.0004 54.8248H20.2005V54.5258H21.4004V54.8248H25.0004V54.5258H25.3005V54.2265H16.0004V54.8248ZM58.9004 35.0837H58.6005V35.3827H57.7005V34.7847H58.0004V34.4856H59.2004V34.7847H58.9004V35.0837ZM56.8005 34.1864V34.4854H57.1005V35.6818H56.8005V35.9808H56.2005V36.2798H55.9005V36.8781H56.2005V37.1772H56.5004V36.8781H58.0004V36.5791H58.3004V36.28H57.4004V36.5791H57.1005V35.981H57.4004V35.682H57.7003V35.981H58.6003V35.682H58.9002V35.3829H59.2002V35.0839H59.8V34.7849H60.0999V33.5883H59.8V34.1866H56.8001L56.8005 34.1864ZM108.401 17.7355V18.0347H107.8V18.9321H108.1V19.2311H109.301V19.8294H109V20.7267H109.6V20.4274H110.201V20.1284H109.6V18.9321H109.301V18.3338H109V18.0347H109.9V18.633H110.201V19.5301H110.5V19.2311H110.8V18.9321H111.101V18.3338H111.4V17.7355H111.101V17.1374H110.8V17.4365H110.5V17.7355H108.401ZM102.1 17.4365H101.2V17.7355H100.301V17.1374H99.7005V17.4365H99.1005V18.0347H98.8005V19.2311H99.7005V18.9321H99.4004V18.3338H100.301V18.9321H100V19.2311H100.9V18.9321H102.1V18.633H102.401V18.0347H102.1V17.4365ZM48.1005 23.4186H49.3004V23.7177H51.1004V23.4186H51.7005V23.1194H51.4006V22.8203H51.7005V22.5213H49.3004V22.2223H48.4004V21.923H48.1005V21.624H47.8004V22.2223H47.5004V23.1194H48.1005V23.4186ZM111.7 14.1462H111.101V14.7445H111.4V15.0436H112.001V14.7445H112.6V15.0436H113.801V14.7445H114.4V14.4455H116.8V14.7445H118V14.4455H118.3V14.1462H116.201V13.8472H113.801V14.4455H113.2V14.1462H112.3V13.8472H111.7V14.1462ZM189.101 34.1864V34.4856H188.8V35.0837H189.101V35.3829H190.601V35.0837H191.501V35.3829H191.801V35.682H192.4V35.981H192.701V35.3829H193V34.4856H192.4V34.1864H192.701V33.8874H191.501V34.1864H190.901V34.4856H189.4V34.1864H189.101ZM94.6005 54.5258H94.0004V54.8248H101.8V54.5258H102.1V54.2265H94.6005V54.5258ZM171.401 45.8515V45.5524H171.701V44.9544H171.401V44.3561H170.501V44.0571H169.6V44.3561H169.901V44.6551H169.001V44.0571H168.4V44.3561H167.801V44.6551H167.201V44.9544H166.9V45.2534H166.6V45.8515H167.5V45.2534H167.801V44.9544H168.701V45.2534H170.2V44.9544H170.501V45.5524H171.1V45.8515H171.401ZM116.5 44.9544H116.8V45.2534H117.1V45.5524H117.7V45.8515H119.2V45.5524H120.4V47.3471H120.7V45.2534H120.4V44.9544H120.7V44.6551H117.7V44.3561H117.1V44.6551H116.5V44.9544Z" fill="#FEFEFE"/>
<path fill-rule="evenodd" clip-rule="evenodd" d="M49 41.3651H48.6998V41.6642H47.7999V41.9632H47.4999V42.5615H47.2V43.1596H47.4999V43.4588H47.7999V43.1596H48.1V42.8605H48.6998V42.5615H50.1999V42.2622H51.7V41.9632H51.4V41.6642H51.7V41.0659H50.8V41.6642H50.4998V41.3651H49.9V41.9632H49V41.3651ZM145.9 54.5258H144.4V54.8248H152.5V54.2266H145.9V54.5258ZM91.9 14.4455H92.8V14.7445H93.9999V14.4455H94.2998V14.7445H94.8999V15.0436H95.5V15.3428H95.7999V15.0436H96.4V15.3428H96.6999V15.6419H97.3V15.0436H97.5999V14.1463H91.9V14.4455ZM2.5 18.9321H3.69992V19.8294H3.99985V20.1284H3.69992V20.7267H3.99985V21.624H4.29999V20.7267H4.59992V19.2311H5.19998V19.8294H5.49991V18.9321H5.79984V18.633H6.09998V18.3338H2.5V18.9321ZM99.0999 29.1016H98.8V30.2981H99.0999V30.5972H99.3999V30.2981H99.7V29.9989H101.8V30.2981H103.3V29.1016H103V28.8025H102.7V29.1016H101.2V29.4008H99.9999V29.1016H99.3999V29.9989H99.0999V29.1016ZM9.99988 65.2936V65.5926H10.2998V65.8916H9.69995V66.7892H11.4999V62.3024H11.1998V64.3963H10.8999V64.0972H10.5999V64.3963H10.2998V65.2936H9.99988ZM52.2998 54.8248H53.1998V54.5258H53.7999V54.8248H59.1998V54.2266H52.2998V54.8248ZM112.9 63.499V61.7043H113.2V62.3024H113.5V62.0034H113.8V61.4051H114.1V63.1997H114.4V60.5078H114.1V59.9097H113.5V59.6104H113.2V60.2087H112.9V61.106H112.6V63.499H112.9ZM151 41.6642H151.3V41.3651H151.9V41.0659H152.2V41.3651H153.4V41.0659H154.9V41.3651H155.2V40.4676H154.3V40.1686H151.9V40.4676H151.6V40.7669H151V41.6642ZM115.9 54.5258H117.4V54.8248H118.3V54.5258H118.6V54.8248H123.7V54.5258H123.4V54.2266H122.2V54.5258H121.3V54.2266H115.9V54.5258ZM13.5999 41.0659V40.7669H13.2999V40.4676H12.6999V40.1686H9.99988V40.7669H9.69995V41.0659H9.99988V41.3651H12.3999V41.0659H13.5999ZM158.5 18.633H160V18.3338H160.9V18.633H161.5V18.3338H161.8V17.7355H162.1V17.4365H162.4V17.1375H161.8V17.4365H161.2V17.1375H159.7V17.4365H159.4V17.7355H159.1V18.3338H158.5V18.633ZM31.6 62.0034V60.807H31.8999V59.9097H32.2V60.807H32.5V59.6104H32.2V59.0124H31.6V59.6104H31.3V58.7131H30.9999V59.9097H30.7V60.807H30.3998V62.0034H30.7V61.7043H31.3V62.0034H31.6ZM86.5 45.2534V44.6551H84.3999V44.9544H83.4999V44.6551H81.0998V44.9544H78.9999V45.2534H81.9998V44.9544H82.8998V45.2534H82.5999V45.5525H83.4999V45.2534H86.5ZM142.6 63.499H142.9V62.6016H143.2V61.4051H143.5V60.2087H143.8V59.6104H143.5V59.9097H142.9V59.6104H142.3V62.9007H142.6V63.499ZM45.9999 64.3963H45.6999V64.9943H45.4V64.3963H44.5V64.9943H44.7999V65.2936H45.0999V66.4899H45.4V66.7892H46.8999V65.8916H46.5999V65.5926H46.2998V64.6953H45.9999V64.3963ZM102.1 17.4365V18.0348H102.4V18.633H102.1V18.9321H100.9V19.2311H99.9999V18.9321H100.3V18.3338H99.3999V18.9321H99.7V19.2311H99.0999V19.5301H100.3V19.8294H101.2V19.2311H103.3V18.9321H102.7V18.633H103.3V18.3338H102.7V17.4365H103.3V17.1375H102.4V17.4365H102.1ZM106.6 54.8248H112.3V54.5258H111.7V54.2266H106.6V54.8248ZM74.2 1.58388V2.48119H74.5V2.18216H76V1.88291H78.0999V2.18216H78.3999V1.58388H78.0999V1.28463H76.2999V0.985596H75.6999V1.28463H74.7999V1.58388H74.2ZM107.2 28.5035V29.6998H107.5V30.2981H107.2V30.5972H107.8V30.2981H108.1V29.9989H108.4V29.6998H110.2V29.1016H108.1V28.2043H107.5V28.5035H107.2ZM165.4 65.5926V65.8916H165.7V66.1909H165.1V66.4899H164.5V66.1909H164.2V66.7892H167.2V66.1909H167.5V65.2936H167.2V64.9943H166.9V65.2936H166.6V65.5926H165.4ZM48.1 19.2311H48.6998V19.5301H49V19.8294H49.5998V19.5301H49.9V19.2311H51.9999V18.9321H52.2998V17.7355H51.9999V18.633H51.7V18.3338H51.4V18.633H50.1999V18.3338H49.5998V18.633H49.2999V18.9321H48.1V19.2311ZM91 65.5926V65.8916H91.2999V66.1909H91V66.4899H91.2999V66.7892H90.3999V67.0882H92.4998V66.7892H92.8V66.4899H93.0999V65.2936H92.4998V65.5926H91ZM158.2 21.624V21.9231H158.8V22.2223H159.4V22.5213H159.7V23.4187H160V24.615H160.3V24.316H160.6V22.2223H160.3V21.9231H160V21.624H159.7V21.325H158.8V21.624H158.2ZM81.0998 14.7445H81.4V15.0436H81.6999V15.6419H82.3V15.0436H82.5999V14.7445H82.8998V14.4455H83.4999V14.7445H84.6998V14.4455H85.9V14.1463H81.0998V14.7445ZM110.2 20.4275H110.8V20.1284H111.1V19.2311H111.7V18.0348H111.4V18.3338H111.1V18.9321H110.8V19.2311H110.5V19.5301H110.2V18.633H109.9V18.0348H109V18.3338H109.3V18.9321H109.6V20.1284H110.2V20.4275ZM107.2 34.1864V34.7847H110.5V35.0837H110.8V35.682H111.4V35.383H111.1V33.5881H110.5V33.8874H109.6V34.1864H109V34.4857H107.5V34.1864H107.2ZM99.0999 6.66851V7.86507H99.7V7.56604H99.9999V7.26679H99.3999V6.96776H100.6V7.26679H100.3V7.56604H101.5V6.96776H103V6.66851H102.7V6.36948H101.8V6.66851H100.6V6.36948H99.3999V6.66851H99.0999ZM109.3 15.0436V15.3428H110.5V15.6419H110.8V16.2401H111.1V15.6419H112.9V15.0436H112.6V14.7445H112V15.0436H111.4V14.7445H111.1V14.4455H109.9V15.0436H109.3ZM186.1 9.36067H186.7V9.06163H187.3V8.76239H187.9V8.46335H188.5V8.76239H189.1V9.06163H189.4V9.36067H190V8.46335H189.7V8.1641H189.4V8.46335H188.8V8.1641H187.6V8.46335H186.7V8.1641H186.4V7.86507H186.1V7.56604H185.8V8.46335H186.1V9.36067ZM52.2998 15.0436V14.7445H51.9999V13.249H51.7V14.1463H51.0999V14.4455H50.8V14.1463H49.9V14.4455H49.5998V14.7445H49.2999V15.6419H49.9V15.3428H50.4998V15.0436H52.2998ZM145.9 4.57485H148V4.8741H148.6V5.17313H148.9V5.47216H149.8V4.57485H148.9V4.27582H148.6V3.97657H145.9V4.57485ZM128.8 65.5926H130V66.1909H129.4V66.7892H130.9V66.1909H130.6V65.5926H130.3V64.9943H130V64.3963H128.8V65.5926ZM13.2999 22.8204H13V23.1194H12.3999V23.4187H12.1V23.7177H11.7999V24.0169H11.4999V24.316H11.1998V24.9142H12.1V24.615H13.5999V23.7177H13.2999V22.8204ZM9.99988 35.383H11.4999V35.0837H13V34.4857H12.6999V34.7847H12.3999V34.1864H11.7999V34.4857H11.1998V34.1864H10.5999V33.8874H10.8999V33.5881H9.99988V34.1864H10.2998V35.0837H9.99988V35.383ZM125.5 43.7578V43.4588H125.2V42.8605H125.5V42.2622H126.1V41.3651H126.4V41.0659H127.3V41.3651H127.9V41.0659H128.5V40.7669H126.1V41.0659H125.5V41.3651H125.2V42.5615H124.6V43.4588H124.9V43.7578H125.5ZM38.7999 46.1507H39.0998V45.8515H40.8998V46.1507H42.1V45.5525H41.4999V45.8515H41.2V45.5525H40.5999V44.6551H41.2V44.3561H40.3V45.2534H39.9998V44.9544H39.6999V44.6551H39.0998V44.9544H38.7999V46.1507Z" fill="#FEFEFE"/>
<path fill-rule="evenodd" clip-rule="evenodd" d="M31.3008 58.7132V59.6105H31.6007V59.0124H32.2008V59.6105H32.5007V61.1061H33.1006V60.807H32.8006V60.2088H33.4007V58.7132H33.1006V58.4141H31.6007V58.7132H31.3008ZM62.5006 6.36953H63.1007V6.07049H63.7008V5.77146H64.0007V5.47221H64.6008V5.17318H64.9007V4.87415H61.9006V5.17318H62.2007V6.07049H62.5006V6.36953ZM111.701 9.06168H112.001V9.65975H112.901V9.36071H115.901V9.06168H116.201V8.76243H111.701V9.06168ZM78.7008 44.6552H77.2007V44.3562H75.4007V44.9544H74.5007V45.2535H75.1006V45.5525H75.7006V45.2535H76.3007V44.9544H76.6006V45.2535H78.1007V44.9544H78.7008V44.6552Z" fill="#FEFEFE"/>
<path fill-rule="evenodd" clip-rule="evenodd" d="M112.3 9.65966H112V9.0616H111.7V8.76235H113.8V8.46332H111.4V8.76235H111.1V9.0616H110.8V8.16407H110.5V9.36063H110.8V10.2579H111.7V9.9587H112.3V9.65966ZM42.0997 46.1507H43.2996V45.2534H42.9997V44.9544H41.7997V44.6551H40.5996V45.5524H41.1997V45.8515H41.4996V45.5524H42.0997V46.1507ZM90.0997 59.0123H90.6998V59.6104H91.8997V59.9097H92.7997V59.3114H92.4996V58.7131H92.1996V58.4141H90.3996V58.7131H90.0997V59.0123ZM164.2 41.6641V40.7668H163.9V40.4676H161.2V40.1685H160V40.7668H160.9V41.0659H161.5V40.7668H162.1V41.0659H163.6V41.3651H163.9V41.6641H164.2ZM90.3996 47.9453V45.2534H90.6998V44.9544H89.7996V45.5524H89.4996V47.9453H90.3996ZM111.7 41.3651V41.0659H111.4V40.7668H108.1V41.0659H108.7V41.3651H109V41.6641H111.4V41.3651H111.7ZM36.0996 5.47213V6.66848H36.3996V7.26676H36.9996V6.36944H37.2996V5.77138H38.7996V5.47213H37.8996V5.1731H36.3996V5.47213H36.0996ZM186.1 34.7847H187V35.3829H187.9V35.0837H188.2V33.8873H186.1V34.7847ZM31.2997 63.4989H30.9996V62.9006H31.2997V62.6016H31.5997V62.0033H31.2997V61.7043H30.6997V62.0033H30.3995V61.405H30.0996V63.7979H31.2997V63.4989ZM127.9 47.9453H126.4V47.6463H126.1V47.048H125.8V46.4497H125.5V46.1507H125.2V45.2534H124.9V47.347H125.2V47.6463H125.5V47.9453H125.8V48.2444H127.9V47.9453ZM161.2 12.0526V12.3516H160.9V12.6509H161.2V12.9499H160.3V13.2489H160V13.548H159.7V13.8472H160.3V14.4455H160.6V14.1462H160.9V13.548H161.2V13.2489H161.5V12.9499H162.4V12.6509H161.5V12.3516H162.1V12.0526H162.7V11.4543H162.4V11.7535H161.8V12.0526H161.2ZM124 54.5258H124.3V54.8248H128.2V54.2265H124V54.5258ZM55.8995 45.5524H56.7997V45.8515H57.3996V45.5524H59.1996V45.2534H60.0996V44.9544H58.8996V44.6551H57.6997V44.9544H57.0996V45.2534H55.8995V45.5524Z" fill="#FEFEFE"/>
<path fill-rule="evenodd" clip-rule="evenodd" d="M163.601 13.249V12.9499H163.9V11.7536H162.7V12.0526H162.1V12.3517H161.5V12.6509H162.4V13.249H163.601ZM73.9004 41.3652H74.2006V41.0659H74.5005V41.3652H74.8004V41.6642H75.4005V41.0659H76.3005V41.3652H76.6004V40.4676H76.0005V40.1686H74.8004V40.4676H74.5005V40.7669H73.9004V41.3652ZM11.8004 45.2534V45.5525H12.1005V46.1507H11.8004V47.0481H11.2003V47.3471H10.9004V47.6463H11.8004V47.3471H12.1005V47.0481H12.4005V46.749H12.7004V46.4498H13.0005V45.2534H12.7004V44.9544H12.1005V45.2534H11.8004ZM40.6004 54.8249H44.5005V54.2266H40.6004V54.8249ZM160.901 6.66852V7.2668H161.5V7.56605H161.2V8.16412H162.1V7.86509H162.4V7.56605H161.801V7.2668H163.601V7.86509H163.9V6.66852H164.2V6.36949H163.601V6.66852H163.3V6.96777H161.5V6.66852H160.901ZM127.6 20.1284H127.9V19.8294H129.1V19.5302H128.501V18.9321H128.2V18.6331H126.7V18.3338H126.4V18.0348H126.101V18.3338H125.801V18.6331H126.101V19.2311H126.7V19.5302H127V19.2311H127.3V18.9321H127.9V19.5302H127.6V20.1284ZM60.4005 43.1596H60.7004V41.6642H60.1004V41.3652H59.8004V41.0659H57.1004V41.3652H58.3004V41.6642H58.6005V41.9632H60.4005V43.1596ZM28.3004 40.7669H28.6006V41.0659H30.1004V40.7669H29.5003V40.4676H31.6005V40.1686H31.3005V39.8696H29.2004V40.1686H28.6006V40.4676H28.3004V40.7669ZM98.8005 2.18217H99.1005V1.58389H99.7005V1.28464H100.301V1.58389H100.9V1.28464H102.1V0.985609H103.001V0.686576H100.9V0.985609H99.4004V0.387329H99.1005V1.28464H98.8005V2.18217ZM128.2 64.0972V64.3963H128.501V64.9943H128.8V64.3963H129.7V63.499H129.401V62.9007H129.7V62.6016H130.3V62.3024H129.401V62.6016H128.8V63.1997H128.501V63.798H128.8V64.0972H128.2ZM50.5003 36.2801V35.682H50.2004V34.7847H50.5003V34.4857H50.2004V34.1864H49.0005V34.7847H49.3004V35.0837H49.6004V35.682H49.3004V35.9811H49.0005V36.2801H50.5003ZM137.5 54.8249H142V54.2266H141.4V54.5258H140.2V54.2266H138.7V54.5258H138.101V54.2266H137.5V54.8249ZM120.4 39.5703H120.7V40.1686H121.3V39.5703H122.2V39.2713H123.401V39.5703H124V38.9722H120.4V39.5703ZM19.6004 44.9544H19.9003V45.5525H21.1005V45.2534H22.0005V44.6552H21.7005V44.3561H20.2005V44.6552H19.6004V44.9544ZM150.7 32.3918V32.6908H151.301V32.9901H151.9V33.2891H152.8V33.5881H152.5V33.8874H153.4V34.1864H154.001V33.8874H153.7V33.5881H153.4V32.9901H152.8V32.6908H152.201V32.3918H150.7ZM60.7004 29.9989V28.8025H58.9004V28.5035H58.3004V29.1016H58.9004V29.4008H59.5005V29.6999H59.8004V29.9989H60.7004ZM100 35.0837H101.501V34.7847H102.401V34.4857H103.301V34.1864H102.1V33.8874H100.9V34.4857H100.601V34.7847H100V35.0837ZM109.301 38.673V38.374H109V38.0749H108.7V37.7757H108.1V37.4767H107.2V38.374H107.8V38.9722H109V38.673H109.301ZM186.1 44.9544H187V44.6552H187.301V44.3561H188.201V44.6552H189.101V44.3561H188.5V44.0571H187.6V43.7578H186.401V44.0571H186.1V44.3561H185.8V44.6552H186.1V44.9544ZM73.9004 6.07046V6.36949H74.2006V6.66852H73.9004V8.46337H74.2006V8.16412H74.5005V7.86509H74.8004V6.36949H75.1003V5.77142H74.8004V6.07046H73.9004ZM69.1005 61.7043H69.7004V61.4051H70.0005V61.106H70.3004V60.807H70.6006V60.5078H70.9005V59.9097H70.0005V60.2087H69.4004V60.5078H69.1005V61.7043Z" fill="#FEFEFE"/>
<path fill-rule="evenodd" clip-rule="evenodd" d="M32.8 42.5615V40.7669H32.5001V40.4676H31.9V40.1686H31.6001V40.4676H29.5V40.7669H31V41.0659H32.5001V42.5615H32.8ZM143.8 38.374V38.9722H147.1V38.374H143.8ZM106.3 7.2668H108.7V6.96777H108.4V6.66852H108.1V6.36949H107.2V6.07046H106.9V6.36949H106.6V6.66852H106.3V7.2668ZM151.6 38.374H152.2V38.0749H152.5V37.7757H152.8V37.4767H153.1V37.1776H153.4V36.2801H153.1V36.5793H152.5V36.8784H152.2V37.1776H151.9V37.4767H151.6V38.374ZM141.7 45.2534H142.3V44.9544H143.8V44.0571H142.3V44.3561H141.7V45.2534ZM148.9 0.686576H147.1V0.985609H147.4V1.28464H148V1.58389H148.3V1.88292H149.2V1.58389H149.5V0.985609H148.9V0.686576ZM167.5 45.5525H168.7V45.8515H170.8V45.5525H170.5V44.9544H170.2V45.2534H168.7V44.9544H167.8V45.2534H167.5V45.5525ZM79.6001 8.7624V9.06165H79.9001V9.95875H80.5001V9.65971H80.8001V9.36068H82V9.06165H82.3001V8.7624H79.6001ZM57.4 29.6999H57.7001V29.4008H58.3V28.8025H58.0001V28.5035H56.2001V28.8025H56.5V29.6999H56.8002V29.4008H57.4V29.6999ZM149.5 15.6419H149.8V14.4455H149.2V14.1463H147.7V14.7446H148.6V15.0436H148.9V15.3428H149.5V15.6419ZM46.2999 61.106H44.8001V62.0034H45.4002V62.6016H46V62.3024H46.2999V61.106ZM62.5 6.36949V6.07046H62.2001V5.17314H61.9V4.87411H61.0002V6.07046H61.3001V6.36949H62.5ZM159.7 17.1375H161.2V17.4365H161.8V17.1375H162.4V17.4365H162.7V16.8382H162.4V16.5392H162.1V16.8382H161.5V16.5392H160V16.8382H159.7V17.1375ZM75.4001 41.6642H76.3001V41.9632H76.9002V41.6642H77.2001V41.0659H76.9002V40.7669H78.1001V40.4676H76.6V41.3652H76.3001V41.0659H75.4001V41.6642ZM160 7.86509H161.2V7.56605H161.5V7.2668H160.9V6.66852H160.6V6.36949H160V6.66852H159.7V6.96777H160V7.86509ZM32.2002 35.682V34.7847H32.5001V34.1864H31.6001V35.0837H31.3002V35.383H31V35.9811H31.9V35.682H32.2002ZM192.1 38.9722H191.8V39.8696H192.1V40.7669H192.4V40.4676H192.7V39.5703H193.6V38.9722H192.4V39.5703H192.1V38.9722ZM163.9 3.37852V2.78024H163.6V2.4812H163.3V2.18217H163V1.88292H162.7V1.58389H162.1V1.28464H161.8V1.88292H162.1V2.18217H162.4V2.4812H162.7V2.78024H163V3.07948H163.3V3.37852H163.9ZM142.3 8.46337V9.06165H142.6V9.36068H143.5V9.06165H144.1V8.7624H145V8.46337H142.3ZM159.7 13.548H160V13.249H160.3V12.9499H161.2V12.6509H160.9V12.3517H161.2V12.0526H160.6V11.7536H160.3V12.0526H159.7V13.548ZM68.8 62.6016H68.5001V64.0972H68.8V63.499H69.1001V63.1997H69.4001V64.0972H69.7V61.7043H69.1001V62.3024H69.4001V62.9007H68.8V62.6016ZM46.2999 8.7624V7.2668H44.2V7.56605H44.5002V7.86509H45.7001V8.46337H46V8.7624H46.2999ZM90.4001 60.5078H90.7002V59.9097H91.0001V59.6105H90.7002V59.0124H89.5001V60.5078H90.1002V59.6105H90.4001V60.5078ZM103 0.686576V0.387329H99.4V0.985609H100.9V0.686576H103ZM142.3 59.6105H142.9V59.9097H143.5V58.4141H142.6V58.7131H142.3V59.6105ZM15.4 10.258H14.5V10.8561H15.4V10.557H17.8V10.258H16.3V9.95875H15.4V10.258ZM79.6001 35.0837H79.9001V35.383H80.2V35.0837H80.5001V34.7847H81.7001V34.1864H79.9001V34.4857H79.6001V35.0837ZM112.9 1.58389H114.1V1.28464H115V0.686576H114.1V0.985609H113.8V0.686576H112.9V1.58389ZM103 54.5258H102.7V54.8249H105.4V54.5258H105.1V54.2266H103V54.5258Z" fill="#FEFEFE"/>
<path fill-rule="evenodd" clip-rule="evenodd" d="M148.601 1.88287V2.18212H150.1V0.686523H148.9V0.985557H149.5V1.58384H149.2V1.88287H148.601ZM30.7005 65.8916H30.4003V66.1908H30.1004V65.8916H29.8005V65.5926H29.5003V65.2935H29.2004V66.7891H30.4003V66.4899H30.7005V65.8916ZM187.6 60.2087H188.8V59.6104H188.201V59.0123H187.6V58.7131H187.301V59.9097H187.6V60.2087ZM81.7004 34.1864V34.4856H82.0004V34.7847H82.6004V35.0837H83.2005V34.7847H83.5004V34.4856H83.2005V34.1864H83.5004V33.8873H82.3005V34.1864H81.7004ZM15.4004 5.77137V5.17309H15.7005V4.87406H16.0004V4.57481H15.1004V4.87406H14.2004V5.77137H15.4004ZM189.101 25.5123H189.4V25.8115H189.7V26.4096H190V26.1106H190.3V25.5123H190.601V24.9142H189.101V25.5123ZM52.0004 29.6998V29.4008H51.7005V28.5035H50.8005V29.1015H49.9005V29.4008H50.8005V29.6998H52.0004ZM147.7 8.76235H148V9.06159H148.9V9.65966H149.5V8.46331H147.7V8.76235ZM196.3 25.5123H196.001V27.0079H196.3V26.4096H196.6V26.1106H197.2V25.2132H196.3V25.5123ZM144.7 38.9722H143.8V38.3739H143.2V39.2712H143.501V40.1685H144.1V39.2712H144.7V38.9722ZM79.6005 35.0837V34.4856H79.9004V34.1864H79.3004V33.8873H78.7005V34.4856H78.4004V34.7847H78.1005V35.0837H79.6005ZM9.1004 34.1864V34.4856H9.40055V35.0837H9.70047V35.3829H10.0004V35.0837H10.3003V34.1864H10.0004V33.5881H9.40055V34.1864H9.1004ZM128.2 34.7847H127.9V34.4856H128.2V34.1864H127.6V34.4856H127.3V34.7847H126.4V34.4856H126.1V34.1864H125.801V35.0837H128.2V34.7847ZM149.5 15.6418V15.9409H150.401V14.4455H150.1V14.1462H149.2V14.4455H149.8V15.6418H149.5ZM50.8005 41.0659H50.2004V40.7668H49.9005V41.0659H49.0005V41.9632H49.9005V41.3651H50.5003V41.6641H50.8005V41.0659ZM162.4 7.86503H162.7V8.16407H163.601V7.26675H161.801V7.566H162.4V7.86503ZM144.1 44.9544H145.6V44.3561H145.301V44.057H144.401V44.3561H144.1V44.9544ZM76.9005 41.9632H77.5004V41.6641H77.8005V41.3651H78.4004V40.7668H76.9005V41.0659H77.2005V41.6641H76.9005V41.9632ZM60.4005 24.9142V24.615H60.7004V23.7176H60.4005V23.4186H60.1004V23.7176H59.8004V24.0169H59.5005V24.615H60.1004V24.9142H60.4005ZM125.201 18.0347H125.801V17.7355H126.1V17.4365H126.4V17.1374H126.1V16.8382H125.801V16.5391H125.5V16.8382H125.201V18.0347ZM60.1004 54.8248H61.6004V54.5258H62.2005V54.2265H60.1004V54.8248ZM128.8 54.8248H130.6V54.2265H128.8V54.8248ZM46.3003 7.26675V9.06159H46.9004V7.26675H46.3003ZM185.501 39.5703H186.1V40.4676H186.401V39.8695H186.7V38.9722H185.501V39.5703ZM9.1004 28.8025V29.9988H9.70047V29.6998H10.0004V29.1015H10.3003V28.8025H9.1004ZM105.1 12.6508H105.701V12.3516H106V11.4543H105.701V11.1553H105.4V11.4543H105.1V12.6508ZM195.7 15.9409H196.001V16.2401H196.6V16.5391H196.901V15.9409H196.6V15.6418H197.2V15.3428H196.901V15.0435H196.3V15.6418H195.7V15.9409ZM29.5003 64.9943H29.8005V65.2935H30.1004V65.5926H30.4003V64.0972H30.1004V63.7979H29.8005V64.3962H29.5003V64.9943ZM0.400391 13.8472H0.700317V13.2489H1.30038V12.3516H0.400391V13.8472ZM160.6 54.5258H160.3V54.8248H162.1V54.2265H160.6V54.5258ZM78.4004 13.5479V12.3516H77.8005V12.6508H77.2005V13.2489H78.1005V13.5479H78.4004ZM45.1004 60.5077V61.106H46.3003V60.807H46.6004V59.9097H46.3003V60.5077H45.1004ZM32.5005 23.7176V23.4186H32.8004V22.5213H32.5005V22.8203H31.9004V23.1194H31.6005V23.7176H32.5005ZM126.4 43.7578H127.9V43.4588H128.2V42.8605H127.6V43.1595H127V43.4588H126.4V43.7578ZM103.001 12.3516V12.0526H103.3V11.4543H103.001V11.1553H102.401V11.4543H102.1V12.0526H102.7V12.3516H103.001ZM58.0004 34.7847H57.7005V35.3829H58.6005V35.0837H58.9004V34.7847H59.2004V34.4856H58.0004V34.7847ZM142.3 9.06159V8.46331H140.801V9.06159H142.3ZM25.9004 54.8248H27.4004V54.2265H25.9004V54.8248ZM70.6006 60.807H70.9005V61.106H71.2004V60.807H72.1004V60.5077H71.8005V60.2087H71.2004V59.9097H70.9005V60.5077H70.6006V60.807ZM184 8.16407H185.501V7.566H184V8.16407ZM103.3 7.86503V7.566H103.001V7.26675H101.8V7.86503H103.3ZM76.6004 34.4856H78.1005V33.8873H76.9005V34.1864H76.6004V34.4856ZM194.201 8.16407V9.36063H194.5V9.06159H195.1V8.76235H195.4V8.46331H194.5V8.16407H194.201ZM112.001 24.9142V24.3159H111.7V23.7176H111.101V24.3159H111.4V25.2132H111.7V24.9142H112.001ZM92.8005 59.9097H93.1004V59.3114H93.4006V59.0123H93.1004V58.7131H92.8005V58.4141H92.2004V58.7131H92.5004V59.3114H92.8005V59.9097Z" fill="#FEFEFE"/>
<path fill-rule="evenodd" clip-rule="evenodd" d="M188.8 59.6104V59.3114H188.5V58.4141H187.6V59.0123H188.2V59.6104H188.8ZM36.1 6.36944V5.17309H35.2V5.77137H35.4999V6.07041H35.8001V6.36944H36.1ZM56.4999 29.1015H56.2V30.2981H56.4999V29.9988H57.3999V29.4008H56.8001V29.6998H56.4999V29.1015ZM164.2 65.8916V65.5926H164.5V65.8916H165.1V65.5926H164.8V64.9943H163.9V65.8916H164.2ZM197.8 4.27578V3.37846H197.5V3.6775H196.6V4.27578H197.8ZM56.2 24.3159H56.4999V24.0169H56.8001V23.4186H56.4999V23.1194H56.2V23.4186H55.8999V24.0169H56.2V24.3159ZM164.8 12.6508H165.4V12.9499H166.3V12.3516H164.8V12.6508ZM50.2 54.8248H51.4001V54.2265H50.2V54.8248ZM10.8999 44.9544V44.6551H10.2999V44.3561H9.40009V44.9544H10.8999ZM128.5 47.9453H129.4V47.6463H129.7V47.347H129.1V47.048H128.8V47.347H128.5V47.9453ZM79.9 9.65966V9.06159H79.6001V8.76235H79V9.65966H79.9ZM194.2 13.8472H193.9V15.0435H194.2V14.4455H194.5V14.7445H195.1V14.4455H194.8V14.1462H194.2V13.8472ZM136 3.6775H136.6V3.37846H136.9V2.48115H136.6V2.78018H136.3V3.07943H136V3.6775ZM73.9 11.7535V12.9499H74.2001V12.6508H74.5V12.0526H74.7999V11.7535H73.9ZM144.1 0.985557H144.4V1.58384H144.7V1.28459H145V0.985557H145.6V0.686523H144.1V0.985557ZM61.8999 31.1954H61.6V31.4944H63.1V31.1954H62.5V30.8962H61.8999V31.1954ZM6.39996 19.5301H6.69989V18.932H7.00003V18.633H7.29996V18.3338H6.39996V19.5301ZM129.4 66.4899V66.1908H130V65.5926H129.1V66.4899H129.4ZM155.2 18.633V18.3338H154.9V18.0347H154.6V18.633H154V19.2311H154.3V18.932H154.9V18.633H155.2ZM28.6001 35.0837H29.2V34.1864H28.3V34.4856H28.6001V35.0837ZM169 44.057V44.6551H169.9V44.3561H169.6V44.057H169.9V43.7578H169.3V44.057H169ZM151.3 62.3023H151.6V62.0033H151.9V61.106H151.3V62.3023ZM150.1 38.6729H149.2V38.9722H150.7V38.3739H150.1V38.6729ZM83.5 9.06159H84.4V9.65966H84.6999V8.76235H83.5V9.06159ZM73.9 36.8783H74.2001V36.5793H74.5V35.981H73.9V36.28H73.6V36.5793H73.9V36.8783ZM13.3 54.8248H14.2V54.2265H13.3V54.8248ZM29.2 35.0837H28.6001V35.682H29.2V35.981H29.4999V35.3829H29.2V35.0837ZM58.2999 36.28V35.981H57.7001V35.682H57.3999V35.981H57.1V36.5793H57.3999V36.28H58.2999ZM48.1001 54.5258H47.7999V54.8248H48.6999V54.2265H48.1001V54.5258ZM159.4 37.4766H160V37.1776H160.3V36.8783H160V36.5793H159.7V37.1776H159.4V37.4766ZM160 14.4455H159.7V15.3428H160.3V14.7445H160V14.4455ZM33.0999 64.0972H33.6999V63.4989H33.0999V64.0972ZM133 16.8382H133.6V16.2401H133V16.8382ZM62.7999 54.8248H63.4V54.2265H62.7999V54.8248ZM1 29.9988H1.60007V29.4008H1V29.9988ZM113.5 54.8248H114.1V54.2265H113.5V54.8248ZM192.7 8.16407H193.3V7.566H192.7V8.16407ZM68.7999 62.9006H69.4V62.3023H68.7999V62.9006ZM6.39996 62.9006V63.4989H7.00003V62.9006H6.39996ZM103.9 59.6104V60.2087H104.5V59.6104H103.9ZM151.6 30.2981V30.8962H152.2V30.2981H151.6ZM153.1 29.9988H153.7V29.4008H153.1V29.9988ZM45.4001 54.5258H45.0999V54.8248H45.7V54.2265H45.4001V54.5258Z" fill="#FEFEFE"/>
</g>
<defs>
<clipPath id="clip0_833_9705">
<rect width="198" height="67" fill="white" transform="translate(0.400391 0.0882568)"/>
</clipPath>
</defs>
</svg>
