<svg width="170" height="74" viewBox="0 0 170 74" fill="none" xmlns="http://www.w3.org/2000/svg">
<g clip-path="url(#clip0_833_9415)">
<path fill-rule="evenodd" clip-rule="evenodd" d="M114.534 52.3331H107.691V48.0391C111.035 48.0391 113.91 47.7522 116.695 48.3968C116.958 49.5171 117.999 52.3331 114.534 52.3331ZM93.2839 73.088H107.33V63.4263C111.7 66.3333 114.309 73.088 121.377 73.088H149.83C154.714 73.088 159.507 68.5333 159.72 62.6196C159.975 55.5564 154.814 53.1234 152.352 49.4705H170V37.6616H148.75C145.452 37.6616 142.16 38.8368 140.374 40.4324C138.041 42.5163 136.504 44.7154 136.504 48.3969C136.504 55.5736 142.602 57.7902 143.347 60.5636C136.265 60.5636 130.448 60.7771 123.538 60.2057C124.111 58.0733 125.704 58.925 127.925 55.976C131.301 51.4937 130.464 44.1845 126.073 40.8681C123.752 39.1144 120.774 37.6616 116.695 37.6616H93.2839V73.0881V73.088ZM28.4533 22.6322H0V35.5146H33.1355C45.2591 35.5146 47.8388 22.9669 42.2275 16.8197C41.2287 15.7257 38.0703 12.4788 37.8178 11.5391H54.0254V34.441C54.0254 35.2656 54.2761 35.5146 55.1059 35.5146H65.911C66.7408 35.5146 66.9915 35.2655 66.9915 34.441V11.5391H82.1186V0.0881513H32.055C29.4999 0.0881513 26.6602 1.67996 25.2923 3.03082C19.5622 8.68955 21.4616 14.5384 26.2052 19.8561C27.0853 20.8428 28.0825 21.2526 28.4533 22.6323V22.6322ZM10.8051 73.088H23.0508C23.2544 70.6581 26.4949 62.444 26.6525 60.5636H27.3728C27.418 62.5785 30.3383 70.3748 30.9745 73.088H43.2203C44.097 69.3492 45.5022 65.6786 46.6138 61.7881C47.7391 57.8498 49.0312 54.2348 50.1933 50.3151C50.819 48.2043 51.2617 46.5156 51.9069 44.5029C54.5914 36.1298 55.532 37.6608 47.9025 37.6615C45.3813 37.6618 42.8601 37.6615 40.339 37.6615C39.794 39.9858 37.956 44.9571 37.8178 46.6077C36.6113 45.7294 34.9192 39.1244 34.5763 37.6615H19.8093C19.4652 39.1288 18.9702 40.816 18.4963 42.4404C18.1489 43.6317 17.6661 45.91 16.9279 46.9654L14.4068 37.6615H0C0.0406051 39.4759 1.90962 44.3857 2.52114 46.6076C3.30136 49.4419 4.30407 52.4024 5.27084 55.3265C6.28095 58.3814 6.96202 61.1359 7.97066 64.0951L10.8051 73.0878V73.088ZM142.627 14.4018H134.703C134.703 9.0595 133.443 10.1077 141.907 10.1077C145.461 10.1077 144.846 14.4018 142.627 14.4018ZM120.657 35.5146H134.703V25.4949C136.337 26.5817 139.474 30.0467 141.096 31.668C143.524 34.095 145.418 35.5146 150.191 35.5146H170V22.6322H151.992C150.614 22.6322 151.86 22.7421 150.911 22.2743C151.573 19.8102 158.808 19.1649 156.944 9.12521C156.06 4.35936 151.277 0.088082 145.508 0.088082H120.657V35.5146H120.657ZM97.6059 11.5391C98.5816 12.2493 98.2678 12.077 98.6285 13.3859L100.847 20.4851H95.0848C95.6754 17.9662 97.5667 13.2893 97.6059 11.5391ZM78.1567 35.5145C90.5025 35.5145 90.0135 36.5392 90.9272 33.173C91.2623 31.9384 91.5766 31.2839 91.8432 30.1468H103.729C104.013 31.361 104.9 35.5145 106.25 35.5145H117.415C118.922 35.5145 118.311 34.6119 117.462 31.891L108.996 4.87466C108.489 3.38565 107.826 1.70907 107.691 0.0880127H87.5211L78.1115 31.5336C77.7943 32.5122 76.1853 35.5144 78.1567 35.5144V35.5145ZM69.8728 49.1125L71.4434 53.6356C71.8664 55.0625 72.648 57.1477 72.7542 58.4164H67.3517C67.4041 56.0747 69.2779 51.6497 69.8728 49.1125ZM49.3432 73.088H61.5889C62.8122 73.088 62.7637 72.0462 63.0463 70.9574C63.3277 69.8729 63.6507 69.2626 63.7499 68.0782H75.9957C76.064 68.8945 77.1426 72.4799 77.4364 73.088H90.4025L80.0606 39.3485C79.7728 38.3998 79.7087 37.6615 78.5169 37.6615H60.8686C59.1495 37.6615 58.2329 42.8623 57.396 45.6623C56.4551 48.8104 55.6388 51.5655 54.6105 54.7035C53.8902 56.9012 49.3432 71.0454 49.3432 73.0879V73.088Z" fill="#FEFEFE"/>
</g>
<defs>
<clipPath id="clip0_833_9415">
<rect width="170" height="73" fill="white" transform="translate(0 0.0882568)"/>
</clipPath>
</defs>
</svg>
