<svg width="187" height="80" viewBox="0 0 187 80" fill="none" xmlns="http://www.w3.org/2000/svg">
<g clip-path="url(#clip0_833_9405)">
<mask id="mask0_833_9405" style="mask-type:luminance" maskUnits="userSpaceOnUse" x="0" y="0" width="187" height="80">
<path d="M186.801 0.0882568H0.800781V79.0883H186.801V0.0882568Z" fill="white"/>
</mask>
<g mask="url(#mask0_833_9405)">
<path d="M16.4804 0.0882568H19.4142C27.8316 0.426709 35.813 2.7565 43.5556 5.9299C47.0552 7.36497 50.3795 9.11922 53.6402 11.0276C56.1942 12.523 58.3904 14.1751 60.8396 16.0424C62.1271 17.0242 63.3375 18.1158 64.5219 19.2141C67.4414 21.9217 70.1707 25.0918 72.1849 28.5291C72.6015 29.2403 72.9803 30.0814 73.3676 30.8647C73.7191 31.5762 73.9569 32.0812 74.0809 32.3794C74.9183 34.3917 75.4036 36.6469 75.319 38.8343C75.2687 40.1186 75.1471 41.4179 74.8227 42.6595C73.9996 45.8069 72.0977 48.7164 69.8429 51.109C67.8304 53.2453 65.0567 54.801 62.3568 55.9052C54.9964 58.916 46.885 59.6063 39.0896 58.0841C38.1083 57.8926 37.1288 57.6893 36.1508 57.4743C36.1475 57.4734 36.1439 57.4733 36.1404 57.4739C36.137 57.4746 36.1337 57.476 36.131 57.4781C36.1281 57.4802 36.1259 57.4829 36.1242 57.486C36.1226 57.4891 36.1217 57.4925 36.1215 57.496C36.0578 58.6806 36.0813 60.5597 34.6999 61.0473C33.7728 61.374 32.5281 61.4419 31.632 61.0841C30.4476 60.6125 29.8424 59.4664 29.6354 58.2492C29.4415 57.1104 29.2973 55.9686 29.2029 54.8236C29.2011 54.8026 29.1937 54.7823 29.1815 54.7651C29.1693 54.7479 29.1526 54.7342 29.1333 54.7256C25.8659 53.252 22.6003 51.3855 19.8048 49.1378C17.1049 46.9672 14.3036 44.6022 12.6431 41.4941C10.9172 38.2638 12.9465 35.8083 15.6129 34.2233C18.5994 32.4473 21.9096 31.4277 25.213 30.5581C26.5399 30.2096 27.9179 30.0647 29.2599 29.7907C29.3006 29.7826 29.3375 29.7613 29.3649 29.7301C29.3923 29.6989 29.4087 29.6596 29.4116 29.6182C29.4971 28.3423 29.4501 27.0077 29.5583 25.7896C29.6983 24.2063 29.8936 22.6322 30.0813 21.0538C30.2345 19.7676 30.4979 18.5037 30.8718 17.2622C31.1752 16.2569 31.7871 15.7802 32.7267 16.5534C33.9405 17.552 34.5507 19.1513 34.9304 20.6567C35.6337 23.4456 35.7485 26.4414 35.8013 29.0728C35.8014 29.0782 35.8026 29.0834 35.8048 29.0883C35.807 29.0932 35.8102 29.0976 35.8142 29.1013C35.8182 29.105 35.8228 29.1078 35.828 29.1097C35.8332 29.1116 35.8386 29.1124 35.8441 29.1122C37.6613 29.0627 39.5607 28.9857 41.3704 29.1549C44.1723 29.4169 46.9317 29.9122 49.6486 30.6411C52.4097 31.3816 54.9872 32.4163 56.812 34.6279C57.9562 36.0136 58.5949 38.0024 57.8908 39.7399C57.1724 41.5109 55.6637 42.9426 53.7835 43.3908C52.6846 43.653 51.3259 43.3958 50.2697 43.0314C49.6486 42.8161 49.367 42.2289 50.0535 41.8418C50.9931 41.3107 51.9059 40.937 52.6017 40.0683C53.6771 38.7237 51.538 37.9421 50.6746 37.6598C49.0376 37.1244 47.3896 36.7491 45.7048 36.4031C42.4978 35.7457 39.2399 35.3769 35.9312 35.2965C35.9216 35.2962 35.912 35.2981 35.9031 35.3022C35.8942 35.3062 35.8861 35.3122 35.8792 35.3199C35.8724 35.3275 35.867 35.3368 35.8634 35.3468C35.8598 35.3569 35.8581 35.3677 35.8583 35.3786L36.2229 52.2383C36.2232 52.2519 36.2278 52.2649 36.2358 52.2752C36.2439 52.2856 36.255 52.2926 36.2674 52.2953C41.2371 53.3316 46.4307 53.3517 51.4466 52.6597C54.9411 52.1772 58.2185 51.2029 61.2889 49.4687C62.4803 48.7957 63.5504 48.0133 64.4993 47.1213C67.2662 44.5209 68.5479 40.6974 68.0525 36.9435C67.8698 35.557 67.376 34.08 66.7977 32.8167C64.2369 27.2189 59.978 22.731 54.9344 19.0365C47.3201 13.4588 38.5339 9.55988 29.42 7.25857C24.7159 6.07064 19.9102 5.39402 15.0027 5.2287C12.2153 5.13544 9.5629 5.25775 7.04549 5.59564C6.14021 5.71711 5.20979 6.00446 4.21986 6.26751C3.9589 6.33677 3.71666 6.45433 3.49313 6.62021C3.48924 6.62306 3.48607 6.62679 3.48388 6.63108C3.4817 6.63537 3.48056 6.6401 3.48056 6.64485C3.48056 6.64962 3.4817 6.65428 3.48388 6.65844C3.48607 6.66261 3.48924 6.66616 3.49313 6.6688C3.65128 6.77492 3.79461 6.83691 3.92313 6.85478C4.43501 6.92571 4.94716 6.99636 5.45958 7.06673C6.09495 7.15302 6.84934 7.41021 7.06979 8.08376C7.2257 8.56212 6.9734 8.89052 6.5501 9.08487C6.4009 9.15298 6.24583 9.20275 6.08489 9.23399C5.05892 9.43087 3.86194 9.37474 2.81417 9.13933C1.90303 8.93408 0.996085 8.70872 0.800781 7.64394V6.99468C1.05225 5.86539 1.62894 4.77967 2.36489 3.91259C3.17628 2.95337 4.27602 2.32841 5.45288 1.90953C6.32238 1.60068 7.52243 1.29434 9.05301 0.990516C11.5062 0.503503 13.982 0.20275 16.4804 0.0882568ZM15.4796 41.9867C16.3446 42.8203 17.1812 43.6597 18.1317 44.3643C19.9825 45.7348 21.9215 46.9666 23.9489 48.0596C25.6958 49.0021 27.3596 49.6538 29.1232 50.2905C29.1343 50.2946 29.1462 50.2962 29.1579 50.2951C29.1697 50.2939 29.1808 50.29 29.1905 50.2838C29.2001 50.2775 29.2079 50.2693 29.2131 50.2595C29.2183 50.2497 29.2209 50.2388 29.2205 50.2277C29.0897 45.3604 29.076 40.4928 29.1794 35.6249C29.1795 35.6182 29.1783 35.6116 29.1758 35.6055C29.1734 35.5994 29.1697 35.5939 29.165 35.5892C29.1604 35.5847 29.1548 35.5812 29.1488 35.5789C29.1428 35.5767 29.1363 35.5758 29.1299 35.5763C27.8972 35.6651 26.6603 35.7734 25.4192 35.9013C22.7587 36.1755 20.1365 36.6564 17.5525 37.3439C16.4821 37.6288 15.2256 38.0225 14.3656 38.7153C13.1385 39.7039 14.7202 41.2537 15.4796 41.9867ZM77.2628 26.3535C75.9049 27.2532 74.8638 25.3037 74.6174 24.3093C74.4246 23.5319 74.6601 22.5115 74.3651 21.8631C74.0725 21.2222 73.5411 20.6986 73.2511 20.0661C70.8655 14.8612 75.6023 10.019 79.6727 7.69253C82.1596 6.27087 84.904 5.34264 87.7866 5.40714C89.6013 5.44819 91.2493 6.043 92.5393 7.32895C92.6994 7.48896 92.8712 7.75787 93.0749 7.94386C93.095 7.9624 93.1201 7.97437 93.147 7.9782C94.2023 8.12676 95.1319 8.49284 95.9357 9.0765C99.2039 11.4473 98.1226 15.6068 95.7203 18.1753C94.3884 19.6001 93.0061 20.8086 91.5745 21.8011C88.924 23.6391 85.5368 25.1563 82.2753 25.1638C81.6089 25.1655 80.904 25.0281 80.2209 24.9301C79.8831 24.8815 78.9878 24.7324 78.7381 24.5171C78.633 24.4272 78.548 24.4431 78.4832 24.5649C78.1672 25.1563 77.8303 25.9781 77.2628 26.3535ZM76.5461 18.234C78.3692 15.4233 80.6475 12.998 83.2393 10.8894C83.2789 10.857 83.2734 10.8419 83.2225 10.8442C81.8579 10.8994 80.8168 11.387 79.645 12.1368C78.0205 13.1765 75.36 15.611 76.2653 17.8134C76.3284 17.967 76.3785 18.1016 76.4154 18.2172C76.4466 18.315 76.4902 18.3205 76.5461 18.234ZM84.0691 16.3733C82.8319 17.6098 81.9627 18.8045 81.0172 20.0963C80.9356 20.2075 80.9624 20.2775 81.0976 20.3066C81.3022 20.3507 81.5036 20.3794 81.702 20.3928C85.7086 20.662 89.256 19.5512 92.344 17.0603C93.3691 16.2334 94.4135 14.9692 94.4596 13.6213C94.5133 12.0287 93.1394 11.0377 91.6432 11.3778C89.8796 11.7782 88.6449 12.5138 87.1697 13.6498C86.0775 14.4909 85.0439 15.3988 84.0691 16.3733ZM131.295 26.6819C132.79 28.2392 134.031 30.1485 134.952 32.0954C135.052 32.3071 135.282 32.8754 135.64 33.8002C137.244 37.9362 137.961 42.4818 137.347 46.8976C137.077 48.8354 136.504 50.5687 135.272 52.116C134.028 53.6801 131.453 54.6401 129.785 53.0769C129.328 52.6488 128.814 52.0004 128.4 51.4182C127.344 49.9337 126.382 48.3894 125.516 46.7854C124.348 44.624 123.2 42.4525 122.07 40.271C121.923 39.9862 121.746 39.7675 121.54 39.6151C121.402 39.5129 121.313 39.5453 121.272 39.7122C121.181 40.092 121.122 40.4763 121.096 40.865C120.851 44.4045 120.843 47.6684 120.657 51.0646C120.578 52.5022 120.418 55.8834 118.127 55.4729C115.306 54.9677 115.124 51.2372 115.112 49.0163C115.104 47.5178 115.196 46.025 115.389 44.5377C115.879 40.7452 116.728 37.0641 118.064 33.476C118.356 32.6902 118.973 31.4679 119.853 31.2987C120.842 31.1085 121.733 31.8943 122.261 32.6282C124.283 35.4403 126.041 38.0063 127.534 40.3263C129.004 42.6106 130.148 44.3668 130.967 45.5949C131.101 45.796 131.361 46.1043 131.545 46.1638C131.769 46.2364 131.879 46.1598 131.878 45.9342C131.867 44.6324 131.785 43.1319 131.545 41.2571C130.989 36.9066 129.73 32.9315 128.625 28.8659C128.456 28.2434 128.15 26.9818 128.293 26.2697C128.479 25.3414 129.401 25.3473 130.074 25.7235C130.509 25.9675 130.916 26.287 131.295 26.6819ZM145.064 34.5651C143.875 34.2903 142.537 33.987 141.521 33.259C141.028 32.9063 140.411 31.9831 140.503 31.3305C140.588 30.7307 141.281 30.4534 141.815 30.3378C146.193 29.3903 150.66 28.8784 155.122 28.5534C156.666 28.4411 158.089 28.5844 159.364 29.5394C160.285 30.2291 161.001 31.1004 161.511 32.1532C162.403 33.9929 160.587 34.4704 159.248 34.6866C156.174 35.1808 153.721 35.1306 149.993 35.1323C149.98 35.1323 149.968 35.1355 149.958 35.1414C149.948 35.1473 149.941 35.1555 149.939 35.1649L148.931 38.5193C148.929 38.5268 148.929 38.5348 148.929 38.5426C148.931 38.5504 148.934 38.5577 148.939 38.564C148.944 38.5704 148.951 38.5756 148.959 38.5792C148.965 38.5827 148.974 38.5846 148.982 38.5846C150.873 38.5712 152.778 38.5567 154.697 38.5411C156.041 38.5293 157.123 38.748 157.314 40.3029C157.428 41.2244 157.537 42.4994 156.539 42.9041C156.146 43.0641 155.488 43.0725 155.029 43.0817C153.131 43.1196 151.231 43.156 149.333 43.1906C148.789 43.2001 148.118 43.2679 147.318 43.3942C147.305 43.3963 147.293 43.4015 147.282 43.4094C147.272 43.4174 147.265 43.4278 147.26 43.4394C146.67 45.001 146.155 46.5871 145.714 48.1978C145.711 48.2081 145.711 48.2189 145.712 48.2292C145.715 48.2397 145.719 48.2496 145.726 48.2581C145.732 48.2665 145.74 48.2735 145.75 48.2783C145.759 48.2831 145.769 48.2856 145.78 48.2858C146.488 48.2958 147.197 48.2355 147.905 48.1048C150.593 47.6089 153.203 47.2327 155.493 46.8985C155.887 46.8409 156.249 46.894 156.577 47.0577C157.275 47.4053 157.871 48.4818 158.033 49.2291C158.332 50.6097 157.524 51.2657 156.506 51.9945C153.601 54.0755 149.799 55.9294 146.189 56.1967C144.927 56.2897 143.041 55.7376 141.938 54.8035C141.535 54.4628 141.173 54.0406 140.851 53.5368C139.364 51.2062 139.401 48.3227 140.486 45.8211C140.614 45.5262 140.862 44.9303 141.228 44.0334C141.356 43.7206 141.391 43.4266 141.335 43.1512C141.196 42.4687 141.066 41.7846 140.945 41.0987C140.712 39.7893 141.744 39.0998 142.9 39.0169C143.563 38.9692 143.843 38.1281 144.035 37.5785C144.381 36.591 144.734 35.6056 145.095 34.6221C145.097 34.6163 145.098 34.6102 145.098 34.6041C145.097 34.5979 145.095 34.5921 145.093 34.5866C145.09 34.5813 145.085 34.5766 145.081 34.5729C145.076 34.5691 145.07 34.5665 145.064 34.5651ZM90.261 41.159C88.2904 40.6547 87.3734 39.4224 87.5066 37.39C87.7992 32.9139 92.5015 30.9401 96.2023 30.0965C100.279 29.1675 104.625 28.9337 108.761 29.5821C110.363 29.8335 112.17 30.3043 113.534 31.1521C114.577 31.8005 113.532 33.3445 112.884 33.822C112.48 34.1203 112.007 34.3316 111.466 34.4562C110.563 34.664 109.385 34.8058 107.931 34.8818C106.144 34.975 104.356 35.0415 102.567 35.0812C102.391 35.0853 102.123 35.1197 101.869 35.1256C99.4654 35.1808 96.8041 35.4355 94.3473 35.97C93.8528 36.0772 92.6625 36.2942 92.3859 36.7407C92.2945 36.8888 92.3205 37.0113 92.4638 37.1085C93.007 37.4763 93.955 37.5852 94.5971 37.6614C99.6373 38.2551 102.816 38.633 104.132 38.7949C106.159 39.0446 108.172 39.4458 109.869 40.2828C112.035 41.35 113.191 43.9136 113.29 46.2274C113.41 49.0398 112.495 51.2908 110.259 53.004C106.856 55.6119 101.803 55.9186 97.7194 54.9794C94.7153 54.2891 91.2878 52.5935 89.5317 49.9504C88.639 48.6067 88.536 46.8449 89.4052 45.4567C90.9676 42.9636 95.095 42.6821 97.6784 42.9594C100.433 43.2543 103.1 43.7913 105.55 45.0328C107.143 45.8396 105.817 46.9194 104.879 47.3274C103.03 48.13 101.014 48.5103 99.0991 47.8703C96.9173 47.1414 94.416 45.4048 92.2492 46.204C91.6038 46.4419 90.8922 47.1247 91.1135 47.8795C91.4412 48.9979 93.6742 49.555 94.6516 49.7192C95.0967 49.7935 95.6532 49.8367 96.3205 49.849C100.288 49.9202 104.869 49.24 108.155 46.813C108.82 46.3221 109.157 45.5907 108.701 44.8393C108.692 44.8243 108.682 44.8115 108.671 44.8017C108.66 44.7918 108.648 44.7853 108.637 44.7823L108.506 44.748C108.481 44.7414 108.456 44.723 108.436 44.696C107.521 43.4478 104.611 42.9141 103.183 42.6737C100.284 42.1861 97.3422 41.9834 94.4152 41.722C92.6105 41.5612 91.6625 41.5176 90.261 41.159ZM186.801 39.6561V41.7086C186.678 43.2702 186.398 44.6634 185.961 45.8882C184.348 50.4061 180.598 53.8133 176.284 55.8256C173.96 56.9088 171.58 57.393 169.018 57.2388C168.992 57.2373 168.966 57.2442 168.944 57.2587C168.922 57.2733 168.906 57.2946 168.897 57.3193C167.743 60.6828 166.907 63.7063 165.974 67.591C165.853 68.0959 165.733 68.6415 165.613 69.2279C165.047 72.002 164.461 74.7727 163.853 77.5401C163.669 78.3762 163.647 78.8554 162.844 79.0883H162.362C160.643 78.3913 159.052 77.2486 158.541 75.4172C158.105 73.854 158.179 72.0771 158.374 70.482C158.836 66.6937 159.468 63.0696 160.626 59.4597C161.354 57.1867 162.16 54.9401 163.042 52.72C163.051 52.6988 163.055 52.6761 163.054 52.6532C163.054 52.6303 163.048 52.6078 163.039 52.5868C162.107 50.5586 161.629 48.2908 161.776 46.0607C162.141 40.5324 165.392 35.2613 168.933 31.1546C169.413 30.5978 169.933 30.1166 170.495 29.7112C171.11 29.2663 171.771 29.4456 171.931 30.249C171.987 30.5316 171.99 30.831 171.939 31.1471C171.684 32.7421 170.984 34.2241 170.183 35.6115C169.585 36.6463 168.988 37.6818 168.392 38.7178C167.199 40.7946 166.255 43.1923 165.958 45.5505C165.887 46.106 165.954 46.6254 166.037 47.1707C166.046 47.2322 166.068 47.2375 166.104 47.1867C167.094 45.7994 168.112 44.4254 169.123 43.0482C171.15 40.2853 173.652 37.6748 175.711 35.6676C177.163 34.2526 178.336 33.3085 179.967 32.5302C181.372 31.8608 182.639 31.9186 183.879 32.9206C185.869 34.5299 186.587 37.2208 186.801 39.6561ZM180.632 38.4908C179.1 40.1613 177.714 41.9449 176.471 43.8415C175.469 45.3729 174.491 46.9177 173.477 48.4416C173.051 49.0811 172.658 49.7412 172.296 50.4221C172.294 50.4268 172.292 50.4319 172.292 50.4372C172.291 50.4425 172.292 50.4478 172.295 50.4526C172.296 50.4575 172.3 50.4619 172.303 50.4655C172.307 50.469 172.311 50.4717 172.316 50.4732C172.42 50.5056 172.549 50.5178 172.704 50.51C175.192 50.3869 177.924 49.0917 179.702 47.4589C182.071 45.2825 183.714 41.7999 183.089 38.521C182.988 37.989 182.528 36.7081 181.725 37.426C181.293 37.8125 180.928 38.1674 180.632 38.4908ZM83.4086 55.3028C81.1781 55.7208 79.4338 54.8345 79.0968 52.4746C78.9034 51.1202 78.7867 49.6329 78.7464 48.0127C78.6654 44.7259 78.7464 41.443 78.9895 38.1641C79.118 36.4277 79.3354 34.7025 79.6416 32.9884C79.7797 32.2194 79.9859 31.4699 80.2603 30.7399C80.5008 30.1007 80.9115 29.3174 81.7355 29.5847C82.5911 29.8622 83.1898 30.4467 83.5318 31.3381C83.9518 32.4339 84.1211 33.5665 84.2569 34.7092C84.5209 36.92 84.6844 39.0797 84.7916 41.2227C84.9534 44.4553 85.0842 47.6891 85.1839 50.9239C85.2074 51.6935 85.1663 52.4578 85.0607 53.2168C84.9224 54.2154 84.4756 55.1026 83.4086 55.3028Z" fill="white"/>
</g>
</g>
<defs>
<clipPath id="clip0_833_9405">
<rect width="186" height="79" fill="white" transform="translate(0.800781 0.0882568)"/>
</clipPath>
</defs>
</svg>
