<svg width="211" height="72" viewBox="0 0 211 72" fill="none" xmlns="http://www.w3.org/2000/svg">
<g clip-path="url(#clip0_833_9533)">
<path fill-rule="evenodd" clip-rule="evenodd" d="M98.9125 42.452C99.1317 42.0473 98.8313 42.2337 99.2874 42.1017L99.4801 42.7865L102.842 50.9511C103.072 51.4815 103.209 51.835 103.402 52.3296C103.462 52.4837 103.636 52.8868 103.673 53.0367C103.741 53.3128 103.701 53.1411 103.72 53.4082L103.698 53.6594C102.889 53.8605 94.5649 53.8737 93.8008 53.6486C93.5499 53.0764 94.5318 51.5136 94.9054 50.7877C95.6427 49.356 98.7442 43.157 98.9125 42.4519V42.452ZM63.8139 50.6543C63.8098 48.569 63.7342 43.3056 64.2015 41.3463C64.4692 40.2239 65.2009 40.5111 66.4056 40.513C70.6249 40.5194 73.9741 41.0638 73.985 45.4862C73.9973 50.4719 70.9441 52.0615 66.7362 52.2013C63.5874 52.306 63.8176 52.5572 63.8139 50.6543ZM116.199 38.0166C116.537 38.7291 117.192 39.0933 117.69 40.2938C119.606 44.9115 118.533 66.156 117.006 68.2274C113.679 65.904 103.424 38.5885 102.93 37.9773L95.5018 38.0006C95.4371 38.7791 96.0089 38.9456 95.9398 39.9921C95.6984 43.6559 85.2782 63.9755 82.8428 65.5621C81.4472 65.1518 78.2428 61.0532 77.1995 59.8652C76.6314 59.2184 72.3509 54.4334 72.2122 53.7229C74.4042 51.9163 77.1744 51.3722 79.2452 47.5365C80.1019 45.9497 80.2873 43.7702 79.5989 41.9546C77.2136 36.9667 58.5879 37.9801 51.903 37.9795L24.8307 38.045C24.4766 38.6581 23.6802 42.3615 23.5101 43.2865C24.6151 42.7987 25.3584 41.7206 27.5665 41.2716C29.137 40.9523 31.633 41.1171 33.3714 41.1068C36.1635 41.0905 35.9861 40.3442 36.0437 46.9397L35.9637 63.5708C35.8075 68.7304 34.8435 68.135 34.6013 69.5746L43.109 69.5628C42.9214 68.543 42.2449 68.7152 41.9027 66.4587C41.3688 62.9377 41.3009 44.0546 42.0363 41.0153L54.3205 40.9566C58.9706 40.9523 58.1709 40.2901 58.2273 43.7098L58.3592 55.6609C58.3597 58.5741 58.427 64.3738 57.7398 67.1505C57.4753 68.2189 56.685 69.2619 56.6317 69.8313L65.5191 69.7916C65.401 68.7815 64.2735 68.9338 63.9699 63.898C63.7886 60.8933 63.7071 57.7898 63.9057 54.7627C66.145 54.2742 68.613 57.4649 69.5018 58.5325L73.8599 63.696C76.1162 66.4866 79.7227 71.2644 85.0992 71.2644C86.9773 71.2644 92.1457 71.2572 92.9385 69.6106C90.9787 69.4242 89.4801 69.4348 87.6485 68.9342C87.4121 66.8871 89.3177 63.3197 90.0684 61.5939L91.5658 58.2673C92.3677 56.57 91.9663 56.2695 94.2844 56.2717L102.181 56.2696C105.439 56.272 105.022 55.8492 106.257 58.8321L110.882 69.6953L123.773 69.6756C123.738 69.0355 123.087 68.2147 122.844 67.5753C121.393 63.7632 121.627 48.644 121.914 43.2816C122.83 43.5624 136.997 61.5708 139.551 64.7174C141.615 67.2606 143.626 70.5855 147.389 69.6199C147.455 65.0586 146.984 42.6432 148.158 39.5877C148.47 38.7771 148.825 38.5564 149.092 37.9995L142.69 38.0071C142.968 38.9415 143.48 39.2485 143.792 40.613C144.381 43.1907 144.616 61.5728 144.239 62.5832C143.75 62.3366 144.123 62.5842 143.732 62.1475C143.572 61.9686 143.479 61.8384 143.371 61.7003L129.518 44.4134C124.992 38.6138 124.46 37.7387 116.2 38.0161L116.199 38.0166ZM175.95 66.6254C174.359 67.4269 169.262 67.1008 167.267 66.7052C164.63 66.1825 162.289 65.2867 160.445 63.8048C156.242 60.4265 155.124 54.4785 156.552 49.417C157.876 44.7273 161.763 41.5534 166.948 40.4578C176.086 38.527 181.009 44.0066 181.757 44.1826C181.809 42.9998 182.022 38.7703 181.629 38.0505C180.42 37.3667 171.861 37.3149 169.918 37.4602C163.03 37.9754 156.85 39.8158 152.743 45.1249C148.484 50.6298 148.567 58.6661 152.432 63.9228C156.543 69.5135 164.359 70.238 171.153 69.9484C172.574 69.8878 181.771 69.3782 182.351 69.0186C182.692 68.7216 182.28 67.7023 182.211 67.3124C181.772 64.8466 181.678 59.0446 182.053 56.6683C182.371 54.6523 183.064 54.2587 183.303 53.3705C181.762 53.3741 180.512 53.3121 179.053 53.1998C177.416 53.0739 176.452 53.3244 174.933 53.3641C175.257 54.4432 175.795 54.6122 176.101 56.1975C176.566 58.6014 176.542 64.6644 175.95 66.625V66.6254ZM186.223 37.9855C187.798 39.5244 187.987 42.0056 188.129 44.6992C188.309 48.1093 188.419 63.4799 187.731 66.4886C187.383 68.015 186.688 68.5242 186.385 69.5869C190.476 69.6634 206.501 70.0276 209.259 68.9769L210.4 63.1301C209.062 63.5439 208.382 65.7636 203.729 66.5188C202.204 66.7663 195.483 67.4921 194.366 66.8067C193.623 66.1823 193.752 61.6278 193.743 60.8292C193.733 59.847 193.422 55.1031 193.965 54.6122C194.597 54.0402 201.988 54.746 205.622 52.8986C206.327 52.54 207.631 51.6155 208.063 50.9775C207.934 50.9201 208.009 50.9192 207.715 50.9023L204.83 51.312C203.164 51.4388 194.355 51.7599 193.871 51.303C193.431 50.8861 193.796 43.0761 193.995 41.4525C194.018 41.2679 194.06 40.9437 194.131 40.7754C194.382 40.174 194.11 40.6271 194.429 40.36C195.129 39.8709 201.247 40.2587 202.543 40.347C206.293 40.6028 207.013 43.1506 207.652 43.507L207.649 37.66C205.796 37.4525 186.718 37.7253 186.223 37.9855H186.223ZM17.9006 62.4449C17.8305 62.931 17.6562 63.4995 17.4198 63.9839C17.234 64.3645 16.1502 65.6136 15.8331 65.8348C13.8411 67.2246 8.16612 68.3228 3.39768 64.8651L1.21074 62.7042C1.10427 62.5627 1.0111 62.4211 0.845831 62.257C0.477046 61.8902 0.786024 62.1455 0.451775 61.9345L0.400391 67.8846C2.65826 68.8584 7.01394 69.7465 9.67631 69.8996C13.179 70.1012 16.2988 69.2839 18.7743 67.8379C24.53 64.4759 25.4787 58.1877 19.7179 53.9968C17.6368 52.4827 14.8767 51.3239 12.4522 49.9806C4.23179 45.4259 6.76561 40.1446 14.674 39.9602C16.3439 39.9214 18.1341 40.1939 19.4885 40.837C21.699 41.8867 21.6569 43.0035 22.3906 43.3387C22.6456 42.6955 23.4671 38.6023 23.4912 37.6607C19.2934 37.6071 12.3746 36.9309 8.78711 38.1186C5.36796 39.2505 1.12331 42.0355 2.38146 46.9726C3.29491 50.5567 7.15259 52.7375 10.532 54.4756C13.7525 56.132 18.7201 57.5698 17.9003 62.4449H17.9006ZM59.0838 26.429C58.4452 30.6216 55.6546 32.6949 51.1035 32.8843C46.6059 33.0716 46.8944 32.1596 46.7946 30.1365L46.8118 19.4281C46.8662 18.2662 46.5441 16.9389 47.7064 16.7584C54.0315 15.7759 60.2727 18.6255 59.084 26.429H59.0838ZM41.9689 15.18C42.3335 16.4476 42.9981 15.7886 43.1164 19.1358C43.2218 22.1207 43.2788 27.6882 43.1164 30.6277C43.0222 32.3303 41.8319 34.1321 41.857 34.5524C44.8744 34.7231 51.6759 34.8901 54.3678 34.3589C58.0744 33.6276 60.6046 31.7059 62.0548 29.1611C64.901 24.1668 63.3357 14.8126 52.7088 14.8126C51.216 14.8126 48.6308 14.6311 47.3184 14.8927C45.4662 15.2618 43.7953 14.9746 41.9689 15.1799V15.18ZM135.233 16.8645C140.073 15.8575 142.908 18.8837 143.647 23.1371C144.468 27.8643 142.676 32.1422 138.588 32.7302C128.319 34.2071 126.899 18.5983 135.233 16.8645ZM134.962 14.9514C128.44 15.9252 125.083 20.6453 126.013 26.8055C126.88 32.5421 131.97 35.6821 138.746 34.6516C144.154 33.8292 148.583 29.3195 147.708 22.7476C146.894 16.6389 141.717 13.9429 134.962 14.9516L134.962 14.9514ZM74.1658 16.8702C79.1256 15.7896 81.8021 18.9548 82.6 23.1165C84.8459 34.8303 70.5091 36.1279 69.0717 26.4428C68.3362 21.4865 70.0782 17.7609 74.1656 16.8702H74.1658ZM73.8925 14.957C67.3939 15.9699 64.0897 20.5369 65.025 26.8205C65.8879 32.6181 71.1202 35.7772 77.8259 34.6358C83.1156 33.7355 87.6171 29.2718 86.6745 22.7863C85.6833 15.9659 79.7726 14.0407 73.8927 14.957H73.8925ZM153.867 16.8319C154.399 16.4006 156.099 16.6316 156.804 16.7545C160.546 17.4066 159.72 21.569 158.082 22.8646C157.371 23.4265 156.655 23.4721 155.538 23.666C154.373 23.8679 153.343 24.3074 153.317 22.893C153.299 21.9273 153.015 17.5226 153.867 16.832L153.867 16.8319ZM148.619 15.1611C148.847 16.3203 149.521 15.8772 149.703 19.3166L149.707 30.15C149.587 32.5024 149.445 32.8506 148.58 34.5105L154.405 34.5335C153.946 33.0086 153.673 34.1137 153.398 30.5157C152.986 25.1017 153.132 23.8851 156.732 27.7987C157.626 28.7702 158.43 29.8559 159.378 30.9617C162.103 34.1422 161.694 34.753 167.593 34.5245C167.283 34.0472 165.672 33.0643 165.029 32.4029C163.913 31.2543 158.721 25.5965 158.351 24.5559C162.556 23.1197 164.996 18.6699 161.8 16.0994C159.56 14.2976 155.127 14.7991 152.249 15.048C151.043 15.1523 149.826 15.0786 148.619 15.1615V15.1611ZM136.182 36.6987C96.7487 36.7156 57.4983 36.5728 18.1577 36.1782C18.5145 36.3416 93.8885 35.7927 101.697 35.8015L164.543 36.0223L174.886 36.1083C176.826 36.1709 184.139 35.929 185.309 36.2548C168.826 36.6515 152.699 36.6915 136.182 36.6986V36.6987ZM191.454 36.654C192.327 36.6476 206.29 36.781 207.116 36.2807L206.442 36.0995C204.692 35.9129 202.748 35.9305 200.962 35.9268L194.516 35.8895L156.325 35.6424L105.403 35.5293L54.3199 35.6234L6.62123 35.9646C5.96924 35.9653 4.21915 35.6563 3.81701 36.2807C4.43277 36.6925 8.51654 36.5245 9.19953 36.5285L14.5128 36.6148L25.3141 36.6908L133.281 37.0023L148.91 36.9562L174.383 36.7862L191.454 36.6542V36.654ZM96.1346 1.96861L97.4933 1.97924L97.4932 8.17897L97.5536 8.44372L98.6891 8.44304L98.6893 9.81223H96.1348L96.1346 1.96827V1.96861ZM94.6027 4.1415L94.6586 5.03706L95.8684 5.09177L95.9663 6.57458L94.6135 6.5756L94.6531 8.27403L95.8416 8.38716C96.0416 8.95431 95.9665 9.01983 95.9665 9.81223H93.6397C92.8438 9.81223 93.5371 9.82084 93.2387 9.69015L93.2445 8.34849C93.2527 7.32393 93.3728 4.05572 93.1563 3.57806C92.7148 4.53981 92.3965 8.59112 92.2057 9.30062C92.0185 9.99644 92.0579 9.81206 90.3493 9.81206C90.3181 9.17263 90.1304 8.24684 90 7.57601L89.6188 5.44702L89.098 6.37315C88.7277 6.92849 88.7446 6.63148 88.9233 7.41206L89.6624 9.80581L88.135 9.81341C88.1023 9.38909 87.7106 7.87842 87.5164 7.38741C87.0782 7.84077 87.2883 9.13177 87.2883 9.73692C86.3258 9.88787 85.4267 9.81898 84.3991 9.81223L84.2681 8.68618L83.2074 8.66761C83.2079 9.72848 83.7588 10.014 80.3129 9.77018L80.2709 6.94824C79.7092 8.02261 80.2381 9.81223 79.298 9.81223C78.3053 9.81223 78.847 7.69978 78.3311 6.81198L78.2654 9.81223C77.4611 9.81223 76.7424 10.0738 76.7424 9.3094L76.7874 1.99495L78.7801 2.01858C78.7799 2.61748 79.0542 5.03993 79.2823 5.37189C79.5554 4.93001 79.609 3.86949 79.704 3.24121C79.7368 3.02424 79.8324 2.25328 79.8962 2.13306C80.0438 1.85497 79.9576 1.86915 81.3259 1.93585L81.7486 2.01909L81.8409 8.21763C82.1666 7.24254 82.4717 2.06384 83.015 1.9757L84.7346 2.03057C85.0592 3.05547 85.2941 6.41063 85.6603 7.65605L85.752 7.92131C85.7522 6.50282 85.4775 3.03707 85.8716 1.99343L87.6845 1.9708C88.4848 2.04307 88.6883 2.29718 89.019 2.79731L89.2498 1.92623L90.6298 1.94986C90.7886 2.86755 90.9258 5.55441 91.2396 6.04255C91.5592 5.45074 91.6143 2.88764 91.8849 1.99545L95.9663 1.96894L95.9584 3.33238C94.9388 3.33238 94.6028 3.07607 94.6028 4.14184L94.6027 4.1415ZM75.3759 1.23446V10.6016C75.3759 11.4038 75.4763 11.4161 76.236 11.4161H98.9573C99.6764 11.4161 99.7177 11.2932 99.7177 10.6016V1.07287C99.7177 0.294319 99.5967 0.264771 98.7963 0.264771H76.236C75.429 0.264771 75.3759 0.445099 75.3759 1.23446ZM105.121 16.2534L105.12 15.2851C104.717 15.0394 99.6176 14.7826 98.4716 14.8302C95.519 14.9531 92.5295 16.0359 90.5652 17.8568C85.5409 22.5142 86.9368 33.8503 97.2351 34.8038C101.745 35.2213 105.885 33.2159 106.573 29.4574C105.901 29.7794 105.499 30.3947 104.793 30.8268C100.208 33.6332 92.2393 32.134 91.6977 24.8188C91.397 20.7591 93.3203 18.0582 96.2882 17.1037C99.1117 16.1958 102.589 16.5458 104.226 19.2153C104.553 19.7482 104.437 19.913 104.929 20.175L105.121 16.2532L105.121 16.2534ZM107.015 19.9706C107.888 19.4997 108.254 17.8762 109.232 17.5008C109.871 17.2553 112.908 17.2908 113.783 17.371C114.019 19.0068 114.218 30.6157 113.737 32.8365C113.575 33.5888 113.186 33.9227 112.95 34.5554L118.777 34.5578C118.52 33.8677 118.208 33.8228 117.976 33.0231C117.526 31.4718 117.461 17.8348 117.941 17.3848C118.617 17.0451 121.457 17.2363 122.291 17.406C123.645 17.6813 123.727 19.2114 124.791 19.8934L124.177 15.1137L107.694 15.0868L107.015 19.9706H107.015Z" fill="#FEFEFE"/>
<path fill-rule="evenodd" clip-rule="evenodd" d="M185.31 36.255C184.139 35.9291 176.826 36.1712 174.886 36.1084C171.537 36.0002 167.96 36.0465 164.544 36.0225L101.697 35.8016C93.8892 35.7929 18.515 36.3418 18.1582 36.1783L136.182 36.6989L185.31 36.2552V36.255ZM112.58 2.76418C114.432 2.80572 113.981 3.44632 113.977 5.2719C113.975 6.32365 114.095 8.02343 113.798 8.87341L112.578 9.01558L112.58 2.76418ZM111.66 9.82216C115.328 10.0751 114.896 9.14373 114.896 5.91791C114.896 2.72113 115.366 1.69639 111.661 1.98225L111.66 9.82216H111.66ZM119.117 8.99751C117.207 9.4382 117.785 7.61803 117.785 5.91791C117.785 4.17152 117.175 2.33768 119.155 2.78867C119.343 3.6822 119.359 8.18637 119.117 8.99734V8.99751ZM120.086 9.14728L120.097 2.68871C119.77 2.19331 119.796 2.02666 119.075 1.89867C118.468 1.79078 117.747 1.82252 117.319 2.19095C116.632 2.78208 116.871 4.67891 116.871 5.75649C116.871 8.54652 116.424 10.0839 118.786 9.89257C119.711 9.81777 119.685 9.61093 120.086 9.14728H120.086ZM110.932 9.0073C111.059 7.84344 111.007 2.80251 110.937 1.99542L110.327 1.99238C110.318 3.12974 110.996 9.08328 109.432 9.09966C108.028 9.11435 108.83 3.21872 108.718 1.94848L107.908 1.93649C107.703 3.51589 107.852 6.18485 107.852 7.86218C107.851 8.86733 107.846 9.59658 108.795 9.83128C109.725 10.0611 110.827 9.88868 110.932 9.00713L110.932 9.0073ZM101.888 8.95648C101.715 8.41853 101.869 7.78299 101.536 7.35834L101.053 7.36223C100.393 8.40756 100.99 9.85204 102.337 9.89848C104.083 9.95859 104.136 8.97742 104.045 7.36121C103.957 5.8139 103.102 5.82555 102.233 5.05966C101.704 4.5933 101.097 2.29732 103.043 2.79491C103.306 3.95472 102.695 3.98039 103.98 3.99744C104.127 2.40471 103.717 1.64642 102.035 1.88837C100.837 2.0606 100.641 3.43619 100.936 4.7505C101.2 5.92838 102.464 6.03357 102.947 6.75843C103.277 7.25349 103.673 9.60654 101.888 8.95614L101.888 8.95648ZM122.09 6.31267C122.796 6.81381 122.9 6.92272 122.827 8.19093C122.768 9.20992 122.239 9.33571 121.516 8.84656C121.309 8.61659 121.332 8.48303 121.318 8.34373C121.265 7.8014 121.105 7.56653 120.943 7.53783C120.734 7.50102 120.545 7.88481 120.824 9.24909C121.174 10.0729 122.727 10.1295 123.362 9.52752C123.861 9.0539 123.871 7.21398 123.606 6.56105C123.045 5.18325 121.232 5.71158 121.444 3.48229C121.544 2.4248 122.535 2.53219 122.663 2.91615C122.708 3.05021 122.703 3.50373 122.817 3.71429C123.072 4.18486 123.513 4.33801 123.533 3.35211C123.555 2.19804 123.261 1.81189 122.002 1.86372C119.719 1.95777 120.086 4.88878 122.09 6.3125V6.31267ZM100.882 0.58842C101 0.832066 100.845 0.917841 102.007 0.903657L121.034 0.892007L122.494 0.899436C123.166 0.908892 123.532 1.07521 123.723 0.58842C123.191 0.336838 101.506 0.324343 100.882 0.58842H100.882ZM105.416 2.82193L105.433 9.84563L106.259 9.8593L106.339 2.78157L107.471 2.74814L107.484 1.93059L104.239 1.93683C104.163 3.03907 104.492 2.73362 105.416 2.82193ZM100.854 11.2244C101.112 11.5277 101.005 11.4397 102.18 11.4269L122.486 11.4276C123.243 11.436 123.446 11.6015 123.891 11.086C123.478 10.6088 123.563 10.7419 122.812 10.7452L101.375 10.7532C100.437 10.7616 101.141 10.7471 100.856 10.9463L123.303 10.9232C123.78 11.0367 123.488 10.8758 123.669 11.2467L100.854 11.2244H100.854Z" fill="#FEFEFE"/>
<path fill-rule="evenodd" clip-rule="evenodd" d="M100.854 11.2244L123.669 11.2467C123.488 10.8756 123.78 11.0367 123.304 10.9232L100.856 10.9463L100.854 11.2244H100.854ZM115.585 9.66749L116.237 9.63254L116.226 2.07056L115.567 2.07089L115.585 9.66749ZM87.2915 5.82538C88.3545 5.29925 88.5781 3.87519 87.2913 3.39786L87.2915 5.82538ZM83.3652 7.2079L84.181 7.27527L83.8501 4.55936C83.4608 5.18021 83.6164 6.49637 83.3654 7.20773L83.3652 7.2079ZM98.9132 42.452L99.4809 42.7865L99.2882 42.1017C98.8322 42.2335 99.1325 42.0473 98.9134 42.452H98.9132Z" fill="#FEFEFE"/>
</g>
<defs>
<clipPath id="clip0_833_9533">
<rect width="210" height="71" fill="white" transform="translate(0.400391 0.264771)"/>
</clipPath>
</defs>
</svg>
