<svg width="132" height="55" viewBox="0 0 132 55" fill="none" xmlns="http://www.w3.org/2000/svg">
<g clip-path="url(#clip0_833_9746)">
<path d="M103.822 0.874023H104.855C119.429 1.24104 131.043 12.7288 131.376 27.2798V28.2902C131.028 42.7832 119.41 54.3283 104.814 54.6555H103.847C92.8942 54.4091 83.2382 47.7611 79.183 37.6378C79.1745 37.6169 79.1791 37.5993 79.1778 37.5758C79.1769 37.565 79.171 37.5595 79.16 37.5595H79.1437C79.1362 37.5595 79.1327 37.563 79.1332 37.57C79.3797 42.6235 78.1417 47.9697 73.916 51.2187C71.4457 53.1184 68.2194 54.0343 65.1242 54.0349C57.3824 54.0367 49.6414 54.0369 41.9012 54.0356C41.8917 54.0356 41.8825 54.0319 41.8757 54.0253C41.869 54.0187 41.8652 54.0097 41.8652 54.0004V1.49202C41.8652 1.48363 41.8668 1.47532 41.8701 1.46757C41.8733 1.45982 41.878 1.45278 41.884 1.44685C41.89 1.44092 41.8971 1.43621 41.9049 1.433C41.9127 1.42979 41.921 1.42814 41.9294 1.42814C49.1248 1.42857 56.3277 1.42835 63.538 1.42748C64.1002 1.42748 64.5369 1.43552 64.8482 1.4516C68.4535 1.64065 72.2576 2.79712 75.1212 5.00053C78.8361 7.8591 80.1365 12.0352 79.7115 16.5815C79.7102 16.5958 79.7168 16.6026 79.7312 16.6017C79.7382 16.6013 79.745 16.601 79.7515 16.601C79.7625 16.601 79.7679 16.5956 79.7679 16.5847V16.5561C79.7679 16.5439 79.7706 16.5324 79.7758 16.5215C84.2054 7.11137 93.3546 1.14065 103.822 0.874023ZM54.9311 14.2705L54.9305 22.165C54.9305 22.1701 54.9315 22.1752 54.9335 22.18C54.9355 22.1847 54.9385 22.189 54.9422 22.1926C54.9459 22.1963 54.9503 22.1992 54.9552 22.2011C54.96 22.2031 54.9652 22.2041 54.9705 22.2041C57.4654 22.2124 59.9669 22.2108 62.475 22.1995C62.6914 22.1982 62.8826 22.1728 63.0488 22.1233C65.2895 21.4538 66.0567 19.2797 65.7334 17.1597C65.5137 15.7184 64.6881 14.6108 63.1891 14.3246C62.9333 14.2755 62.4979 14.2514 61.8828 14.2523C59.5671 14.2553 57.2556 14.2557 54.9482 14.2536C54.9437 14.2536 54.9393 14.2553 54.9361 14.2585C54.9329 14.2617 54.9311 14.266 54.9311 14.2705ZM117.704 27.7641C117.704 26.0192 117.358 24.2913 116.687 22.6792C116.015 21.067 115.03 19.6022 113.789 18.3684C112.548 17.1345 111.075 16.1557 109.453 15.488C107.831 14.8202 106.093 14.4765 104.338 14.4765C100.793 14.4765 97.3931 15.8764 94.8864 18.3684C92.3798 20.8603 90.9715 24.24 90.9715 27.7641C90.9715 31.2882 92.3798 34.668 94.8864 37.1599C97.3931 39.6518 100.793 41.0517 104.338 41.0517C106.093 41.0517 107.831 40.7081 109.453 40.0403C111.075 39.3725 112.548 38.3938 113.789 37.1599C115.03 35.926 116.015 34.4612 116.687 32.8491C117.358 31.237 117.704 29.5091 117.704 27.7641ZM71.6254 27.4147C71.6586 27.4382 71.6862 27.4538 71.708 27.4616C72.2501 27.6585 72.7843 27.8743 73.3107 28.109C75.0965 28.9052 76.5115 30.1444 77.5554 31.8267C77.6018 31.9015 77.6184 31.8954 77.6053 31.8085C77.2017 29.1018 77.2028 26.3954 77.6085 23.6891C77.6088 23.6859 77.608 23.6827 77.6063 23.68C77.6045 23.6773 77.602 23.6752 77.599 23.674C77.596 23.6728 77.5927 23.6727 77.5895 23.6735C77.5864 23.6743 77.5836 23.6762 77.5816 23.6787C76.3947 25.3984 74.7776 26.5275 72.7304 27.0659C72.5664 27.109 71.6766 27.2876 71.6182 27.3691C71.6156 27.3725 71.6137 27.3763 71.6127 27.3805C71.6116 27.3846 71.6114 27.389 71.6121 27.3932C71.6128 27.3975 71.6143 27.4016 71.6166 27.4052C71.6189 27.4089 71.6219 27.4122 71.6254 27.4147ZM65.6698 36.158C65.3944 34.8346 64.3727 33.8678 63.0435 33.6716C62.8778 33.6473 62.4415 33.6347 61.7346 33.6338C59.4736 33.6308 57.2234 33.6303 54.9843 33.6325C54.9699 33.6327 54.9563 33.6384 54.9462 33.6484C54.9361 33.6584 54.9305 33.6719 54.9305 33.686L54.9311 41.6254C54.9311 41.6334 54.9328 41.6413 54.9361 41.6485C54.9394 41.6557 54.9442 41.662 54.9502 41.6671C54.9707 41.6845 54.9906 41.6882 55.0098 41.6782C55.0247 41.6708 55.0404 41.6671 55.057 41.6671C57.5297 41.6658 60.0028 41.6658 62.4763 41.6671C62.6931 41.6676 62.8846 41.6435 63.0507 41.5948C65.4606 40.8927 66.1236 38.3412 65.6698 36.158ZM0.224609 54.0199V1.45682L0.253463 1.43857C0.264392 1.43161 0.276196 1.42814 0.288874 1.42814H14.7988C14.8075 1.42814 14.8158 1.43157 14.822 1.43768C14.8281 1.4438 14.8316 1.45209 14.8316 1.46073V21.2458C14.8316 21.2545 14.8351 21.2627 14.8412 21.2689C14.8474 21.275 14.8557 21.2784 14.8644 21.2784H24.127C24.1356 21.2784 24.144 21.275 24.1501 21.2689C24.1563 21.2627 24.1597 21.2545 24.1597 21.2458V1.46073C24.1597 1.45209 24.1632 1.4438 24.1693 1.43768C24.1755 1.43157 24.1838 1.42814 24.1925 1.42814H38.7339C38.7426 1.42814 38.751 1.43157 38.7571 1.43768C38.7633 1.4438 38.7667 1.45209 38.7667 1.46073V54.0036C38.7667 54.0123 38.7633 54.0206 38.7571 54.0267C38.751 54.0328 38.7426 54.0362 38.7339 54.0362H24.1925C24.1707 54.0362 24.1597 54.0254 24.1597 54.0036V34.5934C24.1597 34.5848 24.1563 34.5765 24.1501 34.5704C24.144 34.5642 24.1356 34.5608 24.127 34.5608H14.8808C14.8677 34.5608 14.8552 34.566 14.846 34.5751C14.8368 34.5843 14.8316 34.5967 14.8316 34.6097V54.0043C14.8316 54.0119 14.8286 54.0192 14.8231 54.0246C14.8177 54.0299 14.8104 54.033 14.8027 54.033L0.224609 54.0199Z" fill="#E5E5E5"/>
<path d="M104.017 39.0417C110.013 39.0417 114.874 34.1871 114.874 28.1986C114.874 22.2102 110.013 17.3556 104.017 17.3556C98.021 17.3556 93.1602 22.2102 93.1602 28.1986C93.1602 34.1871 98.021 39.0417 104.017 39.0417Z" fill="#E5E5E5"/>
</g>
<defs>
<clipPath id="clip0_833_9746">
<rect width="131.151" height="53.7815" fill="white" transform="translate(0.224609 0.874023)"/>
</clipPath>
</defs>
</svg>
