<svg width="122" height="81" viewBox="0 0 122 81" fill="none" xmlns="http://www.w3.org/2000/svg">
<path d="M109.116 0.802127C111.395 1.33534 113.202 2.56464 114.537 4.49003C115.074 5.31997 115.472 6.21239 115.732 7.16727L115.815 7.54376L116.023 10.7481V13.944L116.005 15.5889C116.004 15.6558 116.037 15.6893 116.103 15.6893L119.169 15.6993H120.947C120.969 15.6993 120.99 15.7083 121.006 15.7243C121.021 15.7403 121.03 15.762 121.03 15.7846L121.035 17.7089L121.03 20.9986V23.1889C121.03 23.1998 121.028 23.2106 121.024 23.2207C121.019 23.2307 121.013 23.2398 121.005 23.2475C120.997 23.2551 120.988 23.2611 120.977 23.2651C120.967 23.2692 120.956 23.2711 120.945 23.2709L119.446 23.2374L116.133 23.2826C116.066 23.2826 116.024 23.3155 116.008 23.3813C115.955 23.5933 115.965 23.808 116.037 24.0255L116.03 27.7636C115.964 28.7854 115.965 29.8073 116.035 30.8291L115.995 33.4795L116.037 37.5791L116.028 41.1482C115.962 42.1889 115.965 43.223 116.037 44.2504L115.995 46.8658L116.03 50.8599L116.033 53.3915C116.033 53.4551 116.066 53.4869 116.13 53.4869L119.404 53.5103L120.893 53.5321C120.967 53.5321 121.004 53.5689 121.007 53.6425L121.032 54.2298L121.035 57.7839L120.987 60.9982L119.404 61.0535L116.102 61.1037C116.037 61.1048 116.005 61.1377 116.005 61.2024L116.037 64.2896L115.954 68.1164C115.398 72.2282 113.151 74.8485 109.213 75.9774C108.163 76.1392 107.117 76.2122 106.075 76.1966H99.3694L96.0989 76.2016L92.83 76.1966H86.1657L85.6543 76.1816C85.5865 76.1793 85.5526 76.1442 85.5526 76.0761L85.5443 74.6472L85.5343 71.0446L85.5426 68.7673C85.5438 68.6992 85.5776 68.6585 85.6443 68.6451C85.7853 68.6172 85.9314 68.62 86.0824 68.6535C92.83 68.6334 99.5777 68.6256 106.325 68.6301C107.247 68.6301 108.09 68.7254 108.385 67.7867C108.658 66.92 108.493 65.3722 108.484 64.4352V54.3118L108.489 50.9017L108.484 47.6187V40.9256L108.489 37.5172L108.484 34.2743V27.5812L108.489 24.1343L108.484 20.8881V10.8066C108.634 8.44231 108.216 8.06916 105.992 8.1361L102.846 8.13108L99.3694 8.1361L96.1822 8.13108L92.7051 8.1361H86.0408L82.8536 8.13108L79.3765 8.1361H72.7122L69.525 8.13108L66.0479 8.1361L62.8607 8.13108L59.3836 8.1361H52.7193L49.5321 8.13108L46.055 8.1361H39.3907L36.2035 8.13108L32.7264 8.1361L29.5392 8.13108L26.0621 8.1361H16.1073C13.6798 8.08757 12.9967 7.99721 13.115 10.7648L13.11 14.098L13.115 17.4579L13.1083 20.7509L13.115 24.2765L13.11 27.439V30.9947L13.115 34.2325V37.6627L13.11 40.8654L13.115 44.314V54.1445L13.1117 57.7655L13.115 61.0049V64.3097C13.095 65.288 13.1017 66.2668 13.135 67.2463C13.1583 67.929 13.4349 68.5698 14.1496 68.6183C15.0504 68.6797 16.7998 68.6914 19.3978 68.6535L35.8086 68.6669L35.8436 68.7104C35.8692 68.7394 35.8819 68.7734 35.8819 68.8124L35.8986 71.0446V74.5016L35.8853 76.1782L32.7264 76.1966L29.4542 76.2016L26.1037 76.1966H19.4394L15.9956 76.1866C14.9616 76.2245 13.9214 76.1782 12.8751 76.0477C11.7499 75.8224 10.6509 75.3962 9.57792 74.7693L8.60993 74.008C6.7617 72.3258 5.75983 70.2225 5.60433 67.698L5.56934 64.3582L5.54602 61.1187C5.54605 61.1051 5.54089 61.0919 5.5316 61.082C5.52231 61.072 5.50959 61.066 5.49604 61.0652C4.57525 61.0194 3.65558 61.0295 2.73702 61.0953L0.571118 61.0401L0.576116 53.8048C0.577226 53.6152 0.672192 53.5198 0.861014 53.5187L2.69536 53.5103L5.41273 53.512C5.46045 53.512 5.50622 53.493 5.53997 53.4591C5.57371 53.4252 5.59267 53.3792 5.59267 53.3313L5.58267 50.9937L5.606 47.6488L5.56934 44.3207L5.60433 40.2563L5.57601 37.6209L5.60766 34.2492L5.56268 30.9696L5.60433 27.5645L5.60933 23.3964C5.60933 23.3339 5.57823 23.3027 5.51603 23.3027L0.722731 23.2608C0.682213 23.2604 0.643477 23.244 0.614825 23.2153C0.586173 23.1865 0.569885 23.1476 0.569451 23.1069L0.564453 20.8881V17.8344L0.569451 15.8131C0.569451 15.7829 0.581388 15.754 0.602635 15.7326C0.623881 15.7113 0.652697 15.6993 0.682744 15.6993L2.73702 15.6943L5.40107 15.696C5.55213 15.696 5.62432 15.6207 5.61766 15.4701L5.56435 14.2804L5.56934 10.8552C5.5749 9.73519 5.64432 8.61967 5.7776 7.50862C6.56732 4.05999 9.358 1.30076 12.8584 0.718463C13.2899 0.669938 13.7165 0.609699 14.1513 0.609699L23.0631 0.592968H43.0977L46.085 0.596312L49.3455 0.592968H76.3776L79.3248 0.59464L83.0419 0.592968H96.4121L99.3994 0.596312L102.66 0.592968H105.659C106.82 0.543885 107.972 0.613605 109.116 0.802127Z" fill="#E5E5E5"/>
<path d="M22.7817 15.5512H25.862L29.4901 15.5529L32.4804 15.5933C34.0444 15.9278 35.085 16.8561 35.6023 18.3782C35.741 18.7867 35.7766 19.5719 35.7088 20.7337C35.6589 21.8371 35.6672 22.9741 35.7338 24.1449L35.7222 27.7042C35.6556 28.7504 35.6595 29.7808 35.7338 30.7955L35.7205 33.1527L35.6939 37.6448C35.9536 41.1621 35.0428 43.4687 31.19 43.4654C29.3863 43.4643 27.5825 43.4643 25.7788 43.4654C25.7571 43.4654 25.7364 43.4743 25.7211 43.49C25.7058 43.5058 25.6972 43.5272 25.6972 43.5496V51.1498L25.7022 54.1569L25.6888 59.3343L25.6472 61.0887C25.645 61.146 25.6156 61.1752 25.559 61.1763L22.7751 61.2285L19.4634 61.183C19.2969 61.1847 18.1297 61.3413 18.1963 61.0601L18.1547 57.819L18.1514 54.3842L18.1547 51.0841V44.3493L18.158 40.9129L18.1547 37.6145V30.8797L18.158 27.4466L18.1547 24.1449C18.2169 22.9853 18.2174 21.8404 18.1564 20.7101C18.1447 19.3598 18.1247 18.5263 18.6725 17.4218L19.6282 16.3274C20.6039 15.7 21.6551 15.4412 22.7817 15.5512ZM25.7022 32.1425L25.6988 35.6665C25.6986 35.6892 25.7028 35.7118 25.7112 35.7329C25.7197 35.7541 25.7321 35.7733 25.7479 35.7896C25.7637 35.8058 25.7824 35.8188 25.8032 35.8277C25.8239 35.8366 25.8461 35.8413 25.8687 35.8416L28.0598 35.8601C28.1098 35.8612 28.1347 35.8365 28.1347 35.786L28.1864 30.585L28.1947 23.3013C28.1947 23.2683 28.1817 23.2366 28.1586 23.2132C28.1355 23.1899 28.1041 23.1767 28.0715 23.1767H25.8587C25.8158 23.1767 25.7748 23.1938 25.7445 23.2241C25.7142 23.2544 25.6972 23.2955 25.6972 23.3384L25.7022 32.1425ZM39.197 15.558L42.8867 15.5512C43.859 15.6186 44.7565 15.5091 45.7688 15.6405L45.7388 17.3562L45.7222 20.8751L45.7239 23.3451V36.8147L45.7205 41.1082V44.415L45.7239 47.7588V51.0841L45.7189 53.5255C45.7189 53.5474 45.7275 53.5684 45.7428 53.5839C45.7581 53.5993 45.7788 53.608 45.8004 53.608L49.3386 53.603C49.7826 53.6445 50.2221 53.6265 50.6573 53.5491C50.7183 53.539 50.7488 53.5025 50.7488 53.4397L50.7472 51.1262V20.9121L50.7488 17.3949L50.7522 15.6708C50.7522 15.6404 50.7641 15.6113 50.7853 15.5898C50.8066 15.5683 50.8354 15.5563 50.8654 15.5563L52.627 15.5512H56.1235L58.1781 15.5563C58.1927 15.5562 58.2071 15.5592 58.2205 15.5653C58.2338 15.5713 58.2458 15.5802 58.2555 15.5913C58.2653 15.6024 58.2726 15.6156 58.2771 15.6299C58.2815 15.6441 58.283 15.6592 58.2813 15.6741C58.2214 16.2152 58.2258 16.7657 58.2946 17.3259V21.0721C58.2269 22.0543 58.2269 23.0364 58.2946 24.0186V54.6199L58.253 57.6085C58.0355 59.3349 57.2018 60.45 55.7522 60.954C55.3104 61.1078 54.6616 61.1858 53.8058 61.1881C51.2062 61.1926 48.6071 61.2083 46.0086 61.2352H42.7202C40.2893 61.3463 38.7991 60.2345 38.2496 57.8998L38.218 54.4516L38.2213 51.1111L38.218 47.6746V44.3493L38.2213 40.9684L38.218 37.5724V27.5123L38.2213 24.1667L38.218 20.7774L38.223 17.3612L38.2696 15.7213C38.2718 15.6539 38.3057 15.618 38.3712 15.6135L39.197 15.558ZM69.3186 15.5512L72.4971 15.5596L76.0619 15.5512C77.1658 15.5916 77.9584 15.526 79.0756 16.117C79.6472 16.5233 80.1156 17.0525 80.4808 17.7047C80.9171 18.7772 80.8355 19.7773 80.8555 20.9037V31.0481L80.8505 33.1628C80.8505 33.188 80.8407 33.2121 80.8233 33.2301C80.8058 33.248 80.7821 33.2583 80.7572 33.2588L78.4728 33.2874C78.4173 33.2885 78.3896 33.3166 78.3896 33.3716L78.358 38.3301L78.363 40.7832C78.363 40.8517 78.3968 40.8865 78.4645 40.8876L79.2188 40.9011L80.8471 40.9954L80.8555 44.5177V51.2104L80.8488 54.5627L80.8138 57.819C80.4431 59.8158 79.2842 60.9293 77.3373 61.1594C77.0376 61.1948 76.603 61.1594 76.2284 61.2352H69.3603C68.3024 61.2532 67.2479 61.2066 66.1968 61.0955L65.7872 60.9759C63.5161 60.0347 63.293 58.4133 63.288 55.9837C63.278 51.0016 63.1698 45.9775 63.243 40.9988C63.2442 40.9325 63.212 40.8994 63.1465 40.8994L60.7855 40.891L60.7805 37.7155L60.7788 34.2471L60.7838 33.3867C60.7838 33.3629 60.7931 33.34 60.8096 33.323C60.8261 33.306 60.8485 33.2962 60.8721 33.2958L62.95 33.2722C63.0355 33.2947 63.1226 33.2936 63.2114 33.2689C63.268 33.2531 63.2958 33.2155 63.2947 33.156C63.2614 27.6863 63.2708 23.0269 63.323 19.1779C63.3285 18.7783 63.424 18.3574 63.6093 17.9151C64.0744 16.8432 64.8559 16.1136 65.9537 15.7263C67.067 15.5501 68.1887 15.4917 69.3186 15.5512ZM70.8205 27.6705L70.8188 30.8527V33.2285C70.8186 33.2412 70.8209 33.2539 70.8257 33.2657C70.8304 33.2775 70.8375 33.2883 70.8465 33.2974C70.8555 33.3065 70.8662 33.3137 70.878 33.3186C70.8899 33.3236 70.9026 33.3261 70.9154 33.3261L73.1182 33.3093C73.1622 33.3088 73.2043 33.2909 73.2354 33.2595C73.2666 33.228 73.2843 33.1854 73.2847 33.1409L73.2897 23.3535C73.2897 23.3066 73.2713 23.2617 73.2385 23.2285C73.2057 23.1954 73.1612 23.1767 73.1149 23.1767H70.9071C70.8504 23.1767 70.8221 23.2054 70.8221 23.2626L70.8205 27.6705ZM70.8238 44.3072V51.2104L70.7955 53.4363C70.7944 53.5575 70.8538 53.6176 70.9737 53.6164L73.1631 53.5929C73.2442 53.5918 73.2847 53.5502 73.2847 53.4683L73.3113 41.0577C73.3113 40.9937 73.2791 40.9583 73.2148 40.9516L72.7735 40.9045L70.9004 40.8994C70.8788 40.8994 70.858 40.9081 70.8427 40.9236C70.8274 40.939 70.8188 40.96 70.8188 40.9819L70.8238 44.3072ZM89.5485 15.5512H99.2471C100.475 15.4929 101.54 15.907 102.444 16.7938L102.859 17.336C103.448 18.4826 103.418 19.3884 103.416 20.8195L103.411 24.1095L103.416 27.5544C103.472 27.7721 103.455 27.9568 103.365 28.1083C103.332 28.1644 103.284 28.1925 103.22 28.1925L101.453 28.2211L99.2937 28.2076L95.9654 28.2278L95.8688 27.5123L95.8721 24.256V23.3131C95.8721 23.2887 95.8673 23.2646 95.858 23.2421C95.8487 23.2196 95.835 23.1992 95.8178 23.1821C95.8006 23.165 95.7802 23.1516 95.7578 23.1426C95.7354 23.1336 95.7114 23.1291 95.6873 23.1296L92.6287 23.1835L90.9754 23.1717C90.9132 23.1717 90.8755 23.202 90.8621 23.2626C90.8066 23.5253 90.8139 23.7671 90.8838 23.9883L90.8871 27.5965V34.3313L90.8888 37.5674L90.8871 40.9819V51.0841L90.8921 53.4548C90.8921 53.5244 90.9271 53.5603 90.997 53.5626L92.712 53.603L95.7073 53.5945C95.7556 53.5941 95.8018 53.5744 95.8357 53.5397C95.8697 53.505 95.8888 53.4582 95.8888 53.4093L95.8738 51.1128L95.8688 47.7167L95.8622 44.4655L95.9121 41.0257C95.9132 40.9684 95.8855 40.9398 95.8288 40.9398H93.4629C93.4386 40.9398 93.4153 40.9301 93.3981 40.9127C93.381 40.8953 93.3713 40.8718 93.3713 40.8472L93.4346 33.4389C93.4346 33.3547 93.4762 33.3132 93.5595 33.3143L99.2654 33.3194C101.81 33.2453 103.465 34.9947 103.41 37.5455L103.416 41.024V54.4095L103.37 57.8459C102.983 60.0617 101.655 61.1785 99.3836 61.1965L96.1119 61.2184L93.9191 61.2217C92.4062 61.1566 90.8938 61.1611 89.382 61.2352C88.2131 61.252 86.7263 61.3379 85.689 60.885C84.1316 60.2048 83.3524 58.8707 83.3513 56.8828C83.3458 44.8881 83.3435 32.8928 83.3446 20.897C83.3458 19.5377 83.4334 18.5982 83.6077 18.0785C84.5484 15.2768 87.0942 15.5899 89.5485 15.5512Z" fill="#E5E5E5"/>
<path d="M55.9881 63.9842C57.5388 63.9521 57.4334 64.6709 57.4886 66.0731C57.5332 67.2424 57.5143 69.8144 57.4317 73.7892C57.4033 75.1626 57.5037 76.8641 57.4434 78.4084C57.5171 79.4215 57.1641 80.3247 56.1085 80.5378C54.797 80.3845 53.4694 80.4048 52.1255 80.5987C51.5869 80.3518 51.1553 79.9994 50.8308 79.5416C50.7962 79.4931 50.78 79.4395 50.7823 79.3809C50.804 78.8769 50.7271 78.3525 50.7254 77.8993C50.7187 74.0474 50.6897 70.1955 50.6384 66.3437C50.6267 65.4946 50.5932 63.9149 51.8161 63.9233C53.2067 63.9346 54.5974 63.9549 55.9881 63.9842ZM53.2346 71.0102C53.2235 71.1929 53.2536 71.64 53.325 72.3515C53.3562 72.6706 53.34 73.2006 53.2764 73.9414C53.1694 75.1829 53.3216 76.443 53.238 77.7132C53.2368 77.73 53.2391 77.7468 53.2446 77.7627C53.2501 77.7785 53.2588 77.7931 53.2701 77.8054C53.2813 77.8178 53.295 77.8277 53.3102 77.8345C53.3254 77.8413 53.3418 77.8449 53.3584 77.8451L54.69 77.8637C54.7057 77.864 54.7213 77.861 54.7358 77.8548C54.7503 77.8486 54.7634 77.8393 54.7741 77.8277C54.7848 77.816 54.793 77.8022 54.7981 77.7872C54.8032 77.7721 54.8051 77.7561 54.8037 77.7403C54.7485 77.0569 54.6381 76.3753 54.6666 75.6988C54.7335 74.0886 54.7987 72.4902 54.8104 70.8834L54.8489 66.3995C54.8489 66.3843 54.8459 66.3692 54.84 66.3552C54.8341 66.3412 54.8255 66.3285 54.8147 66.3181C54.8039 66.3076 54.7911 66.2996 54.7771 66.2944C54.7631 66.2892 54.7483 66.287 54.7335 66.2879L53.3132 66.364C53.2575 66.3674 53.2296 66.3973 53.2296 66.4536L53.2346 71.0102ZM72.0221 77.8519C72.0121 77.9052 72.016 77.9602 72.0334 78.0115C72.0507 78.0628 72.081 78.1087 72.1212 78.1448C72.1615 78.1809 72.2103 78.2059 72.263 78.2174C72.3156 78.2289 72.3704 78.2265 72.4219 78.2105C72.8903 78.0639 73.3715 78.0419 73.8656 78.1445C73.9157 78.1547 73.9564 78.1806 73.9877 78.2223C74.2754 78.608 74.0931 79.8038 74.0312 80.2841C74.0222 80.354 73.9827 80.3895 73.9124 80.3907L69.7788 80.4583C69.7278 80.4588 69.6786 80.4391 69.6417 80.4034C69.6048 80.3677 69.5832 80.3188 69.5815 80.2672C69.4593 76.1047 69.5781 71.9557 69.5279 67.7966C69.5229 67.3365 69.6801 66.8021 69.6099 66.2185C69.524 65.5025 69.5218 64.7831 69.6032 64.0603C69.6121 63.9848 69.6539 63.9459 69.7287 63.9436L71.9819 63.8912C72.0314 63.8898 72.0793 63.9082 72.1153 63.9425C72.1514 63.9767 72.1726 64.0239 72.1743 64.0739C72.2379 66.2208 72.2669 68.3638 72.2613 70.5028C72.2613 70.7396 72.176 70.9798 72.176 71.198C72.1715 72.966 72.171 74.7341 72.1743 76.5022C72.176 76.9741 72.1024 77.4155 72.0221 77.8519ZM42.6055 63.9419C42.9635 63.9183 43.2981 63.9825 43.6092 64.1347C44.3118 66.797 44.9408 69.4626 45.4961 72.1316C45.5296 72.2895 45.5731 72.2929 45.6266 72.1418C45.6835 71.9817 45.7409 71.7494 45.7989 71.4449C46.2617 69.0251 46.743 66.576 47.2426 64.0975C47.2538 64.0439 47.2838 63.9961 47.3272 63.9631C47.3706 63.9301 47.4243 63.9142 47.4784 63.9183L49.5762 64.0857C49.6249 64.0894 49.6706 64.1113 49.7045 64.1472C49.7385 64.183 49.7583 64.2304 49.7602 64.2802C49.8455 66.4266 49.7602 69.0364 49.7685 70.7278C49.7853 73.8873 49.9425 77.1331 49.71 80.2841C49.7067 80.3306 49.6865 80.3742 49.6532 80.4066C49.6198 80.4391 49.5758 80.4581 49.5293 80.46L47.644 80.5446C47.5652 80.5483 47.488 80.5203 47.4294 80.4668C47.3709 80.4132 47.3356 80.3385 47.3312 80.2587C47.2175 78.224 47.3848 76.1064 47.3513 74.1122C47.3501 74.0781 47.3367 74.0455 47.3135 74.0207C47.2902 73.9959 47.2589 73.9804 47.2252 73.9773C47.1915 73.9742 47.1579 73.9836 47.1306 74.0038C47.1033 74.024 47.0842 74.0535 47.077 74.0869C46.7011 76.041 46.216 77.968 45.6216 79.868C45.6155 79.8891 45.6026 79.9076 45.585 79.9205C45.5674 79.9335 45.5461 79.9402 45.5243 79.9396C45.5026 79.939 45.4816 79.9312 45.4647 79.9173C45.4478 79.9035 45.4359 79.8844 45.4309 79.863L43.7865 73.5118C43.7773 73.477 43.7559 73.4468 43.7264 73.4267C43.6968 73.4067 43.6611 73.3981 43.6257 73.4027C43.5904 73.4072 43.5579 73.4245 43.5343 73.4514C43.5106 73.4783 43.4974 73.513 43.4971 73.549L43.4503 80.1674C43.4492 80.2193 43.4302 80.2638 43.3934 80.301C43.2652 80.4296 43.1001 80.4922 42.8982 80.4888L41.4211 80.433C41.3324 80.4291 41.2484 80.3914 41.1866 80.3275C41.1247 80.2637 41.0895 80.1786 41.0883 80.0896L41.0515 77.6912V74.4353C41.1529 73.2513 41.1669 72.0674 41.0933 70.8834L41.0146 67.3856L41.0464 64.1381C41.5572 64.0006 42.0769 63.9352 42.6055 63.9419ZM59.2083 63.9419H62.6794C63.6095 63.9504 64.8206 63.8337 64.8022 65.0177C64.7598 67.76 64.7453 69.5568 64.7587 70.4081C64.762 70.6494 64.6344 70.9505 64.3756 71.3113C64.3489 71.3508 64.3154 71.3823 64.2753 71.406L64.1782 71.4652C64.1024 71.5103 64.0924 71.5673 64.1481 71.6361L64.849 72.4953C64.8925 72.5483 64.9143 72.6092 64.9143 72.6779C64.9198 73.5902 64.9076 75.6413 64.8775 78.8312C64.8658 80.1319 64.0862 80.367 62.9303 80.3738C61.7638 80.3828 60.6123 80.4053 59.4759 80.4414L58.8152 80.4228C58.7538 80.4206 58.7226 80.3884 58.7215 80.3264L58.6763 78.0464C58.6774 76.5366 58.6624 75.0087 58.6311 73.4627C58.6211 72.9824 58.305 72.776 58.2882 72.3532C58.2665 71.8052 58.1879 70.8732 58.601 70.4538C58.6423 70.4121 58.6629 70.3613 58.6629 70.3015L58.6144 64.0654C58.6133 63.9977 58.6462 63.9628 58.7131 63.9605L59.2083 63.9419ZM62.3515 66.2574C62.3515 66.2283 62.3402 66.2003 62.3202 66.1797C62.3001 66.1591 62.2728 66.1475 62.2444 66.1475H61.2709C61.1995 66.1475 61.1605 66.183 61.1538 66.2541C61.0199 67.6354 61.0093 69.0161 61.122 70.3963C61.1252 70.434 61.1411 70.4695 61.167 70.4967C61.193 70.5238 61.2273 70.5409 61.2642 70.5451L62.2227 70.6517C62.3041 70.6607 62.3448 70.6235 62.3448 70.54L62.3515 66.2574ZM62.3381 73.1629C62.3381 73.1386 62.3333 73.1147 62.324 73.0923C62.3148 73.07 62.3013 73.0497 62.2843 73.0326C62.2673 73.0155 62.2472 73.002 62.225 72.9928C62.2028 72.9836 62.1791 72.9789 62.1551 72.979L61.2217 72.9824C61.1977 72.9825 61.174 72.9873 61.152 72.9967C61.1299 73.006 61.1098 73.0197 61.0929 73.0369C61.0761 73.0541 61.0627 73.0744 61.0536 73.0968C61.0446 73.1192 61.0399 73.1432 61.04 73.1674L61.0567 78.0285C61.0568 78.0527 61.0616 78.0766 61.0709 78.099C61.0801 78.1213 61.0936 78.1416 61.1106 78.1586C61.1276 78.1757 61.1478 78.1892 61.1699 78.1984C61.1921 78.2076 61.2158 78.2123 61.2398 78.2122L62.1732 78.2088C62.1971 78.2087 62.2208 78.2038 62.2429 78.1945C62.265 78.1851 62.2851 78.1715 62.3019 78.1543C62.3188 78.1371 62.3321 78.1167 62.3412 78.0943C62.3503 78.0719 62.3549 78.048 62.3549 78.0237L62.3381 73.1629ZM76.0201 63.9419L79.2872 64.0383C79.7433 63.9932 80.176 64.0592 80.5853 64.2362L80.5686 66.1965C80.5686 66.2631 80.5356 66.2986 80.4699 66.3031L79.4494 66.3657L77.534 66.3606C77.4705 66.3606 77.4303 66.3916 77.4136 66.4536C77.3723 66.6126 77.3657 66.7784 77.3935 66.9509L77.2447 70.4741C77.2424 70.544 77.2759 70.5795 77.345 70.5806L79.4528 70.5908L80.1704 70.6178C80.2295 70.6201 80.2725 70.6483 80.2992 70.7024C80.3427 70.7892 80.3505 70.8947 80.3226 71.0187L80.2808 72.8775C80.2786 72.9441 80.2446 72.9785 80.1788 72.9807L78.5712 73.0467C78.1519 72.9689 77.7627 73.0117 77.4036 73.1752C77.325 74.7059 77.5558 75.8797 77.3935 77.6675L77.4053 77.994C77.4075 78.0537 77.4381 78.0864 77.4973 78.0921C78.1218 78.1507 78.7201 78.1355 79.2922 78.0464C79.639 78.1986 79.9373 78.2635 80.1871 78.2409C80.2205 78.2378 80.2541 78.2419 80.2857 78.2529C80.3174 78.2638 80.3465 78.2814 80.3711 78.3046C80.3957 78.3277 80.4153 78.3558 80.4285 78.3871C80.4418 78.4183 80.4485 78.4521 80.4481 78.4862L80.423 80.367C80.423 80.4471 80.3834 80.4865 80.3042 80.4854L75.1101 80.4736C74.9194 80.4724 74.8235 80.3754 74.8224 80.1826C74.8146 78.4112 74.828 76.58 74.8626 74.689C74.8893 73.3376 74.0646 72.1519 74.5715 70.7142C74.814 70.0259 74.8676 68.8842 74.8224 68.1552C74.7399 66.8381 74.7326 65.4974 74.8007 64.1331C75.1876 63.9763 75.5941 63.9126 76.0201 63.9419ZM68.2482 64.3293C68.2599 65.2155 68.3636 66.1678 68.372 66.9797C68.4099 70.2643 68.4222 73.549 68.4088 76.8337C68.4038 77.8282 68.3218 79.1204 68.3369 80.2723C68.3373 80.2899 68.3307 80.3071 68.3185 80.32C68.3063 80.333 68.2895 80.3407 68.2716 80.3416L66.1455 80.4465C65.9971 80.4532 65.8912 80.3895 65.8276 80.2554C65.7473 80.0851 65.7089 79.8787 65.7122 79.6363C65.7657 75.5364 65.7841 70.5045 65.7674 64.5407C65.7663 64.3197 65.8226 64.1494 65.9364 64.0299C66.6468 64.0118 67.3176 63.9944 67.9488 63.9774C68.1662 63.9707 68.2661 64.088 68.2482 64.3293Z" fill="#E5E5E5"/>
</svg>
