<svg width="186" height="80" viewBox="0 0 186 80" fill="none" xmlns="http://www.w3.org/2000/svg">
<path fill-rule="evenodd" clip-rule="evenodd" d="M70.9162 0.188098L71.6251 0.222116L71.649 39.5985L71.6729 78.9748L71.6727 39.5709L71.6725 0.166932L70.9399 0.160506L70.2072 0.154175L70.9162 0.188098ZM170.088 9.76344V13.4541L169.56 12.8844C168.204 11.4192 165.821 11.0658 163.795 12.0292C162.837 12.4845 161.916 13.4359 161.418 14.4827C160.835 15.7113 160.686 16.4523 160.687 18.1208C160.688 19.8239 160.854 20.6566 161.415 21.7775C163.027 24.9979 167.569 25.5897 169.726 22.8606L170.088 22.4032V23.3567V24.3101H171.836H173.584V15.1915V6.0728H171.836H170.088V9.76344ZM84.9489 15.7584V24.3101H86.886H88.8232V20.8243V17.3386L89.1563 17.2761C89.6006 17.1927 94.9102 17.2251 95.0508 17.312C95.1324 17.3624 95.1541 18.2813 95.134 20.8452L95.107 24.3102H97.0677L99.0285 24.3101V15.7565V7.20285L97.0712 7.22846L95.1137 7.25397L95.1042 7.4902C95.099 7.62013 95.0868 9.18278 95.0772 10.9629L95.0598 14.1993H91.9415H88.8232V10.703V7.20672H86.886H84.9489V15.7584ZM2.0268 9.30921C2.00204 9.37422 1.99268 12.7653 2.0062 16.8451L2.03058 24.2629L28.4652 24.2867L54.8999 24.3105V16.7508V9.19109H28.4859C7.44177 9.19109 2.0627 9.21509 2.0268 9.30921ZM4.91131 12.144C4.90943 13.1528 4.86653 13.2543 4.44187 13.2543C3.77975 13.2543 3.4082 13.8053 3.6484 14.4312C3.73307 14.6519 4.1874 14.8607 4.58267 14.8607H4.9235L4.90602 16.5852C4.89638 17.5338 4.86813 18.3629 4.84318 18.4279C4.81654 18.4973 4.62849 18.546 4.3865 18.546C3.86593 18.546 3.58972 18.8085 3.58972 19.3033C3.58972 19.7688 3.88426 20.0362 4.44017 20.0752L4.86539 20.1051L4.8927 20.9556C4.90772 21.4233 4.93834 21.8592 4.96064 21.9241C4.99182 22.0149 5.63155 22.0423 7.72988 22.0423C10.3359 22.0423 10.4661 22.0508 10.629 22.2307C11.0043 22.6453 11.774 22.64 12.2404 22.2196C12.4177 22.0598 12.6637 22.0431 15.1698 22.0201L17.9055 21.995L17.9325 21.0264L17.9594 20.0579H18.4217C18.8086 20.0579 18.916 20.0173 19.0798 19.8089C19.3294 19.4917 19.3294 19.1122 19.0798 18.795C18.9156 18.5861 18.8089 18.546 18.4184 18.546H17.9528V16.7156V14.8853L18.3839 14.8367C18.9402 14.774 19.2757 14.473 19.2757 14.0367C19.2757 13.5594 18.9275 13.2543 18.3823 13.2543H17.9528V12.3566V11.4589L15.4251 11.4599C12.9719 11.4607 12.8833 11.4674 12.421 11.6826C12.1591 11.8046 11.8273 12.044 11.6838 12.2145L11.4229 12.5246L11.1099 12.1829C10.4947 11.5112 10.2276 11.4589 7.40888 11.4589H4.91264L4.91131 12.144ZM21.5171 11.5169C21.4797 11.5543 21.4491 11.9605 21.4491 12.4197V13.2543H21.1228C20.4472 13.2543 20.0399 13.6809 20.1805 14.2409C20.2603 14.5592 20.727 14.8599 21.142 14.8603L21.4491 14.8607V16.7034V18.546H21.0449C20.32 18.546 19.9951 18.9943 20.26 19.6285C20.3977 19.958 20.5253 20.025 21.1183 20.0792L21.4018 20.1051L21.4292 20.9996C21.4467 21.5689 21.4982 21.9205 21.571 21.9668C21.6339 22.0066 22.9761 22.04 24.5537 22.0408L27.4221 22.0423L27.7029 22.2785C27.9178 22.4594 28.0909 22.5147 28.4416 22.5147C28.7923 22.5147 28.9654 22.4594 29.1804 22.2785L29.4611 22.0423H31.9246H34.3881L34.415 21.0737L34.442 20.1051L34.9038 20.0521C35.4368 19.9909 35.7176 19.7269 35.7176 19.2872C35.7176 18.9202 35.3421 18.546 34.9737 18.546C34.3781 18.546 34.3947 18.6005 34.3947 16.646V14.8607H34.7654C35.5796 14.8607 36.0199 14.0205 35.4856 13.4863C35.3074 13.308 35.1543 13.2543 34.8242 13.2543H34.3947V12.3507V11.4469L32.056 11.4766C29.4483 11.5096 29.3658 11.5277 28.745 12.2045L28.4343 12.5433L28.1928 12.2347C28.06 12.065 27.7747 11.8317 27.5587 11.7162C27.1823 11.515 27.0494 11.505 24.3755 11.4775C22.8409 11.4618 21.5545 11.4795 21.5171 11.5169ZM37.9654 12.333L37.9382 13.2071L37.4952 13.258C36.9229 13.3239 36.6616 13.5579 36.6656 14.0013C36.6704 14.5499 37.0266 14.8607 37.6506 14.8607H37.9895L37.9639 16.6797L37.9382 18.4987L37.513 18.5287C36.9563 18.5678 36.6626 18.8349 36.6626 19.3019C36.6626 19.7689 36.9563 20.0361 37.513 20.0752L37.9382 20.1051L37.9855 21.0501L38.0327 21.995L41.0519 22.02C43.9273 22.0438 44.0806 22.054 44.2732 22.2348C44.6978 22.6338 45.4463 22.6153 45.9115 22.1944C46.0531 22.0663 46.4915 22.0415 48.9999 22.0201L51.9233 21.995L51.9706 21.0501L52.0178 20.1051L52.4797 20.0521C53.2341 19.9655 53.5358 19.3519 53.0976 18.795C52.9334 18.5861 52.8267 18.546 52.4361 18.546H51.9706V16.7156V14.8853L52.4016 14.8367C52.9579 14.774 53.2935 14.473 53.2935 14.0367C53.2935 13.5594 52.9453 13.2543 52.4 13.2543H51.9706V12.3566V11.4589H49.3194C47.6805 11.4589 46.5081 11.4992 46.2491 11.5645C45.9998 11.6272 45.6539 11.825 45.3952 12.0527L44.9604 12.4355L44.7307 12.1422C44.5904 11.9629 44.2986 11.773 43.9802 11.6539C43.4978 11.4735 43.2556 11.4589 40.7258 11.4589H37.9926L37.9654 12.333ZM106.256 11.5891C105.839 11.6573 105.329 11.7681 105.122 11.8353C103.477 12.3686 102.392 13.5034 102.065 15.0307C101.885 15.8697 101.759 15.8057 103.592 15.8057H105.226L105.334 15.4005C105.578 14.4881 106.228 14.0662 107.391 14.0657C108.198 14.0655 108.54 14.1834 108.923 14.5943C109.18 14.8691 109.444 15.8546 109.405 16.3911L109.376 16.7877L107.911 16.8175C105.645 16.8634 104.16 17.1786 103.15 17.8278C102.041 18.5402 101.582 19.3181 101.509 20.6082C101.432 21.9511 101.774 22.8436 102.667 23.6298C104.235 25.0096 107.627 24.8452 109.032 23.3215L109.423 22.897V23.6035V24.3101H111.124H112.825L112.823 19.8453C112.822 14.9183 112.797 14.6593 112.239 13.6108C111.73 12.6575 110.775 11.9943 109.475 11.6928C108.609 11.4921 107.137 11.4446 106.256 11.5891ZM142.921 11.5719C141.6 11.7211 140.314 12.3128 139.58 13.1084C139.007 13.7299 138.527 14.8387 138.527 15.5394V15.8057H140.181C141.785 15.8057 141.834 15.7998 141.834 15.612C141.834 15.0566 142.453 14.3419 143.1 14.1498C143.697 13.9724 144.133 13.9734 144.739 14.1535C145.551 14.3947 145.896 14.9885 145.897 16.1474L145.897 16.7252L144.504 16.7915C142.193 16.9016 141.145 17.0957 140.055 17.6158C138.917 18.1587 138.234 19.0736 138.063 20.2829C137.739 22.5708 139.057 24.2216 141.449 24.5235C143.111 24.7333 144.58 24.3133 145.54 23.3536L145.992 22.9017V23.6059V24.3101H147.693H149.394L149.392 19.9398C149.39 15.2007 149.351 14.7415 148.869 13.7551C148.027 12.0347 145.861 11.2396 142.921 11.5719ZM121.896 11.7832C120.922 12.0543 120.126 12.6687 119.54 13.6016L119.254 14.0575L119.252 12.9472C119.251 12.3365 119.218 11.8361 119.179 11.8351C119.008 11.8308 116.068 11.8283 115.919 11.8324C115.763 11.8366 115.754 12.1986 115.754 18.0735V24.3101H117.496H119.238L119.268 20.6957C119.297 17.1549 119.302 17.0717 119.515 16.6089C119.774 16.0461 120.206 15.573 120.688 15.3245C121.129 15.0973 122.103 14.8639 122.619 14.8621L123.011 14.8607L123.044 14.0575C123.062 13.6158 123.062 12.8929 123.044 12.4511L123.011 11.6479L122.666 11.6563C122.476 11.6611 122.13 11.718 121.896 11.7832ZM158.418 11.7804C157.431 12.0935 156.739 12.6197 156.181 13.4816L155.819 14.0396V12.9382V11.8369H154.071H152.323V18.0735V24.3101H154.071H155.819V20.831C155.819 18.047 155.847 17.2585 155.958 16.8847C156.309 15.7033 157.316 15.0343 158.961 14.8894L159.599 14.8333V13.2406V11.6479L159.197 11.6543C158.977 11.6578 158.626 11.7146 158.418 11.7804ZM126.077 11.8155C125.129 11.8295 124.353 11.8576 124.353 11.8777C124.353 11.8978 125.058 13.8422 125.919 16.1987C126.781 18.5551 127.796 21.3336 128.174 22.373L128.862 24.2629L130.842 24.2883L132.822 24.3138L135.061 18.1462C136.292 14.754 137.299 11.9458 137.299 11.9056C137.299 11.8655 136.547 11.8442 135.629 11.8584L133.96 11.8842L132.497 16.2723L131.034 20.6604L129.587 16.3668C128.79 14.0053 128.138 12.025 128.136 11.9661C128.131 11.8021 127.935 11.7877 126.077 11.8155ZM23.8571 15.8529L23.8587 19.9161L25.4415 19.9196L27.0244 19.9232L25.4662 19.8937L23.9079 19.8644L23.8817 15.827L23.8555 11.7897L23.8571 15.8529ZM23.456 15.9994C23.442 18.4967 23.3977 20.0632 23.3393 20.1339C23.2872 20.1966 23.3089 20.1925 23.3876 20.1247C23.5111 20.0181 23.5266 19.4693 23.5043 15.9902L23.4786 11.9787L23.456 15.9994ZM16.747 12.2686C16.8972 12.4471 16.9136 12.8429 16.937 16.8515L16.9625 21.2391L16.9852 16.8361L17.0078 12.4332L16.7952 12.2532C16.583 12.0735 16.5829 12.0735 16.747 12.2686ZM16.5787 16.5616C16.5787 18.7704 16.591 19.6741 16.6062 18.5696C16.6213 17.4653 16.6213 15.6581 16.6062 14.5536C16.591 13.4493 16.5787 14.3528 16.5787 16.5616ZM33.0206 16.5616C33.0206 18.7704 33.033 19.6741 33.0481 18.5696C33.0632 17.4653 33.0632 15.6581 33.0481 14.5536C33.033 13.4493 33.0206 14.3528 33.0206 16.5616ZM166.202 14.3298C165.331 14.6411 164.76 15.2594 164.451 16.2266C164.248 16.8596 164.176 18.5906 164.322 19.3304C164.531 20.3919 165.057 21.1624 165.87 21.5968C166.194 21.7699 166.414 21.8055 167.159 21.8057C167.977 21.806 168.101 21.7814 168.563 21.5256C169.641 20.9282 170.08 20.064 170.159 18.3843C170.264 16.1451 169.638 14.8126 168.266 14.3512C167.727 14.1702 166.68 14.1593 166.202 14.3298ZM29.9932 16.1364C29.9931 17.1758 30.0069 17.6139 30.0239 17.11C30.0408 16.606 30.0409 15.7556 30.024 15.2201C30.0072 14.6846 29.9933 15.097 29.9932 16.1364ZM42.5606 16.0419C42.5607 17.0294 42.5747 17.4205 42.5917 16.9111C42.6087 16.4016 42.6086 15.5937 42.5915 15.1157C42.5744 14.6376 42.5605 15.0544 42.5606 16.0419ZM4.69833 14.455L5.19262 14.4925L5.22069 16.661L5.24875 18.8296L5.24601 16.6326L5.24337 14.4355L4.72365 14.4265L4.20393 14.4175L4.69833 14.455ZM107.293 18.9232C105.957 19.0405 105.248 19.3983 104.988 20.0877C104.738 20.747 104.997 21.5622 105.563 21.9005C106.039 22.1852 107.404 22.1694 108.052 21.8718C108.975 21.4469 109.321 20.9031 109.4 19.7492C109.44 19.1673 109.422 18.9811 109.319 18.9161C109.17 18.8218 108.42 18.8245 107.293 18.9232ZM143.724 18.942C142.187 19.0649 141.456 19.6072 141.456 20.6233C141.457 21.513 141.966 22.0207 142.947 22.1097C144.141 22.2179 145.271 21.7207 145.677 20.9083C145.941 20.381 146.054 19.0933 145.852 18.9251C145.719 18.8151 145.265 18.8187 143.724 18.942ZM5.23798 20.6955L5.24337 21.617H7.74745H10.2515L10.2641 21.403C10.2746 21.2249 10.2695 21.2209 10.234 21.3794C10.1924 21.5643 10.1202 21.5698 7.74433 21.5698H5.29742L5.265 20.6719L5.2325 19.7739L5.23798 20.6955ZM7.96441 19.9392C8.36951 19.957 9.00734 19.9569 9.38182 19.939C9.7562 19.9211 9.42472 19.9066 8.64514 19.9067C7.86557 19.9068 7.55922 19.9214 7.96441 19.9392ZM13.4407 19.9391C13.8434 19.9569 14.5026 19.9569 14.9054 19.9391C15.3081 19.9214 14.9786 19.9069 14.173 19.9069C13.3675 19.9069 13.038 19.9214 13.4407 19.9391ZM30.406 19.9389C30.7329 19.9574 31.2432 19.9573 31.54 19.9386C31.8368 19.9199 31.5693 19.9048 30.9457 19.905C30.322 19.9052 30.0792 19.9205 30.406 19.9389ZM41.1226 19.9392C41.5747 19.9565 42.3401 19.9566 42.8235 19.9394C43.3069 19.9222 42.937 19.908 42.0015 19.9079C41.066 19.9078 40.6705 19.9219 41.1226 19.9392ZM47.1702 19.9392C47.6223 19.9565 48.3877 19.9566 48.8711 19.9394C49.3545 19.9222 48.9846 19.908 48.0491 19.9079C47.1136 19.9078 46.7181 19.9219 47.1702 19.9392ZM7.05311 20.3177C7.02883 20.3568 7.46218 20.3775 8.0161 20.3638C9.80723 20.3196 10.0013 20.2822 8.5326 20.2644C7.74311 20.2547 7.0773 20.2787 7.05311 20.3177ZM13.5352 20.3171C13.9379 20.3348 14.5971 20.3348 14.9999 20.3171C15.4026 20.2994 15.0731 20.2849 14.2675 20.2849C13.462 20.2849 13.1325 20.2994 13.5352 20.3171ZM24.4917 20.3172C24.9438 20.3345 25.7092 20.3346 26.1926 20.3174C26.676 20.3002 26.306 20.286 25.3706 20.2859C24.4351 20.2858 24.0396 20.2999 24.4917 20.3172ZM30.4023 20.3168C30.7272 20.3353 31.2587 20.3353 31.5835 20.3168C31.9084 20.2984 31.6426 20.2833 30.9929 20.2833C30.3433 20.2833 30.0776 20.2984 30.4023 20.3168ZM41.0281 20.3172C41.4802 20.3345 42.2456 20.3346 42.729 20.3174C43.2124 20.3002 42.8425 20.286 41.907 20.2859C40.9715 20.2858 40.576 20.2999 41.0281 20.3172ZM47.2647 20.3172C47.7168 20.3345 48.4822 20.3346 48.9656 20.3174C49.449 20.3002 49.0791 20.286 48.1436 20.2859C47.2081 20.2858 46.8126 20.2999 47.2647 20.3172ZM43.8516 21.3558L43.8441 21.567L41.0802 21.5935L38.3162 21.62L41.0831 21.6422C43.4419 21.661 43.8579 21.6439 43.9033 21.5257C43.9324 21.4494 43.9345 21.3325 43.9077 21.2658C43.881 21.1991 43.8556 21.2396 43.8516 21.3558ZM13.8244 21.6405C14.542 21.6565 15.6901 21.6565 16.3757 21.6404C17.0611 21.6242 16.474 21.6111 15.0707 21.6112C13.6675 21.6112 13.1066 21.6244 13.8244 21.6405ZM23.1736 21.6405C23.9401 21.6563 25.1945 21.6563 25.9611 21.6405C26.7278 21.6246 26.1005 21.6116 24.5674 21.6116C23.0342 21.6116 22.4069 21.6246 23.1736 21.6405ZM30.6912 21.6404C31.3308 21.6568 32.3514 21.6567 32.9591 21.6403C33.5668 21.6238 33.0435 21.6105 31.7961 21.6105C30.5488 21.6106 30.0516 21.624 30.6912 21.6404ZM47.5587 21.6405C48.3285 21.6563 49.5616 21.6563 50.2991 21.6404C51.0365 21.6245 50.4067 21.6115 48.8995 21.6115C47.3923 21.6116 46.789 21.6246 47.5587 21.6405ZM89.65 33.83C90.1827 33.8468 91.0544 33.8468 91.5871 33.83C92.1199 33.8132 91.684 33.7994 90.6185 33.7994C89.5531 33.7994 89.1172 33.8132 89.65 33.83ZM113.32 41.9547L113.297 48.2128L111.573 48.2408L109.848 48.2688L111.575 48.2902C112.886 48.3064 113.314 48.2831 113.348 48.1934C113.373 48.1285 113.382 45.2901 113.368 41.886L113.343 35.6966L113.32 41.9547ZM128.462 41.9805L128.463 48.2643L130.164 48.2675L131.865 48.2707L130.189 48.2417L128.512 48.2128L128.487 41.9547L128.461 35.6966L128.462 41.9805ZM134.888 41.9805L134.889 48.2643H136.637H138.385L138.387 44.4373L138.388 40.6103L138.362 44.4137L138.336 48.217H136.637H134.937L134.912 41.9568L134.887 35.6966L134.888 41.9805ZM138.338 36.6888C138.338 37.2258 138.365 37.6381 138.398 37.6049C138.464 37.5392 138.446 35.8205 138.379 35.7534C138.356 35.7308 138.338 36.1518 138.338 36.6888ZM154.479 42.8072C155.743 42.8221 157.784 42.8221 159.015 42.8072C160.246 42.7923 159.212 42.7801 156.717 42.7801C154.222 42.7802 153.215 42.7923 154.479 42.8072ZM158.772 44.3187C159.227 44.336 159.971 44.336 160.426 44.3187C160.881 44.3013 160.509 44.2871 159.599 44.2871C158.69 44.2871 158.318 44.3013 158.772 44.3187ZM87.1459 48.2878C88.3803 48.3028 90.4001 48.3028 91.6344 48.2878C92.8687 48.2729 91.8588 48.2607 89.3901 48.2607C86.9215 48.2607 85.9116 48.2729 87.1459 48.2878ZM144.036 48.2875C144.546 48.3045 145.353 48.3045 145.831 48.2874C146.31 48.2702 145.893 48.2564 144.905 48.2565C143.918 48.2565 143.527 48.2705 144.036 48.2875ZM96.0283 59.9103C96.535 59.9272 97.3643 59.9272 97.8709 59.9103C98.3776 59.8933 97.9631 59.8794 96.9496 59.8794C95.9362 59.8794 95.5216 59.8933 96.0283 59.9103ZM110.146 64.2101C110.17 64.2492 110.908 64.281 111.785 64.281C112.663 64.281 113.4 64.2492 113.424 64.2101C113.448 64.1711 112.711 64.1393 111.785 64.1393C110.86 64.1393 110.122 64.1711 110.146 64.2101ZM116.444 72.1945C116.953 72.2115 117.761 72.2114 118.239 72.1943C118.717 72.1772 118.301 72.1633 117.313 72.1634C116.326 72.1635 115.934 72.1775 116.444 72.1945ZM124.707 72.1944C125.188 72.2116 125.975 72.2116 126.455 72.1944C126.936 72.1773 126.543 72.1632 125.581 72.1632C124.62 72.1632 124.226 72.1773 124.707 72.1944ZM160.237 72.1944C160.718 72.2116 161.504 72.2116 161.985 72.1944C162.466 72.1773 162.072 72.1632 161.111 72.1632C160.149 72.1632 159.756 72.1773 160.237 72.1944Z" fill="#F0F0F0"/>
<path fill-rule="evenodd" clip-rule="evenodd" d="M70.1125 39.6184V79.0223H70.8684H71.6244V39.6184V0.214478H70.8684H70.1125V39.6184ZM-0.00138611 16.2548C-0.00081915 25.3945 0.0739255 28.7101 0.335579 31.2085C1.89936 46.1374 8.84418 58.9801 20.7446 68.9498C22.7733 70.6493 26.2608 73.1853 28.0826 74.2857C28.5043 74.5404 28.3664 74.6006 30.2833 73.3247C36.4536 69.2176 41.8984 64.0993 46.0356 58.5172C51.9126 50.5876 55.5123 41.2673 56.5466 31.303C56.817 28.6975 56.8823 25.8312 56.8828 16.5383L56.8833 7.20702H28.4407H-0.00195312L-0.00138611 16.2548ZM2.02588 9.30951C2.00113 9.37452 1.99177 12.7656 2.00529 16.8454L2.02966 24.2632L28.4643 24.287L54.899 24.3108V16.7511V9.19139H28.485C7.44085 9.19139 2.06179 9.21539 2.02588 9.30951ZM4.9104 12.1443C4.90851 13.1531 4.86561 13.2546 4.44096 13.2546C3.77884 13.2546 3.40729 13.8056 3.64749 14.4315C3.73216 14.6522 4.18649 14.861 4.58175 14.861H4.92259L4.90511 16.5855C4.89547 17.5341 4.86722 18.3633 4.84227 18.4282C4.81563 18.4976 4.62758 18.5463 4.38558 18.5463C3.86502 18.5463 3.58881 18.8088 3.58881 19.3036C3.58881 19.7691 3.88335 20.0365 4.43926 20.0755L4.86448 20.1054L4.89179 20.9559C4.90681 21.4236 4.93743 21.8595 4.95973 21.9244C4.99091 22.0152 5.63064 22.0426 7.72897 22.0426C10.335 22.0426 10.4652 22.0511 10.6281 22.231C11.0034 22.6456 11.7731 22.6403 12.2395 22.2199C12.4168 22.0601 12.6628 22.0434 15.1688 22.0204L17.9046 21.9953L17.9316 21.0267L17.9585 20.0582H18.4208C18.8077 20.0582 18.9151 20.0176 19.0789 19.8092C19.3285 19.492 19.3285 19.1125 19.0789 18.7953C18.9147 18.5864 18.808 18.5463 18.4174 18.5463H17.9519V16.7159V14.8856L18.383 14.837C18.9392 14.7743 19.2748 14.4733 19.2748 14.037C19.2748 13.5597 18.9266 13.2546 18.3814 13.2546H17.9519V12.3569V11.4592L15.4242 11.4602C12.971 11.461 12.8824 11.4677 12.4201 11.6829C12.1582 11.8049 11.8264 12.0443 11.6829 12.2148L11.422 12.5249L11.109 12.1832C10.4938 11.5115 10.2267 11.4592 7.40797 11.4592H4.91173L4.9104 12.1443ZM21.5162 11.5172C21.4788 11.5546 21.4481 11.9608 21.4481 12.42V13.2546H21.1219C20.4463 13.2546 20.039 13.6812 20.1796 14.2412C20.2594 14.5595 20.7261 14.8602 21.141 14.8606L21.4481 14.861V16.7037V18.5463H21.044C20.3191 18.5463 19.9942 18.9946 20.2591 19.6288C20.3968 19.9583 20.5244 20.0253 21.1174 20.0795L21.4009 20.1054L21.4283 20.9999C21.4458 21.5692 21.4973 21.9208 21.57 21.9671C21.633 22.0069 22.9752 22.0403 24.5528 22.0411L27.4212 22.0426L27.7019 22.2788C27.9169 22.4597 28.09 22.515 28.4407 22.515C28.7914 22.515 28.9645 22.4597 29.1794 22.2788L29.4602 22.0426H31.9236H34.3872L34.4141 21.074L34.4411 20.1054L34.9029 20.0524C35.4359 19.9912 35.7167 19.7272 35.7167 19.2875C35.7167 18.9205 35.3412 18.5463 34.9728 18.5463C34.3772 18.5463 34.3938 18.6008 34.3938 16.6463V14.861H34.7645C35.5787 14.861 36.019 14.0208 35.4847 13.4866C35.3065 13.3083 35.1533 13.2546 34.8233 13.2546H34.3938V12.351V11.4472L32.0551 11.4769C29.4474 11.5099 29.3648 11.528 28.7441 12.2048L28.4334 12.5436L28.1919 12.235C28.0591 12.0653 27.7738 11.832 27.5577 11.7165C27.1814 11.5153 27.0485 11.5053 24.3746 11.4778C22.8399 11.4621 21.5536 11.4798 21.5162 11.5172ZM37.9645 12.3333L37.9373 13.2074L37.4943 13.2583C36.922 13.3242 36.6607 13.5582 36.6647 14.0016C36.6695 14.5502 37.0257 14.861 37.6497 14.861H37.9886L37.963 16.68L37.9373 18.499L37.5121 18.529C36.9554 18.5681 36.6617 18.8352 36.6617 19.3022C36.6617 19.7692 36.9554 20.0364 37.5121 20.0755L37.9373 20.1054L37.9846 21.0504L38.0318 21.9953L41.051 22.0203C43.9264 22.0441 44.0797 22.0543 44.2723 22.2351C44.6969 22.6341 45.4454 22.6156 45.9106 22.1947C46.0522 22.0666 46.4906 22.0418 48.999 22.0204L51.9224 21.9953L51.9697 21.0504L52.0169 20.1054L52.4788 20.0524C53.2332 19.9658 53.5349 19.3522 53.0967 18.7953C52.9325 18.5864 52.8258 18.5463 52.4352 18.5463H51.9697V16.7159V14.8856L52.4007 14.837C52.957 14.7743 53.2926 14.4733 53.2926 14.037C53.2926 13.5597 52.9444 13.2546 52.3991 13.2546H51.9697V12.3569V11.4592H49.3184C47.6795 11.4592 46.5072 11.4995 46.2482 11.5648C45.9989 11.6275 45.653 11.8253 45.3943 12.053L44.9594 12.4358L44.7298 12.1425C44.5895 11.9632 44.2977 11.7733 43.9793 11.6542C43.4969 11.4738 43.2547 11.4592 40.7249 11.4592H37.9917L37.9645 12.3333ZM5.19521 12.7349V13.6326H4.6822C3.94959 13.6326 3.6834 13.9162 4.06128 14.2941C4.1999 14.4327 4.37623 14.483 4.72274 14.483H5.19521V16.7037V18.9243H4.63155C4.16466 18.9243 4.0506 18.9567 3.96679 19.1132C3.89497 19.2475 3.89497 19.3569 3.96679 19.4912C4.05051 19.6476 4.16466 19.6802 4.62825 19.6802H5.18859L5.21552 20.6488L5.24246 21.6173H7.74654H10.2506L10.2809 21.4047L10.311 21.1921H8.08389H5.85667V16.8263V12.4604L6.15867 12.1489L6.46067 11.8372H5.82794H5.19521V12.7349ZM7.27407 15.9005V19.9637H8.789C9.92188 19.9637 10.3895 19.9994 10.6432 20.1054C11.2833 20.3729 11.2428 20.5993 11.2428 16.7479C11.2428 13.8126 11.2194 13.1925 11.0975 12.9007C10.7331 12.0286 10.2895 11.842 8.57336 11.8393L7.27407 11.8372V15.9005ZM12.802 11.9051C12.5133 11.9752 12.0037 12.3917 11.8021 12.7222C11.6326 13.0002 11.6215 13.2411 11.6212 16.6328C11.621 18.6445 11.6575 20.2472 11.7038 20.2472C11.7494 20.2472 11.9393 20.1834 12.126 20.1054C12.3811 19.9988 12.8525 19.9637 14.0274 19.9637H15.5895V15.9005V11.8372L14.2902 11.8482C13.5757 11.8542 12.9059 11.8798 12.802 11.9051ZM16.665 12.1616L16.9124 12.4861V16.8391V21.1921H14.7391H12.5657V21.4283V21.6646H15.0698H17.5739V20.6769V19.6892L18.1547 19.6611C18.8008 19.6298 19.0358 19.4499 18.8393 19.1369C18.7625 19.0146 18.584 18.9641 18.1547 18.9433L17.5739 18.9153V16.6991V14.483H18.0869C18.6269 14.483 18.8968 14.3297 18.8968 14.0228C18.8968 13.7385 18.6864 13.6326 18.122 13.6326H17.5739V12.7349V11.8372H16.9957H16.4176L16.665 12.1616ZM21.8261 12.7349V13.6326H21.2572C20.7422 13.6326 20.6779 13.655 20.5807 13.8685C20.4071 14.2495 20.6885 14.483 21.3211 14.483H21.8261V16.6991V18.9153L21.2454 18.9433C20.816 18.9641 20.6375 19.0146 20.5608 19.1369C20.3642 19.4499 20.5992 19.6298 21.2454 19.6611L21.8261 19.6892V20.6769V21.6646H24.5664H27.3068V21.4283V21.1921H24.8972H22.4876V16.8146V12.4372L22.7238 12.2152C22.8537 12.0931 22.9601 11.9582 22.9601 11.9153C22.9601 11.8724 22.7049 11.8372 22.3931 11.8372H21.8261V12.7349ZM23.8331 15.8768L23.8577 19.9164L25.7476 19.9637C27.0062 19.9952 27.7065 20.0504 27.8439 20.1291C27.9575 20.1941 28.097 20.2472 28.1542 20.2472C28.2284 20.2472 28.2504 19.1985 28.2313 16.5781L28.2045 12.909L27.9319 12.5518C27.4649 11.9396 27.1094 11.8417 25.345 11.8393L23.8085 11.8372L23.8331 15.8768ZM29.6109 12.018C29.397 12.1151 29.0993 12.3553 28.9494 12.5518L28.6769 12.909L28.6501 16.5781C28.6354 18.5961 28.6566 20.2465 28.6973 20.2458C28.7381 20.245 28.9415 20.183 29.1494 20.1082C29.4039 20.0165 29.9366 19.9706 30.7794 19.9679L32.0315 19.9637V15.9005V11.8372L31.0157 11.8393C30.2285 11.8409 29.9122 11.8812 29.6109 12.018ZM33.1469 12.1489L33.4489 12.4604V16.8263V21.1921H31.5117H29.5746V21.4283V21.6646H31.7952H34.0158V20.6769V19.6892L34.5966 19.6611C35.2427 19.6298 35.4777 19.4499 35.2812 19.1369C35.2045 19.0146 35.026 18.9641 34.5966 18.9433L34.0158 18.9153V16.6991V14.483H34.4945C35.0781 14.483 35.3387 14.3566 35.3387 14.0734C35.3387 13.7374 35.1546 13.6326 34.5639 13.6326H34.0158V12.7349V11.8372H33.4303H32.8449L33.1469 12.1489ZM38.3625 12.7349V13.6326H37.8145C37.2238 13.6326 37.0396 13.7374 37.0396 14.0734C37.0396 14.3568 37.3003 14.483 37.8856 14.483H38.366L38.3406 16.68L38.3153 18.877L37.7254 18.9052C37.1877 18.9308 37.1303 18.9538 37.077 19.1663C36.9877 19.5223 37.1795 19.6678 37.7798 19.6994L38.3153 19.7275L38.3422 20.6974L38.3692 21.6674L41.1298 21.6424L43.8904 21.6173L43.9207 21.4047L43.9508 21.1921H41.4402H38.9295V16.8263V12.4604L39.2315 12.1489L39.5335 11.8372H38.948H38.3625V12.7349ZM40.3469 15.9005V19.9637H42.1453C43.5301 19.9637 44.0218 19.9963 44.283 20.1054C44.4696 20.1834 44.8032 20.2472 45.0244 20.2472C45.2456 20.2472 45.5791 20.1834 45.7658 20.1054C46.0269 19.9963 46.5186 19.9637 47.9034 19.9637H49.7018V15.9005V11.8372L48.1663 11.8378C47.3218 11.8381 46.4755 11.8814 46.2857 11.9341C45.926 12.0341 45.3287 12.6075 45.2167 12.9607C45.1307 13.2317 44.823 13.2174 44.7532 12.9392C44.664 12.584 44.3125 12.2047 43.8979 12.0164C43.5726 11.8687 43.2657 11.8411 41.9297 11.8393L40.3469 11.8372V15.9005ZM50.8172 12.1489L51.1192 12.4604V16.8263V21.1921H48.6624H46.2055V21.4283V21.6646H48.8986H51.5917V20.6769V19.6892L52.1724 19.6611C52.6018 19.6403 52.7803 19.5899 52.8571 19.4676C53.0536 19.1545 52.8186 18.9747 52.1724 18.9433L51.5917 18.9153V16.6991V14.483H52.0704C52.654 14.483 52.9146 14.3566 52.9146 14.0734C52.9146 13.7374 52.7304 13.6326 52.1397 13.6326H51.5917V12.7349V11.8372H51.0535H50.5152L50.8172 12.1489ZM50.0798 15.9658V20.0006L50.3337 20.2656C50.4734 20.4114 50.6222 20.5307 50.6644 20.5307C50.7067 20.5307 50.7412 18.7605 50.7412 16.597V12.6633L50.4105 12.2972L50.0798 11.9311V15.9658ZM6.48751 12.2923L6.23256 12.5584L6.25722 16.5583L6.28189 20.5582L6.58899 20.2998L6.8961 20.0414V16.0338C6.8961 13.8296 6.86151 12.0262 6.81927 12.0262C6.77703 12.0262 6.62774 12.1459 6.48751 12.2923ZM15.9655 12.1258C15.9644 12.2009 15.9653 14.0044 15.9675 16.1336L15.9715 20.0048L16.2234 20.2677C16.362 20.4123 16.5099 20.5307 16.5521 20.5307C16.5944 20.5307 16.629 18.753 16.629 16.5804V12.6302L16.2982 12.3097C16.092 12.1098 15.9668 12.0406 15.9655 12.1258ZM23.1195 12.2913L22.8656 12.5562V16.5483V20.5403L23.1963 20.288L23.527 20.0358V16.031C23.527 13.8284 23.4924 12.0262 23.4502 12.0262C23.408 12.0262 23.2591 12.1455 23.1195 12.2913ZM32.4094 15.9949V20.0006L32.6633 20.2656C32.803 20.4114 32.9518 20.5307 32.9941 20.5307C33.0363 20.5307 33.0709 18.753 33.0709 16.5804V12.6302L32.7402 12.3097L32.4094 11.9892V15.9949ZM39.6146 12.3326L39.3075 12.6494V16.5901C39.3075 18.7574 39.3421 20.5307 39.3843 20.5307C39.4265 20.5307 39.5758 20.4109 39.7161 20.2646L39.971 19.9985L39.9464 16.007L39.9217 12.0156L39.6146 12.3326ZM44.8118 13.8284C44.6586 13.8872 44.5991 13.987 44.5991 14.1855C44.5991 14.5625 43.6789 17.5756 43.4476 17.9557L43.2608 18.2628H43.698H44.1353L44.0743 17.9382C44.0409 17.7597 44.0635 17.4621 44.1246 17.2768C44.2353 16.9414 44.2383 16.9399 44.7918 16.9399H45.3478L45.4543 17.3353C45.5128 17.5528 45.5368 17.8504 45.5075 17.9967C45.4543 18.2626 45.4548 18.2628 45.9717 18.2628C46.4821 18.2628 46.6221 18.1537 46.4015 17.9274C46.3534 17.8779 46.0599 16.9509 45.7493 15.8672C45.4387 14.7834 45.1485 13.863 45.1045 13.8218C45.0604 13.7806 44.9287 13.7835 44.8118 13.8284ZM47.4767 13.8554C46.8934 14.1187 46.6549 14.922 47.0026 15.4526C47.0913 15.5881 47.3973 15.8789 47.6825 16.0989C48.3899 16.6448 48.5679 16.8931 48.5679 17.3349C48.5679 17.6013 48.5032 17.7692 48.3359 17.9363C48.0759 18.1964 48.022 18.2075 47.6713 18.0743C47.5022 18.0099 47.3478 17.814 47.1835 17.4552C47.0513 17.1665 46.8942 16.9464 46.8342 16.9663C46.7704 16.9873 46.7137 17.2633 46.6973 17.6328L46.6693 18.2634L46.9808 18.2502C47.1521 18.243 47.488 18.269 47.7273 18.3082C48.5611 18.4443 49.2608 17.8391 49.2608 16.9816C49.2608 16.4777 49.0598 16.1628 48.4912 15.7759C47.7688 15.2842 47.434 14.9134 47.434 14.6049C47.434 14.3148 47.7309 13.9161 47.9469 13.9161C48.1729 13.9161 48.4684 14.2366 48.6002 14.6248C48.8334 15.3111 49.1484 14.9466 49.0009 14.161C48.9563 13.9225 48.8984 13.8668 48.6862 13.8575C48.5431 13.8513 48.2773 13.8189 48.0954 13.7858C47.8921 13.7487 47.6538 13.7756 47.4767 13.8554ZM7.65205 13.885C7.65205 13.9199 7.71167 14.0156 7.78453 14.0976C7.85738 14.1797 8.09078 15.0122 8.30311 15.9477C8.85581 18.3822 8.85325 18.3745 9.09629 18.3395C9.27517 18.3138 9.37675 18.0646 9.89788 16.374C10.2262 15.3092 10.5567 14.3433 10.6325 14.2276C10.8464 13.9012 10.8004 13.8216 10.3979 13.8216C10.028 13.8216 9.829 13.9432 10.0129 14.0569C10.0657 14.0895 10.1088 14.2094 10.1086 14.3233C10.1083 14.5498 9.50706 16.5665 9.36333 16.8235C9.28452 16.9643 9.26232 16.9554 9.17425 16.7488C8.99963 16.3391 8.60313 14.2439 8.65935 14.0286C8.71038 13.8337 8.68241 13.8216 8.18282 13.8216C7.89083 13.8216 7.65205 13.8501 7.65205 13.885ZM12.4281 13.9096C12.3981 13.9579 12.4169 14.0242 12.4697 14.0569C12.5988 14.1366 12.6002 17.9468 12.4712 18.0266C12.185 18.2035 12.4945 18.2628 13.704 18.2628H15.0312L15.0033 17.6477C14.9879 17.3095 14.9364 17.0224 14.8887 17.0099C14.841 16.9973 14.7416 17.1684 14.6678 17.3898C14.5081 17.869 14.3019 17.9997 13.7669 17.961L13.3689 17.9321V17.0344C13.3689 16.1837 13.3797 16.1352 13.5751 16.1073C13.707 16.0886 13.8189 16.1481 13.8856 16.2727C14.0912 16.657 14.2666 16.5074 14.2666 15.9477C14.2666 15.3872 14.2022 15.3227 13.9359 15.617C13.544 16.0499 13.3254 15.7914 13.323 14.8924C13.3211 14.1774 13.3694 14.1051 13.8493 14.1051C14.2962 14.1051 14.4655 14.2634 14.5896 14.7969C14.6961 15.2552 14.8787 15.0309 14.909 14.4047L14.9371 13.8216H13.7098C13.0347 13.8216 12.4579 13.8612 12.4281 13.9096ZM24.7689 13.8985C24.6794 13.9603 24.6723 14.0064 24.7453 14.0516C24.8822 14.1363 24.892 17.9422 24.7554 18.0266C24.7035 18.0587 24.6609 18.1419 24.6609 18.2117C24.6609 18.3035 24.8169 18.3384 25.2282 18.3384C25.8297 18.3384 25.9761 18.2635 25.7466 18.073C25.5586 17.917 25.5396 16.1839 25.7259 16.1839C25.7919 16.1839 26.0893 16.6729 26.3869 17.2706C26.9114 18.3244 26.937 18.3573 27.2354 18.3559C27.7552 18.3534 27.8254 18.2448 27.5599 17.8535C27.432 17.665 27.1632 17.1866 26.9627 16.7903C26.6117 16.0968 26.6049 16.0658 26.7815 15.9616C27.5991 15.4786 27.7081 14.5956 27.0135 14.0818C26.8225 13.9406 26.558 13.8897 25.8323 13.8549C25.318 13.8303 24.8394 13.8498 24.7689 13.8985ZM40.772 13.9162C40.718 14.0037 40.7289 14.6671 40.7879 14.8861C40.8508 15.1184 40.9583 15.0242 41.2001 14.5246C41.3628 14.1884 41.4521 14.101 41.6099 14.1236C41.8068 14.1517 41.8121 14.1951 41.8373 15.9881C41.8535 17.1474 41.8274 17.8595 41.7664 17.9205C41.5331 18.1539 41.6712 18.2628 42.2006 18.2628C42.7108 18.2628 42.7284 18.2546 42.6545 18.0502C42.5636 17.7987 42.4875 14.6266 42.5649 14.3181C42.6614 13.9339 42.9651 14.0567 43.2348 14.5891C43.5324 15.1763 43.6771 15.1003 43.636 14.3784L43.607 13.8688L42.2107 13.8583C41.4428 13.8524 40.7954 13.8785 40.772 13.9162ZM29.9189 14.0815C30.0411 14.3312 30.0753 17.8944 29.9566 18.0132C29.7229 18.2468 29.8581 18.3573 30.3778 18.3573C30.8589 18.3573 31.0308 18.2618 30.803 18.1211C30.745 18.0852 30.7085 17.3187 30.7085 16.1367C30.7085 14.9547 30.745 14.1881 30.803 14.1523C31.032 14.0108 30.8576 13.9161 30.3677 13.9161C29.8952 13.9161 29.8467 13.934 29.9189 14.0815ZM25.6499 14.3206C25.6201 14.4391 25.6087 14.8112 25.6245 15.1474C25.6527 15.7501 25.6571 15.7591 25.9366 15.7865C26.3108 15.8232 26.5447 15.6389 26.6344 15.2364C26.7788 14.5898 26.4931 14.1051 25.9676 14.1051C25.772 14.1051 25.69 14.1606 25.6499 14.3206ZM44.7428 15.1415C44.6208 15.3389 44.3213 16.4947 44.3713 16.5754C44.4351 16.6788 45.1393 16.6818 45.2028 16.579C45.2504 16.502 44.9378 15.1682 44.8521 15.0824C44.8273 15.0577 44.7781 15.0843 44.7428 15.1415ZM6.8548 20.5218L6.57728 20.8141H8.47018C10.2015 20.8141 10.3768 20.799 10.5235 20.6369C10.6747 20.4698 10.6742 20.4552 10.5146 20.3858C10.4214 20.3453 9.62224 20.2935 8.73873 20.2707L7.13233 20.2293L6.8548 20.5218ZM12.5845 20.3403C12.1862 20.4347 12.1329 20.4925 12.2804 20.6701C12.3803 20.7906 12.7177 20.8141 14.3455 20.8141H16.2911L15.9639 20.5345L15.6368 20.2548L14.2666 20.2607C13.513 20.2639 12.7561 20.2997 12.5845 20.3403ZM23.4857 20.523L23.2082 20.8141H25.3292C27.3151 20.8141 27.4575 20.8026 27.563 20.6336C27.7409 20.3488 27.5259 20.3097 25.5586 20.269L23.7632 20.2319L23.4857 20.523ZM29.8109 20.2936C29.7589 20.311 29.5996 20.3509 29.4568 20.3824C29.2252 20.4334 29.2098 20.4598 29.3142 20.6269C29.4236 20.8021 29.537 20.8139 31.0857 20.8116L32.7402 20.809L32.4094 20.5307C32.0843 20.257 32.0604 20.2524 30.992 20.2572C30.3944 20.2598 29.8628 20.2763 29.8109 20.2936ZM39.9689 20.5198L39.6382 20.8065L41.8205 20.8103C43.8378 20.8139 44.0151 20.8007 44.1633 20.6369C44.3145 20.4698 44.3141 20.4552 44.1544 20.3845C44.0612 20.3432 43.1557 20.2922 42.1423 20.2713L40.2997 20.2331L39.9689 20.5198ZM46.2243 20.3403C45.826 20.4347 45.7728 20.4925 45.9202 20.6701C46.0211 20.7917 46.3801 20.8137 48.2251 20.8114L50.4105 20.8086L50.1019 20.5279L49.7933 20.2472L48.1648 20.2568C47.2691 20.2622 46.3959 20.2997 46.2243 20.3403ZM10.9248 20.821C10.7327 20.972 10.6759 21.1002 10.6759 21.3811C10.6759 22.0602 11.4739 22.387 11.9558 21.9051C12.2571 21.6038 12.2572 21.2001 11.9561 20.8752C11.6721 20.5688 11.2722 20.5478 10.9248 20.821ZM27.9167 20.8571C27.7704 21.0033 27.6847 21.197 27.6847 21.3811C27.6847 21.5652 27.7704 21.7589 27.9167 21.9051C28.0629 22.0513 28.2566 22.1371 28.4407 22.1371C28.6248 22.1371 28.8185 22.0513 28.9647 21.9051C29.1109 21.7589 29.1966 21.5652 29.1966 21.3811C29.1966 21.197 29.1109 21.0033 28.9647 20.8571C28.8185 20.7109 28.6248 20.6251 28.4407 20.6251C28.2566 20.6251 28.0629 20.7109 27.9167 20.8571ZM44.5647 20.821C44.3747 20.9704 44.3157 21.1009 44.3157 21.3715C44.3157 22.0708 45.102 22.3986 45.5956 21.9051C46.2788 21.222 45.3271 20.2212 44.5647 20.821ZM1.98336 26.6019C1.98544 27.3188 2.18369 30.2261 2.31683 31.4919C3.18816 39.7805 5.99538 47.6516 10.6211 54.7764C11.0122 55.3786 11.3911 55.8714 11.4632 55.8714C11.7039 55.8714 12.4773 55.0973 12.7259 54.6073C13.1408 53.7899 13.1351 52.9288 12.7078 51.88C12.6475 51.7321 12.6859 51.7356 13.0903 51.9145C13.7507 52.2066 14.9971 52.1407 15.6104 51.7813C16.1998 51.4359 16.7751 50.7574 16.966 50.1825C17.1624 49.5916 17.1161 48.4128 16.8787 47.9575C16.6925 47.6003 16.6856 47.604 17.1608 47.8057C17.3834 47.9003 17.7912 47.9619 18.2022 47.9633C19.316 47.9668 20.1586 47.441 20.7141 46.3957C21.0187 45.8227 21.0187 44.5644 20.7141 43.9914C20.1576 42.9443 19.3356 42.4323 18.2115 42.4323C17.7927 42.4323 17.381 42.4918 17.1593 42.5845C16.9588 42.6682 16.7809 42.7367 16.7638 42.7367C16.7467 42.7367 16.8147 42.5559 16.915 42.3351C17.1483 41.8211 17.1617 40.7742 16.9431 40.1313C16.7277 39.498 15.8989 38.6692 15.2656 38.4539C14.6228 38.2352 13.5759 38.2486 13.0618 38.4819C12.8409 38.5822 12.6602 38.6557 12.6603 38.6452C12.6603 38.6347 12.7454 38.4026 12.8493 38.1291C13.3752 36.7454 12.7191 35.1173 11.3695 34.457C10.6753 34.1174 9.63113 34.0894 8.96088 34.3925L8.52158 34.5912L8.72021 34.1518C9.0223 33.4839 8.99528 32.4373 8.65822 31.7483C8.02832 30.4609 6.527 29.7954 5.18841 30.2103C4.90634 30.2977 4.6188 30.3927 4.54953 30.4214C4.45872 30.4589 4.46978 30.3849 4.58912 30.1559C4.79616 29.7587 4.88064 28.5214 4.73162 28.0698C4.55397 27.5315 4.09681 26.8887 3.67367 26.5821C3.32357 26.3286 3.20092 26.2948 2.6297 26.2948H1.98242L1.98336 26.6019ZM17.4375 26.6299C17.2259 27.7585 17.9569 29.1233 19.0646 29.6672C19.7732 30.0151 20.8871 30.0438 21.519 29.7305C21.7399 29.6209 21.9206 29.5425 21.9206 29.5563C21.9206 29.5701 21.8365 29.7668 21.7337 29.9934C21.601 30.2858 21.5462 30.6133 21.5447 31.1225C21.5429 31.7353 21.5846 31.9237 21.8306 32.4159C22.1411 33.0372 22.5442 33.4465 23.1753 33.7812C23.7332 34.0771 25.0905 34.0884 25.6632 33.8019L26.0513 33.6078L25.8673 34.0238C25.5733 34.6887 25.6217 35.637 25.9877 36.3806C27.0282 38.4941 30.1175 38.3608 31.0509 36.1621C31.2773 35.6287 31.2626 34.5832 31.0208 34.0382L30.8301 33.6078L31.2182 33.8019C31.5246 33.9552 31.7852 33.9957 32.4567 33.9942C33.194 33.9926 33.3716 33.9587 33.7912 33.7388C34.3932 33.4235 34.9941 32.7532 35.1899 32.1785C35.4011 31.5587 35.3808 30.5071 35.1477 29.9934C35.0449 29.7668 34.9608 29.5687 34.9608 29.5531C34.9608 29.5375 35.1415 29.6143 35.3624 29.7236C35.9962 30.0376 37.1122 30.0132 37.8108 29.6701C38.9477 29.1118 39.6708 27.7734 39.4556 26.6262L39.3934 26.2948H28.4469H17.5005L17.4375 26.6299ZM53.2313 26.5756C52.7929 26.8981 52.386 27.4474 52.2006 27.9671C52.0117 28.4968 52.0326 29.4224 52.2462 29.9846C52.3598 30.2836 52.3864 30.4459 52.317 30.4164C51.7435 30.1731 51.1187 30.0569 50.6245 30.1017C49.0898 30.2408 47.9689 31.4843 47.9698 33.0467C47.9701 33.5135 48.0285 33.8439 48.1651 34.1518L48.3598 34.5912L47.9205 34.3928C47.2504 34.0901 46.2284 34.1158 45.5289 34.4528C44.0171 35.1811 43.4707 36.8504 44.1867 38.5532C44.2169 38.625 44.0665 38.5945 43.7922 38.4731C43.1769 38.2009 41.9999 38.2451 41.3863 38.5635C40.7652 38.8857 40.3018 39.3769 40.0143 40.0176C39.7953 40.5057 39.7654 40.6806 39.7947 41.3052C39.8177 41.7935 39.8928 42.1567 40.0262 42.4246L40.2238 42.8213L39.9763 42.6932C39.5922 42.4946 38.7376 42.3706 38.2681 42.4455C37.3933 42.5849 36.6695 43.0967 36.2332 43.8842C35.9838 44.3347 35.953 44.4787 35.9541 45.1936C35.955 45.8429 35.9959 46.0732 36.1673 46.3957C36.7221 47.4396 37.5642 47.9656 38.6792 47.965C39.1511 47.9647 39.4844 47.907 39.7851 47.7737L40.2154 47.5829L40.022 47.971C39.893 48.23 39.8174 48.5995 39.7947 49.0819C39.7652 49.7109 39.7947 49.8802 40.0217 50.386C40.335 51.0843 40.9997 51.723 41.64 51.9412C42.2626 52.1533 43.3145 52.1344 43.827 51.9019C44.0868 51.7839 44.2181 51.7588 44.187 51.8331C43.7652 52.8376 43.7598 53.7577 44.1707 54.5977C44.42 55.1071 45.1688 55.8714 45.4188 55.8714C45.7037 55.8714 47.9871 52.1166 49.326 49.4467C52.7119 42.695 54.459 35.7973 54.8608 27.5941L54.9245 26.2948H54.2689C53.6905 26.2948 53.5683 26.3279 53.2313 26.5756ZM129.502 30.3776C128.666 30.6698 128.174 31.4283 128.247 32.3123C128.382 33.9336 130.415 34.6198 131.593 33.4415C132.393 32.6415 132.351 31.5081 131.494 30.7552C130.975 30.2997 130.164 30.1461 129.502 30.3776ZM17.319 30.6426C17.0618 30.7462 16.8727 31.1057 16.7364 31.7498C16.4845 32.94 15.9766 33.5061 15.0259 33.6563C14.7528 33.6995 14.4897 33.7936 14.4411 33.8654C14.3925 33.9373 14.3687 34.2187 14.3882 34.4907C14.4247 34.9992 14.6425 35.3662 14.9079 35.3662C15.0589 35.3662 15.7119 34.737 16.0353 34.2797C16.1454 34.1239 16.2615 34.0223 16.2931 34.054C16.3955 34.1562 16.1847 34.5629 15.6925 35.2132C15.428 35.5627 15.2116 35.9483 15.2116 36.0701C15.2116 36.3283 15.7872 36.8781 16.0576 36.8781C16.3159 36.8781 16.6 36.3551 16.7799 35.5486C17.0093 34.5193 17.0005 34.542 17.105 34.7074C17.2448 34.9283 17.2109 35.4664 17.0069 36.2639C16.903 36.6703 16.818 37.0759 16.818 37.1653C16.818 37.3925 17.3135 37.5758 17.7405 37.5066C18.2692 37.4208 18.3417 37.258 18.1433 36.6027C17.9183 35.8595 17.8295 35.078 17.9381 34.7955C18.0443 34.5191 18.0797 34.5915 18.2408 35.4134C18.3898 36.1732 18.7502 36.8781 18.9896 36.8781C19.2132 36.8781 19.8098 36.3715 19.8923 36.1117C19.9356 35.9753 19.831 35.7771 19.5093 35.3865C19.0198 34.7919 18.6594 34.1531 18.7595 34.0577C18.7951 34.0238 18.9151 34.1236 19.0259 34.2795C19.3905 34.7921 20.0026 35.3662 20.1846 35.3662C20.5286 35.3662 20.8518 34.5103 20.6792 34.0562C20.5631 33.7509 20.4373 33.6686 20.0842 33.6667C19.9317 33.666 19.6228 33.5762 19.3978 33.4672C18.8895 33.2212 18.6015 32.7526 18.3288 31.7282C18.1926 31.2165 18.0518 30.9035 17.8927 30.7596C17.634 30.5255 17.618 30.5222 17.319 30.6426ZM38.9926 30.7562C38.8291 30.9041 38.6903 31.2106 38.5526 31.7282C38.2799 32.7526 37.9918 33.2212 37.4836 33.4672C37.2586 33.5762 36.9421 33.6653 36.7803 33.6653C36.3654 33.6653 36.1892 33.8813 36.1892 34.3898C36.1892 34.8894 36.436 35.3662 36.6944 35.3662C36.8803 35.3662 37.5068 34.7838 37.8633 34.2797C37.9735 34.1239 38.0914 34.0241 38.1252 34.0579C38.2207 34.1535 37.8543 34.8044 37.371 35.3976C37.0609 35.7784 36.95 35.9883 36.9909 36.1173C37.0719 36.3726 37.6705 36.8781 37.8918 36.8781C38.1381 36.8781 38.4994 36.1563 38.65 35.3631C38.7139 35.027 38.7999 34.7146 38.8412 34.6688C39.0119 34.4798 39.0367 35.2943 38.8816 35.9999C38.5929 37.3134 38.5929 37.3351 38.8783 37.4435C39.2098 37.5696 39.5262 37.565 39.8228 37.4298C40.103 37.3022 40.127 37.0822 39.9237 36.5058C39.7298 35.9561 39.6385 34.9607 39.7618 34.741C39.8802 34.53 39.896 34.5654 40.0638 35.42C40.2121 36.1746 40.5403 36.8224 40.7933 36.8599C41.0691 36.9005 41.6698 36.3539 41.6698 36.0623C41.6698 35.9363 41.4967 35.614 41.2851 35.3463C40.8416 34.7853 40.4947 34.1475 40.5843 34.0579C40.6181 34.0241 40.7359 34.1239 40.8461 34.2797C41.1695 34.737 41.8224 35.3662 41.9734 35.3662C42.2373 35.3662 42.4567 34.9981 42.4993 34.4841C42.5483 33.8929 42.3898 33.6653 41.9291 33.6653C41.7673 33.6653 41.4509 33.5762 41.2259 33.4672C40.7142 33.2196 40.3938 32.6982 40.1415 31.7025C40.0396 31.3009 39.8848 30.9023 39.7972 30.8168C39.5153 30.5411 39.2524 30.5213 38.9926 30.7562ZM84.948 39.6633V48.2278L90.0271 48.1945C95.6566 48.1575 95.5633 48.1669 96.9152 47.507C98.42 46.7724 99.2195 45.3479 99.2152 43.4089C99.2106 41.3751 98.3003 40.1186 96.4009 39.5246L95.9003 39.3681L96.6073 39.0187C97.8848 38.3873 98.4415 37.4767 98.5315 35.8714C98.6658 33.4747 97.5582 32.012 95.1315 31.3814C94.3948 31.1898 94.0814 31.176 89.6491 31.1384L84.948 31.0987V39.6633ZM15.5336 31.6222C15.4675 31.7944 15.7883 32.7323 15.9203 32.7529C16.0532 32.7736 16.4508 31.9566 16.4191 31.7282C16.3982 31.5785 16.3091 31.5331 15.9903 31.5101C15.7005 31.4891 15.5726 31.5206 15.5336 31.6222ZM18.6482 31.6318C18.5788 31.8126 18.8509 32.5646 19.0436 32.7245C19.1566 32.8183 19.2069 32.7745 19.3338 32.472C19.4182 32.2709 19.4926 31.9786 19.4991 31.8227C19.5104 31.5544 19.4894 31.5376 19.1086 31.5101C18.8086 31.4883 18.6914 31.5193 18.6482 31.6318ZM37.3617 31.6222C37.2956 31.7944 37.6164 32.7323 37.7483 32.7529C37.8813 32.7736 38.2789 31.9566 38.2472 31.7282C38.2263 31.5785 38.1372 31.5331 37.8184 31.5101C37.5285 31.4891 37.4007 31.5206 37.3617 31.6222ZM40.4742 31.6373C40.3604 31.9337 40.8975 32.9762 41.0429 32.741C41.1814 32.5169 41.3937 31.742 41.3488 31.6249C41.2761 31.4352 40.5478 31.4455 40.4742 31.6373ZM88.7278 35.9782V38.2182L91.0192 38.186C93.3077 38.1538 93.3114 38.1534 93.8491 37.8894C94.577 37.5319 94.7954 37.1689 94.8495 36.2261C94.8721 35.8311 94.843 35.3318 94.7849 35.1165C94.6578 34.6465 94.1013 34.1063 93.5773 33.9442C93.3649 33.8785 92.2922 33.8131 90.972 33.7854L88.7278 33.7383V35.9782ZM119.202 35.6067C117.759 35.9194 116.528 36.7848 116.049 37.823C115.862 38.2281 115.8 38.5379 115.769 39.2275C115.717 40.3986 115.91 41.0642 116.493 41.7122C117.177 42.473 118.12 42.8589 120.157 43.2123C122.212 43.5687 122.84 43.9249 122.84 44.733C122.84 45.6416 122.235 46.0719 120.95 46.0768C119.646 46.0817 119.047 45.7023 118.772 44.6975L118.675 44.3431H117.062H115.448L115.514 44.792C115.782 46.5995 116.853 47.742 118.784 48.2775C119.65 48.5178 122.161 48.5228 123.029 48.2858C124.413 47.9077 125.364 47.1899 125.845 46.1609C126.077 45.664 126.099 45.5201 126.099 44.4376C126.1 43.3972 126.073 43.1976 125.877 42.7625C125.329 41.5514 124.223 40.9862 121.47 40.5104C120.01 40.2582 119.409 40.0616 119.144 39.7502C118.648 39.1649 119.041 38.2177 119.901 37.9304C120.386 37.7683 121.227 37.8025 121.666 38.0022C122.098 38.1983 122.4 38.5349 122.573 39.0134L122.689 39.3349H124.263H125.838L125.75 38.8388C125.481 37.3229 124.535 36.2761 122.986 35.7803C122.01 35.4678 120.221 35.3857 119.202 35.6067ZM141.137 35.6105C140.087 35.8649 139.122 36.5374 138.507 37.4451C138.351 37.6746 138.347 37.6537 138.342 36.7127L138.337 35.7442H136.636H134.935V41.9808V48.2174H136.631H138.328L138.356 44.225C138.384 40.2865 138.387 40.2262 138.602 39.7602C138.865 39.1892 139.202 38.8192 139.707 38.5469C140.019 38.3789 140.244 38.3432 140.99 38.343C141.819 38.3427 141.927 38.3645 142.287 38.6027C142.503 38.7457 142.777 39.0433 142.894 39.2642C143.107 39.6622 143.109 39.7026 143.136 43.9415L143.163 48.2174H144.908H146.652L146.649 43.9415C146.646 39.3123 146.593 38.6607 146.147 37.686C145.803 36.9341 145.452 36.5145 144.829 36.1117C143.893 35.5059 142.405 35.3038 141.137 35.6105ZM153.868 35.5578C152.601 35.7855 151.417 36.4035 150.535 37.298C149.368 38.4815 148.835 39.7874 148.756 41.6593C148.698 43.0022 148.815 43.8034 149.216 44.8178C149.885 46.5108 151.234 47.6865 153.143 48.2397C153.771 48.4216 154.1 48.4532 155.346 48.4513C156.576 48.4494 156.929 48.4151 157.55 48.2371C158.911 47.8468 159.822 47.2426 160.436 46.3238C160.761 45.8378 161.205 44.7423 161.205 44.4277C161.205 44.3812 160.466 44.3431 159.563 44.3431H157.921L157.865 44.6214C157.835 44.7744 157.627 45.0893 157.405 45.3212C156.87 45.8777 156.2 46.0836 155.118 46.024C153.622 45.9414 152.65 45.0976 152.334 43.6061C152.128 42.6334 151.6 42.7367 156.77 42.7367H161.313L161.246 41.6264C161.054 38.4005 159.784 36.5592 157.189 35.7438C156.438 35.5078 154.691 35.41 153.868 35.5578ZM166.835 35.6097C165.373 35.9375 164.205 36.7543 163.685 37.8127C163.447 38.2979 163.425 38.4348 163.425 39.4294C163.425 40.3694 163.455 40.5827 163.648 41.01C164.177 42.1782 165.317 42.7871 167.772 43.2116C169.216 43.4614 169.741 43.6329 170.143 43.9854C170.428 44.2354 170.465 44.3223 170.465 44.7342C170.465 45.6597 169.877 46.0773 168.566 46.0817C167.881 46.0841 167.682 46.0474 167.293 45.8475C166.811 45.5995 166.515 45.2112 166.408 44.6889L166.347 44.3904L164.715 44.3645L163.082 44.3386L163.148 44.7897C163.317 45.9527 163.903 46.9354 164.782 47.5296C165.683 48.1396 166.666 48.4152 168.15 48.4747C171.799 48.6208 173.802 47.1748 173.806 44.3904C173.808 43.363 173.577 42.6663 173.035 42.0633C172.315 41.2628 171.292 40.8668 168.906 40.4647C167.496 40.2271 167.041 40.0715 166.778 39.7364C166.519 39.4073 166.528 38.7791 166.796 38.4381C167.219 37.8996 168.337 37.6585 169.152 37.9302C169.598 38.079 170.072 38.5531 170.199 38.9779L170.306 39.3349H171.899H173.492L173.434 39.0751C173.27 38.3484 173.169 38.027 172.994 37.6819C172.507 36.7214 171.805 36.165 170.582 35.7719C169.63 35.4657 167.826 35.3875 166.835 35.6097ZM179.26 35.5571C177.539 35.921 176.429 36.6756 175.886 37.8493C175.639 38.3852 175.615 38.5292 175.617 39.4767C175.618 40.326 175.654 40.5939 175.814 40.9413C176.404 42.2217 177.41 42.7514 180.218 43.2601C181.877 43.5606 182.452 43.8267 182.632 44.3769C182.799 44.8886 182.648 45.4003 182.238 45.7135C181.588 46.2088 180.065 46.2332 179.3 45.7605C178.971 45.5568 178.591 44.909 178.591 44.5495C178.591 44.3452 178.575 44.3431 176.938 44.3431C176.028 44.3431 175.285 44.375 175.286 44.414C175.287 44.453 175.347 44.7668 175.42 45.1114C175.768 46.7503 176.828 47.7817 178.686 48.2866C179.153 48.4137 179.661 48.4536 180.812 48.4536C182.135 48.4536 182.412 48.4259 183.031 48.2314C184.247 47.8498 184.855 47.4458 185.387 46.6672C185.831 46.016 186.006 45.3503 185.999 44.3431C185.981 42.0376 184.789 41.0493 181.379 40.5144C179.339 40.1944 178.78 39.8935 178.78 39.1153C178.78 38.5777 179.085 38.1863 179.68 37.9588C180.243 37.7439 181.276 37.8094 181.728 38.0886C182.051 38.2886 182.466 38.9026 182.466 39.1824C182.466 39.3168 182.657 39.3349 184.076 39.3349H185.687L185.621 38.9806C185.292 37.204 184.334 36.186 182.513 35.6772C181.931 35.5145 179.829 35.4368 179.26 35.5571ZM101.673 40.1725C101.673 42.608 101.713 44.81 101.762 45.0657C102.164 47.1853 103.464 48.3502 105.568 48.477C106.536 48.5353 107.364 48.3958 108.093 48.0514C108.591 47.8162 109.413 47.0929 109.729 46.611C109.879 46.3833 109.885 46.4081 109.889 47.296L109.894 48.2174H111.595H113.296V41.9808V35.7442H111.595H109.894V39.6485C109.894 43.8394 109.867 44.1242 109.397 44.8219C108.884 45.5825 107.729 45.9949 106.71 45.7811C106.05 45.6427 105.628 45.3234 105.345 44.7473C105.123 44.2964 105.122 44.2906 105.094 40.02L105.065 35.7442H103.369H101.673V40.1725ZM128.51 41.9808V48.2174H130.211H131.911V41.9808V35.7442H130.211H128.51V41.9808ZM154.231 37.9959C153.956 38.0943 153.576 38.3005 153.386 38.4542C152.969 38.7916 152.45 39.7053 152.362 40.2562L152.298 40.6578H155.098C156.804 40.6578 157.897 40.6228 157.897 40.568C157.897 40.307 157.663 39.434 157.516 39.1459C157.29 38.7033 156.798 38.2448 156.349 38.0575C155.763 37.813 154.819 37.7855 154.231 37.9959ZM88.7278 43.1135V45.5854L91.2082 45.5538C93.3437 45.5265 93.7412 45.4986 94.0667 45.3529C94.9582 44.9535 95.3573 44.2639 95.3573 43.1226C95.3573 41.9449 95.0067 41.3425 94.0791 40.9265C93.6213 40.7212 93.458 40.7071 91.161 40.6752L88.7278 40.6414V43.1135ZM27.9295 41.2484C27.8538 41.3653 27.7262 41.7464 27.646 42.0952C27.3017 43.5925 26.6739 44.2459 25.5774 44.248C25.0439 44.2492 24.9221 45.1904 25.3727 45.8314C25.4549 45.9483 25.5827 46.044 25.6568 46.044C25.8093 46.044 26.4799 45.4072 26.8511 44.9101C26.9869 44.7282 27.1267 44.6071 27.1617 44.641C27.259 44.7353 26.8833 45.4096 26.409 45.9919C26.1751 46.2789 25.9839 46.6037 25.9839 46.7136C25.9839 47.0327 26.5874 47.575 26.9022 47.5388C27.2222 47.502 27.5284 46.9586 27.6841 46.151C27.8775 45.1474 27.8788 45.1437 27.9732 45.293C28.1062 45.503 28.0788 46.3226 27.9197 46.8975C27.6653 47.8175 27.6528 47.9788 27.8252 48.1218C28.051 48.3092 28.8775 48.2935 29.073 48.0981C29.2174 47.9536 29.2139 47.8828 29.0236 47.1068C28.81 46.2357 28.7629 45.5224 28.9043 45.2992C28.9999 45.1482 29.018 45.1975 29.1962 46.0978C29.3603 46.927 29.6705 47.5016 29.9737 47.5377C30.2972 47.5761 30.8975 47.0589 30.8975 46.7416C30.8975 46.6109 30.7103 46.284 30.4584 45.9746C30.022 45.4388 29.6349 44.7235 29.7301 44.6289C29.7575 44.6016 29.9128 44.7494 30.0752 44.9573C30.554 45.5702 31.0938 46.0564 31.2612 46.0255C31.347 46.0097 31.5194 45.7907 31.6443 45.5387C31.8309 45.1622 31.8562 45.0211 31.7861 44.7448C31.6867 44.3534 31.5748 44.2784 30.9753 44.2014C30.0929 44.0881 29.6111 43.5174 29.2725 42.1847C29.0214 41.1958 28.9055 41.0358 28.4407 41.0358C28.157 41.0358 28.034 41.087 27.9295 41.2484ZM26.3391 42.0941C26.2739 42.286 26.6483 43.3037 26.7841 43.3037C26.9291 43.3037 27.3309 42.4127 27.2879 42.1865C27.2494 41.9837 26.4044 41.9015 26.3391 42.0941ZM29.6205 42.0773C29.4738 42.3149 30.0287 43.4482 30.2053 43.2715C30.3207 43.1561 30.6185 42.159 30.564 42.0706C30.4893 41.9499 29.6959 41.9555 29.6205 42.0773ZM17.1209 52.3556C17.0276 52.4489 16.8537 52.8948 16.7343 53.3465C16.3994 54.6145 15.9527 55.1203 15.0487 55.2549C14.4511 55.3439 14.361 55.4355 14.3615 55.9538C14.3619 56.4281 14.6419 57.0053 14.8716 57.0053C14.9459 57.0053 15.308 56.6784 15.6762 56.2789C16.0442 55.8793 16.3455 55.6046 16.3455 55.6684C16.3455 55.8706 15.9937 56.4696 15.596 56.9447C15.3846 57.1972 15.2116 57.4961 15.2116 57.6087C15.2116 57.8913 15.45 58.2055 15.8025 58.3878C16.0911 58.5371 16.104 58.5347 16.3132 58.2915C16.5372 58.031 16.9124 56.9567 16.9124 56.5757C16.9124 56.2596 17.0846 56.1966 17.1573 56.4861C17.2289 56.7717 17.1644 57.2757 16.9433 58.1567C16.8125 58.6776 16.8062 58.8144 16.9073 58.9363C17.0751 59.1383 17.9261 59.1368 18.15 58.9341C18.3012 58.7973 18.3041 58.7453 18.1821 58.3435C17.964 57.6253 17.8418 56.8187 17.9064 56.5245C17.9929 56.1309 18.1061 56.1849 18.1718 56.6509C18.265 57.3137 18.5118 58.026 18.74 58.2912C18.9491 58.5343 18.9626 58.5369 19.2491 58.3888C19.5401 58.2382 19.9362 57.7762 19.9362 57.587C19.9362 57.5332 19.7727 57.3003 19.5728 57.0693C19.1529 56.5841 18.8545 56.1141 18.7522 55.7769C18.702 55.6111 18.8923 55.7627 19.3903 56.285C19.7962 56.711 20.1554 57.0109 20.2297 56.9862C20.4453 56.9144 20.7161 56.3555 20.7264 55.9615C20.7387 55.4952 20.5683 55.3209 20.0274 55.2464C19.4465 55.1662 19.1284 54.9837 18.814 54.5496C18.5639 54.2044 18.4996 54.0285 18.2325 52.9607C18.056 52.2547 17.5159 51.9606 17.1209 52.3556ZM38.9345 52.3701C38.8333 52.4713 38.7057 52.7371 38.6508 52.9607C38.2337 54.6614 37.9009 55.086 36.8506 55.2567C36.2771 55.3498 36.1891 55.4426 36.1896 55.9538C36.1899 56.4281 36.4699 57.0053 36.6996 57.0053C36.774 57.0053 37.1409 56.6758 37.5149 56.273C37.9917 55.7597 38.1744 55.6113 38.1262 55.7769C38.0293 56.1102 37.732 56.5801 37.3086 57.0693C37.1087 57.3003 36.9451 57.5332 36.9451 57.587C36.9451 57.7736 37.3395 58.2373 37.6227 58.3838C37.8837 58.5187 37.9221 58.5176 38.0857 58.3695C38.3134 58.1633 38.6189 57.3494 38.7011 56.7298C38.7738 56.1821 38.8958 56.1049 38.9745 56.5564C39.0314 56.8823 38.9411 57.5164 38.7319 58.2613C38.556 58.8877 38.6604 59.029 39.3258 59.0648C40.0645 59.1046 40.15 58.9782 39.9421 58.1542C39.7181 57.2663 39.653 56.7691 39.7241 56.4861C39.8115 56.1381 39.9361 56.2678 40.014 56.7878C40.1044 57.3907 40.4057 58.1721 40.6238 58.3695C40.7877 58.5178 40.8254 58.5189 41.0885 58.3828C41.7085 58.0623 41.8259 57.5684 41.3984 57.0795C41.0277 56.6555 40.5359 55.8652 40.5359 55.6934C40.5359 55.6158 40.8372 55.8793 41.2052 56.2789C41.5734 56.6784 41.9355 57.0053 42.0098 57.0053C42.2395 57.0053 42.5195 56.4281 42.5199 55.9538C42.5204 55.4355 42.4303 55.3439 41.8326 55.2549C40.9287 55.1203 40.4819 54.6145 40.1471 53.3465C40.0277 52.8948 39.8538 52.4489 39.7605 52.3556C39.5382 52.1334 39.1646 52.14 38.9345 52.3701ZM27.5622 52.5057C26.7331 52.8146 26.078 53.4688 25.8099 54.2554C25.6552 54.7093 25.6733 55.8127 25.8421 56.2166C26.0283 56.6621 26.0315 56.6571 25.6767 56.4714C25.4909 56.3741 25.067 56.2941 24.6031 56.2688C23.9221 56.2317 23.7733 56.2555 23.2683 56.4821C22.6243 56.771 22.1334 57.2337 21.8106 57.8557C21.4916 58.4706 21.4481 59.6462 21.7213 60.2641C21.8991 60.6659 21.9023 60.7032 21.7542 60.6417C21.6639 60.6041 21.4024 60.5147 21.1733 60.443C19.5621 59.9388 17.7956 61.0077 17.4787 62.6786L17.3822 63.1876L18.1158 63.9305C20.4709 66.3151 23.9513 69.1693 27.2362 71.4097L28.4414 72.2317L29.7875 71.3134C32.9561 69.1519 36.4237 66.3034 38.7272 63.9701L39.517 63.1701L39.4086 62.6648C39.213 61.7526 38.6536 61.0403 37.7693 60.5773C37.2033 60.281 35.9392 60.2722 35.3624 60.5606C35.1415 60.671 34.9608 60.7508 34.9608 60.738C34.9608 60.7251 35.0504 60.5119 35.1599 60.2644C35.4506 59.6073 35.4227 58.5495 35.0972 57.8838C34.7895 57.2546 34.0558 56.5926 33.4389 56.3878C32.8075 56.1781 31.7502 56.2276 31.2182 56.4919L30.8301 56.6848L31.0208 56.2544C31.1542 55.9538 31.2118 55.6205 31.2121 55.1486C31.2128 54.031 30.6755 53.1736 29.6428 52.6442C29.1374 52.3851 28.0754 52.3143 27.5622 52.5057ZM15.5428 53.2248C15.4508 53.3736 15.7977 54.3595 15.9422 54.3595C16.0918 54.3595 16.4349 53.6564 16.4379 53.3436C16.4398 53.1548 16.3931 53.131 16.0203 53.131C15.7895 53.131 15.5746 53.1732 15.5428 53.2248ZM18.6535 53.2572C18.5786 53.4524 18.9309 54.3071 19.0997 54.3396C19.2063 54.3601 19.295 54.2312 19.4042 53.8974C19.6401 53.1762 19.6239 53.131 19.1301 53.131C18.8602 53.131 18.684 53.1776 18.6535 53.2572ZM37.3231 53.2786C37.3231 53.3598 37.3925 53.6383 37.4772 53.8974C37.5864 54.2312 37.6751 54.3601 37.7817 54.3396C37.9505 54.3071 38.3028 53.4524 38.2279 53.2572C38.1545 53.0657 37.3231 53.0855 37.3231 53.2786ZM40.4435 53.3436C40.4465 53.6564 40.7896 54.3595 40.9392 54.3595C41.0837 54.3595 41.4306 53.3736 41.3386 53.2248C41.3068 53.1732 41.0919 53.131 40.8611 53.131C40.4883 53.131 40.4416 53.1548 40.4435 53.3436ZM115.564 63.0529V72.1243H117.308H119.053L119.08 68.0847C119.106 64.2075 119.116 64.028 119.306 63.6199C119.712 62.7515 120.427 62.2919 121.481 62.2231C122.55 62.1533 123.191 62.4685 123.624 63.2774C123.828 63.66 123.833 63.7439 123.861 67.8957L123.89 72.1243H125.641H127.391L127.351 67.565C127.306 62.6245 127.294 62.5023 126.747 61.3992C125.954 59.8006 123.967 59.0268 121.904 59.5131C120.793 59.7751 120.002 60.294 119.332 61.2008L119.06 61.5693V57.7754V53.9815H117.312H115.564V63.0529ZM159.315 63.0529V72.1243H161.063H162.811V63.0529V53.9815H161.063H159.315V63.0529ZM89.8667 54.9763C88.9267 55.1464 87.902 55.5296 87.2391 55.959C86.5887 56.3802 85.7981 57.2229 85.5292 57.7815C85.0495 58.7774 84.9218 60.0252 85.1853 61.1423C85.3663 61.9106 85.5961 62.351 86.0992 62.894C87.0236 63.8917 88.5291 64.4602 91.6163 64.9772C94.2001 65.4099 94.9535 65.6908 95.2843 66.3449C95.6382 67.0445 95.5329 68.0702 95.0468 68.6601C94.6878 69.0956 94.2354 69.332 93.4744 69.4817C92.7306 69.6281 91.027 69.5528 90.3619 69.3444C89.4103 69.046 88.7427 68.3209 88.4844 67.3051L88.3763 66.8799L86.5093 66.8542L84.6424 66.8286L84.7091 67.2729C85.0701 69.6801 86.4903 71.2633 88.9202 71.9672C91.0142 72.5737 93.7929 72.5388 95.6288 71.883C97.9394 71.0576 99.2195 69.3069 99.2152 66.9782C99.2094 63.8429 97.517 62.5206 92.6219 61.827C90.389 61.5107 89.4223 61.1765 88.9717 60.5655C88.688 60.1807 88.6886 59.0257 88.9727 58.6422C89.4915 57.9421 90.172 57.7148 91.7516 57.7144C92.7001 57.7141 93.0331 57.7512 93.4422 57.9028C94.1469 58.1641 94.7093 58.685 94.9728 59.3205L95.1881 59.8401H96.9782H98.7683L98.7063 59.4385C98.2425 56.4318 95.7661 54.8172 91.6571 54.8423C91.0594 54.846 90.2537 54.9063 89.8667 54.9763ZM106.073 59.5171C104.65 59.8361 103.71 60.3587 102.775 61.3506C102.066 62.1016 101.575 63.0247 101.295 64.1311C101.038 65.1489 101.038 66.7767 101.295 67.8475C101.823 70.0527 103.314 71.5745 105.551 72.1919C106.406 72.4279 108.654 72.429 109.506 72.1937C111.065 71.763 112.282 70.8364 112.87 69.6327C113.2 68.9572 113.485 68.0212 113.485 67.616V67.3996H111.941H110.398L110.239 67.9703C110.049 68.6538 109.529 69.2696 108.873 69.5871C108.254 69.8866 107.12 69.8825 106.424 69.5784C105.842 69.3241 105.236 68.7042 104.976 68.0963C104.571 67.152 104.503 65.316 104.832 64.2298C105.138 63.2198 105.9 62.4391 106.822 62.1897C107.377 62.0395 108.448 62.1337 108.917 62.3738C109.419 62.631 109.866 63.1726 110.025 63.7143L110.15 64.1396L111.77 64.1655L113.391 64.1913V63.9727C113.391 63.6317 113.122 62.6787 112.869 62.1264C112.572 61.4751 111.635 60.505 110.952 60.1409C109.698 59.4727 107.516 59.1937 106.073 59.5171ZM134.841 59.4225C132.005 59.9276 130.121 61.5882 129.487 64.1422C129.264 65.0409 129.266 66.9354 129.492 67.7776C129.784 68.8694 130.279 69.7385 131.059 70.5292C132.303 71.7895 133.889 72.4078 135.88 72.4078C137.075 72.4078 138.034 72.1908 139.093 71.6804C139.823 71.3285 140.125 71.1135 140.708 70.5285C141.947 69.2868 142.491 67.87 142.491 65.8877C142.491 63.9018 141.945 62.4821 140.708 61.2533C139.479 60.0323 138.111 59.4793 136.164 59.4159C135.566 59.3964 134.971 59.3994 134.841 59.4225ZM149.206 59.5153C146.748 60.0482 145.077 61.5315 144.369 63.8088C144.177 64.427 144.149 64.7046 144.154 65.9822C144.158 67.3109 144.182 67.5177 144.412 68.2102C145.286 70.8381 147.639 72.4093 150.698 72.4071C153.373 72.4052 155.547 71.1325 156.59 68.9588C157.113 67.8687 157.263 67.0498 157.211 65.557C157.164 64.1678 156.916 63.2458 156.337 62.2979C155.968 61.6945 155.01 60.7307 154.413 60.3615C153.045 59.5166 150.847 59.1596 149.206 59.5153ZM135.03 62.1018C134.153 62.3695 133.476 63.0052 133.119 63.8959C132.932 64.3623 132.908 64.5919 132.908 65.8877C132.908 67.1883 132.932 67.4121 133.122 67.886C133.381 68.5349 133.972 69.2269 134.498 69.4994C135.055 69.7879 136.379 69.8499 136.991 69.6161C137.605 69.3815 138.262 68.7381 138.556 68.0832C139.001 67.0894 139.076 65.3047 138.722 64.108C138.468 63.248 137.714 62.4243 136.939 62.1603C136.492 62.0081 135.442 61.9759 135.03 62.1018ZM149.65 62.1438C148.106 62.7182 147.349 64.5243 147.685 66.8273C147.89 68.2234 148.368 68.9984 149.317 69.4728C150.34 69.9841 151.768 69.8426 152.578 69.1498C153.41 68.4375 153.804 67.1605 153.715 65.4689C153.632 63.9022 153.114 62.8873 152.122 62.3468C151.694 62.1136 151.487 62.0651 150.81 62.0403C150.284 62.0209 149.884 62.0566 149.65 62.1438Z" fill="#F0F0F0"/>
</svg>
