<svg width="215" height="30" viewBox="0 0 215 30" fill="none" xmlns="http://www.w3.org/2000/svg">
<path fill-rule="evenodd" clip-rule="evenodd" d="M1.14673 0.883638C0.902679 2.15988 0.601562 3.93866 0.601562 4.10304C0.601562 4.19954 2.43199 4.28211 5.64243 4.33029L10.6833 4.40604L9.75338 9.78433C8.52699 16.8766 7.35001 23.6165 6.89841 26.1333C6.69791 27.2509 6.53377 28.2905 6.53377 28.4437C6.53377 28.7039 6.71819 28.722 9.38723 28.722C10.9566 28.722 12.2407 28.668 12.2407 28.602C12.2407 28.5361 12.4739 27.1554 12.7591 25.5341C13.427 21.7363 15.2844 11.0633 15.8562 7.73906C16.0998 6.32253 16.3375 4.97599 16.3844 4.74692L16.4697 4.33029L21.4512 4.32801C24.1912 4.32665 26.5058 4.27559 26.5947 4.21439C26.719 4.12879 27.4091 0.721381 27.4091 0.192946C27.4091 0.135375 21.5343 0.0882568 14.3539 0.0882568H1.29871L1.14673 0.883638ZM175.977 0.188549C175.868 0.232787 175.789 0.535033 175.789 0.906362C175.789 1.57024 175.58 2.9186 175.321 3.9223C175.179 4.4724 175.147 4.49694 174.617 4.45255L174.062 4.40604L173.687 2.58803L173.311 0.770012L171.823 0.72638C171.004 0.702292 170.284 0.736379 170.222 0.802131C170.161 0.867731 170.272 1.63736 170.47 2.51227C170.668 3.38719 170.831 4.18833 170.832 4.29241C170.833 4.42679 170.514 4.48179 169.736 4.48179H168.638L168.409 5.6938C168.283 6.36025 168.214 6.93974 168.255 6.98156C168.296 7.02322 169.709 7.05731 171.394 7.05731H174.458L174.36 7.39819C174.204 7.94435 173.751 8.49536 173.444 8.51202C173.288 8.5205 171.968 8.53762 170.509 8.5499L167.857 8.57232L167.676 9.59495C167.576 10.1573 167.486 10.6858 167.474 10.7691C167.462 10.8617 168.359 10.95 169.782 10.9963L172.11 11.0721L171.134 11.8128C170.082 12.6104 169.36 12.9802 167.831 13.5031C166.903 13.8205 166.85 13.8646 166.735 14.4237C166.668 14.7467 166.523 15.4037 166.412 15.8836C166.301 16.3634 166.259 16.7861 166.318 16.8229C166.466 16.9153 168.101 16.4733 168.628 16.1984C168.865 16.0748 169.095 16.0095 169.138 16.0536C169.202 16.1175 168.701 19.1203 168.346 20.806L168.274 21.1469H173.741C178.389 21.1469 179.234 21.1805 179.392 21.3716C179.54 21.5519 179.495 22.0102 179.165 23.682C178.938 24.8291 178.721 25.853 178.682 25.9571C178.628 26.1001 177.86 26.1465 175.548 26.1465C172.045 26.1465 172.297 26.0057 172.8 27.6758L173.115 28.722H177.381C179.727 28.722 181.646 28.6903 181.646 28.6517C181.646 28.613 181.953 26.8917 182.327 24.8263C183.244 19.774 183.273 19.4581 182.859 19.0692C182.53 18.7597 181.659 18.5714 180.557 18.5714H179.961L180.063 18.0033C180.32 16.572 180.631 15.3899 180.749 15.3899C180.82 15.3899 181.11 15.5277 181.393 15.6964C182.101 16.1175 184.356 16.9347 184.576 16.8496C184.675 16.8114 184.928 16.314 185.14 15.7441C185.351 15.1743 185.568 14.5965 185.622 14.46C185.702 14.2595 185.5 14.1368 184.573 13.8224C183.11 13.3261 181.755 12.5533 180.895 11.724L180.22 11.0721L182.692 10.9963L185.165 10.9206L185.421 9.78433C185.561 9.15939 185.657 8.62868 185.634 8.60504C185.61 8.58141 183.76 8.56202 181.522 8.56202C179.284 8.56202 177.425 8.51323 177.391 8.45354C177.357 8.39385 177.453 8.05661 177.603 7.70407L177.877 7.06306L181.301 7.02231L184.724 6.98156L184.899 6.44373C184.995 6.14785 185.121 5.58533 185.179 5.19385L185.285 4.48179H184.217C183.629 4.48179 183.148 4.45088 183.148 4.41316C183.148 4.37544 183.452 3.59551 183.824 2.68014C184.196 1.76462 184.5 0.943177 184.5 0.854852C184.5 0.751831 183.933 0.694261 182.919 0.694261H181.339L181.191 1.11089C181.109 1.33996 180.79 2.19215 180.481 3.00465L179.92 4.48179H179.281C178.93 4.48179 178.643 4.45876 178.643 4.43073C178.643 4.40255 178.744 3.70383 178.867 2.87785C178.991 2.05186 179.092 1.08619 179.092 0.732137L179.093 0.0882568L177.629 0.100227C176.824 0.106741 176.08 0.146583 175.977 0.188549ZM190.958 0.216881C190.958 0.349899 191.848 4.70434 192.179 6.18618L192.339 6.90581H194.202C195.88 6.90581 196.063 6.8796 196.052 6.64068C196.046 6.49494 195.691 4.97796 195.264 3.26978L194.487 0.164007L192.722 0.121282C191.728 0.0971934 190.958 0.13901 190.958 0.216881ZM159.802 2.70165C158.122 13.9702 156.403 22.3583 154.523 28.4621C154.446 28.7118 154.564 28.7292 156.066 28.6894L157.692 28.6462L158.646 24.2527C159.171 21.8362 159.664 19.6005 159.742 19.2845L159.885 18.7099L160.966 18.7543L162.048 18.7986L161.999 19.4046C161.973 19.738 161.584 21.8662 161.136 24.1341C160.687 26.4019 160.321 28.362 160.321 28.4897C160.321 28.6835 160.579 28.722 161.881 28.722H163.442L163.767 26.9418C163.946 25.9628 164.225 24.4458 164.387 23.5709C164.549 22.696 165.054 19.8326 165.509 17.2079C166.677 10.4776 167.34 6.69462 167.764 4.34347C168.215 1.84279 168.215 1.82628 167.761 1.3692L167.393 0.997264H163.724H160.056L159.802 2.70165ZM197.719 1.33314C197.721 1.52343 197.844 2.15625 197.992 2.73953L198.26 3.80003L204.258 3.88018C207.557 3.92426 210.273 3.97532 210.294 3.9938C210.44 4.12455 210.243 5.60623 209.701 8.44945L209.072 11.7538H206.613C204.342 11.7538 204.159 11.7335 204.23 11.4887C204.383 10.9544 204.983 6.91414 204.917 6.85627C204.88 6.82324 204.14 6.37586 203.273 5.86181C201.882 5.03719 201.684 4.95902 201.59 5.19688C201.496 5.4364 200.418 11.3624 200.419 11.6355C200.419 11.6955 199.592 11.7637 198.58 11.787L196.742 11.8296L196.56 12.8144C196.46 13.356 196.375 13.9867 196.371 14.2157L196.364 14.6324H198.091C199.041 14.6324 199.818 14.6834 199.818 14.746C199.816 15.1029 197.708 26.679 197.334 28.3811C197.26 28.7211 197.265 28.722 199.215 28.722C200.29 28.722 201.17 28.6755 201.17 28.6185C201.17 28.5615 201.538 26.5675 201.988 24.1871C202.438 21.8067 202.981 18.8365 203.193 17.5866C203.406 16.3368 203.614 15.1608 203.654 14.9732C203.728 14.6371 203.762 14.6324 206.129 14.6324C207.449 14.6324 208.529 14.6687 208.529 14.713C208.529 14.916 207.268 21.88 206.656 25.0553C206.282 26.9967 205.976 28.6159 205.976 28.6535C205.976 28.6912 207.517 28.722 209.401 28.722H212.825L213.298 27.5478C213.558 26.902 213.816 26.2543 213.87 26.1086C213.96 25.8651 213.818 25.8434 212.133 25.8434C210.306 25.8434 210.299 25.8421 210.381 25.5026C210.525 24.9126 211.938 17.6188 212.795 13.0416C214.838 2.13837 214.854 2.00914 214.269 1.41844L213.928 1.07301L205.822 1.03014L197.716 0.987263L197.719 1.33314ZM162.655 3.76216C162.501 4.25348 161.859 8.3578 161.92 8.45824C162.01 8.60474 163.647 8.60322 163.865 8.45642C163.956 8.39521 164.221 7.3644 164.455 6.16572C164.866 4.05031 164.871 3.98047 164.598 3.77958C164.24 3.51506 162.736 3.50158 162.655 3.76216ZM140.945 3.82533C140.939 4.15076 140.047 8.90168 139.968 9.03122C139.914 9.11878 138.602 9.17832 136.726 9.17832H133.573L134.582 10.6555C136.157 12.9633 135.939 12.8144 137.744 12.8144C138.898 12.8144 139.295 12.8636 139.295 13.0068C139.295 13.1602 137.951 21.0356 136.825 27.4844C136.679 28.3164 136.674 28.612 136.804 28.6621C136.899 28.6991 138.189 28.7106 139.67 28.6877L142.363 28.6462L142.709 26.6767C142.899 25.5935 143.497 22.1506 144.037 19.0259C144.577 15.9012 145.053 13.2266 145.094 13.0822C145.163 12.8445 145.503 12.816 148.7 12.7792L152.228 12.7386L146.713 8.26932C143.679 5.81121 141.141 3.77731 141.072 3.74958C141.003 3.72171 140.946 3.75579 140.945 3.82533ZM188.194 8.6102C188.067 9.07848 187.804 10.6677 187.804 10.9676C187.804 11.2857 187.863 11.2993 189.231 11.2993C190.545 11.2993 190.657 11.3225 190.657 11.5949C190.657 12.2294 189.256 20.2856 188.413 24.5021C187.924 26.9455 187.552 28.9726 187.586 29.0066C187.619 29.0407 188.274 28.6712 189.04 28.1855C191.869 26.3913 195.465 23.6914 195.735 23.1585C195.916 22.8016 196.43 19.4962 196.322 19.3868C196.275 19.34 195.81 19.6658 195.287 20.1109C194.191 21.0443 192.842 22.0559 192.692 22.0559C192.636 22.0559 192.626 21.9365 192.671 21.7908C192.883 21.1049 194.582 11.1044 194.795 9.29195L194.897 8.42082H191.571C189.038 8.42082 188.233 8.46597 188.194 8.6102ZM28.8148 8.94744C23.8833 9.85038 20.1576 13.2431 18.9119 17.9654C18.5218 19.4442 18.544 21.8468 18.9603 23.1985C19.7848 25.8757 21.8823 27.7948 24.9311 28.6614C26.1051 28.9951 30.4614 29.1288 32.0574 28.88C34.6508 28.4758 37.5693 27.4254 37.6939 26.8517C37.9459 25.6901 38.379 22.921 38.3182 22.8596C38.2778 22.8189 37.8511 23.0176 37.37 23.3013C36.2392 23.9677 34.5177 24.677 33.1911 25.0231C31.5924 25.4402 28.7134 25.4174 27.325 24.9767C25.4212 24.3725 24.3251 23.2582 24.1297 21.7285C24.073 21.2836 24.0488 20.7662 24.0763 20.5788L24.126 20.2379H31.7434H39.3609L39.6263 19.2331C39.9977 17.8272 40.0995 15.98 39.8786 14.6586C39.3782 11.6654 37.3519 9.61828 34.2292 8.95092C32.9665 8.6811 30.2792 8.67943 28.8148 8.94744ZM44.3195 9.29134C44.2717 9.60419 44.1279 10.7123 43.9998 11.7538C43.7833 13.5126 43.1395 17.3944 41.5202 26.7028C41.3584 27.6337 41.2259 28.4688 41.2259 28.5586C41.2259 28.6697 42.1361 28.722 44.0675 28.722H46.9089L46.9957 28.3053C47.0437 28.0761 47.5236 25.3383 48.0626 22.2211C48.6131 19.0374 49.1684 16.2663 49.3299 15.8983C50.0051 14.3585 52.0713 12.9324 53.9157 12.7331C55.7924 12.5303 57.4876 13.4414 57.8789 14.8631C58.219 16.0995 58.142 16.7363 56.623 25.2374C56.3327 26.8623 56.0948 28.3111 56.0945 28.4568C56.0939 28.7 56.3288 28.722 58.9283 28.722H61.7627L62.0023 27.3963C62.794 23.0167 63.7885 17.1243 63.8973 16.1681C64.1653 13.8134 63.4951 11.5929 62.1577 10.4053C60.7329 9.1403 59.0803 8.6508 56.6224 8.76579C55.7123 8.80836 54.5621 8.95486 54.0665 9.09136C52.7273 9.45996 51.1648 10.265 50.2699 11.0474L49.4768 11.7405L48.768 11.3165C47.2536 10.4105 44.6 8.82987 44.5057 8.77761C44.4511 8.7473 44.3673 8.97849 44.3195 9.29134ZM77.6451 8.9638C71.8718 9.86341 67.6008 13.2246 66.4468 17.7769C66.0476 19.351 66.051 21.6805 66.4543 22.9978C67.9704 27.9493 73.7207 30.1232 81.1744 28.5627C83.3007 28.1176 84.0153 27.8483 84.0997 27.4598C84.1389 27.2791 84.3101 26.3131 84.4799 25.3132C84.6498 24.3133 84.8292 23.2917 84.8785 23.043L84.9683 22.5909L84.3524 23.1522C82.6405 24.7123 79.6116 25.5092 76.964 25.0959C75.528 24.8717 74.4651 24.3771 73.536 23.5003C70.6744 20.8 72.1032 15.6409 76.2891 13.5599C78.3797 12.5206 80.3643 12.2761 82.4147 12.805C83.8361 13.1717 84.6235 13.5728 85.4726 14.3622C85.8377 14.7019 86.1717 14.9442 86.2147 14.9008C86.3094 14.8052 87.0281 10.6023 87.03 10.1313C87.0312 9.85008 86.8705 9.7463 86.0247 9.48284C83.5863 8.72306 80.4405 8.52823 77.6451 8.9638ZM97.6945 9.02455C94.9712 9.6204 92.9278 10.6774 91.2266 12.3698C88.9086 14.6758 87.7205 17.5404 87.7446 20.7648C87.7874 26.4878 92.3415 29.6161 99.7545 29.015C102.777 28.7698 106.61 27.5904 106.784 26.8517C106.955 26.1236 107.456 23.1894 107.456 22.9122C107.456 22.6393 107.435 22.6345 107.193 22.8531C106.735 23.2681 104.268 24.4416 103.176 24.7637C101.55 25.2435 100.005 25.4359 98.5855 25.3356C95.1412 25.0922 93.1945 23.5673 93.1905 21.109L93.189 20.2379H100.83H108.471L108.733 19.2153C108.877 18.6529 109.027 17.545 109.067 16.7534C109.274 12.613 107.184 9.77812 103.313 8.95092C101.883 8.64519 99.2712 8.67943 97.6945 9.02455ZM113.401 9.3674C113.357 9.72176 113.213 10.8638 113.081 11.9053C112.864 13.6185 111.972 19.005 110.76 25.9192C110.511 27.3357 110.309 28.5458 110.309 28.6083C110.309 28.6709 111.592 28.722 113.16 28.722C115.995 28.722 116.011 28.72 116.084 28.3811C116.165 28.0023 116.611 25.4386 117.527 20.0864C117.909 17.8583 118.258 16.271 118.46 15.8444C119.396 13.8652 122.009 12.4474 124.174 12.7438C126.121 13.0104 127.131 14.1841 127.13 16.1804C127.129 17.2158 127.071 17.6 125.94 24.0694C125.521 26.4682 125.178 28.4965 125.178 28.5765C125.178 28.6644 126.304 28.722 128.019 28.722H130.861L130.944 28.3053C130.989 28.0761 131.477 25.3321 132.028 22.2074C133.125 15.9866 133.253 14.4637 132.8 12.9659C132.249 11.14 130.946 9.78887 129.124 9.15393C128.25 8.84972 127.82 8.80003 126.079 8.8029C124.386 8.80563 123.867 8.86411 122.93 9.15802C121.388 9.64192 120.274 10.2364 119.368 11.0578L118.601 11.7531L116.34 10.3991C115.096 9.65449 113.944 8.97274 113.78 8.88411C113.509 8.73746 113.475 8.78048 113.401 9.3674ZM161.429 11.1774C161.266 11.4424 160.35 16.1266 160.442 16.2198C160.565 16.3437 162.547 16.3124 162.625 16.1853C162.734 16.0051 163.474 11.83 163.474 11.3919C163.474 11.0065 163.45 10.9963 162.507 10.9963C161.919 10.9963 161.496 11.0674 161.429 11.1774ZM174.703 12.1371L173.543 13.2689H175.955C177.282 13.2689 178.345 13.2178 178.317 13.1552C178.29 13.0927 177.997 12.5827 177.667 12.0219C177.084 11.0333 177.048 11.0022 176.465 11.0039C175.922 11.0054 175.752 11.1148 174.703 12.1371ZM29.2113 12.265C28.0295 12.5932 27.3585 13.0002 26.4154 13.9611C25.5345 14.8583 24.5963 16.4522 24.7763 16.7458C24.8221 16.8205 27.0089 16.8891 29.6407 16.8985C33.7917 16.9134 34.4476 16.8846 34.6155 16.6805C34.8956 16.3401 34.7307 14.6918 34.3388 13.9171C33.5609 12.3786 31.3579 11.6688 29.2113 12.265ZM98.2952 12.2736C97.2086 12.5786 96.3454 13.0951 95.505 13.9429C94.7212 14.7334 93.701 16.486 93.8669 16.7569C93.9196 16.8429 95.9094 16.8858 98.8657 16.8644L103.777 16.8291L103.822 15.9638C103.886 14.7199 103.637 13.9702 102.906 13.2039C101.905 12.1547 100.051 11.7808 98.2952 12.2736ZM170.533 15.773C170.533 15.817 170.945 16.0334 171.449 16.2539L172.365 16.6546L172.268 17.2721C172.214 17.6118 172.135 18.0337 172.092 18.2098C172.018 18.5062 172.089 18.5368 173.037 18.6217C174.108 18.7174 176.514 18.6482 176.643 18.5179C176.712 18.4484 177.278 16.0639 177.287 15.8065C177.289 15.7439 175.771 15.6929 173.912 15.6929C172.054 15.6929 170.533 15.7289 170.533 15.773ZM165.85 22.4369C165.735 22.5525 166.113 24.6264 166.279 24.7941C166.365 24.8816 168.514 24.9226 171.734 24.8985L177.047 24.8587L177.316 23.7982C177.464 23.2149 177.586 22.6525 177.588 22.5483C177.591 22.4 176.327 22.3589 171.759 22.3589C168.552 22.3589 165.893 22.3941 165.85 22.4369Z" fill="#F6FAFB"/>
</svg>
