<svg width="88" height="108" viewBox="0 0 88 108" fill="none" xmlns="http://www.w3.org/2000/svg">
<g clip-path="url(#clip0_833_9752)">
<path d="M44.2448 0.454956H44.4094C45.1784 0.611744 45.7868 0.747377 46.2345 0.861857C51.5856 2.22417 56.9113 3.68354 62.2117 5.23996C63.145 5.51422 64.0648 5.80291 64.9708 6.10603C64.9893 6.11229 65.006 6.12274 65.0198 6.13659C65.0337 6.15044 65.0442 6.16731 65.0506 6.18592L67.1836 12.4059C67.1874 12.4172 67.1938 12.4274 67.2022 12.4357C67.2106 12.4441 67.2208 12.4502 67.2319 12.4537L76.4318 15.2691C76.4429 15.2726 76.4529 15.2787 76.4611 15.287C76.4693 15.2954 76.4753 15.3056 76.4786 15.3169L78.0031 20.6081C78.0062 20.6198 78.0122 20.6305 78.0205 20.6393C78.0288 20.648 78.0392 20.6545 78.0506 20.6582L87.8738 23.7917V26.1801C87.2864 43.1415 81.7951 59.7513 73.2776 74.2683C65.7938 87.0241 55.8777 98.3374 44.0605 107.06C44.0479 107.069 44.0327 107.074 44.0171 107.074C44.0015 107.074 43.9862 107.069 43.9734 107.06C38.8569 103.282 34.1234 99.0736 29.773 94.4357C16.6537 80.448 6.89641 62.9042 2.46724 44.0031C0.971343 37.6196 0.149879 30.8493 0.125009 24.1762C0.124755 24.1586 0.129999 24.1415 0.139988 24.1271C0.149977 24.1128 0.164196 24.102 0.180602 24.0963L10.2891 20.6574C10.3003 20.6535 10.3103 20.6469 10.3183 20.638C10.3262 20.6291 10.3318 20.6183 10.3344 20.6066L11.548 15.3438C11.5572 15.305 11.5806 15.2798 11.6182 15.2684L20.7933 12.4567C20.8059 12.4527 20.8175 12.4459 20.827 12.4367C20.8366 12.4275 20.8438 12.4162 20.8481 12.4037L22.9826 6.17994C22.9909 6.15506 23.0075 6.13938 23.0323 6.13291C29.686 4.42542 36.2628 2.41853 42.923 0.731201C43.2146 0.657038 43.6552 0.564956 44.2448 0.454956ZM47.151 9.72409C47.1052 9.60065 47.0177 9.55585 46.8884 9.5897C46.8833 9.59117 46.8788 9.59423 46.8754 9.59845C46.8721 9.60268 46.8701 9.60786 46.8698 9.61328C46.8695 9.61869 46.8708 9.62408 46.8736 9.62868C46.8764 9.63329 46.8806 9.63689 46.8855 9.63898L47.0742 9.71812C47.0853 9.72272 47.0947 9.73057 47.1013 9.74068C47.108 9.75079 47.1115 9.76269 47.1115 9.77486V94.3028C47.1115 94.3145 47.1088 94.3258 47.1035 94.3356C47.0869 94.3695 47.0849 94.3981 47.0976 94.4215C47.0997 94.4253 47.1027 94.4285 47.1063 94.431C47.1098 94.4334 47.1139 94.435 47.1181 94.4356C47.1224 94.4362 47.1267 94.4357 47.1307 94.4343C47.1348 94.4329 47.1385 94.4306 47.1415 94.4275C50.993 90.5302 54.6756 86.4684 58.1892 82.2421C61.4941 78.2671 64.6044 74.1123 67.346 69.7103C69.4051 66.4035 71.2412 62.8587 72.4174 59.1189C73.0706 57.0433 73.4247 54.9581 73.361 52.7503C73.3488 52.3069 73.2832 51.89 73.1643 51.4998C73.074 51.2031 73.0111 50.9747 72.9755 50.8144C72.1475 47.0642 69.1118 44.793 65.7009 43.6903C65.6946 43.6881 65.6889 43.6843 65.6845 43.6792C65.6802 43.6741 65.6772 43.668 65.676 43.6614C65.6748 43.6548 65.6754 43.648 65.6777 43.6418C65.68 43.6355 65.684 43.6301 65.6892 43.626C65.8128 43.526 65.9042 43.3976 66.0439 43.3177C70.7657 40.6075 77.2094 35.5134 74.6799 28.9843C73.8541 26.852 72.4445 24.9989 70.8337 23.4087C68.7 21.3017 66.2912 19.5188 63.769 17.9286C58.5557 14.6412 52.91 11.9848 47.1891 9.76291C47.171 9.75594 47.1583 9.743 47.151 9.72409ZM35.009 67.2211C34.6267 65.8857 34.241 64.546 33.8518 63.2021C29.4746 48.0796 27.6451 32.3456 27.6349 16.6018C27.6349 16.5725 27.6232 16.5662 27.5998 16.5832C25.6784 17.9689 23.7572 19.3546 21.8364 20.7403C21.5759 20.9279 21.3558 21.1004 21.1758 21.2577C21.1558 21.2751 21.1458 21.2975 21.1458 21.3249C21.1451 33.2646 22.1941 45.2268 24.8406 56.8746C24.864 56.9769 24.8538 57.0911 24.8567 57.1986C24.8571 57.2236 24.8482 57.2479 24.8318 57.2666L22.4223 60.0342C22.4184 60.0387 22.4132 60.0417 22.4075 60.0429C22.4018 60.0442 22.3958 60.0436 22.3905 60.0412C22.3852 60.0388 22.3807 60.0347 22.3777 60.0296C22.3748 60.0245 22.3735 60.0185 22.374 60.0126C22.3916 59.861 22.3981 59.7991 22.3221 59.6662C20.3566 56.231 18.8585 52.5488 17.6413 48.7015C15.5029 41.9457 14.2013 35.0336 13.7366 27.9652C13.7361 27.9571 13.7336 27.9492 13.7293 27.9424C13.7249 27.9355 13.7189 27.9299 13.7118 27.9262C13.7048 27.9224 13.6969 27.9206 13.6889 27.9209C13.6809 27.9212 13.6731 27.9236 13.6663 27.9279C11.959 28.9888 10.3461 30.3185 8.8312 31.6408C8.81457 31.6554 8.80144 31.6737 8.79282 31.6943C8.7842 31.7149 8.78031 31.7372 8.78146 31.7595C9.34324 44.3779 12.91 56.6334 19.1613 67.5436C19.8089 68.6745 20.5655 69.9552 21.4311 71.3857C21.4443 71.4071 21.4587 71.4081 21.4743 71.3886C23.1601 69.2767 24.894 67.2069 26.6759 65.1791C26.691 65.1617 26.7044 65.1629 26.7161 65.1828C26.8878 65.4715 26.9963 65.6945 27.0416 65.8518C29.3561 73.8972 32.4671 81.7307 36.8568 88.8115C38.0749 90.777 39.4167 92.6508 40.8822 94.4327C40.8857 94.4372 40.8905 94.4405 40.896 94.4421C40.9015 94.4437 40.9073 94.4435 40.9126 94.4415C40.918 94.4395 40.9226 94.4359 40.9258 94.4311C40.929 94.4263 40.9306 94.4206 40.9304 94.4148V9.65689C40.9304 9.6521 40.9291 9.6474 40.9268 9.64326C40.9244 9.63912 40.921 9.63567 40.917 9.63326C40.9129 9.63085 40.9083 9.62956 40.9036 9.62951C40.8989 9.62947 40.8943 9.63067 40.8902 9.633C38.7213 10.8492 36.4193 11.8012 34.2388 12.9897C34.1622 13.0316 34.1247 13.0965 34.1261 13.1846L35.05 67.2151C35.0503 67.2203 35.0487 67.2253 35.0455 67.2293C35.0423 67.2332 35.0378 67.2358 35.0327 67.2365C35.0277 67.2373 35.0225 67.2361 35.0181 67.2333C35.0138 67.2304 35.0105 67.2261 35.009 67.2211Z" fill="#E5E5E5"/>
<path d="M62.6399 24.8033C64.8151 26.2051 67.6742 28.5599 67.9168 31.4142C68.1419 34.0695 65.3151 36.3235 63.2987 37.4784C60.4779 39.0938 57.3342 40.1485 54.1868 40.9116C53.8846 40.9853 53.6317 41.1326 53.3603 41.2718C53.3564 41.2737 53.3521 41.2745 53.3478 41.2743C53.3435 41.274 53.3394 41.2727 53.3357 41.2705C53.332 41.2682 53.329 41.265 53.3269 41.2613C53.3248 41.2575 53.3236 41.2533 53.3235 41.249V20.4715C53.3235 20.4671 53.3246 20.4627 53.3267 20.4588C53.3289 20.455 53.332 20.4517 53.3359 20.4495C53.3397 20.4473 53.344 20.4461 53.3484 20.446C53.3529 20.446 53.3572 20.4472 53.361 20.4494C53.6339 20.6048 53.878 20.7146 54.1986 20.817C57.1871 21.7735 60.0009 23.1023 62.6399 24.8033ZM53.4096 76.3729C53.389 76.3945 53.3713 76.4093 53.3566 76.4171C53.3504 76.4205 53.3432 76.4218 53.3362 76.4211C53.3291 76.4203 53.3225 76.4174 53.3171 76.4128C53.3117 76.4082 53.3078 76.4021 53.3059 76.3952C53.3041 76.3884 53.3043 76.3811 53.3066 76.3744C53.3105 76.3631 53.314 76.352 53.3169 76.3412C53.3213 76.3245 53.3235 76.3074 53.3235 76.2897V49.1061C53.3235 49.095 53.3266 49.084 53.3324 49.0744C53.3382 49.0648 53.3466 49.0569 53.3566 49.0516C53.625 48.9109 53.8376 48.7783 54.1493 48.7459C55.9672 48.5559 57.7874 48.5296 59.6102 48.6671C61.6824 48.8233 63.8481 49.386 65.3269 50.8931C68.1301 53.7517 65.6902 59.1921 64.1209 62.0574C61.4956 66.8496 58.0247 71.2168 54.4266 75.3056C54.1104 75.6651 53.7508 76.0179 53.4096 76.3729Z" fill="#E5E5E5"/>
</g>
<defs>
<clipPath id="clip0_833_9752">
<rect width="87.7488" height="106.619" fill="white" transform="translate(0.125 0.454956)"/>
</clipPath>
</defs>
</svg>
