<svg width="88" height="108" viewBox="0 0 88 108" fill="none" xmlns="http://www.w3.org/2000/svg">
<g clip-path="url(#clip0_315_3659)">
<path d="M44.2458 0.454926H44.4104C45.1794 0.611713 45.7878 0.747347 46.2354 0.861827C51.5865 2.22414 56.9123 3.68351 62.2126 5.23993C63.146 5.51419 64.0658 5.80288 64.9718 6.106C64.9902 6.11226 65.007 6.12271 65.0208 6.13656C65.0346 6.1504 65.0452 6.16728 65.0516 6.18589L67.1846 12.4059C67.1884 12.4172 67.1948 12.4274 67.2032 12.4357C67.2116 12.444 67.2217 12.4502 67.2329 12.4537L76.4328 15.2691C76.4438 15.2725 76.4539 15.2787 76.4621 15.287C76.4702 15.2954 76.4763 15.3056 76.4796 15.3169L78.004 20.6081C78.0072 20.6198 78.0132 20.6305 78.0215 20.6392C78.0298 20.648 78.0401 20.6545 78.0516 20.6581L87.8748 23.7916V26.18C87.2874 43.1415 81.7961 59.7512 73.2786 74.2683C65.7947 87.0241 55.8787 98.3374 44.0615 107.06C44.0489 107.069 44.0337 107.074 44.0181 107.074C44.0024 107.074 43.9872 107.069 43.9744 107.06C38.8579 103.282 34.1244 99.0736 29.774 94.4356C16.6547 80.448 6.89739 62.9042 2.46822 44.0031C0.972319 37.6196 0.150856 30.8493 0.125985 24.1761C0.125731 24.1586 0.130976 24.1414 0.140965 24.1271C0.150954 24.1127 0.165173 24.1019 0.181579 24.0963L10.29 20.6574C10.3012 20.6535 10.3113 20.6468 10.3192 20.6379C10.3272 20.6291 10.3327 20.6183 10.3354 20.6066L11.5489 15.3438C11.5582 15.3049 11.5816 15.2798 11.6192 15.2684L20.7942 12.4566C20.8069 12.4527 20.8185 12.4458 20.828 12.4366C20.8375 12.4274 20.8448 12.4161 20.8491 12.4036L22.9836 6.17991C22.9919 6.15503 23.0084 6.13935 23.0333 6.13288C29.6869 4.42538 36.2638 2.4185 42.924 0.73117C43.2156 0.657007 43.6562 0.564926 44.2458 0.454926ZM47.152 9.72406C47.1062 9.60062 47.0186 9.55582 46.8894 9.58967C46.8843 9.59114 46.8797 9.5942 46.8764 9.59842C46.8731 9.60265 46.8711 9.60783 46.8708 9.61325C46.8704 9.61866 46.8718 9.62405 46.8746 9.62865C46.8774 9.63326 46.8816 9.63686 46.8865 9.63895L47.0752 9.71809C47.0862 9.72269 47.0957 9.73054 47.1023 9.74065C47.109 9.75076 47.1125 9.76266 47.1125 9.77483V94.3027C47.1125 94.3145 47.1097 94.3258 47.1045 94.3356C47.0879 94.3695 47.0859 94.3981 47.0986 94.4215C47.1007 94.4253 47.1037 94.4285 47.1072 94.431C47.1108 94.4334 47.1148 94.435 47.1191 94.4356C47.1233 94.4361 47.1277 94.4357 47.1317 94.4343C47.1358 94.4329 47.1395 94.4305 47.1425 94.4274C50.994 90.5301 54.6766 86.4683 58.1902 82.2421C61.495 78.2671 64.6053 74.1122 67.347 69.7102C69.4061 66.4035 71.2421 62.8586 72.4184 59.1189C73.0716 57.0433 73.4256 54.958 73.362 52.7503C73.3498 52.3068 73.2842 51.89 73.1652 51.4997C73.075 51.2031 73.0121 50.9746 72.9765 50.8144C72.1485 47.0641 69.1128 44.793 65.7019 43.6902C65.6955 43.6881 65.6899 43.6843 65.6855 43.6792C65.6811 43.6741 65.6782 43.6679 65.677 43.6613C65.6758 43.6547 65.6764 43.6479 65.6787 43.6417C65.681 43.6355 65.685 43.6301 65.6901 43.626C65.8138 43.526 65.9052 43.3975 66.0449 43.3177C70.7667 40.6075 77.2104 35.5134 74.6809 28.9843C73.855 26.852 72.4454 24.9989 70.8347 23.4086C68.701 21.3017 66.2922 19.5188 63.77 17.9285C58.5567 14.6412 52.911 11.9848 47.19 9.76288C47.172 9.75591 47.1593 9.74297 47.152 9.72406ZM35.01 67.2211C34.6277 65.8856 34.2419 64.546 33.8528 63.2021C29.4755 48.0795 27.6461 32.3455 27.6359 16.6018C27.6359 16.5724 27.6241 16.5662 27.6007 16.5831C25.6794 17.9688 23.7582 19.3545 21.8373 20.7403C21.5769 20.9279 21.3567 21.1004 21.1768 21.2577C21.1568 21.2751 21.1468 21.2975 21.1468 21.3248C21.1461 33.2646 22.195 45.2267 24.8416 56.8746C24.865 56.9768 24.8547 57.0911 24.8577 57.1986C24.8581 57.2236 24.8492 57.2479 24.8328 57.2665L22.4233 60.0342C22.4193 60.0386 22.4142 60.0417 22.4085 60.0429C22.4028 60.0441 22.3968 60.0435 22.3915 60.0411C22.3861 60.0387 22.3817 60.0347 22.3787 60.0296C22.3757 60.0244 22.3744 60.0185 22.375 60.0126C22.3925 59.861 22.3991 59.799 22.323 59.6661C20.3575 56.231 18.8594 52.5487 17.6422 48.7015C15.5038 41.9457 14.2023 35.0336 13.7375 27.9652C13.7371 27.957 13.7346 27.9492 13.7302 27.9423C13.7259 27.9355 13.7199 27.9299 13.7128 27.9261C13.7057 27.9224 13.6978 27.9206 13.6899 27.9209C13.6819 27.9212 13.6741 27.9236 13.6673 27.9278C11.96 28.9888 10.3471 30.3185 8.83218 31.6407C8.81554 31.6554 8.80242 31.6737 8.79379 31.6943C8.78517 31.7148 8.78129 31.7371 8.78243 31.7594C9.34422 44.3778 12.911 56.6334 19.1623 67.5436C19.8099 68.6745 20.5665 69.9551 21.4321 71.3856C21.4453 71.407 21.4596 71.408 21.4752 71.3886C23.1611 69.2767 24.895 67.2069 26.6769 65.1791C26.692 65.1617 26.7054 65.1629 26.7171 65.1828C26.8888 65.4715 26.9973 65.6945 27.0426 65.8518C29.357 73.8972 32.4681 81.7306 36.8577 88.8114C38.0759 90.777 39.4177 92.6508 40.8831 94.4327C40.8867 94.4372 40.8915 94.4405 40.897 94.4421C40.9024 94.4437 40.9083 94.4435 40.9136 94.4415C40.9189 94.4395 40.9235 94.4358 40.9267 94.431C40.9299 94.4262 40.9316 94.4205 40.9314 94.4147V9.65686C40.9314 9.65207 40.9301 9.64737 40.9277 9.64323C40.9254 9.63909 40.922 9.63564 40.918 9.63323C40.9139 9.63082 40.9093 9.62953 40.9046 9.62948C40.8999 9.62944 40.8953 9.63064 40.8912 9.63297C38.7223 10.8492 36.4203 11.8011 34.2397 12.9897C34.1632 13.0315 34.1256 13.0965 34.1271 13.1846L35.051 67.2151C35.0512 67.2203 35.0496 67.2253 35.0465 67.2292C35.0433 67.2332 35.0388 67.2358 35.0337 67.2365C35.0287 67.2372 35.0235 67.2361 35.0191 67.2332C35.0147 67.2304 35.0115 67.2261 35.01 67.2211Z" fill="#E5E5E5"/>
<path d="M62.6408 24.8033C64.8161 26.205 67.6751 28.5598 67.9178 31.4141C68.1428 34.0695 65.3161 36.3234 63.2997 37.4784C60.4789 39.0937 57.3352 40.1485 54.1878 40.9116C53.8856 40.9852 53.6326 41.1326 53.3613 41.2718C53.3574 41.2736 53.3531 41.2745 53.3488 41.2742C53.3445 41.274 53.3403 41.2727 53.3367 41.2704C53.333 41.2681 53.33 41.265 53.3279 41.2612C53.3257 41.2575 53.3246 41.2533 53.3245 41.2489V20.4714C53.3244 20.467 53.3255 20.4626 53.3277 20.4588C53.3299 20.4549 53.333 20.4517 53.3368 20.4494C53.3406 20.4472 53.345 20.446 53.3494 20.446C53.3538 20.446 53.3582 20.4471 53.362 20.4493C53.6348 20.6048 53.879 20.7145 54.1996 20.8169C57.1881 21.7735 60.0019 23.1023 62.6408 24.8033ZM53.4106 76.3729C53.39 76.3945 53.3723 76.4092 53.3576 76.417C53.3513 76.4204 53.3442 76.4218 53.3372 76.421C53.3301 76.4202 53.3235 76.4174 53.3181 76.4128C53.3127 76.4082 53.3088 76.402 53.3069 76.3952C53.305 76.3883 53.3053 76.381 53.3076 76.3743C53.3115 76.363 53.315 76.352 53.3179 76.3412C53.3223 76.3245 53.3245 76.3073 53.3245 76.2896V49.1061C53.3245 49.0949 53.3276 49.084 53.3334 49.0744C53.3392 49.0648 53.3476 49.0569 53.3576 49.0516C53.626 48.9109 53.8385 48.7783 54.1503 48.7459C55.9681 48.5558 57.7884 48.5296 59.6111 48.6671C61.6834 48.8232 63.849 49.386 65.3279 50.893C68.1311 53.7517 65.6911 59.1921 64.1219 62.0574C61.4966 66.8496 58.0257 71.2168 54.4276 75.3055C54.1113 75.665 53.7518 76.0178 53.4106 76.3729Z" fill="#E5E5E5"/>
</g>
<defs>
<clipPath id="clip0_315_3659">
<rect width="87.7488" height="106.619" fill="white" transform="translate(0.125977 0.454926)"/>
</clipPath>
</defs>
</svg>
