<svg width="179" height="134" viewBox="0 0 179 134" fill="none" xmlns="http://www.w3.org/2000/svg">
<g opacity="0.9" clip-path="url(#clip0_833_9756)">
<path d="M44.088 45.9344C47.9511 45.9037 51.8634 46.1273 55.798 46.1624C56.0275 46.1653 56.1765 46.2208 56.2451 46.329C56.3077 46.4284 56.3271 46.5585 56.3032 46.7192C56.2945 46.7753 56.2669 46.827 56.2247 46.8659C56.1826 46.9048 56.1284 46.9288 56.0707 46.934C54.8427 47.0305 53.853 47.5391 53.1019 48.4598C53.0063 48.5792 52.9544 48.7258 52.9543 48.8764V61.9288C52.9542 62.1106 52.908 62.2896 52.8198 62.4496C52.7316 62.6095 52.6042 62.7455 52.4491 62.8451C46.565 66.6508 34.8148 66.208 28.8056 63.1915C21.4416 59.4954 17.6098 51.0379 18.3654 43.0977C19.045 35.9379 23.2435 30.4749 30.1469 27.9363C37.4483 25.2487 45.1566 26.6341 52.6056 27.682C52.9663 27.7346 53.1302 27.9378 53.0974 28.2915C52.844 31.0098 52.5236 33.6492 52.1361 36.2097C52.0974 36.4845 51.9558 36.6263 51.7113 36.635C51.635 36.6375 51.5603 36.6133 51.5005 36.5667C51.4407 36.5201 51.3998 36.4542 51.385 36.3807C49.5384 27.8706 39.5096 26.792 32.7179 29.5586C20.5026 34.5393 20.2299 49.9374 29.1141 57.9916C33.3289 61.8119 38.4812 63.3128 44.5709 62.4944C45.7453 62.3365 46.8184 61.8104 47.7901 60.916C47.8325 60.8773 47.8663 60.8305 47.8894 60.7785C47.9125 60.7264 47.9244 60.6702 47.9243 60.6135V49.0912C47.924 48.7911 47.83 48.4983 47.655 48.2522C47.4799 48.006 47.2322 47.8184 46.9451 47.7145L43.9628 46.6359C43.8838 46.6049 43.8181 46.5481 43.7766 46.4752C43.7352 46.4023 43.7206 46.3176 43.7353 46.2354C43.7499 46.1531 43.793 46.0783 43.8572 46.0236C43.9215 45.9688 44.0029 45.9373 44.088 45.9344ZM100.492 55.3302C100.511 55.3745 100.543 55.4122 100.584 55.4387C100.625 55.4652 100.673 55.4793 100.722 55.4793C100.771 55.4793 100.819 55.4652 100.86 55.4387C100.901 55.4122 100.933 55.3745 100.952 55.3302C104.319 47.8022 107.552 39.6954 112.135 32.7636C112.167 32.7154 112.214 32.6782 112.269 32.6572C112.324 32.6363 112.385 32.6325 112.442 32.6464C112.499 32.6603 112.551 32.6913 112.589 32.735C112.628 32.7788 112.652 32.8331 112.658 32.8907C113.355 40.7257 113.928 48.929 115.403 56.6587C115.85 58.9868 116.579 60.3942 119.195 60.2408C119.294 60.2355 119.394 60.2538 119.485 60.2942C119.576 60.3347 119.656 60.396 119.718 60.4732C120.037 60.8648 120.025 61.0665 119.682 61.0782C116.972 61.1805 114.257 61.1659 111.535 61.0344C111.485 61.0317 111.436 61.0175 111.391 60.9928C111.347 60.9682 111.309 60.9338 111.281 60.8923C111.252 60.8507 111.234 60.8032 111.227 60.7533C111.22 60.7035 111.224 60.6526 111.24 60.6047C111.75 59.1374 111.932 57.5692 111.786 55.9002C111.36 51.0803 110.82 46.3495 110.167 41.7078C110.137 41.4915 110.075 41.4813 109.98 41.6771L100.572 60.8678C100.549 60.9148 100.513 60.955 100.469 60.9845C100.425 61.0141 100.374 61.0319 100.321 61.0364C100.268 61.0408 100.215 61.0316 100.166 61.0097C100.118 60.9879 100.076 60.9541 100.045 60.9116C95.8417 55.1329 92.8505 48.2275 89.9755 41.7604C89.9604 41.7253 89.9334 41.6963 89.8991 41.6783C89.8648 41.6603 89.8252 41.6544 89.787 41.6616C89.7488 41.6688 89.7143 41.6886 89.6892 41.7178C89.6641 41.7469 89.6499 41.7837 89.6491 41.8218C89.6104 42.6607 89.5284 43.5054 89.4032 44.356C88.7355 48.9509 88.3108 53.5677 88.129 58.2064C88.0619 59.9163 89.5195 60.0216 90.682 60.574C90.7516 60.6058 90.8078 60.6603 90.8409 60.7282C90.8741 60.7962 90.8821 60.8733 90.8636 60.9464C90.8451 61.0194 90.8012 61.0839 90.7395 61.1288C90.6779 61.1736 90.6022 61.1961 90.5255 61.1922C84.713 60.9233 78.9005 60.8955 73.088 61.1089C73.0353 61.1107 72.9836 61.0949 72.9413 61.0642C72.899 61.0334 72.8686 60.9894 72.8551 60.9395C72.8416 60.8896 72.8458 60.8367 72.867 60.7894C72.8882 60.7421 72.9251 60.7033 72.9717 60.6792L74.3846 59.9514C74.787 59.7439 74.9062 59.4326 74.7423 59.0175L71.4247 50.6038C71.377 50.484 71.2891 50.4241 71.1609 50.4241H63.7969C63.7206 50.4242 63.6461 50.4468 63.5831 50.4891C63.5201 50.5313 63.4715 50.5911 63.4437 50.6608C61.9682 54.2648 61.0501 56.9715 60.6894 58.7808C60.4629 59.9207 60.9652 60.4556 62.1962 60.3855C62.2585 60.3814 62.3204 60.3977 62.3721 60.4318C62.4239 60.4659 62.4627 60.5159 62.4824 60.574L62.5763 60.8809C62.6538 61.1206 62.5658 61.2244 62.3125 61.1922C59.6506 60.8385 56.9903 60.8444 54.3314 61.2097C54.1556 61.2331 54.0691 61.1586 54.0721 60.9861V60.8327C54.0721 60.6573 54.16 60.5565 54.3359 60.5302C56.652 60.2013 57.649 58.9342 58.5075 56.7596C61.5986 48.9436 64.5391 41.0721 67.3291 33.145C67.4036 32.9375 67.4826 32.8045 67.5661 32.746C67.605 32.7193 67.6495 32.7015 67.6963 32.6939C67.7432 32.6863 67.791 32.6892 67.8362 32.7023C67.8815 32.7154 67.9229 32.7384 67.9575 32.7695C67.992 32.8006 68.0187 32.8391 68.0356 32.882C71.2458 41.2211 74.2728 49.5735 78.4265 57.5137C79.6829 59.9251 81.5206 60.9686 84.2122 60.1531C84.6862 60.0084 85.0886 59.4911 85.1422 59.0833C86.3375 50.3787 87.354 41.6581 88.1915 32.9214C88.1979 32.8564 88.2238 32.7947 88.2661 32.7441C88.3083 32.6936 88.365 32.6566 88.4288 32.6378C88.4926 32.619 88.5607 32.6192 88.6243 32.6385C88.688 32.6578 88.7443 32.6952 88.7862 32.746C89.3704 33.4592 89.8995 34.2455 90.3735 35.1049C94.0547 41.737 97.4275 48.4788 100.492 55.3302ZM67.3023 38.9369L64.2798 48.2625C64.2172 48.4613 64.2917 48.5607 64.5033 48.5607H70.298C70.326 48.5603 70.3537 48.5537 70.3787 48.5412C70.4038 48.5288 70.4255 48.5108 70.4424 48.4888C70.4592 48.4667 70.4707 48.4412 70.4759 48.4141C70.4811 48.3871 70.4799 48.3592 70.4723 48.3327L67.6018 38.9369C67.5065 38.6183 67.4066 38.6183 67.3023 38.9369ZM126.728 47.3637V57.2331C126.729 57.4156 126.802 57.5907 126.934 57.7197C129.586 60.3153 135.018 60.5389 136.194 56.251C136.242 56.0873 136.349 56.0288 136.516 56.0756L136.632 56.1063C136.793 56.1501 136.86 56.2539 136.833 56.4176L136.185 60.1706C136.072 60.8283 135.677 61.1557 135 61.1527L120.822 61.1089C120.679 61.1089 120.599 61.0388 120.581 60.8985C120.575 60.8634 120.573 60.8254 120.576 60.7845C120.585 60.6471 120.66 60.5682 120.8 60.5477C122.204 60.3402 122.907 59.5495 122.91 58.1757C122.934 50.6111 122.937 43.1137 122.919 35.6836C122.919 35.4569 122.85 35.2356 122.721 35.0481C122.592 34.8605 122.408 34.7154 122.195 34.6313L120.321 33.8991C120.24 33.865 120.174 33.8046 120.133 33.7281C120.092 33.6516 120.079 33.5636 120.096 33.4788C120.113 33.394 120.16 33.3177 120.228 33.2625C120.296 33.2073 120.381 33.1767 120.469 33.1757C124.964 33.2313 129.456 33.24 133.945 33.202C134.097 33.202 134.249 33.1933 134.401 33.1757C134.869 33.1231 135.312 32.996 135.729 32.7943C135.777 32.7717 135.831 32.7626 135.884 32.768C135.937 32.7733 135.988 32.793 136.03 32.8247C136.073 32.8564 136.105 32.899 136.125 32.9477C136.144 32.9965 136.15 33.0496 136.14 33.1012L135.259 37.8188C135.245 37.9079 135.197 37.9885 135.125 38.0446C135.053 38.1007 134.962 38.1281 134.87 38.1215C134.779 38.1149 134.693 38.0747 134.63 38.0088C134.567 37.943 134.532 37.8564 134.531 37.7662C134.423 34.2587 129.277 34.9646 126.885 35.1268C126.706 35.1385 126.617 35.232 126.617 35.4074V44.9391C126.617 44.9777 126.625 45.0159 126.64 45.0513C126.655 45.0868 126.677 45.1188 126.705 45.1455C126.733 45.1721 126.766 45.1928 126.803 45.2063C126.839 45.2198 126.878 45.2259 126.916 45.2241C129.693 45.1101 132.443 45.6275 134.987 44.3165C135.053 44.2821 135.127 44.2662 135.201 44.2704C135.276 44.2747 135.348 44.299 135.409 44.3406C135.471 44.3823 135.519 44.4397 135.55 44.5066C135.58 44.5735 135.591 44.6473 135.581 44.7199L134.996 49.5516C134.986 49.6656 134.934 49.772 134.848 49.8501C134.763 49.9282 134.651 49.9724 134.535 49.9741C134.418 49.9757 134.305 49.9347 134.217 49.859C134.13 49.7833 134.074 49.6784 134.061 49.5647C133.882 48.359 133.574 47.5566 132.192 47.3725C130.443 47.1328 128.685 47.0627 126.921 47.162C126.793 47.1679 126.728 47.2351 126.728 47.3637ZM141.644 47.9512C141.917 44.0754 143.67 42.0936 147.3 40.7652C158.241 36.7666 164.094 54.883 151.235 56.9481C148.056 57.4611 144.273 55.0014 142.726 52.4584C141.889 51.0759 141.528 49.5735 141.644 47.9512ZM149.849 41.7385C149.849 41.6571 149.816 41.579 149.757 41.5215C149.699 41.4639 149.619 41.4316 149.536 41.4316H149.509C149.426 41.4316 149.346 41.4639 149.288 41.5215C149.229 41.579 149.196 41.6571 149.196 41.7385V55.4793C149.196 55.5607 149.229 55.6388 149.288 55.6963C149.346 55.7539 149.426 55.7862 149.509 55.7862H149.536C149.619 55.7862 149.699 55.7539 149.757 55.6963C149.816 55.6388 149.849 55.5607 149.849 55.4793V41.7385ZM151.002 41.6863C151.002 41.6259 150.977 41.5679 150.933 41.5251C150.89 41.4824 150.831 41.4583 150.769 41.4583L150.671 41.4579C150.609 41.4579 150.55 41.4819 150.506 41.5245C150.463 41.5672 150.438 41.6251 150.438 41.6855L150.413 55.6542C150.413 55.7147 150.438 55.7727 150.481 55.8154C150.525 55.8582 150.584 55.8822 150.646 55.8822L150.744 55.8827C150.806 55.8827 150.865 55.8587 150.908 55.816C150.952 55.7734 150.976 55.7155 150.976 55.6551L151.002 41.6863ZM148.244 41.5631C146.214 42.2515 144.524 43.9965 144.135 46.0133C143.327 50.1961 144.67 53.3733 148.163 55.5451C148.199 55.567 148.24 55.579 148.283 55.5801C148.325 55.5811 148.367 55.571 148.404 55.5509C148.44 55.5308 148.471 55.5013 148.493 55.4656C148.514 55.4299 148.525 55.3892 148.525 55.3478V41.7604C148.525 41.7269 148.517 41.6938 148.501 41.6641C148.485 41.6343 148.463 41.6087 148.435 41.5894C148.407 41.5701 148.376 41.5576 148.342 41.5531C148.309 41.5485 148.275 41.5519 148.244 41.5631ZM151.767 42.0717L151.749 55.6108C151.749 55.757 151.821 55.8081 151.964 55.7643C158.165 53.7869 157.723 44.1105 152.183 41.8043C151.906 41.6903 151.767 41.7794 151.767 42.0717Z" fill="#E5E5E5"/>
<path d="M162.704 42.5133V47.5201C162.704 47.5725 162.723 47.6232 162.759 47.6626C162.794 47.702 162.843 47.7274 162.896 47.7339C164.512 47.9002 166.091 47.7859 167.632 47.3909C167.775 47.3523 167.839 47.4072 167.824 47.5557C167.723 48.503 167.619 49.4562 167.512 50.4154C167.494 50.5817 167.391 50.6604 167.204 50.6515C167.055 50.6426 166.975 50.5639 166.963 50.4154C166.798 48.4199 164.378 49.0301 163.057 48.892C163.013 48.8877 162.969 48.8925 162.927 48.9062C162.885 48.9198 162.847 48.942 162.814 48.9714C162.781 49.0007 162.755 49.0365 162.737 49.0765C162.719 49.1166 162.709 49.1599 162.709 49.2038C162.695 51.0925 161.865 56.0591 164.36 56.5847C164.542 56.6234 164.612 56.7332 164.57 56.9144C164.546 57.0242 164.485 57.1089 164.387 57.1683C164.383 57.1727 160.231 57.0926 159.57 57.2039C159.416 57.2306 159.282 57.1891 159.168 57.0792L159.043 56.9545C159.025 56.9363 159.012 56.9138 159.005 56.8892C158.998 56.8646 158.998 56.8387 159.004 56.8138C159.009 56.7889 159.021 56.7659 159.039 56.7468C159.056 56.7278 159.077 56.7134 159.102 56.705L160.218 56.2908C160.292 56.2633 160.357 56.2135 160.403 56.1482C160.448 56.0828 160.472 56.0051 160.472 55.9255V42.7227C160.476 40.9989 159.441 41.9432 158.874 41.079C158.847 41.0395 158.832 40.9932 158.83 40.9454C158.829 40.8976 158.841 40.8502 158.866 40.8088C158.891 40.7674 158.927 40.7336 158.97 40.7113C159.013 40.689 159.062 40.679 159.11 40.6826C162.149 40.9499 165.185 40.9335 168.217 40.6336C168.348 40.6217 168.403 40.6796 168.382 40.8073L167.923 43.52C167.913 43.5821 167.881 43.6384 167.833 43.6786C167.784 43.7188 167.723 43.7401 167.66 43.7384C167.597 43.7368 167.537 43.7124 167.491 43.6697C167.445 43.6271 167.416 43.5691 167.409 43.5067C167.141 41.1948 164.503 41.9966 162.963 42.2194C162.79 42.2431 162.704 42.3411 162.704 42.5133ZM14.1162 72.2241C11.5538 72.2211 8.98995 72.2271 6.42457 72.2419C3.79521 72.2597 2.16581 73.507 1.16139 75.8455C1.12893 75.9266 1.0691 75.9938 0.992234 76.0354C0.915373 76.0771 0.826325 76.0907 0.740504 76.0738C0.654683 76.0569 0.57749 76.0105 0.522285 75.9428C0.467079 75.8751 0.437337 75.7903 0.438205 75.703C0.41142 73.1729 1.15246 71.0882 1.9069 68.714C1.95154 68.5715 2.03784 68.5374 2.16581 68.6116C3.51398 69.3867 5.08385 69.7757 6.87545 69.7786C28.7615 69.7965 50.6341 69.7994 72.4934 69.7876C84.2221 69.7786 95.9508 69.8068 107.679 69.8722L142.727 69.7697C152.74 69.7386 162.789 69.2486 172.806 69.7296C174.649 69.8158 176.452 69.6153 178.217 69.1283C178.277 69.1114 178.341 69.1084 178.402 69.1195C178.464 69.1307 178.523 69.1556 178.573 69.1924C178.624 69.2293 178.666 69.2772 178.695 69.3324C178.725 69.3876 178.741 69.4488 178.744 69.5114C178.833 71.6406 178.651 73.8113 178.199 76.0237C178.157 76.2227 178.092 76.3518 178.003 76.4112C177.952 76.4437 177.894 76.4632 177.834 76.4681C177.775 76.473 177.714 76.4631 177.659 76.4394C177.604 76.4156 177.556 76.3787 177.518 76.3318C177.481 76.2849 177.456 76.2296 177.445 76.1707C176.614 71.6584 171.512 72.0281 168.146 72.037C118.573 72.1499 69.0277 72.1736 19.5089 72.1083C19.452 72.1083 19.3975 72.1308 19.3574 72.1709C19.3172 72.211 19.2946 72.2654 19.2946 72.3221V100.313C19.2901 104.069 19.8214 106.625 23.6739 107.547C24.037 107.633 24.1694 107.835 24.0712 108.153C24.0535 108.214 24.0142 108.266 23.9608 108.299C23.9073 108.333 23.8434 108.346 23.781 108.336C19.5371 107.727 15.2814 107.672 11.0137 108.171C10.7994 108.198 10.725 108.109 10.7905 107.904L10.9244 107.476C10.9462 107.407 10.99 107.346 11.0494 107.302C11.1088 107.259 11.1808 107.236 11.2547 107.236C13.4466 107.253 14.326 106.002 14.3394 103.873C14.4049 93.4017 14.4138 82.9354 14.3662 72.4735C14.3632 72.3072 14.2799 72.2241 14.1162 72.2241Z" fill="#E5E5E5"/>
<path d="M86.5426 76.7306C100.581 73.0933 110.015 91.7886 99.6099 101.077C95.1527 105.055 88.883 105.816 83.6069 102.904C79.7404 100.771 76.1379 97.0321 75.4308 92.5364C75.1981 91.0614 75.3935 88.9257 76.017 86.1291C77.2835 80.4785 81.1993 78.1112 86.5426 76.7306ZM89.1829 78.4475C89.1829 78.3952 89.1725 78.3434 89.1522 78.2951C89.132 78.2467 89.1023 78.2028 89.0649 78.1659C89.0275 78.1289 88.9831 78.0995 88.9342 78.0795C88.8854 78.0595 88.833 78.0492 88.7801 78.0492H88.5832C88.4764 78.0492 88.374 78.0912 88.2984 78.1659C88.2229 78.2405 88.1805 78.3418 88.1805 78.4475V102.519C88.1805 102.625 88.2229 102.726 88.2984 102.801C88.374 102.875 88.4764 102.917 88.5832 102.917H88.7801C88.833 102.917 88.8854 102.907 88.9342 102.887C88.9831 102.867 89.0275 102.838 89.0649 102.801C89.1023 102.764 89.132 102.72 89.1522 102.671C89.1725 102.623 89.1829 102.571 89.1829 102.519V78.4475ZM91.3041 78.5271C91.3041 78.4039 91.2546 78.2857 91.1665 78.1986C91.0783 78.1114 90.9588 78.0625 90.8342 78.0625H90.7716C90.6469 78.0625 90.5274 78.1114 90.4393 78.1986C90.3512 78.2857 90.3017 78.4039 90.3017 78.5271V102.537C90.3017 102.66 90.3512 102.778 90.4393 102.865C90.5274 102.952 90.6469 103.001 90.7716 103.001H90.8342C90.9588 103.001 91.0783 102.952 91.1665 102.865C91.2546 102.778 91.3041 102.66 91.3041 102.537V78.5271ZM86.8558 78.4209C75.7709 81.0316 77.3193 98.8331 86.7932 102.369C86.9722 102.436 87.0617 102.376 87.0617 102.187V78.5802C87.0617 78.4416 86.9931 78.3885 86.8558 78.4209ZM99.8874 95.7179C101.713 89.8195 99.4444 80.7705 92.6332 78.5448C92.493 78.4976 92.4229 78.5463 92.4229 78.6908V102.506C92.4233 102.544 92.4326 102.581 92.4501 102.614C92.4676 102.648 92.4927 102.677 92.5236 102.699C92.5544 102.722 92.5901 102.737 92.6277 102.743C92.6654 102.749 92.7041 102.747 92.7406 102.736C96.3983 101.633 98.7805 99.2933 99.8874 95.7179ZM158.632 79.8988C161.228 76.4208 166.759 75.7527 170.747 76.8235C170.825 76.8453 170.893 76.8939 170.939 76.9605C170.984 77.0272 171.003 77.1073 170.993 77.1864L170.415 82.1644C170.41 82.231 170.38 82.2935 170.333 82.3411C170.285 82.3887 170.223 82.4185 170.155 82.4253C170.088 82.4321 170.021 82.4155 169.964 82.3784C169.908 82.3413 169.867 82.286 169.847 82.2219C169.51 81.1776 169.088 80.3089 168.581 79.6156C165.734 75.7217 159.442 79.3678 161.447 83.8105C162.508 86.1557 165.305 88.0584 167.341 89.6956C179.675 99.6163 161.922 108.687 157.805 103.032C156.878 101.758 157.429 99.2048 157.89 97.8109C157.914 97.7439 157.962 97.6878 158.024 97.6527C158.087 97.6177 158.16 97.6061 158.231 97.62C158.301 97.634 158.364 97.6726 158.409 97.7287C158.453 97.7849 158.475 97.8549 158.471 97.926C157.899 106.037 172.769 102.798 167.56 95.6693C164.951 92.1028 154.587 85.3194 158.632 79.8988ZM128.64 98.0809C128.654 98.0957 128.672 98.1057 128.692 98.1098C128.712 98.1138 128.733 98.1117 128.753 98.1036C128.772 98.0956 128.788 98.0819 128.8 98.0645C128.812 98.047 128.819 98.0266 128.819 98.0056C128.676 92.2709 128.582 86.5008 128.537 80.6953C128.522 78.8841 127.715 77.9401 126.116 77.8634C125.803 77.8457 125.59 77.7881 125.476 77.6908C125.315 77.5492 125.269 77.3619 125.337 77.1288C125.376 76.9902 125.467 76.9282 125.61 76.943C127.744 77.1495 129.884 77.1849 132.032 77.0492C132.507 77.0197 132.944 77.0448 133.343 77.1244C133.417 77.1389 133.484 77.177 133.534 77.2328C133.584 77.2886 133.614 77.359 133.62 77.4333C133.626 77.5076 133.606 77.5817 133.565 77.6442C133.524 77.7067 133.464 77.7541 133.393 77.7793L131.531 78.4342C131.448 78.4627 131.377 78.516 131.326 78.5865C131.276 78.6571 131.249 78.7415 131.249 78.828C131.249 87.2752 131.45 95.6958 130.824 104.116C130.809 104.285 130.79 104.376 130.766 104.391C130.652 104.455 130.522 104.484 130.396 104.473C130.269 104.461 130.153 104.411 130.063 104.329C122.894 97.7121 116.187 90.6632 109.943 83.1821C109.91 83.1439 109.867 83.1166 109.818 83.1039C109.769 83.0911 109.717 83.0937 109.669 83.1111C109.622 83.1285 109.581 83.16 109.552 83.2012C109.524 83.2424 109.508 83.2914 109.509 83.3414C109.625 89.2915 109.788 95.2976 109.997 101.36C110.055 102.931 112.306 102.931 113.393 103.67C113.436 103.698 113.469 103.739 113.488 103.787C113.507 103.834 113.511 103.886 113.5 103.936C113.489 103.986 113.463 104.032 113.426 104.067C113.388 104.102 113.341 104.126 113.29 104.134C113.144 104.158 112.979 104.155 112.794 104.125C110.034 103.683 107.352 103.708 104.747 104.201C104.669 104.216 104.588 104.203 104.519 104.166C104.449 104.128 104.395 104.067 104.365 103.994C104.336 103.921 104.334 103.84 104.358 103.766C104.383 103.691 104.434 103.627 104.501 103.585C105.826 102.767 107.303 102.254 107.303 100.422C107.306 92.7429 107.31 84.9875 107.316 77.1554C107.316 77.0241 107.356 76.8959 107.431 76.7875C107.506 76.679 107.612 76.5952 107.735 76.547C107.859 76.4989 107.994 76.4885 108.124 76.5173C108.253 76.5461 108.371 76.6127 108.462 76.7085L128.64 98.0809ZM139.367 101.028C139.421 93.7385 139.434 86.5259 139.407 79.39C139.407 79.1593 139.335 78.9346 139.201 78.7468C139.067 78.559 138.878 78.4173 138.66 78.3413L136.745 77.6731C136.659 77.6441 136.588 77.5862 136.542 77.5098C136.497 77.4334 136.48 77.3433 136.496 77.2554C136.511 77.1675 136.558 77.0875 136.627 77.0296C136.696 76.9716 136.784 76.9394 136.874 76.9386C141.344 76.9356 145.907 76.9356 150.564 76.9386C150.922 76.9386 151.262 76.7704 151.58 76.6642C151.641 76.6428 151.707 76.6375 151.771 76.6487C151.835 76.66 151.895 76.6875 151.945 76.7285C151.995 76.7695 152.033 76.8227 152.056 76.8827C152.079 76.9428 152.086 77.0078 152.076 77.0713C151.879 78.3545 151.686 79.6053 151.495 80.8236C151.438 81.1835 151.286 81.452 151.038 81.629C150.997 81.6581 150.949 81.6759 150.898 81.6805C150.848 81.6852 150.797 81.6764 150.751 81.6553C150.705 81.6342 150.665 81.6013 150.636 81.5602C150.608 81.519 150.59 81.471 150.586 81.421C150.336 77.943 145.668 78.8324 143.314 78.7439C143.273 78.7421 143.232 78.7486 143.193 78.7629C143.155 78.7772 143.12 78.7991 143.09 78.8272C143.06 78.8553 143.037 78.8891 143.021 78.9265C143.005 78.9639 142.996 79.0042 142.996 79.0448V88.346C142.996 88.5437 143.096 88.6454 143.296 88.6513C146.075 88.7044 148.492 89.023 151.038 87.7442C151.1 87.7129 151.169 87.6989 151.239 87.7038C151.308 87.7087 151.375 87.7322 151.431 87.7719C151.488 87.8116 151.533 87.8658 151.56 87.9288C151.588 87.9918 151.598 88.0611 151.589 88.1292L150.971 93.0187C150.963 93.084 150.935 93.1453 150.891 93.1949C150.847 93.2445 150.789 93.28 150.725 93.2971C150.661 93.3142 150.593 93.312 150.53 93.2908C150.467 93.2696 150.412 93.2303 150.371 93.178C149.557 92.147 150.063 90.8196 148.228 90.6912C146.563 90.5732 144.953 90.5157 143.399 90.5187C143.292 90.5187 143.19 90.5606 143.114 90.6353C143.039 90.71 142.996 90.8113 142.996 90.9169V100.24C142.996 100.385 143.054 100.526 143.157 100.634C145.771 103.377 150.828 103.546 152.166 99.3862C152.214 99.2358 152.317 99.162 152.475 99.165C152.636 99.165 152.743 99.2254 152.797 99.3464C152.833 99.4201 152.833 99.5308 152.797 99.6783C152.496 100.879 152.315 102.01 152.255 103.072C152.239 103.357 152.114 103.624 151.905 103.819C151.696 104.014 151.419 104.122 151.132 104.121L137.246 104.05C137.218 104.05 137.191 104.044 137.166 104.032C137.142 104.02 137.12 104.003 137.103 103.982C137.085 103.961 137.073 103.936 137.067 103.909C137.061 103.883 137.061 103.855 137.067 103.829C137.091 103.726 137.168 103.661 137.299 103.634C138.669 103.351 139.358 102.482 139.367 101.028Z" fill="#E5E5E5"/>
<path d="M59.1419 93.2159C59.1374 95.7244 58.0521 103.129 61.8801 103.38C62.0842 103.395 62.2238 103.503 62.2989 103.704C62.3174 103.755 62.3223 103.81 62.3131 103.864C62.3039 103.918 62.2809 103.968 62.2464 104.01C62.212 104.052 62.1671 104.085 62.1164 104.104C62.0656 104.124 62.0105 104.13 61.9566 104.122C59.0324 103.721 56.1111 103.758 53.1928 104.235C53.116 104.245 53.0379 104.229 52.9722 104.188C52.9065 104.147 52.8574 104.084 52.8337 104.01C52.81 103.936 52.8132 103.857 52.8426 103.785C52.872 103.713 52.9259 103.654 52.9947 103.619C54.742 102.76 55.3455 101.461 55.3455 99.4513C55.3425 93.2923 55.344 87.1318 55.35 80.9698C55.3545 79.0143 54.8546 77.7645 52.9406 77.243C52.8085 77.207 52.7124 77.1561 52.6524 77.0901C52.5533 76.9852 52.5083 76.8759 52.5173 76.762C52.5219 76.6745 52.56 76.5921 52.6237 76.5319C52.6874 76.4717 52.7718 76.4382 52.8596 76.4383C58.2998 76.4158 71.8328 74.4962 70.9096 84.1033C70.6304 87.0164 68.8695 89.2013 66.8835 91.3682C66.7784 91.4791 66.7709 91.5959 66.861 91.7188C69.6396 95.5401 74.4944 103.515 79.6779 103.304C79.773 103.3 79.8665 103.33 79.9413 103.388C80.0161 103.447 80.0671 103.531 80.0852 103.624C80.1032 103.718 80.087 103.814 80.0395 103.897C79.992 103.979 79.9164 104.041 79.8266 104.073C68.2705 108.267 69.3964 92.2943 59.3986 92.9461C59.2305 92.9551 59.1449 93.045 59.1419 93.2159ZM66.8159 87.7987C68.0544 83.0783 65.4333 76.236 59.3671 78.304C59.238 78.3489 59.1735 78.4403 59.1735 78.5782V90.2667C59.1735 90.4586 59.268 90.5709 59.4572 90.6039C62.2178 91.0759 65.9197 91.1928 66.8159 87.7987ZM29.6845 87.9021H44.4515C44.5296 87.9021 44.5686 87.8631 44.5686 87.7852L44.5236 78.8929C44.5205 78.7539 44.466 78.6209 44.3704 78.5197C43.5598 77.6791 42.1592 77.8454 41.6323 77.1756C41.6039 77.139 41.5866 77.095 41.5824 77.049C41.5782 77.0029 41.5873 76.9566 41.6086 76.9155C41.6299 76.8744 41.6625 76.8402 41.7026 76.817C41.7427 76.7938 41.7886 76.7825 41.835 76.7844C44.7292 76.9283 47.625 76.9343 50.5222 76.8024C50.5703 76.7994 50.6108 76.8144 50.6438 76.8474L50.8645 77.0722C50.9088 77.1174 50.9381 77.175 50.9487 77.2373C50.9592 77.2997 50.9504 77.3637 50.9235 77.421C50.8966 77.4782 50.8527 77.5258 50.7979 77.5575C50.7431 77.5891 50.6799 77.6033 50.6168 77.5981C49.2117 77.4768 48.365 78.0882 48.3605 79.5717C48.3605 86.3181 48.3635 93.06 48.3696 99.7974C48.3741 101.811 48.9685 103.174 51.0266 103.511C51.2368 103.547 51.3914 103.631 51.4905 103.763C51.5153 103.796 51.5302 103.835 51.5335 103.877C51.5369 103.918 51.5285 103.959 51.5094 103.997C51.4903 104.034 51.4612 104.065 51.4253 104.087C51.3894 104.109 51.348 104.122 51.3058 104.122L42.2223 104.055C42.1888 104.055 42.1567 104.041 42.1331 104.018C42.1094 103.994 42.0962 103.962 42.0962 103.929V103.673C42.0962 103.526 42.1697 103.44 42.3168 103.416C44.1993 103.102 44.5461 101.883 44.5371 100.085C44.5221 96.7464 44.5341 93.4077 44.5731 90.0689C44.5761 89.8921 44.489 89.8037 44.3119 89.8037H29.68C29.5329 89.8037 29.4593 89.8786 29.4593 90.0285C29.4443 93.1364 29.4413 96.2414 29.4503 99.3434C29.4593 101.681 29.8827 103.317 32.4542 103.493C32.6763 103.508 32.8024 103.596 32.8325 103.758C32.8411 103.801 32.8401 103.846 32.8297 103.889C32.8192 103.932 32.7996 103.972 32.772 104.007C32.7445 104.041 32.7098 104.069 32.6704 104.088C32.6311 104.107 32.588 104.117 32.5442 104.118C29.5899 104.172 26.6071 104.175 23.5958 104.127C23.4607 104.124 23.3841 104.113 23.3661 104.095C23.3073 104.033 23.2683 103.955 23.2538 103.871C23.2394 103.787 23.2502 103.701 23.2848 103.623C23.3195 103.545 23.3765 103.479 23.4487 103.434C23.5209 103.388 23.605 103.365 23.6903 103.367C25.4062 103.403 25.7394 102.378 25.7394 100.845C25.7334 93.8737 25.7334 86.9025 25.7394 79.9314C25.7394 78.3489 25.0864 77.4813 23.5057 77.3958C23.1724 77.3779 23.0133 77.231 23.0283 76.9553C23.0311 76.9107 23.0429 76.8672 23.0629 76.8273C23.0829 76.7874 23.1108 76.7519 23.1448 76.7229C23.1788 76.694 23.2184 76.6722 23.261 76.6588C23.3037 76.6454 23.3486 76.6408 23.3931 76.6451C26.1222 76.8998 28.8574 76.9193 31.5985 76.7035C31.7606 76.6885 31.8567 76.7605 31.8867 76.9193L31.9317 77.1576C31.9708 77.3524 31.8897 77.4528 31.6886 77.4588C30.1634 77.5157 29.4038 78.3324 29.4098 79.9089C29.4188 82.5043 29.4383 85.0968 29.4683 87.6863C29.4695 87.7439 29.4928 87.7988 29.5332 87.8391C29.5736 87.8794 29.6279 87.902 29.6845 87.9021Z" fill="#E5E5E5"/>
</g>
<defs>
<clipPath id="clip0_833_9756">
<rect width="178.328" height="133.038" fill="white" transform="translate(0.4375 0.245483)"/>
</clipPath>
</defs>
</svg>
