<svg width="180" height="134" viewBox="0 0 180 134" fill="none" xmlns="http://www.w3.org/2000/svg">
<g opacity="0.9" clip-path="url(#clip0_315_3662)">
<path d="M44.4855 45.9345C48.3486 45.9038 52.2608 46.1274 56.1954 46.1625C56.425 46.1654 56.574 46.2209 56.6426 46.3291C56.7052 46.4284 56.7245 46.5585 56.7007 46.7193C56.692 46.7754 56.6643 46.827 56.6222 46.866C56.58 46.9049 56.5258 46.9289 56.4682 46.9341C55.2401 47.0306 54.2505 47.5392 53.4993 48.4599C53.4038 48.5792 53.3518 48.7259 53.3518 48.8764V61.9289C53.3517 62.1107 53.3055 62.2897 53.2173 62.4496C53.1291 62.6096 53.0017 62.7455 52.8465 62.8452C46.9625 66.6509 35.2123 66.2081 29.2031 63.1916C21.8391 59.4955 18.0073 51.0379 18.7629 43.0977C19.4425 35.938 23.6409 30.475 30.5444 27.9364C37.8458 25.2487 45.5541 26.6342 53.003 27.6821C53.3637 27.7347 53.5277 27.9378 53.4949 28.2915C53.2415 31.0099 52.9211 33.6493 52.5336 36.2098C52.4948 36.4846 52.3532 36.6263 52.1088 36.6351C52.0325 36.6376 51.9578 36.6133 51.898 36.5667C51.8382 36.5202 51.7972 36.4543 51.7824 36.3808C49.9358 27.8706 39.907 26.792 33.1153 29.5586C20.9001 34.5393 20.6274 49.9374 29.5116 57.9916C33.7264 61.8119 38.8786 63.3129 44.9684 62.4944C46.1428 62.3366 47.2159 61.8105 48.1876 60.916C48.23 60.8774 48.2638 60.8306 48.2869 60.7785C48.31 60.7265 48.3218 60.6703 48.3217 60.6135V49.0912C48.3215 48.7912 48.2275 48.4984 48.0524 48.2522C47.8774 48.0061 47.6296 47.8184 47.3425 47.7145L44.3603 46.636C44.2813 46.6049 44.2155 46.5482 44.1741 46.4753C44.1327 46.4023 44.118 46.3177 44.1327 46.2354C44.1474 46.1532 44.1905 46.0784 44.2547 46.0236C44.3189 45.9688 44.4004 45.9373 44.4855 45.9345ZM100.889 55.3303C100.908 55.3745 100.941 55.4122 100.981 55.4387C101.022 55.4653 101.07 55.4794 101.119 55.4794C101.168 55.4794 101.216 55.4653 101.257 55.4387C101.298 55.4122 101.33 55.3745 101.35 55.3303C104.716 47.8022 107.949 39.6954 112.532 32.7636C112.565 32.7154 112.612 32.6783 112.667 32.6573C112.722 32.6363 112.782 32.6325 112.839 32.6465C112.897 32.6604 112.948 32.6913 112.987 32.7351C113.025 32.7788 113.049 32.8332 113.055 32.8908C113.753 40.7258 114.325 48.929 115.8 56.6588C116.248 58.9869 116.976 60.3943 119.592 60.2408C119.692 60.2355 119.791 60.2538 119.882 60.2943C119.973 60.3347 120.053 60.3961 120.115 60.4732C120.434 60.8649 120.422 61.0666 120.079 61.0783C117.37 61.1806 114.654 61.166 111.933 61.0344C111.882 61.0317 111.833 61.0175 111.789 60.9929C111.745 60.9683 111.707 60.9338 111.678 60.8923C111.65 60.8508 111.631 60.8032 111.624 60.7534C111.617 60.7035 111.622 60.6527 111.638 60.6048C112.148 59.1374 112.329 57.5693 112.183 55.9003C111.757 51.0803 111.218 46.3495 110.565 41.7079C110.535 41.4916 110.472 41.4813 110.377 41.6772L100.97 60.8678C100.946 60.9148 100.911 60.9551 100.867 60.9846C100.823 61.0142 100.772 61.032 100.719 61.0364C100.665 61.0408 100.612 61.0317 100.564 61.0098C100.515 60.9879 100.473 60.9541 100.442 60.9117C96.2392 55.133 93.248 48.2275 90.373 41.7605C90.3579 41.7253 90.3309 41.6963 90.2966 41.6784C90.2623 41.6604 90.2227 41.6545 90.1845 41.6617C90.1463 41.6688 90.1117 41.6887 90.0866 41.7178C90.0615 41.747 90.0474 41.7837 90.0466 41.8219C90.0079 42.6608 89.9259 43.5055 89.8007 44.3561C89.133 48.9509 88.7082 53.5677 88.5264 58.2065C88.4593 59.9164 89.9169 60.0216 91.0794 60.5741C91.1491 60.6058 91.2053 60.6603 91.2384 60.7283C91.2715 60.7962 91.2795 60.8733 91.261 60.9464C91.2425 61.0195 91.1987 61.084 91.137 61.1289C91.0753 61.1737 90.9996 61.1961 90.923 61.1923C85.1104 60.9234 79.2979 60.8956 73.4854 61.109C73.4328 61.1108 73.3811 61.095 73.3388 61.0642C73.2965 61.0334 73.2661 60.9895 73.2526 60.9396C73.2391 60.8897 73.2433 60.8367 73.2645 60.7894C73.2856 60.7421 73.3226 60.7033 73.3692 60.6793L74.7821 59.9515C75.1845 59.7439 75.3037 59.4327 75.1398 59.0176L71.8222 50.6039C71.7745 50.484 71.6865 50.4241 71.5584 50.4241H64.1944C64.118 50.4242 64.0435 50.4469 63.9805 50.4891C63.9175 50.5314 63.869 50.5912 63.8411 50.6609C62.3657 54.2649 61.4476 56.9715 61.0869 58.7808C60.8604 59.9208 61.3626 60.4557 62.5937 60.3855C62.6559 60.3814 62.7178 60.3977 62.7696 60.4319C62.8214 60.466 62.8602 60.516 62.8798 60.5741L62.9737 60.881C63.0512 61.1207 62.9633 61.2244 62.7099 61.1923C60.0481 60.8386 57.3878 60.8444 54.7289 61.2098C54.553 61.2332 54.4666 61.1587 54.4696 60.9862V60.8327C54.4696 60.6574 54.5575 60.5565 54.7334 60.5302C57.0494 60.2014 58.0465 58.9343 58.905 56.7596C61.996 48.9436 64.9366 41.0721 67.7266 33.1451C67.8011 32.9376 67.8801 32.8046 67.9635 32.7461C68.0024 32.7194 68.047 32.7015 68.0938 32.694C68.1406 32.6864 68.1885 32.6893 68.2337 32.7024C68.2789 32.7155 68.3204 32.7384 68.3549 32.7696C68.3895 32.8007 68.4162 32.8392 68.433 32.882C71.6433 41.2212 74.6703 49.5735 78.824 57.5137C80.0804 59.9252 81.918 60.9687 84.6097 60.1532C85.0836 60.0085 85.486 59.4911 85.5397 59.0834C86.735 50.3788 87.7514 41.6582 88.589 32.9215C88.5953 32.8564 88.6213 32.7947 88.6636 32.7442C88.7058 32.6937 88.7624 32.6567 88.8262 32.6379C88.89 32.619 88.9581 32.6193 89.0218 32.6386C89.0854 32.6578 89.1418 32.6953 89.1837 32.7461C89.7679 33.4593 90.297 34.2456 90.7709 35.1049C94.4522 41.7371 97.8249 48.4789 100.889 55.3303ZM67.6997 38.9369L64.6772 48.2626C64.6146 48.4614 64.6892 48.5607 64.9008 48.5607H70.6954C70.7235 48.5604 70.7511 48.5537 70.7762 48.5413C70.8012 48.5288 70.823 48.5109 70.8399 48.4888C70.8567 48.4668 70.8682 48.4413 70.8734 48.4142C70.8786 48.3871 70.8773 48.3593 70.8698 48.3327L67.9993 38.9369C67.9039 38.6183 67.8041 38.6183 67.6997 38.9369ZM127.126 47.3638V57.2331C127.126 57.4157 127.2 57.5907 127.332 57.7198C129.983 60.3154 135.415 60.539 136.591 56.251C136.639 56.0873 136.746 56.0289 136.913 56.0756L137.03 56.1063C137.191 56.1502 137.258 56.2539 137.231 56.4176L136.582 60.1707C136.469 60.8284 136.074 61.1557 135.398 61.1528L121.22 61.109C121.076 61.109 120.996 61.0388 120.978 60.8985C120.972 60.8634 120.971 60.8254 120.974 60.7845C120.983 60.6471 121.057 60.5682 121.197 60.5478C122.601 60.3402 123.305 59.5496 123.308 58.1758C123.331 50.6112 123.334 43.1138 123.317 35.6837C123.316 35.457 123.247 35.2357 123.118 35.0481C122.989 34.8606 122.806 34.7155 122.592 34.6314L120.719 33.8992C120.638 33.8651 120.571 33.8047 120.53 33.7282C120.489 33.6516 120.476 33.5636 120.494 33.4789C120.511 33.3941 120.557 33.3177 120.625 33.2626C120.693 33.2074 120.778 33.1768 120.866 33.1758C125.361 33.2313 129.853 33.2401 134.342 33.2021C134.494 33.2021 134.646 33.1933 134.798 33.1758C135.266 33.1232 135.709 32.996 136.126 32.7943C136.175 32.7718 136.228 32.7627 136.281 32.768C136.334 32.7734 136.385 32.793 136.428 32.8247C136.47 32.8564 136.503 32.899 136.522 32.9478C136.542 32.9966 136.547 33.0497 136.538 33.1012L135.657 37.8189C135.643 37.908 135.595 37.9886 135.523 38.0447C135.451 38.1007 135.36 38.1282 135.268 38.1216C135.176 38.1149 135.09 38.0747 135.027 38.0089C134.964 37.9431 134.929 37.8565 134.928 37.7663C134.821 34.2587 129.675 34.9646 127.282 35.1268C127.104 35.1385 127.014 35.2321 127.014 35.4074V44.9392C127.014 44.9778 127.022 45.0159 127.037 45.0514C127.052 45.0868 127.075 45.1189 127.103 45.1455C127.131 45.1722 127.164 45.1929 127.2 45.2064C127.236 45.2199 127.275 45.226 127.314 45.2242C130.09 45.1102 132.84 45.6276 135.384 44.3166C135.45 44.2822 135.524 44.2663 135.599 44.2705C135.673 44.2748 135.745 44.299 135.807 44.3407C135.868 44.3823 135.917 44.4398 135.947 44.5067C135.977 44.5736 135.988 44.6474 135.979 44.72L135.393 49.5516C135.384 49.6656 135.331 49.7721 135.246 49.8502C135.161 49.9283 135.049 49.9725 134.932 49.9741C134.815 49.9758 134.702 49.9348 134.615 49.8591C134.527 49.7834 134.472 49.6785 134.459 49.5648C134.28 48.3591 133.971 47.5567 132.59 47.3726C130.84 47.1329 129.083 47.0627 127.318 47.1621C127.19 47.1679 127.126 47.2352 127.126 47.3638ZM142.042 47.9513C142.314 44.0755 144.067 42.0937 147.698 40.7652C158.639 36.7666 164.491 54.8831 151.632 56.9481C148.453 57.4611 144.671 55.0015 143.124 52.4585C142.286 51.0759 141.925 49.5735 142.042 47.9513ZM150.246 41.7386C150.246 41.6572 150.213 41.5791 150.155 41.5215C150.096 41.464 150.016 41.4317 149.933 41.4317H149.907C149.824 41.4317 149.744 41.464 149.685 41.5215C149.627 41.5791 149.594 41.6572 149.594 41.7386V55.4794C149.594 55.5608 149.627 55.6388 149.685 55.6964C149.744 55.7539 149.824 55.7863 149.907 55.7863H149.933C150.016 55.7863 150.096 55.7539 150.155 55.6964C150.213 55.6388 150.246 55.5608 150.246 55.4794V41.7386ZM151.399 41.6864C151.399 41.6259 151.374 41.5679 151.331 41.5252C151.287 41.4824 151.228 41.4584 151.166 41.4584L151.068 41.458C151.007 41.458 150.947 41.4819 150.904 41.5246C150.86 41.5672 150.836 41.6251 150.836 41.6855L150.811 55.6543C150.811 55.7148 150.835 55.7728 150.879 55.8155C150.922 55.8583 150.981 55.8823 151.043 55.8823L151.141 55.8827C151.203 55.8827 151.262 55.8588 151.306 55.8161C151.349 55.7734 151.374 55.7156 151.374 55.6552L151.399 41.6864ZM148.641 41.5632C146.611 42.2515 144.921 43.9965 144.532 46.0134C143.724 50.1961 145.067 53.3734 148.561 55.5451C148.597 55.567 148.638 55.5791 148.68 55.5801C148.722 55.5812 148.764 55.5711 148.801 55.551C148.838 55.5308 148.869 55.5014 148.89 55.4657C148.912 55.43 148.923 55.3893 148.923 55.3478V41.7605C148.922 41.7269 148.914 41.6939 148.898 41.6641C148.883 41.6344 148.86 41.6088 148.832 41.5895C148.805 41.5702 148.773 41.5577 148.74 41.5531C148.707 41.5486 148.673 41.552 148.641 41.5632ZM152.164 42.0718L152.147 55.6109C152.147 55.757 152.218 55.8082 152.361 55.7643C158.563 53.787 158.12 44.1105 152.58 41.8043C152.303 41.6903 152.164 41.7795 152.164 42.0718Z" fill="#E5E5E5"/>
<path d="M163.103 42.5134V47.5201C163.102 47.5725 163.122 47.6232 163.157 47.6626C163.192 47.702 163.241 47.7274 163.294 47.7339C164.91 47.9002 166.489 47.7859 168.031 47.391C168.174 47.3524 168.238 47.4073 168.223 47.5558C168.122 48.5031 168.017 49.4563 167.91 50.4155C167.892 50.5818 167.79 50.6605 167.602 50.6516C167.454 50.6427 167.373 50.564 167.361 50.4155C167.196 48.4199 164.777 49.0302 163.455 48.8921C163.411 48.8878 163.367 48.8926 163.325 48.9062C163.283 48.9199 163.245 48.9421 163.212 48.9714C163.179 49.0008 163.153 49.0366 163.135 49.0766C163.117 49.1166 163.107 49.16 163.107 49.2039C163.094 51.0926 162.263 56.0592 164.759 56.5848C164.94 56.6234 165.01 56.7333 164.969 56.9144C164.945 57.0243 164.884 57.1089 164.785 57.1683C164.781 57.1728 160.629 57.0926 159.969 57.204C159.814 57.2307 159.68 57.1891 159.567 57.0792L159.442 56.9545C159.424 56.9363 159.411 56.9139 159.404 56.8893C159.397 56.8647 159.396 56.8387 159.402 56.8138C159.408 56.7889 159.42 56.7659 159.437 56.7469C159.454 56.7279 159.476 56.7135 159.5 56.7051L160.616 56.2908C160.691 56.2634 160.755 56.2136 160.801 56.1482C160.846 56.0829 160.871 56.0051 160.87 55.9256V42.7228C160.875 40.9989 159.839 41.9432 159.272 41.0791C159.245 41.0396 159.23 40.9932 159.229 40.9454C159.227 40.8976 159.24 40.8503 159.265 40.8089C159.289 40.7675 159.325 40.7337 159.369 40.7113C159.412 40.689 159.46 40.6791 159.509 40.6827C162.547 40.9499 165.583 40.9336 168.616 40.6337C168.747 40.6218 168.802 40.6797 168.781 40.8074L168.321 43.5201C168.311 43.5821 168.279 43.6385 168.231 43.6787C168.183 43.7189 168.121 43.7401 168.058 43.7385C167.996 43.7369 167.935 43.7124 167.889 43.6698C167.843 43.6271 167.814 43.5692 167.808 43.5067C167.54 41.1949 164.902 41.9967 163.361 42.2194C163.189 42.2432 163.103 42.3412 163.103 42.5134ZM14.5147 72.2242C11.9523 72.2212 9.38839 72.2271 6.82301 72.242C4.19365 72.2598 2.56425 73.507 1.55983 75.8456C1.52737 75.9266 1.46753 75.9938 1.39067 76.0355C1.31381 76.0772 1.22476 76.0907 1.13894 76.0738C1.05312 76.0569 0.975927 76.0106 0.920722 75.9429C0.865517 75.8752 0.835774 75.7903 0.836642 75.703C0.809858 73.1729 1.5509 71.0883 2.30533 68.7141C2.34997 68.5716 2.43628 68.5374 2.56425 68.6117C3.91241 69.3867 5.48229 69.7757 7.27389 69.7787C29.1599 69.7965 51.0326 69.7995 72.8918 69.7876C84.6205 69.7787 96.3492 69.8069 108.078 69.8722L143.126 69.7698C153.139 69.7386 163.187 69.2486 173.205 69.7297C175.047 69.8158 176.85 69.6154 178.615 69.1284C178.676 69.1115 178.739 69.1085 178.801 69.1196C178.863 69.1307 178.921 69.1556 178.972 69.1925C179.022 69.2294 179.064 69.2772 179.094 69.3325C179.123 69.3877 179.14 69.4489 179.142 69.5114C179.231 71.6406 179.05 73.8114 178.597 76.0238C178.556 76.2227 178.49 76.3519 178.401 76.4113C178.35 76.4437 178.293 76.4632 178.233 76.4682C178.173 76.4731 178.113 76.4632 178.058 76.4394C178.003 76.4157 177.954 76.3787 177.917 76.3319C177.879 76.285 177.854 76.2297 177.843 76.1707C177.013 71.6585 171.91 72.0282 168.544 72.0371C118.972 72.1499 69.4262 72.1737 19.9073 72.1083C19.8505 72.1083 19.796 72.1309 19.7558 72.171C19.7156 72.2111 19.693 72.2654 19.693 72.3222V100.314C19.6886 104.069 20.2198 106.625 24.0723 107.547C24.4354 107.634 24.5678 107.835 24.4696 108.153C24.4519 108.214 24.4127 108.266 24.3592 108.299C24.3058 108.333 24.2418 108.346 24.1795 108.336C19.9356 107.727 15.6798 107.672 11.4121 108.171C11.1978 108.198 11.1234 108.109 11.1889 107.904L11.3228 107.476C11.3447 107.407 11.3885 107.346 11.4479 107.302C11.5073 107.259 11.5792 107.236 11.6532 107.236C13.8451 107.253 14.7245 106.002 14.7379 103.873C14.8033 93.4018 14.8123 82.9355 14.7647 72.4736C14.7617 72.3073 14.6784 72.2242 14.5147 72.2242Z" fill="#E5E5E5"/>
<path d="M86.94 76.7306C100.979 73.0933 110.412 91.7886 100.007 101.077C95.5502 105.055 89.2805 105.816 84.0043 102.904C80.1378 100.771 76.5353 97.0322 75.8283 92.5365C75.5956 91.0615 75.791 88.9257 76.4145 86.1292C77.681 80.4785 81.5967 78.1112 86.94 76.7306ZM89.5803 78.4475C89.5803 78.3952 89.5699 78.3434 89.5497 78.2951C89.5294 78.2468 89.4998 78.2029 89.4624 78.1659C89.425 78.1289 89.3806 78.0996 89.3317 78.0796C89.2828 78.0595 89.2305 78.0492 89.1776 78.0492H88.9807C88.8739 78.0492 88.7714 78.0912 88.6959 78.1659C88.6203 78.2406 88.5779 78.3419 88.5779 78.4475V102.519C88.5779 102.625 88.6203 102.726 88.6959 102.801C88.7714 102.875 88.8739 102.917 88.9807 102.917H89.1776C89.2305 102.917 89.2828 102.907 89.3317 102.887C89.3806 102.867 89.425 102.838 89.4624 102.801C89.4998 102.764 89.5294 102.72 89.5497 102.671C89.5699 102.623 89.5803 102.571 89.5803 102.519V78.4475ZM91.7016 78.5271C91.7016 78.4039 91.6521 78.2857 91.5639 78.1986C91.4758 78.1115 91.3563 78.0625 91.2317 78.0625H91.169C91.0444 78.0625 90.9249 78.1115 90.8368 78.1986C90.7486 78.2857 90.6991 78.4039 90.6991 78.5271V102.537C90.6991 102.66 90.7486 102.778 90.8368 102.865C90.9249 102.952 91.0444 103.001 91.169 103.001H91.2317C91.3563 103.001 91.4758 102.952 91.5639 102.865C91.6521 102.778 91.7016 102.66 91.7016 102.537V78.5271ZM87.2533 78.4209C76.1684 81.0316 77.7168 98.8331 87.1906 102.369C87.3696 102.436 87.4591 102.376 87.4591 102.187V78.5802C87.4591 78.4416 87.3905 78.3885 87.2533 78.4209ZM100.285 95.718C102.111 89.8195 99.8418 80.7706 93.0307 78.5448C92.8905 78.4976 92.8203 78.5463 92.8203 78.6909V102.506C92.8208 102.544 92.8301 102.581 92.8476 102.614C92.865 102.648 92.8902 102.677 92.921 102.699C92.9519 102.722 92.9875 102.737 93.0252 102.743C93.0629 102.749 93.1015 102.747 93.1381 102.736C96.7957 101.633 99.178 99.2933 100.285 95.718ZM159.03 79.8989C161.625 76.4209 167.157 75.7527 171.144 76.8235C171.223 76.8453 171.291 76.8939 171.336 76.9606C171.381 77.0272 171.4 77.1073 171.39 77.1864L170.813 82.1644C170.807 82.231 170.778 82.2935 170.73 82.3411C170.683 82.3887 170.62 82.4185 170.553 82.4253C170.486 82.4321 170.418 82.4155 170.362 82.3784C170.305 82.3413 170.264 82.286 170.245 82.222C169.907 81.1777 169.485 80.3089 168.978 79.6157C166.132 75.7217 159.84 79.3679 161.845 83.8105C162.905 86.1557 165.702 88.0584 167.739 89.6957C180.072 99.6163 162.319 108.687 158.202 103.032C157.276 101.758 157.826 99.2048 158.287 97.811C158.311 97.744 158.359 97.6878 158.422 97.6528C158.484 97.6177 158.558 97.6061 158.628 97.6201C158.699 97.634 158.762 97.6726 158.806 97.7288C158.85 97.7849 158.873 97.8549 158.869 97.926C158.296 106.037 173.167 102.798 167.958 95.6693C165.349 92.1028 154.984 85.3194 159.03 79.8989ZM129.038 98.0809C129.052 98.0957 129.07 98.1057 129.09 98.1098C129.11 98.1139 129.131 98.1117 129.15 98.1037C129.169 98.0956 129.186 98.082 129.198 98.0645C129.209 98.0471 129.216 98.0266 129.217 98.0057C129.073 92.271 128.979 86.5009 128.935 80.6954C128.92 78.8841 128.113 77.9401 126.514 77.8634C126.2 77.8457 125.987 77.7882 125.874 77.6908C125.713 77.5492 125.666 77.3619 125.735 77.1289C125.774 76.9902 125.865 76.9283 126.008 76.943C128.141 77.1495 130.282 77.1849 132.43 77.0492C132.904 77.0197 133.341 77.0448 133.741 77.1244C133.815 77.139 133.882 77.177 133.932 77.2328C133.982 77.2886 134.012 77.3591 134.017 77.4334C134.023 77.5077 134.004 77.5817 133.963 77.6442C133.922 77.7067 133.861 77.7542 133.79 77.7793L131.929 78.4342C131.846 78.4627 131.774 78.516 131.724 78.5866C131.673 78.6572 131.646 78.7416 131.647 78.828C131.647 87.2752 131.848 95.6958 131.221 104.116C131.207 104.285 131.187 104.376 131.163 104.391C131.049 104.455 130.919 104.484 130.793 104.473C130.667 104.462 130.55 104.411 130.461 104.329C123.292 97.7121 116.585 90.6632 110.34 83.1822C110.308 83.1439 110.264 83.1166 110.215 83.1039C110.166 83.0912 110.114 83.0937 110.067 83.1111C110.019 83.1285 109.979 83.16 109.95 83.2012C109.921 83.2424 109.906 83.2914 109.906 83.3415C110.023 89.2915 110.185 95.2976 110.394 101.36C110.452 102.931 112.703 102.931 113.791 103.67C113.833 103.698 113.866 103.739 113.885 103.787C113.904 103.834 113.909 103.886 113.898 103.936C113.887 103.986 113.861 104.032 113.823 104.067C113.786 104.102 113.739 104.126 113.688 104.134C113.542 104.158 113.376 104.155 113.191 104.125C110.431 103.683 107.749 103.708 105.145 104.201C105.067 104.216 104.986 104.203 104.916 104.166C104.846 104.128 104.792 104.067 104.763 103.994C104.734 103.921 104.731 103.84 104.756 103.766C104.781 103.691 104.831 103.627 104.899 103.585C106.223 102.767 107.7 102.254 107.7 100.422C107.703 92.743 107.708 84.9875 107.714 77.1554C107.714 77.0241 107.754 76.896 107.829 76.7875C107.903 76.679 108.009 76.5952 108.133 76.5471C108.256 76.4989 108.392 76.4885 108.521 76.5173C108.651 76.5461 108.768 76.6127 108.859 76.7085L129.038 98.0809ZM139.764 101.028C139.818 93.7386 139.832 86.5259 139.805 79.39C139.805 79.1594 139.733 78.9347 139.599 78.7468C139.465 78.559 139.276 78.4173 139.057 78.3413L137.142 77.6731C137.057 77.6441 136.985 77.5863 136.94 77.5098C136.894 77.4334 136.878 77.3433 136.893 77.2554C136.909 77.1675 136.955 77.0876 137.025 77.0296C137.094 76.9716 137.181 76.9394 137.272 76.9386C141.741 76.9356 146.304 76.9356 150.961 76.9386C151.319 76.9386 151.659 76.7704 151.977 76.6642C152.038 76.6428 152.104 76.6375 152.168 76.6488C152.232 76.66 152.292 76.6875 152.342 76.7285C152.392 76.7695 152.431 76.8227 152.454 76.8828C152.477 76.9428 152.484 77.0078 152.474 77.0713C152.277 78.3546 152.083 79.6053 151.892 80.8237C151.835 81.1836 151.683 81.452 151.436 81.629C151.394 81.6581 151.346 81.6759 151.296 81.6806C151.245 81.6852 151.194 81.6765 151.148 81.6553C151.102 81.6342 151.063 81.6013 151.034 81.5602C151.005 81.519 150.988 81.471 150.984 81.421C150.733 77.943 146.065 78.8325 143.712 78.744C143.67 78.7422 143.629 78.7486 143.591 78.7629C143.552 78.7773 143.517 78.7991 143.488 78.8273C143.458 78.8554 143.434 78.8892 143.418 78.9266C143.402 78.964 143.394 79.0042 143.394 79.0449V88.346C143.394 88.5437 143.494 88.6455 143.694 88.6514C146.473 88.7045 148.889 89.0231 151.436 87.7443C151.497 87.7129 151.567 87.6989 151.636 87.7038C151.705 87.7087 151.772 87.7323 151.829 87.7719C151.885 87.8116 151.93 87.8659 151.958 87.9289C151.986 87.9918 151.995 88.0611 151.986 88.1292L151.368 93.0188C151.36 93.084 151.332 93.1454 151.288 93.1949C151.245 93.2445 151.187 93.2801 151.123 93.2971C151.058 93.3142 150.99 93.312 150.927 93.2908C150.864 93.2696 150.809 93.2304 150.769 93.1781C149.954 92.1471 150.46 90.8196 148.625 90.6913C146.96 90.5733 145.351 90.5157 143.797 90.5187C143.69 90.5187 143.587 90.5606 143.512 90.6353C143.436 90.71 143.394 90.8113 143.394 90.9169V100.24C143.394 100.385 143.451 100.526 143.555 100.634C146.168 103.378 151.225 103.546 152.563 99.3862C152.611 99.2358 152.714 99.162 152.872 99.165C153.033 99.165 153.141 99.2255 153.194 99.3464C153.23 99.4202 153.23 99.5308 153.194 99.6783C152.893 100.879 152.713 102.01 152.653 103.072C152.637 103.357 152.511 103.624 152.302 103.819C152.093 104.014 151.817 104.122 151.53 104.121L137.643 104.05C137.616 104.05 137.589 104.044 137.564 104.032C137.539 104.02 137.517 104.003 137.5 103.982C137.483 103.961 137.471 103.936 137.464 103.909C137.458 103.883 137.458 103.855 137.464 103.829C137.488 103.726 137.566 103.661 137.697 103.634C139.066 103.351 139.756 102.482 139.764 101.028Z" fill="#E5E5E5"/>
<path d="M59.5394 93.2159C59.5349 95.7244 58.4496 103.129 62.2775 103.38C62.4817 103.395 62.6213 103.503 62.6964 103.704C62.7148 103.755 62.7197 103.81 62.7105 103.864C62.7013 103.918 62.6784 103.968 62.6439 104.01C62.6094 104.052 62.5646 104.085 62.5138 104.104C62.463 104.124 62.408 104.13 62.3541 104.122C59.4298 103.721 56.5085 103.758 53.5903 104.235C53.5135 104.245 53.4353 104.229 53.3696 104.188C53.3039 104.147 53.2549 104.084 53.2312 104.01C53.2075 103.936 53.2106 103.857 53.2401 103.785C53.2695 103.713 53.3234 103.655 53.3921 103.619C55.1395 102.76 55.7429 101.461 55.7429 99.4513C55.7399 93.2923 55.7414 87.1318 55.7474 80.9699C55.752 79.0143 55.2521 77.7645 53.3381 77.243C53.206 77.2071 53.1099 77.1561 53.0498 77.0902C52.9508 76.9853 52.9057 76.8759 52.9147 76.762C52.9194 76.6745 52.9574 76.5922 53.0211 76.5319C53.0848 76.4717 53.1693 76.4382 53.257 76.4383C58.6972 76.4158 72.2303 74.4962 71.3071 84.1033C71.0278 87.0165 69.267 89.2013 67.2809 91.3682C67.1758 91.4791 67.1683 91.596 67.2584 91.7188C70.0371 95.5401 74.8919 103.515 80.0754 103.304C80.1705 103.3 80.264 103.33 80.3387 103.388C80.4135 103.447 80.4646 103.531 80.4826 103.624C80.5007 103.718 80.4845 103.814 80.437 103.897C80.3895 103.979 80.3139 104.041 80.224 104.073C68.668 108.267 69.7939 92.2943 59.7961 92.9462C59.628 92.9551 59.5424 93.0451 59.5394 93.2159ZM67.2134 87.7987C68.4518 83.0783 65.8308 76.236 59.7646 78.304C59.6355 78.3489 59.5709 78.4403 59.5709 78.5782V90.2668C59.5709 90.4586 59.6655 90.571 59.8546 90.6039C62.6153 91.076 66.3172 91.1929 67.2134 87.7987ZM30.082 87.9021H44.849C44.927 87.9021 44.9661 87.8631 44.9661 87.7852L44.921 78.8929C44.918 78.7539 44.8634 78.621 44.7679 78.5198C43.9573 77.6791 42.5567 77.8454 42.0298 77.1756C42.0014 77.139 41.9841 77.0951 41.9799 77.049C41.9757 77.0029 41.9848 76.9566 42.0061 76.9155C42.0274 76.8744 42.06 76.8402 42.1001 76.817C42.1402 76.7938 42.1861 76.7825 42.2324 76.7845C45.1267 76.9283 48.0224 76.9343 50.9197 76.8025C50.9677 76.7995 51.0083 76.8144 51.0413 76.8474L51.262 77.0722C51.3062 77.1174 51.3356 77.175 51.3461 77.2374C51.3567 77.2997 51.3479 77.3638 51.321 77.421C51.294 77.4782 51.2502 77.5258 51.1954 77.5575C51.1406 77.5892 51.0774 77.6034 51.0143 77.5982C49.6092 77.4768 48.7625 78.0882 48.758 79.5717C48.758 86.3181 48.761 93.06 48.767 99.7974C48.7715 101.811 49.366 103.174 51.4241 103.511C51.6342 103.547 51.7889 103.631 51.8879 103.763C51.9127 103.796 51.9276 103.835 51.931 103.877C51.9343 103.918 51.926 103.959 51.9069 103.997C51.8878 104.034 51.8587 104.065 51.8228 104.087C51.7868 104.11 51.7455 104.122 51.7033 104.122L42.6197 104.055C42.5863 104.055 42.5542 104.042 42.5306 104.018C42.5069 103.994 42.4936 103.962 42.4936 103.929V103.673C42.4936 103.526 42.5672 103.44 42.7143 103.416C44.5968 103.102 44.9435 101.883 44.9345 100.085C44.9195 96.7464 44.9315 93.4077 44.9706 90.069C44.9736 89.8921 44.8865 89.8037 44.7094 89.8037H30.0775C29.9303 89.8037 29.8568 89.8787 29.8568 90.0285C29.8418 93.1365 29.8388 96.2414 29.8478 99.3434C29.8568 101.681 30.2801 103.317 32.8516 103.493C33.0738 103.508 33.1999 103.596 33.2299 103.758C33.2385 103.802 33.2376 103.846 33.2271 103.889C33.2167 103.932 33.197 103.972 33.1695 104.007C33.142 104.041 33.1073 104.069 33.0679 104.088C33.0285 104.107 32.9854 104.117 32.9417 104.118C29.9874 104.172 27.0046 104.175 23.9932 104.127C23.8581 104.124 23.7816 104.113 23.7635 104.095C23.7048 104.033 23.6657 103.955 23.6513 103.871C23.6368 103.787 23.6476 103.701 23.6823 103.623C23.717 103.545 23.774 103.479 23.8462 103.434C23.9183 103.388 24.0024 103.365 24.0878 103.367C25.8036 103.403 26.1369 102.378 26.1369 100.845C26.1309 93.8737 26.1309 86.9026 26.1369 79.9314C26.1369 78.3489 25.4839 77.4813 23.9031 77.3959C23.5699 77.3779 23.4108 77.231 23.4258 76.9553C23.4286 76.9108 23.4403 76.8672 23.4604 76.8273C23.4804 76.7874 23.5082 76.7519 23.5423 76.723C23.5763 76.694 23.6158 76.6722 23.6585 76.6588C23.7011 76.6455 23.7461 76.6408 23.7906 76.6451C26.5197 76.8999 29.2548 76.9193 31.9959 76.7035C32.1581 76.6886 32.2542 76.7605 32.2842 76.9193L32.3292 77.1576C32.3682 77.3524 32.2872 77.4528 32.086 77.4588C30.5608 77.5158 29.8012 78.3325 29.8072 79.9089C29.8163 82.5044 29.8358 85.0968 29.8658 87.6863C29.867 87.7439 29.8903 87.7988 29.9307 87.8391C29.9711 87.8795 30.0254 87.9021 30.082 87.9021Z" fill="#E5E5E5"/>
</g>
<defs>
<clipPath id="clip0_315_3662">
<rect width="178.328" height="133.038" fill="white" transform="translate(0.835938 0.245483)"/>
</clipPath>
</defs>
</svg>
