<svg width="130" height="87" viewBox="0 0 130 87" fill="none" xmlns="http://www.w3.org/2000/svg">
<g opacity="0.9">
<path d="M116.843 0.898095C119.289 1.47023 121.228 2.78927 122.66 4.85519C123.236 5.74572 123.663 6.70328 123.942 7.72786L124.032 8.13183L124.255 11.5701V14.9993L124.235 16.7642C124.234 16.836 124.269 16.8719 124.341 16.8719L127.63 16.8827H129.538C129.561 16.8827 129.584 16.8923 129.601 16.9095C129.618 16.9267 129.627 16.95 129.627 16.9743L129.632 19.039L129.627 22.5688V24.919C129.627 24.9307 129.625 24.9423 129.62 24.9531C129.616 24.9639 129.609 24.9736 129.6 24.9818C129.592 24.99 129.582 24.9965 129.571 25.0008C129.56 25.0051 129.548 25.0072 129.536 25.007L127.927 24.971L124.373 25.0195C124.3 25.0195 124.256 25.0548 124.239 25.1255C124.182 25.3529 124.192 25.5833 124.269 25.8167L124.262 29.8276C124.191 30.924 124.193 32.0205 124.268 33.1169L124.225 35.9608L124.269 40.3596L124.26 44.1892C124.189 45.3059 124.192 46.4155 124.269 47.5179L124.225 50.3241L124.262 54.6098L124.266 57.3263C124.266 57.3945 124.3 57.4286 124.37 57.4286L127.882 57.4537L129.481 57.4771C129.559 57.4771 129.6 57.5166 129.602 57.5956L129.629 58.2258L129.632 62.0392L129.581 65.4882L127.882 65.5475L124.339 65.6013C124.27 65.6025 124.235 65.6378 124.235 65.7073L124.269 69.0198L124.18 73.1259C123.584 77.5379 121.173 80.3495 116.947 81.5608C115.821 81.7344 114.699 81.8128 113.581 81.796H106.385L102.876 81.8014L99.3687 81.796H92.2179L91.6691 81.7798C91.5964 81.7774 91.5601 81.7397 91.5601 81.6667L91.5511 80.1334L91.5404 76.2679L91.5493 73.8243C91.5505 73.7513 91.5869 73.7076 91.6584 73.6933C91.8097 73.6634 91.9665 73.6664 92.1285 73.7023C99.3687 73.6807 106.609 73.6723 113.849 73.6771C114.838 73.6771 115.742 73.7795 116.059 72.7722C116.352 71.8422 116.175 70.1814 116.166 69.176V58.3137L116.171 54.6547L116.166 51.1321V43.9504L116.171 40.2931L116.166 36.8136V29.6319L116.171 25.9334L116.166 22.4503V11.6329C116.327 9.09597 115.878 8.69559 113.491 8.76741L110.116 8.76202L106.385 8.76741L102.966 8.76202L99.2346 8.76741H92.0838L88.664 8.76202L84.9331 8.76741H77.7823L74.3625 8.76202L70.6316 8.76741L67.2117 8.76202L63.4808 8.76741H56.33L52.9102 8.76202L49.1793 8.76741H42.0285L38.6087 8.76202L34.8777 8.76741L31.4579 8.76202L27.727 8.76741H17.0455C14.4409 8.71534 13.7079 8.61839 13.8348 11.588L13.8295 15.1645L13.8348 18.7697L13.8277 22.3031L13.8348 26.086L13.8295 29.4793V33.2946L13.8348 36.7687V40.4493L13.8295 43.8858L13.8348 47.5861V58.1342L13.8313 62.0195L13.8348 65.4954V69.0414C13.8134 70.0911 13.8205 71.1414 13.8563 72.1923C13.8813 72.9248 14.1781 73.6125 14.945 73.6646C15.9115 73.7304 17.7886 73.743 20.5762 73.7023L38.185 73.7166L38.2225 73.7633C38.2499 73.7944 38.2636 73.8309 38.2636 73.8728L38.2815 76.2679V79.9772L38.2672 81.7762L34.8777 81.796L31.3667 81.8014L27.7717 81.796H20.6209L16.9258 81.7852C15.8162 81.8259 14.7001 81.7763 13.5774 81.6362C12.3701 81.3944 11.1908 80.9372 10.0396 80.2645L9.00092 79.4476C7.01778 77.6426 5.94278 75.3858 5.77593 72.6771L5.73839 69.0934L5.71336 65.6175C5.71339 65.6029 5.70785 65.5888 5.69789 65.5781C5.68792 65.5674 5.67427 65.561 5.65973 65.56C4.67173 65.511 3.68493 65.5217 2.69931 65.5924L0.375315 65.5331L0.380678 57.7697C0.38187 57.5662 0.483768 57.4639 0.686373 57.4627L2.65462 57.4537L5.57034 57.4555C5.62155 57.4555 5.67066 57.4351 5.70687 57.3987C5.74307 57.3624 5.76341 57.3131 5.76341 57.2616L5.75269 54.7534L5.77772 51.1644L5.73839 47.5933L5.77593 43.2322L5.74554 40.4045L5.7795 36.7867L5.73124 33.2677L5.77593 29.614L5.78129 25.1416C5.78129 25.0746 5.74792 25.0411 5.68118 25.0411L0.537995 24.9962C0.49452 24.9957 0.452956 24.9782 0.422213 24.9473C0.391469 24.9164 0.373992 24.8747 0.373527 24.831L0.368164 22.4503V19.1736L0.373527 17.0048C0.373527 16.9724 0.386335 16.9413 0.409133 16.9185C0.43193 16.8956 0.462849 16.8827 0.49509 16.8827L2.69931 16.8773L5.55783 16.8791C5.71991 16.8791 5.79738 16.7983 5.79023 16.6367L5.73302 15.3602L5.73839 11.685C5.74435 10.4832 5.81883 9.28628 5.96185 8.09412C6.80921 4.39377 9.8036 1.43313 13.5595 0.808324C14.0225 0.756257 14.4802 0.69162 14.9468 0.69162L24.5091 0.673668H46.0061L49.2114 0.677256L52.71 0.673668H81.7152L84.8777 0.675462L88.866 0.673668H103.212L106.418 0.677256L109.916 0.673668H113.134C114.379 0.621002 115.616 0.695811 116.843 0.898095Z" fill="#F0F0F0"/>
<path d="M24.2067 16.7238H27.5118L31.4046 16.7256L34.6133 16.769C36.2914 17.1279 37.408 18.1239 37.963 19.7571C38.1119 20.1955 38.15 21.038 38.0774 22.2845C38.0238 23.4685 38.0327 24.6885 38.1042 25.9447L38.0917 29.7639C38.0202 30.8864 38.0244 31.992 38.1042 33.0808L38.0899 35.6101L38.0613 40.4301C38.34 44.2041 37.3628 46.6792 33.2287 46.6756C31.2933 46.6743 29.3579 46.6743 27.4224 46.6756C27.3992 46.6756 27.3769 46.6851 27.3605 46.702C27.3441 46.7189 27.3349 46.7419 27.3349 46.7659V54.9209L27.3402 58.1475L27.326 63.7028L27.2813 65.5853C27.2789 65.6467 27.2473 65.6781 27.1866 65.6793L24.1995 65.7353L20.6461 65.6865C20.4674 65.6883 19.2151 65.8563 19.2865 65.5546L19.2419 62.0769L19.2383 58.3914L19.2419 54.8504V47.624L19.2454 43.9367L19.2419 40.3976V33.1712L19.2454 29.4875L19.2419 25.9447C19.3086 24.7006 19.3091 23.4721 19.2436 22.2592C19.2311 20.8103 19.2097 19.9161 19.7975 18.7309L20.8229 17.5566C21.8699 16.8834 22.9978 16.6058 24.2067 16.7238ZM27.3402 34.5261L27.3367 38.3073C27.3364 38.3318 27.341 38.356 27.35 38.3787C27.359 38.4014 27.3724 38.422 27.3893 38.4395C27.4062 38.4569 27.4264 38.4708 27.4486 38.4804C27.4709 38.4899 27.4947 38.495 27.5189 38.4952L29.87 38.5151C29.9236 38.5163 29.9504 38.4898 29.9504 38.4356L30.0058 32.855L30.0147 25.0396C30.0147 25.0042 30.0008 24.9702 29.976 24.9451C29.9512 24.92 29.9176 24.9059 29.8825 24.9059H27.5082C27.4622 24.9059 27.4181 24.9242 27.3856 24.9567C27.3531 24.9893 27.3349 25.0334 27.3349 25.0794L27.3402 34.5261ZM41.8202 16.731L45.7792 16.7238C46.8225 16.7961 47.7854 16.6786 48.8717 16.8195L48.8395 18.6605L48.8216 22.4363L48.8234 25.0866V39.5394L48.8198 44.1463V47.6945L48.8234 51.2824V54.8504L48.8181 57.47C48.8181 57.4935 48.8273 57.516 48.8437 57.5326C48.8601 57.5492 48.8824 57.5586 48.9056 57.5586L52.702 57.5531C53.1784 57.5977 53.6501 57.5784 54.117 57.4953C54.1825 57.4845 54.2152 57.4453 54.2152 57.3779L54.2134 54.8956V22.476L54.2152 18.702L54.2188 16.8521C54.2188 16.8195 54.2316 16.7882 54.2544 16.7652C54.2771 16.7422 54.308 16.7292 54.3403 16.7292L56.2304 16.7238H59.9822L62.1868 16.7292C62.2024 16.7291 62.2179 16.7324 62.2323 16.7388C62.2466 16.7453 62.2594 16.7549 62.2699 16.7668C62.2803 16.7788 62.2882 16.7929 62.293 16.8082C62.2977 16.8235 62.2993 16.8397 62.2975 16.8557C62.2332 17.4362 62.238 18.027 62.3118 18.628V22.6477C62.2392 23.7015 62.2392 24.7554 62.3118 25.8092V58.6443L62.2672 61.8511C62.0337 63.7034 61.1392 64.9 59.5838 65.4408C59.1097 65.6058 58.4136 65.6895 57.4953 65.6919C54.7059 65.6967 51.9171 65.7136 49.1289 65.7425H45.6005C42.9921 65.8617 41.3932 64.6688 40.8036 62.1636L40.7697 58.4637L40.7733 54.8794L40.7697 51.1921V47.624L40.7733 43.9964L40.7697 40.3524V29.5579L40.7733 25.9682L40.7697 22.3315L40.775 18.6659L40.8251 16.9063C40.8275 16.834 40.8638 16.7955 40.9341 16.7906L41.8202 16.731ZM74.1405 16.7238L77.551 16.7328L81.376 16.7238C82.5605 16.7672 83.4109 16.6967 84.6096 17.3308C85.223 17.7668 85.7256 18.3347 86.1175 19.0344C86.5856 20.1853 86.498 21.2584 86.5195 22.467V33.3518L86.5141 35.6209C86.5141 35.6479 86.5036 35.6738 86.4849 35.6931C86.4662 35.7124 86.4408 35.7234 86.4141 35.7239L83.9629 35.7546C83.9034 35.7558 83.8736 35.7859 83.8736 35.8449L83.8397 41.1654L83.845 43.7976C83.845 43.8711 83.8813 43.9084 83.954 43.9096L84.7633 43.9241L86.5105 44.0253L86.5195 47.8047V54.9859L86.5123 58.5829L86.4748 62.0769C86.077 64.2195 84.8336 65.4143 82.7445 65.6612C82.4229 65.6991 81.9566 65.6612 81.5547 65.7425H74.1852C73.0501 65.7618 71.9187 65.7118 70.7907 65.5925L70.3513 65.4643C67.9144 64.4544 67.675 62.7146 67.6697 60.1077C67.6589 54.7619 67.5428 49.371 67.6214 44.0289C67.6226 43.9578 67.5881 43.9223 67.5178 43.9223L64.9845 43.9132L64.9791 40.506L64.9773 36.7844L64.9827 35.8612C64.9827 35.8356 64.9926 35.8111 65.0103 35.7928C65.028 35.7746 65.0521 35.7641 65.0774 35.7636L67.307 35.7383C67.3987 35.7624 67.4922 35.7612 67.5875 35.7347C67.6482 35.7179 67.678 35.6775 67.6768 35.6137C67.6411 29.7446 67.6512 24.7451 67.7072 20.6152C67.7131 20.1865 67.8156 19.7348 68.0145 19.2603C68.5135 18.1101 69.352 17.3272 70.5299 16.9117C71.7245 16.7226 72.928 16.66 74.1405 16.7238ZM75.752 29.7278L75.7502 33.1423V35.6914C75.75 35.705 75.7525 35.7186 75.7576 35.7313C75.7627 35.744 75.7703 35.7556 75.7799 35.7653C75.7895 35.7751 75.8011 35.7829 75.8137 35.7881C75.8264 35.7934 75.84 35.7962 75.8538 35.7962L78.2174 35.7781C78.2646 35.7776 78.3098 35.7584 78.3432 35.7247C78.3766 35.6909 78.3956 35.6452 78.3961 35.5974L78.4014 25.0956C78.4014 25.0453 78.3817 24.9971 78.3465 24.9615C78.3113 24.9259 78.2636 24.9059 78.2138 24.9059H75.8449C75.7841 24.9059 75.7538 24.9366 75.7538 24.9981L75.752 29.7278ZM75.7556 47.5789V54.9859L75.7252 57.3743C75.724 57.5044 75.7877 57.5688 75.9163 57.5676L78.2656 57.5423C78.3526 57.5411 78.3961 57.4965 78.3961 57.4086L78.4246 44.0921C78.4246 44.0235 78.3901 43.9855 78.321 43.9783L77.8476 43.9277L75.8377 43.9223C75.8145 43.9223 75.7922 43.9316 75.7758 43.9482C75.7594 43.9648 75.7502 43.9873 75.7502 44.0108L75.7556 47.5789ZM95.847 16.7238H106.254C107.571 16.6612 108.714 17.1056 109.684 18.0571L110.129 18.6388C110.761 19.8691 110.729 20.8411 110.727 22.3767L110.722 25.9068L110.727 29.6031C110.787 29.8368 110.768 30.0349 110.672 30.1975C110.637 30.2577 110.585 30.2878 110.516 30.2878L108.621 30.3185L106.304 30.3041L102.732 30.3257L102.629 29.5579L102.632 26.064V25.0523C102.632 25.0261 102.627 25.0002 102.617 24.9761C102.607 24.9519 102.592 24.9301 102.574 24.9117C102.556 24.8934 102.534 24.879 102.51 24.8693C102.486 24.8596 102.46 24.8549 102.434 24.8553L99.1521 24.9132L97.3781 24.9005C97.3114 24.9005 97.2709 24.933 97.2566 24.9981C97.197 25.2799 97.2048 25.5394 97.2798 25.7767L97.2834 29.6483V36.8747L97.2852 40.347L97.2834 44.0108V54.8504L97.2887 57.3942C97.2887 57.4688 97.3263 57.5074 97.4013 57.5098L99.2414 57.5531L102.455 57.5441C102.507 57.5436 102.557 57.5225 102.593 57.4853C102.63 57.448 102.65 57.3978 102.65 57.3454L102.634 54.8812L102.629 51.2372L102.622 47.7487L102.675 44.0578C102.676 43.9964 102.647 43.9656 102.586 43.9656H100.047C100.021 43.9656 99.9961 43.9552 99.9777 43.9365C99.9593 43.9179 99.9489 43.8926 99.9489 43.8663L100.017 35.9172C100.017 35.8269 100.061 35.7823 100.151 35.7835L106.273 35.7889C109.003 35.7094 110.779 37.5865 110.72 40.3235L110.727 44.056V58.4185L110.677 62.1058C110.263 64.4833 108.837 65.6817 106.4 65.7009L102.89 65.7244L100.537 65.728C98.9133 65.6582 97.2905 65.663 95.6684 65.7425C94.4142 65.7606 92.8188 65.8527 91.7058 65.3667C90.0348 64.6368 89.1987 63.2054 89.1975 61.0724C89.1915 48.2021 89.1892 35.3313 89.1903 22.4598C89.1915 21.0012 89.2856 19.9932 89.4726 19.4355C90.482 16.4293 93.2136 16.7653 95.847 16.7238Z" fill="#F0F0F0"/>
<path d="M59.8369 68.6918C61.5008 68.6573 61.3878 69.4286 61.447 70.9332C61.4949 72.1878 61.4745 74.9476 61.386 79.2125C61.3554 80.6862 61.4631 82.5119 61.3985 84.1689C61.4775 85.256 61.0988 86.2251 59.9662 86.4538C58.5589 86.2892 57.1344 86.311 55.6924 86.5191C55.1145 86.2541 54.6514 85.876 54.3032 85.3848C54.2661 85.3328 54.2487 85.2753 54.2511 85.2124C54.2744 84.6716 54.1919 84.109 54.1901 83.6226C54.1829 79.4896 54.1518 75.3565 54.0967 71.2235C54.0842 70.3125 54.0483 68.6174 55.3604 68.6265C56.8526 68.6386 58.3447 68.6604 59.8369 68.6918ZM56.8825 76.2307C56.8705 76.4267 56.9028 76.9064 56.9794 77.6699C57.0129 78.0123 56.9956 78.5809 56.9274 79.3758C56.8125 80.7079 56.9758 82.06 56.8861 83.423C56.8848 83.4409 56.8873 83.459 56.8932 83.476C56.8991 83.493 56.9084 83.5086 56.9205 83.5219C56.9326 83.5351 56.9473 83.5458 56.9636 83.5531C56.9799 83.5604 56.9975 83.5643 57.0153 83.5645L58.4441 83.5845C58.461 83.5848 58.4777 83.5815 58.4933 83.5749C58.5088 83.5682 58.5228 83.5583 58.5343 83.5458C58.5459 83.5333 58.5546 83.5185 58.5601 83.5023C58.5656 83.4861 58.5676 83.469 58.5661 83.452C58.5069 82.7188 58.3884 81.9874 58.4189 81.2615C58.4907 79.5337 58.5607 77.8187 58.5733 76.0946L58.6146 71.2834C58.6146 71.2671 58.6114 71.2509 58.605 71.2358C58.5987 71.2208 58.5895 71.2073 58.5779 71.196C58.5663 71.1848 58.5526 71.1762 58.5376 71.1706C58.5226 71.165 58.5066 71.1627 58.4907 71.1636L56.9668 71.2453C56.907 71.2489 56.8771 71.281 56.8771 71.3415L56.8825 76.2307ZM77.0413 83.5718C77.0306 83.629 77.0348 83.6879 77.0534 83.743C77.0721 83.7981 77.1045 83.8474 77.1477 83.8861C77.1909 83.9248 77.2433 83.9516 77.2998 83.964C77.3563 83.9763 77.4151 83.9737 77.4703 83.9565C77.9729 83.7992 78.4893 83.7756 79.0194 83.8857C79.0732 83.8966 79.1169 83.9245 79.1504 83.9692C79.4591 84.383 79.2635 85.6661 79.1971 86.1815C79.1875 86.2565 79.145 86.2947 79.0696 86.2959L74.6343 86.3685C74.5796 86.369 74.5267 86.3478 74.4872 86.3095C74.4476 86.2712 74.4244 86.2187 74.4225 86.1634C74.2915 81.697 74.419 77.2452 74.3651 72.7825C74.3597 72.2888 74.5284 71.7154 74.4531 71.0892C74.3609 70.3209 74.3585 69.549 74.4459 68.7735C74.4555 68.6924 74.5003 68.6507 74.5805 68.6483L76.9983 68.592C77.0513 68.5905 77.1027 68.6103 77.1414 68.647C77.1801 68.6837 77.2028 68.7344 77.2047 68.788C77.2729 71.0917 77.304 73.3911 77.298 75.6862C77.298 75.9403 77.2065 76.198 77.2065 76.4321C77.2017 78.3293 77.2011 80.2264 77.2047 82.1235C77.2065 82.6299 77.1275 83.1035 77.0413 83.5718ZM45.4775 68.6464C45.8616 68.621 46.2206 68.69 46.5544 68.8533C47.3083 71.7099 47.9832 74.5701 48.5791 77.4339C48.615 77.6033 48.6617 77.607 48.7191 77.4448C48.7802 77.273 48.8418 77.0238 48.904 76.6971C49.4006 74.1007 49.917 71.4728 50.453 68.8134C50.465 68.7558 50.4973 68.7046 50.5439 68.6692C50.5904 68.6338 50.6481 68.6167 50.7061 68.621L52.957 68.8007C53.0093 68.8047 53.0583 68.8282 53.0947 68.8667C53.1311 68.9052 53.1524 68.956 53.1544 69.0094C53.2459 71.3125 53.1544 74.1128 53.1634 75.9276C53.1813 79.3178 53.3501 82.8005 53.1006 86.1815C53.0971 86.2314 53.0753 86.2782 53.0396 86.313C53.0038 86.3478 52.9565 86.3682 52.9067 86.3703L50.8838 86.461C50.7992 86.465 50.7164 86.435 50.6536 86.3775C50.5907 86.3201 50.5528 86.2398 50.5482 86.1543C50.4261 83.971 50.6056 81.6989 50.5697 79.5591C50.5684 79.5225 50.554 79.4876 50.5291 79.4609C50.5042 79.4343 50.4705 79.4177 50.4344 79.4144C50.3983 79.411 50.3622 79.4211 50.3329 79.4428C50.3036 79.4644 50.2832 79.4961 50.2753 79.5319C49.8721 81.6287 49.3515 83.6964 48.7137 85.7351C48.7072 85.7577 48.6934 85.7775 48.6745 85.7914C48.6556 85.8053 48.6327 85.8125 48.6094 85.8119C48.586 85.8113 48.5635 85.8029 48.5454 85.788C48.5273 85.7731 48.5145 85.7526 48.5091 85.7296L46.7447 78.9149C46.7348 78.8776 46.7119 78.8451 46.6802 78.8236C46.6485 78.8021 46.6101 78.7929 46.5722 78.7978C46.5343 78.8026 46.4994 78.8212 46.4741 78.8501C46.4487 78.879 46.4345 78.9162 46.4342 78.9548L46.3839 86.0563C46.3827 86.112 46.3624 86.1597 46.3229 86.1997C46.1853 86.3376 46.0082 86.4047 45.7916 86.4011L44.2067 86.3412C44.1114 86.3371 44.0214 86.2966 43.955 86.2281C43.8885 86.1596 43.8508 86.0683 43.8495 85.9728L43.81 83.3994V79.9058C43.9189 78.6354 43.9338 77.365 43.8549 76.0946L43.7705 72.3415L43.8046 68.857C44.3527 68.7094 44.9103 68.6392 45.4775 68.6464ZM63.2922 68.6464H67.0167C68.0146 68.6555 69.3142 68.5303 69.2944 69.8007C69.249 72.7432 69.2334 74.6711 69.2478 75.5846C69.2513 75.8435 69.1143 76.1666 68.8367 76.5538C68.808 76.5961 68.7721 76.63 68.729 76.6554L68.6249 76.7189C68.5435 76.7673 68.5328 76.8284 68.5926 76.9022L69.3447 77.8241C69.3914 77.881 69.4147 77.9463 69.4147 78.0201C69.4207 78.999 69.4075 81.1998 69.3752 84.6226C69.3626 86.0182 68.5262 86.2705 67.2859 86.2777C66.0342 86.2874 64.7987 86.3116 63.5794 86.3503L62.8704 86.3303C62.8046 86.3279 62.771 86.2934 62.7699 86.2269L62.7214 83.7805C62.7226 82.1604 62.7064 80.521 62.6729 78.8622C62.6622 78.3468 62.3229 78.1254 62.305 77.6717C62.2816 77.0837 62.1973 76.0837 62.6406 75.6336C62.6849 75.5889 62.707 75.5344 62.707 75.4703L62.655 68.7789C62.6538 68.7063 62.6891 68.6688 62.7609 68.6664L63.2922 68.6464ZM66.6649 71.131C66.6649 71.0997 66.6527 71.0697 66.6312 71.0476C66.6097 71.0254 66.5804 71.013 66.55 71.013H65.5053C65.4287 71.013 65.3869 71.0511 65.3797 71.1273C65.2361 72.6095 65.2247 74.091 65.3456 75.5719C65.349 75.6124 65.3661 75.6505 65.3939 75.6796C65.4217 75.7088 65.4586 75.7271 65.4981 75.7316L66.5266 75.846C66.614 75.8556 66.6577 75.8157 66.6577 75.7262L66.6649 71.131ZM66.6505 78.5405C66.6504 78.5145 66.6453 78.4887 66.6354 78.4648C66.6255 78.4408 66.611 78.419 66.5927 78.4007C66.5745 78.3824 66.5529 78.3679 66.5291 78.358C66.5053 78.3481 66.4798 78.3431 66.4541 78.3432L65.4526 78.3468C65.4269 78.3469 65.4014 78.3521 65.3777 78.3622C65.354 78.3722 65.3325 78.3868 65.3144 78.4053C65.2963 78.4237 65.282 78.4456 65.2722 78.4696C65.2625 78.4936 65.2575 78.5194 65.2576 78.5454L65.2756 83.7612C65.2757 83.7872 65.2808 83.8129 65.2907 83.8369C65.3007 83.8609 65.3152 83.8826 65.3334 83.9009C65.3516 83.9192 65.3732 83.9337 65.397 83.9436C65.4208 83.9534 65.4463 83.9584 65.4719 83.9583L66.4735 83.9547C66.4992 83.9546 66.5246 83.9494 66.5483 83.9394C66.572 83.9293 66.5935 83.9147 66.6116 83.8963C66.6297 83.8778 66.6441 83.856 66.6538 83.8319C66.6636 83.8079 66.6685 83.7821 66.6684 83.7562L66.6505 78.5405ZM81.3312 68.6464L84.8367 68.7499C85.3262 68.7015 85.7904 68.7723 86.2296 68.9622L86.2117 71.0656C86.2117 71.137 86.1763 71.1751 86.1057 71.18L85.0108 71.2471L82.9556 71.2417C82.8874 71.2417 82.8444 71.275 82.8264 71.3415C82.7821 71.5121 82.775 71.6899 82.8049 71.8751L82.6451 75.6554C82.6427 75.7304 82.6786 75.7685 82.7528 75.7697L85.0144 75.7806L85.7845 75.8097C85.8479 75.8121 85.894 75.8423 85.9227 75.9004C85.9693 75.9936 85.9777 76.1067 85.9478 76.2398L85.9029 78.2343C85.9005 78.3057 85.864 78.3426 85.7934 78.345L84.0685 78.4158C83.6186 78.3323 83.201 78.3783 82.8156 78.5537C82.7313 80.1961 82.979 81.4557 82.8049 83.374L82.8174 83.7242C82.8198 83.7883 82.8527 83.8234 82.9162 83.8295C83.5863 83.8924 84.2282 83.8761 84.8421 83.7805C85.2143 83.9438 85.5344 84.0134 85.8024 83.9892C85.8382 83.9859 85.8742 83.9903 85.9082 84.002C85.9422 84.0138 85.9734 84.0327 85.9998 84.0575C86.0262 84.0823 86.0472 84.1124 86.0614 84.146C86.0756 84.1796 86.0828 84.2158 86.0824 84.2523L86.0555 86.2705C86.0555 86.3564 86.013 86.3987 85.928 86.3975L80.3548 86.3848C80.1502 86.3836 80.0473 86.2795 80.0461 86.0726C80.0377 84.1719 80.052 82.207 80.0891 80.178C80.1179 78.7279 79.233 77.4557 79.7768 75.9131C80.0371 75.1745 80.0945 73.9494 80.0461 73.1672C79.9575 71.7541 79.9497 70.3155 80.0227 68.8515C80.438 68.6834 80.8741 68.615 81.3312 68.6464ZM72.992 69.062C73.0045 70.013 73.1158 71.0348 73.1248 71.9059C73.1655 75.4304 73.1787 78.9548 73.1643 82.4792C73.1589 83.5464 73.071 84.9329 73.0871 86.1688C73.0876 86.1878 73.0805 86.2062 73.0674 86.2201C73.0544 86.234 73.0363 86.2423 73.0171 86.2432L70.7358 86.3557C70.5766 86.363 70.4629 86.2946 70.3947 86.1507C70.3086 85.968 70.2673 85.7466 70.2709 85.4864C70.3283 81.0872 70.348 75.6881 70.3301 69.2889C70.3289 69.0518 70.3893 68.8691 70.5114 68.7408C71.2736 68.7215 71.9934 68.7027 72.6707 68.6846C72.904 68.6773 73.0111 68.8031 72.992 69.062Z" fill="#F0F0F0"/>
</g>
</svg>
