<svg width="132" height="55" viewBox="0 0 132 55" fill="none" xmlns="http://www.w3.org/2000/svg">
<g opacity="0.9" clip-path="url(#clip0_315_3654)">
<path d="M104.021 0.69751H105.054C119.629 1.06453 131.242 12.5523 131.575 27.1033V28.1137C131.227 42.6067 119.61 54.1518 105.013 54.479H104.046C93.0934 54.2326 83.4374 47.5846 79.3822 37.4613C79.3737 37.4404 79.3783 37.4228 79.377 37.3993C79.3761 37.3885 79.3702 37.383 79.3593 37.383H79.3429C79.3354 37.383 79.3319 37.3865 79.3324 37.3934C79.5789 42.447 78.3409 47.7932 74.1152 51.0422C71.6449 52.9418 68.4186 53.8578 65.3234 53.8584C57.5816 53.8602 49.8406 53.8604 42.1005 53.8591C42.0909 53.8591 42.0817 53.8554 42.075 53.8488C42.0682 53.8422 42.0644 53.8332 42.0644 53.8239V1.31551C42.0644 1.30712 42.0661 1.29881 42.0693 1.29106C42.0725 1.28331 42.0773 1.27627 42.0832 1.27033C42.0892 1.2644 42.0963 1.2597 42.1041 1.25649C42.1119 1.25327 42.1202 1.25162 42.1287 1.25162C49.3241 1.25206 56.5269 1.25184 63.7372 1.25097C64.2994 1.25097 64.7361 1.25901 65.0474 1.27509C68.6527 1.46414 72.4568 2.62061 75.3205 4.82402C79.0353 7.68259 80.3357 11.8586 79.9108 16.405C79.9095 16.4193 79.916 16.426 79.9304 16.4252C79.9374 16.4247 79.9442 16.4245 79.9508 16.4245C79.9617 16.4245 79.9672 16.4191 79.9672 16.4082V16.3795C79.9672 16.3674 79.9698 16.3559 79.975 16.345C84.4047 6.93486 93.5538 0.964136 104.021 0.69751ZM55.1304 14.094L55.1297 21.9885C55.1297 21.9936 55.1307 21.9987 55.1327 22.0034C55.1348 22.0082 55.1377 22.0125 55.1414 22.0161C55.1451 22.0198 55.1495 22.0226 55.1544 22.0246C55.1593 22.0266 55.1645 22.0276 55.1697 22.0276C57.6646 22.0358 60.1661 22.0343 62.6742 22.023C62.8906 22.0217 63.0818 21.9963 63.248 21.9467C65.4887 21.2772 66.2559 19.1032 65.9326 16.9832C65.713 15.5419 64.8874 14.4343 63.3883 14.1481C63.1326 14.099 62.6971 14.0749 62.082 14.0757C59.7663 14.0788 57.4548 14.0792 55.1474 14.077C55.1429 14.077 55.1385 14.0788 55.1354 14.082C55.1322 14.0852 55.1304 14.0895 55.1304 14.094ZM117.903 27.5876C117.903 25.8427 117.558 24.1148 116.886 22.5027C116.214 20.8905 115.23 19.4257 113.988 18.1918C112.747 16.958 111.274 15.9792 109.652 15.3115C108.03 14.6437 106.292 14.3 104.537 14.3C100.992 14.3 97.5923 15.6999 95.0857 18.1918C92.579 20.6838 91.1708 24.0635 91.1708 27.5876C91.1708 31.1117 92.579 34.4915 95.0857 36.9834C97.5923 39.4753 100.992 40.8752 104.537 40.8752C106.292 40.8752 108.03 40.5315 109.652 39.8638C111.274 39.196 112.747 38.2172 113.988 36.9834C115.23 35.7495 116.214 34.2847 116.886 32.6726C117.558 31.0604 117.903 29.3326 117.903 27.5876ZM71.8246 27.2382C71.8578 27.2617 71.8854 27.2773 71.9072 27.2851C72.4493 27.482 72.9836 27.6978 73.5099 27.9325C75.2958 28.7287 76.7107 29.9679 77.7546 31.6502C77.801 31.725 77.8176 31.7189 77.8045 31.632C77.401 28.9253 77.4021 26.2188 77.8077 23.5126C77.808 23.5094 77.8072 23.5062 77.8055 23.5035C77.8038 23.5008 77.8012 23.4987 77.7982 23.4975C77.7952 23.4963 77.7919 23.4961 77.7887 23.497C77.7856 23.4978 77.7829 23.4996 77.7809 23.5022C76.5939 25.2219 74.9769 26.351 72.9296 26.8894C72.7656 26.9325 71.8758 27.1111 71.8174 27.1926C71.8148 27.1959 71.8129 27.1998 71.8119 27.204C71.8108 27.2081 71.8106 27.2124 71.8113 27.2167C71.812 27.2209 71.8135 27.225 71.8158 27.2287C71.8181 27.2324 71.8211 27.2356 71.8246 27.2382ZM65.869 35.9814C65.5936 34.6581 64.572 33.6913 63.2427 33.4951C63.077 33.4708 62.6407 33.4582 61.9338 33.4573C59.6728 33.4543 57.4227 33.4538 55.1835 33.456C55.1692 33.4562 55.1555 33.4619 55.1454 33.4719C55.1353 33.4819 55.1297 33.4954 55.1297 33.5094L55.1304 41.4489C55.1303 41.4569 55.132 41.4647 55.1353 41.4719C55.1386 41.4791 55.1434 41.4855 55.1494 41.4906C55.1699 41.508 55.1898 41.5117 55.209 41.5017C55.2239 41.4943 55.2397 41.4906 55.2563 41.4906C57.7289 41.4893 60.202 41.4893 62.6755 41.4906C62.8923 41.4911 63.0838 41.4669 63.2499 41.4183C65.6599 40.7162 66.3228 38.1646 65.869 35.9814ZM0.423828 53.8434V1.28031L0.452681 1.26205C0.463611 1.2551 0.475414 1.25162 0.488092 1.25162H14.998C15.0067 1.25162 15.0151 1.25506 15.0212 1.26117C15.0274 1.26728 15.0308 1.27557 15.0308 1.28422V21.0693C15.0308 21.0779 15.0343 21.0862 15.0404 21.0923C15.0466 21.0985 15.0549 21.1019 15.0636 21.1019H24.3262C24.3349 21.1019 24.3432 21.0985 24.3494 21.0923C24.3555 21.0862 24.359 21.0779 24.359 21.0693V1.28422C24.359 1.27557 24.3624 1.26728 24.3686 1.26117C24.3747 1.25506 24.3831 1.25162 24.3917 1.25162H38.9332C38.9419 1.25162 38.9502 1.25506 38.9563 1.26117C38.9625 1.26728 38.966 1.27557 38.966 1.28422V53.8271C38.966 53.8358 38.9625 53.8441 38.9563 53.8502C38.9502 53.8563 38.9419 53.8597 38.9332 53.8597H24.3917C24.3699 53.8597 24.359 53.8489 24.359 53.8271V34.4169C24.359 34.4082 24.3555 34.4 24.3494 34.3938C24.3432 34.3877 24.3349 34.3843 24.3262 34.3843H15.08C15.067 34.3843 15.0544 34.3894 15.0452 34.3986C15.036 34.4078 15.0308 34.4202 15.0308 34.4332V53.8278C15.0308 53.8354 15.0278 53.8427 15.0224 53.8481C15.017 53.8534 15.0096 53.8565 15.002 53.8565L0.423828 53.8434Z" fill="#F0F0F0"/>
<path d="M104.216 38.8652C110.212 38.8652 115.073 34.0106 115.073 28.0221C115.073 22.0337 110.212 17.1791 104.216 17.1791C98.2202 17.1791 93.3594 22.0337 93.3594 28.0221C93.3594 34.0106 98.2202 38.8652 104.216 38.8652Z" fill="#F0F0F0"/>
</g>
<defs>
<clipPath id="clip0_315_3654">
<rect width="131.151" height="53.7815" fill="white" transform="translate(0.423828 0.69751)"/>
</clipPath>
</defs>
</svg>
