<svg width="213" height="65" viewBox="0 0 213 65" fill="none" xmlns="http://www.w3.org/2000/svg">
<g clip-path="url(#clip0_833_9719)">
<path fill-rule="evenodd" clip-rule="evenodd" d="M113.918 41.5972C118.117 41.6056 121.124 41.9095 121.126 46.4291C121.128 50.9641 117.971 51.2581 113.836 51.2524L113.918 41.5972ZM123.311 55.3621C124.446 54.2822 125.163 54.183 126.307 52.7188C129.242 48.9625 128.649 42.4887 125.893 39.3901C121.449 34.3939 114.635 35.3981 106.87 35.4024L106.877 64.304L113.826 64.2268L113.826 57.3844L116.625 57.3618C117.043 58.2851 120.545 63.8664 121.43 64.2992L129.068 64.2954C127.777 61.464 124.822 58.1608 123.311 55.3621L123.311 55.3621ZM18.9258 29.7455L25.5927 29.8623L25.5914 19.6953L36.6025 19.6197L36.6 29.7433C38.7637 30.004 41.0767 29.8608 43.2659 29.8521L43.2658 1.1724L36.5993 1.22576L36.6001 13.5668L25.5915 13.5114L25.5897 1.17804L18.928 1.18793L18.9257 29.7456L18.9258 29.7455ZM176.795 13.4881L176.697 2.57754C174.449 2.30969 171.967 2.25813 169.836 2.95575L169.813 31.3708L176.648 31.3545C177.066 26.4103 175.481 22.9892 178.803 21.1145C180.77 23.4529 183.834 28.6855 185.862 31.3333L194.122 31.3707C193.483 29.4986 184.03 16.9906 183.511 15.5845L188.236 9.11654C189.028 8.04194 192.815 3.2619 192.914 2.47044C182.73 2.44591 186.273 1.35398 181.153 7.83711C180.236 8.99841 177.645 12.8416 176.795 13.4881H176.795ZM89.1036 41.6046L101.8 41.5984L101.797 35.4013C95.3466 35.4013 96.1483 35.6385 91.0587 37.8414C88.3556 39.0113 84.9 40.9028 82.3113 41.7078L82.3137 64.2977L102.399 64.299L102.198 58.105L89.0494 57.9901L89.0493 53.2864L100.262 53.2816L100.277 47.2217L89.0577 47.1665L89.1036 41.6047L89.1036 41.6046ZM197.129 54.7654C195.373 55.5084 192.914 56.9822 191.37 58.0283C196.523 67.639 208.701 65.6748 211.726 60.1472C214.222 55.5865 211.941 51.0779 209.231 49.0158C207.837 47.9547 205.978 47.1142 204.106 46.3305C201.814 45.3706 199.713 44.9146 200.321 42.1456C201.068 41.4191 201.907 40.8608 203.491 41.4563C204.73 41.922 204.907 42.7666 205.751 43.793C206.765 43.4384 210.364 41.0756 211.082 40.3735C209.831 36.5015 204.31 33.8445 198.873 35.5521C194.554 36.9086 191.758 41.7057 193.948 46.9291C195.787 51.3185 200.215 51.5986 204.373 54.1378C209.282 57.1349 200.363 61.7528 197.129 54.7655L197.129 54.7654ZM152.229 55.2238C152.242 54.1719 154.192 49.4724 154.753 48.6628C155.281 49.4838 157.287 54.2291 157.291 55.2204L152.229 55.2238ZM147.798 64.2976C148.776 63.9137 149.035 62.6849 149.535 61.1299L160.083 61.1374L161.313 64.298L168.696 64.2977L156.9 38.2322C156.214 36.6442 155.381 33.6917 153.88 35.7632L141.463 64.2892L147.798 64.2977L147.798 64.2976ZM63.1882 20.7717C61.8087 21.0112 59.2346 23.0265 57.651 23.6193C61.6414 32.7705 78.5523 32.6325 78.7697 21.9114C78.8881 16.0716 74.9076 14.1328 70.5922 12.2515C68.9061 11.5165 65.3891 10.5013 66.3128 8.06282C66.798 6.78239 68.4049 6.518 69.7695 6.99072C70.8401 7.36169 71.2889 8.50182 72.1707 9.22288C73.8926 8.34591 75.6845 7.07671 77.2733 5.97904C71.3107 -4.48243 55.2714 2.34317 60.4059 12.8654C62.5577 17.2753 68.7487 18.1953 70.9849 19.9389C73.3279 21.7658 71.753 24.163 68.6891 24.1806C65.6082 24.1983 64.6219 22.4562 63.1881 20.7717H63.1882ZM14.2389 54.7328C16.1962 53.8927 21.282 47.9229 23.5567 46.4759L23.5605 61.7054L28.0576 61.6832L28.0415 35.2739C27.1341 35.764 15.3469 47.4852 14.763 48.1167C13.0799 47.3246 3.71642 37.5743 0.961601 35.2766C0.648079 39.9097 0.889587 56.0014 0.889587 61.7767C2.74654 61.7955 3.73127 61.9525 5.38275 61.591L5.38889 46.8254C7.40238 48.0384 8.3578 49.44 10.0349 50.8703C11.4519 52.0788 12.984 53.4238 14.2389 54.7328L14.2389 54.7328ZM156.21 8.93889C156.76 9.53893 159.908 11.394 158.344 15.7C157.496 18.0357 154.237 18.6276 151.348 18.2158L151.348 11.19L144.382 14.173L144.398 31.3119L151.26 31.3728L151.356 24.5437L154.192 24.4398C155.152 26.5633 157.308 29.2717 158.59 31.3491L166.563 31.3691C165.751 29.3926 161.775 24.4055 160.839 22.5023C162.024 21.1962 164.914 20.2829 165.635 15.4544C166.382 10.4568 164.61 8.59155 163.23 6.01962L156.21 8.93894V8.93889ZM96.8043 24.8765L96.8066 6.14216C104.327 6.16493 109.283 7.51122 109.405 15.2927C109.547 24.3511 102.725 24.8765 96.8043 24.8765ZM92.0919 28.8426C97.643 28.8565 103.516 29.4686 107.922 26.9317C116.536 21.9716 116.419 9.02838 108.026 4.13338C103.503 1.49565 97.8043 2.20136 92.0908 2.1802L92.0919 28.8426ZM171.196 64.2977L190.535 64.2965L190.535 64.0094L190.538 58.1018L177.944 58.0983L177.936 35.4006L171.198 35.4002L171.196 64.2977ZM132.154 64.2971L138.888 64.2976L138.886 35.4014L132.441 35.4002L132.151 35.4035L132.154 64.2971ZM48.4104 29.8513L55.1484 29.8517L55.1463 22.7905L55.1474 15.8727L55.1465 1.1734L48.4104 1.17217V29.8513ZM130.308 20.3954L130.836 22.1003C128.841 22.4613 127.145 21.8417 125.29 22.5959C123.81 23.1972 122.351 23.9316 120.908 24.5705C119.125 25.3602 117.381 25.7796 116.795 26.8322C116.436 27.4777 115.105 30.5961 114.983 31.3659L121.667 31.3675C122.35 30.0355 122.558 28.4149 123.459 28.1975L133.021 28.1964C133.93 28.4027 134.082 29.8053 134.827 31.3693L142.027 31.3672C141.812 30.2647 136.479 18.6084 135.918 17.9787L130.308 20.3955V20.3954ZM44.6435 44.4321C45.3418 45.3589 48.8071 53.4047 49.0447 54.7254L40.3467 54.6528L44.6435 44.4321ZM38.742 58.4619C42.2392 58.4618 43.4923 57.4582 46.3148 56.1585C48.1458 55.3155 51.6175 54.1233 53.1099 53.025L44.7563 34.9888L33.0191 61.9535C34.1244 61.6672 35.262 61.0725 36.2988 60.6053C38.1344 59.778 38.2188 60.2688 38.7419 58.4619H38.742ZM117.992 24.4987C124.407 22.5353 123.455 21.4539 125.971 15.4928C126.414 14.4446 127.163 12.1808 127.805 11.5148L130.947 18.7624L134.748 17.1558L127.942 2.08299C126.967 3.61677 126.117 5.89472 125.337 7.65743C123.51 11.784 119.079 21.3695 117.992 24.4987ZM57.0308 38.6442L64.9267 38.644L64.9534 47.8819L69.6332 45.9389L69.6395 38.6638L77.6126 38.5742L77.5508 34.6839L57.0979 34.6756L57.0322 35.7615L57.0308 38.6442ZM64.1981 64.2683L71.014 64.2999L71.0133 64.0094L70.9762 46.6079L64.2052 49.7772L64.1981 64.2683ZM39.1392 64.2818C39.4501 63.3384 39.899 61.3169 40.8766 61.1267L50.4387 61.127C51.4267 61.6288 51.8091 63.3058 52.1219 64.2966L59.5473 64.2718L54.8394 53.8374L31.5126 64.291L39.1391 64.2818L39.1392 64.2818ZM144.54 2.61357L144.542 12.7066L149.227 10.7323L149.27 6.1441C152.229 6.14443 153.384 5.9986 155.948 6.93926C157.418 7.4785 157.222 7.17865 158.679 6.52941C159.116 6.33439 159.47 6.23084 159.912 6.02644L161.184 5.09753C158.926 3.91909 158.576 2.86622 154.461 2.33313C151.568 1.95828 147.557 2.18351 144.542 2.18351L144.54 2.61352L144.54 2.61357ZM82.2605 40.3017C82.9443 40.1215 92.7199 36.0298 93.7036 35.1491L82.2413 35.1137L82.2605 40.3018V40.3017Z" fill="#FEFEFE"/>
</g>
<defs>
<clipPath id="clip0_833_9719">
<rect width="212" height="64" fill="white" transform="translate(0.800781 0.764771)"/>
</clipPath>
</defs>
</svg>
