<svg width="209" height="70" viewBox="0 0 209 70" fill="none" xmlns="http://www.w3.org/2000/svg">
<g clip-path="url(#clip0_833_9699)">
<path fill-rule="evenodd" clip-rule="evenodd" d="M0.800781 63.1974C0.800781 65.08 0.994438 65.2943 1.15064 66.6317C1.318 68.0655 0.929886 69.0882 2.47117 69.0882H32.9613C34.913 65.373 38.0506 64.6175 39.6437 57.7289H16.2543C16.4312 55.5862 17.527 53.6885 18.1884 51.6839L23.508 36.8477C23.9583 35.4846 24.2332 35.0294 24.666 33.8067C25.3513 31.868 26.0837 29.9566 26.7492 27.9111L33.3789 9.7666H22.5198C19.7146 15.1075 20.0079 9.9689 15.8956 21.606L3.36534 56.1056C2.95013 57.2809 0.800781 62.4067 0.800781 63.199V63.1974ZM110.648 53.5215H120.672C121.399 50.3746 125.799 39.8059 126.519 36.6919C127.578 38.2277 130.278 51.769 130.278 53.5215H140.302L149.908 26.5945C150.643 24.7835 152.793 19.1134 152.832 17.3385H143.226C142.639 19.8793 137.739 31.6456 136.961 35.0093C136.285 33.936 133.513 18.6823 133.202 17.3385C121.886 17.3385 123.998 16.636 122.401 21.1838C121.123 24.8228 119.682 28.1993 118.42 31.8985L110.648 53.5215ZM162.856 44.6853H157.844C158.474 43.3639 159.071 41.6427 159.568 40.111L164.527 26.1731H169.539L162.856 44.6853ZM144.061 53.5207H168.704L171.555 50.0824C175.357 45.2737 174.68 43.5798 177.474 36.6911L182.311 22.8239C182.342 21.5812 181.762 18.4479 181.233 17.3376H157.008L144.061 53.5207H144.061ZM57.6036 53.5215H70.1339C71.6696 53.5215 71.8042 51.0505 71.8042 49.7348H72.2218C72.2218 51.4776 71.7883 52.0532 71.7971 54.3556L71.3867 69.0882H74.3106L77.2888 60.7281C78.6356 56.6459 85.9476 37.1969 86.0057 34.5878H75.9818C75.5905 36.2809 75.0247 37.2555 74.4652 38.9502C73.9663 40.4602 73.1726 42.0369 73.0586 43.4233H70.9706C71.1882 40.7926 76.1659 29.8514 76.4002 27.0144H88.5129C89.1425 25.693 89.7386 23.9718 90.2367 22.4401C90.7611 20.8257 91.6991 19.2129 91.8545 17.3376H70.9706C69.4684 19.5967 66.699 21.2464 65.4734 24.4214C64.9123 25.8736 64.4254 27.415 63.8141 29.0615C63.2523 30.5763 62.7111 32.2413 62.0298 33.9954L58.6882 43.2515C58.312 44.2204 58.2411 44.2782 57.8626 45.3652C55.8981 51.0072 57.6051 47.6836 57.6051 53.5199L57.6036 53.5215Z" fill="#FEFEFE"/>
<path fill-rule="evenodd" clip-rule="evenodd" d="M42.9851 25.7532H44.2379V26.1739C42.0296 26.1739 43.6155 26.1707 42.9851 25.7532ZM42.9851 25.7532C40.8915 25.7532 40.4142 25.3326 37.9731 25.3326C37.8401 26.9405 36.2247 30.3901 35.6214 32.2196L27.9492 53.5223H52.1738C54.94 41.5624 60.4676 43.8455 43.4027 43.8455C43.6139 42.9328 44.2777 41.2726 44.6555 40.4795H54.6794L58.021 30.3821H48.4147C48.582 28.3542 49.0825 29.0438 49.2499 27.016H61.7802L63.9223 20.7583C65.3505 16.4257 66.9069 17.3393 55.5154 17.3393H32.5436C32.0598 18.3548 31.8311 19.2555 31.2908 20.2847C33.1046 21.2512 34.9583 22.054 37.0088 22.9387C39.0594 23.8241 41.7945 24.7112 42.9851 25.754V25.7532ZM83.0816 53.5215H107.306C107.652 52.0259 108.257 50.2341 108.848 48.7634C109.483 47.1819 110.186 45.826 110.229 43.8447H98.5343C98.8491 42.484 99.2444 41.9991 99.3695 40.4787H109.811L113.153 30.3813H103.546C103.671 28.8616 104.067 28.3767 104.381 27.0152H116.912C117.283 25.4088 117.846 23.8988 118.418 22.2218C119.07 20.3136 119.785 19.6143 119.835 17.3385H96.0279C95.6366 19.0307 95.0708 20.0061 94.5113 21.7008C93.8913 23.5777 93.4355 24.5266 92.8409 26.3288L83.0808 53.5215H83.0816ZM181.651 34.5879C183.443 35.0695 189.294 40.05 191.675 41.3192C191.236 42.2416 190.947 42.9745 190.84 44.2646H177.892L174.551 53.5207H194.181C197.483 48.5523 197.908 51.924 201.646 40.4241C202.235 38.613 203.213 36.8991 203.37 35.0085L196.27 30.7995C195.423 30.2143 194.975 29.8233 193.763 29.5383C193.792 28.2563 193.952 28.0042 194.181 27.0136H205.457L207.184 22.4425C207.706 20.959 208.655 19.0733 208.798 17.3369H190.421C184.747 25.8728 188.873 15.8525 183.32 29.5383C182.718 31.0243 182.035 32.9165 181.65 34.587L181.651 34.5879ZM46.7443 10.1857L48.5374 4.41847C49.1765 3.12117 48.8323 3.49125 50.5034 3.45433C50.3648 5.13134 49.7471 6.07621 49.308 7.29885C49.1614 7.70586 48.8402 8.95901 48.7111 9.22152C48.072 10.5188 48.4163 10.1487 46.7451 10.1857H46.7443ZM42.1499 13.9724H50.5034C50.7927 13.5373 51.0382 13.1295 51.337 12.7088C53.6402 9.47199 55.5154 3.95125 55.5154 0.0882568H45.9091C45.4014 1.15355 45.0348 2.47894 44.5272 3.74493L41.8885 11.1915C41.3498 12.6984 40.2404 13.9724 42.1507 13.9724H42.1499ZM180.816 61.5148V61.9355L180.329 61.5846L180.816 61.5148ZM180.816 61.5148C180.816 56.8522 182.54 57.3074 177.057 57.3074C177.057 61.0275 176.11 65.3842 175.804 69.0882H179.146C179.445 67.9595 179.845 67.5959 180.48 66.6462L182.069 64.4602V69.0882H184.993C186.643 65.9486 191.536 59.7198 192.094 57.3074H188.752L185.828 61.9355C185.971 60.2111 186.246 59.6451 186.246 57.3074H183.322L180.815 61.5148H180.816ZM129.443 64.8809L129.567 65.0061C129.559 64.9981 129.401 64.9226 129.443 64.8809ZM120.254 69.0882H123.596C123.948 68.3481 124.848 66.2689 124.848 65.3015H125.266C125.266 67.4313 124.982 67.465 124.848 69.0882H127.355C127.677 67.6954 128.475 66.4367 129.443 65.7222C129.103 67.1905 128.804 67.9186 128.19 69.0882H131.949C132.123 66.9818 133.129 65.2839 133.784 63.3636C134.303 61.8431 135.604 58.5702 135.708 57.3082H131.948L129.024 61.5156C129.024 56.3922 130.801 57.3082 124.43 57.3082L120.253 69.0891L120.254 69.0882ZM149.073 62.3561C149.462 60.6727 149.182 60.7176 151.161 60.6735C150.783 62.3079 151.048 62.3561 149.073 62.3561ZM152.832 69.0874H150.331C148.236 69.0313 148.656 68.5865 148.656 65.7214H147.82C147.481 67.1897 147.182 67.9178 146.568 69.0874H142.808L146.021 60.1228C146.484 58.9764 146.697 58.5485 146.985 57.3074C148.659 57.3074 150.333 57.3211 152.006 57.2986C154.524 57.2649 156.784 56.4252 154.226 62.4982C152.237 67.2186 152.29 62.5303 152.832 69.0882V69.0874ZM159.933 62.3561C160.322 60.6727 160.042 60.7176 162.021 60.6735C161.643 62.3079 161.908 62.3561 159.933 62.3561ZM153.668 69.0874H157.427C158.145 67.5798 157.851 66.6422 159.098 65.7214L159.515 69.0874H163.692C162.95 67.5293 163.599 66.8589 162.857 65.3007C165.174 63.7377 166.199 59.21 166.199 58.99C166.199 58.0259 166.057 58.5012 165.781 57.3074H157.845L155.704 63.1444C155.068 65.0984 154.173 66.9071 153.668 69.0882V69.0874ZM53.845 13.9724H61.3634L62.6767 9.78507L58.4394 9.765C58.8729 7.8897 59.9727 5.96302 60.1098 4.29564H64.7041C65.0946 2.60578 65.7872 2.14017 65.9569 0.0882568H58.4386C55.9481 3.83404 55.7226 5.27745 54.0937 10.0307C53.1541 12.7698 53.7837 11.2333 53.8442 13.9724H53.845ZM168.704 65.7222C168.809 64.4562 169.181 63.484 169.573 62.3898C170.12 60.8629 169.969 60.72 172.046 60.6735C169.873 65.2349 171.795 65.6531 168.704 65.7222ZM171.628 69.0882H165.61C164.9 68.9269 164.527 68.5664 164.527 67.8263C164.527 66.4736 165.842 63.6542 166.352 62.0904C167.612 58.2274 167.781 59.3232 169.122 57.3074C173.447 57.3074 175.805 56.6556 175.805 58.5694C175.805 61.7275 173.408 66.4102 171.628 69.0874V69.0882ZM137.796 65.7222C137.901 64.4562 138.273 63.484 138.665 62.3898C139.212 60.8629 139.061 60.72 141.138 60.6735C140.857 61.8881 140.499 62.3922 140.057 63.7915C139.389 65.9084 139.86 65.6756 137.797 65.7222H137.796ZM140.72 69.0882H134.702C133.992 68.9269 133.62 68.5664 133.62 67.8263C133.62 66.9175 135.025 63.3636 135.444 62.0904C135.807 60.985 136.051 60.2006 136.539 59.4067C137.116 58.4666 137.576 58.2683 138.214 57.3082C142.538 57.3082 144.896 56.6564 144.896 58.5702C144.896 61.8038 142.505 66.4029 140.72 69.0882H140.72ZM86.8408 65.7222H84.7528C85.3895 64.51 86.2837 62.3625 86.4232 60.6735H88.5112C88.1055 61.5244 86.9268 64.6738 86.8408 65.7222ZM80.9936 69.0882H88.0944C89.7799 66.5523 89.026 68.5207 90.5442 64.404C93.6411 56.0061 93.1183 57.3082 85.588 57.3082C83.504 60.4439 84.6101 57.0441 82.723 62.4163C81.8615 64.868 80.9936 65.7744 80.9936 69.0891V69.0882ZM115.242 65.7222C115.371 64.156 115.712 64.0404 116.218 62.499C116.78 60.7907 116.492 60.7208 118.583 60.6735C117.288 66.2705 116.681 65.6901 115.241 65.7222H115.242ZM111.483 69.0882H118.166C120.253 65.9502 118.501 69.8525 120.673 64.4602C124.15 55.8279 122.502 57.3074 115.661 57.3074C113.069 61.2057 115.261 56.54 112.737 62.7768C111.849 64.97 110.928 66.6855 111.484 69.0874L111.483 69.0882ZM90.1824 69.0882H93.9415C94.3766 68.1747 95.0963 66.4937 95.1943 65.3015H98.5359C98.8507 63.9408 99.246 63.4559 99.3711 61.9355H96.4471C97.3261 60.2617 95.6557 60.6735 101.041 60.6735C101.534 59.6395 101.842 58.852 101.877 57.3074H94.3583L90.1816 69.0882H90.1824ZM104.801 61.0941H106.889L103.965 69.0882H107.724C108.462 65.8988 110.067 63.0698 110.23 61.0941H112.737C112.917 58.9186 113.518 59.7712 113.572 57.3074H106.053C105.774 58.5124 105.277 60.0931 104.801 61.0941ZM67.2097 8.08237C67.2097 10.0917 68.5972 8.38422 69.2977 11.0278H65.9561C65.262 14.0294 64.0172 13.9732 68.8801 13.9732C71.659 13.9732 72.6393 10.3213 72.6393 8.92449C72.6393 8.1201 71.2845 7.83431 70.5513 7.66251L73.4753 6.8212C74.1455 3.92235 75.3489 3.87579 70.9689 3.87579C69.591 3.87579 69.0036 4.28199 68.4482 5.12251C68.2202 5.46771 67.2097 7.54611 67.2097 8.08317V8.08237ZM65.9569 2.19155C65.9322 2.49339 65.8462 3.08023 65.8326 3.26326C65.6979 5.10003 65.9888 4.25309 65.1217 5.55762C67.46 5.50544 68.6896 4.08852 68.8809 1.77089C67.558 1.77089 66.8941 1.82548 65.9569 2.19155Z" fill="#FEFEFE"/>
</g>
<defs>
<clipPath id="clip0_833_9699">
<rect width="208" height="69" fill="white" transform="translate(0.800781 0.0882568)"/>
</clipPath>
</defs>
</svg>
