<svg width="252" height="53" viewBox="0 0 252 53" fill="none" xmlns="http://www.w3.org/2000/svg">
<g clip-path="url(#clip0_833_9468)">
<path fill-rule="evenodd" clip-rule="evenodd" d="M30.4481 2.8364C27.8892 2.8364 16.3199 1.92849 19.8136 6.75254C21.5411 6.10561 19.7728 6.52685 21.1785 4.8066L27.3599 4.62428C27.4749 7.78321 28.35 20.2918 26.2199 21.4482C25.8479 21.6503 25.8122 21.593 25.4358 21.7503C24.0497 22.3296 24.7122 21.7481 24.3315 22.6141C25.9986 22.9905 27.582 22.5795 29.3481 22.5751L34.1739 22.3619C33.1576 21.4621 33.3855 21.9201 32.367 21.5378C30.4721 20.8262 30.8652 18.4612 30.8404 15.3258C30.8128 11.8589 30.7247 8.09271 30.8805 4.65295C33.2188 4.53312 37.594 4.12879 39.5006 5.07346C39.9913 8.38604 40.0816 17.1644 39.4482 20.4167C38.9998 22.7214 38.274 21.1394 37.4419 22.7045L43.8002 22.7053C42.481 20.6049 41.9467 23.6654 41.9467 17.918C41.9467 14.4451 41.2449 11.2311 45.4978 11.5045C49.0475 11.7332 48.2846 15.5059 48.2846 19.0288C48.2846 21.7746 48.0749 21.0585 47.0011 22.6861L52.8142 22.7428C51.487 20.5755 50.794 23.7617 50.727 18.6649C50.6811 15.1494 51.3349 10.1938 46.916 9.8284C44.657 9.64167 43.3466 10.9069 42.0362 11.5781L42.3711 1.72338C40.8613 1.77337 39.5254 2.83419 37.0488 2.8511C34.8524 2.86581 32.6451 2.8364 30.4466 2.8364H30.4481ZM91.6693 20.8777C88.6073 21.4768 87.3909 23.2735 84.061 20.4425C82.5453 19.1538 80.7756 15.85 81.0988 12.8587L92.8231 12.8609C95.275 12.9822 94.5252 13.9496 94.5157 20.8814L94.483 27.1933C94.5339 29.3745 94.8331 28.9577 94.9401 29.1356C97.0695 29.3613 96.233 18.8185 96.2338 15.3258L95.845 10.3555L81.018 10.1636C80.7618 6.78782 83.2726 2.61806 85.8024 2.23137C89.5566 1.65722 91.3722 5.44544 91.9364 8.71465C93.3924 8.00817 95.208 5.0367 96.4274 3.80386C97.4342 2.78641 97.4808 3.29513 97.5434 1.66678C96.6167 1.92114 94.3381 4.40447 93.5227 5.28665C92.0464 4.20525 89.2487 -0.795969 83.3476 1.34993C80.052 2.54822 77.6292 5.96372 77.0337 10.1305C75.0572 23.9572 89.5858 25.8752 91.6678 20.8769L91.6693 20.8777ZM234.043 20.1911C233.292 20.652 233.949 20.0051 233.194 20.8012C232.838 23.0589 230.5 22.2671 229.427 21.0328C228.664 15.9573 229.383 6.96941 229.508 1.67854C228.493 1.83807 226.616 2.47103 225.612 3.10546L226.884 4.26773C226.89 4.2817 228.005 20.8814 225.71 21.7863C224.385 22.309 223.252 21.8341 222.318 21.2364C221.541 16.1683 222.172 6.97308 222.38 1.60429C221.081 2.06523 219.307 2.47177 218.378 3.2025L219.68 4.16702C220.086 7.5465 220.069 18.6046 219.282 21.629C217.996 22.2032 218.187 21.7496 217.427 22.767C221.669 22.7861 225.654 22.5251 229.956 22.745C233.848 22.9442 238.452 24.0006 240.548 21.21C243.291 17.557 237.825 15.5736 236.371 14.3804C233.52 12.039 236.299 8.3162 239.259 12.2309L240.215 13.1241C240.334 12.8205 240.723 12.5801 240.312 11.2053C239.473 8.39853 234.17 10.0467 233.307 11.8971C232.702 16.4212 236.805 16.9432 238.714 18.9406C239.038 20.7226 238.722 22.1899 236.897 22.2531C235.026 22.3186 234.865 21.1607 234.045 20.1896L234.043 20.1911ZM164.166 13.6115C162.236 13.3498 161.345 15.1273 159.418 18.1665C158.382 19.8 155.791 22.5406 155.798 24.6005C157.363 24.2873 157.387 23.8925 158.108 22.7707C158.906 21.529 159.335 21.2695 159.79 20.0367C161.743 20.9174 162.527 22.2083 165.105 23.0412C167.741 23.8925 169.672 23.3581 171.78 22.1583C176.881 19.2552 176.475 14.0143 172.21 11.7773C168.971 10.0791 161.258 9.31306 163.255 4.64339C164.005 2.88786 166.233 1.29773 168.489 2.57836C169.716 3.27455 171.01 6.07546 171.459 8.03096C172.869 7.31713 172.642 6.90986 173.929 5.04626C174.717 3.90604 175.993 2.93197 175.23 1.77926C174.026 2.30709 174.834 1.83733 173.99 2.88418L172.591 4.25818C171.865 2.79303 170.097 1.06469 167.616 0.799303C161.87 0.185454 154.914 7.80894 166.564 12.6852C168.418 13.4608 171.149 14.5613 171.717 15.9764C173.38 20.1161 167.57 25.3525 163.596 19.7345C161.449 16.7013 163.344 15.7044 164.166 13.6115H164.166ZM119.321 20.9233C111.829 23.0706 111.119 14.4547 113.873 11.8067C115.609 10.1379 118.831 11.0142 119.634 13.0189C120.405 14.9436 119.869 19.2787 119.321 20.9225V20.9233ZM119.195 21.7319L119.791 21.285L119.945 23.1809C121.419 23.0603 123.801 22.7244 124.638 22.0833C123.541 21.0196 123.612 22.0105 122.672 21.4165C121.605 20.7432 122.388 3.0812 122.407 1.69839L118.001 2.72466C119.142 4.87056 120.351 2.14757 119.797 9.69166C118.059 10.035 109.878 9.43803 109.812 16.8064C109.764 22.1973 114.856 24.424 119.195 21.7319H119.195ZM207.278 11.2039C212.633 8.38898 214.744 19.9882 210.322 21.8422C205.451 23.8844 202.277 13.8335 207.278 11.2039ZM207.356 10.082C198.017 12.4419 202.291 24.9636 210.6 22.8097C218.685 20.7137 216.035 7.88908 207.356 10.082ZM10.6394 48.5648L12.0845 48.9655C12.6137 49.0081 13.3876 48.9898 13.9452 49.0037C14.5189 49.0177 15.2505 49.003 15.8023 49.042C16.2311 49.0721 16.4138 49.0964 16.8302 49.178L17.3784 49.4117C19.8267 48.9199 42.8327 49.4647 47.3171 49.5051C48.8022 49.5183 74.9349 50.2799 76.3807 49.3963C76.1929 47.6738 77.4967 48.0054 72.9875 48.0921L43.6495 48.431C38.8629 48.4862 13.1488 49.0647 10.6387 48.5648H10.6394ZM56.3951 15.4273C56.7271 11.9206 59.2896 9.0484 61.9679 11.5928L62.0662 13.2887C60.7646 13.9754 58.336 15.1237 56.3951 15.4273ZM64.5887 19.4765C60.6881 22.6347 56.9986 20.5123 56.5327 16.791C58.3542 15.9897 63.132 14.9208 64.5013 13.8452C64.6928 7.59869 54.5329 8.94034 54.0314 16.0882C53.4198 24.7938 64.3303 24.449 64.5894 19.4772L64.5887 19.4765ZM128.274 15.4229C128.594 11.8978 131.154 9.06972 133.84 11.5986L133.939 13.2836C132.641 13.968 130.203 15.1215 128.273 15.4229H128.274ZM136.463 19.4765C135.259 20.4388 134.173 21.5989 131.455 20.7218C129.599 20.1227 128.682 18.9942 128.404 16.7851C130.213 16.0036 135.018 14.9083 136.374 13.8452C136.562 7.57811 126.402 8.94622 125.902 16.0867C125.292 24.8144 136.219 24.4329 136.463 19.4765ZM222.04 49.5183C223.835 48.3958 239.174 49.9646 242.375 48.6178C239.358 49.0559 188.822 48.309 180.07 48.087C175.918 47.9811 177.14 47.9495 176.958 49.3963C178.035 49.9852 178.219 49.8036 179.702 49.7639C187.924 49.5463 218.809 49.025 222.04 49.5183ZM101.567 2.98637C102.14 4.15158 102.151 3.76342 102.942 4.58679C103.11 8.0883 103.091 11.4545 103.006 14.9561C102.969 16.5072 102.99 18.3671 102.834 19.8558C102.532 22.742 102.061 21.2394 100.665 22.5531L107.634 22.753C106.38 20.91 105.413 22.4288 105.343 19.0479C105.302 17.0748 105.331 15.0803 105.331 13.105C105.331 9.19985 105.454 5.51749 105.575 1.65134L101.566 2.98711L101.567 2.98637ZM188.929 19.9624C186.746 20.6189 185.438 21.9091 182.829 20.3337C179.287 18.1959 180.179 11.7596 183.56 11.0855C185.898 10.6187 186.18 13.2755 188.654 12.5359C189.917 7.7119 178.07 9.52184 178.106 16.8072C178.144 24.3101 187.343 24.6005 188.929 19.9632V19.9624ZM139.884 11.3127C141.115 12.5992 141.206 11.6707 141.347 14.2114L141.12 21.1776C140.548 22.6156 140.286 21.2923 139.306 22.7538L145.934 22.7626C144.634 21.0556 143.841 22.9515 143.694 19.042C143.619 17.049 143.273 14.7245 143.874 12.8454C146.088 11.3112 146.084 12.3786 148.25 12.7991C148.63 12.1132 148.856 11.9243 148.868 10.8833C146.837 9.29615 145.071 11.3987 143.765 12.0662L143.146 9.77326C142.187 10.1085 140.548 10.7157 139.885 11.3134L139.884 11.3127ZM191.906 11.2142C193.671 13.5843 193.333 11.1833 193.333 18.659C193.333 23.0581 192.712 20.8395 191.332 22.767L197.957 22.7464C196.413 21.0416 195.863 22.8302 195.717 19.0383C195.643 17.0909 195.42 14.9965 195.768 13.1042C198.153 11.1105 197.798 12.4352 200.248 12.7536C200.631 12.0302 200.859 11.8515 201.018 10.7231C198.639 9.6152 197.533 11.009 195.838 12.0904L195.142 9.78429C194.14 10.2019 192.712 10.6334 191.904 11.2149L191.906 11.2142ZM102.459 46.4336L101.689 52.4773C101.665 52.4192 101.604 52.6376 101.561 52.6751L104.209 52.7243C103.617 51.5966 104.385 52.6545 103.19 51.6187L103.145 47.2129L105.792 49.9557C106.739 51.1474 107.05 52.109 108.511 52.7074L108.545 46.4579C108.838 45.3978 108.532 46.3741 108.971 45.6764L106.694 45.2236C106.76 45.3059 106.851 45.4133 106.896 45.4662C108.126 46.9159 107.756 46.0734 107.707 50.4064C105.835 48.7486 104.82 46.9755 103.057 45.2214L101.365 45.4074L102.46 46.4336H102.459ZM91.9758 50.9298C88.6663 54.0307 86.1875 50.4262 87.3297 47.26C88.2382 44.7406 93.1405 44.6325 91.9758 50.9298ZM85.8694 49.7668C86.5944 54.3431 94.4786 53.619 93.4114 48.0164C92.5232 43.3578 85.0278 44.4554 85.8694 49.7668ZM146.141 45.4566C146.155 45.4662 146.641 45.783 146.645 45.786C147.166 46.2315 146.779 45.8646 147.24 46.4336L147.174 51.6179C147.133 51.6598 146.701 52.1347 146.614 52.2443C145.629 53.4903 147.293 50.9283 146.362 52.6604L148.993 52.7383C148.442 51.7098 148.936 52.4575 147.974 51.6187L147.897 47.2254C149.35 48.1208 151.769 52.1597 153.255 52.7523C153.262 48.7303 152.7 46.7468 154.178 45.217L151.879 45.6632C152.881 46.8247 152.642 48.3891 152.468 50.3946C151.589 49.4933 150.85 48.9449 150.055 47.8613C149.539 47.157 149.497 47.0945 148.904 46.4336C148.718 46.2263 148.457 45.9161 148.395 45.847C147.774 45.1589 148.305 45.7029 147.795 45.203L146.141 45.4552V45.4566ZM163.323 45.9609C163.724 46.6513 164.33 51.6672 162.646 52.6802L168.199 52.5244L168.66 50.8901C167.107 51.4746 167.814 52.2737 165.769 51.9796C165.091 51.8818 165.221 51.776 164.838 51.6084L164.834 49.1934C166.429 49.0133 166.32 49.2868 167.193 50.0307L167.233 47.5746C165.891 48.4141 166.764 48.5913 164.81 48.4259L164.891 45.919C167.591 45.6566 166.674 45.8264 168.378 46.9468L168.207 45.3089L162.804 45.2317L163.323 45.9617L163.323 45.9609Z" fill="#FEFEFE"/>
<path fill-rule="evenodd" clip-rule="evenodd" d="M222.04 49.5184C224.826 50.1051 250.145 49.539 251.999 48.7899L242.375 48.6171C239.174 49.9639 223.835 48.3951 222.04 49.5177V49.5184ZM17.3791 49.4111L16.8309 49.1773C16.4153 49.095 16.2325 49.0714 15.803 49.0413C15.2505 49.0023 14.5196 49.017 13.9459 49.0031C13.3883 48.9898 12.6144 49.0075 12.0852 48.9648L10.6401 48.5642C7.59418 47.9974 3.23133 48.7068 0.00195312 48.8215C1.74404 49.5331 14.7263 49.8007 17.3799 49.4103L17.3791 49.4111ZM118.517 45.2891C119.451 46.3301 119.463 45.9088 119.469 47.5445C119.483 51.2636 119.867 51.2122 118.534 52.667L123.828 52.531L124.266 50.9093C123.188 51.2798 123.787 51.1732 122.859 52.0091L120.736 51.8576C120.095 44.9987 121.163 46.1426 121.31 45.4655C121.344 45.3075 121.449 45.2898 121.519 45.2126L118.516 45.2884L118.517 45.2891ZM133.586 45.345C134.421 46.1786 134.504 46.0867 134.508 47.5445C134.517 51.1776 134.909 51.2137 133.611 52.6288L136.542 52.7332C135.834 51.4467 136.698 53.003 136.056 52.0194C135.499 51.1637 134.896 47.2453 136.559 45.209L133.586 45.345ZM243.511 11.2524C243.535 10.2571 243.529 10.8011 243.525 11.0569C243.525 11.0613 243.509 11.3223 243.511 11.2524ZM244.978 11.8295L244.892 9.8564C240.737 9.34841 241.832 13.9005 244.978 11.8295ZM119.945 23.181L119.791 21.285L119.195 21.732L119.717 22.6473C119.748 22.7127 119.805 22.856 119.829 22.9126C119.855 22.97 119.899 23.0957 119.945 23.1817V23.181ZM233.193 20.8013C233.949 20.0044 233.292 20.6521 234.043 20.1911C233.583 19.7897 234.418 19.7037 233.401 19.9279L233.193 20.8013Z" fill="#FEFEFE"/>
<path fill-rule="evenodd" clip-rule="evenodd" d="M243.512 11.2524C243.51 11.3222 243.526 11.0612 243.526 11.0568C243.529 10.8017 243.536 10.2577 243.512 11.2524Z" fill="#FEFEFE"/>
</g>
<defs>
<clipPath id="clip0_833_9468">
<rect width="252" height="52" fill="white" transform="translate(0 0.764771)"/>
</clipPath>
</defs>
</svg>
