<svg width="88" height="107" viewBox="0 0 88 107" fill="none" xmlns="http://www.w3.org/2000/svg">
<g clip-path="url(#clip0_315_3659)">
<path d="M44.2458 0.278442H44.4104C45.1794 0.43523 45.7878 0.570864 46.2354 0.685343C51.5865 2.04765 56.9123 3.50702 62.2126 5.06345C63.146 5.3377 64.0658 5.62639 64.9718 5.92952C64.9902 5.93577 65.007 5.94623 65.0208 5.96007C65.0346 5.97392 65.0452 5.9908 65.0516 6.0094L67.1846 12.2294C67.1884 12.2407 67.1948 12.2509 67.2032 12.2592C67.2116 12.2675 67.2217 12.2737 67.2329 12.2772L76.4328 15.0926C76.4438 15.0961 76.4539 15.1022 76.4621 15.1105C76.4702 15.1189 76.4763 15.1291 76.4796 15.1404L78.004 20.4316C78.0072 20.4433 78.0132 20.454 78.0215 20.4627C78.0298 20.4715 78.0401 20.478 78.0516 20.4816L87.8748 23.6152V26.0036C87.2874 42.965 81.7961 59.5748 73.2786 74.0918C65.7947 86.8476 55.8787 98.1609 44.0615 106.884C44.0489 106.893 44.0337 106.898 44.0181 106.898C44.0024 106.898 43.9872 106.893 43.9744 106.884C38.8579 103.105 34.1244 98.8971 29.774 94.2592C16.6547 80.2715 6.89739 62.7277 2.46822 43.8266C0.972319 37.4431 0.150856 30.6728 0.125985 23.9997C0.125731 23.9821 0.130976 23.965 0.140965 23.9506C0.150954 23.9362 0.165173 23.9254 0.181579 23.9198L10.29 20.4809C10.3012 20.477 10.3113 20.4703 10.3192 20.4615C10.3272 20.4526 10.3327 20.4418 10.3354 20.4301L11.5489 15.1673C11.5582 15.1285 11.5816 15.1033 11.6192 15.0919L20.7942 12.2802C20.8069 12.2762 20.8185 12.2694 20.828 12.2602C20.8375 12.2509 20.8448 12.2396 20.8491 12.2271L22.9836 6.00343C22.9919 5.97854 23.0084 5.96286 23.0333 5.95639C29.6869 4.2489 36.2638 2.24202 42.924 0.554687C43.2156 0.480524 43.6562 0.388443 44.2458 0.278442ZM47.152 9.54757C47.1062 9.42414 47.0186 9.37934 46.8894 9.41319C46.8843 9.41465 46.8797 9.41771 46.8764 9.42194C46.8731 9.42616 46.8711 9.43134 46.8708 9.43676C46.8704 9.44218 46.8718 9.44757 46.8746 9.45217C46.8774 9.45678 46.8816 9.46037 46.8865 9.46246L47.0752 9.5416C47.0862 9.5462 47.0957 9.55406 47.1023 9.56417C47.109 9.57427 47.1125 9.58617 47.1125 9.59834V94.1263C47.1125 94.138 47.1097 94.1493 47.1045 94.1591C47.0879 94.193 47.0859 94.2216 47.0986 94.245C47.1007 94.2488 47.1037 94.252 47.1072 94.2545C47.1108 94.2569 47.1148 94.2585 47.1191 94.2591C47.1233 94.2597 47.1277 94.2592 47.1317 94.2578C47.1358 94.2564 47.1395 94.2541 47.1425 94.251C50.994 90.3537 54.6766 86.2919 58.1902 82.0656C61.495 78.0906 64.6053 73.9358 67.347 69.5338C69.4061 66.227 71.2421 62.6821 72.4184 58.9424C73.0716 56.8668 73.4256 54.7815 73.362 52.5738C73.3498 52.1303 73.2842 51.7135 73.1652 51.3233C73.075 51.0266 73.0121 50.7981 72.9765 50.6379C72.1485 46.8877 69.1128 44.6165 65.7019 43.5137C65.6955 43.5116 65.6899 43.5078 65.6855 43.5027C65.6811 43.4976 65.6782 43.4914 65.677 43.4848C65.6758 43.4782 65.6764 43.4715 65.6787 43.4652C65.681 43.459 65.685 43.4536 65.6901 43.4495C65.8138 43.3495 65.9052 43.2211 66.0449 43.1412C70.7667 40.431 77.2104 35.3369 74.6809 28.8078C73.855 26.6755 72.4454 24.8224 70.8347 23.2321C68.701 21.1252 66.2922 19.3423 63.77 17.752C58.5567 14.4647 52.911 11.8083 47.19 9.5864C47.172 9.57943 47.1593 9.56649 47.152 9.54757ZM35.01 67.0446C34.6277 65.7091 34.2419 64.3695 33.8528 63.0256C29.4755 47.903 27.6461 32.169 27.6359 16.4253C27.6359 16.396 27.6241 16.3897 27.6007 16.4067C25.6794 17.7924 23.7582 19.1781 21.8373 20.5638C21.5769 20.7514 21.3567 20.9239 21.1768 21.0812C21.1568 21.0986 21.1468 21.121 21.1468 21.1484C21.1461 33.0881 22.195 45.0503 24.8416 56.6981C24.865 56.8004 24.8547 56.9146 24.8577 57.0221C24.8581 57.0471 24.8492 57.0714 24.8328 57.09L22.4233 59.8577C22.4193 59.8621 22.4142 59.8652 22.4085 59.8664C22.4028 59.8677 22.3968 59.867 22.3915 59.8647C22.3861 59.8623 22.3817 59.8582 22.3787 59.8531C22.3757 59.8479 22.3744 59.842 22.375 59.8361C22.3925 59.6845 22.3991 59.6225 22.323 59.4896C20.3575 56.0545 18.8594 52.3722 17.6422 48.525C15.5038 41.7692 14.2023 34.8571 13.7375 27.7887C13.7371 27.7806 13.7346 27.7727 13.7302 27.7658C13.7259 27.759 13.7199 27.7534 13.7128 27.7497C13.7057 27.7459 13.6978 27.7441 13.6899 27.7444C13.6819 27.7447 13.6741 27.7471 13.6673 27.7514C11.96 28.8123 10.3471 30.142 8.83218 31.4642C8.81554 31.4789 8.80242 31.4972 8.79379 31.5178C8.78517 31.5384 8.78129 31.5606 8.78243 31.583C9.34422 44.2014 12.911 56.4569 19.1623 67.3671C19.8099 68.498 20.5665 69.7786 21.4321 71.2091C21.4453 71.2305 21.4596 71.2315 21.4752 71.2121C23.1611 69.1002 24.895 67.0304 26.6769 65.0026C26.692 64.9852 26.7054 64.9864 26.7171 65.0063C26.8888 65.295 26.9973 65.518 27.0426 65.6753C29.357 73.7207 32.4681 81.5541 36.8577 88.635C38.0759 90.6005 39.4177 92.4743 40.8831 94.2562C40.8867 94.2607 40.8915 94.264 40.897 94.2656C40.9024 94.2672 40.9083 94.267 40.9136 94.265C40.9189 94.263 40.9235 94.2594 40.9267 94.2546C40.9299 94.2498 40.9316 94.2441 40.9314 94.2383V9.48038C40.9314 9.47559 40.9301 9.47089 40.9277 9.46675C40.9254 9.4626 40.922 9.45916 40.918 9.45675C40.9139 9.45434 40.9093 9.45304 40.9046 9.453C40.8999 9.45296 40.8953 9.45416 40.8912 9.45649C38.7223 10.6727 36.4203 11.6246 34.2397 12.8132C34.1632 12.855 34.1256 12.92 34.1271 13.0081L35.051 67.0386C35.0512 67.0438 35.0496 67.0488 35.0465 67.0527C35.0433 67.0567 35.0388 67.0593 35.0337 67.06C35.0287 67.0608 35.0235 67.0596 35.0191 67.0567C35.0147 67.0539 35.0115 67.0496 35.01 67.0446Z" fill="#F0F0F0"/>
<path d="M62.6408 24.6268C64.8161 26.0285 67.6751 28.3834 67.9178 31.2376C68.1428 33.893 65.3161 36.147 63.2997 37.3019C60.4789 38.9172 57.3352 39.972 54.1878 40.7351C53.8856 40.8088 53.6326 40.9561 53.3613 41.0953C53.3574 41.0972 53.3531 41.098 53.3488 41.0978C53.3445 41.0975 53.3403 41.0962 53.3367 41.0939C53.333 41.0917 53.33 41.0885 53.3279 41.0848C53.3257 41.081 53.3246 41.0768 53.3245 41.0725V20.295C53.3244 20.2906 53.3255 20.2862 53.3277 20.2823C53.3299 20.2785 53.333 20.2752 53.3368 20.273C53.3406 20.2707 53.345 20.2695 53.3494 20.2695C53.3538 20.2695 53.3582 20.2707 53.362 20.2729C53.6348 20.4283 53.879 20.5381 54.1996 20.6404C57.1881 21.597 60.0019 22.9258 62.6408 24.6268ZM53.4106 76.1964C53.39 76.218 53.3723 76.2327 53.3576 76.2406C53.3513 76.2439 53.3442 76.2453 53.3372 76.2446C53.3301 76.2438 53.3235 76.2409 53.3181 76.2363C53.3127 76.2317 53.3088 76.2256 53.3069 76.2187C53.305 76.2119 53.3053 76.2046 53.3076 76.1979C53.3115 76.1866 53.315 76.1755 53.3179 76.1647C53.3223 76.148 53.3245 76.1308 53.3245 76.1132V48.9296C53.3245 48.9185 53.3276 48.9075 53.3334 48.8979C53.3392 48.8883 53.3476 48.8804 53.3576 48.8751C53.626 48.7344 53.8385 48.6018 54.1503 48.5694C55.9681 48.3794 57.7884 48.3531 59.6111 48.4906C61.6834 48.6468 63.849 49.2095 65.3279 50.7166C68.1311 53.5752 65.6911 59.0156 64.1219 61.8809C61.4966 66.6731 58.0257 71.0403 54.4276 75.1291C54.1113 75.4885 53.7518 75.8414 53.4106 76.1964Z" fill="#F0F0F0"/>
</g>
<defs>
<clipPath id="clip0_315_3659">
<rect width="87.7488" height="106.619" fill="white" transform="translate(0.125977 0.278442)"/>
</clipPath>
</defs>
</svg>
