<svg width="180" height="134" viewBox="0 0 180 134" fill="none" xmlns="http://www.w3.org/2000/svg">
<g opacity="0.9" clip-path="url(#clip0_315_3662)">
<path d="M44.4855 45.7579C48.3486 45.7272 52.2608 45.9508 56.1954 45.9859C56.425 45.9888 56.574 46.0443 56.6426 46.1525C56.7052 46.2519 56.7245 46.3819 56.7007 46.5427C56.692 46.5988 56.6643 46.6505 56.6222 46.6894C56.58 46.7283 56.5258 46.7523 56.4682 46.7575C55.2401 46.854 54.2505 47.3626 53.4993 48.2833C53.4038 48.4027 53.3518 48.5493 53.3518 48.6998V61.7523C53.3517 61.9341 53.3055 62.1131 53.2173 62.2731C53.1291 62.433 53.0017 62.569 52.8465 62.6686C46.9625 66.4743 35.2123 66.0315 29.2031 63.015C21.8391 59.3189 18.0073 50.8614 18.7629 42.9212C19.4425 35.7614 23.6409 30.2984 30.5444 27.7598C37.8458 25.0722 45.5541 26.4576 53.003 27.5055C53.3637 27.5581 53.5277 27.7613 53.4949 28.1149C53.2415 30.8333 52.9211 33.4727 52.5336 36.0332C52.4948 36.308 52.3532 36.4497 52.1088 36.4585C52.0325 36.461 51.9578 36.4368 51.898 36.3902C51.8382 36.3436 51.7972 36.2777 51.7824 36.2042C49.9358 27.694 39.907 26.6155 33.1153 29.382C20.9001 34.3628 20.6274 49.7609 29.5116 57.8151C33.7264 61.6354 38.8786 63.1363 44.9684 62.3179C46.1428 62.16 47.2159 61.6339 48.1876 60.7395C48.23 60.7008 48.2638 60.654 48.2869 60.6019C48.31 60.5499 48.3218 60.4937 48.3217 60.437V48.9147C48.3215 48.6146 48.2275 48.3218 48.0524 48.0757C47.8774 47.8295 47.6296 47.6419 47.3425 47.538L44.3603 46.4594C44.2813 46.4284 44.2155 46.3716 44.1741 46.2987C44.1327 46.2258 44.118 46.1411 44.1327 46.0588C44.1474 45.9766 44.1905 45.9018 44.2547 45.847C44.3189 45.7922 44.4004 45.7608 44.4855 45.7579ZM100.889 55.1537C100.908 55.198 100.941 55.2357 100.981 55.2622C101.022 55.2887 101.07 55.3028 101.119 55.3028C101.168 55.3028 101.216 55.2887 101.257 55.2622C101.298 55.2357 101.33 55.198 101.35 55.1537C104.716 47.6257 107.949 39.5188 112.532 32.5871C112.565 32.5388 112.612 32.5017 112.667 32.4807C112.722 32.4598 112.782 32.456 112.839 32.4699C112.897 32.4838 112.948 32.5148 112.987 32.5585C113.025 32.6022 113.049 32.6566 113.055 32.7142C113.753 40.5492 114.325 48.7524 115.8 56.4822C116.248 58.8103 116.976 60.2177 119.592 60.0643C119.692 60.0589 119.791 60.0773 119.882 60.1177C119.973 60.1581 120.053 60.2195 120.115 60.2966C120.434 60.6883 120.422 60.89 120.079 60.9017C117.37 61.004 114.654 60.9894 111.933 60.8579C111.882 60.8552 111.833 60.841 111.789 60.8163C111.745 60.7917 111.707 60.7573 111.678 60.7157C111.65 60.6742 111.631 60.6267 111.624 60.5768C111.617 60.527 111.622 60.4761 111.638 60.4282C112.148 58.9609 112.329 57.3927 112.183 55.7237C111.757 50.9037 111.218 46.1729 110.565 41.5313C110.535 41.315 110.472 41.3048 110.377 41.5006L100.97 60.6912C100.946 60.7382 100.911 60.7785 100.867 60.808C100.823 60.8376 100.772 60.8554 100.719 60.8598C100.665 60.8643 100.612 60.8551 100.564 60.8332C100.515 60.8114 100.473 60.7775 100.442 60.7351C96.2392 54.9564 93.248 48.0509 90.373 41.5839C90.3579 41.5488 90.3309 41.5198 90.2966 41.5018C90.2623 41.4838 90.2227 41.4779 90.1845 41.4851C90.1463 41.4923 90.1117 41.5121 90.0866 41.5413C90.0615 41.5704 90.0474 41.6071 90.0466 41.6453C90.0079 42.4842 89.9259 43.3289 89.8007 44.1795C89.133 48.7744 88.7082 53.3912 88.5264 58.0299C88.4593 59.7398 89.9169 59.8451 91.0794 60.3975C91.1491 60.4292 91.2053 60.4838 91.2384 60.5517C91.2715 60.6196 91.2795 60.6968 91.261 60.7698C91.2425 60.8429 91.1987 60.9074 91.137 60.9523C91.0753 60.9971 90.9996 61.0196 90.923 61.0157C85.1104 60.7468 79.2979 60.719 73.4854 60.9324C73.4328 60.9342 73.3811 60.9184 73.3388 60.8876C73.2965 60.8569 73.2661 60.8129 73.2526 60.763C73.2391 60.7131 73.2433 60.6601 73.2645 60.6129C73.2856 60.5656 73.3226 60.5267 73.3692 60.5027L74.7821 59.7749C75.1845 59.5674 75.3037 59.2561 75.1398 58.841L71.8222 50.4273C71.7745 50.3075 71.6865 50.2475 71.5584 50.2475H64.1944C64.118 50.2477 64.0435 50.2703 63.9805 50.3125C63.9175 50.3548 63.869 50.4146 63.8411 50.4843C62.3657 54.0883 61.4476 56.795 61.0869 58.6043C60.8604 59.7442 61.3626 60.2791 62.5937 60.209C62.6559 60.2049 62.7178 60.2212 62.7696 60.2553C62.8214 60.2894 62.8602 60.3394 62.8798 60.3975L62.9737 60.7044C63.0512 60.9441 62.9633 61.0478 62.7099 61.0157C60.0481 60.662 57.3878 60.6679 54.7289 61.0332C54.553 61.0566 54.4666 60.9821 54.4696 60.8096V60.6562C54.4696 60.4808 54.5575 60.38 54.7334 60.3536C57.0494 60.0248 58.0465 58.7577 58.905 56.583C61.996 48.7671 64.9366 40.8956 67.7266 32.9685C67.8011 32.761 67.8801 32.628 67.9635 32.5695C68.0024 32.5428 68.047 32.525 68.0938 32.5174C68.1406 32.5098 68.1885 32.5127 68.2337 32.5258C68.2789 32.5389 68.3204 32.5619 68.3549 32.593C68.3895 32.6241 68.4162 32.6626 68.433 32.7054C71.6433 41.0446 74.6703 49.397 78.824 57.3372C80.0804 59.7486 81.918 60.7921 84.6097 59.9766C85.0836 59.8319 85.486 59.3145 85.5397 58.9068C86.735 50.2022 87.7514 41.4816 88.589 32.7449C88.5953 32.6799 88.6213 32.6182 88.6636 32.5676C88.7058 32.5171 88.7624 32.4801 88.8262 32.4613C88.89 32.4425 88.9581 32.4427 89.0218 32.462C89.0854 32.4813 89.1418 32.5187 89.1837 32.5695C89.7679 33.2827 90.297 34.069 90.7709 34.9283C94.4522 41.5605 97.8249 48.3023 100.889 55.1537ZM67.6997 38.7603L64.6772 48.086C64.6146 48.2848 64.6892 48.3842 64.9008 48.3842H70.6954C70.7235 48.3838 70.7511 48.3772 70.7762 48.3647C70.8012 48.3522 70.823 48.3343 70.8399 48.3123C70.8567 48.2902 70.8682 48.2647 70.8734 48.2376C70.8786 48.2106 70.8773 48.1827 70.8698 48.1562L67.9993 38.7603C67.9039 38.4417 67.8041 38.4417 67.6997 38.7603ZM127.126 47.1872V57.0566C127.126 57.2391 127.2 57.4142 127.332 57.5432C129.983 60.1388 135.415 60.3624 136.591 56.0744C136.639 55.9108 136.746 55.8523 136.913 55.8991L137.03 55.9298C137.191 55.9736 137.258 56.0774 137.231 56.2411L136.582 59.9941C136.469 60.6518 136.074 60.9792 135.398 60.9762L121.22 60.9324C121.076 60.9324 120.996 60.8622 120.978 60.7219C120.972 60.6869 120.971 60.6489 120.974 60.6079C120.983 60.4706 121.057 60.3916 121.197 60.3712C122.601 60.1637 123.305 59.373 123.308 57.9992C123.331 50.4346 123.334 42.9372 123.317 35.5071C123.316 35.2804 123.247 35.0591 123.118 34.8716C122.989 34.684 122.806 34.5389 122.592 34.4548L120.719 33.7226C120.638 33.6885 120.571 33.6281 120.53 33.5516C120.489 33.4751 120.476 33.387 120.494 33.3023C120.511 33.2175 120.557 33.1412 120.625 33.086C120.693 33.0308 120.778 33.0002 120.866 32.9992C125.361 33.0547 129.853 33.0635 134.342 33.0255C134.494 33.0255 134.646 33.0167 134.798 32.9992C135.266 32.9466 135.709 32.8194 136.126 32.6178C136.175 32.5952 136.228 32.5861 136.281 32.5915C136.334 32.5968 136.385 32.6164 136.428 32.6482C136.47 32.6799 136.503 32.7224 136.522 32.7712C136.542 32.82 136.547 32.8731 136.538 32.9247L135.657 37.6423C135.643 37.7314 135.595 37.812 135.523 37.8681C135.451 37.9242 135.36 37.9516 135.268 37.945C135.176 37.9384 135.09 37.8981 135.027 37.8323C134.964 37.7665 134.929 37.6799 134.928 37.5897C134.821 34.0822 129.675 34.788 127.282 34.9503C127.104 34.962 127.014 35.0555 127.014 35.2309V44.7626C127.014 44.8012 127.022 44.8393 127.037 44.8748C127.052 44.9103 127.075 44.9423 127.103 44.9689C127.131 44.9956 127.164 45.0163 127.2 45.0298C127.236 45.0433 127.275 45.0494 127.314 45.0476C130.09 44.9336 132.84 45.451 135.384 44.14C135.45 44.1056 135.524 44.0897 135.599 44.0939C135.673 44.0982 135.745 44.1225 135.807 44.1641C135.868 44.2058 135.917 44.2632 135.947 44.3301C135.977 44.397 135.988 44.4708 135.979 44.5434L135.393 49.375C135.384 49.4891 135.331 49.5955 135.246 49.6736C135.161 49.7517 135.049 49.7959 134.932 49.7976C134.815 49.7992 134.702 49.7582 134.615 49.6825C134.527 49.6068 134.472 49.5019 134.459 49.3882C134.28 48.1825 133.971 47.3801 132.59 47.196C130.84 46.9563 129.083 46.8861 127.318 46.9855C127.19 46.9914 127.126 47.0586 127.126 47.1872ZM142.042 47.7747C142.314 43.8989 144.067 41.9171 147.698 40.5886C158.639 36.59 164.491 54.7065 151.632 56.7716C148.453 57.2845 144.671 54.8249 143.124 52.2819C142.286 50.8994 141.925 49.397 142.042 47.7747ZM150.246 41.562C150.246 41.4806 150.213 41.4025 150.155 41.345C150.096 41.2874 150.016 41.2551 149.933 41.2551H149.907C149.824 41.2551 149.744 41.2874 149.685 41.345C149.627 41.4025 149.594 41.4806 149.594 41.562V55.3028C149.594 55.3842 149.627 55.4622 149.685 55.5198C149.744 55.5774 149.824 55.6097 149.907 55.6097H149.933C150.016 55.6097 150.096 55.5774 150.155 55.5198C150.213 55.4622 150.246 55.3842 150.246 55.3028V41.562ZM151.399 41.5098C151.399 41.4493 151.374 41.3914 151.331 41.3486C151.287 41.3058 151.228 41.2818 151.166 41.2818L151.068 41.2814C151.007 41.2814 150.947 41.3053 150.904 41.348C150.86 41.3907 150.836 41.4485 150.836 41.5089L150.811 55.4777C150.811 55.5382 150.835 55.5962 150.879 55.6389C150.922 55.6817 150.981 55.7057 151.043 55.7057L151.141 55.7062C151.203 55.7062 151.262 55.6822 151.306 55.6395C151.349 55.5969 151.374 55.539 151.374 55.4786L151.399 41.5098ZM148.641 41.3866C146.611 42.075 144.921 43.82 144.532 45.8368C143.724 50.0196 145.067 53.1968 148.561 55.3686C148.597 55.3904 148.638 55.4025 148.68 55.4036C148.722 55.4046 148.764 55.3945 148.801 55.3744C148.838 55.3543 148.869 55.3248 148.89 55.2891C148.912 55.2534 148.923 55.2127 148.923 55.1713V41.5839C148.922 41.5504 148.914 41.5173 148.898 41.4876C148.883 41.4578 148.86 41.4322 148.832 41.4129C148.805 41.3936 148.773 41.3811 148.74 41.3766C148.707 41.372 148.673 41.3754 148.641 41.3866ZM152.164 41.8952L152.147 55.4343C152.147 55.5805 152.218 55.6316 152.361 55.5878C158.563 53.6104 158.12 43.934 152.58 41.6278C152.303 41.5138 152.164 41.6029 152.164 41.8952Z" fill="#F0F0F0"/>
<path d="M163.103 42.3368V47.3436C163.102 47.3959 163.122 47.4466 163.157 47.486C163.192 47.5255 163.241 47.5508 163.294 47.5574C164.91 47.7237 166.489 47.6093 168.031 47.2144C168.174 47.1758 168.238 47.2307 168.223 47.3792C168.122 48.3265 168.017 49.2797 167.91 50.2389C167.892 50.4052 167.79 50.4839 167.602 50.475C167.454 50.4661 167.373 50.3874 167.361 50.2389C167.196 48.2433 164.777 48.8536 163.455 48.7155C163.411 48.7112 163.367 48.716 163.325 48.7297C163.283 48.7433 163.245 48.7655 163.212 48.7949C163.179 48.8242 163.153 48.86 163.135 48.9C163.117 48.9401 163.107 48.9834 163.107 49.0273C163.094 50.916 162.263 55.8826 164.759 56.4082C164.94 56.4468 165.01 56.5567 164.969 56.7379C164.945 56.8477 164.884 56.9324 164.785 56.9918C164.781 56.9962 160.629 56.916 159.969 57.0274C159.814 57.0541 159.68 57.0125 159.567 56.9027L159.442 56.778C159.424 56.7598 159.411 56.7373 159.404 56.7127C159.397 56.6881 159.396 56.6622 159.402 56.6373C159.408 56.6124 159.42 56.5893 159.437 56.5703C159.454 56.5513 159.476 56.5369 159.5 56.5285L160.616 56.1142C160.691 56.0868 160.755 56.037 160.801 55.9717C160.846 55.9063 160.871 55.8286 160.87 55.749V42.5462C160.875 40.8223 159.839 41.7667 159.272 40.9025C159.245 40.863 159.23 40.8166 159.229 40.7688C159.227 40.7211 159.24 40.6737 159.265 40.6323C159.289 40.5909 159.325 40.5571 159.369 40.5348C159.412 40.5124 159.46 40.5025 159.509 40.5061C162.547 40.7733 165.583 40.757 168.616 40.4571C168.747 40.4452 168.802 40.5031 168.781 40.6308L168.321 43.3435C168.311 43.4055 168.279 43.4619 168.231 43.5021C168.183 43.5423 168.121 43.5636 168.058 43.5619C167.996 43.5603 167.935 43.5359 167.889 43.4932C167.843 43.4506 167.814 43.3926 167.808 43.3302C167.54 41.0183 164.902 41.8201 163.361 42.0428C163.189 42.0666 163.103 42.1646 163.103 42.3368ZM14.5147 72.0476C11.9523 72.0446 9.38839 72.0506 6.82301 72.0654C4.19365 72.0832 2.56425 73.3304 1.55983 75.669C1.52737 75.7501 1.46753 75.8172 1.39067 75.8589C1.31381 75.9006 1.22476 75.9142 1.13894 75.8973C1.05312 75.8803 0.975927 75.834 0.920722 75.7663C0.865517 75.6986 0.835774 75.6137 0.836642 75.5265C0.809858 72.9964 1.5509 70.9117 2.30533 68.5375C2.34997 68.395 2.43628 68.3608 2.56425 68.4351C3.91241 69.2101 5.48229 69.5992 7.27389 69.6021C29.1599 69.6199 51.0326 69.6229 72.8918 69.611C84.6205 69.6021 96.3492 69.6303 108.078 69.6957L143.126 69.5932C153.139 69.562 163.187 69.0721 173.205 69.5531C175.047 69.6392 176.85 69.4388 178.615 68.9518C178.676 68.9349 178.739 68.9319 178.801 68.943C178.863 68.9541 178.921 68.9791 178.972 69.0159C179.022 69.0528 179.064 69.1006 179.094 69.1559C179.123 69.2111 179.14 69.2723 179.142 69.3349C179.231 71.4641 179.05 73.6348 178.597 75.8472C178.556 76.0461 178.49 76.1753 178.401 76.2347C178.35 76.2671 178.293 76.2867 178.233 76.2916C178.173 76.2965 178.113 76.2866 178.058 76.2629C178.003 76.2391 177.954 76.2022 177.917 76.1553C177.879 76.1084 177.854 76.0531 177.843 75.9942C177.013 71.4819 171.91 71.8516 168.544 71.8605C118.972 71.9733 69.4262 71.9971 19.9073 71.9318C19.8505 71.9318 19.796 71.9543 19.7558 71.9944C19.7156 72.0345 19.693 72.0889 19.693 72.1456V100.137C19.6886 103.892 20.2198 106.449 24.0723 107.371C24.4354 107.457 24.5678 107.659 24.4696 107.977C24.4519 108.037 24.4127 108.089 24.3592 108.123C24.3058 108.156 24.2418 108.169 24.1795 108.159C19.9356 107.551 15.6798 107.496 11.4121 107.994C11.1978 108.021 11.1234 107.932 11.1889 107.727L11.3228 107.3C11.3447 107.23 11.3885 107.169 11.4479 107.126C11.5073 107.083 11.5792 107.059 11.6532 107.059C13.8451 107.077 14.7245 105.825 14.7379 103.696C14.8033 93.2252 14.8123 82.7589 14.7647 72.297C14.7617 72.1307 14.6784 72.0476 14.5147 72.0476Z" fill="#F0F0F0"/>
<path d="M86.94 76.5541C100.979 72.9168 110.412 91.6121 100.007 100.9C95.5502 104.878 89.2805 105.639 84.0043 102.728C80.1378 100.595 76.5353 96.8556 75.8283 92.3599C75.5956 90.8849 75.791 88.7492 76.4145 85.9526C77.681 80.302 81.5967 77.9346 86.94 76.5541ZM89.5803 78.2709C89.5803 78.2186 89.5699 78.1669 89.5497 78.1185C89.5294 78.0702 89.4998 78.0263 89.4624 77.9893C89.425 77.9524 89.3806 77.923 89.3317 77.903C89.2828 77.883 89.2305 77.8727 89.1776 77.8727H88.9807C88.8739 77.8727 88.7714 77.9147 88.6959 77.9893C88.6203 78.064 88.5779 78.1653 88.5779 78.2709V102.343C88.5779 102.448 88.6203 102.549 88.6959 102.624C88.7714 102.699 88.8739 102.741 88.9807 102.741H89.1776C89.2305 102.741 89.2828 102.73 89.3317 102.71C89.3806 102.69 89.425 102.661 89.4624 102.624C89.4998 102.587 89.5294 102.543 89.5497 102.495C89.5699 102.447 89.5803 102.395 89.5803 102.343V78.2709ZM91.7016 78.3506C91.7016 78.2274 91.6521 78.1092 91.5639 78.0221C91.4758 77.9349 91.3563 77.886 91.2317 77.886H91.169C91.0444 77.886 90.9249 77.9349 90.8368 78.0221C90.7486 78.1092 90.6991 78.2274 90.6991 78.3506V102.36C90.6991 102.483 90.7486 102.602 90.8368 102.689C90.9249 102.776 91.0444 102.825 91.169 102.825H91.2317C91.3563 102.825 91.4758 102.776 91.5639 102.689C91.6521 102.602 91.7016 102.483 91.7016 102.36V78.3506ZM87.2533 78.2444C76.1684 80.8551 77.7168 98.6566 87.1906 102.192C87.3696 102.26 87.4591 102.199 87.4591 102.011V78.4037C87.4591 78.265 87.3905 78.2119 87.2533 78.2444ZM100.285 95.5414C102.111 89.643 99.8418 80.594 93.0307 78.3683C92.8905 78.3211 92.8203 78.3698 92.8203 78.5143V102.329C92.8208 102.367 92.8301 102.404 92.8476 102.438C92.865 102.471 92.8902 102.501 92.921 102.523C92.9519 102.545 92.9875 102.56 93.0252 102.566C93.0629 102.573 93.1015 102.57 93.1381 102.559C96.7957 101.456 99.178 99.1168 100.285 95.5414ZM159.03 79.7223C161.625 76.2443 167.157 75.5762 171.144 76.647C171.223 76.6688 171.291 76.7174 171.336 76.784C171.381 76.8506 171.4 76.9308 171.39 77.0098L170.813 81.9879C170.807 82.0545 170.778 82.117 170.73 82.1646C170.683 82.2122 170.62 82.242 170.553 82.2488C170.486 82.2556 170.418 82.239 170.362 82.2019C170.305 82.1648 170.264 82.1094 170.245 82.0454C169.907 81.0011 169.485 80.1324 168.978 79.4391C166.132 75.5452 159.84 79.1913 161.845 83.634C162.905 85.9792 165.702 87.8819 167.739 89.5191C180.072 99.4398 162.319 108.511 158.202 102.856C157.276 101.581 157.826 99.0283 158.287 97.6344C158.311 97.5674 158.359 97.5113 158.422 97.4762C158.484 97.4412 158.558 97.4296 158.628 97.4435C158.699 97.4575 158.762 97.4961 158.806 97.5522C158.85 97.6084 158.873 97.6784 158.869 97.7495C158.296 105.86 173.167 102.621 167.958 95.4928C165.349 91.9263 154.984 85.1429 159.03 79.7223ZM129.038 97.9043C129.052 97.9191 129.07 97.9292 129.09 97.9333C129.11 97.9373 129.131 97.9352 129.15 97.9271C129.169 97.919 129.186 97.9054 129.198 97.888C129.209 97.8705 129.216 97.85 129.217 97.8291C129.073 92.0944 128.979 86.3243 128.935 80.5188C128.92 78.7075 128.113 77.7636 126.514 77.6869C126.2 77.6692 125.987 77.6116 125.874 77.5143C125.713 77.3727 125.666 77.1854 125.735 76.9523C125.774 76.8137 125.865 76.7517 126.008 76.7665C128.141 76.973 130.282 77.0084 132.43 76.8727C132.904 76.8432 133.341 76.8682 133.741 76.9479C133.815 76.9624 133.882 77.0005 133.932 77.0563C133.982 77.1121 134.012 77.1825 134.017 77.2568C134.023 77.3311 134.004 77.4052 133.963 77.4677C133.922 77.5302 133.861 77.5776 133.79 77.6028L131.929 78.2577C131.846 78.2862 131.774 78.3394 131.724 78.41C131.673 78.4806 131.646 78.565 131.647 78.6515C131.647 87.0987 131.848 95.5193 131.221 103.94C131.207 104.108 131.187 104.2 131.163 104.214C131.049 104.279 130.919 104.307 130.793 104.296C130.667 104.285 130.55 104.235 130.461 104.152C123.292 97.5356 116.585 90.4867 110.34 83.0056C110.308 82.9674 110.264 82.9401 110.215 82.9273C110.166 82.9146 110.114 82.9172 110.067 82.9346C110.019 82.952 109.979 82.9834 109.95 83.0247C109.921 83.0659 109.906 83.1149 109.906 83.1649C110.023 89.115 110.185 95.1211 110.394 101.183C110.452 102.754 112.703 102.754 113.791 103.493C113.833 103.522 113.866 103.563 113.885 103.61C113.904 103.658 113.909 103.71 113.898 103.76C113.887 103.809 113.861 103.855 113.823 103.89C113.786 103.926 113.739 103.949 113.688 103.958C113.542 103.981 113.376 103.978 113.191 103.949C110.431 103.506 107.749 103.531 105.145 104.024C105.067 104.039 104.986 104.027 104.916 103.989C104.846 103.952 104.792 103.891 104.763 103.818C104.734 103.745 104.731 103.664 104.756 103.589C104.781 103.514 104.831 103.451 104.899 103.409C106.223 102.59 107.7 102.077 107.7 100.245C107.703 92.5664 107.708 84.811 107.714 76.9789C107.714 76.8476 107.754 76.7194 107.829 76.6109C107.903 76.5025 108.009 76.4187 108.133 76.3705C108.256 76.3224 108.392 76.312 108.521 76.3408C108.651 76.3695 108.768 76.4362 108.859 76.5319L129.038 97.9043ZM139.764 100.851C139.818 93.562 139.832 86.3494 139.805 79.2135C139.805 78.9828 139.733 78.7581 139.599 78.5703C139.465 78.3825 139.276 78.2408 139.057 78.1647L137.142 77.4966C137.057 77.4676 136.985 77.4097 136.94 77.3333C136.894 77.2569 136.878 77.1667 136.893 77.0789C136.909 76.991 136.955 76.911 137.025 76.853C137.094 76.7951 137.181 76.7628 137.272 76.762C141.741 76.7591 146.304 76.7591 150.961 76.762C151.319 76.762 151.659 76.5939 151.977 76.4877C152.038 76.4663 152.104 76.461 152.168 76.4722C152.232 76.4835 152.292 76.511 152.342 76.552C152.392 76.593 152.431 76.6461 152.454 76.7062C152.477 76.7663 152.484 76.8313 152.474 76.8948C152.277 78.178 152.083 79.4288 151.892 80.6471C151.835 81.007 151.683 81.2755 151.436 81.4525C151.394 81.4816 151.346 81.4994 151.296 81.504C151.245 81.5086 151.194 81.4999 151.148 81.4788C151.102 81.4576 151.063 81.4248 151.034 81.3836C151.005 81.3425 150.988 81.2945 150.984 81.2445C150.733 77.7665 146.065 78.6559 143.712 78.5674C143.67 78.5656 143.629 78.5721 143.591 78.5864C143.552 78.6007 143.517 78.6226 143.488 78.6507C143.458 78.6788 143.434 78.7126 143.418 78.75C143.402 78.7874 143.394 78.8277 143.394 78.8683V88.1695C143.394 88.3671 143.494 88.4689 143.694 88.4748C146.473 88.5279 148.889 88.8465 151.436 87.5677C151.497 87.5364 151.567 87.5224 151.636 87.5273C151.705 87.5322 151.772 87.5557 151.829 87.5954C151.885 87.6351 151.93 87.6893 151.958 87.7523C151.986 87.8153 151.995 87.8846 151.986 87.9527L151.368 92.8422C151.36 92.9075 151.332 92.9688 151.288 93.0184C151.245 93.0679 151.187 93.1035 151.123 93.1206C151.058 93.1377 150.99 93.1355 150.927 93.1143C150.864 93.0931 150.809 93.0538 150.769 93.0015C149.954 91.9705 150.46 90.643 148.625 90.5147C146.96 90.3967 145.351 90.3392 143.797 90.3421C143.69 90.3421 143.587 90.3841 143.512 90.4588C143.436 90.5335 143.394 90.6348 143.394 90.7404V100.064C143.394 100.209 143.451 100.35 143.555 100.458C146.168 103.201 151.225 103.369 152.563 99.2097C152.611 99.0592 152.714 98.9855 152.872 98.9884C153.033 98.9884 153.141 99.0489 153.194 99.1699C153.23 99.2436 153.23 99.3542 153.194 99.5017C152.893 100.702 152.713 101.834 152.653 102.896C152.637 103.18 152.511 103.448 152.302 103.643C152.093 103.838 151.817 103.946 151.53 103.944L137.643 103.874C137.616 103.874 137.589 103.867 137.564 103.856C137.539 103.844 137.517 103.827 137.5 103.805C137.483 103.784 137.471 103.759 137.464 103.733C137.458 103.706 137.458 103.679 137.464 103.652C137.488 103.549 137.566 103.484 137.697 103.458C139.066 103.174 139.756 102.306 139.764 100.851Z" fill="#F0F0F0"/>
<path d="M59.5394 93.0393C59.5349 95.5479 58.4496 102.952 62.2775 103.204C62.4817 103.219 62.6213 103.327 62.6964 103.528C62.7148 103.579 62.7197 103.634 62.7105 103.687C62.7013 103.741 62.6784 103.791 62.6439 103.833C62.6094 103.876 62.5646 103.908 62.5138 103.928C62.463 103.947 62.408 103.954 62.3541 103.946C59.4298 103.544 56.5085 103.582 53.5903 104.058C53.5135 104.069 53.4353 104.052 53.3696 104.011C53.3039 103.97 53.2549 103.907 53.2312 103.833C53.2075 103.76 53.2106 103.68 53.2401 103.608C53.2695 103.537 53.3234 103.478 53.3921 103.442C55.1395 102.583 55.7429 101.284 55.7429 99.2747C55.7399 93.1158 55.7414 86.9553 55.7474 80.7933C55.752 78.8377 55.2521 77.588 53.3381 77.0665C53.206 77.0305 53.1099 76.9796 53.0498 76.9136C52.9508 76.8087 52.9057 76.6993 52.9147 76.5855C52.9194 76.498 52.9574 76.4156 53.0211 76.3554C53.0848 76.2952 53.1693 76.2616 53.257 76.2618C58.6972 76.2393 72.2303 74.3197 71.3071 83.9268C71.0278 86.8399 69.267 89.0248 67.2809 91.1916C67.1758 91.3025 67.1683 91.4194 67.2584 91.5423C70.0371 95.3636 74.8919 103.339 80.0754 103.127C80.1705 103.123 80.264 103.153 80.3387 103.212C80.4135 103.271 80.4646 103.354 80.4826 103.448C80.5007 103.541 80.4845 103.638 80.437 103.72C80.3895 103.802 80.3139 103.865 80.224 103.896C68.668 108.091 69.7939 92.1177 59.7961 92.7696C59.628 92.7786 59.5424 92.8685 59.5394 93.0393ZM67.2134 87.6221C68.4518 82.9018 65.8308 76.0595 59.7646 78.1274C59.6355 78.1724 59.5709 78.2638 59.5709 78.4017V90.0902C59.5709 90.282 59.6655 90.3944 59.8546 90.4274C62.6153 90.8994 66.3172 91.0163 67.2134 87.6221ZM30.082 87.7255H44.849C44.927 87.7255 44.9661 87.6866 44.9661 87.6087L44.921 78.7164C44.918 78.5774 44.8634 78.4444 44.7679 78.3432C43.9573 77.5025 42.5567 77.6689 42.0298 76.999C42.0014 76.9625 41.9841 76.9185 41.9799 76.8724C41.9757 76.8264 41.9848 76.78 42.0061 76.7389C42.0274 76.6978 42.06 76.6637 42.1001 76.6405C42.1402 76.6172 42.1861 76.606 42.2324 76.6079C45.1267 76.7518 48.0224 76.7578 50.9197 76.6259C50.9677 76.6229 51.0083 76.6379 51.0413 76.6709L51.262 76.8956C51.3062 76.9409 51.3356 76.9985 51.3461 77.0608C51.3567 77.1232 51.3479 77.1872 51.321 77.2444C51.294 77.3017 51.2502 77.3493 51.1954 77.381C51.1406 77.4126 51.0774 77.4268 51.0143 77.4216C49.6092 77.3003 48.7625 77.9117 48.758 79.3952C48.758 86.1416 48.761 92.8835 48.767 99.6209C48.7715 101.635 49.366 102.997 51.4241 103.334C51.6342 103.37 51.7889 103.454 51.8879 103.586C51.9127 103.619 51.9276 103.659 51.931 103.7C51.9343 103.741 51.926 103.783 51.9069 103.82C51.8878 103.857 51.8587 103.889 51.8228 103.911C51.7868 103.933 51.7455 103.945 51.7033 103.946L42.6197 103.878C42.5863 103.878 42.5542 103.865 42.5306 103.841C42.5069 103.818 42.4936 103.786 42.4936 103.752V103.496C42.4936 103.349 42.5672 103.264 42.7143 103.24C44.5968 102.925 44.9435 101.707 44.9345 99.9086C44.9195 96.5699 44.9315 93.2312 44.9706 89.8924C44.9736 89.7156 44.8865 89.6272 44.7094 89.6272H30.0775C29.9303 89.6272 29.8568 89.7021 29.8568 89.852C29.8418 92.9599 29.8388 96.0649 29.8478 99.1668C29.8568 101.505 30.2801 103.141 32.8516 103.316C33.0738 103.331 33.1999 103.42 33.2299 103.582C33.2385 103.625 33.2376 103.67 33.2271 103.713C33.2167 103.756 33.197 103.796 33.1695 103.83C33.142 103.865 33.1073 103.892 33.0679 103.912C33.0285 103.931 32.9854 103.941 32.9417 103.941C29.9874 103.995 27.0046 103.998 23.9932 103.95C23.8581 103.947 23.7816 103.937 23.7635 103.919C23.7048 103.857 23.6657 103.779 23.6513 103.695C23.6368 103.611 23.6476 103.524 23.6823 103.447C23.717 103.369 23.774 103.303 23.8462 103.257C23.9183 103.212 24.0024 103.188 24.0878 103.19C25.8036 103.226 26.1369 102.201 26.1369 100.668C26.1309 93.6972 26.1309 86.726 26.1369 79.7548C26.1369 78.1724 25.4839 77.3047 23.9031 77.2193C23.5699 77.2013 23.4108 77.0545 23.4258 76.7788C23.4286 76.7342 23.4403 76.6907 23.4604 76.6508C23.4804 76.6109 23.5082 76.5754 23.5423 76.5464C23.5763 76.5175 23.6158 76.4957 23.6585 76.4823C23.7011 76.4689 23.7461 76.4643 23.7906 76.4686C26.5197 76.7233 29.2548 76.7428 31.9959 76.527C32.1581 76.512 32.2542 76.5839 32.2842 76.7428L32.3292 76.9811C32.3682 77.1759 32.2872 77.2763 32.086 77.2823C30.5608 77.3392 29.8012 78.1559 29.8072 79.7324C29.8163 82.3278 29.8358 84.9203 29.8658 87.5098C29.867 87.5674 29.8903 87.6222 29.9307 87.6626C29.9711 87.7029 30.0254 87.7255 30.082 87.7255Z" fill="#F0F0F0"/>
</g>
<defs>
<clipPath id="clip0_315_3662">
<rect width="178.328" height="133.038" fill="white" transform="translate(0.835938 0.0689697)"/>
</clipPath>
</defs>
</svg>
