<svg width="210" height="96" viewBox="0 0 210 96" fill="none" xmlns="http://www.w3.org/2000/svg">
<g clip-path="url(#clip0_833_9420)">
<path fill-rule="evenodd" clip-rule="evenodd" d="M7.21861 42.9124L7.23518 59.3252C6.9618 63.2829 5.38066 62.8018 5.18539 62.8718C5.23036 62.9974 5.35108 63.0459 5.37356 63.2272C5.39487 63.3967 5.53333 63.495 5.55819 63.5543C6.30378 65.353 5.72387 64.4857 5.18539 65.3104L6.65527 65.9432C7.28962 63.9003 6.26117 64.6598 8.50861 64.4809C7.4991 65.827 7.06594 65.3566 6.0375 66.4349C4.01493 68.7361 4.18653 66.8722 2.64445 68.9802C3.86699 69.5679 3.30602 69.4885 5.18657 69.4885V69.9981C2.1107 69.9981 5.06467 71.1558 0.103516 69.9981C0.775734 72.8088 0.0585433 70.9164 1.12013 71.1048C3.5226 71.8253 6.67539 71.4141 8.00089 69.6864C7.47779 69.0122 7.98788 67.9836 6.70972 69.4873C7.88373 68.646 8.51571 68.7527 9.95601 67.6483C10.8626 63.9702 9.58913 57.0916 11.2874 54.1458L11.9407 56.3711C12.7822 60.4876 12.5762 66.461 13.4934 68.2941L14.3373 69.8405C18.9623 71.3513 25.378 69.0785 27.5568 70.3085C29.571 69.549 29.274 69.1852 31.293 69.1627C31.6859 68.3782 31.4836 68.5666 31.6646 67.8106C29.9675 67.5665 30.6622 68.0097 29.6042 66.9444C24.0075 70.619 23.3968 69.4897 14.3373 69.4897C14.3373 67.5191 14.271 49.9439 14.8462 48.2708L14.2698 48.5255C12.8177 48.5883 12.0046 48.3087 11.001 47.2576L16.7563 47.0989L25.1732 46.5407C26.6786 46.049 25.9543 46.5028 27.1023 45.4684C28.0136 44.6448 28.3071 44.6448 29.2811 44.2775L30.4445 41.7926L31.5084 38.7852C30.8989 38.9239 29.5888 39.2734 29.0243 39.2533C27.4787 39.1988 28.2787 39.0293 27.7307 38.6561L27.9935 37.6489H27.5544C27.5544 44.2301 26.4928 45.6354 17.3563 45.5975C13.1905 45.5809 14.8947 45.4411 14.716 42.6458C14.6592 41.7547 14.4686 42.1031 14.3384 40.4821C14.11 37.6311 14.097 33.5999 14.845 31.5475L13.8887 31.9018C13.2082 35.4377 15.3787 43.6601 13.3195 46.0336C11.3738 44.0203 13.7858 43.1328 11.2886 38.9511L10.13 39.8943C9.14059 40.6373 9.9134 39.796 9.03644 40.7949L7.2198 42.9148L7.21861 42.9124ZM48.0121 44.6863L47.1777 44.2135C47.8748 43.5606 47.5422 44.287 47.6771 43.0522C47.7197 42.6648 47.5801 42.0474 47.5351 41.6244C46.2522 41.1184 46.7185 40.9786 46.38 40.9892L44.6735 41.6943V39.8718L44.8368 38.5589L44.3279 38.265V69.9992C43.3598 70.4637 41.6142 70.9045 40.2614 71.0171L40.5869 72.5445C41.2437 71.9283 40.2555 72.1582 42.129 71.5373C42.284 71.4864 43.6 71.3252 43.7716 71.3039C45.754 71.0574 44.9693 71.4295 46.8984 70.2078L47.3268 69.3712L48.7517 69.3428C48.5813 69.2172 48.4097 68.6757 48.3482 68.851L47.6913 68.4718C48.2133 65.423 48.1186 63.2711 48.3979 60.3431C48.8973 60.9474 48.7068 60.3217 49.0228 61.3787C49.0725 61.5458 49.1837 62.4866 49.2086 62.7248C50.514 62.7142 49.9837 62.7604 50.8465 62.1608C50.9234 65.3732 50.7601 62.4878 51.4454 63.7462C51.4454 62.3516 51.5104 61.3526 51.5957 60.035C51.6442 59.279 51.6998 58.1402 51.8264 57.1887C52.185 54.5001 51.9531 51.6242 51.9531 48.8952C51.1447 49.5493 51.4962 48.4864 51.1175 50.2236C51.1092 50.2627 51.0998 51.5235 51.0986 51.6467C51.0891 52.8838 51.1104 53.9621 51.1554 55.2312L51.0288 56.9316L48.3304 55.7478L47.9446 52.8459C49.4394 52.962 48.7399 54.2204 48.0346 49.1287C49.263 47.4614 47.8665 48.3632 49.8867 47.8158L56.0195 47.683C58.5971 47.7008 61.1878 47.689 63.7642 47.6582C64.9761 46.0514 65.0921 44.0784 64.1548 42.0059C64.1465 44.4825 63.9772 44.486 63.1358 46.0774L51.9519 46.587V32.8782C51.3708 33.6414 51.6951 32.2787 51.2927 34.3535L51.0075 46.2303L48.0488 47.087L48.0097 44.6875L48.0121 44.6863ZM153.889 7.47168C155.664 9.42922 155.116 10.7564 155.156 15.0293L155.252 21.1934C155.059 24.2198 155.231 22.3322 154.639 22.8808C152.998 21.3439 153.836 10.1141 153.889 7.47287V7.47168ZM156.36 1.74362C154.03 3.40848 152.502 3.42981 149.634 1.85145C150.992 0.673611 154.588 1.51611 156.36 1.74362ZM142.947 1.92492L148.036 1.40828C146.995 2.38705 148.324 2.56361 144.479 2.36217C143.169 2.29344 142.01 2.27567 140.694 2.28396C140.572 6.33531 139.892 20.6768 141.331 23.4756C139.661 23.4128 139.843 23.1439 138.408 22.3002C137.61 25.1583 137.258 23.1747 137.251 23.1723C134.676 23.2351 135.89 22.7185 134.813 24.1902C136.742 25.1168 140.698 24.6985 143.455 24.6985V23.1711C141.881 23.0372 142.494 23.177 141.422 22.6616V3.32079H146.505C147.672 5.75587 145.948 5.6824 148.538 6.37442C148.538 1.83249 148.105 3.24259 151.588 3.32079C151.588 7.72171 150.716 19.781 152.096 22.6616C149.918 23.7079 150.187 22.3262 149.554 24.6973C152.311 24.6973 156.266 25.1156 158.195 24.189C157.051 22.6249 158.523 23.3678 156.162 23.1711V3.32079C158.485 2.20457 159.49 2.58612 160.738 1.79339C159.174 1.42843 158.156 1.44383 156.354 1.09308C154.709 0.771962 153.944 0.164082 152.227 0.359599L145.473 1.26135C142.82 1.36444 143.585 1.31467 142.945 1.92255L142.947 1.92492ZM92.7726 39.3813C93.5099 39.8304 93.0033 39.373 93.3205 40.4584C93.4744 40.7463 97.8473 50.2532 98.6213 51.168L99.1693 54.7252C99.4782 55.3686 99.161 55.0214 99.9445 55.2573C102.018 54.9551 102.194 54.4076 103.36 55.7455C102.752 56.2265 103.354 56.5157 100.756 56.3107L101.062 56.7657C101.973 60.4841 104.29 63.8138 104.716 66.9421C103.839 67.9244 101.201 67.9896 102.339 70.0407L100.754 69.703C99.5089 70.7138 99.2959 70.6427 97.7041 71.0147L97.9479 72.5422C100.095 70.4993 101.717 72.6903 104.316 68.473C107.587 68.9482 105.125 68.1946 107.346 69.5099C110.406 71.3216 112.333 71.3465 113.953 72.5422C115.214 72.5422 113.917 72.7092 114.48 72.0326C110.237 67.5535 112.336 75.3292 106.552 61.1382C106.087 59.9971 106.164 60.0551 105.66 58.978C104.269 56.0061 105.629 57.2859 103.827 54.1955C103.45 53.5474 103.088 52.8613 102.785 52.1847L101.348 48.3075C101.322 48.2518 101.252 48.1286 101.223 48.0693L97.1952 39.636C97.0568 39.5389 96.6307 39.3362 96.5195 39.3007L95.0318 38.9962C93.7229 38.4369 94.3584 38.0743 92.7169 38.13L92.7714 39.3789L92.7726 39.3813ZM92.6211 76.6148H93.1288L92.7051 77.2085L92.6199 76.6148H92.6211ZM60.596 77.8495L64.2601 79.7004L63.6459 80.7705C62.6458 81.1556 56.1816 82.3915 54.5354 82.2031C51.6454 81.8713 49.8713 80.178 45.8534 80.178C47.0321 81.7883 45.8806 81.3629 47.8866 80.6899C51.701 81.3736 51.0749 82.0194 51.1613 83.8359L57.8717 83.4556L60.1439 83.6155L63.6731 82.0395L67.4413 81.0169L72.5102 81.2989L76.2381 80.8854L76.0736 80.774C78.6359 81.0335 80.056 80.101 82.3413 79.5784C90.9772 78.8354 93.1939 77.4573 101.714 80.7408L106.67 82.3879L109.166 84.5161C109.321 84.5505 108.713 83.8987 110.373 84.7614L109.303 86.2888C108.832 86.9844 109.242 86.7983 107.359 86.7983V87.3067H110.031C109.285 87.0009 110.016 87.296 109.6 86.2888L111.769 85.5529C111.857 85.5103 112.372 84.9071 112.446 84.759C111.511 83.734 109.21 82.523 107.752 81.7078C108.519 80.505 107.249 81.4234 108.884 81.0276C106.675 79.9801 103.069 78.8982 100.652 78.2441C97.3231 77.3436 93.9868 75.7557 92.1098 75.5993L92.6187 76.6172C90.7287 76.1764 90.337 75.6503 88.0434 75.5993L89.5689 77.1267C80.9259 77.1267 74.7327 81.4637 63.9571 78.3354C62.5748 77.9337 61.989 77.4751 60.5937 77.8531L60.596 77.8495ZM180.041 39.828C178.767 41.1859 179.142 40.2569 178.483 41.4952L182.176 45.0169C182.24 44.8984 182.459 45.1247 182.595 45.1911C184.858 47.0432 187.77 46.9377 190.013 48.5409C191.021 48.958 191.789 49.3894 192.715 49.714C193.346 49.9356 193.957 50.0458 194.251 50.1809C196.304 51.123 194.341 50.1311 195.305 50.9535C197.184 51.8718 200.277 54.8556 200.38 57.3878L200.378 59.4176L198.588 60.4343C198.331 60.8242 199.735 60.7862 197.34 60.9071C198.207 62.5696 197.356 64.4584 196.833 66.1908C198.518 66.7157 197.681 66.4598 198.866 67.1186C201.638 63.3611 200.968 59.721 202.622 55.9185C203.255 56.2988 203.362 55.1802 204.457 57.9779C203.612 46.1758 185.352 44.6164 182.237 40.8672L181.008 39.2699C180.931 39.1846 180.786 39.0495 180.665 38.9511L180.041 39.8292V39.828ZM152.097 65.5995C153.002 64.9099 152.909 66.5155 152.835 64.6753C153.662 65.2227 154.272 65.3329 155.228 65.6836L155.503 62.2579C157.643 61.6773 156.647 61.8077 158.506 62.13C158.787 57.6817 159.923 50.3824 158.863 46.2173C157.855 47.4686 158.758 48.3952 158.371 51.6799C157.709 57.2918 159.334 54.6209 157.07 57.7824C157.973 59.2588 155.989 57.6224 157.945 58.2907C157.221 59.7447 155.879 60.7412 155.879 60.74C155.81 60.6251 155.62 60.996 155.482 61.1145L155.681 36.7661L155.249 34.0976C153.578 34.4187 153.988 34.4602 152.599 34.7694C152.731 33.0536 152.759 34.3784 152.098 33.8511V65.5983L152.097 65.5995Z" fill="#FEFEFE"/>
<path fill-rule="evenodd" clip-rule="evenodd" d="M162.771 18.0024C160.195 15.9358 162.186 13.1927 161.078 10.3168L162.735 10.7967C162.854 12.5386 163.331 16.4999 162.771 18.0024ZM166.976 2.7722C163.105 4.52356 165.654 2.58972 164.082 4.57333C163.289 5.57224 164.136 4.7961 163.18 5.59949L161.634 4.34226C159.519 5.28193 161.5 4.09224 160.878 5.7168C160.5 6.69913 159.909 6.92901 159.213 7.39588C159.213 9.45651 159.116 7.65183 159.722 8.21113L161.677 8.34029C161.706 9.81318 162.067 9.65322 160.989 10.5917C160.56 10.965 159.471 11.3465 158.705 11.7755C159.354 12.6571 159.338 14.5139 159.603 15.6562C160.645 20.1365 163.04 22.7126 167.396 24.1416C175.555 26.8161 182.075 18.1493 178.022 17.0663C177.92 21.658 174.31 22.8951 170.371 22.7043C167.23 22.5526 169.276 22.3085 166.864 21.6473C167.141 23.5349 167.121 22.1379 166.241 22.6747C164.974 21.8677 165.846 22.7304 164.75 21.139C165.444 20.3747 164.438 20.8427 165.822 20.8238C163.388 16.2878 162.981 13.7697 164.583 8.19217C166.284 2.27452 170.057 3.06607 174.462 3.32439L173.645 2.8196C173.509 2.7485 173.385 2.67622 173.231 2.60275L170.395 1.78039C167.715 1.79224 169.193 2.50795 166.978 2.77338L166.976 2.7722ZM126.932 55.4469C128.62 56.4375 128.748 56.0097 130.152 56.7432C131.815 57.6106 130.976 57.6426 132.378 58.6759C133.833 59.7471 133.601 58.9141 134.808 60.3052C135.551 61.1619 135.647 61.5636 136.567 62.3658C136.781 64.9064 137.23 65.0936 138.115 67.4422L138.677 68.8416L138.159 75.8222L138.742 76.167C142.192 76.7511 140.688 77.788 142.477 78.2904C143.788 78.0913 143.451 77.8164 143.451 79.1578L143.453 71.5208C142.127 71.5208 142.439 71.8632 142.439 70.5704L140.541 69.254L139.515 68.4446C139.82 66.1731 140.085 66.2537 138.441 65.9242L139.51 62.8967L141.419 62.873C140.169 62.8659 141.481 63.0448 140.91 62.3611L142.436 61.8516C141.891 61.0375 140.523 59.1096 139.71 58.4733C137.06 56.3972 136.67 56.4304 135.319 56.7598L132.781 55.1352C131.242 57.3321 130.977 55.3616 127.898 54.7715L125.665 55.198L126.932 55.4457V55.4469ZM198.517 71.016L198.155 69.9341C198.15 69.9317 194.86 68.7148 196.32 69.7801C192.795 69.9791 195.341 70.055 194.373 68.9802C192.239 71.2245 189.49 71.016 185.142 71.016C184.894 72.2922 182.576 70.8169 181.732 70.3489C179.192 68.9423 180.393 68.8333 177.055 68.3024C178.359 66.8118 175.225 67.2478 179.04 67.0393C178.7 66.275 179.073 66.7039 178.428 66.0297C177.499 65.058 177.798 65.4372 177.006 65.1007L174.722 65.6683L174.887 62.2201C176.267 62.7142 175.421 61.9878 176.497 63.1206C175.463 59.7684 177.254 58.0585 173.955 57.7836C173.867 61.7757 171.922 68.2349 171.922 72.5434C173.646 72.1417 173.633 72.3976 174.168 70.9461L174.423 69.8772C174.843 68.6603 174.443 70.4579 174.973 68.4719C176.578 68.9008 187.688 78.6743 198.519 71.0172L198.517 71.016ZM25.3076 84.1275C26.9076 83.0551 28.6852 83.0563 30.0948 84.3503L25.3076 84.1275ZM13.3189 77.737C18.3747 78.7348 20.6115 81.4436 25.2011 82.2493C24.4886 83.1558 26.265 83.0824 23.9939 82.952L22.4684 83.74C23.6673 84.0197 23.8259 84.2566 25.3064 84.1275C26.162 84.6595 25.4034 84.4841 26.5597 84.7057C27.0189 84.7934 27.5881 84.7579 28.0604 84.7579L25.5182 85.7757C31.0333 85.7757 31.2226 86.9583 35.1577 87.3269C37.714 87.5662 42.7639 87.9715 44.3273 85.7426L42.1154 85.6738L41.9876 86.6514L40.5295 86.7462L34.7731 87.0697L33.7742 87.0875L33.9233 85.7438L30.3054 85.8848C31.8037 84.5635 33.1955 83.74 34.9163 85.3527L35.2204 85.4985C39.2028 84.688 43.59 85.1584 48.0849 84.7662L50.9323 83.7412C49.627 83.0622 49.9631 83.394 49.4104 82.7209C44.6682 84.8645 27.5799 82.3418 23.0388 80.6248C16.9285 78.3153 9.37198 72.9652 2.82614 77.3081C1.58466 78.1316 1.47933 78.3141 1.11719 79.6697C2.74093 78.5807 3.56226 77.301 6.18486 77.109C9.3708 76.8756 10.8774 77.3247 13.3177 77.7382L13.3189 77.737ZM88.9789 23.0657C90.3908 23.4946 90.1044 23.1107 91.6926 22.6723L92.9755 24.1025L89.5707 24.253C88.3706 23.4271 89.2855 24.5765 88.9789 23.0657ZM98.4196 1.40713C99.9972 1.95932 99.1616 1.20451 99.9179 2.30414C99.6989 2.43093 100.359 3.81377 98.577 2.63119C98.1 2.31481 98.3841 2.16906 98.4196 1.40713ZM89.0618 3.82799L88.9789 23.0657C87.0712 23.4164 87.5031 22.9176 87.0285 24.6986H95.1614C94.6727 22.8631 95.1153 23.337 93.1282 23.1712V3.45118C92.0228 3.99507 92.4311 5.18121 92.469 6.87095C92.5033 8.40428 92.5246 9.93168 92.5412 11.465C92.5696 14.2852 92.514 17.1184 92.4891 19.9232L92.2489 21.8618C90.7613 21.1994 91.4051 23.1581 91.1057 20.0002L91.0867 4.83402C91.5838 1.31471 93.7129 3.31846 93.72 3.32202H98.7202L99.306 6.35905L100.755 6.37564V1.28627L98.4208 1.40713C95.4573 2.54587 85.0947 2.09322 82.4568 1.28627C83.0698 2.96179 82.2698 1.80883 83.471 2.80775L89.2843 2.66555C90.9364 4.92644 89.689 3.05185 89.063 3.82799H89.0618ZM30.3173 3.32202C30.2025 3.24618 30.019 3.02696 29.9587 3.11939C29.6557 3.58389 29.5575 3.12294 28.097 1.57184C33.2109 1.51733 38.9235 1.12985 44.1415 2.30414C41.558 3.62892 35.3518 2.31007 32.4144 3.61707L32.4108 14.2603L32.4191 22.1556L35.179 23.6795C34.263 20.6756 34.6701 15.7925 34.6701 11.9757H39.7567C40.1177 11.0218 40.2479 10.85 40.2064 9.93997H34.6381L34.6701 3.3232C36.0027 3.96308 41.3994 3.3232 44.3285 3.3232C45.1747 4.92407 45.0492 5.92299 46.3617 6.88635C47.0624 5.42294 46.3617 3.31372 46.3617 0.779108C42.8231 2.47952 36.6146 0.532638 34.6985 0.204406C31.7398 -0.303938 31.3019 1.0398 26.5171 1.26968C23.8957 1.39528 25.1064 0.788588 23.9951 2.30651C25.046 2.30651 26.4544 2.19631 27.4509 2.40012C28.6225 2.63948 28.5846 2.99023 30.3196 3.32439L30.3173 3.32202ZM68.8325 12.9924L68.9804 12.3182C69.1023 11.2268 68.9627 12.253 69.9379 12.0018L69.6964 10.9578C69.7947 9.88428 70.1107 9.64137 68.2585 9.30721C68.1059 9.27996 67.8869 9.34513 67.7532 9.33683C67.6064 9.32736 67.3875 9.39964 67.2052 9.43163L67.2029 9.42689C67.294 9.25863 67.4514 8.82612 67.4679 8.91618C67.4821 8.99675 67.6538 8.56306 67.662 8.44101L67.146 6.50954C66.0241 4.57451 66.3188 4.74159 64.5317 3.36941C62.8642 2.08848 64.4477 2.80775 62.4938 2.3705C61.7316 2.19987 60.9482 2.15128 60.0866 2.06597C60.8771 2.85988 60.0227 2.25911 61.044 2.85278C61.0523 2.85752 62.0074 3.26869 62.1198 3.3232C60.7399 6.20382 61.6109 18.2631 61.6109 22.664H64.153V6.88635C65.3495 8.26445 67.2715 11.9876 68.8325 12.9936V12.9924ZM30.3551 49.438C32.3907 50.982 32.4747 50.6478 33.4807 52.9774C34.5092 53.8069 35.2417 55.9185 35.5956 57.7801L32.0735 57.6687L32.1434 61.3444L34.85 62.1656C33.9494 63.0152 35.4832 62.4357 33.1683 63.1562C32.7067 63.2996 31.7303 63.3316 31.1114 63.5046C30.7599 64.8388 30.6829 65.3258 29.5859 65.9456L31.4463 66.7016L31.6641 67.8083C33.102 67.0097 32.4061 67.2786 33.4061 65.7809C34.2701 64.4881 33.1836 66.1126 33.8405 65.186C34.8038 63.8269 35.1222 63.2024 35.4642 61.9629L35.85 59.3075C37.359 58.2363 36.4501 61.0647 37.0548 58.8667C37.056 58.8619 38.3898 57.0027 38.7365 55.236C37.2655 48.9344 30.3137 47.4449 29.077 46.4436L28.316 46.8287L27.0863 47.0918C27.626 48.0516 26.8307 47.2257 27.7041 47.9402L30.3551 49.4356V49.438ZM152.642 31.8604C155.028 32.6946 154.106 32.6354 155.655 33.4328C156.224 32.2905 155.835 32.5678 157.112 32.1021C157.849 31.8332 157.738 32.0204 158.575 31.9908C159.058 35.2695 158.756 41.4159 158.662 45.2089L158.862 46.2161C159.923 50.3812 158.787 57.6805 158.505 62.1288C156.647 61.8065 157.643 61.6762 155.502 62.2568L155.228 65.6825C154.272 65.3318 153.661 65.2216 152.835 64.6741C152.909 66.5143 153.002 64.9087 152.096 65.5984V69.7102C153.176 70.1616 153.246 70.3133 154.401 69.9732L155.655 69.3606C157.9 72.1583 161.213 70.4863 162.767 72.541C163.296 71.8478 163.279 73.6288 163.279 71.0136C161.926 70.901 160.181 70.4602 159.213 69.9957V33.8582L160.028 32.8404C160.047 31.999 159.973 32.4221 160.184 31.7052C160.221 31.5808 160.506 31.1992 160.537 30.9515C160.564 30.7359 160.698 30.7027 160.771 30.5735L160.245 30.9681C157.43 31.6459 154.934 30.4965 151.681 30.9409L152.641 31.8569L152.642 31.8604Z" fill="#FEFEFE"/>
<path fill-rule="evenodd" clip-rule="evenodd" d="M138.849 28.7712C138.908 28.8956 139.01 28.943 139.041 29.1373L141.067 32.409L139.982 35.9022L139.391 37.9333C141.003 36.6582 140.284 35.9603 141.93 32.8439H151.794L151.819 31.4599L152.642 31.8616L151.682 30.9456C154.935 30.5012 157.43 31.6506 160.245 30.9728C160.435 29.1148 169.118 28.9821 170.926 29.0793C173.127 29.1966 172.51 29.7488 174.76 29.654C177.354 29.7701 178.508 30.8046 180.633 29.7903C175.941 29.6907 172.128 26.4167 163.482 28.4643C155.178 30.4313 152.696 29.7369 143.957 29.7974C140.705 29.8199 141.019 29.8815 138.849 28.7724V28.7712ZM46.3649 14.5198L46.8738 15.54C46.4477 15.5448 44.7956 15.4357 43.8204 14.9665C44.8926 16.552 43.5482 15.8552 45.8536 16.0472C45.6891 18.0225 44.3541 20.4256 43.8204 22.6142C45.7068 23.1699 45.482 22.5692 46.069 20.6211C46.1696 20.2881 46.2749 19.6719 46.4371 19.288C47.5685 16.6171 46.4879 18.9195 47.3791 17.7452L48.3934 16.5555L48.1117 15.0269L48.5886 15.0258L48.9046 13.6488L50.5035 9.45411L51.5142 11.9034C51.8337 12.8893 51.9817 13.5303 52.5284 14.5186L53.0657 15.3966L53.1746 16.5543C53.2492 18.3484 54.2646 21.0785 55.0055 22.7137L56.8126 22.9673L57.0931 21.3072C55.7014 20.1566 53.8315 12.5599 52.0503 8.25612C49.9236 3.11817 53.1072 7.47287 51.9556 1.32178C50.5142 2.31003 50.9686 2.16546 50.2147 4.123C49.7212 5.40394 49.3461 6.31635 48.9697 7.45746C48.1389 9.97548 47.6182 12.0195 46.3661 14.5186L46.3649 14.5198ZM40.2616 30.1386C42.6795 31.1257 45.54 30.5581 46.6903 33.1603C47.1992 33.306 47.0525 33.069 47.6892 33.4932L48.3673 33.4423C50.4017 31.2442 49.5591 31.5618 53.0728 31.2466L60.8755 31.3295L67.3208 31.6103C69.7031 30.8591 68.7374 32.2028 71.7778 30.8626L73.0358 31.5949C74.7957 29.3542 72.7376 31.1423 75.185 30.301L74.6063 37.4237C75.6963 36.7898 75.4004 37.4545 75.3685 32.8131C75.3472 29.7867 75.6501 30.0379 72.837 29.7464C63.4449 28.7736 68.5611 29.8211 62.6342 29.795C55.1783 29.7618 47.7164 29.7891 40.2605 29.7891C39.4462 30.4704 39.8261 29.6966 40.2605 30.1386H40.2616ZM85.3156 57.9518L97.1954 57.7694C97.341 59.529 98.5872 61.7887 99.2287 63.3813C99.9695 65.2203 100.78 66.9113 101.262 68.9802L100.753 69.7042L102.338 70.0419C101.202 67.9908 103.838 67.9256 104.715 66.9433C104.289 63.815 101.972 60.4853 101.061 56.7669L100.269 56.9624C97.3753 55.8983 88.0057 58.1213 84.8553 56.2562L85.3133 57.9518H85.3156ZM93.3621 31.2833C93.6332 31.6625 92.2769 32.1993 92.8923 31.2371L93.2864 31.2146C93.2923 31.2169 93.3598 31.2809 93.3621 31.2845V31.2833ZM86.5216 44.5891C87.6424 44.5891 87.4151 44.2787 87.4151 45.3025L87.6211 46.3263L88.6081 46.1509C88.2838 45.9104 87.9264 44.9221 87.9016 44.8866L88.9371 45.0773C89.2129 44.7218 87.5004 44.2479 90.0803 45.0133C90.878 43.8011 90.8614 45.0915 90.1691 43.211C90.1194 43.3272 90.0638 43.416 90.0223 43.5618C89.8212 44.2573 88.8827 43.8343 88.7324 43.7964C89.6105 40.9549 90.0957 40.4987 92.7739 39.3836L92.7195 38.1347C94.3622 38.079 93.7255 38.4404 95.0344 39.0009L96.522 39.3054C96.6333 39.341 97.0593 39.5448 97.1978 39.6408C96.7339 37.3123 95.9386 35.42 94.7125 33.8629C94.1693 35.2138 94.419 34.5135 93.8722 34.9104C93.1041 35.4674 93.7906 35.0242 92.8734 35.561L92.1361 32.2787L94.1468 31.8296C94.219 29.8744 94.6036 30.6031 94.6557 28.264C90.6532 29.3341 89.7703 35.3939 88.1205 40.0437C87.5548 41.6362 86.7583 42.8544 86.5228 44.5915L86.5216 44.5891ZM129.665 80.1768C129.752 80.2183 129.908 80.1661 129.939 80.2704L133.197 81.1402C132.241 83.3513 132.576 82.3417 132.714 84.2969L132.721 84.8751C133.324 85.1986 133.535 85.4119 134.641 85.6714C137.243 86.2817 135.453 85.8824 136.085 85.5446C135.01 83.1096 135.104 84.4734 133.82 82.9484C134.414 82.0846 134.235 81.8026 135.83 80.9849L136.13 81.6852L137.552 82.5076C137.63 82.5692 137.769 82.7197 137.834 82.7742C137.899 82.8287 138.014 82.9662 138.111 83.0539L139.011 84.4391C139.106 84.3241 139.241 83.9414 139.3 84.0978C139.34 84.2068 139.555 84.022 139.606 84.035C139.669 84.0504 139.824 84.1713 139.927 84.2507L140.312 83.6108C140.472 83.3252 140.806 82.7126 140.836 82.6462L141.225 81.2551C142.001 78.7845 141.438 81.3084 143.453 79.1613C143.453 77.8199 143.79 78.0948 142.479 78.2939C141.738 79.3165 143.674 79.4113 141.064 79.0985C140.722 79.057 140.303 78.6091 140.13 78.4539C139.327 77.7263 138.958 76.9857 138.614 76.398C137.553 76.8471 137.97 76.7262 137.347 77.1232C137.228 77.199 137.068 77.3211 136.97 77.3862C136.872 77.4514 136.673 77.7571 136.603 77.6529C136.533 77.5498 136.366 77.8389 136.236 77.9136C133.461 77.2725 135.033 77.5865 134.28 76.7274C130.954 77.0687 133.483 76.808 132.492 76.1077C131.346 78.6198 131.124 78.2394 129.667 80.1792L129.665 80.1768ZM196.832 66.1896C195.952 67.5559 195.672 67.9066 194.374 68.979C195.343 70.0538 192.796 69.9779 196.32 69.7789C194.86 68.7124 198.151 69.9305 198.156 69.9329L198.518 71.0148C201.091 70.3073 202.478 68.4801 203.63 66.115C204.579 64.1657 205.375 60.8739 204.929 58.856C204.641 57.5561 205.026 58.5111 204.457 57.9767C203.361 55.1791 203.256 56.2976 202.622 55.9173C200.967 59.7198 201.637 63.36 198.866 67.1174C197.68 66.4586 198.518 66.7146 196.833 66.1896H196.832ZM117.825 52.6835C117.949 52.7819 118.113 52.898 118.212 52.962C123.237 56.2479 117.872 54.7217 121.089 56.7835L121.316 56.1531C121.555 55.5499 121.215 56.0346 121.681 55.3769C123.9 55.0392 123.786 54.8816 125.666 55.1992L127.9 54.7726C130.98 55.3627 131.245 57.3333 132.783 55.1364L135.321 56.761C136.143 55.5191 134.044 55.7455 136.847 55.7455C135.079 53.1018 131.447 53.1078 128.097 52.2901C126.332 51.86 124.775 51.6337 123.176 51.1099C121.494 50.5577 119.919 50.0589 117.934 49.6382C117.788 51.072 117.811 51.0649 118.671 52.283L117.826 52.6824L117.825 52.6835ZM123.517 27.7533C122.992 29.9147 123.762 30.1481 121.914 30.0367L120.818 29.9751C120.517 29.5545 120.14 28.507 120.096 28.4205C119.444 28.8482 119.563 29.0236 119.563 28.2617C117.149 28.2617 118.599 28.2723 118.038 27.7521H116.512C116.213 28.4299 115.713 27.3244 117.021 29.2795L116.512 30.8069C112.785 30.8069 114.212 31.5985 114.987 32.3344C111.874 32.4043 112.685 32.7479 112.068 33.7219C112.014 33.8072 111.791 34.0668 111.727 34.1556L110.24 36.1937C108.578 37.9558 109.466 37.7129 108.378 39.2367L109.85 41.3933C110.758 41.9337 109.1 40.5153 112.338 41.7192C112.482 41.7725 112.661 41.9028 112.817 42.0047C111.92 42.6612 112.897 42.7785 111.022 42.3816L112.954 43.3426C113.454 40.5473 114.123 40.6847 115.181 38.5103C112.509 40.4086 114.139 40.8743 111.908 40.2356C111.886 40.1918 110.378 40.5591 111.866 38.4297L115.712 34.8915L116.184 34.2398C112.235 32.8024 116.65 35.9271 113.055 33.9648C114.097 32.8652 112.74 33.9293 113.968 33.3273L116.771 31.698C117.253 32.0156 117.474 32.2585 118.039 32.4801L117.684 30.9894C117.629 30.7927 117.458 30.7987 117.351 30.6979C119.576 31.3686 118.183 31.2963 120.259 32.2561L122.902 32.6839L122.197 31.4433C124.692 30.0391 124.292 30.0486 124.722 27.2438L123.802 27.482C123.749 27.5163 123.612 27.6633 123.515 27.7533H123.517ZM158.862 46.2161L158.662 45.2089C157.926 43.9386 158.042 42.6209 157.862 40.9809C157.684 39.3682 157.489 38.5873 157.299 36.9142C157.437 37.0114 157.868 36.7957 157.363 37.1299C157.357 37.1334 157.295 37.1998 157.284 37.201L155.68 36.7673L155.481 61.1157C155.619 60.9972 155.81 60.6275 155.878 60.7412C155.878 60.7424 157.221 59.7459 157.944 58.2919C155.988 57.6236 157.972 59.26 157.069 57.7836C159.333 54.6221 157.708 57.293 158.37 51.6811C158.757 48.3964 157.854 47.4697 158.862 46.2184V46.2161ZM7.99991 69.6852C6.67441 71.4141 3.52161 71.8241 1.11914 71.1036C1.12743 71.1214 1.39844 72.2673 1.62804 72.5422L25.5273 72.5481C27.3001 72.5576 30.8612 72.5505 31.6234 71.0148C31.3619 70.1249 30.9914 69.8606 31.2932 69.1603C29.2742 69.1828 29.5712 69.5466 27.557 70.3062C26.061 71.4982 21.0916 71.1617 18.4015 71.2197C13.5339 71.3252 13.2404 70.4152 10.271 68.6389L9.08753 69.2385C8.91119 69.3226 8.62479 70.0218 8.36087 69.5525C8.30406 69.4506 8.12417 69.6497 8.00109 69.6852H7.99991ZM51.4456 69.7101C50.3828 70.4709 51.0893 69.594 51.2373 70.741C51.7402 72.1772 59.8234 71.343 61.6117 71.3406C63.3573 71.3371 65.4639 71.4283 67.1669 71.3063C69.6842 71.1261 69.9777 70.2054 70.9375 73.0529C71.1446 73.6821 70.4618 73.3301 71.779 74.0707C71.779 70.2066 72.0713 65.4751 72.7956 62.3646C69.5138 63.2415 71.3198 64.8554 68.2202 69.4897L58.1453 69.6805C58.0695 69.6781 56.531 69.5051 56.0517 69.4838C54.4516 69.4139 52.9782 69.4506 51.4444 69.7101H51.4456ZM64.1562 42.0047C65.0923 44.0784 64.9775 46.0502 63.7656 47.657C61.1892 47.689 58.5985 47.7008 56.0209 47.6819L49.8881 47.8146C47.8679 48.3608 49.2644 47.4591 48.0359 49.1275L49.8561 49.1536C50.7509 50.4392 49.2857 52.488 49.9449 54.224C50.5828 55.9019 49.4987 54.8473 51.1556 55.23C51.1106 53.9609 51.0893 52.8826 51.0988 51.6455C51.1 51.5223 51.1094 50.2603 51.1177 50.2224C51.4964 48.4853 51.145 49.5482 51.9533 48.8941C54.8291 49.4107 59.8826 48.6251 62.0519 49.1974C65.6781 50.1537 61.6992 54.1908 66.1858 55.2371V40.4773C64.5562 41.3412 65.4438 40.5508 64.155 42.0047H64.1562ZM180.561 48.112L180.709 46.1308C181.84 44.4908 180.371 45.6757 182.596 45.1911C182.459 45.1247 182.241 44.8984 182.177 45.0169L178.483 41.4952C179.142 40.2569 178.767 41.1871 180.042 39.828L178.104 40.4738C178.399 38.5743 177.95 36.3229 178.534 34.3713C179.327 33.9032 177.266 33.5797 180.053 34.1319L179.372 33.4245C178.26 32.9387 178.429 34.0976 178.381 32.8735L178.333 32.332C177.51 32.7609 177.326 32.5192 176.174 34.5573L174.702 39.1075C174.732 40.7214 175.96 40.4098 174.465 43.5286H175.991V46.5822C178.404 46.0703 176.417 45.2041 179.04 49.1275L180.562 48.1096L180.561 48.112ZM6.7111 39.5685C6.7111 41.6481 6.44718 41.5533 7.21999 42.9124L9.03664 40.7925C9.9136 39.7936 9.14079 40.6349 10.1302 39.892L11.2888 38.9488C13.786 43.1305 11.3728 44.018 13.3197 46.0312C15.3789 43.6566 13.2084 35.4354 13.8889 31.8995L13.096 30.6837L8.57153 30.865C9.4982 32.8344 9.66389 32.5725 9.52779 34.5419C9.30647 37.7425 9.65797 37.0884 9.79525 38.2461C8.86385 39.0187 8.24607 39.5519 7.6638 40.3269C7.38095 39.3232 7.46971 40.1266 6.70991 39.5673L6.7111 39.5685Z" fill="#FEFEFE"/>
<path fill-rule="evenodd" clip-rule="evenodd" d="M48.3686 33.4411L49.0906 41.699C49.003 43.102 49.0503 42.692 49.3533 44.095C49.216 44.1945 48.8148 44.332 48.7414 44.364L48.0124 44.6863L48.0515 47.0858L51.0102 46.2291L51.2954 34.3523C51.6978 32.2775 51.3723 33.6402 51.9546 32.877C57.0223 32.7479 58.2921 32.4896 63.1006 33.3901C64.7599 33.7006 64.5575 33.9897 66.1883 34.3701C66.9943 33.4044 65.7694 34.1959 67.7103 33.8606L65.6487 32.1791L67.3221 31.608L60.8769 31.3271C62.2817 31.717 62.5527 31.4018 63.9113 32.3332C61.8367 33.0512 60.6686 32.5358 58.0673 32.1684C53.9204 31.5831 52.796 32.678 53.0742 31.2442C49.5616 31.5594 50.403 31.243 48.3686 33.4399V33.4411ZM104.62 9.01803L104.315 10.9566L105.228 10.4471C105.306 10.389 105.736 10.0738 105.839 9.93756C106.018 12.1096 106.675 12.3466 106.855 14.5186L103.805 13.5884C103.724 13.6867 103.28 14.1465 103.138 14.3503L102.283 15.8564C105.506 15.4974 104.474 15.1383 106.822 14.7923C106.849 14.7888 108.608 14.7354 108.63 14.7342C108.043 16.3363 109.304 14.976 107.589 16.5543C108.566 18.5071 109.487 20.7313 109.907 22.8441L112.3 22.6995L110.207 17.1752C109.673 13.5303 109.812 16.4133 110.842 15.0411C110.911 15.2521 111.335 16.6385 111.342 16.6515C111.868 17.6078 112.039 17.5165 112.449 17.9147L109.116 6.67657C108.322 5.24159 109.185 6.32582 107.877 5.35535C108.884 7.95276 109.375 9.20881 109.074 11.6925C106.611 9.69583 108.17 9.79655 106.255 7.21928L104.623 9.01566L104.62 9.01803ZM179.547 88.8293C180.706 88.5591 180.716 88.4347 182.089 88.3198C182.089 92.3865 182.37 91.5464 181.58 94.9366H184.122C183.146 93.1959 183.613 90.3425 183.613 88.3198C187.163 88.7084 183.211 88.9703 186.033 88.8198C186.786 88.7795 185.877 88.4798 186.663 88.8281C186.663 91.2431 186.962 93.2539 186.154 94.9354H188.697C188.049 93.5845 188.233 94.3903 188.188 92.3901H191.237C191.193 94.3903 191.377 93.5845 190.729 94.9354L193.039 94.145C192.137 92.127 193.305 89.3412 193.78 87.3007H190.73C191.078 88.7985 191.239 88.8542 191.239 90.8639H188.189C188.924 89.5533 188.698 89.4976 188.698 87.3007H179.547V88.8281V88.8293ZM127.191 13.1677C127.74 13.5422 127.564 13.5457 128.613 13.9285C128.647 13.9403 129.696 14.0079 129.733 14.0079C129.187 14.5861 129.024 12.9746 129.404 15.4203L130.502 17.571L131.256 15.9358C132.017 16.8577 132.106 16.8885 132.027 18.5178C131.913 20.8569 131.67 20.2644 130.629 20.6803L130.642 18.5936H128.714C128.714 20.3142 129.016 20.6246 127.57 22.0264C126.08 23.4709 123.897 23.3417 121.939 22.9294C118.954 22.3025 118.548 19.6518 118.548 15.6064C117.559 17.6196 117.095 17.5426 118.347 19.5712C117.866 20.1009 118.162 20.0156 117.361 20.1222L117.599 21.7255C118.679 22.6509 118.349 21.8783 118.167 23.1273C120.562 23.8714 120.173 24.4141 123.39 24.8739L126.714 24.7897C128.408 24.1357 127.213 25.1832 128.208 23.6818C126.271 23.9437 127.54 23.9176 126.926 23.6202C127.942 22.9234 126.863 23.7885 127.946 22.8488C128.06 22.7504 128.326 22.4388 128.442 22.3405L130.242 21.2384C130.706 22.0549 131.696 20.3201 130.263 22.4696C131.446 22.1923 131.03 22.7694 131.766 22.1532C133.889 18.7015 133.138 12.1819 127.452 10.9554L129.029 12.8123C128.23 13.4817 128.621 12.8786 127.194 13.1666L127.191 13.1677ZM8.00005 69.6852C8.12313 69.6509 8.30183 69.4506 8.35983 69.5525C8.62374 70.0217 8.91015 69.3226 9.08648 69.2385L10.27 68.6389C13.2393 70.4152 13.5328 71.3252 18.4005 71.2197C21.0917 71.1617 26.0612 71.4982 27.5559 70.3061C25.3771 69.0762 18.9615 71.3489 14.3364 69.8381L13.4926 68.2917C12.5754 66.4598 12.7801 60.4852 11.9399 56.3687L11.2866 54.1434C9.58828 57.0892 10.8617 63.9678 9.95516 67.6459C8.51486 68.7503 7.88288 68.6437 6.70887 69.485C7.98821 67.9813 7.47695 69.0086 8.00005 69.684V69.6852ZM122.974 57.7824C124.77 58.5218 125.597 58.6225 127.3 59.7056C128.978 60.7744 129.309 61.3159 130.746 62.4618C132.627 61.6666 131.65 62.3835 133.865 65.0047L134.714 64.366C136.768 62.6253 132.997 64.5603 135.323 63.7984C135.323 60.0492 134.847 64.0211 136.566 62.3658C135.647 61.5636 135.551 61.1619 134.808 60.3051C133.601 58.9128 133.834 59.747 132.378 58.6758C130.976 57.6425 131.815 57.6117 130.152 56.7432C128.747 56.0097 128.619 56.4386 126.932 55.4468L124.385 55.9931C123.275 57.0714 123.444 56.4552 122.973 57.7824H122.974ZM118.259 84.7543C118.608 85.5221 119.297 84.8811 118.433 86.0897C117.289 87.6929 118.576 86.4701 116.515 86.8469C117.505 87.3837 119.263 88.0745 120.524 88.3897C117.615 88.1669 118.921 89.3282 115.052 88.1314C115.87 89.5024 114.284 89.0734 115.835 89.3388C118.494 90.7335 125.117 90.3567 128.204 90.3567V90.8662C124.455 90.8662 127.546 92.5465 131.074 91.2194C133.442 90.3283 131.792 91.1625 132.715 90.006L131.796 90.0154C133.223 89.5367 132.603 90.16 132.949 88.5556L131.274 88.7523L130.821 88.8163C128.766 89.9906 124.291 89.7749 121.408 89.3388C121.466 87.4915 120.852 88.7724 123.018 87.1502C124.568 85.989 125.239 85.6608 127.493 85.9712L130.353 85.4036L130.507 85.0742C124.329 83.3584 126.097 87.5496 120.779 84.7578C119.039 84.5635 119.727 84.2969 117.462 84.2483L118.257 84.7531L118.259 84.7543ZM6.71124 39.5685C7.47103 40.1278 7.38109 39.3244 7.66512 40.328C8.2474 39.5531 8.86517 39.0198 9.79657 38.2472C9.65929 37.0907 9.3078 37.7436 9.52911 34.5431C9.66521 32.5749 9.49952 32.8356 8.57285 30.8662L13.0973 30.6849L13.8902 31.9006L14.8465 31.5463L21.8018 31.8248C21.5083 31.3828 21.3568 30.9479 21.0184 30.5439C18.739 30.6482 18.1567 30.7192 16.6442 29.7974C13.3731 30.25 9.77527 29.9597 6.2047 30.1256C4.93719 29.2215 5.19046 31.3177 5.19046 28.3742L4.17148 28.9584L2.14062 28.7309C2.77024 31.166 2.80338 30.218 5.34786 31.1541C6.16565 31.4551 6.10884 31.5037 6.71242 31.8236V39.5673L6.71124 39.5685Z" fill="#FEFEFE"/>
<path fill-rule="evenodd" clip-rule="evenodd" d="M123.685 81.1946C124.135 80.8783 123.858 80.8984 124.977 81.3096C127.687 82.305 125.322 81.3297 126.539 82.2125C124.836 83.1842 124.171 83.7672 121.992 82.8488L118.547 80.6863C118.717 82.7268 118.772 82.2516 120.073 83.3963C122.136 83.3074 120.401 82.7884 122.287 84.2495C122.137 84.3964 123.272 84.9071 121.089 84.6523L120.783 84.759C126.102 87.5507 124.333 83.3596 130.511 85.0754C131.767 84.9083 130.91 84.4071 131.477 85.6062C131.941 84.2826 131.309 84.6227 132.715 84.298C132.576 82.3441 132.241 83.3525 133.198 81.1413L129.94 80.2716C129.909 80.1673 129.754 80.2194 129.666 80.178C125.488 81.2148 126.133 80.4896 122.614 79.6684C122.978 81.1899 122.548 80.4161 123.685 81.1958V81.1946ZM31.0549 36.202C30.9495 38.0624 31.7153 37.1855 30.2087 38.1062C30.1708 38.1299 28.1755 38.5743 27.7305 38.6561C28.2784 39.0293 27.4772 39.1988 29.024 39.2533C29.5885 39.2734 30.8986 38.9239 31.5081 38.7852L30.4442 41.7926L32.5153 43.5333C31.6442 44.2632 31.8111 44.2822 31.3673 45.0607C34.9272 45.0607 36.951 36.3039 33.0455 32.909C32.1425 32.1234 32.4407 32.3545 31.6218 32.3343L29.5128 31.8769C31.894 34.2634 29.3258 34.9258 32.2762 35.0479L31.0549 36.2044V36.202ZM30.3187 3.32196C29.7388 6.7204 30.6028 9.87948 30.6028 13.7744C31.6573 14.6003 30.5921 14.0576 32.4111 14.2603L32.4147 3.61701C35.3521 2.30882 41.5595 3.62767 44.1418 2.30408C38.9238 1.1298 33.2112 1.51846 28.0973 1.57178C29.5578 3.1217 29.656 3.58265 29.959 3.11933C30.0205 3.02572 30.2028 3.24612 30.3176 3.32196H30.3187ZM137.355 21.6034C140.121 22.7398 139.425 20.5535 139.197 14.0102C139.097 11.1616 138.914 6.15162 139.388 3.48548C136.343 1.40944 136.709 2.73659 133.631 1.79455C131.015 2.01614 132.019 0.981676 131.763 3.32196H137.355V21.6034ZM192.765 81.1982C191.6 81.1982 192.203 80.9612 192.042 82.2137C191.994 84.9379 192.45 82.6 192.867 84.5658C193.393 87.0459 193 82.3014 192.727 85.3041C192.706 85.534 191.85 85.5268 192.941 86.0707C193.961 86.5791 198.912 86.2864 200.389 86.2864C201.369 83.574 200.996 86.4274 201.572 84.6144L201.405 83.2328C200.206 84.4983 200.124 84.2506 197.847 84.2506C198.535 82.8133 198.217 82.7872 197.847 81.197C201.088 81.5525 198.253 82.4258 199.85 81.8819C200.756 81.5738 200.365 80.7195 200.389 79.6696C197.554 80.3308 198.544 80.9316 197.339 78.6517C199.893 78.6517 199.976 78.7086 201.914 79.1613C201.32 76.9347 201.847 77.6339 195.306 77.6339C196.897 80.0133 196.322 79.2146 196.322 84.2506C193.304 84.1831 193.529 83.5041 192.764 81.1994L192.765 81.1982ZM122.343 34.3665C120.456 34.5585 121.698 34.4222 120.181 35.3228V35.8951C124.533 35.8951 120.61 36.2601 127.597 38.0316C130.235 38.6999 132.76 41.2416 133.798 42.0035C134.483 40.5212 133.778 40.174 132.859 38.848C130.828 35.9188 133.043 37.9901 131.764 35.0597L129.222 35.8927C127.508 34.7872 126.739 35.0396 126.465 33.1685L124.55 32.7728C124.729 33.0951 124.716 33.5015 125.109 33.7693L122.344 34.3653L122.343 34.3665Z" fill="#FEFEFE"/>
<path fill-rule="evenodd" clip-rule="evenodd" d="M4.16797 28.9597L5.18695 28.3755C8.37998 28.7511 8.4072 29.3401 11.7931 28.7855C14.8264 28.289 14.8536 28.904 17.61 29.5048L16.6407 29.7986C18.1532 30.7194 18.7355 30.6483 21.0148 30.5452C23.2836 30.9658 24.3605 30.9528 26.4589 31.8984C27.724 32.4683 27.3666 32.2468 28.414 32.985C29.9158 34.0431 29.6401 33.7813 29.9785 34.9994L30.9241 36.3455L31.052 36.2033L32.2733 35.0468C29.3229 34.9247 31.891 34.2624 29.5099 31.8759L31.6188 32.3333C30.2744 29.1197 21.0799 29.0723 18.4999 28.6741C15.9732 28.2843 15.211 27.2794 11.4902 27.9596C8.46874 28.5118 6.42724 28.1148 5.67336 28.2381C4.28868 28.4644 4.88634 28.2155 4.16797 28.9621V28.9597ZM128.712 18.5937H130.64L130.5 17.5711L129.402 15.4204C129.022 12.9747 129.185 14.5874 129.731 14.008C129.694 14.0068 128.644 13.9404 128.611 13.9286C127.561 13.5458 127.738 13.5423 127.189 13.1678C125.778 11.4295 122.264 10.984 121.998 10.2576C121.917 10.0372 121.729 10.0467 121.597 9.93884C122.443 9.4542 120.197 8.31901 124.289 9.69593C125.025 9.94358 125.862 10.4211 126.677 10.779C125.241 8.84869 124.673 9.60943 122.065 8.48491L120.522 7.65781C120.408 7.59264 120.24 7.48007 120.097 7.39357L120.575 8.91741C120.418 8.90675 120.204 8.91267 120.105 8.87476C120.018 8.84039 119.793 8.83684 119.697 8.78233L118.944 7.9576C118.672 7.30707 118.892 6.6897 119.026 5.75715L118.037 5.35426C116.862 5.16586 117.981 4.6587 117.427 5.84483C116.077 8.7373 119.618 11.2553 121.765 12.3123C124.593 13.7034 128.223 15.174 128.712 18.5926V18.5937ZM57.0909 21.3085C56.8968 19.2656 56.6471 19.2988 56.53 17.0663C56.6081 17.263 56.8069 17.2701 56.9099 17.5735C58.0413 20.9044 55.4613 15.9774 58.0531 18.5878L55.1938 9.74688C54.2269 6.47167 52.9689 4.72268 52.9689 0.776792C50.9132 0.776792 52.7523 0.672516 51.9523 1.32187C53.1038 7.47414 49.9202 3.11826 52.0469 8.25621C53.8281 12.56 55.698 20.1579 57.0898 21.3073L57.0909 21.3085ZM76.5143 18.083C76.5864 18.2311 76.6918 18.2702 76.7308 18.5262L76.4764 20.3392C76.5592 20.4588 76.687 20.4897 76.7225 20.7006C76.758 20.9127 76.9072 20.9862 76.9521 21.0727C77.0267 21.2137 77.4989 22.2197 77.5036 22.2304C77.2634 20.607 78.0267 20.9719 79.402 20.8641C81.2221 21.3961 79.9523 21.1864 80.4186 20.6271C78.0078 19.4303 81.4411 21.7635 79.7617 20.2858C79.0043 19.6187 79.5416 20.1413 79.1806 19.6092C78.4564 17.7453 78.3191 18.0143 78.512 17.8401C78.8741 15.1467 78.7238 12.6536 78.7416 9.93884C78.7522 8.18037 78.2007 3.68822 79.402 3.08745C81.7381 2.36226 80.2694 3.38724 81.4352 1.79467L74.8266 2.81254C76.4006 2.94644 75.7876 2.80662 76.8598 3.32207C76.8598 7.60212 77.5392 14.2011 76.5131 18.0818L76.5143 18.083ZM137.354 21.6035L137.249 23.1724C137.256 23.1748 137.608 25.1584 138.406 22.3003C139.841 23.144 139.66 23.4129 141.329 23.4757C139.89 20.6769 140.57 6.3354 140.692 2.28405C142.008 2.27576 143.166 2.29353 144.477 2.36226C148.321 2.5637 146.993 2.38714 148.034 1.40837L142.945 1.92501L133.63 1.79585C136.709 2.73789 136.343 1.41074 139.388 3.48678C138.913 6.15292 139.097 11.1629 139.196 14.0115C139.425 20.5548 140.119 22.7399 137.355 21.6047L137.354 21.6035ZM180.56 48.1121C181.306 49.5198 183.103 49.7236 184.95 50.3362C186.908 50.9856 188.331 51.5745 190.221 52.4004C191.691 51.5994 190.627 52.8791 191.408 50.9109C189.389 49.8753 191.662 49.9914 188.809 49.8694L190.01 48.5399C187.766 46.9366 184.856 47.0421 182.592 45.19C180.368 45.6746 181.837 44.4897 180.706 46.1297L180.558 48.1109L180.56 48.1121ZM81.9453 57.6983L83.3619 57.5976C82.5974 62.0519 80.0162 65.7702 79.4173 70.1012L77.8788 69.9128C76.1486 70.4544 75.2089 70.7838 73.8124 71.5244C73.8124 73.5814 73.6928 71.7412 74.4384 72.5422C75.4207 71.676 78.5652 70.9165 79.8008 71.0457C81.1713 71.189 83.9832 71.7495 84.93 72.5422C85.5892 71.7685 85.5028 73.7521 85.5028 71.0148C84.1501 70.9023 82.4044 70.4615 81.4364 69.997C81.6091 67.9174 84.4519 60.5707 85.3146 57.9507L83.7737 57.6498C82.6317 57.8642 81.9476 58.4887 81.9476 56.8867L81.9453 56.8938V57.696V57.6983ZM154.129 89.8473L153.622 94.9367H156.164C155.854 93.6071 155.042 90.6791 156.847 91.1661C156.925 91.1875 157.077 91.2787 157.158 91.3119L158.197 91.883V89.3378C158.06 89.3745 157.859 89.3247 157.798 89.4942C157.74 89.6577 157.494 89.6233 157.417 89.6553C155.037 90.6436 155.912 89.7928 155.655 88.8294C157.378 88.0011 156.496 88.1374 158.689 88.7725L159.164 88.9064C159.205 88.9112 159.34 88.8792 159.379 88.8792L160.229 88.8294C160.229 91.2444 160.527 93.2552 159.72 94.9367H162.262C161.33 93.2754 161.772 90.5168 161.991 88.9704C162.079 88.3495 162.04 88.3566 162.262 87.302H153.621C153.886 88.4431 154.128 88.4727 154.128 89.8473H154.129ZM111.428 51.7653C110.867 52.7772 110.875 52.0663 111.233 53.2015L113.435 52.8258L112.263 54.7289C115.399 56.0975 119.452 56.8298 122.974 57.7825C123.445 56.4553 123.276 57.0715 124.386 55.9932L126.933 55.4469L125.665 55.1993C123.785 54.8817 123.899 55.0393 121.68 55.377C121.214 56.0359 121.554 55.55 121.315 56.1532L121.088 56.7836C117.871 54.7217 123.237 56.248 118.211 52.9621C118.112 52.8981 117.948 52.782 117.824 52.6836C115.839 52.2452 115.976 52.7381 114.736 50.9631C113.653 52.1563 114.794 51.5449 112.986 51.8968C112.881 51.917 111.648 51.7736 111.429 51.7653H111.428ZM167.347 85.2674C168.711 84.9025 168.441 85.29 169.005 83.8739C169.286 83.1642 169.38 82.4615 169.38 81.196L170.483 85.2532C172.559 84.6892 171.714 84.2579 172.486 81.7624C172.927 80.3416 173.614 79.0938 173.954 77.6328H171.921C172.871 79.6911 171.412 79.697 171.412 82.2138H170.903C170.903 79.8143 170.812 79.9363 170.394 78.1423H169.377C169.044 79.5749 168.361 80.7279 168.361 82.2138H167.852C167.852 79.8878 167.084 79.236 167.852 77.6328H164.802C165.931 79.3214 167.291 82.875 167.344 85.2674H167.347ZM193.823 54.7289C195.061 56.7468 197.093 57.7813 197.338 60.9072C199.733 60.7863 198.329 60.8242 198.586 60.4344C197.882 58.7352 198.117 59.7187 198.861 57.6782L200.378 57.3879C200.275 54.8556 197.182 51.8719 195.303 50.9536C193.99 52.007 194.597 51.1147 194.059 52.9917C193.813 53.8508 193.924 53.8413 193.823 54.7289Z" fill="#FEFEFE"/>
<path fill-rule="evenodd" clip-rule="evenodd" d="M112.066 48.2092C113.593 49.8907 112.476 49.5518 114.736 50.963C115.977 52.7381 115.841 52.2452 117.824 52.6836L118.669 52.2843C117.809 51.0661 117.786 51.0732 117.932 49.6395L116.526 48.6157C115.602 48.1144 115.463 48.2388 114.587 47.4947C113.351 46.4436 112.954 45.5336 112.954 43.3426L111.023 42.3816L110.191 42.5167C110.326 45.0881 110.414 46.9449 112.065 48.2104L112.066 48.2092ZM35.1792 23.6783L32.4193 22.1545L32.411 14.2591C30.592 14.0565 31.6571 14.5992 30.6027 13.7733C30.6027 17.6848 30.0938 19.7585 30.0938 23.1712C28.1067 23.3371 28.5493 22.8631 28.0605 24.6986H36.7023V23.1712L35.1768 23.6771L35.1792 23.6783ZM97.9476 72.5422H113.953C112.332 71.3466 110.405 71.3217 107.346 69.5099C105.124 68.1946 107.587 68.9482 104.316 68.4731C101.717 72.6903 100.094 70.4994 97.9476 72.5422ZM57.0926 21.3084L56.8121 22.9685L55.0049 22.715L54.3611 23.0503C53.7031 23.1759 53.6616 23.1724 52.9705 23.1724V24.6998L62.6691 24.74C65.242 24.6535 64.1343 25.1003 65.171 23.6819C63.0893 23.1961 62.7839 23.1724 60.0879 23.1724C59.8015 21.9424 58.8619 19.2134 58.0547 18.589C55.4641 15.9785 58.0429 20.9055 56.9115 17.5746C56.8085 17.2713 56.6097 17.263 56.5316 17.0675C56.6476 19.2999 56.8985 19.2668 57.0926 21.3096V21.3084ZM174.973 80.1769C174.973 84.5671 175.28 83.2885 173.957 85.2662H177.007C176.727 84.0682 176.533 83.7625 176.499 82.2126H179.549C179.514 83.7637 179.319 84.0682 179.04 85.2662H181.582C180.822 82.0005 180.822 80.8973 181.582 77.6316H179.04C179.389 79.1294 179.549 79.1851 179.549 81.1947H176.499C176.403 76.8957 176.128 80.0631 177.007 77.6316H174.464C174.731 78.7727 174.973 78.8023 174.973 80.1769ZM133.289 74.2189L135.773 74.213C136.373 74.1632 135.855 73.8457 136.873 74.0566C138.156 74.3208 137.246 73.5139 137.907 74.732L138.161 75.8233L138.679 68.8428C135.445 68.4683 135.555 68.6117 133.29 67.5713V74.2189H133.289ZM103.297 9.93644C102.461 10.6841 102.988 10.1414 102.481 11.6131C101.95 13.1583 102.015 13.0232 101.265 14.5198C101.504 14.8267 102.292 16.0437 102.294 16.0472L100.754 16.5674C100.208 18.884 99.1725 20.6745 98.7204 22.7173L100.739 23.2221C100.89 20.6863 101.062 19.8687 102.279 17.8116C102.897 17.3222 102.788 19.3722 102.788 16.5556H107.587C109.302 14.9772 108.041 16.3376 108.628 14.7355C108.606 14.7367 106.847 14.7888 106.82 14.7936C104.472 15.1396 105.504 15.4986 102.281 15.8576L103.136 14.3516C103.278 14.1478 103.723 13.688 103.803 13.5896L104.315 10.9579L104.619 9.01929L103.296 9.93763L103.297 9.93644ZM151.796 32.8428C151.9 33.3653 151.662 33.1449 152.098 33.8523C152.758 34.3796 152.731 33.0549 152.598 34.7707C153.989 34.4614 153.578 34.4199 155.248 34.0988L155.68 36.7673L157.285 37.201C157.294 37.1998 157.357 37.1335 157.363 37.1299C157.868 36.7958 157.438 37.0126 157.299 36.9143C157.49 38.5874 157.685 39.3683 157.863 40.981C158.042 42.621 157.926 43.9386 158.663 45.2089C158.756 41.4171 159.058 35.2695 158.575 31.9908C157.738 32.0192 157.851 31.8332 157.112 32.1022C155.835 32.5667 156.226 32.2906 155.655 33.4329C154.106 32.6342 155.028 32.6946 152.642 31.8604L151.82 31.4587L151.795 32.8428H151.796ZM90.1685 43.2099C92.4479 45.4767 92.5603 48.099 94.4433 51.8909L94.9652 52.821C94.9995 52.8767 95.093 53.0035 95.1628 53.09L95.5474 53.1884C96.7428 51.0472 95.983 48.9593 95.177 46.4981C94.7167 45.094 94.6705 44.5844 94.2078 43.5535C93.3083 41.551 93.7663 41.6813 92.0349 41.641C91.8822 41.7583 90.9899 42.333 90.9709 42.3484C90.2928 42.9006 90.6443 42.5854 90.1697 43.2087L90.1685 43.2099ZM181.073 29.8377C184.538 29.5237 182.583 29.3839 183.196 30.775C183.331 30.7063 183.528 30.4456 183.6 30.5641C183.68 30.6956 184.133 30.2904 184.39 30.1802C186.401 29.3187 186.627 29.2405 188.046 29.7891C187.2 30.7205 187.419 30.7312 185.141 30.1944C184.33 30.9859 184.769 30.1245 185.141 30.8153C191.726 30.7703 191.717 30.9421 195.032 34.369L196.659 33.3061C193.834 29.6529 194.146 33.5099 191.752 29.282L193.782 30.1399C192.277 27.0898 184.548 27.8624 181.694 29.4076L181.074 29.8377H181.073ZM194.799 89.7679L195.658 94.6499C196.005 94.6226 197.295 94.6333 197.377 94.6179L198.804 94.1771C198.935 94.1261 199.096 94.0076 199.239 93.9187H196.832C196.444 93.2931 195.916 90.7372 197.515 91.1661C197.63 91.1969 198.045 91.4387 198.159 91.4943C198.248 91.537 198.429 91.6519 198.503 91.691C198.58 91.7313 198.736 91.8368 198.865 91.883V89.3377C197.629 89.7856 197.825 90.5416 196.323 89.8461C196.921 88.7156 196.652 87.9205 198.701 88.4597C199.798 88.7488 198.669 89.8153 200.399 88.8566L200.899 89.1197C201.382 89.7631 201.295 89.1789 201.649 90.3568C201.816 90.9137 201.836 91.3415 201.887 91.8818C201.992 92.9862 201.938 93.8749 202.07 94.9354H202.932C202.141 93.286 202.165 93.8808 202.917 91.8818C202.612 90.3106 202.005 89.8615 201.409 88.3222C203.533 89.0462 201.74 87.539 203.44 89.5107C203.299 88.289 203.192 88.4253 202.931 87.302H194.289C194.556 88.4502 194.678 88.4324 194.798 89.7679H194.799ZM122.904 32.684L124.549 32.774L126.464 33.1698C126.739 35.0408 127.506 34.7884 129.221 35.894L131.763 35.061C130.764 32.4967 127.222 31.5298 125.383 28.539L124.885 27.5626C124.852 27.4986 124.784 27.3458 124.724 27.2439C124.294 30.0486 124.694 30.0392 122.198 31.4433L122.904 32.684ZM110.036 87.3032C112.386 87.7072 113.438 88.6742 115.837 89.3389C114.286 89.0735 115.873 89.5024 115.054 88.1314C118.922 89.3271 117.616 88.167 120.526 88.3898C119.264 88.0758 117.507 87.3837 116.516 86.847L116.293 86.4784C113.405 85.4866 113.913 86.3884 113.56 83.6855L114.481 83.7365L108.889 81.0229C107.253 81.4187 108.523 80.5004 107.756 81.7031C109.214 82.5195 111.515 83.7293 112.45 84.7543C112.378 84.9025 111.863 85.5056 111.773 85.5482L109.605 86.2841C110.02 87.2913 109.289 86.9963 110.036 87.302V87.3032ZM46.8992 70.2067L48.9017 70.0005C48.9455 71.0859 49.0946 71.4307 49.0958 71.4331L49.5881 72.1891C49.6283 72.105 49.8165 72.4178 49.9195 72.5434H60.0891C61.9555 72.5434 63.8207 72.5458 65.687 72.5375C68.4268 72.5244 68.8232 72.8977 70.9393 73.0517C69.9795 70.2031 69.6872 71.1238 67.1687 71.3051C65.4669 71.4272 63.3591 71.3359 61.6135 71.3395C59.824 71.343 51.7408 72.1761 51.239 70.7399C49.4887 70.8193 49.4118 71.1238 48.7537 69.3417L47.3288 69.3701L46.9004 70.2067H46.8992ZM166.839 92.7243C167.876 93.5159 167.56 92.9566 168.038 94.4283C168.623 95.0362 166.591 94.9378 169.38 94.9378C168.807 93.696 169.38 89.9669 169.38 87.3032H167.347C167.832 89.3875 167.855 89.6932 167.855 92.3925C166.683 91.0429 165.475 89.2429 165.313 87.3032H162.77C163.271 89.455 163.794 92.8002 162.77 94.9378H164.804C164.233 93.7481 164.315 94.2896 164.385 92.53L164.296 89.8484C164.375 89.9397 164.502 89.9575 164.534 90.1198L166.837 92.7255L166.839 92.7243ZM174.973 93.3914C173.606 94.0775 174.462 93.8749 172.431 93.9199V88.8306C175.791 88.8306 174.414 88.6149 175.481 90.8817C176.257 91.569 176.173 91.0938 175.992 91.8866L174.973 93.3914ZM171.967 87.5342L172.69 87.1076L174.377 87.4904C174.476 87.3494 174.632 87.7096 174.766 87.8127C173.49 88.6422 173.521 88.3424 172.616 88.2701L171.967 87.5354V87.5342ZM175.992 91.8866C177.35 91.9956 177.72 92.9886 176.686 89.7051C176.009 87.5544 175.905 90.1068 176.499 87.3032C173.399 87.0448 173.474 85.7604 171.967 87.5342L170.405 87.2558C171.135 90.467 171.135 91.7728 170.399 94.9378C172.043 94.9378 174.818 95.304 175.709 94.1475C177.179 92.2397 176.318 93.6948 175.993 91.8866H175.992ZM140.543 69.2552C141.544 69.0454 141.668 68.6461 142.728 69.3073C145.431 70.9911 142.542 70.5124 142.442 70.5716C142.442 71.8656 142.129 71.522 143.456 71.522C144.502 71.2317 143.434 70.6534 144.982 71.5243C144.658 67.6318 143 66.0036 141.423 62.8742L139.514 62.8979L138.445 65.9254C140.089 66.2549 139.824 66.1743 139.519 68.4458L140.545 69.2552H140.543Z" fill="#FEFEFE"/>
<path fill-rule="evenodd" clip-rule="evenodd" d="M48.7518 69.3416C49.4098 71.1238 49.4868 70.8205 51.2371 70.7399C51.0892 69.594 50.3826 70.4697 51.4454 69.709V63.7451C50.7602 62.4867 50.9235 65.372 50.8466 62.1596C49.985 62.7592 50.514 62.7118 49.2086 62.7237C49.1838 62.4855 49.0725 61.5446 49.0228 61.3776C48.7068 60.3194 48.8974 60.9451 48.3979 60.3419C48.1198 63.2699 48.2145 65.4218 47.6914 68.4707L48.3482 68.8499C48.4086 68.6745 48.5814 69.2148 48.7518 69.3416ZM82.3438 79.5761C83.0468 80.7563 82.0917 80.0963 83.4858 80.4269C84.2788 80.6141 84.2078 80.4932 84.9687 80.4446C86.0658 80.3735 87.3203 80.1176 88.5547 80.0453C90.7098 80.2633 92.3371 80.0595 94.3703 80.4636C96.4462 80.876 98.0687 81.4104 99.7386 81.5395C101.412 81.7967 100.985 81.8287 101.717 80.7385C93.1975 77.4562 90.9796 78.8343 82.345 79.5761H82.3438Z" fill="#FEFEFE"/>
<path fill-rule="evenodd" clip-rule="evenodd" d="M76.0753 80.7717L77.7038 82.1996C75.061 82.8323 76.2291 80.9305 76.2398 80.8843L72.5118 81.2978C72.6728 82.5325 73.1781 81.9602 72.339 82.875C70.7484 84.6086 71.481 83.2388 70.9733 82.7221C70.2407 83.5149 70.6052 82.9153 70.0454 83.5196C69.3093 84.3159 69.6466 83.6262 69.2371 84.7579C71.8325 84.6998 74.2539 83.2802 75.8457 82.2126C75.4445 83.7187 75.6386 83.0373 74.8291 84.2483C78.6399 83.9308 77.8742 81.6865 84.5975 80.7954C85.4307 80.6852 85.8461 80.7764 86.5396 80.7136C88.7054 80.5181 87.9444 80.6271 88.5551 80.0441C87.3207 80.1164 86.0662 80.3736 84.9692 80.4435C84.2082 80.492 84.278 80.6129 83.4862 80.4257C82.0921 80.0963 83.0472 80.7563 82.3442 79.5749C80.0589 80.0975 78.6387 81.03 76.0765 80.7705L76.0753 80.7717ZM151.081 83.2767L151.755 84.5292C152.084 85.0944 151.879 84.8503 152.229 85.2674H154.131L154.64 82.7221C156.96 84.278 155.285 84.624 157.689 85.2674V79.6685C156.22 80.7468 156.673 80.0832 156.673 82.7221L155.268 81.0324C152.867 78.4077 153.623 80.8096 153.623 84.2483H152.606C152.223 82.6024 151.742 82.0159 151.59 80.1768C149.368 80.7705 149.598 83.0587 148.54 85.2662C150.791 85.0197 149.445 85.4807 151.082 83.2755L151.081 83.2767ZM31.6639 67.8095C31.4828 68.5655 31.684 68.3771 31.2923 69.1615C30.9905 69.8618 31.3609 70.1261 31.6225 71.016C34.1776 71.016 32.606 71.1523 33.1445 70.5065C34.8747 70.0443 34.206 70.2801 35.3327 68.979C36.0759 68.3901 35.457 68.8902 35.8984 68.0797C35.1883 67.0962 36.7375 67.8628 34.3244 66.8272C34.451 66.73 34.6297 66.6293 34.722 66.5629C38.1825 64.0568 34.509 65.5024 37.663 64.4004C36.7091 66.1897 37.1778 64.8222 36.7067 66.9433C36.7813 66.9125 37.876 66.73 38.2287 66.4338L37.8251 65.4159L38.3423 63.533C36.3091 62.873 35.9682 63.1988 35.715 62.239C35.6724 62.0791 35.5564 62.0471 35.4653 61.9629C35.1232 63.2024 34.8049 63.8269 33.8415 65.186C33.1847 66.1126 34.2699 64.4881 33.4072 65.7809C32.4071 67.2786 33.103 67.0085 31.6651 67.8083L31.6639 67.8095ZM68.8336 12.9924C69.1247 14.745 70.6372 16.1622 72.0775 18.2927C72.8408 19.422 74.6764 22.2907 75.8469 22.6652C77.9144 22.9756 75.422 22.933 76.5794 22.7422C76.6457 22.7315 76.8623 22.7102 76.9357 22.696C77.0102 22.6806 77.2209 22.6047 77.2884 22.5882C77.357 22.5704 77.5179 22.4874 77.6327 22.4365C79.1287 22.7706 78.8861 23.2008 78.8861 21.8748L77.5073 22.2303C77.5026 22.2196 77.0304 21.2136 76.9558 21.0726C76.9096 20.9861 76.7617 20.9114 76.7262 20.7005C76.6907 20.4896 76.5629 20.4588 76.48 20.3391C75.4824 19.7727 72.6763 15.988 72.287 14.8836C70.9768 14.0648 71.9355 15.1218 70.8052 13.4403C70.552 13.0635 70.4147 12.6559 69.9413 12.003C68.9661 12.253 69.1046 11.2268 68.9839 12.3194L68.8359 12.9936L68.8336 12.9924ZM166.331 1.79817C167.696 1.79817 167.464 1.48534 166.979 2.7722C169.194 2.50558 167.716 1.79106 170.396 1.77921L173.232 2.60156C173.386 2.67503 173.51 2.74731 173.646 2.81841L174.463 3.3232C174.507 5.09826 175.535 4.57807 176.268 6.09836C177.224 8.08671 176.155 8.5678 178.024 9.93879C178.056 9.87006 178.084 9.67099 178.088 9.72076C178.088 9.72431 179.041 6.22633 179.041 2.30414C177.871 2.72835 178.602 2.26859 177.843 3.14072L177.007 4.33989C175.719 0.774368 168.886 0.642839 166.332 1.79817H166.331ZM198.135 32.3332L196.847 31.8237C197.254 33.3606 197.212 32.5583 196.658 33.3049C198.592 36.8858 198.046 38.5969 198.516 42.5119L198.84 42.6435C198.881 42.6008 199.097 42.4349 199.142 42.3247L199.999 36.522C200.361 34.4803 201.348 31.8225 201.405 29.2772L199.372 29.801C200.195 30.7762 199.688 28.4797 200.159 31.1577C199.244 32.0464 199.453 32.2609 198.933 33.844L198.135 32.332V32.3332ZM91.1067 20.0002L92.4902 19.9232C92.515 17.1184 92.5707 14.2852 92.5423 11.465C92.5269 9.93168 92.5056 8.40428 92.4701 6.87095C92.4322 5.18239 92.0239 3.99507 93.1293 3.45118L93.721 3.32083C93.7139 3.31728 91.5848 1.31352 91.0878 4.83283L91.1067 19.999V20.0002ZM138.709 85.2698L138.16 86.7332C138.822 86.3824 137.123 86.0175 139.385 86.6088C141.498 87.1621 139.818 86.7806 140.631 87.3422L135.768 88.0319C133.918 88.2404 135.343 87.706 133.709 89.3626C133.184 89.8318 133.455 89.6991 132.717 90.0037C138.798 90.7371 134.726 88.8282 140.914 88.8282L147.522 86.7924L139.398 86.1786L139.928 84.2483C139.825 84.1701 139.67 84.0481 139.606 84.0327C139.555 84.0208 139.342 84.2057 139.3 84.0955C139.242 83.9391 139.106 84.3218 139.012 84.4368L138.709 85.2686V85.2698ZM30.6035 53.0426C32 56.4778 31.9468 59.4959 31.1124 63.5058C31.7314 63.3327 32.7077 63.3008 33.1693 63.1574C35.4842 62.4369 33.9516 63.0152 34.851 62.1668L32.1444 61.3456L32.0746 57.6699L35.5966 57.7812C35.2428 55.9197 34.5114 53.8081 33.4817 52.9786L30.6035 53.045V53.0426ZM148.216 71.016L148.007 72.541L162.767 72.5422C161.213 70.4875 157.899 72.1583 155.655 69.3618L154.401 69.9744C153.245 70.3145 153.176 70.1628 152.096 69.7113L151.589 69.8381L153.064 71.0302C151.777 71.2162 149.562 72.5019 148.216 71.016Z" fill="#FEFEFE"/>
<path fill-rule="evenodd" clip-rule="evenodd" d="M35.4646 61.9641C35.5557 62.0482 35.6729 62.0802 35.7143 62.2402C35.9676 63.2012 36.3084 62.8742 38.3416 63.5342L37.8245 65.4171C39.1109 64.8175 39.1831 63.8103 39.6494 60.727C40.0494 58.0822 39.7961 56.7645 38.7369 55.2371C38.389 57.0039 37.0564 58.8643 37.0552 58.8678C36.4504 61.0659 37.3593 58.2374 35.8504 59.3086L35.4646 61.9641ZM191.239 80.6864V78.6506H192.765C193.122 79.9979 192.725 79.0689 193.274 80.178C192.258 80.6816 192.713 80.5323 191.24 80.6864H191.239ZM192.042 82.2138C192.203 80.9613 191.6 81.1983 192.765 81.1983C195.518 81.9614 194.854 79.1104 194.474 78.5226C193.607 77.1825 191.224 77.6327 189.206 77.6327C189.942 80.7977 189.942 82.1024 189.206 85.2674H191.748C191.611 84.6797 191.309 83.6298 191.309 83.6227C191.455 81.4009 190.797 82.8738 192.042 82.2138ZM105.838 2.57549L106.92 3.84576L106.296 6.37563C105.334 6.77259 106.774 6.38393 105.316 6.44436C103.921 6.50242 105.26 6.27491 104.314 6.5439C103.535 8.16136 103.582 8.12818 103.297 9.93642L104.62 9.01808L106.252 7.22169C108.168 9.80015 106.608 9.69824 109.071 11.6949C109.372 9.21122 108.882 7.95517 107.874 5.35776C108.448 3.64313 107.871 3.35637 107.871 0.776733C105.89 1.30641 106.621 0.997135 105.838 2.57549ZM35.222 85.4973C34.6314 86.2556 35.151 85.3705 34.7734 87.0697L40.5299 86.7462L40.6849 85.8871L42.1158 85.6738L44.3277 85.7426C47.3077 85.8172 51.8629 86.2865 53.9861 85.2662C53.8831 85.2129 53.7458 85.1347 53.6737 85.111L48.0876 84.7638C43.5939 85.156 39.2056 84.6868 35.2232 85.4961L35.222 85.4973ZM130.823 88.8163L128.633 87.9406C127.645 87.5769 126.607 87.4513 125.528 87.3446C125.647 87.2617 125.842 87.0199 125.903 87.1266C125.974 87.251 126.334 86.8908 126.616 86.6917C127.781 85.8705 126.577 86.9761 127.496 85.9724C125.242 85.662 124.571 85.9902 123.021 87.1515C120.855 88.7737 121.469 87.4927 121.411 89.3401C124.294 89.7773 128.768 89.993 130.824 88.8175L130.823 88.8163ZM160.245 30.9717L160.772 30.5771L165.315 31.6436L166.799 31.5476C166.71 31.403 166.334 30.8733 166.299 30.6363C166.252 30.3401 166.167 30.2264 166.045 29.9751L171.467 29.8697C171.243 31.243 171.576 30.4598 170.997 31.5926L172.937 31.6412L174.54 31.2893L174.759 29.6517C172.511 29.7464 173.126 29.1943 170.926 29.077C169.118 28.9798 160.434 29.1125 160.245 30.9705V30.9717ZM153.889 7.47171C153.835 10.113 152.996 21.3428 154.639 22.8796C155.231 22.331 155.059 24.2186 155.252 21.1923L155.156 15.0282C155.116 10.7564 155.664 9.42926 153.889 7.47053V7.47171ZM78.3871 55.2537L83.6489 56.2811C82.6773 57.3333 83.9862 56.4742 81.9482 56.889C81.9482 58.491 82.6335 57.8654 83.7743 57.6521C83.7743 56.3474 83.366 56.5145 84.3152 56.5145L84.8572 56.2574C85.3472 55.2916 83.7826 55.403 86.5177 55.6021L85.5721 54.8366C85.4951 54.762 85.1306 54.3247 84.9969 54.2205C85.2525 51.4145 84.9413 53.583 85.8478 52.712C85.546 50.4191 85.4312 51.969 86.8869 51.5105C86.8869 50.3528 87.1402 50.5542 86.0608 51.0104L85.5851 50.5625C85.5425 50.5163 85.4099 50.3516 85.3732 50.3089L84.9957 49.7508C83.8903 51.1171 83.9175 52.7369 82.9625 54.7312C77.3386 54.7312 77.9717 54.5546 78.3871 55.2561V55.2537ZM203.44 89.5119C201.74 87.5413 203.533 89.0474 201.409 88.3234C202.005 89.8638 202.613 90.3129 202.917 91.883C203.158 93.3417 203.576 93.3322 203.949 94.9366H205.474C205.812 93.5265 205.527 94.3714 206.275 92.9009C206.609 89.7844 206.924 90.9445 207.267 90.4563L208.524 88.2772L209.102 87.3245C207.008 87.4702 207.529 87.2415 206.632 88.9704C205.948 90.2892 205.615 90.6945 205.473 92.3913C204.119 91.3983 204.451 91.2336 203.44 89.5107V89.5119ZM73.0366 31.5938C71.0484 31.8912 72.4129 31.0914 71.2874 32.3332C74.097 32.7515 70.9501 32.0062 72.4934 33.3511C73.6106 35.9663 73.3041 37.4095 73.3041 40.9857C74.9976 39.8494 75.0604 40.1017 74.6071 37.4226L75.1858 30.2998C72.7384 31.1411 74.7965 29.353 73.0366 31.5938ZM122.477 2.81367C125.04 2.81367 126.052 3.01748 127.189 4.33989C128.025 5.31155 127.869 5.30918 128.226 6.86502C128.699 8.92802 128.266 8.39124 129.73 8.9221C130.199 7.94451 130.747 3.34334 130.747 1.79698C129.251 2.19749 129.643 1.76498 129.221 3.28883C129.802 4.13844 129.712 3.08502 129.643 5.31747C129.619 6.06755 129.463 6.7406 129.267 7.49897L129.069 4.61479C123.254 2.46529 127.124 1.92495 127.188 1.84793C125.428 1.46401 123.223 0.731705 121.088 1.62042C123.083 2.47122 121.859 1.93325 122.477 2.81367ZM109.902 49.1299L110.89 47.9307C111.009 47.9556 112.044 48.2033 112.065 48.2092C110.415 46.9437 110.326 45.0868 110.191 42.5155C108.287 43.1305 109.5 43.2371 108.094 42.4823C106.817 41.7962 107.582 42.07 107.365 40.9857C107.361 42.1482 107.258 43.9303 107.386 45.03C107.534 46.305 108.064 47.2695 108.379 48.6204C108.762 48.9415 109.616 49.0327 109.901 49.1287L109.902 49.1299ZM109.904 22.8453L109.986 23.1723L109.193 24.2732L113.464 24.6357L113.505 23.1C113.505 23.01 113.494 22.8536 113.494 22.7623C113.483 20.9695 113.298 21.1828 112.456 19.1008C114.038 17.4834 112.945 17.9574 112.445 17.9171C112.035 17.5177 111.864 17.6102 111.338 16.6539C111.331 16.6409 110.907 15.2557 110.838 15.0436C109.807 16.4157 109.669 13.5327 110.203 17.1777L112.296 22.7019L109.903 22.8465L109.904 22.8453Z" fill="#FEFEFE"/>
<path fill-rule="evenodd" clip-rule="evenodd" d="M77.8793 69.9127L79.4179 70.1011C80.0167 65.769 82.5979 62.0518 83.3624 57.5975L81.9458 57.6982L77.8793 69.9139V69.9127ZM49.413 82.7197C49.9669 83.3928 49.6296 83.061 50.935 83.7399L48.0875 84.7649L53.6736 85.1121C53.747 85.1346 53.8831 85.2128 53.986 85.2674C56.0713 85.2674 56.5104 85.5565 57.9187 84.759L57.8726 83.4556L51.1622 83.8359C51.0758 82.0194 51.7019 81.3736 47.8875 80.6899C47.9763 80.838 48.0911 80.8783 48.1526 81.1342C48.2142 81.389 48.3479 81.4601 48.4308 81.5679C48.4947 81.6497 49.2604 82.555 49.4119 82.7197H49.413ZM16.756 47.0977L16.788 47.7648C16.7619 47.7683 15.4258 47.9307 15.3714 47.9449C14.3713 48.2091 14.8459 48.1096 14.2695 48.5255L14.8459 48.2708C18.2022 49.169 22.4604 48.6215 26.0381 48.6215L24.5386 47.8525C25.915 44.7491 24.0072 48.1238 25.1741 46.5396L16.7572 47.0977H16.756ZM190.224 52.4003C191.058 53.2144 192.729 54.032 193.825 54.7288C193.926 53.8412 193.814 53.8507 194.061 52.9916C194.599 51.1147 193.992 52.0069 195.304 50.9535C194.341 50.1311 196.302 51.1229 194.251 50.1809C193.956 50.0458 193.346 49.9356 192.715 49.714C191.788 49.3894 191.021 48.958 190.013 48.5409L188.812 49.8705C191.664 49.9925 189.391 49.8764 191.411 50.912C190.629 52.8802 191.694 51.6005 190.224 52.4015V52.4003ZM86.5188 55.6009C88.4313 56.5275 91.0882 55.8604 93.493 56.2289L94.9262 55.5025L95.0434 54.2192C92.9403 54.2714 93.654 54.506 92.0776 54.6885C90.9178 54.8224 89.2585 54.7288 88.0455 54.7288L87.5366 53.7109L86.8288 53.2025L85.8489 52.712C84.9424 53.5841 85.2536 51.4156 84.998 54.2204C85.1317 54.3247 85.4951 54.7619 85.5732 54.8366L86.5188 55.6021V55.6009ZM47.9881 37.4806L47.6958 39.8386L44.6744 39.8695V41.6919L46.381 40.9869C46.7194 40.9762 46.2543 41.116 47.536 41.622C47.581 42.045 47.7207 42.6624 47.6781 43.0499C47.5431 44.2846 47.8757 43.5582 47.1786 44.2111L48.013 44.6839L48.742 44.3616C48.8154 44.3296 49.2166 44.191 49.3539 44.0926C49.0509 42.6896 49.0036 43.0996 49.0911 41.6967L48.3692 33.4387L47.6911 33.4897L47.9881 37.4782V37.4806ZM132.781 65.8602C135.647 66.2678 133.942 64.3944 135.985 66.6944C135.969 66.5261 135.882 65.5734 135.898 65.4312C136.161 63.1028 135.96 64.7606 136.226 63.9429C135.888 66.461 135.637 64.4027 136.379 66.833C133.789 66.6245 135.53 66.8011 134.864 67.217L135.701 67.5808C135.819 67.6222 136.366 67.9054 136.523 67.9256C138.502 68.1898 137.173 68.3711 138.116 67.4433C137.231 65.0947 136.782 64.9075 136.568 62.367C134.849 64.0212 135.324 60.0504 135.324 63.7996C132.998 64.5627 136.768 62.6265 134.716 64.3672L133.866 65.0058C131.652 62.3847 132.628 61.6678 130.748 62.4629C131.759 63.783 131.964 64.4347 132.781 65.8602Z" fill="#FEFEFE"/>
<path fill-rule="evenodd" clip-rule="evenodd" d="M93.493 56.2301C91.087 55.8604 88.4312 56.5287 86.5187 55.6021C83.7825 55.403 85.3483 55.2916 84.8583 56.2574C88.0075 58.1225 97.3784 55.8995 100.272 56.9636L99.9465 55.2585C99.163 55.0227 99.4802 55.3699 99.1713 54.7264C98.7725 55.1139 99.1879 54.9373 98.0837 55.1103C97.9275 55.1352 96.4541 55.2976 96.299 55.3497C95.4564 55.6365 95.1309 56.396 93.4942 56.2289L93.493 56.2301ZM21.7988 31.8248C23.716 33.3392 24.9149 31.6388 27.044 35.1949C27.7186 35.5101 27.3186 35.4864 28.5068 35.3477C28.5375 35.3442 29.908 35.0112 29.979 34.9981C29.6405 33.78 29.9163 34.0419 28.4145 32.9837C27.3671 32.2455 27.7233 32.4671 26.4593 31.8971C24.361 30.9515 23.2841 30.9658 21.0153 30.5439C21.3538 30.948 21.5041 31.3829 21.7988 31.8248ZM147.014 93.9199C147.014 89.3353 146.818 91.7787 147.521 90.3568C150.53 91.1613 149.488 92.985 149.054 93.4187C148.24 94.2304 148.768 93.9199 147.014 93.9199ZM145.488 90.8663C145.488 98.3635 150.452 93.6391 151.08 93.4116C150.839 90.5132 150.01 90.3888 148.03 89.3401C146.896 89.9408 146.5 90.1897 145.488 90.8675V90.8663ZM57.9187 84.7579C58.2299 85.2034 59.2939 84.6903 56.9861 86.1905L52.2486 88.6149C50.4533 89.205 50.9089 88.545 49.413 89.8472C52.0675 89.8472 54.5197 89.3946 56.695 87.9786C57.9518 87.1609 56.8003 87.9525 57.5281 87.302C60.2525 85.9333 59.0039 85.8219 60.146 83.6132L57.8737 83.4532L57.9199 84.7567L57.9187 84.7579ZM44.3276 38.2627L44.8365 38.5566C45.6318 36.298 45.3229 36.8099 45.1359 34.3689C46.6732 34.0715 46.1809 34.2813 47.3135 32.8759C46.6815 33.1923 46.8141 33.043 46.6898 33.1591C45.5395 30.557 42.679 31.1245 40.2611 30.1375C40.7925 32.4363 41.1795 31.717 43.8199 32.3332C44.356 34.6367 44.3288 35.3489 44.3288 38.2627H44.3276ZM65.8101 3.78532C65.5687 3.33622 65.3876 4.00691 65.648 3.15374C65.803 2.64777 66.1096 2.32309 66.1865 2.19748C66.3498 2.79588 66.8575 2.77811 65.8101 3.7865V3.78532ZM60.0856 2.06595C60.946 2.15127 61.7295 2.19985 62.4928 2.37049C64.4468 2.80773 62.8621 2.08847 64.5308 3.3694C66.3179 4.74276 66.0232 4.57568 67.1451 6.50952C66.6788 5.86254 66.7865 6.47279 67.712 6.04147C67.8268 6.16589 68.3156 6.53441 68.4055 6.60669L69.2375 7.27263L66.6954 1.28625C63.6171 1.28625 62.3863 1.60382 60.0868 1.79578C59.2832 2.46765 59.6004 1.71876 60.0868 2.06595H60.0856ZM43.8199 22.613L41.7866 23.1723V24.6997C47.0425 24.6997 47.1502 25.3834 48.3952 23.6819L46.3821 23.1107C46.5714 20.659 47.3253 20.7704 47.3786 17.7452C46.4874 18.9195 47.5679 16.6172 46.4365 19.2881C46.2744 19.672 46.1691 20.2882 46.0685 20.6211C45.4815 22.5692 45.7063 23.1688 43.8199 22.6142V22.613ZM169.571 33.3523C170.688 35.2292 170.118 36.0267 171.204 37.9333L172.634 31.941C172.706 31.8746 172.847 31.7538 172.934 31.6424L170.995 31.5938L166.798 31.5476L165.314 31.6436L167.371 32.3296C169.142 32.7598 168.306 32.2941 169.57 33.3523H169.571ZM174.539 31.2904L178.537 30.865C179.398 31.5132 178.952 30.6589 178.53 31.3509C178.056 32.0784 178.329 31.5381 178.331 32.3344L178.379 32.8759C178.427 34.1011 178.259 32.9423 179.37 33.4269C180 32.3604 181.77 31.006 183.194 30.775C182.581 29.385 184.537 29.5237 181.071 29.8377L180.63 29.7891C178.505 30.8034 177.351 29.769 174.757 29.6528L174.538 31.2904H174.539ZM183.105 77.6351C183.634 78.0771 184.381 77.6576 184.08 80.6378C184.015 81.2824 183.792 82.0502 183.876 82.7363C184.16 85.06 184.258 83.9355 184.631 84.4047C185.182 82.8051 184.686 83.6819 184.631 81.1959L187.173 82.2138C187.575 81.2374 187.406 82.0123 187.424 80.9719C187.469 78.3662 186.679 80.0062 184.631 80.1768V78.6494C187.027 78.6494 186.905 78.7407 188.697 79.159V77.6316C187.493 77.6316 186.276 77.6138 185.074 77.6292C182.982 77.6564 181.904 78.3757 183.105 77.6339V77.6351ZM16.6424 29.7974L17.6116 29.5035C14.8553 28.9028 14.8281 28.2878 11.7948 28.7843C8.40887 29.3388 8.38047 28.7511 5.18862 28.3743C5.18862 31.3177 4.93535 29.2215 6.20286 30.1256C9.77461 29.9597 13.3712 30.25 16.6424 29.7974ZM130.355 85.4037L127.494 85.9713C126.576 86.9749 127.78 85.8693 126.615 86.6905C126.332 86.8896 125.972 87.2498 125.901 87.1254C125.841 87.0199 125.646 87.2617 125.526 87.3434C126.606 87.4501 127.642 87.5769 128.632 87.9395L130.821 88.8151L131.274 88.7511C132.554 87.3067 131.274 88.1551 133.079 87.5259L132.821 85.5032L132.719 84.874L132.069 86.2118C132.03 86.1134 131.863 86.4772 131.762 86.6123C131.135 86.1324 130.503 85.5459 130.354 85.4025L130.355 85.4037ZM92.0337 41.641C93.7652 41.6813 93.3084 41.5509 94.2066 43.5535C94.6694 44.5844 94.7167 45.0939 95.1759 46.4981C95.983 48.9593 96.7416 51.0471 95.5463 53.1884L97.2588 52.334C97.4008 52.2167 97.4896 52.1018 97.6292 51.9821C97.7961 51.8399 97.9523 51.7166 98.0967 51.5922C98.2565 51.4548 98.4281 51.2841 98.6198 51.1692C97.8446 50.2556 93.4729 40.7475 93.319 40.4596L92.0314 41.6422L92.0337 41.641ZM118.037 5.35538L119.027 5.75827C118.893 6.68964 118.673 7.30818 118.945 7.95872L119.698 8.78345C119.792 8.83796 120.018 8.84151 120.106 8.87588C120.204 8.91498 120.418 8.90905 120.576 8.91853L120.098 7.39468C120.633 5.93482 120.79 4.59701 121.086 3.32319L122.474 2.81366C121.856 1.93205 123.08 2.47121 121.086 1.62041C120.024 2.08491 119.782 2.19274 119.131 2.87172C118.049 3.9998 118.364 3.527 118.036 5.35657L118.037 5.35538ZM69.6967 10.959L69.9381 12.003C70.4103 12.6559 70.5476 13.0635 70.8021 13.4403C71.9323 15.1218 70.9737 14.0648 72.2838 14.8836L72.0246 14.1489C72.4199 15.1158 71.8116 14.7627 73.8531 16.4655C74.9028 17.3412 73.9951 16.6444 74.8283 17.2014L75.1585 16.046L72.2862 10.9567C71.9027 10.6355 71.0494 10.5443 70.7642 10.4471C70.7938 10.6817 71.0601 10.9567 71.0778 11.0834C71.15 11.6036 70.7322 11.606 70.2979 11.971C69.8683 10.927 70.0529 11.0609 69.6967 10.9578V10.959ZM40.2055 9.93878C40.2457 10.8488 40.1156 11.0206 39.7558 11.9745C41.4612 14.3823 39.9605 14.4049 42.2943 15.0281V7.3935H40.7688C40.7227 9.48257 40.9594 8.54527 40.2055 9.93878ZM118.04 32.4801L118.037 32.8972C116.519 32.9743 116.996 32.6318 117.146 34.3678C118.838 35.0219 118.146 35.311 120.179 35.324C121.698 34.4235 120.455 34.5597 122.342 34.3678C121.717 31.5168 122.723 33.9838 121.222 32.6437C121.113 32.5465 120.399 32.3522 120.259 32.2574C118.184 31.2975 119.577 31.371 117.351 30.6991C117.459 30.7999 117.629 30.7939 117.683 30.9906L118.038 32.4813L118.04 32.4801ZM136.084 85.5435C135.452 85.8824 137.243 86.2805 134.64 85.6703C133.535 85.4108 133.323 85.1975 132.721 84.874L132.822 85.5032C133.654 85.9831 134.839 86.4488 136.316 86.7924C136.234 86.9014 136.211 86.9927 136.187 87.1775C136.156 87.4098 135.852 87.8838 135.769 88.0319L140.632 87.3422C139.819 86.7806 141.5 87.1609 139.386 86.6087C137.124 86.0175 138.824 86.3824 138.161 86.7332L138.71 85.2698C138.29 85.0399 138.386 85.1394 137.835 84.7519C137.782 84.7152 137.613 84.6571 137.574 84.5102C136.888 81.895 137.195 83.7139 138.111 83.0539C138.013 82.9662 137.9 82.8299 137.835 82.7742C137.771 82.7197 137.632 82.5693 137.553 82.5076L136.13 81.6853C136.185 83.1534 136.534 83.535 136.588 84.1476C136.754 85.9902 137.769 84.3597 136.084 85.5447V85.5435ZM98.7204 22.7173L96.6872 23.1723V24.6997C101.943 24.6997 102.051 25.3834 103.296 23.6819L101.283 23.1107C101.47 20.6839 102.226 20.7645 102.279 17.8128C101.063 19.871 100.89 20.6875 100.739 23.2233L98.7204 22.7185V22.7173ZM115.181 38.5092L116.512 37.2045L116.651 36.9142L115.712 34.8903L111.865 38.4286C110.378 40.5579 111.885 40.1894 111.908 40.2345C114.14 40.8731 112.509 40.4075 115.18 38.5092H115.181ZM51.1551 55.23C49.4982 54.8473 50.5811 55.9019 49.9444 54.224C49.2852 52.4892 50.7491 50.4393 49.8556 49.1536L48.0354 49.1275C48.7396 54.2205 49.439 52.962 47.9455 52.8447L48.3313 55.7467L51.0296 56.9304L51.1563 55.23H51.1551ZM40.5866 72.5422H49.9172C49.8154 72.4166 49.6272 72.1038 49.5858 72.1879L49.0934 71.4319C49.0923 71.4295 48.9431 71.0859 48.8994 69.9993L46.8969 70.2055C44.9678 71.4271 45.7525 71.0539 43.7701 71.3015C43.5985 71.3229 42.2825 71.4828 42.1275 71.535C40.2528 72.1559 41.241 71.926 40.5854 72.5422H40.5866ZM180.041 39.828L180.665 38.95C180.899 37.4344 181.354 38.9606 180.256 36.9142C180.281 36.7128 180.434 35.5397 180.429 35.4117C180.377 33.9104 180.646 35.3726 180.052 34.1331C177.265 33.5798 179.325 33.9044 178.532 34.3725C177.949 36.3241 178.396 38.5755 178.103 40.475L180.04 39.8292L180.041 39.828Z" fill="#FEFEFE"/>
<path fill-rule="evenodd" clip-rule="evenodd" d="M160.029 32.8428C162.216 32.8428 163.962 33.0703 164.813 33.0631C165.613 33.0572 165.87 32.9292 166.729 33.0075C167.619 33.088 167.915 33.3191 169.573 33.3511C168.309 32.2929 169.146 32.7586 167.374 32.3285L165.317 31.6424L160.774 30.5759C160.702 30.7051 160.567 30.7383 160.539 30.9539C160.509 31.2004 160.223 31.582 160.187 31.7076C159.975 32.4245 160.049 32.0014 160.03 32.8428H160.029ZM174.54 31.2905L172.936 31.6424C172.849 31.7538 172.708 31.8735 172.636 31.941L171.206 37.9333L172.921 38.5341C172.146 35.0325 172.684 36.4201 172.94 33.3535C176.035 33.2847 175.57 31.9457 178.532 31.3521C178.954 30.6601 179.401 31.5144 178.539 30.8662L174.541 31.2916L174.54 31.2905ZM139.392 37.9321L139.982 35.9011C139.647 35.3525 139.572 35.721 139.555 34.587C139.553 34.3808 139.754 33.152 139.789 32.8428C140.672 31.819 139.488 32.524 141.068 32.4091L139.041 29.1374C139.011 28.9431 138.909 28.8957 138.85 28.7713C138.788 28.8755 138.682 28.9052 138.666 29.0853L138.372 33.3511C138.381 35.0468 138.373 36.746 138.373 38.4417C139.411 38.1667 138.838 38.6052 139.392 37.9321ZM184.632 84.4048C184.259 83.9355 184.161 85.0612 183.876 82.7364C183.792 82.0514 184.016 81.2836 184.081 80.6378C184.383 77.6576 183.635 78.0771 183.106 77.6351C183.106 80.9506 183.223 82.5811 182.597 85.2674H188.697C188.594 84.0327 189.032 84.272 188.291 83.6286C187.265 82.7387 187.945 83.4473 187.68 84.2495L184.63 84.4048H184.632ZM183.196 30.775C181.771 31.0061 180.001 32.3593 179.372 33.4269L180.054 34.1343C180.648 35.3726 180.378 33.9116 180.431 35.4129C180.436 35.5409 180.282 36.714 180.259 36.9154C180.364 36.8123 180.519 36.5066 180.551 36.5836C181.043 37.7544 179.745 34.0313 184.177 31.3699C184.268 31.3153 184.42 31.236 184.503 31.1886C184.584 31.1412 184.757 31.0416 184.823 31.0037C184.89 30.9658 185.04 30.8864 185.142 30.8165C184.77 30.1257 184.331 30.9871 185.142 30.1956C187.42 30.7323 187.202 30.7217 188.047 29.7903C186.627 29.2417 186.402 29.3199 184.391 30.1813C184.136 30.2915 183.681 30.6968 183.601 30.5653C183.529 30.4468 183.333 30.7075 183.197 30.7762L183.196 30.775ZM99.738 81.5384C100.521 82.2517 99.6113 81.6948 101.052 82.4306C101.661 82.7423 101.834 82.7541 102.455 83.0516C103.688 83.6417 104.067 83.8857 105.33 84.6026C107.554 84.5434 105.818 84.8764 106.509 83.3395C106.058 84.4818 106.442 83.1227 106.674 82.3844L101.718 80.7373C100.985 81.8275 101.413 81.7967 99.7391 81.5384H99.738ZM195.031 34.3702C196.484 36.0789 197.279 39.2545 197.34 42.0048L198.517 42.5131C198.048 38.5981 198.593 36.887 196.659 33.3061L195.032 34.369L195.031 34.3702ZM95.5484 53.1884L95.1638 53.09L95.0443 54.2193L94.9271 55.5026L93.4939 56.229C95.1307 56.396 95.4561 55.6365 96.2988 55.3497C96.4538 55.2964 97.9272 55.1341 98.0835 55.1104C99.1876 54.9374 98.7722 55.1139 99.1711 54.7264L98.6231 51.1692C98.4302 51.2842 98.2598 51.4548 98.1 51.5922C97.9556 51.7167 97.7982 51.8399 97.6325 51.9821C97.4929 52.1018 97.4041 52.2167 97.2621 52.334L95.5496 53.1884H95.5484ZM109.903 49.1299C109.161 50.5009 110.23 50.8208 111.431 51.7653C111.65 51.7735 112.883 51.9169 112.987 51.8968C114.795 51.5437 113.655 52.1563 114.737 50.963C112.476 49.5518 113.594 49.8907 112.067 48.2092C112.045 48.2033 111.011 47.9556 110.892 47.9307L109.904 49.1299H109.903ZM60.1457 83.6144C59.0037 85.8232 60.2522 85.9345 57.5279 87.3032C59.0427 86.956 60.0925 86.3789 61.4085 85.5731L64.3187 83.8715C65.43 82.8738 64.0962 84.4379 65.1708 82.7257L63.9873 83.0018L63.6737 82.0396L60.1446 83.6156L60.1457 83.6144ZM84.9965 49.7485L85.374 50.3066C85.4119 50.3492 85.5444 50.5139 85.5859 50.5602L86.0616 51.0081L86.5185 49.8077L88.1315 49.7378C88.1256 48.5007 89.2227 48.6228 88.0428 48.6228C87.2842 47.8395 87.3469 48.0149 87.6203 46.3263L87.4144 45.3025C87.4144 44.2787 87.6416 44.5892 86.5208 44.5892C85.7669 46.3334 85.1373 47.8857 84.9953 49.7485H84.9965ZM44.8374 38.5578C45.7889 38.5424 45.5569 38.7746 46.6789 38.3611C47.7594 37.9641 47.3594 38.0139 47.9878 37.4818L47.6908 33.4933C47.0529 33.0691 47.2008 33.3061 46.6919 33.1603C46.8162 33.0442 46.6836 33.1935 47.3156 32.8771C46.183 34.2825 46.6753 34.0727 45.138 34.3702C45.325 36.8112 45.6339 36.2993 44.8386 38.5578H44.8374ZM25.1726 46.5396C24.0057 48.1227 25.9135 44.748 24.5371 47.8525L26.0366 48.6216L29.5847 50.6573C29.5847 50.5293 29.5835 50.9073 29.8675 50.4097C29.922 50.3149 30.0344 50.1004 30.09 49.9973C30.1646 49.861 30.2652 49.6229 30.3563 49.438L27.7053 47.9426C26.8319 47.2281 27.6272 48.054 27.0875 47.0942L28.3172 46.8311L27.9692 45.6248L27.1005 45.4672C25.9537 46.5017 26.6768 46.0479 25.1715 46.5396H25.1726ZM127.191 13.1678C128.617 12.8787 128.227 13.483 129.026 12.8135L127.449 10.9567C127.386 10.4306 128.267 10.1355 126.68 10.7789C125.865 10.4199 125.028 9.94354 124.292 9.69589C120.198 8.31897 122.444 9.45416 121.599 9.9388C121.732 10.0466 121.919 10.0372 122 10.2576C122.267 10.9839 125.78 11.4283 127.191 13.1678ZM199.238 93.9199C199.095 94.0088 198.934 94.1273 198.803 94.1782L197.375 94.6191C197.294 94.6333 196.004 94.6226 195.657 94.651L194.798 89.769C194.798 92.0939 195.078 93.2919 194.289 94.9378H202.069C201.936 93.8785 201.991 92.9886 201.886 91.8842C201.835 91.3438 201.815 90.9161 201.648 90.3591C201.294 89.1813 201.381 89.7643 200.897 89.1221V94.4283H200.388V92.9009L199.237 93.9187L199.238 93.9199ZM206.275 92.9021L206.922 92.312C206.954 94.3939 207.138 93.587 206.49 94.9378H209.033C209.033 91.8297 208.524 90.8521 208.524 88.2784L207.267 90.4575C206.924 90.9457 206.609 89.7856 206.275 92.9021ZM89.0629 3.82919C89.689 3.05186 90.9364 4.92646 89.2843 2.66675L83.471 2.80895C82.2698 1.81003 83.0698 2.96299 82.4567 1.28747C82.5573 0.659442 83.813 0.777937 81.9455 0.777937V6.37684C84.5361 5.68364 82.8118 5.75829 83.9787 3.32321C86.2794 3.32321 87.0191 3.04001 89.0618 3.82919H89.0629ZM109.986 23.1724C107.922 23.3335 108.387 22.7671 107.871 24.6998H116.513V23.6819C115.585 23.2209 115.876 23.292 114.479 23.1724C114.374 21.8973 114.593 22.5811 114.193 21.4234C113.447 19.2656 114.072 20.9968 113.463 20.1187C113.463 18.0735 113.656 19.9031 112.457 19.1009C113.297 21.1828 113.484 20.9695 113.495 22.7624C113.495 22.8524 113.505 23.01 113.505 23.1001L113.465 24.6358L109.194 24.2732L109.987 23.1724H109.986ZM67.146 6.50955L67.662 8.44102C67.6549 8.56307 67.4833 8.99677 67.4679 8.91619C67.4514 8.82613 67.294 9.25746 67.2028 9.4269L67.2052 9.43164C67.3886 9.40084 67.6064 9.32737 67.7532 9.33685C67.8869 9.34514 68.107 9.27997 68.2585 9.30722C70.1095 9.64138 69.7947 9.8843 69.6964 10.9579C70.0527 11.0598 69.868 10.9271 70.2976 11.971C70.7308 11.606 71.1486 11.6037 71.0776 11.0835C71.0598 10.9555 70.7947 10.6818 70.7639 10.4471C71.5024 9.08208 71.3675 9.93643 70.7616 9.42927L70.1911 7.41367C69.5769 6.8283 69.9177 7.30584 69.2361 7.27266L68.4041 6.60672C68.3141 6.53444 67.8253 6.16592 67.7106 6.0415C66.7851 6.47282 66.6774 5.86257 67.1437 6.50955H67.146ZM67.3224 31.608L67.7129 34.0253L68.2893 34.8252C69.9414 34.254 68.2964 34.9164 69.2207 34.369C70.126 33.8322 68.6964 34.4969 70.0148 33.8594L68.2384 32.332C69.0952 31.8296 66.8939 31.8415 69.2668 31.9469C71.2373 32.0334 69.358 32.1377 71.5178 33.3523C71.3344 36.2459 71.6279 34.3393 70.7639 35.0207C72.1451 35.5409 71.9995 35.3039 72.4954 33.3499C70.9521 32.005 74.099 32.7503 71.2894 32.332C72.4149 31.0902 71.0503 31.8889 73.0386 31.5926L71.7805 30.8603C68.7402 32.1993 69.7059 30.8556 67.3236 31.608H67.3224ZM74.4386 72.5422H84.9314C83.9846 71.7483 81.1727 71.189 79.8022 71.0456C78.5666 70.9165 75.4209 71.676 74.4398 72.5422H74.4386ZM162.773 18.0024C163.332 16.4999 162.855 12.5386 162.736 10.7967L161.079 10.3168C162.187 13.1915 160.196 15.9347 162.773 18.0024ZM116.293 86.4796C116.446 86.3979 116.685 86.1301 116.761 86.2474C116.835 86.3611 117.345 85.9369 117.551 85.7414C118.191 85.1359 117.739 85.5127 118.261 84.7543L117.465 84.2495C117.179 84.0434 118.062 83.8241 116.231 83.4971C114.534 83.1937 115.936 83.1143 114.482 83.7388L113.561 83.6879C113.914 86.3907 113.406 85.489 116.294 86.4808L116.293 86.4796ZM162.175 81.1947C161.309 83.9059 162.554 83.6274 160.23 84.2484V80.3558C159.675 80.908 159.1 79.2597 159.183 82.6937C159.209 83.7554 159.678 84.3562 160.111 85.2674C163.338 84.8716 163.381 83.3028 162.773 80.6864C162.389 80.3653 161.536 80.274 161.251 80.178L162.176 81.1959L162.175 81.1947Z" fill="#FEFEFE"/>
<path fill-rule="evenodd" clip-rule="evenodd" d="M88.6076 46.151L87.6205 46.3264C87.3483 48.0161 87.2844 47.8395 88.043 48.6228C89.2218 48.6228 88.1259 48.5007 88.1318 49.7378C88.2146 49.8018 88.3578 49.7805 88.3862 49.9203C88.4158 50.0661 88.5945 50.0874 88.6324 50.1383C89.0703 50.7166 88.9176 50.4784 89.2727 51.1645L90.0183 51.7463C89.8029 50.4855 89.2265 49.4001 89.7236 47.7388C90.2917 45.8393 90.5011 48.15 90.0786 45.0111C87.4986 44.2456 89.2111 44.7207 88.9354 45.075C89.7733 46.0349 89.0407 44.7124 89.6218 46.1735L88.6064 46.1486L88.6076 46.151ZM60.8762 31.3284L53.0735 31.2455C52.7954 32.6793 53.9197 31.5844 58.0666 32.1697C60.6679 32.5371 61.8348 33.0513 63.9106 32.3344C62.552 31.4031 62.2822 31.7183 60.8762 31.3284ZM23.9953 82.952C26.2664 83.0824 24.49 83.1559 25.2025 82.2494C20.6129 81.4424 18.3762 78.7348 13.3203 77.7371C16.0778 79.7266 20.4449 81.3547 23.9953 82.9532V82.952ZM79.1835 19.6092L79.4036 3.08744C78.2024 3.68703 78.7551 8.18037 78.7432 9.93884C78.7255 12.6524 78.877 15.1467 78.5136 17.8401C78.3207 18.0155 78.458 17.7453 79.1823 19.6092H79.1835ZM185.142 71.016C184.831 70.4804 185.322 70.8478 183.877 70.2825C183.046 69.9567 182.666 69.8157 182.091 69.4886C180.907 68.8156 180.088 68.2977 179.039 67.0405C175.224 67.2491 178.357 66.813 177.054 68.3037C180.394 68.8333 179.192 68.9435 181.731 70.3501C182.575 70.8181 184.895 72.2934 185.141 71.0172L185.142 71.016ZM120.072 26.7355H120.581L120.157 27.3292L120.072 26.7355ZM118.038 27.7534C120.453 27.7534 119.003 27.7427 119.564 28.2629L120.096 28.4217L121.595 28.7085L121.186 28.148C121.235 28.225 121.996 28.5082 122.409 27.9963C123.526 26.6123 122.1 29.8105 123.066 26.2284C122.602 25.7947 121.901 25.8243 121.597 25.72C121.444 25.7935 120.779 26.1573 120.683 26.2272C120.603 26.2853 120.423 26.4239 120.345 26.482C120.276 26.5329 120.163 26.6514 120.072 26.7355C118.074 26.6905 118.88 26.8754 117.53 26.2272C117.886 27.5745 117.489 26.6455 118.037 27.7546L118.038 27.7534ZM107.366 40.9858C107.582 42.07 106.817 41.7963 108.095 42.4824C109.501 43.2372 108.288 43.1305 110.192 42.5155L111.024 42.3805C112.899 42.7774 111.922 42.6601 112.819 42.0036C112.663 41.9017 112.484 41.7714 112.34 41.7181C109.102 40.5142 110.76 41.9326 109.852 41.3922L108.38 39.2356L107.366 40.9858ZM132.781 75.6326C133.173 74.2877 133.078 75.4252 134.079 74.6432L134.991 76.8187L134.281 76.7263C135.033 77.5866 133.462 77.2714 136.237 77.9124C136.262 77.5487 136.451 76.3732 136.456 76.2239C136.468 75.8554 136.603 75.9703 136.359 75.0875C137.549 74.0258 135.888 74.5709 137.907 74.732C137.247 73.5127 138.158 74.3208 136.874 74.0566C135.855 73.8469 136.373 74.1644 135.773 74.213L133.289 74.2189C132.683 74.6965 132.78 72.9439 132.78 75.6326H132.781ZM77.5065 22.2303L78.8852 21.8749C78.8852 23.1996 79.1279 22.7707 77.6319 22.4365C78.4237 23.4094 77.8379 22.7671 78.9492 23.4994C80.6688 24.6311 78.6261 23.0788 79.6036 23.8478C80.5409 24.5848 79.451 23.3987 80.3102 24.6998L81.9469 23.1724L79.4048 20.8641C78.0284 20.9719 77.2651 20.607 77.5065 22.2303ZM29.5849 50.6574C29.6086 51.6112 29.3234 50.7391 29.8737 51.8826C30.521 53.2275 30.0228 52.148 30.6039 53.0438L33.4821 52.9775C32.4762 50.6479 32.3921 50.9808 30.3565 49.438C30.2654 49.6241 30.1648 49.8611 30.0903 49.9973C30.0335 50.1004 29.921 50.3137 29.8678 50.4097C29.5849 50.9074 29.5849 50.5294 29.5849 50.6574ZM90.1686 43.2099C90.6432 42.5866 90.2916 42.9018 90.9698 42.3497C90.9887 42.3342 91.8811 41.7584 92.0337 41.6422L93.3214 40.4597C93.003 39.3742 93.5095 39.8316 92.7734 39.3825C90.0952 40.4988 89.61 40.9538 88.7318 43.7953C88.8821 43.8332 89.8206 44.2562 90.0218 43.5607C90.0644 43.4149 90.1189 43.3272 90.1686 43.2099ZM132.781 65.8603C132.781 67.7941 132.818 66.9504 133.29 67.5702C135.556 68.6094 135.445 68.4672 138.68 68.8416L138.117 67.4422C137.173 68.3712 138.502 68.1887 136.524 67.9245C136.367 67.9031 135.82 67.6199 135.702 67.5797L134.865 67.2159C135.53 66.8 133.791 66.6234 136.38 66.832C135.638 64.4016 135.889 66.4611 136.227 63.9419C135.961 64.7595 136.162 63.1029 135.9 65.4302C135.883 65.5735 135.971 66.5251 135.986 66.6933C133.943 64.3933 135.647 66.2667 132.782 65.8591L132.781 65.8603ZM166.801 31.5464L170.998 31.5927C171.577 30.4587 171.244 31.2431 171.468 29.8697L166.046 29.9752C166.169 30.2264 166.253 30.3402 166.3 30.6364C166.336 30.8734 166.713 31.4031 166.8 31.5476L166.801 31.5464ZM116.514 21.536L117.597 21.7267L117.359 20.1235C118.16 20.0157 117.864 20.1022 118.345 19.5725C117.093 17.5427 117.557 17.6209 118.546 15.6076C119.165 15.3233 119.055 17.3341 119.055 14.5199C117.37 14.9701 117.524 15.0365 116.921 16.9644C116.56 18.1209 116.514 19.6957 116.514 21.5371V21.536ZM105.33 84.6027C106.85 85.1572 107.64 85.6917 109.308 86.2841L110.378 84.7567C108.717 83.8929 109.326 84.5458 109.171 84.5114L106.675 82.3833C106.443 83.1227 106.059 84.4806 106.509 83.3383C105.818 84.8752 107.554 84.5422 105.33 84.6015V84.6027ZM149.635 1.85154C152.501 3.43108 154.03 3.40857 156.361 1.74371C154.589 1.5162 150.994 0.673695 149.635 1.85154ZM131.276 88.7524L132.95 88.5557C133 88.4336 133.839 88.1765 133.892 88.1421L133.709 89.365C135.343 87.7084 133.918 88.2429 135.768 88.0343C135.851 87.8862 136.156 87.4122 136.186 87.18C136.21 86.9951 136.233 86.9027 136.315 86.7948C134.838 86.4524 133.654 85.9855 132.821 85.5056L133.079 87.5283C131.274 88.1564 132.554 87.3091 131.274 88.7536L131.276 88.7524ZM161.636 4.33994L163.181 5.59717C164.136 4.79377 163.29 5.56992 164.083 4.571C165.657 2.58858 163.107 4.52124 166.978 2.76988C167.463 1.48302 167.696 1.79585 166.33 1.79585L163.486 3.02938C163.361 3.11351 163.042 3.37776 162.918 3.46426C162.246 3.93705 162.316 3.83159 161.636 4.33757V4.33994ZM196.658 33.3061C197.211 32.5596 197.254 33.3618 196.848 31.8249C195.93 30.4942 196.568 30.7715 194.798 30.2975C194.128 29.4953 194.954 30.0096 193.781 30.1399L191.75 29.282C194.145 33.5099 193.833 29.6529 196.658 33.3061ZM63.6751 82.0385L63.9888 83.0006L65.1722 82.7245C66.6386 83.5196 65.7912 83.2921 67.441 83.0291C70.1405 82.5977 69.1902 83.0385 69.7476 81.7067L67.7144 82.2648C67.0267 81.6936 66.5676 83.4118 67.4445 81.0158L63.6763 82.0385H63.6751Z" fill="#FEFEFE"/>
<path fill-rule="evenodd" clip-rule="evenodd" d="M75.8457 22.6651C76.46 24.1333 75.8434 24.1309 77.7914 24.8466C78.2032 24.9983 78.6589 25.1334 79.0068 25.1464C81.6566 25.2389 79.6175 25.3265 80.3087 24.6985C79.4494 23.3986 80.5394 24.5836 79.6021 23.8465C78.6246 23.0775 80.6672 24.6298 78.9476 23.4982C77.8364 22.767 78.4234 23.4081 77.6304 22.4353C77.5156 22.4862 77.3547 22.5703 77.286 22.5869C77.2186 22.6035 77.0091 22.6794 76.9334 22.6948C76.86 22.7102 76.6434 22.7303 76.5771 22.741C75.4197 22.9318 77.9133 22.9744 75.8446 22.664L75.8457 22.6651ZM72.2846 14.8836C72.674 15.9868 75.48 19.7727 76.4777 20.3391L76.7322 18.5261C76.6919 18.2702 76.5878 18.2299 76.5156 18.0829C76.4292 17.8531 76.3771 17.5284 76.1819 17.2203C75.3593 15.9228 75.9286 16.7333 75.1581 16.0472L74.8279 17.2025C73.9948 16.6444 74.9025 17.3423 73.8528 16.4667C71.8112 14.7639 72.4196 15.117 72.0243 14.1501L72.2835 14.8847L72.2846 14.8836ZM115.714 34.8915L116.653 36.9154C118.753 36.5516 118.281 36.2992 120.18 35.8975V35.3252C118.147 35.311 118.838 35.023 117.147 34.3689L116.186 34.2409L115.714 34.8927V34.8915ZM129.222 3.28762L127.189 1.8479C127.126 1.92492 123.255 2.46408 129.069 4.61476L129.268 7.49894C129.463 6.74057 129.62 6.06752 129.643 5.31744C129.714 3.08499 129.803 4.13841 129.222 3.2888V3.28762ZM69.7461 81.7066C72.0775 82.824 70.5402 81.8429 70.9733 82.7221C71.4811 83.2387 70.7485 84.6074 72.3391 82.875C73.1782 81.9602 72.6728 82.5325 72.5119 81.2978L67.443 81.0158C66.5661 83.4117 67.0252 81.6936 67.7129 82.2647L69.7461 81.7066Z" fill="#FEFEFE"/>
<path fill-rule="evenodd" clip-rule="evenodd" d="M116.186 34.2397L117.147 34.3677C116.996 32.6318 116.519 32.9742 118.038 32.8972L118.04 32.4801C117.476 32.2597 117.254 32.0168 116.773 31.698L113.969 33.3273C112.743 33.9281 114.099 32.8652 113.056 33.9648C116.649 35.9271 112.235 32.8024 116.186 34.2397ZM136.085 85.5434C137.769 84.3585 136.754 85.989 136.589 84.1464C136.533 83.5338 136.184 83.1522 136.131 81.684L135.831 80.9837C134.236 81.8013 134.415 82.0822 133.821 82.9472C135.105 84.4722 135.011 83.1084 136.086 85.5434H136.085ZM158.706 11.7742C159.471 11.3453 160.561 10.9637 160.99 10.5905C162.067 9.65197 161.706 9.81194 161.677 8.33905L159.722 8.20989C159.337 10.1828 159.076 9.7207 158.706 11.7754V11.7742ZM145.489 90.8651L141.422 89.8472C142.184 91.8308 141.26 90.0688 142.948 90.8651C142.948 93.0702 143.191 93.3677 142.44 94.9365H144.473C143.722 93.3677 143.964 93.0702 143.964 90.8651H145.49H145.489ZM94.7113 33.8606C94.4911 32.9754 94.4225 32.6803 94.1456 31.8272L92.1348 32.2763L92.8721 35.5586C93.7893 35.023 93.1029 35.465 93.871 34.9081C94.4178 34.5111 94.168 35.2114 94.7113 33.8606ZM160.111 85.2673C159.679 84.3561 159.209 83.7553 159.183 82.6936C159.1 79.2608 159.675 80.9079 160.23 80.3557C161.513 81.0679 160.99 80.7787 162.174 81.1946L161.249 80.1768C161.242 78.9255 161.421 80.2384 160.738 79.6673C156.127 79.7703 160.115 81.2622 158.196 85.2662H160.109L160.111 85.2673ZM104.313 6.54384C105.26 6.27486 103.92 6.50237 105.315 6.44431C106.773 6.38269 105.333 6.77254 106.295 6.37558L106.919 3.84571L105.837 2.57544C105.399 3.20939 104.428 5.54611 104.312 6.54384H104.313ZM27.9912 37.6477L27.7285 38.6549C28.1735 38.5731 30.1689 38.1287 30.2067 38.105C31.7133 37.1843 30.9476 38.0612 31.0529 36.2008L30.9251 36.343L28.3285 36.1475L27.9912 37.6477ZM29.2789 44.2763C30.0209 44.7965 29.886 44.9813 31.1109 45.0607L31.3642 45.0583C31.8092 44.2798 31.6423 44.2621 32.5122 43.5309L30.4411 41.7902L29.2777 44.2751L29.2789 44.2763ZM142.478 78.2915C140.688 77.7891 142.193 76.7523 138.743 76.1681L138.613 76.3956C138.957 76.9833 139.326 77.7251 140.129 78.4515C140.3 78.6067 140.719 79.0558 141.062 79.0961C143.673 79.4089 141.737 79.3141 142.478 78.2915ZM177.006 65.1006L176.498 63.1194C175.421 61.9866 176.266 62.713 174.887 62.2188L174.723 65.667L177.007 65.0994L177.006 65.1006Z" fill="#FEFEFE"/>
<path fill-rule="evenodd" clip-rule="evenodd" d="M27.1001 45.4672L27.9688 45.6248L28.3167 46.8311L29.0777 46.4459C30.9192 46.7209 29.5984 46.6711 30.0943 46.0762C32.1382 46.0762 30.3097 46.2706 31.1109 45.0607C29.8848 44.9813 30.0209 44.7965 29.2789 44.2763C28.3061 44.6436 28.0126 44.6436 27.1001 45.4672ZM130.501 17.571L130.641 18.5936L130.628 20.6803C131.669 20.2644 131.912 20.8569 132.025 18.5178C132.105 16.8885 132.015 16.8577 131.255 15.9358L130.501 17.571ZM14.2688 48.5255C14.8451 48.1096 14.3706 48.2092 15.3706 47.9449C15.425 47.9307 16.7624 47.7683 16.7872 47.7648L16.7553 47.0977L11 47.2565C12.0036 48.3087 12.8166 48.5872 14.2688 48.5243V48.5255ZM48.3921 16.5555H53.1734L53.0645 15.3978L48.9034 15.6064C48.475 15.1585 48.0821 16.2249 48.5874 15.0257L48.1105 15.0269L48.3921 16.5555ZM86.0624 51.008C87.1417 50.5518 86.8884 50.3504 86.8884 51.5081C87.7039 52.3257 88.3749 52.9407 89.1939 53.7097H90.0791C88.7134 51.8434 88.2589 53.43 88.311 50.6561L88.1323 49.7377L86.5192 49.8077L86.0624 51.008ZM100.754 16.5674L102.295 16.0472C102.293 16.0436 101.504 14.8267 101.265 14.5198H98.7256C99.2132 16.373 99.3694 15.5827 100.755 16.5674H100.754ZM128.205 23.683C129.648 24.5776 128.784 24.3691 129.28 23.6806C130.501 22.8713 129.761 23.7695 130.261 22.4708C131.694 20.3213 130.702 22.0561 130.239 21.2396L128.439 22.3416C128.325 22.44 128.057 22.7505 127.943 22.85C126.861 23.7897 127.94 22.9258 126.923 23.6214C127.538 23.92 126.269 23.9449 128.205 23.683ZM70.0144 33.8606C70.8842 34.6687 70.3919 34.2386 70.7623 35.023C71.6263 34.3405 71.3327 36.2482 71.5162 33.3546C69.3563 32.14 71.2357 32.0357 69.2652 31.9492C66.8923 31.8438 69.0936 31.8319 68.2368 32.3343L70.0132 33.8617L70.0144 33.8606ZM97.1966 89.3389H101.771V88.321H97.1966V89.3389ZM198.587 60.4331L200.377 59.4164L200.379 57.3866L198.862 57.6769C198.118 59.7174 197.883 58.7339 198.587 60.4331ZM35.8981 68.0808L36.7029 67.5286C37.523 67.4066 37.3029 67.5452 36.7052 66.9444C37.1774 64.8234 36.7088 66.1908 37.6615 64.4015C34.5075 65.5035 38.1822 64.0591 34.7205 66.5641C34.6294 66.6304 34.4495 66.7311 34.3229 66.8283C36.7372 67.8628 35.188 67.0973 35.8969 68.0808H35.8981ZM44.8369 38.5577L44.6736 39.8706L47.6951 39.8398L47.9874 37.4818C47.3589 38.0138 47.759 37.9641 46.6784 38.361C45.5565 38.7734 45.7885 38.5423 44.8369 38.5577ZM136.236 77.9124C136.366 77.8377 136.533 77.5486 136.603 77.6517C136.673 77.7559 136.873 77.449 136.97 77.3851C137.069 77.3199 137.228 77.1978 137.347 77.122C137.969 76.725 137.553 76.8459 138.614 76.3968L138.744 76.1693L138.16 75.8245L137.906 74.7331C135.887 74.572 137.55 74.0269 136.358 75.0886C136.601 75.9714 136.467 75.8565 136.455 76.225C136.45 76.3743 136.261 77.5498 136.236 77.9135V77.9124ZM148.215 71.0159C149.563 72.5019 151.778 71.2162 153.064 71.0301L151.588 69.8381C150.276 70.7055 149.902 70.7138 148.215 71.0159ZM81.9462 56.896L81.9486 56.8889C83.9865 56.4742 82.6776 57.3333 83.6493 56.281L78.3875 55.2537L79.4799 56.7017L81.9462 56.896ZM99.9458 55.2584L100.271 56.9636L101.063 56.7681L100.758 56.313C103.357 56.518 102.753 56.2289 103.361 55.7478C102.196 54.41 102.019 54.9575 99.9458 55.2596V55.2584Z" fill="#FEFEFE"/>
<path fill-rule="evenodd" clip-rule="evenodd" d="M48.5864 15.0258C48.0811 16.2249 48.4728 15.1585 48.9024 15.6064L53.0635 15.3978L52.5262 14.5198H48.887L48.9024 13.6488L48.5864 15.0258ZM122.341 34.3666L125.106 33.7705C124.713 33.5027 124.727 33.0963 124.547 32.774L122.902 32.6839L120.259 32.2562C120.399 32.351 121.114 32.5453 121.223 32.6425C122.723 33.9826 121.717 31.5156 122.342 34.3666H122.341ZM27.5524 37.6477H27.9915L28.3288 36.1475L30.9253 36.3431L29.9797 34.997C29.9087 35.01 28.5382 35.343 28.5075 35.3465C27.3193 35.4851 27.7193 35.5089 27.0447 35.1937C27.4861 36.5279 27.4222 35.7897 27.5524 37.6465V37.6477ZM121.593 28.7084L121.913 30.0367C123.761 30.1481 122.99 29.9147 123.516 27.7533C123.007 26.4712 123.416 25.9747 121.595 25.72C121.9 25.8242 122.6 25.7946 123.064 26.2283C122.098 29.8116 123.525 26.6122 122.407 27.9963C121.994 28.5082 121.235 28.2249 121.185 28.1479L121.593 28.7084ZM33.9243 85.7437L34.9172 85.3527C33.1964 83.74 31.8047 84.5635 30.3064 85.8847L33.9243 85.7437ZM88.9787 23.0657C89.2852 24.5765 88.3704 23.4271 89.5704 24.253L92.9753 24.1025L91.6924 22.6723C90.1042 23.1107 90.3906 23.4958 88.9787 23.0657ZM198.134 32.3332L198.931 33.8452C199.452 32.2621 199.243 32.0476 200.157 31.1589C199.686 28.4809 200.194 30.7773 199.37 29.8021L198.973 30.4301C198.925 30.5249 198.706 30.9871 198.65 31.1139C198.444 31.5701 198.272 32.0286 198.132 32.3332H198.134ZM85.8484 52.7108L86.8283 53.2014C87.6958 53.2014 87.536 52.9513 87.536 53.7097H89.1917C88.3727 52.9407 87.7017 52.3257 86.8863 51.5081C85.4306 51.9667 85.5454 50.4167 85.8472 52.7096L85.8484 52.7108ZM132.779 75.6325L132.491 76.1053C133.482 76.8056 130.953 77.0675 134.279 76.7251L134.989 76.8175L134.078 74.6419C133.076 75.424 133.171 74.2864 132.779 75.6313V75.6325ZM5.18458 65.3104C3.97743 65.769 4.49343 65.2073 4.16797 66.4349H6.03669C7.06513 65.3566 7.49829 65.8259 8.5078 64.4809C6.26037 64.6599 7.29 63.9003 6.65447 65.9432L5.18458 65.3104ZM142.44 70.5716C142.541 70.5112 145.43 70.9899 142.727 69.3073C141.666 68.6472 141.542 69.0466 140.542 69.2551L142.44 70.5716ZM139.98 35.9011L141.065 32.4078C139.485 32.5228 140.668 31.8177 139.787 32.8415C139.751 33.152 139.55 34.3796 139.552 34.5858C139.569 35.721 139.645 35.3512 139.98 35.8999V35.9011ZM25.3073 84.1274L30.0945 84.3502C28.685 83.0574 26.9074 83.0562 25.3073 84.1274ZM166.864 21.6449C166.038 20.2834 166.502 21.0133 165.821 20.8202C164.436 20.8391 165.442 20.3711 164.749 21.1354C165.846 22.728 164.974 21.8641 166.24 22.6711C167.12 22.1355 167.139 23.5325 166.862 21.6437L166.864 21.6449ZM116.512 23.6807L117.502 24.2328L118.163 23.1285C116.843 22.5573 117.481 23.7849 117.595 21.7267L116.512 21.5359V23.6807ZM130.508 85.0742L130.354 85.4036C130.504 85.547 131.136 86.1336 131.763 86.6135C131.863 86.4796 132.03 86.1146 132.069 86.213L132.72 84.8752L132.713 84.2969C131.307 84.6216 131.939 84.2815 131.475 85.6051C130.908 84.4047 131.765 84.9072 130.509 85.0742H130.508ZM31.6626 67.8095L31.4449 66.7027L29.5844 65.9467L29.601 66.9445C30.659 68.0085 29.9655 67.5666 31.6615 67.8107L31.6626 67.8095ZM116.291 86.4796L116.515 86.8481C118.576 86.4701 117.289 87.693 118.433 86.0909C119.296 84.8823 118.608 85.5233 118.259 84.7555C117.739 85.5138 118.189 85.137 117.549 85.7425C117.343 85.938 116.833 86.3623 116.76 86.2485C116.684 86.1312 116.445 86.399 116.291 86.4808V86.4796ZM138.707 85.2697L139.01 84.4379L138.11 83.0527C137.194 83.7139 136.885 81.895 137.572 84.509C137.612 84.6571 137.781 84.7152 137.833 84.7507C138.383 85.1394 138.287 85.0387 138.709 85.2686L138.707 85.2697ZM63.6439 80.7705L64.2581 79.7005L60.5941 77.8496C62.2024 79.9197 62.1669 78.3247 63.6439 80.7705ZM92.4889 19.9232L91.1054 20.0002C91.4048 23.1581 90.761 21.1994 92.2486 21.8618L92.4889 19.9232ZM112.261 54.7288L113.434 52.8257L111.232 53.2014C111.84 54.6221 111.242 53.7927 112.261 54.7288ZM46.3638 14.5198L44.5105 14.6489C44.4147 14.675 44.2348 14.7698 44.1578 14.7947C44.0809 14.8196 43.9306 14.9049 43.8194 14.9665C44.7934 15.4369 46.4467 15.546 46.8728 15.54L46.3638 14.5198ZM67.7091 33.8606L67.7115 34.0265L67.321 31.608L65.6475 32.1791L67.7091 33.8606ZM121.087 84.6512C123.269 84.906 122.133 84.3964 122.284 84.2483C120.398 82.7873 122.133 83.3063 120.07 83.3951L121.087 84.6512ZM98.4193 1.4071C98.385 2.16903 98.101 2.31478 98.5767 2.63116C100.359 3.81374 99.6987 2.4309 99.9176 2.30411C99.1614 1.20448 99.9969 1.95929 98.4193 1.4071ZM172.613 88.2689C173.518 88.3411 173.488 88.6409 174.763 87.8115C174.63 87.7084 174.473 87.3482 174.374 87.4892L172.688 87.1064L172.613 88.2689Z" fill="#FEFEFE"/>
<path fill-rule="evenodd" clip-rule="evenodd" d="M121.914 30.0367L121.594 28.7084L120.096 28.4217C120.14 28.5082 120.517 29.5557 120.818 29.9763L121.914 30.0379V30.0367ZM83.7747 57.6509L85.3156 57.9519L84.8576 56.2562L84.3156 56.5133C83.3664 56.5133 83.7747 56.3462 83.7747 57.6509ZM34.775 87.0697C35.1525 85.3705 34.633 86.2556 35.2236 85.4973L34.9194 85.3515L33.9265 85.7425L33.7773 87.0863L34.7762 87.0685L34.775 87.0697ZM126.539 82.2126C125.322 81.3298 127.687 82.305 124.977 81.3096C123.857 80.8985 124.134 80.8771 123.684 81.1947C123.772 81.267 123.882 81.3025 123.913 81.4483C123.943 81.5964 124.111 81.6639 124.149 81.7042C124.188 81.7445 124.356 81.9199 124.395 81.9602L126.539 82.2138V82.2126ZM132.95 88.5556C132.604 90.16 133.224 89.5356 131.797 90.0155L132.716 90.006C133.455 89.7015 133.184 89.8342 133.708 89.3649L133.892 88.1421C133.838 88.1776 132.999 88.4348 132.95 88.5556ZM40.5303 86.7462L41.9883 86.6514L42.1162 85.6738L40.6853 85.8871L40.5303 86.7462ZM76.075 80.7717L76.2395 80.8831C76.2289 80.9293 75.0608 82.8311 77.7035 82.1983L76.075 80.7705V80.7717ZM88.6069 46.1509L89.6223 46.1758C89.0412 44.7136 89.7738 46.0372 88.9359 45.0773L87.9004 44.8866C87.9252 44.9221 88.2826 45.9104 88.6069 46.1509ZM174.973 93.3914L175.992 91.8865C176.174 91.0938 176.257 91.5678 175.48 90.8817C175.211 92.0263 175.086 92.0323 174.972 93.3914H174.973ZM152.229 85.2674C151.878 84.8503 152.084 85.0956 151.755 84.5291L151.081 83.2766V85.2674H152.229ZM168.039 94.4282C167.559 92.9565 167.877 93.5158 166.84 92.7243V93.9187L168.039 94.4282ZM118.164 23.1297C118.348 21.8807 118.677 22.6533 117.596 21.7279C117.482 23.7861 116.844 22.5585 118.164 23.1297ZM66.187 2.19747C66.1101 2.32426 65.8036 2.64776 65.6485 3.15373C65.3882 4.0069 65.5692 3.33621 65.8107 3.78531C66.858 2.7781 66.3503 2.79469 66.187 2.19629V2.19747ZM35.8981 68.0808C35.4579 68.8913 36.0757 68.3913 35.3324 68.9802C36.723 68.543 36.3135 68.8783 36.7017 67.5286L35.897 68.0808H35.8981ZM88.311 50.6573C88.7383 51.1988 88.4128 50.7971 89.2732 51.1668C88.9182 50.4807 89.0708 50.7189 88.6329 50.1406C88.5939 50.0897 88.4164 50.0684 88.3868 49.9226C88.3584 49.784 88.2152 49.8041 88.1323 49.7401L88.311 50.6585V50.6573ZM129.278 23.6807L130.318 23.3915C131.377 23.1723 130.329 23.26 130.26 22.4708C129.76 23.7695 130.501 22.8713 129.278 23.6807ZM172.614 88.2689L172.69 87.1064L171.967 87.5342L172.614 88.2689ZM115.182 38.5092C116.557 37.9913 115.877 38.3847 116.512 37.2045L115.182 38.5092ZM92.8911 31.2371C92.2757 32.1993 93.632 31.6637 93.361 31.2833C93.3586 31.2798 93.2899 31.217 93.2852 31.2134L92.8911 31.2359V31.2371Z" fill="#FEFEFE"/>
</g>
<defs>
<clipPath id="clip0_833_9420">
<rect width="209" height="95" fill="white" transform="translate(0.101562 0.0882568)"/>
</clipPath>
</defs>
</svg>
