<svg width="132" height="55" viewBox="0 0 132 55" fill="none" xmlns="http://www.w3.org/2000/svg">
<g opacity="0.9" clip-path="url(#clip0_315_3654)">
<path d="M104.021 0.873901H105.054C119.629 1.24092 131.242 12.7287 131.575 27.2796V28.2901C131.227 42.7831 119.61 54.3282 105.013 54.6554H104.046C93.0934 54.409 83.4374 47.7609 79.3822 37.6376C79.3737 37.6168 79.3783 37.5992 79.377 37.5757C79.3761 37.5648 79.3702 37.5594 79.3593 37.5594H79.3429C79.3354 37.5594 79.3319 37.5629 79.3324 37.5698C79.5789 42.6233 78.3409 47.9696 74.1152 51.2186C71.6449 53.1182 68.4186 54.0342 65.3234 54.0348C57.5816 54.0365 49.8406 54.0368 42.1005 54.0355C42.0909 54.0355 42.0817 54.0317 42.075 54.0252C42.0682 54.0185 42.0644 54.0096 42.0644 54.0003V1.4919C42.0644 1.48351 42.0661 1.4752 42.0693 1.46745C42.0725 1.4597 42.0773 1.45266 42.0832 1.44673C42.0892 1.44079 42.0963 1.43609 42.1041 1.43288C42.1119 1.42967 42.1202 1.42801 42.1287 1.42801C49.3241 1.42845 56.5269 1.42823 63.7372 1.42736C64.2994 1.42736 64.7361 1.4354 65.0474 1.45148C68.6527 1.64053 72.4568 2.797 75.3205 5.00041C79.0353 7.85898 80.3357 12.035 79.9108 16.5814C79.9095 16.5957 79.916 16.6024 79.9304 16.6016C79.9374 16.6011 79.9442 16.6009 79.9508 16.6009C79.9617 16.6009 79.9672 16.5955 79.9672 16.5846V16.5559C79.9672 16.5438 79.9698 16.5323 79.975 16.5214C84.4047 7.11125 93.5538 1.14053 104.021 0.873901ZM55.1304 14.2704L55.1297 22.1649C55.1297 22.17 55.1307 22.1751 55.1327 22.1798C55.1348 22.1846 55.1377 22.1889 55.1414 22.1925C55.1451 22.1961 55.1495 22.199 55.1544 22.201C55.1593 22.203 55.1645 22.204 55.1697 22.204C57.6646 22.2122 60.1661 22.2107 62.6742 22.1994C62.8906 22.1981 63.0818 22.1727 63.248 22.1231C65.4887 21.4536 66.2559 19.2796 65.9326 17.1596C65.713 15.7183 64.8874 14.6107 63.3883 14.3245C63.1326 14.2754 62.6971 14.2513 62.082 14.2521C59.7663 14.2552 57.4548 14.2556 55.1474 14.2534C55.1429 14.2534 55.1385 14.2552 55.1354 14.2584C55.1322 14.2616 55.1304 14.2659 55.1304 14.2704ZM117.903 27.764C117.903 26.0191 117.558 24.2912 116.886 22.6791C116.214 21.0669 115.23 19.6021 113.988 18.3682C112.747 17.1344 111.274 16.1556 109.652 15.4878C108.03 14.8201 106.292 14.4764 104.537 14.4764C100.992 14.4764 97.5923 15.8763 95.0857 18.3682C92.579 20.8602 91.1708 24.2399 91.1708 27.764C91.1708 31.2881 92.579 34.6679 95.0857 37.1598C97.5923 39.6517 100.992 41.0516 104.537 41.0516C106.292 41.0516 108.03 40.7079 109.652 40.0402C111.274 39.3724 112.747 38.3936 113.988 37.1598C115.23 35.9259 116.214 34.4611 116.886 32.849C117.558 31.2368 117.903 29.509 117.903 27.764ZM71.8246 27.4146C71.8578 27.4381 71.8854 27.4537 71.9072 27.4615C72.4493 27.6584 72.9836 27.8742 73.5099 28.1089C75.2958 28.905 76.7107 30.1443 77.7546 31.8266C77.801 31.9014 77.8176 31.8953 77.8045 31.8084C77.401 29.1017 77.4021 26.3952 77.8077 23.689C77.808 23.6858 77.8072 23.6826 77.8055 23.6799C77.8038 23.6771 77.8012 23.675 77.7982 23.6739C77.7952 23.6727 77.7919 23.6725 77.7887 23.6734C77.7856 23.6742 77.7829 23.676 77.7809 23.6786C76.5939 25.3983 74.9769 26.5274 72.9296 27.0658C72.7656 27.1088 71.8758 27.2875 71.8174 27.369C71.8148 27.3723 71.8129 27.3762 71.8119 27.3804C71.8108 27.3845 71.8106 27.3888 71.8113 27.3931C71.812 27.3973 71.8135 27.4014 71.8158 27.4051C71.8181 27.4088 71.8211 27.412 71.8246 27.4146ZM65.869 36.1578C65.5936 34.8345 64.572 33.8677 63.2427 33.6715C63.077 33.6472 62.6407 33.6346 61.9338 33.6337C59.6728 33.6306 57.4227 33.6302 55.1835 33.6324C55.1692 33.6326 55.1555 33.6383 55.1454 33.6483C55.1353 33.6583 55.1297 33.6718 55.1297 33.6858L55.1304 41.6253C55.1303 41.6333 55.132 41.6411 55.1353 41.6483C55.1386 41.6555 55.1434 41.6619 55.1494 41.667C55.1699 41.6844 55.1898 41.6881 55.209 41.6781C55.2239 41.6707 55.2397 41.667 55.2563 41.667C57.7289 41.6657 60.202 41.6657 62.6755 41.667C62.8923 41.6674 63.0838 41.6433 63.2499 41.5947C65.6599 40.8926 66.3228 38.341 65.869 36.1578ZM0.423828 54.0198V1.4567L0.452681 1.43844C0.463611 1.43149 0.475414 1.42801 0.488092 1.42801H14.998C15.0067 1.42801 15.0151 1.43145 15.0212 1.43756C15.0274 1.44367 15.0308 1.45196 15.0308 1.46061V21.2457C15.0308 21.2543 15.0343 21.2626 15.0404 21.2687C15.0466 21.2748 15.0549 21.2783 15.0636 21.2783H24.3262C24.3349 21.2783 24.3432 21.2748 24.3494 21.2687C24.3555 21.2626 24.359 21.2543 24.359 21.2457V1.46061C24.359 1.45196 24.3624 1.44367 24.3686 1.43756C24.3747 1.43145 24.3831 1.42801 24.3917 1.42801H38.9332C38.9419 1.42801 38.9502 1.43145 38.9563 1.43756C38.9625 1.44367 38.966 1.45196 38.966 1.46061V54.0035C38.966 54.0122 38.9625 54.0205 38.9563 54.0266C38.9502 54.0327 38.9419 54.0361 38.9332 54.0361H24.3917C24.3699 54.0361 24.359 54.0252 24.359 54.0035V34.5933C24.359 34.5846 24.3555 34.5763 24.3494 34.5702C24.3432 34.5641 24.3349 34.5607 24.3262 34.5607H15.08C15.067 34.5607 15.0544 34.5658 15.0452 34.575C15.036 34.5842 15.0308 34.5966 15.0308 34.6096V54.0042C15.0308 54.0118 15.0278 54.0191 15.0224 54.0244C15.017 54.0298 15.0096 54.0329 15.002 54.0329L0.423828 54.0198Z" fill="#E5E5E5"/>
<path d="M104.216 39.0417C110.212 39.0417 115.073 34.1871 115.073 28.1986C115.073 22.2102 110.212 17.3556 104.216 17.3556C98.2202 17.3556 93.3594 22.2102 93.3594 28.1986C93.3594 34.1871 98.2202 39.0417 104.216 39.0417Z" fill="#E5E5E5"/>
</g>
<defs>
<clipPath id="clip0_315_3654">
<rect width="131.151" height="53.7815" fill="white" transform="translate(0.423828 0.873932)"/>
</clipPath>
</defs>
</svg>
