<svg width="122" height="81" viewBox="0 0 122 81" fill="none" xmlns="http://www.w3.org/2000/svg">
<path d="M109.316 1.15496C111.595 1.68817 113.402 2.91747 114.738 4.84286C115.274 5.6728 115.672 6.56522 115.932 7.5201L116.015 7.89659L116.224 11.1009V14.2969L116.205 15.9417C116.204 16.0086 116.237 16.0421 116.304 16.0421L119.369 16.0521H121.147C121.169 16.0521 121.19 16.0611 121.206 16.0771C121.221 16.0931 121.23 16.1148 121.23 16.1375L121.235 18.0617L121.23 21.3514V23.5417C121.23 23.5526 121.228 23.5634 121.224 23.5735C121.219 23.5835 121.213 23.5927 121.205 23.6003C121.197 23.6079 121.188 23.6139 121.178 23.618C121.167 23.622 121.156 23.6239 121.145 23.6237L119.646 23.5902L116.334 23.6354C116.266 23.6354 116.224 23.6683 116.209 23.7341C116.155 23.9461 116.165 24.1608 116.237 24.3784L116.23 28.1165C116.164 29.1383 116.165 30.1601 116.235 31.1819L116.195 33.8324L116.237 37.9319L116.229 41.501C116.162 42.5418 116.165 43.5759 116.237 44.6033L116.195 47.2186L116.23 51.2127L116.234 53.7444C116.234 53.8079 116.266 53.8397 116.33 53.8397L119.604 53.8632L121.094 53.8849C121.167 53.8849 121.205 53.9217 121.207 53.9954L121.232 54.5827L121.235 58.1367L121.187 61.3511L119.604 61.4063L116.302 61.4565C116.238 61.4576 116.205 61.4905 116.205 61.5552L116.237 64.6424L116.154 68.4692C115.598 72.581 113.351 75.2013 109.413 76.3302C108.363 76.492 107.317 76.5651 106.276 76.5494H99.5696L96.2991 76.5545L93.0302 76.5494H86.3659L85.8545 76.5344C85.7867 76.5322 85.7528 76.497 85.7528 76.429L85.7445 75L85.7345 71.3974L85.7428 69.1201C85.7439 69.0521 85.7778 69.0113 85.8445 68.9979C85.9855 68.9701 86.1316 68.9729 86.2826 69.0063C93.0302 68.9862 99.7778 68.9784 106.525 68.9829C107.447 68.9829 108.29 69.0783 108.585 68.1396C108.858 67.2728 108.693 65.725 108.685 64.788V54.6647L108.69 51.2545L108.685 47.9716V41.2785L108.69 37.87L108.685 34.6272V27.9341L108.69 24.4871L108.685 21.241V11.1595C108.835 8.79514 108.416 8.42199 106.192 8.48892L103.047 8.4839L99.5696 8.48892L96.3824 8.4839L92.9053 8.48892H86.241L83.0538 8.4839L79.5767 8.48892H72.9124L69.7252 8.4839L66.2481 8.48892L63.0609 8.4839L59.5838 8.48892H52.9195L49.7323 8.4839L46.2552 8.48892H39.5909L36.4037 8.4839L32.9266 8.48892L29.7394 8.4839L26.2623 8.48892H16.3075C13.88 8.4404 13.1969 8.35004 13.3152 11.1176L13.3102 14.4508L13.3152 17.8107L13.3085 21.1038L13.3152 24.6294L13.3102 27.7918V31.3476L13.3152 34.5853V38.0156L13.3102 41.2182L13.3152 44.6668V54.4973L13.3119 58.1183L13.3152 61.3578V64.6625C13.2952 65.6408 13.3019 66.6197 13.3352 67.5991C13.3585 68.2818 13.6351 68.9227 14.3498 68.9712C15.2506 69.0325 17 69.0442 19.598 69.0063L36.0088 69.0197L36.0438 69.0632C36.0693 69.0922 36.0821 69.1262 36.0821 69.1653L36.0988 71.3974V74.8544L36.0854 76.531L32.9266 76.5494L29.6544 76.5545L26.3039 76.5494H19.6396L16.1958 76.5394C15.1618 76.5773 14.1216 76.531 13.0753 76.4005C11.9501 76.1752 10.8511 75.7491 9.77812 75.1221L8.81013 74.3608C6.96189 72.6786 5.96003 70.5753 5.80453 68.0509L5.76954 64.711L5.74621 61.4715C5.74624 61.4579 5.74108 61.4448 5.7318 61.4348C5.72251 61.4249 5.70979 61.4189 5.69623 61.418C4.77545 61.3723 3.85577 61.3823 2.93721 61.4481L0.771313 61.3929L0.776311 54.1577C0.777422 53.968 0.872388 53.8726 1.06121 53.8715L2.89556 53.8632L5.61293 53.8648C5.66065 53.8648 5.70642 53.8458 5.74016 53.8119C5.77391 53.778 5.79286 53.7321 5.79286 53.6841L5.78287 51.3466L5.80619 48.0017L5.76954 44.6735L5.80453 40.6091L5.7762 37.9737L5.80786 34.6021L5.76288 31.3225L5.80453 27.9173L5.80953 23.7492C5.80953 23.6867 5.77843 23.6555 5.71623 23.6555L0.922926 23.6137C0.882409 23.6132 0.843672 23.5969 0.81502 23.5681C0.786368 23.5393 0.77008 23.5004 0.769646 23.4597L0.764648 21.241V18.1872L0.769646 16.1659C0.769646 16.1357 0.781584 16.1068 0.80283 16.0855C0.824077 16.0641 0.852892 16.0521 0.88294 16.0521L2.93721 16.0471L5.60127 16.0488C5.75232 16.0488 5.82452 15.9735 5.81786 15.8229L5.76454 14.6332L5.76954 11.208C5.77509 10.088 5.84451 8.9725 5.9778 7.86145C6.76752 4.41282 9.5582 1.65359 13.0586 1.07129C13.4901 1.02277 13.9166 0.962528 14.3515 0.962528L23.2633 0.945797H43.2979L46.2852 0.949141L49.5457 0.945797H76.5778L79.525 0.947469L83.2421 0.945797H96.6123L99.5996 0.949141L102.86 0.945797H105.859C107.02 0.896714 108.172 0.966434 109.316 1.15496Z" fill="#E5E5E5"/>
<path d="M22.9819 15.904H26.0622L29.6902 15.9057L32.6806 15.9461C34.2446 16.2806 35.2852 17.2089 35.8025 18.731C35.9412 19.1395 35.9768 19.9247 35.909 21.0865C35.8591 22.1899 35.8674 23.3269 35.934 24.4977L35.9224 28.057C35.8558 29.1032 35.8596 30.1336 35.934 31.1483L35.9207 33.5055L35.8941 37.9976C36.1538 41.5149 35.243 43.8215 31.3902 43.8182C29.5865 43.8171 27.7827 43.8171 25.979 43.8182C25.9573 43.8182 25.9366 43.827 25.9213 43.8428C25.906 43.8586 25.8974 43.88 25.8974 43.9024V51.5026L25.9024 54.5097L25.889 59.6871L25.8474 61.4415C25.8452 61.4988 25.8158 61.528 25.7592 61.5291L22.9753 61.5813L19.6636 61.5358C19.4971 61.5375 18.3299 61.6941 18.3965 61.4129L18.3549 58.1718L18.3516 54.737L18.3549 51.4369V44.7021L18.3582 41.2657L18.3549 37.9673V31.2325L18.3582 27.7994L18.3549 24.4977C18.4171 23.3381 18.4176 22.1932 18.3566 21.0629C18.3449 19.7126 18.3249 18.8791 18.8727 17.7746L19.8284 16.6802C20.8041 16.0528 21.8553 15.794 22.9819 15.904ZM25.9024 32.4953L25.899 36.0193C25.8988 36.042 25.903 36.0646 25.9114 36.0857C25.9199 36.1069 25.9323 36.1261 25.9481 36.1424C25.9639 36.1586 25.9826 36.1716 26.0034 36.1805C26.0241 36.1894 26.0463 36.1941 26.0689 36.1944L28.26 36.2129C28.31 36.214 28.3349 36.1893 28.3349 36.1388L28.3865 30.9378L28.3949 23.6541C28.3949 23.6211 28.3819 23.5894 28.3588 23.566C28.3357 23.5427 28.3043 23.5295 28.2717 23.5295H26.0589C26.016 23.5295 25.975 23.5466 25.9447 23.5769C25.9144 23.6072 25.8974 23.6483 25.8974 23.6912L25.9024 32.4953ZM39.3972 15.9108L43.0869 15.904C44.0592 15.9714 44.9567 15.8619 45.969 15.9933L45.939 17.709L45.9224 21.2279L45.924 23.6979V37.1675L45.9207 41.461V44.7678L45.924 48.1116V51.4369L45.9191 53.8783C45.9191 53.9002 45.9276 53.9212 45.9429 53.9367C45.9582 53.9521 45.979 53.9608 46.0006 53.9608L49.5388 53.9558C49.9828 53.9973 50.4223 53.9793 50.8575 53.9019C50.9185 53.8918 50.949 53.8553 50.949 53.7924L50.9474 51.479V21.2649L50.949 17.7477L50.9524 16.0236C50.9524 15.9932 50.9643 15.9641 50.9855 15.9426C51.0068 15.9211 51.0356 15.9091 51.0656 15.9091L52.8272 15.904H56.3237L58.3783 15.9091C58.3929 15.9089 58.4073 15.912 58.4207 15.918C58.434 15.9241 58.446 15.933 58.4557 15.9441C58.4655 15.9552 58.4728 15.9684 58.4773 15.9827C58.4817 15.9969 58.4832 16.012 58.4815 16.0269C58.4216 16.568 58.426 17.1185 58.4948 17.6786V21.4249C58.4271 22.4071 58.4271 23.3892 58.4948 24.3714V54.9727L58.4532 57.9613C58.2357 59.6877 57.402 60.8028 55.9524 61.3068C55.5106 61.4606 54.8618 61.5386 54.006 61.5409C51.4064 61.5454 48.8073 61.5611 46.2088 61.588H42.9204C40.4895 61.6991 38.9993 60.5873 38.4498 58.2526L38.4182 54.8044L38.4215 51.4639L38.4182 48.0274V44.7021L38.4215 41.3212L38.4182 37.9252V27.8651L38.4215 24.5195L38.4182 21.1302L38.4232 17.714L38.4698 16.0741C38.472 16.0067 38.5059 15.9708 38.5714 15.9663L39.3972 15.9108ZM69.5188 15.904L72.6973 15.9124L76.2621 15.904C77.366 15.9444 78.1585 15.8788 79.2758 16.4697C79.8474 16.8761 80.3158 17.4053 80.681 18.0575C81.1173 19.13 81.0357 20.1301 81.0557 21.2565V31.4009L81.0507 33.5156C81.0507 33.5407 81.0409 33.5649 81.0235 33.5829C81.006 33.6008 80.9823 33.6111 80.9574 33.6116L78.673 33.6402C78.6175 33.6413 78.5898 33.6694 78.5898 33.7244L78.5581 38.6829L78.5631 41.136C78.5631 41.2045 78.597 41.2393 78.6647 41.2404L79.419 41.2539L81.0473 41.3482L81.0557 44.8705V51.5632L81.049 54.9155L81.014 58.1718C80.6433 60.1686 79.4844 61.2821 77.5375 61.5122C77.2378 61.5476 76.8032 61.5122 76.4286 61.588H69.5605C68.5026 61.606 67.4481 61.5594 66.397 61.4483L65.9874 61.3287C63.7163 60.3875 63.4932 58.7661 63.4882 56.3365C63.4782 51.3544 63.37 46.3303 63.4432 41.3516C63.4443 41.2853 63.4122 41.2522 63.3467 41.2522L60.9857 41.2438L60.9807 38.0683L60.979 34.5999L60.984 33.7395C60.984 33.7157 60.9933 33.6928 61.0098 33.6758C61.0263 33.6588 61.0487 33.649 61.0723 33.6486L63.1502 33.625C63.2357 33.6475 63.3228 33.6464 63.4116 33.6217C63.4682 33.6059 63.496 33.5683 63.4949 33.5088C63.4616 28.039 63.471 23.3797 63.5232 19.5307C63.5287 19.1311 63.6242 18.7102 63.8095 18.2679C64.2746 17.196 65.0561 16.4664 66.1539 16.0791C67.2672 15.9029 68.3889 15.8445 69.5188 15.904ZM71.0207 28.0233L71.019 31.2055V33.5813C71.0188 33.594 71.0211 33.6067 71.0259 33.6185C71.0306 33.6303 71.0377 33.6411 71.0467 33.6502C71.0557 33.6593 71.0664 33.6665 71.0782 33.6714C71.0901 33.6764 71.1028 33.6789 71.1156 33.6789L73.3184 33.6621C73.3624 33.6616 73.4045 33.6437 73.4356 33.6123C73.4668 33.5808 73.4844 33.5382 73.4849 33.4937L73.4899 23.7063C73.4899 23.6594 73.4715 23.6145 73.4387 23.5813C73.4059 23.5482 73.3614 23.5295 73.315 23.5295H71.1073C71.0506 23.5295 71.0223 23.5582 71.0223 23.6154L71.0207 28.0233ZM71.024 44.66V51.5632L70.9957 53.7891C70.9946 53.9103 71.054 53.9704 71.1739 53.9692L73.3633 53.9457C73.4444 53.9445 73.4849 53.903 73.4849 53.8211L73.5115 41.4105C73.5115 41.3465 73.4793 41.3111 73.415 41.3044L72.9737 41.2573L71.1006 41.2522C71.079 41.2522 71.0582 41.2609 71.0429 41.2764C71.0276 41.2918 71.019 41.3128 71.019 41.3347L71.024 44.66ZM89.7486 15.904H99.4473C100.675 15.8457 101.741 16.2598 102.644 17.1466L103.059 17.6888C103.648 18.8354 103.618 19.7412 103.616 21.1723L103.611 24.4623L103.616 27.9072C103.672 28.1249 103.655 28.3096 103.565 28.4611C103.533 28.5172 103.484 28.5453 103.42 28.5453L101.653 28.5739L99.4939 28.5604L96.1656 28.5806L96.069 27.8651L96.0723 24.6088V23.6659C96.0723 23.6415 96.0675 23.6174 96.0582 23.5949C96.0489 23.5724 96.0352 23.552 96.018 23.5349C96.0008 23.5178 95.9804 23.5044 95.958 23.4954C95.9356 23.4863 95.9116 23.4819 95.8875 23.4824L92.8289 23.5363L91.1756 23.5245C91.1134 23.5245 91.0757 23.5548 91.0623 23.6154C91.0068 23.8781 91.0141 24.1199 91.084 24.3411L91.0873 27.9493V34.6841L91.089 37.9202L91.0873 41.3347V51.4369L91.0923 53.8076C91.0923 53.8772 91.1273 53.9131 91.1972 53.9154L92.9122 53.9558L95.9075 53.9473C95.9558 53.9469 96.0019 53.9272 96.0359 53.8925C96.0699 53.8578 96.089 53.811 96.089 53.7621L96.074 51.4656L96.069 48.0695L96.0623 44.8183L96.1123 41.3785C96.1134 41.3212 96.0857 41.2926 96.029 41.2926H93.6631C93.6388 41.2926 93.6155 41.2829 93.5983 41.2655C93.5812 41.2481 93.5715 41.2246 93.5715 41.2L93.6348 33.7917C93.6348 33.7075 93.6764 33.666 93.7597 33.6671L99.4656 33.6722C102.01 33.5981 103.665 35.3475 103.61 37.8983L103.616 41.3768V54.7623L103.57 58.1987C103.184 60.4145 101.855 61.5313 99.5838 61.5493L96.3121 61.5712L94.1193 61.5745C92.6064 61.5094 91.094 61.5139 89.5822 61.588C88.4133 61.6048 86.9265 61.6907 85.8892 61.2378C84.3318 60.5576 83.5526 59.2235 83.5515 57.2356C83.546 45.2409 83.5437 33.2456 83.5448 21.2498C83.546 19.8905 83.6336 18.951 83.8079 18.4313C84.7486 15.6296 87.2944 15.9427 89.7486 15.904Z" fill="#E5E5E5"/>
<path d="M56.1883 64.337C57.739 64.3049 57.6336 65.0237 57.6888 66.4259C57.7334 67.5952 57.7145 70.1672 57.6319 74.142C57.6035 75.5154 57.7039 77.2169 57.6436 78.7612C57.7172 79.7743 57.3643 80.6775 56.3087 80.8906C54.9972 80.7373 53.6696 80.7576 52.3257 80.9515C51.7871 80.7046 51.3555 80.3522 51.031 79.8944C50.9964 79.8459 50.9802 79.7924 50.9825 79.7337C51.0042 79.2297 50.9273 78.7054 50.9256 78.2521C50.9189 74.4002 50.8899 70.5484 50.8386 66.6965C50.8269 65.8474 50.7934 64.2677 52.0163 64.2761C53.4069 64.2874 54.7976 64.3077 56.1883 64.337ZM53.4348 71.3631C53.4237 71.5457 53.4538 71.9928 53.5251 72.7043C53.5564 73.0234 53.5402 73.5534 53.4766 74.2942C53.3696 75.5357 53.5218 76.7958 53.4382 78.066C53.437 78.0828 53.4393 78.0996 53.4448 78.1155C53.4503 78.1313 53.459 78.1459 53.4703 78.1582C53.4815 78.1706 53.4952 78.1805 53.5104 78.1873C53.5256 78.1941 53.542 78.1978 53.5586 78.1979L54.8902 78.2166C54.9059 78.2169 54.9215 78.2138 54.936 78.2076C54.9505 78.2014 54.9636 78.1921 54.9743 78.1805C54.985 78.1688 54.9932 78.155 54.9983 78.14C55.0034 78.1249 55.0053 78.1089 55.0039 78.0931C54.9487 77.4098 54.8383 76.7281 54.8668 76.0516C54.9337 74.4414 54.9989 72.843 55.0106 71.2362L55.0491 66.7523C55.0491 66.7371 55.0461 66.722 55.0402 66.708C55.0343 66.694 55.0257 66.6814 55.0149 66.6709C55.0041 66.6604 54.9913 66.6524 54.9773 66.6472C54.9633 66.642 54.9485 66.6398 54.9337 66.6407L53.5134 66.7168C53.4577 66.7202 53.4298 66.7501 53.4298 66.8065L53.4348 71.3631ZM72.2223 78.2047C72.2123 78.258 72.2162 78.313 72.2336 78.3643C72.2509 78.4156 72.2812 78.4616 72.3214 78.4976C72.3616 78.5337 72.4105 78.5587 72.4632 78.5702C72.5158 78.5817 72.5706 78.5793 72.6221 78.5633C73.0905 78.4167 73.5717 78.3947 74.0657 78.4973C74.1159 78.5075 74.1566 78.5334 74.1879 78.5751C74.4756 78.9608 74.2932 80.1566 74.2314 80.6369C74.2224 80.7068 74.1828 80.7424 74.1126 80.7435L69.979 80.8111C69.928 80.8116 69.8788 80.7919 69.8419 80.7562C69.805 80.7205 69.7834 80.6716 69.7816 80.62C69.6595 76.4575 69.7783 72.3085 69.7281 68.1494C69.7231 67.6894 69.8803 67.1549 69.8101 66.5713C69.7242 65.8553 69.722 65.1359 69.8034 64.4131C69.8123 64.3376 69.8541 64.2987 69.9289 64.2964L72.1821 64.244C72.2316 64.2426 72.2795 64.2611 72.3155 64.2953C72.3516 64.3295 72.3728 64.3767 72.3745 64.4267C72.4381 66.5736 72.4671 68.7166 72.4615 70.8556C72.4615 71.0924 72.3762 71.3326 72.3762 71.5508C72.3717 73.3189 72.3712 75.0869 72.3745 76.855C72.3762 77.3269 72.3026 77.7683 72.2223 78.2047ZM42.8057 64.2947C43.1637 64.2711 43.4982 64.3353 43.8094 64.4876C44.512 67.1498 45.141 69.8154 45.6963 72.4844C45.7298 72.6423 45.7733 72.6457 45.8268 72.4946C45.8837 72.3345 45.9411 72.1022 45.9991 71.7977C46.4619 69.3779 46.9431 66.9288 47.4428 64.4504C47.454 64.3967 47.484 64.3489 47.5274 64.3159C47.5708 64.283 47.6245 64.267 47.6786 64.2711L49.7764 64.4385C49.8251 64.4422 49.8708 64.4641 49.9047 64.5C49.9387 64.5359 49.9585 64.5832 49.9604 64.633C50.0457 66.7794 49.9604 69.3892 49.9687 71.0806C49.9855 74.2401 50.1427 77.4859 49.9102 80.6369C49.9069 80.6834 49.8867 80.727 49.8534 80.7594C49.82 80.7919 49.7759 80.8109 49.7295 80.8128L47.8442 80.8974C47.7654 80.9011 47.6882 80.8731 47.6296 80.8196C47.5711 80.766 47.5358 80.6913 47.5314 80.6116C47.4177 78.5768 47.585 76.4592 47.5515 74.4651C47.5503 74.4309 47.5369 74.3984 47.5136 74.3735C47.4904 74.3487 47.459 74.3332 47.4254 74.3301C47.3917 74.327 47.3581 74.3364 47.3308 74.3566C47.3035 74.3768 47.2844 74.4063 47.2772 74.4397C46.9013 76.3938 46.4162 78.3209 45.8218 80.2208C45.8157 80.242 45.8028 80.2604 45.7852 80.2734C45.7676 80.2863 45.7463 80.293 45.7245 80.2924C45.7028 80.2919 45.6818 80.284 45.6649 80.2702C45.648 80.2563 45.6361 80.2372 45.6311 80.2158L43.9867 73.8646C43.9775 73.8298 43.9561 73.7996 43.9266 73.7796C43.897 73.7595 43.8613 73.7509 43.8259 73.7555C43.7906 73.76 43.7581 73.7773 43.7345 73.8042C43.7108 73.8312 43.6976 73.8658 43.6973 73.9018L43.6505 80.5202C43.6494 80.5721 43.6304 80.6166 43.5936 80.6538C43.4653 80.7824 43.3003 80.845 43.0984 80.8416L41.6213 80.7858C41.5326 80.7819 41.4486 80.7442 41.3867 80.6804C41.3248 80.6165 41.2897 80.5314 41.2884 80.4424L41.2516 78.044V74.7881C41.3531 73.6041 41.3671 72.4202 41.2935 71.2362L41.2148 67.7384L41.2466 64.4909C41.7574 64.3534 42.2771 64.288 42.8057 64.2947ZM59.4085 64.2947H62.8796C63.8097 64.3032 65.0208 64.1865 65.0024 65.3705C64.96 68.1128 64.9455 69.9096 64.9589 70.7609C64.9622 71.0022 64.8346 71.3033 64.5758 71.6641C64.5491 71.7036 64.5156 71.7352 64.4755 71.7588L64.3784 71.818C64.3026 71.8631 64.2926 71.9201 64.3483 71.9889L65.0492 72.8481C65.0927 72.9011 65.1145 72.962 65.1145 73.0308C65.12 73.943 65.1078 75.9941 65.0777 79.184C65.066 80.4847 64.2864 80.7198 63.1305 80.7266C61.964 80.7356 60.8125 80.7581 59.6761 80.7942L59.0154 80.7756C58.954 80.7734 58.9228 80.7412 58.9217 80.6792L58.8765 78.3992C58.8776 76.8894 58.8626 75.3615 58.8313 73.8156C58.8213 73.3352 58.5051 73.1289 58.4884 72.706C58.4667 72.158 58.388 71.2261 58.8012 70.8066C58.8425 70.7649 58.8631 70.7141 58.8631 70.6544L58.8146 64.4182C58.8135 64.3506 58.8464 64.3156 58.9133 64.3134L59.4085 64.2947ZM62.5517 66.6103C62.5517 66.5811 62.5404 66.5531 62.5203 66.5325C62.5003 66.5119 62.473 66.5003 62.4446 66.5003H61.4711C61.3997 66.5003 61.3607 66.5358 61.354 66.6069C61.2201 67.9882 61.2095 69.3689 61.3222 70.7491C61.3254 70.7869 61.3413 70.8223 61.3672 70.8495C61.3932 70.8766 61.4275 70.8937 61.4644 70.8979L62.4229 71.0045C62.5043 71.0135 62.545 70.9763 62.545 70.8928L62.5517 66.6103ZM62.5383 73.5157C62.5383 73.4915 62.5335 73.4675 62.5242 73.4451C62.515 73.4228 62.5015 73.4025 62.4845 73.3854C62.4675 73.3683 62.4473 73.3548 62.4252 73.3456C62.403 73.3364 62.3793 73.3317 62.3553 73.3318L61.4219 73.3352C61.3979 73.3353 61.3742 73.3402 61.3522 73.3495C61.3301 73.3588 61.31 73.3725 61.2931 73.3897C61.2763 73.4069 61.2629 73.4272 61.2538 73.4496C61.2448 73.472 61.2401 73.496 61.2402 73.5203L61.2569 78.3813C61.257 78.4055 61.2618 78.4295 61.2711 78.4518C61.2803 78.4741 61.2938 78.4944 61.3108 78.5115C61.3278 78.5285 61.348 78.542 61.3701 78.5512C61.3923 78.5604 61.416 78.5651 61.4399 78.565L62.3734 78.5616C62.3973 78.5615 62.421 78.5567 62.4431 78.5473C62.4652 78.538 62.4853 78.5243 62.5021 78.5071C62.519 78.4899 62.5323 78.4696 62.5414 78.4472C62.5505 78.4248 62.5551 78.4008 62.555 78.3766L62.5383 73.5157ZM76.2203 64.2947L79.4874 64.3912C79.9435 64.3461 80.3762 64.412 80.7855 64.589L80.7687 66.5494C80.7687 66.6159 80.7358 66.6514 80.67 66.6559L79.6496 66.7185L77.7342 66.7134C77.6707 66.7134 77.6305 66.7444 77.6138 66.8065C77.5725 66.9654 77.5659 67.1312 77.5937 67.3037L77.4449 70.8269C77.4426 70.8968 77.4761 70.9323 77.5452 70.9334L79.653 70.9436L80.3706 70.9706C80.4297 70.9729 80.4727 71.0011 80.4994 71.0552C80.5429 71.142 80.5507 71.2475 80.5228 71.3715L80.481 73.2303C80.4788 73.2969 80.4448 73.3313 80.379 73.3335L78.7714 73.3995C78.3521 73.3217 77.9629 73.3645 77.6038 73.528C77.5251 75.0587 77.756 76.2326 77.5937 78.0203L77.6054 78.3468C77.6077 78.4065 77.6383 78.4393 77.6974 78.4449C78.322 78.5035 78.9203 78.4883 79.4924 78.3992C79.8392 78.5514 80.1375 78.6163 80.3873 78.5937C80.4207 78.5907 80.4543 78.5947 80.4859 78.6057C80.5176 78.6166 80.5467 78.6343 80.5713 78.6574C80.5959 78.6805 80.6155 78.7086 80.6287 78.7399C80.642 78.7712 80.6487 78.8049 80.6483 78.839L80.6232 80.7198C80.6232 80.7999 80.5836 80.8393 80.5044 80.8382L75.3103 80.8264C75.1196 80.8252 75.0237 80.7283 75.0226 80.5354C75.0148 78.764 75.0282 76.9328 75.0628 75.0418C75.0895 73.6904 74.2648 72.5047 74.7717 71.0671C75.0142 70.3787 75.0678 69.237 75.0226 68.508C74.9401 67.191 74.9328 65.8503 75.0009 64.4859C75.3878 64.3291 75.7943 64.2654 76.2203 64.2947ZM68.4484 64.6821C68.4601 65.5684 68.5638 66.5206 68.5722 67.3325C68.6101 70.6171 68.6224 73.9018 68.609 77.1865C68.604 78.181 68.522 79.4733 68.5371 80.6251C68.5375 80.6427 68.5309 80.6599 68.5187 80.6728C68.5065 80.6858 68.4897 80.6935 68.4718 80.6944L66.3457 80.7993C66.1973 80.8061 66.0914 80.7424 66.0278 80.6082C65.9475 80.4379 65.9091 80.2316 65.9124 79.9891C65.9659 75.8892 65.9843 70.8573 65.9676 64.8935C65.9665 64.6725 66.0228 64.5022 66.1366 64.3827C66.847 64.3647 67.5178 64.3472 68.149 64.3303C68.3664 64.3235 68.4663 64.4408 68.4484 64.6821Z" fill="#E5E5E5"/>
</svg>
