<svg width="79" height="95" viewBox="0 0 79 95" fill="none" xmlns="http://www.w3.org/2000/svg">
<path d="M45.0482 1.42174C35.0715 0.749382 25.1667 1.30606 15.334 3.09177C10.7442 3.92391 6.17838 4.88962 1.63659 5.98891C1.59271 5.99967 1.55399 6.02577 1.52729 6.06261C1.50059 6.09945 1.48762 6.14466 1.49067 6.19024C2.79573 23.5859 4.10331 40.9815 5.41341 58.3772C6.67741 75.1791 23.3197 87.0841 36.7081 94.0096C36.7352 94.0232 36.7648 94.0304 36.7948 94.0304C36.8247 94.0304 36.8541 94.0232 36.8806 94.0096C49.6418 87.4138 65.4029 76.2202 67.9138 60.8659C68.0389 60.0964 68.1677 58.8259 68.3004 57.0542C69.5726 40.074 70.8454 23.1168 72.1189 6.18257C72.122 6.13699 72.109 6.09178 72.0823 6.05494C72.0556 6.0181 72.0169 5.992 71.973 5.98124C63.0928 3.85488 54.1255 2.0353 45.0482 1.42174ZM78.0997 9.81598C78.0997 9.12694 77.8291 8.46612 77.3476 7.9789C76.866 7.49167 76.2129 7.21795 75.5319 7.21795C74.8509 7.21795 74.1977 7.49167 73.7162 7.9789C73.2346 8.46612 72.9641 9.12694 72.9641 9.81598C72.9641 10.1572 73.0305 10.495 73.1596 10.8102C73.2886 11.1254 73.4777 11.4118 73.7162 11.6531C74.1977 12.1403 74.8509 12.414 75.5319 12.414C75.8691 12.414 76.203 12.3468 76.5145 12.2163C76.8261 12.0857 77.1091 11.8943 77.3476 11.6531C77.586 11.4118 77.7752 11.1254 77.9042 10.8102C78.0333 10.495 78.0997 10.1572 78.0997 9.81598Z" stroke="#808080" stroke-width="1.88707"/>
<path d="M18.7268 12.4852C30.6181 10.5724 43.4301 10.7223 55.4924 12.7831C59.9841 13.5499 64.4446 14.4942 68.8737 15.6158C68.9004 15.6224 68.9282 15.6231 68.9553 15.6179C68.9823 15.6127 69.0079 15.6017 69.0302 15.5857C69.0526 15.5696 69.0712 15.5489 69.0847 15.525C69.0982 15.5011 69.1063 15.4745 69.1085 15.4471L69.7192 7.09334C69.7228 7.04973 69.7108 7.00625 69.6853 6.9706C69.6599 6.93494 69.6226 6.9094 69.5801 6.8985C61.4158 4.79896 53.1369 3.39886 44.7434 2.69818C30.7816 1.53288 16.5435 3.40823 3.00066 6.85541C2.9443 6.8704 2.86538 6.85916 2.80526 6.86103C2.78881 6.86124 2.77257 6.86481 2.75755 6.87153C2.74254 6.87824 2.72907 6.88796 2.71797 6.90008C2.70687 6.9122 2.69839 6.92646 2.69304 6.94197C2.6877 6.95749 2.6856 6.97394 2.68689 6.9903L3.32007 15.4322C3.32199 15.4594 3.32989 15.486 3.3432 15.5099C3.35652 15.5338 3.37492 15.5546 3.39713 15.5706C3.41934 15.5867 3.4448 15.5977 3.47174 15.6029C3.49868 15.6081 3.52643 15.6074 3.55305 15.6008C8.55834 14.3455 13.6162 13.307 18.7268 12.4852Z" stroke="#808080" stroke-width="1.88707"/>
<path d="M10.9007 38.9381C9.6755 39.5716 8.61912 37.907 9.88602 37.0373C9.91178 37.0195 9.93284 36.9954 9.94739 36.9673C9.96193 36.9392 9.96951 36.9079 9.96947 36.876C9.95682 36.0799 10.3254 35.6607 11.0752 35.6184C11.4014 35.5992 11.7541 35.8181 12.0993 35.8892C12.1242 35.8944 12.15 35.8946 12.175 35.8895C12.2 35.8845 12.2237 35.8745 12.2448 35.8599C12.2658 35.8454 12.2838 35.8268 12.2976 35.8051C12.3114 35.7834 12.3207 35.7591 12.325 35.7336C12.7612 33.1935 13.8422 29.4496 16.725 28.7104C16.8831 28.6695 16.9754 28.7053 17.0019 28.818C17.007 28.8394 17.0063 28.8618 16.9999 28.8827C16.9936 28.9037 16.9818 28.9224 16.9659 28.937C16.3805 29.4797 15.8627 30.0819 15.4126 30.7437C14.678 31.8214 14.2999 33.0201 14.2784 34.3398C14.2783 34.3725 14.2863 34.4048 14.3017 34.4336C14.3172 34.4624 14.3396 34.4867 14.3669 34.5043C14.3941 34.522 14.4254 34.5323 14.4577 34.5344C14.49 34.5366 14.5223 34.5303 14.5516 34.5164L16.4272 33.6025C16.4511 33.591 16.4724 33.5744 16.4897 33.5539C16.507 33.5335 16.52 33.5094 16.5278 33.4835C17.0948 31.4829 18.6614 28.7949 20.888 28.674C20.9052 28.6727 20.9224 28.6752 20.9384 28.6812C20.9545 28.6871 20.9689 28.6965 20.9809 28.7085C21.0542 28.784 21.0384 28.8615 20.9335 28.9408C19.6805 29.8931 18.9427 31.1379 18.7202 32.6752C18.7156 32.7062 18.7187 32.7379 18.729 32.7675C18.7393 32.797 18.7567 32.8236 18.7795 32.8448C18.8024 32.866 18.83 32.8813 18.86 32.8892C18.89 32.8971 18.9214 32.8974 18.9516 32.8902L20.429 32.5427C20.4594 32.5356 20.4875 32.5212 20.511 32.5008C20.5345 32.4803 20.5526 32.4545 20.5636 32.4256C21.1212 30.9587 22.3274 29.4861 23.9699 29.3018C24.2088 29.273 24.1159 29.5283 24.0306 29.6051C23.2846 30.2554 22.77 31.0598 22.4868 32.0185C22.4791 32.0447 22.4771 32.0722 22.4808 32.0992C22.4845 32.1262 22.4938 32.1521 22.5082 32.1751C22.5225 32.1982 22.5416 32.2179 22.5641 32.233C22.5865 32.248 22.6119 32.258 22.6385 32.2624L23.4312 32.3929C23.4584 32.3974 23.4862 32.3958 23.5127 32.3883C23.5392 32.3808 23.5638 32.3675 23.5847 32.3494C23.6056 32.3314 23.6224 32.3089 23.6339 32.2836C23.6454 32.2582 23.6513 32.2307 23.6512 32.2028V31.1449C23.6511 31.0969 23.6689 31.0505 23.7012 31.0149C23.7335 30.9794 23.778 30.9573 23.8257 30.9529C24.3062 30.912 24.7873 30.9011 25.269 30.9203C26.0858 30.951 26.5903 30.9651 26.7825 30.9625C29.8751 30.9242 32.9722 30.9088 36.0737 30.9165C36.124 30.9165 36.1722 30.8962 36.2078 30.8602C36.2434 30.8242 36.2633 30.7754 36.2633 30.7245V13.4007C36.2634 13.3753 36.2584 13.3502 36.2487 13.3268C36.2391 13.3033 36.2249 13.2821 36.2071 13.2642C36.1893 13.2464 36.1682 13.2323 36.145 13.2227C36.1217 13.2132 36.0969 13.2084 36.0718 13.2087C26.2761 13.2932 16.9488 14.7216 7.40153 16.9699C6.28382 17.2323 5.15853 17.5164 4.02565 17.8223C3.98279 17.8343 3.94535 17.8609 3.91974 17.8977C3.89414 17.9344 3.88197 17.9791 3.88531 18.0239L6.33756 50.4252C6.34138 50.4739 6.36303 50.5193 6.3982 50.5524C6.43336 50.5855 6.47943 50.6038 6.52721 50.6037L23.4616 50.598C23.5119 50.598 23.5601 50.5777 23.5957 50.5417C23.6313 50.5057 23.6512 50.4569 23.6512 50.406L23.6493 44.5962C23.6493 44.5686 23.6434 44.5414 23.6319 44.5165C23.6204 44.4916 23.6037 44.4697 23.583 44.4522C22.2478 43.2868 19.8411 43.3213 18.284 43.8551C16.3154 44.5283 14.616 45.6189 13.186 47.1267C12.6607 47.6815 13.0665 48.6415 11.8926 48.7279C11.8679 48.7297 11.8429 48.7264 11.8192 48.7182C11.7954 48.7099 11.7733 48.6969 11.7541 48.6799C11.5114 48.4662 11.2395 48.4367 10.9386 48.5916C10.8972 48.6126 10.8499 48.6174 10.8058 48.6051C10.1964 48.4476 9.96188 48.0649 10.1022 47.4569C10.1145 47.4063 10.1451 47.3629 10.1876 47.336C10.4758 47.1542 10.6156 46.888 10.6067 46.5373C10.6055 46.4924 10.6188 46.4491 10.6446 46.4144C11.0151 45.9241 11.4659 45.8557 11.9969 46.2089C12.1891 46.3369 12.2871 46.2845 12.2909 46.0515C12.3231 43.9607 12.581 41.2362 14.5269 40.0593C14.5674 40.035 14.6072 40.0222 14.6464 40.0209C14.6805 40.0196 14.7096 40.0228 14.7336 40.0305C14.7478 40.0347 14.7608 40.0421 14.7718 40.0521C14.7827 40.0621 14.7913 40.0744 14.7968 40.0881C14.8022 40.1018 14.8045 40.1166 14.8035 40.1312C14.8024 40.1459 14.798 40.16 14.7905 40.1726C14.0496 41.482 13.6823 42.8893 13.6886 44.3946C13.6886 44.6237 13.7853 44.6781 13.9788 44.5578L15.0428 43.8877C15.0638 43.8744 15.082 43.8568 15.0964 43.836C15.1107 43.8152 15.1209 43.7917 15.1262 43.7668C15.4012 42.5553 16.1352 40.2263 17.385 39.6312C17.5178 39.5684 17.6556 39.5198 17.7985 39.4852C18.1575 39.4008 18.2208 39.5038 17.9881 39.7944C17.3471 40.5969 16.9722 41.5191 16.8635 42.561C16.8604 42.5913 16.8644 42.6219 16.8752 42.6502C16.886 42.6786 16.9032 42.704 16.9254 42.7242C16.9476 42.7445 16.9742 42.759 17.003 42.7667C17.0318 42.7744 17.062 42.775 17.091 42.7684L17.9559 42.5783C17.9881 42.5714 18.018 42.556 18.0427 42.5338C18.0673 42.5116 18.0857 42.4832 18.0962 42.4516C18.2922 41.8615 18.547 41.3002 18.8605 40.7678C19.2474 40.1099 19.7905 39.6516 20.4897 39.3931C20.9019 39.2395 20.9733 39.3387 20.704 39.6907C20.1856 40.3678 19.8271 41.1217 19.6286 41.9524C19.6223 41.9794 19.6217 42.0075 19.627 42.0348C19.6323 42.0621 19.6433 42.0879 19.6594 42.1104C19.6754 42.133 19.696 42.1518 19.7198 42.1657C19.7436 42.1795 19.7701 42.1879 19.7974 42.1905L20.759 42.2749C20.7893 42.278 20.82 42.2732 20.8484 42.2612C20.8768 42.2491 20.9021 42.2301 20.9221 42.2058C21.658 41.2945 22.5329 40.5515 23.5469 39.9768C23.5758 39.9603 23.6 39.9366 23.6169 39.908C23.6339 39.8794 23.6431 39.8468 23.6437 39.8136C23.6677 38.5937 23.6588 37.3784 23.6171 36.1676C23.6038 35.7528 23.7176 35.1212 23.5697 34.5702C23.5626 34.5431 23.5499 34.518 23.5326 34.4964C23.5153 34.4749 23.4936 34.4575 23.4692 34.4454C20.8121 33.159 15.5302 35.9544 13.2695 37.4808C13.2479 37.4953 13.2296 37.5141 13.2155 37.5359C13.2015 37.5577 13.1921 37.5821 13.1879 37.6075C12.985 38.7557 12.3269 39.7848 11.0922 38.9496C11.0641 38.9305 11.0314 38.9193 10.9977 38.9173C10.9641 38.9153 10.9305 38.9225 10.9007 38.9381ZM41.422 20.5065C40.2208 20.4898 39.0197 20.4981 37.8185 20.5314C37.7689 20.5324 37.7216 20.5531 37.6869 20.589C37.6521 20.6249 37.6327 20.6731 37.6327 20.7234L37.6384 30.3904C37.6389 30.4415 37.6593 30.4903 37.6951 30.5263C37.731 30.5622 37.7794 30.5824 37.8299 30.5824C41.9315 30.5683 44.4002 30.5786 45.236 30.6131C49.3193 30.7821 53.4196 31.0029 57.5067 31.0125C61.2771 31.0227 65.0392 31.0233 68.7931 31.0144C68.8409 31.0145 68.887 30.9962 68.9221 30.9631C68.9573 30.93 68.979 30.8845 68.9828 30.8358L69.7205 20.9058C69.7224 20.8795 69.7189 20.853 69.7102 20.8282C69.7016 20.8033 69.6881 20.7805 69.6705 20.7612C69.6529 20.7419 69.6315 20.7266 69.6078 20.7161C69.5841 20.7056 69.5586 20.7003 69.5328 20.7004C61.2246 20.6338 52.9429 20.5833 44.6879 20.5487L41.422 20.5065Z" stroke="#808080" stroke-width="1.88707"/>
<path d="M25.8109 55.6842C27.0013 60.777 31.319 64.705 36.4814 65.0521C43.5238 65.5226 49.219 59.834 49.2285 52.7107C49.2386 45.9667 49.243 39.2991 49.2417 32.7081C49.2417 32.6569 49.2218 32.6079 49.1864 32.5717C49.1509 32.5356 49.1029 32.5152 49.0528 32.5152L25.6257 32.5095C25.5754 32.5095 25.5272 32.5297 25.4914 32.5658C25.4557 32.6019 25.4354 32.651 25.4349 32.7023C25.4261 35.3865 25.4311 38.0708 25.45 40.755C25.4764 44.4401 25.4216 48.1541 25.4708 51.8565C25.4947 53.5406 25.6081 54.8165 25.8109 55.6842ZM62.0304 50.8827C63.8784 50.9032 65.7334 50.8987 67.5952 50.8692C67.642 50.8688 67.687 50.8504 67.7212 50.8176C67.7555 50.7847 67.7766 50.7398 67.7804 50.6918L68.523 40.9942C68.5248 40.9675 68.5213 40.9407 68.5126 40.9154C68.5039 40.8902 68.4903 40.8671 68.4726 40.8476C68.4548 40.828 68.4334 40.8125 68.4095 40.8019C68.3857 40.7912 68.36 40.7858 68.334 40.7859L50.7987 40.8515C50.7489 40.8515 50.7012 40.8715 50.6658 40.9073C50.6304 40.943 50.6103 40.9916 50.6098 41.0424L50.5493 50.6397C50.5493 50.6914 50.5694 50.7409 50.6052 50.7774C50.641 50.814 50.6895 50.8345 50.7401 50.8345C54.5029 50.8242 58.2664 50.8403 62.0304 50.8827Z" stroke="#808080" stroke-width="1.88707"/>
<path d="M51.0309 60.6907C51.0214 60.7657 49.4471 62.0546 49.2366 62.2662C48.6562 62.8536 48.2535 63.548 48.0284 64.3495C48.0196 64.3808 48.0188 64.4138 48.026 64.4455C48.0332 64.4772 48.0482 64.5065 48.0696 64.5307C48.091 64.5549 48.1181 64.5732 48.1484 64.5839C48.1787 64.5946 48.2111 64.5974 48.2428 64.5919L50.6022 64.1687C50.6326 64.1634 50.6613 64.1506 50.6858 64.1315C50.7103 64.1124 50.7297 64.0875 50.7426 64.0591C51.3887 62.6214 52.4635 61.7045 53.9669 61.3082C53.9923 61.302 54.0188 61.3038 54.0426 61.3135C54.0665 61.3232 54.0865 61.3402 54.0997 61.3621L54.1338 61.4159C54.1437 61.4323 54.1473 61.4519 54.1438 61.471C54.1403 61.4902 54.13 61.5075 54.1149 61.5198C53.4055 62.0841 52.8966 62.7894 52.588 63.6358C52.5776 63.6639 52.5738 63.6941 52.577 63.724C52.5801 63.7539 52.5901 63.7826 52.6061 63.8078C52.6222 63.833 52.6438 63.8541 52.6693 63.8694C52.6948 63.8846 52.7235 63.8936 52.753 63.8955L54.333 63.9994C54.3771 64.0019 54.4206 63.989 54.4563 63.9629C55.4198 63.2511 56.5021 62.9747 57.7034 63.1338C57.7262 63.1369 57.7473 63.148 57.7628 63.1652C57.7784 63.1825 57.7876 63.2047 57.7887 63.228C57.7944 63.3685 56.5028 63.809 56.2429 63.9648C55.8686 64.1892 55.8712 64.4098 56.2505 64.6265C57.8342 65.5287 58.959 67.0119 59.1524 68.8663C59.1543 68.8834 59.1526 68.9007 59.1476 68.9171C59.1426 68.9335 59.1342 68.9487 59.1231 68.9615C59.1121 68.9744 59.0985 68.9847 59.0833 68.9919C59.0681 68.999 59.0516 69.0027 59.0348 69.0029C58.983 69.0029 58.9356 68.9778 58.8926 68.9278C57.1059 66.8214 55.3022 65.4402 52.4116 65.8481C48.9192 66.3392 45.5855 67.3844 42.4105 68.9836C42.3844 68.9968 42.3616 69.0155 42.3439 69.0385C42.3262 69.0615 42.3139 69.0881 42.3081 69.1163L42.1279 69.9781C42.1193 70.0239 42.0942 70.0645 42.0577 70.0916C41.6493 70.4071 41.2503 70.3994 40.8609 70.0686C40.8381 70.0489 40.811 70.035 40.782 70.028C40.753 70.0209 40.7228 70.021 40.694 70.0282C39.5332 70.3186 38.7973 69.151 39.7305 68.3257C39.7513 68.3071 39.7678 68.2841 39.779 68.2586C39.7901 68.233 39.7956 68.2053 39.795 68.1776C39.7836 67.5171 40.0984 67.1401 40.7395 67.0465C40.779 67.0403 40.8195 67.047 40.8552 67.0657C41.5797 67.4543 42.0577 67.1234 42.1544 66.3386C42.229 65.7423 42.3586 65.1568 42.5432 64.5823C42.633 64.3078 42.5477 64.2296 42.2872 64.3476C40.694 65.0709 39.0243 65.4947 37.2781 65.6191C37.2303 65.6221 37.1854 65.6434 37.1526 65.6788C37.1198 65.7142 37.1016 65.761 37.1017 65.8096L37.0979 91.425C37.0978 91.4581 37.1062 91.4906 37.1221 91.5194C37.138 91.5483 37.161 91.5725 37.1888 91.5897C37.2167 91.6069 37.2484 91.6165 37.281 91.6177C37.3135 91.6188 37.3459 91.6114 37.3748 91.5962C42.7146 88.7761 47.7054 85.4219 52.3472 81.5336C58.4089 76.457 64.2355 69.428 65.9615 61.4236C66.1575 60.5182 66.2738 59.7763 66.3105 59.198C66.4761 56.6305 66.669 54.0804 66.889 51.5476C66.8913 51.5209 66.8882 51.494 66.8797 51.4686C66.8713 51.4433 66.8577 51.4199 66.8398 51.4002C66.822 51.3805 66.8003 51.3647 66.7761 51.354C66.7519 51.3433 66.7257 51.3378 66.6993 51.3379L49.9175 51.3975C49.8921 51.3978 49.867 51.4032 49.8437 51.4134C49.8204 51.4237 49.7994 51.4386 49.7819 51.4573C49.7644 51.4759 49.7507 51.4979 49.7418 51.5221C49.7328 51.5462 49.7287 51.5718 49.7297 51.5976C49.8764 55.7771 48.4495 59.2903 45.4489 62.1373C45.2441 62.3316 44.6106 62.8164 44.4513 63.1472C44.0391 63.9988 43.9107 64.8888 44.0663 65.8173C44.0712 65.8457 44.0823 65.8726 44.0989 65.8961C44.1155 65.9195 44.1371 65.9389 44.162 65.9528C44.187 65.9666 44.2147 65.9746 44.2431 65.9761C44.2715 65.9776 44.2999 65.9727 44.3261 65.9615L45.5533 65.4518C45.5774 65.4414 45.5991 65.4263 45.6174 65.4075C45.6356 65.3887 45.6499 65.3665 45.6595 65.3421C46.4713 63.2165 48.5633 60.6369 50.9531 60.6003C50.9642 60.6002 50.9751 60.6025 50.9852 60.6072C50.9953 60.6118 51.0044 60.6186 51.0117 60.6272C51.0191 60.6357 51.0246 60.6458 51.0279 60.6568C51.0312 60.6677 51.0322 60.6793 51.0309 60.6907ZM6.77574 59.9136C6.74775 59.9137 6.72013 59.92 6.69481 59.932C6.6695 59.9441 6.6471 59.9615 6.6292 59.9832C6.6113 60.0048 6.59833 60.0301 6.59121 60.0573C6.58409 60.0845 6.58298 60.1129 6.58797 60.1406C7.21008 63.5813 8.41763 66.7958 10.2106 69.7839C10.228 69.8121 10.2521 69.8354 10.2806 69.8515C10.3091 69.8677 10.3412 69.8762 10.3737 69.8762L35.535 69.857C35.5853 69.857 35.6336 69.8367 35.6691 69.8006C35.7047 69.7645 35.7247 69.7156 35.7247 69.6646V65.8077C35.7248 65.7591 35.7066 65.7123 35.6738 65.6769C35.641 65.6415 35.5961 65.6202 35.5483 65.6172C31.3187 65.3094 27.9616 63.4351 25.477 59.9944C25.4594 59.97 25.4363 59.9501 25.4096 59.9364C25.3829 59.9227 25.3534 59.9155 25.3233 59.9155L6.77574 59.9136ZM19.0207 80.3159C24.0646 84.7134 29.5403 88.4703 35.4478 91.5866C35.4767 91.6018 35.509 91.6092 35.5416 91.608C35.5742 91.6069 35.6059 91.5973 35.6338 91.5801C35.6616 91.5629 35.6846 91.5387 35.7005 91.5098C35.7164 91.481 35.7248 91.4485 35.7247 91.4154V80.1004C35.7247 80.0494 35.7047 80.0005 35.6691 79.9644C35.6336 79.9283 35.5853 79.9081 35.535 79.9081L19.144 79.9773C18.8051 79.9786 18.764 80.0915 19.0207 80.3159ZM40.3431 6.03188C40.3133 6.01422 40.2799 6.00493 40.2464 6.00495H34.7915C34.7533 6.00499 34.7156 5.99291 34.6834 5.97032C33.8109 5.3586 34.5317 4.93347 35.1728 4.93924C37.0783 4.95463 38.9857 4.95335 40.895 4.93539C40.9448 4.93539 40.9926 4.91513 41.0278 4.87905C41.063 4.84298 41.0828 4.79405 41.0828 4.74303V3.77158C41.0828 3.74599 41.0778 3.72066 41.068 3.69707C41.0582 3.67347 41.0439 3.65209 41.0259 3.63418C41.0079 3.61626 40.9865 3.60218 40.9631 3.59274C40.9396 3.5833 40.9146 3.5787 40.8893 3.57921C38.8068 3.61512 36.7242 3.60871 34.6417 3.55998C32.9499 3.51958 32.3277 4.29097 32.5383 5.98571C32.6616 6.97447 33.3368 7.36305 34.3022 7.38036C35.9144 7.40858 37.5689 7.41178 39.2658 7.38998C39.3123 7.38878 39.3576 7.4055 39.3927 7.43684C39.4279 7.46819 39.4502 7.51187 39.4555 7.55926C39.5187 8.11071 39.3499 8.38644 38.949 8.38644C37.0031 8.38772 34.99 8.3999 32.91 8.42299C32.8601 8.42349 32.8123 8.44398 32.7771 8.48001C32.742 8.51603 32.7223 8.56467 32.7223 8.61535L32.7242 9.56179C32.7242 9.61281 32.7441 9.66174 32.7797 9.69782C32.8153 9.73389 32.8635 9.75416 32.9138 9.75416L39.3644 9.75801C40.9823 9.75993 41.3844 9.11743 41.3142 7.54003C41.2851 6.90394 40.9614 6.40122 40.3431 6.03188ZM31.0589 4.21979C30.5746 3.81454 30.0271 3.63308 29.4164 3.6754C27.3376 3.82159 25.183 3.97292 22.9525 4.12938C22.9037 4.13236 22.858 4.15453 22.825 4.19117C22.7921 4.22781 22.7745 4.27603 22.7761 4.32559L22.9335 10.1524C22.9343 10.1776 22.9399 10.2025 22.95 10.2255C22.9601 10.2486 22.9746 10.2694 22.9925 10.2867C23.0105 10.304 23.0316 10.3176 23.0547 10.3265C23.0778 10.3355 23.1023 10.3397 23.127 10.339L24.3314 10.312C24.3565 10.3115 24.3813 10.3059 24.4043 10.2955C24.4273 10.2851 24.448 10.2702 24.4651 10.2515C24.4823 10.2328 24.4956 10.2109 24.5042 10.1869C24.5128 10.1629 24.5166 10.1374 24.5153 10.112L24.4319 8.02479C24.4298 7.97553 24.4466 7.92735 24.4788 7.89039C24.511 7.85344 24.556 7.83059 24.6045 7.82665C25.6641 7.73304 26.7313 7.65994 27.8061 7.60736C28.9612 7.54965 29.8829 7.37075 29.974 8.90967C29.9879 9.1559 29.9986 9.40726 30.0062 9.66375C30.007 9.68934 30.0127 9.71454 30.023 9.73785C30.0334 9.76116 30.0482 9.78212 30.0666 9.7995C30.085 9.81688 30.1065 9.83033 30.13 9.83906C30.1535 9.84779 30.1785 9.85163 30.2035 9.85034L31.3585 9.79648C31.4064 9.79453 31.4517 9.77413 31.4851 9.73944C31.5186 9.70476 31.5378 9.65842 31.5387 9.60989C31.5653 8.6596 31.6051 7.60351 31.038 6.90907C31.0139 6.87908 30.9992 6.84237 30.9958 6.80365C30.9924 6.76492 31.0005 6.72594 31.019 6.69169C31.4325 5.94275 31.4641 5.14379 31.1139 4.29482C31.1012 4.26532 31.0829 4.24031 31.0589 4.21979ZM44.2313 9.93306C46.2165 10.1293 48.2092 10.2857 50.2096 10.4024C50.2348 10.404 50.2601 10.4004 50.2839 10.3919C50.3078 10.3834 50.3297 10.3702 50.3484 10.353C50.3672 10.3358 50.3823 10.315 50.393 10.2917C50.4037 10.2685 50.4097 10.2434 50.4107 10.2178L50.4486 9.17899C50.4507 9.1289 50.4334 9.07997 50.4005 9.0426C50.3675 9.00524 50.3215 8.98239 50.2722 8.97892L44.6372 8.57111C44.2642 8.54418 44.0644 8.31013 44.0378 7.86897C43.9923 7.13414 43.7666 5.08736 44.9729 5.18355C46.7912 5.33103 48.6151 5.48171 50.4448 5.63561C50.4703 5.6377 50.496 5.63453 50.5203 5.62629C50.5446 5.61805 50.567 5.6049 50.5861 5.58764C50.6052 5.57039 50.6207 5.54938 50.6317 5.52588C50.6426 5.50239 50.6487 5.47689 50.6496 5.45093L50.6952 4.41216C50.6978 4.36257 50.6812 4.3139 50.649 4.27653C50.6167 4.23916 50.5714 4.21604 50.5226 4.2121C48.5993 4.03897 46.6755 3.88572 44.751 3.75234C43.6395 3.6754 42.6893 3.59268 42.5053 4.98926C42.4522 5.40092 42.3997 6.39032 42.3479 7.95746C42.3005 9.35404 42.9245 9.8061 44.2313 9.93306ZM53.4358 6.90714C53.4174 6.90387 53.4009 6.89381 53.3893 6.8789C53.3778 6.86398 53.372 6.84527 53.3733 6.82635L53.5041 4.60837C53.5052 4.58887 53.499 4.56968 53.4867 4.55468C53.4743 4.53967 53.4569 4.52999 53.4377 4.52758L52.0911 4.3506C52.0808 4.34927 52.0704 4.35007 52.0605 4.35298C52.0505 4.35588 52.0413 4.36082 52.0333 4.36749C52.0253 4.37415 52.0187 4.38241 52.014 4.39175C52.0092 4.40108 52.0064 4.4113 52.0058 4.42178L51.6454 10.6814C51.6443 10.7009 51.6505 10.7201 51.6628 10.7351C51.6752 10.7501 51.6927 10.7597 51.7118 10.7622L53.0394 10.9391C53.0496 10.9405 53.0598 10.9397 53.0697 10.9369C53.0795 10.9342 53.0887 10.9294 53.0966 10.9229C53.1046 10.9165 53.1112 10.9084 53.116 10.8993C53.1209 10.8902 53.1239 10.8802 53.1248 10.8699L53.3107 8.29025C53.3113 8.2794 53.3142 8.26881 53.3192 8.25917C53.3241 8.24954 53.3311 8.24108 53.3395 8.23435C53.3479 8.22763 53.3576 8.22279 53.368 8.22016C53.3784 8.21753 53.3893 8.21716 53.3998 8.21908L58.352 9.18476C58.3704 9.18803 58.387 9.19809 58.3986 9.213C58.4101 9.22792 58.4158 9.24663 58.4146 9.26555L58.2515 11.7375C58.2503 11.7564 58.256 11.7751 58.2676 11.79C58.2791 11.8049 58.2957 11.815 58.3141 11.8182L59.6607 12.0587C59.6713 12.0606 59.6821 12.0603 59.6925 12.0576C59.7029 12.055 59.7127 12.0502 59.7211 12.0434C59.7295 12.0367 59.7364 12.0282 59.7414 12.0186C59.7464 12.009 59.7492 11.9984 59.7499 11.9875L60.1235 5.7568C60.1248 5.73815 60.1194 5.71967 60.1082 5.7048C60.097 5.68993 60.0809 5.6797 60.0628 5.676L58.7181 5.41438C58.7075 5.41246 58.6967 5.41283 58.6863 5.41546C58.6759 5.4181 58.6662 5.42293 58.6577 5.42966C58.6493 5.43638 58.6424 5.44484 58.6374 5.45448C58.6325 5.46411 58.6296 5.47471 58.6289 5.48556L58.5095 7.78433C58.5091 7.79535 58.5064 7.80616 58.5015 7.81603C58.4967 7.82589 58.4898 7.83458 58.4813 7.84152C58.4729 7.84845 58.4631 7.85346 58.4525 7.8562C58.442 7.85895 58.431 7.85937 58.4203 7.85743L53.4358 6.90714ZM13.2339 10.0466C13.325 11.3181 14.2486 11.876 15.4379 11.6759C16.9716 11.4194 18.5029 11.1559 20.0316 10.8853C21.2 10.6794 21.9586 10.514 21.9359 9.08473C21.9207 8.23703 21.9074 7.38549 21.896 6.53011C21.8752 5.18547 21.071 4.45256 19.694 4.66031C17.8884 4.93347 16.0903 5.24831 14.2998 5.60483C13.6145 5.74205 13.2308 6.09921 13.1486 6.67631C13.079 7.16876 13.1075 8.29218 13.2339 10.0466ZM62.9268 8.72885C62.9042 8.72399 62.884 8.71139 62.8695 8.69318C62.855 8.67496 62.8471 8.65223 62.8472 8.62882V7.71508C62.8471 7.69987 62.8504 7.68484 62.8568 7.6711C62.8633 7.65736 62.8726 7.64525 62.8843 7.63566C62.8959 7.62607 62.9095 7.61924 62.9241 7.61567C62.9387 7.61211 62.9539 7.61189 62.9685 7.61505L68.3589 8.75386C68.3731 8.75694 68.3878 8.75685 68.402 8.75362C68.4162 8.75038 68.4295 8.74406 68.441 8.73511C68.4525 8.72615 68.462 8.71476 68.4688 8.70172C68.4756 8.68869 68.4795 8.67431 68.4803 8.6596L68.5239 7.54388C68.5249 7.51981 68.5174 7.49617 68.5028 7.47716C68.4882 7.45814 68.4675 7.44498 68.4442 7.44L61.5536 5.96455C61.5394 5.96147 61.5247 5.96155 61.5105 5.96479C61.4964 5.96803 61.483 5.97434 61.4715 5.9833C61.46 5.99226 61.4505 6.00365 61.4437 6.01669C61.4369 6.02972 61.433 6.04409 61.4322 6.05881L61.087 12.1953C61.0855 12.2194 61.0925 12.2433 61.1068 12.2627C61.121 12.282 61.1416 12.2957 61.1648 12.3011L67.9796 13.7785C67.9938 13.7815 68.0085 13.7815 68.0226 13.7782C68.0368 13.775 68.0501 13.7687 68.0617 13.7597C68.0732 13.7507 68.0827 13.7394 68.0895 13.7263C68.0963 13.7133 68.1002 13.6989 68.1009 13.6842L68.1673 12.5454C68.1687 12.521 68.1615 12.4969 68.1469 12.4775C68.1323 12.4581 68.1112 12.4446 68.0877 12.4396L62.7428 11.2835C62.7196 11.2785 62.6988 11.2653 62.6843 11.2463C62.6697 11.2273 62.6622 11.2037 62.6632 11.1796L62.722 10.1504C62.7227 10.1357 62.7267 10.1213 62.7334 10.1083C62.7402 10.0953 62.7497 10.0839 62.7612 10.0749C62.7728 10.066 62.7861 10.0596 62.8003 10.0564C62.8144 10.0532 62.8292 10.0531 62.8434 10.0562L68.1635 11.2219C68.1777 11.225 68.1924 11.2249 68.2066 11.2217C68.2208 11.2184 68.2341 11.2121 68.2457 11.2032C68.2572 11.1942 68.2667 11.1828 68.2735 11.1698C68.2802 11.1567 68.2841 11.1424 68.2849 11.1277L68.3456 9.98884C68.3466 9.96478 68.3391 9.94114 68.3245 9.92213C68.3099 9.90311 68.2892 9.88995 68.266 9.88497L62.9268 8.72885ZM12.1111 9.22708C12.5113 7.81896 12.1585 5.9684 10.1556 6.43777C8.11353 6.91484 6.07207 7.39768 4.03125 7.88629C3.98733 7.89707 3.94858 7.92326 3.92185 7.96022C3.89513 7.99719 3.88215 8.04254 3.88521 8.08827L4.31385 13.965C4.316 13.9927 4.3239 14.0196 4.33702 14.0438C4.35014 14.0681 4.36817 14.0893 4.38991 14.1058C4.41165 14.1224 4.43659 14.1341 4.46306 14.14C4.48952 14.1459 4.5169 14.1459 4.54335 14.1401L5.74205 13.8785C5.7865 13.8689 5.82599 13.8429 5.8532 13.8055C5.8804 13.768 5.89347 13.7215 5.88999 13.6746L5.71929 11.5162C5.71545 11.4698 5.72832 11.4236 5.75553 11.3861C5.78273 11.3486 5.82242 11.3224 5.86723 11.3123C7.63493 10.9173 9.39758 10.5025 11.1552 10.0677C11.6698 9.94075 11.9884 9.66054 12.1111 9.22708Z" stroke="#808080" stroke-width="1.88707"/>
<path d="M30.2529 6.21607C30.2489 6.14736 30.2165 6.08299 30.163 6.03711C30.1095 5.99123 30.0391 5.96759 29.9674 5.97141L25.4053 6.21571C25.3698 6.21761 25.335 6.2262 25.3029 6.24098C25.2709 6.25577 25.2422 6.27646 25.2184 6.30187C25.1947 6.32729 25.1765 6.35693 25.1647 6.38911C25.153 6.42129 25.1479 6.45537 25.1499 6.48941L25.1757 6.93154C25.1777 6.96558 25.1866 6.99891 25.2021 7.02963C25.2175 7.06035 25.2391 7.08785 25.2656 7.11057C25.2922 7.13329 25.3231 7.15078 25.3567 7.16204C25.3903 7.1733 25.4258 7.17812 25.4614 7.1762L30.0235 6.93191C30.059 6.93 30.0938 6.92142 30.1258 6.90663C30.1579 6.89185 30.1866 6.87115 30.2103 6.84574C30.234 6.82032 30.2523 6.79068 30.264 6.7585C30.2758 6.72632 30.2808 6.69224 30.2788 6.6582L30.2531 6.21607M20.4588 6.84969C20.4311 6.84243 20.4026 6.84122 20.3736 6.84606C19.0488 7.05902 17.7006 7.27803 16.3291 7.50309C15.6187 7.62106 15.4671 7.99132 15.4917 8.65561C15.5088 9.09121 15.4387 10.1929 15.6755 10.5396C15.9085 10.879 16.4143 10.6902 16.7326 10.6448C17.9728 10.4706 19.2085 10.2734 20.4399 10.0532C21.461 9.87166 21.1939 8.56667 21.1276 7.61562C21.101 7.20543 20.8718 6.96585 20.4588 6.84969ZM11.1769 8.80226C11.1608 8.7337 11.1171 8.67404 11.0551 8.63639C10.9932 8.59875 10.9182 8.58621 10.8467 8.60152L6.49467 9.53353C6.45922 9.5411 6.42567 9.5553 6.39595 9.5753C6.36622 9.5953 6.3409 9.62071 6.32143 9.65009C6.30195 9.67946 6.28871 9.71223 6.28245 9.74651C6.2762 9.78079 6.27705 9.81591 6.28496 9.84988L6.36775 10.2042C6.38376 10.2727 6.42755 10.3324 6.48946 10.37C6.55138 10.4077 6.62637 10.4202 6.69794 10.4049L11.0499 9.4729C11.0854 9.46533 11.1189 9.45113 11.1487 9.43113C11.1784 9.41113 11.2037 9.38572 11.2232 9.35634C11.2427 9.32696 11.2559 9.2942 11.2622 9.25992C11.2684 9.22564 11.2676 9.19051 11.2596 9.15655L11.1769 8.80226ZM78.0997 9.88799C78.0997 9.3272 77.8671 8.78938 77.4533 8.39284C77.0394 7.99629 76.478 7.77352 75.8927 7.77352C75.3074 7.77352 74.746 7.99629 74.3321 8.39284C73.9182 8.78938 73.6857 9.3272 73.6857 9.88799C73.6857 10.4488 73.9182 10.9866 74.3321 11.3832C74.746 11.7797 75.3074 12.0025 75.8927 12.0025C76.478 12.0025 77.0394 11.7797 77.4533 11.3832C77.8671 10.9866 78.0997 10.4488 78.0997 9.88799Z" stroke="#808080" stroke-width="1.88707"/>
<path d="M75.1041 9.71001C75.7006 9.62552 75.9959 10.2827 76.2404 10.6113C76.2978 10.6885 76.3701 10.738 76.4575 10.7599C76.82 10.8507 76.893 10.7709 76.6765 10.5205L76.1759 9.94158C76.1588 9.92191 76.1476 9.89936 76.1431 9.87567C76.1387 9.85199 76.1411 9.8278 76.1501 9.80497C76.1592 9.78215 76.1747 9.76129 76.1954 9.74401C76.2162 9.72674 76.2416 9.7135 76.2697 9.70532C76.5136 9.63438 76.6922 9.51442 76.8056 9.34544C77.0657 8.9527 76.7822 8.46452 76.213 8.40663C75.9014 8.37534 75.4137 8.37586 74.7501 8.4082C74.7029 8.41032 74.6582 8.42591 74.6244 8.45209C74.5906 8.47826 74.57 8.51325 74.5662 8.55058C74.4945 9.2307 74.49 9.91238 74.5525 10.5956C74.5682 10.7583 74.6464 10.8199 74.7872 10.7803C74.8161 10.7724 74.8415 10.7577 74.8599 10.7379C74.8784 10.718 74.8892 10.6941 74.8909 10.6692L74.9437 9.85553C74.9461 9.81995 74.9633 9.78614 74.9925 9.75968C75.0216 9.73322 75.061 9.7157 75.1041 9.71001Z" stroke="#808080" stroke-width="1.88707"/>
<path d="M76.8908 8.43502C76.8905 8.42114 76.8849 8.40794 76.8752 8.39829C76.8655 8.38864 76.8524 8.38334 76.8389 8.38355L75.5047 8.40491C75.4979 8.40501 75.4913 8.40648 75.4851 8.40922C75.4789 8.41196 75.4733 8.41593 75.4686 8.42089C75.4639 8.42585 75.4603 8.43171 75.4578 8.43813C75.4553 8.44456 75.4541 8.45142 75.4542 8.45832L75.4666 9.25457C75.4668 9.26844 75.4724 9.28165 75.4822 9.29129C75.4919 9.30094 75.505 9.30624 75.5185 9.30603L76.8527 9.28467C76.8594 9.28457 76.8661 9.28311 76.8723 9.28036C76.8785 9.27762 76.884 9.27366 76.8887 9.2687C76.8934 9.26373 76.8971 9.25787 76.8996 9.25145C76.902 9.24503 76.9032 9.23817 76.9031 9.23126L76.8908 8.43502ZM14.2967 23.8376C14.2727 21.8631 14.8836 20.1204 16.1296 18.6095C16.4669 18.1991 16.8043 17.7867 17.1417 17.3724C17.3477 17.1212 17.2618 17.0287 16.8839 17.0947C13.6882 17.6618 12.5244 22.4431 12.098 25.1698C12.0449 25.5155 11.8648 25.6243 11.5578 25.4961C10.2537 24.9536 9.53093 25.3757 9.3894 26.7623C9.38648 26.7914 9.3773 26.8194 9.36254 26.8442C9.34779 26.8691 9.32782 26.8902 9.30411 26.906C7.94509 27.811 8.9743 29.7978 10.557 29.12C10.5871 29.1069 10.6201 29.1022 10.6526 29.1063C10.6852 29.1104 10.7163 29.1232 10.7427 29.1433C11.8895 30.0211 13.0912 28.9044 13.0552 27.6693C13.054 27.6356 13.0615 27.6022 13.0768 27.5726C13.0921 27.5429 13.1147 27.518 13.1424 27.5003C16.1397 25.5233 19.3379 24.1988 22.737 23.5268C25.7394 22.9325 27.6348 23.5326 30.0117 25.3058C30.2594 25.4909 30.3592 25.4281 30.3112 25.1174C30.097 23.756 28.7361 22.5694 27.6216 21.946C27.5998 21.934 27.5806 21.9178 27.565 21.8982C27.5494 21.8785 27.5378 21.8559 27.5308 21.8315C27.5237 21.8072 27.5214 21.7816 27.524 21.7563C27.5266 21.7309 27.5339 21.7063 27.5457 21.6838C27.916 20.9834 28.386 20.36 28.9559 19.8136C29.4589 19.3307 29.3723 19.1623 28.6963 19.3086C27.4314 19.5818 26.3838 20.2188 25.5536 21.2196C25.5347 21.2421 25.5113 21.26 25.4851 21.2721C25.4589 21.2842 25.4305 21.2902 25.402 21.2896L23.6999 21.2371C23.673 21.236 23.6466 21.2292 23.6225 21.217C23.5983 21.2049 23.577 21.1877 23.5598 21.1666C23.5426 21.1456 23.53 21.1211 23.5228 21.0947C23.5156 21.0684 23.5139 21.0408 23.5179 21.0138C23.595 20.4868 23.7328 20.0518 23.9311 19.7087C24.3431 18.9953 24.8441 18.3538 25.4342 17.7841C25.6566 17.5692 25.6149 17.4572 25.3091 17.4482C23.4364 17.3996 21.8746 20.0292 21.3079 21.5459C21.2958 21.5774 21.276 21.6051 21.2504 21.6266C21.2249 21.648 21.1944 21.6623 21.1619 21.6683L19.511 21.9673C19.4811 21.9725 19.4504 21.9702 19.4215 21.9606C19.3927 21.9511 19.3664 21.9346 19.3451 21.9125C19.3237 21.8905 19.3079 21.8635 19.2988 21.8338C19.2897 21.8041 19.2878 21.7727 19.293 21.7421C19.6014 19.9579 20.4391 18.4897 21.8064 17.3375C22.3011 16.9199 21.6794 16.8966 21.4747 16.9335C18.8362 17.4054 17.3786 20.404 16.8745 22.7966C16.8685 22.8256 16.856 22.8528 16.8379 22.8761C16.8198 22.8993 16.7966 22.918 16.7702 22.9306L14.5677 24.0085C14.539 24.0225 14.5072 24.029 14.4754 24.0273C14.4435 24.0256 14.4127 24.0158 14.3857 23.9988C14.3586 23.9817 14.3363 23.958 14.3208 23.9298C14.3052 23.9017 14.2969 23.8699 14.2967 23.8376ZM28.0367 36.3153C28.0404 36.9251 27.2463 36.7814 27.0586 36.2784C27.0415 36.2336 27.0088 36.1968 26.9668 36.1753C26.9248 36.1538 26.8764 36.149 26.8312 36.1619L26.6397 36.2163C26.6154 36.2231 26.5927 36.2349 26.573 36.2511C26.5532 36.2672 26.5369 36.2872 26.5248 36.3101C26.5128 36.3329 26.5054 36.3581 26.503 36.384C26.5006 36.4099 26.5032 36.4361 26.5108 36.461C26.96 37.9311 29.244 37.3971 28.5162 35.6803C28.4977 35.6375 28.4655 35.6031 28.4252 35.5832L27.2576 34.9947C27.2301 34.9808 27.2062 34.9601 27.188 34.9344C27.1699 34.9087 27.158 34.8788 27.1534 34.8471C27.1142 34.5558 27.2861 34.4257 27.6689 34.4568C27.7201 34.4618 27.7671 34.4869 27.7997 34.5267L28.0916 34.886C28.1131 34.9132 28.1396 34.9326 28.1712 34.9442C28.8725 35.2142 28.5295 33.9324 27.7277 33.8353C26.7591 33.7188 26.2777 34.5908 26.7402 35.4919C26.7587 35.5274 26.7871 35.5564 26.8217 35.5754L27.9305 36.1425C27.962 36.1583 27.9885 36.1828 28.0072 36.2133C28.026 36.2438 28.0362 36.2791 28.0367 36.3153ZM40.247 37.1174C40.3115 37.1796 40.3829 37.2184 40.4612 37.2339C40.4884 37.239 40.5164 37.2379 40.5432 37.2306C40.57 37.2233 40.595 37.21 40.6163 37.1917C40.6376 37.1734 40.6548 37.1505 40.6666 37.1245C40.6785 37.0986 40.6847 37.0703 40.6849 37.0417V35.6181C40.6849 35.5666 40.6649 35.5172 40.6293 35.4808C40.5938 35.4444 40.5456 35.4239 40.4953 35.4239H39.7333C39.6894 35.424 39.6468 35.4397 39.6129 35.4684C39.579 35.4971 39.556 35.537 39.5476 35.5812C39.4882 35.8958 39.5912 36.0428 39.8566 36.0221C40.1017 36.0027 40.1605 36.1004 40.0328 36.3153C39.7801 36.7439 39.4819 36.8034 39.1382 36.494C38.3876 35.8143 39.0605 33.6353 40.0328 34.8044C40.1807 34.9811 40.3588 35.0782 40.5598 34.9656C40.5954 34.9453 40.6238 34.914 40.6409 34.8763C40.6579 34.8386 40.6627 34.7964 40.6545 34.7559C40.5503 34.2509 40.2394 33.9111 39.7182 33.8567C37.3318 33.612 38.035 38.3914 40.0158 37.096C40.0514 37.0727 40.0935 37.0621 40.1354 37.066C40.1773 37.0699 40.2166 37.088 40.247 37.1174ZM31.9886 36.4921C31.9678 36.4737 31.951 36.4512 31.9396 36.426C31.9281 36.4009 31.9222 36.3737 31.9223 36.3464L31.9166 34.1266C31.9165 34.0904 31.9067 34.055 31.8883 34.0244C31.8698 33.9939 31.8435 33.9694 31.8123 33.9538C31.5129 33.801 31.3612 33.8832 31.3574 34.2004C31.3473 35.1456 31.3511 35.8454 31.3688 36.2998C31.4143 37.434 32.8529 37.6534 33.3135 36.8708C33.6339 36.327 33.4784 34.8102 33.4841 34.0975C33.4846 34.0507 33.4686 34.0052 33.439 33.9695C33.4094 33.9338 33.3682 33.9103 33.323 33.9033L33.1752 33.88C33.1492 33.8759 33.1227 33.8774 33.0974 33.8843C33.072 33.8912 33.0484 33.9035 33.0279 33.9203C33.0074 33.9371 32.9905 33.958 32.9784 33.9819C32.9662 34.0057 32.959 34.0318 32.9572 34.0587C32.9269 34.4917 33.2093 37.566 31.9886 36.4921ZM35.3701 34.5578C35.7732 34.6471 35.9507 34.4891 35.9027 34.0839C35.8971 34.0368 35.8748 33.9935 35.8399 33.962C35.805 33.9305 35.7599 33.9131 35.7131 33.913L33.9504 33.9208C33.9021 33.9212 33.8557 33.9405 33.8208 33.9748C33.7859 34.0091 33.7652 34.0558 33.7627 34.1053C33.7413 34.504 33.9289 34.6367 34.3257 34.5034C34.3539 34.4935 34.3841 34.4908 34.4136 34.4953C34.4431 34.4999 34.4712 34.5117 34.4955 34.5298C34.5198 34.5478 34.5395 34.5716 34.5532 34.5991C34.5668 34.6266 34.574 34.657 34.574 34.6879L34.5702 37.0436C34.5697 37.0936 34.5884 37.1419 34.6224 37.1781C34.6563 37.2144 34.7029 37.2358 34.7522 37.2378L34.9455 37.2436C34.9708 37.2447 34.996 37.2404 35.0196 37.2312C35.0433 37.2219 35.0648 37.2077 35.0831 37.1896C35.1013 37.1714 35.1158 37.1497 35.1257 37.1256C35.1356 37.1015 35.1407 37.0756 35.1407 37.0494V34.7481C35.1407 34.7191 35.1469 34.6904 35.1591 34.6642C35.1712 34.638 35.189 34.615 35.211 34.5967C35.233 34.5785 35.2587 34.5655 35.2862 34.5588C35.3137 34.552 35.3424 34.5517 35.3701 34.5578Z" stroke="#808080" stroke-width="1.88707"/>
<path d="M37.0403 34.4531C37.0403 34.4376 37.0434 34.4223 37.0495 34.4081C37.0556 34.3939 37.0646 34.381 37.0758 34.3702C37.087 34.3595 37.1004 34.3511 37.115 34.3455C37.1296 34.34 37.1451 34.3374 37.1608 34.3379L37.7458 34.3609C37.7621 34.3618 37.7784 34.3592 37.7936 34.3534C37.8089 34.3476 37.8227 34.3387 37.8342 34.3273C37.8458 34.3159 37.8548 34.3023 37.8606 34.2872C37.8665 34.2722 37.8691 34.2561 37.8682 34.24L37.8507 33.8252C37.8492 33.7957 37.8363 33.7678 37.8146 33.7474C37.7929 33.7271 37.7641 33.7157 37.7341 33.7158L35.7945 33.735C35.7639 33.7355 35.7347 33.7478 35.7133 33.7694C35.6918 33.7909 35.6798 33.8199 35.6798 33.8502L35.6779 34.2438C35.6778 34.2601 35.6812 34.2763 35.6878 34.2912C35.6945 34.3062 35.7044 34.3195 35.7167 34.3304C35.729 34.3413 35.7435 34.3495 35.7593 34.3544C35.775 34.3594 35.7917 34.3609 35.8081 34.359L36.327 34.3014C36.3434 34.2995 36.3601 34.3011 36.3758 34.306C36.3916 34.3109 36.4061 34.3191 36.4184 34.33C36.4307 34.3409 36.4405 34.3543 36.4472 34.3692C36.4539 34.3841 36.4573 34.4003 36.4572 34.4166V36.909C36.4572 36.9386 36.4687 36.967 36.4893 36.9885C36.5099 37.0099 36.5381 37.0227 36.568 37.0242L36.9178 37.0396C36.9336 37.0403 36.9494 37.0379 36.9643 37.0325C36.9791 37.0271 36.9926 37.0187 37.0041 37.0079C37.0155 36.9971 37.0247 36.9842 37.0309 36.9698C37.0371 36.9554 37.0403 36.94 37.0403 36.9244V34.4531ZM29.7404 34.3533L30.1349 34.3552C30.1865 34.3552 30.2359 34.3349 30.2723 34.2989C30.3088 34.2629 30.3293 34.2141 30.3293 34.1632L30.3312 33.9212C30.3312 33.8703 30.3107 33.8215 30.2743 33.7854C30.2378 33.7494 30.1884 33.7292 30.1369 33.7292H28.3391C28.2925 33.7292 28.2475 33.7459 28.2122 33.7762C28.1769 33.8065 28.1537 33.8484 28.1467 33.8943C28.0871 34.3129 28.2607 34.4518 28.6675 34.311C28.6969 34.3009 28.7284 34.2978 28.7592 34.3022C28.79 34.3065 28.8193 34.3181 28.8446 34.336C28.87 34.3539 28.8906 34.3775 28.9048 34.4049C28.9189 34.4323 28.9262 34.4627 28.926 34.4934V36.8495C28.926 36.875 28.9311 36.9003 28.9411 36.9238C28.951 36.9474 28.9655 36.9687 28.9838 36.9866C29.002 37.0045 29.0237 37.0186 29.0475 37.028C29.0713 37.0374 29.0967 37.042 29.1223 37.0415L29.41 37.0376C29.4357 37.0374 29.461 37.0321 29.4847 37.0221C29.5083 37.0121 29.5296 36.9976 29.5475 36.9794C29.5654 36.9612 29.5795 36.9396 29.5889 36.916C29.5983 36.8924 29.6029 36.8672 29.6024 36.8418L29.546 34.5491C29.5452 34.5237 29.5497 34.4983 29.5591 34.4746C29.5685 34.4509 29.5827 34.4292 29.6008 34.411C29.619 34.3927 29.6407 34.3782 29.6646 34.3683C29.6886 34.3584 29.7143 34.3533 29.7404 34.3533ZM42.3831 36.5557C42.4103 36.8987 42.5943 37.0645 42.935 37.053C42.9645 37.0517 42.9934 37.0439 43.0194 37.0301C43.0455 37.0164 43.068 36.997 43.0854 36.9736C43.1028 36.9502 43.1145 36.9232 43.1198 36.8947C43.1251 36.8662 43.1237 36.837 43.1158 36.8091L42.2762 33.8694C42.2651 33.8292 42.2408 33.7937 42.2071 33.7684C42.1734 33.7431 42.1321 33.7293 42.0896 33.7292H41.6756C41.6336 33.7292 41.5926 33.7427 41.559 33.7676C41.5254 33.7925 41.5008 33.8276 41.489 33.8675C41.239 34.7366 40.9811 35.6058 40.7155 36.475C40.6222 36.7784 40.5328 37.2258 41.0984 37.0127C41.1293 37.0009 41.1566 36.9816 41.1777 36.9568C41.1988 36.9319 41.2129 36.9022 41.2189 36.8706C41.3251 36.3355 41.6711 36.1755 42.2567 36.3905C42.2915 36.4033 42.322 36.4256 42.3443 36.4549C42.3667 36.4841 42.3802 36.5191 42.3831 36.5557ZM44.2372 35.7435L44.76 35.7588C44.8076 35.76 44.8532 35.7785 44.8879 35.8107C44.9227 35.8429 44.9442 35.8867 44.9485 35.9335L45.0263 36.8648C45.0302 36.913 45.0524 36.958 45.0884 36.9908C45.1244 37.0235 45.1717 37.0416 45.2206 37.0415H45.4344C45.485 37.0415 45.5335 37.0221 45.5698 36.9873C45.6061 36.9525 45.6272 36.9051 45.6288 36.8552C45.6443 36.3893 45.5834 35.9367 45.4461 35.4977C45.4386 35.4733 45.4362 35.4477 45.4388 35.4224C45.4415 35.397 45.4492 35.3723 45.4616 35.3498C45.7531 34.816 45.7149 34.3097 45.3469 33.831C45.3294 33.8076 45.3066 33.7886 45.2803 33.7753C45.2541 33.762 45.225 33.7547 45.1954 33.7542L43.6522 33.7215C43.6263 33.721 43.6006 33.7256 43.5766 33.735C43.5526 33.7444 43.5307 33.7585 43.5122 33.7764C43.4938 33.7943 43.4791 33.8156 43.4691 33.8392C43.4591 33.8627 43.4539 33.888 43.4539 33.9135V36.8264C43.4541 36.8741 43.4718 36.92 43.5037 36.9554C43.5356 36.9908 43.5795 37.0133 43.6269 37.0184L43.8232 37.0376C43.85 37.0406 43.8772 37.0379 43.9029 37.0297C43.9286 37.0215 43.9523 37.008 43.9725 36.9901C43.9927 36.9722 44.0088 36.9502 44.0199 36.9256C44.0311 36.9011 44.0369 36.8745 44.037 36.8475V35.9355C44.037 35.9098 44.0422 35.8843 44.0523 35.8606C44.0625 35.837 44.0773 35.8155 44.096 35.7976C44.1146 35.7797 44.1368 35.7657 44.161 35.7564C44.1853 35.7471 44.2112 35.7427 44.2372 35.7435ZM46.758 34.5453V36.836C46.7578 36.885 46.7765 36.9322 46.8101 36.9679C46.8437 37.0036 46.8897 37.0251 46.9387 37.028L47.1331 37.0396C47.1597 37.0414 47.1865 37.0379 47.2116 37.0291C47.2368 37.0204 47.2599 37.0067 47.2794 36.9889C47.2989 36.971 47.3145 36.9494 47.3251 36.9255C47.3357 36.9015 47.3411 36.8756 47.341 36.8495V34.5472C47.341 34.5181 47.3478 34.4893 47.3607 34.4632C47.3736 34.437 47.3924 34.414 47.4156 34.3961C47.4388 34.3782 47.4659 34.3657 47.4947 34.3596C47.5235 34.3535 47.5534 34.3539 47.582 34.3609C48.0057 34.4646 48.202 34.3136 48.1709 33.9078C48.1679 33.8594 48.1464 33.8139 48.1106 33.7807C48.0748 33.7476 48.0276 33.7291 47.9785 33.7292H46.1593C46.1114 33.7293 46.0652 33.7468 46.0294 33.7783C45.9936 33.8097 45.9707 33.8531 45.965 33.9001C45.9183 34.3072 46.1023 34.4601 46.517 34.359C46.5456 34.352 46.5754 34.3516 46.6043 34.3576C46.6331 34.3637 46.6601 34.3762 46.6833 34.3942C46.7066 34.4121 46.7253 34.4351 46.7383 34.4612C46.7512 34.4874 46.7579 34.5161 46.758 34.5453ZM39.1238 55.6478C39.1665 56.5964 37.5922 57.4778 36.8498 57.7908C35.7634 58.2477 35.2095 58.6702 34.9218 59.7666C34.9155 59.7912 34.9142 59.8167 34.918 59.8418C34.9218 59.8669 34.9307 59.8911 34.9441 59.9128C34.9574 59.9346 34.9751 59.9536 34.9959 59.9687C35.0168 59.9838 35.0405 59.9947 35.0657 60.0009C35.431 60.0892 35.7686 60.0367 36.0782 59.8434C36.0992 59.8306 36.1173 59.8138 36.1317 59.7941C36.146 59.7743 36.1563 59.7519 36.1618 59.7282L36.3289 59.0945C36.3376 59.0596 36.3563 59.0279 36.3828 59.0031C36.4093 58.9782 36.4426 58.9613 36.4786 58.9544C37.1666 58.8161 37.7536 58.5089 38.2394 58.0327C38.9255 57.3587 39.6232 57.4355 40.2918 56.9708C40.3149 56.9546 40.3342 56.9337 40.3483 56.9095C40.3624 56.8853 40.371 56.8584 40.3734 56.8307L40.4745 55.7304C40.4766 55.7049 40.484 55.68 40.4962 55.6573C40.5084 55.6346 40.5252 55.6146 40.5456 55.5985C40.5659 55.5823 40.5894 55.5704 40.6146 55.5634C40.6398 55.5563 40.6662 55.5544 40.6922 55.5576C41.594 55.6741 42.2937 56.1016 42.7912 56.8403C42.816 56.8768 42.8275 56.9205 42.824 56.9641C42.8205 57.0077 42.802 57.0487 42.7718 57.0803C42.3189 57.5507 42.1421 58.1901 41.732 58.5876C40.9118 59.3845 39.7282 59.8472 39.8895 61.2893C39.8949 61.3381 39.9189 61.3831 39.9565 61.4149C39.9941 61.4467 40.0425 61.4629 40.0916 61.4602C40.422 61.4435 40.7187 61.336 40.9818 61.1376C41.0032 61.1212 41.021 61.1009 41.034 61.0778C41.0471 61.0546 41.0551 61.0292 41.0576 61.0032L41.1159 60.4041C41.1187 60.3703 41.1307 60.3379 41.1505 60.3102C41.1703 60.2825 41.1973 60.2606 41.2286 60.2466C42.1226 59.8453 42.6007 59.4133 43.1235 58.5108C43.4241 57.9936 43.8012 57.5546 44.2547 57.1936C44.4594 57.031 44.4918 56.8159 44.3519 56.5484L43.382 54.7127C43.3677 54.6854 43.36 54.6551 43.3596 54.6244C43.3593 54.5937 43.3663 54.5635 43.3801 54.5361C43.7027 53.9063 44.3402 53.2457 44.5404 52.5641C44.6985 52.0162 44.7386 51.4536 44.6609 50.8762C44.6568 50.8446 44.6608 50.8124 44.6723 50.7826C44.6839 50.7528 44.7027 50.7263 44.7271 50.7054C44.7515 50.6845 44.7808 50.6699 44.8123 50.6629C44.8438 50.6558 44.8766 50.6566 44.9077 50.665C45.185 50.7431 45.4616 50.8238 45.7376 50.907C46.2993 51.074 46.7988 51.0337 47.343 50.9012C47.3856 50.8909 47.4235 50.8668 47.4507 50.8326C47.4778 50.7985 47.4926 50.7564 47.4926 50.713L47.4829 49.6992C47.4829 49.6522 47.5002 49.6071 47.5315 49.5725C47.9293 49.1219 47.9532 48.6533 47.6034 48.1669C47.5886 48.1456 47.5783 48.1216 47.5729 48.0962C47.5676 48.0708 47.5674 48.0446 47.5723 48.019C47.6384 47.6875 47.5425 47.4635 47.2846 47.347C47.2558 47.334 47.2306 47.3143 47.2112 47.2895C47.1919 47.2647 47.179 47.2356 47.1736 47.2047C47.1682 47.1739 47.1706 47.1422 47.1805 47.1124C47.1903 47.0827 47.2074 47.0557 47.2302 47.034C47.6721 46.6116 47.8165 46.065 47.6636 45.3942C47.5976 45.1036 47.4382 44.9237 47.1855 44.8546C47.1543 44.8457 47.1258 44.8296 47.1025 44.8075C47.0791 44.7854 47.0616 44.7581 47.0514 44.7279C46.824 44.0328 46.204 44.3419 45.7687 44.5493C45.6715 44.5954 45.6339 44.5666 45.656 44.4629C45.665 44.4168 45.7059 44.3855 45.7784 44.3688C46.4159 44.2139 46.9277 43.9445 47.3138 43.5604C47.3452 43.5294 47.3645 43.4886 47.3682 43.4452L47.4848 42.2854C47.4879 42.2549 47.4835 42.2242 47.472 42.1957C47.4606 42.1672 47.4424 42.1419 47.419 42.1218C47.3956 42.1017 47.3676 42.0874 47.3375 42.0801C47.3074 42.0728 47.2759 42.0728 47.2458 42.08C46.9089 42.1606 46.7061 42.3923 46.6375 42.7751C46.5921 43.0298 46.4159 43.1879 46.1088 43.2494C45.8406 43.3044 45.4836 43.3678 45.0379 43.4395C44.5831 43.5124 43.6949 44.6376 43.2887 44.9948C43.267 45.0139 43.2499 45.0377 43.2388 45.0643C43.2277 45.0909 43.2228 45.1197 43.2246 45.1484L43.3354 47.2663C43.3367 47.3062 43.3517 47.3453 43.3781 47.3777L44.6395 48.8927C44.6708 48.9298 44.6868 48.9764 44.6842 49.0233C44.6661 49.4137 44.4626 49.632 44.0739 49.6781C44.0253 49.6841 43.9758 49.6711 43.9359 49.6416C43.1274 49.0444 42.4647 48.8466 41.3685 48.7622C39.9206 48.6527 38.4416 48.3436 37.2133 47.5352C37.1883 47.5186 37.1675 47.4966 37.1524 47.4709C37.1374 47.4452 37.1284 47.4165 37.1264 47.387C37.1243 47.3575 37.1291 47.3279 37.1405 47.3007C37.1519 47.2735 37.1694 47.2492 37.1919 47.2299L38.2511 46.3101C38.2708 46.2931 38.2936 46.2801 38.3183 46.2718C38.343 46.2636 38.369 46.2603 38.3949 46.2621C39.0169 46.312 39.0207 45.6016 39.6388 45.3923C39.8662 45.3135 39.977 45.158 39.8273 44.9353C39.8057 44.9051 39.7755 44.8812 39.7399 44.8661C38.8756 44.509 38.9223 44.2056 39.8798 43.956C39.921 43.9457 39.9575 43.922 39.9835 43.8886C40.0096 43.8552 40.0237 43.814 40.0236 43.7716C40.0262 43.4811 40.1311 43.2398 40.3385 43.0477C40.3624 43.0257 40.3803 42.998 40.3906 42.9673C40.4008 42.9366 40.403 42.9038 40.397 42.872C40.391 42.8402 40.377 42.8104 40.3562 42.7854C40.3354 42.7604 40.3086 42.741 40.2782 42.729L39.3026 42.3392C39.2728 42.3271 39.2465 42.3079 39.226 42.2834C39.2056 42.2588 39.1917 42.2295 39.1855 42.1983C39.1794 42.1671 39.1811 42.1348 39.1907 42.1045C39.2003 42.0741 39.2173 42.0465 39.2404 42.0243L39.7282 41.5577C39.9355 41.3593 39.8947 41.2498 39.6057 41.2294L38.7156 41.166C38.6858 41.1635 38.6571 41.1547 38.6315 41.1401C38.606 41.1254 38.5842 41.1054 38.5679 41.0815C38.0062 40.2578 38.7972 40.4114 39.048 40.0293C39.1633 39.8539 38.9961 39.77 38.5465 39.7777C38.4053 39.7803 38.2116 39.8116 37.9654 39.8718C37.8488 39.9 37.7464 39.8929 37.6583 39.8507C37.635 39.8392 37.6142 39.8232 37.5973 39.8035C37.5804 39.7839 37.5676 39.761 37.5598 39.7363C37.552 39.7115 37.5493 39.6855 37.5519 39.6596C37.5545 39.6337 37.5622 39.6086 37.5748 39.5857C37.6214 39.5025 37.6402 39.4193 37.6311 39.3361C37.6278 39.3059 37.6172 39.2769 37.6003 39.2515C37.5834 39.2261 37.5606 39.2051 37.5338 39.1901C37.5071 39.1751 37.4771 39.1666 37.4464 39.1652C37.4157 39.1639 37.385 39.1698 37.3571 39.1825C36.914 39.3822 36.4929 39.393 36.0938 39.2151C35.5651 38.977 34.78 38.8195 35.0793 39.7643C35.1764 40.0734 34.9199 39.9947 34.8557 39.8142C34.7534 39.5287 34.5934 39.2785 34.3757 39.0634C34.3383 39.0264 34.3174 38.9767 34.3174 38.9252L34.3193 38.7235C34.3196 38.6947 34.3134 38.6662 34.3012 38.64C34.2889 38.6139 34.2709 38.5908 34.2485 38.5726C34.2261 38.5543 34.1998 38.5413 34.1717 38.5345C34.1436 38.5278 34.1144 38.5274 34.0861 38.5334C33.722 38.6103 33.529 38.84 33.5069 39.2228C33.5045 39.2613 33.4905 39.2982 33.4666 39.3287C33.4426 39.3591 33.41 39.3818 33.3728 39.3937L32.6226 39.6337C32.5811 39.647 32.5453 39.6735 32.521 39.709C32.4967 39.7445 32.4852 39.787 32.4885 39.8296L32.5196 40.2328C32.5226 40.2703 32.5142 40.3079 32.4955 40.3407C32.4768 40.3735 32.4487 40.4001 32.4147 40.4171C31.4753 40.892 30.7063 41.5577 30.1077 42.4141C30.0893 42.4406 30.078 42.4712 30.0747 42.5031C30.0714 42.5351 30.0762 42.5673 30.0888 42.5969C30.1013 42.6265 30.1212 42.6525 30.1466 42.6726C30.172 42.6927 30.202 42.7061 30.234 42.7117C30.672 42.7872 30.9421 43.0247 31.0445 43.4241C31.0524 43.4543 31.0675 43.4822 31.0886 43.5054C31.1097 43.5285 31.1362 43.5463 31.1658 43.5573C31.1953 43.5682 31.2271 43.5719 31.2584 43.5681C31.2898 43.5643 31.3197 43.5531 31.3457 43.5355L32.2553 42.9076C32.2875 42.8855 32.3254 42.8734 32.3642 42.8727C32.403 42.872 32.4409 42.8828 32.473 42.9037C32.8422 43.1406 32.8876 43.4171 32.609 43.7332C31.7422 44.7087 30.8268 45.542 30.6169 46.865C30.5495 47.2964 30.3293 47.4136 29.9561 47.2164L28.5257 46.4618C28.2588 46.321 28.0495 46.3472 27.8979 46.5405C27.3887 47.187 26.9177 47.8584 26.485 48.5548C26.0263 49.296 25.8825 50.233 25.5151 51.0663C25.3493 51.4401 25.4277 51.6603 25.7503 51.7269C26.1001 51.7973 26.3722 51.7218 26.5666 51.5003C26.5908 51.4726 26.6069 51.4394 26.6132 51.4043C26.6689 51.0407 26.7175 50.6753 26.759 50.3079C26.7979 49.945 27.1302 49.7011 27.2293 49.2806C27.3401 48.8044 28.3877 47.1895 28.8327 48.236C29.1761 49.0412 29.5888 49.6909 30.0708 50.185C30.0939 50.2084 30.1105 50.2373 30.1192 50.2688C30.1278 50.3004 30.1282 50.3336 30.1202 50.3653C30.1122 50.3971 30.0962 50.4262 30.0736 50.4501C30.051 50.474 30.0226 50.4918 29.9911 50.5018L28.6831 50.9204C28.2581 51.0561 28.0774 51.3083 28.1408 51.677C28.229 52.1813 28.2989 52.6774 28.3507 53.1651C28.4129 53.7699 28.1544 54.7147 28.6442 55.2696C28.9047 55.5634 30.6227 57.9559 30.374 55.6114C30.3699 55.576 30.3564 55.5425 30.3348 55.5144C30.3132 55.4864 30.2844 55.4648 30.2515 55.452C29.7404 55.2542 29.5033 54.9067 29.5246 54.3613C29.546 53.7853 29.0951 53.3033 29.0621 52.7887C29.0251 52.1762 29.5227 51.9439 30.0902 52.0975C31.1028 52.3701 32.1698 52.6063 33.1804 52.1666C33.2066 52.1552 33.2348 52.1495 33.263 52.1498C33.2912 52.1502 33.3187 52.1565 33.3437 52.1685C34.6769 52.8099 36.0847 53.151 37.567 53.192C37.6007 53.1931 37.6337 53.2029 37.6626 53.2204C37.6916 53.2378 37.7155 53.2625 37.7322 53.2918C38.0529 53.8698 39.0965 55.0776 39.1238 55.6478Z" stroke="#808080" stroke-width="1.88707"/>
<path d="M41.7197 36.3197C41.7175 36.3297 41.7175 36.34 41.7196 36.35C41.7217 36.3599 41.7259 36.3693 41.7319 36.3773C41.7379 36.3853 41.7455 36.3918 41.7543 36.3962C41.763 36.4007 41.7725 36.403 41.7822 36.403L42.3259 36.3991C42.3357 36.3989 42.3452 36.3963 42.3539 36.3916C42.3625 36.387 42.37 36.3803 42.3759 36.372C42.3817 36.3638 42.3857 36.3544 42.3875 36.3443C42.3894 36.3342 42.3891 36.3238 42.3866 36.3139L42.1073 35.1886C42.1037 35.1739 42.0955 35.1609 42.0841 35.1517C42.0726 35.1425 42.0586 35.1377 42.0442 35.1379C42.0298 35.1381 42.0158 35.1434 42.0047 35.153C41.9935 35.1625 41.9856 35.1758 41.9824 35.1906L41.7197 36.3197ZM45.0478 35.0891C45.0474 35.0444 45.0302 35.0018 45 34.9705C44.9698 34.9391 44.929 34.9218 44.8867 34.9221L44.207 34.9283C44.186 34.9285 44.1653 34.9331 44.1459 34.9417C44.1266 34.9504 44.1091 34.963 44.0944 34.9788C44.0797 34.9946 44.0681 35.0133 44.0602 35.0338C44.0524 35.0543 44.0484 35.0762 44.0486 35.0984L44.0532 35.6523C44.0536 35.697 44.0708 35.7396 44.101 35.7709C44.1312 35.8022 44.172 35.8196 44.2143 35.8193L44.894 35.8131C44.915 35.8129 44.9357 35.8083 44.9551 35.7996C44.9744 35.791 44.9919 35.7784 45.0066 35.7626C45.0213 35.7468 45.0329 35.7281 45.0408 35.7076C45.0486 35.6871 45.0526 35.6651 45.0524 35.643L45.0478 35.0891ZM48.7663 73.375L47.4088 73.7043C47.1786 73.7598 47.1082 73.672 47.1976 73.4408C47.4878 72.6971 47.944 72.078 48.5661 71.5834C48.737 71.4498 49.6591 70.8358 49.6628 70.6789C49.6629 70.6566 49.6586 70.6345 49.65 70.6141C49.6414 70.5937 49.6287 70.5754 49.6129 70.5606C49.5971 70.5457 49.5784 70.5346 49.5582 70.528C49.538 70.5213 49.5166 70.5193 49.4956 70.5221C47.508 70.801 45.9815 72.4531 45.1475 74.2814C45.1275 74.3262 45.0912 74.361 45.0465 74.3783L43.9847 74.7947C43.7839 74.8735 43.7024 74.8018 43.7404 74.5797C43.9033 73.6152 44.2982 72.7733 44.9252 72.0541C45.1371 71.8113 45.3453 71.5654 45.5498 71.3162C45.8156 70.9946 45.7531 70.8901 45.3624 71.0024C44.5921 71.2258 43.9688 71.6861 43.4924 72.3833C42.7968 73.4047 42.329 74.5364 42.089 75.7786C42.0836 75.8069 42.0722 75.8337 42.0558 75.8568C42.0393 75.8799 42.0181 75.8988 41.9938 75.9122C41.9695 75.9256 41.9427 75.933 41.9153 75.9341C41.8879 75.9351 41.8606 75.9296 41.8355 75.918C40.9733 75.5204 40.489 75.7521 40.3824 76.6134C40.3764 76.6526 40.3598 76.6895 40.3347 76.7199C39.9318 77.1809 39.9195 77.6431 40.2979 78.1067C40.3137 78.1263 40.3328 78.1424 40.3543 78.1541C40.3757 78.1657 40.399 78.1726 40.4228 78.1744C40.7829 78.2041 41.1386 78.2616 41.4901 78.3468C42.0779 78.4901 42.2598 78.432 42.3388 77.7832C42.3694 77.5237 42.4968 77.3371 42.7209 77.2235C45.0171 76.0498 47.5148 75.2886 50.2139 74.94C52.0527 74.7017 53.7721 75.5462 55.1259 76.8632C55.2912 77.024 55.3886 76.747 55.3464 76.5998C55.001 75.3796 54.2791 74.4758 53.1806 73.8883C52.9846 73.7837 52.9803 73.6713 53.1677 73.5512L54.3415 72.7978C54.4983 72.6984 54.4885 72.6235 54.3121 72.5732C54.295 72.568 54.276 72.5641 54.2552 72.5615C53.2743 72.4582 52.4109 72.7133 51.6651 73.3266C51.6459 73.3426 51.6238 73.3544 51.6002 73.3614C51.5765 73.3683 51.5518 73.3703 51.5273 73.3673L50.5445 73.2278C50.3216 73.1968 50.2837 73.0909 50.4306 72.9102C50.6682 72.6171 50.937 72.3588 51.2371 72.1354C51.5126 71.9301 51.7698 71.6958 52.0086 71.4324C52.2058 71.2154 52.1617 71.1063 51.8763 71.105C51.6191 71.1038 51.3663 71.1593 51.1177 71.2716C50.1526 71.7042 49.4074 72.3756 48.8821 73.2859C48.8562 73.3306 48.8146 73.3626 48.7663 73.375ZM41.2807 82.3986C41.2664 82.4432 41.2374 82.4809 41.1989 82.5047C41.1605 82.5285 41.1152 82.5369 41.0713 82.5284C40.1032 82.3386 40.0003 83.1521 39.8019 83.8668C39.795 83.8928 39.7932 83.9201 39.7966 83.9468C39.8 83.9736 39.8085 83.9992 39.8216 84.0221C39.8347 84.0451 39.8522 84.0648 39.8728 84.0801C39.8934 84.0953 39.9169 84.1058 39.9416 84.1108L41.1944 84.3761C41.2334 84.3846 41.274 84.3794 41.3101 84.3612C41.3462 84.343 41.3759 84.3129 41.3946 84.2754L41.7344 83.5782C41.75 83.5453 41.7749 83.5177 41.8061 83.4988C43.4465 82.5071 45.9337 81.4632 47.8166 81.7382C48.5465 81.8454 49.2335 82.1114 49.8777 82.5362C50.1802 82.735 50.2702 82.6582 50.1477 82.3057C50.0914 82.1417 49.9953 81.9816 49.8593 81.8253C49.5115 81.4251 49.1062 81.1029 48.6433 80.8589C48.6164 80.8445 48.5933 80.8235 48.5758 80.7978C48.5583 80.772 48.547 80.7422 48.5428 80.7109C48.5387 80.6797 48.5418 80.6479 48.5519 80.6183C48.5621 80.5888 48.5789 80.5623 48.601 80.5412L49.1062 80.059C49.1217 80.0425 49.132 80.0216 49.1356 79.9989C49.2164 79.3985 47.7744 80.274 47.6237 80.3882C47.4425 80.5264 47.2374 80.5729 47.0084 80.5277C46.9787 80.5217 46.9509 80.5082 46.9274 80.4882C46.9039 80.4682 46.8854 80.4424 46.8736 80.4131C46.8618 80.3838 46.857 80.3519 46.8597 80.3202C46.8624 80.2885 46.8724 80.258 46.889 80.2313C47.1265 79.8466 47.4094 79.5018 47.7376 79.1971C47.8938 79.0518 47.8166 78.8504 47.6035 78.9143C46.6459 79.1997 45.9233 79.804 45.4359 80.7272C45.4238 80.7503 45.4073 80.7705 45.3874 80.7865C45.3674 80.8025 45.3446 80.814 45.3202 80.8201L44.7728 80.9654C44.5597 81.0222 44.4868 80.9396 44.5542 80.7175C44.7207 80.1726 44.9761 79.6794 45.3202 79.2378C45.5651 78.9227 45.5014 78.8194 45.1291 78.9279C44.4127 79.1358 43.9008 79.6058 43.5934 80.3379C43.4208 80.7498 43.3026 81.0939 43.2389 81.3702C43.2332 81.3975 43.2218 81.4231 43.2056 81.4451C43.1894 81.4672 43.1688 81.4853 43.1452 81.498L42.7117 81.7324C42.6839 81.7476 42.653 81.755 42.6217 81.754C42.5905 81.753 42.56 81.7437 42.5331 81.7268C42.5063 81.7099 42.484 81.6861 42.4683 81.6576C42.4526 81.6291 42.4441 81.5968 42.4435 81.5639C42.4276 80.8227 42.6039 80.141 42.9725 79.5186C43.1722 79.1803 43.0969 79.086 42.7466 79.2358C42.5678 79.312 42.4043 79.4192 42.2561 79.5573C41.5489 80.212 41.5746 81.4554 41.2807 82.3986Z" stroke="#808080" stroke-width="1.88707"/>
</svg>
